M48
; DRILL file {KiCad 8.0.0} date 2024-09-08T09:34:39+0200
; FORMAT={-:-/ absolute / metric / decimal}
; #@! TF.CreationDate,2024-09-08T09:34:39+02:00
; #@! TF.GenerationSoftware,Kicad,Pcbnew,8.0.0
; #@! TF.FileFunction,Plated,1,2,PTH
FMAT,2
METRIC
; #@! TA.AperFunction,Plated,PTH,ViaDrill
T1C0.200
; #@! TA.AperFunction,Plated,PTH,ViaDrill
T2C0.300
; #@! TA.AperFunction,Plated,PTH,ViaDrill
T3C0.400
; #@! TA.AperFunction,Plated,PTH,ComponentDrill
T4C0.800
; #@! TA.AperFunction,Plated,PTH,ComponentDrill
T5C1.000
; #@! TA.AperFunction,Plated,PTH,ComponentDrill
T6C1.040
; #@! TA.AperFunction,Plated,PTH,ComponentDrill
T7C1.300
; #@! TA.AperFunction,Plated,PTH,ComponentDrill
T8C2.500
%
G90
G05
T1
X101.75Y-74.05
X101.8Y-80.35
X103.0Y-118.0
X103.0Y-129.0
X103.25Y-86.35
X104.75Y-80.65
X105.5Y-76.3
X106.15Y-79.15
X107.6Y-95.3
X107.98Y-96.08
X109.21Y-94.44
X109.21Y-96.8
X112.9Y-111.4
X115.3Y-76.5
X116.9Y-87.0
X119.45Y-77.45
X120.1Y-111.4
X121.9Y-104.8
X121.962Y-94.962
X123.2Y-88.1
X123.232Y-94.9
X123.925Y-101.3
X124.502Y-94.9
X124.7Y-88.4
X125.772Y-95.0
X125.8Y-97.9
X125.8Y-103.7
X126.2Y-88.2
X127.042Y-94.942
X127.3Y-111.4
X127.7Y-88.0
X134.4Y-111.4
X136.8Y-104.5
X137.0Y-106.8
X137.7Y-101.3
X139.1Y-102.5
X139.5Y-103.7
X139.8Y-106.8
X140.0Y-103.1
X140.7Y-101.9
X141.6Y-111.4
X141.9Y-90.35
X141.95Y-86.85
X143.4Y-94.2
X144.2Y-103.7
X144.525Y-95.325
X144.8Y-84.0
X146.0Y-87.2
X146.5Y-93.1
X147.3Y-101.9
X147.5Y-83.5
X147.6Y-92.4
X148.5Y-102.5
X148.7Y-111.4
X149.1Y-103.1
X149.6Y-93.1
X149.7Y-103.7
X150.1Y-104.3
X150.5Y-85.0
X150.5Y-130.5
X155.8Y-111.4
X159.925Y-94.875
X160.0Y-101.7
X160.3Y-106.5
X160.775Y-92.0
X161.6Y-101.7
X162.3Y-101.9
X163.0Y-107.0
X163.2Y-100.0
X163.9Y-93.7
X164.2Y-95.6
X165.642Y-102.725
X166.0Y-96.2
X166.142Y-102.075
X166.642Y-101.425
X167.142Y-100.775
X167.642Y-100.125
X167.8Y-98.2
X167.9Y-93.7
X168.142Y-99.475
X168.5Y-97.5
X168.642Y-98.825
X169.2Y-96.875
X171.742Y-104.0
X171.9Y-93.7
X175.0Y-97.525
X175.1Y-98.8
X177.7Y-96.225
X178.0Y-96.9
X182.5Y-90.88
X182.7Y-95.212
X184.2Y-90.9
X184.2Y-97.4
X186.0Y-90.88
X186.0Y-95.96
X189.5Y-92.4
X190.7Y-94.7
T2
X106.0Y-82.95
X127.5Y-71.4
X127.5Y-77.2
X150.8Y-90.7
X150.8Y-94.2
X159.0Y-97.4
X159.3Y-68.8
X159.3Y-74.6
X175.2Y-93.7
X178.6Y-93.9
T3
X109.22Y-109.6
X116.4Y-109.6
X123.6Y-109.7
X130.7Y-109.6
X137.9Y-109.7
X145.1Y-109.7
X149.3Y-88.5
X152.2Y-109.6
X159.0Y-88.5
X159.4Y-109.6
X165.54Y-109.6
X171.02Y-85.5
X173.9Y-109.6
X178.02Y-90.88
X178.32Y-85.5
X181.1Y-109.6
X185.52Y-85.5
X188.3Y-109.6
X192.72Y-85.5
T4
X132.7Y-68.825
X132.7Y-71.365
X132.7Y-74.625
X132.7Y-77.165
X140.32Y-68.825
X140.32Y-71.365
X140.32Y-74.625
X140.32Y-77.165
X146.6Y-68.76
X146.6Y-71.3
X146.6Y-74.56
X146.6Y-77.1
X154.22Y-68.76
X154.22Y-71.3
X154.22Y-74.56
X154.22Y-77.1
T5
X104.1Y-91.0
X104.1Y-93.54
X104.1Y-96.08
X104.1Y-98.62
X104.1Y-101.16
X112.753Y-74.7
X115.293Y-74.7
X117.833Y-74.7
X140.4Y-99.86
X142.94Y-99.86
X145.48Y-99.86
X148.02Y-99.86
X150.56Y-99.86
X197.025Y-91.0
X197.025Y-93.54
X197.025Y-96.08
X197.025Y-98.62
X197.025Y-101.16
T6
X107.94Y-80.4
X107.94Y-105.8
X110.48Y-80.4
X110.48Y-105.8
X113.02Y-80.4
X113.02Y-105.8
X115.56Y-80.4
X115.56Y-105.8
X118.1Y-80.4
X118.1Y-105.8
X120.64Y-80.4
X120.64Y-105.8
X123.18Y-80.4
X123.18Y-105.8
X125.72Y-80.4
X125.72Y-105.8
X128.26Y-80.4
X128.26Y-105.8
X130.8Y-80.4
X130.8Y-105.8
X133.34Y-80.4
X133.34Y-105.8
X135.88Y-80.4
X135.88Y-105.8
X138.42Y-80.4
X138.42Y-105.8
X140.96Y-80.4
X140.96Y-105.8
X143.5Y-80.4
X143.5Y-105.8
X146.04Y-80.4
X146.04Y-105.8
X148.58Y-80.4
X148.58Y-105.8
X151.12Y-80.4
X151.12Y-105.8
X153.66Y-80.4
X153.66Y-105.8
T7
X108.675Y-61.16
X108.675Y-133.58
X113.675Y-61.16
X113.675Y-133.58
X118.675Y-61.16
X118.675Y-133.58
X123.675Y-61.16
X123.675Y-133.58
X128.675Y-61.16
X128.675Y-133.58
X133.675Y-61.16
X133.675Y-133.58
X138.675Y-61.16
X138.675Y-133.58
X143.675Y-61.16
X143.675Y-133.58
X158.675Y-61.16
X158.675Y-133.58
X163.675Y-61.16
X163.675Y-133.58
X168.675Y-61.16
X168.675Y-133.58
X173.675Y-61.16
X173.675Y-133.58
X178.675Y-61.16
X178.675Y-133.58
X183.675Y-61.16
X183.675Y-133.58
X188.675Y-61.16
X188.675Y-133.58
X193.675Y-61.16
X193.675Y-133.58
T8
X105.05Y-71.9
X105.05Y-122.8
X197.3Y-71.9
X197.3Y-122.8
M30
