%TF.GenerationSoftware,KiCad,Pcbnew,8.0.0*%
%TF.CreationDate,2024-05-11T13:18:48+02:00*%
%TF.ProjectId,led_stairs_controller,6c65645f-7374-4616-9972-735f636f6e74,V0.2*%
%TF.SameCoordinates,Original*%
%TF.FileFunction,Legend,Bot*%
%TF.FilePolarity,Positive*%
%FSLAX46Y46*%
G04 Gerber Fmt 4.6, Leading zero omitted, Abs format (unit mm)*
G04 Created by KiCad (PCBNEW 8.0.0) date 2024-05-11 13:18:48*
%MOMM*%
%LPD*%
G01*
G04 APERTURE LIST*
%ADD10C,0.150000*%
%ADD11C,0.120000*%
G04 APERTURE END LIST*
D10*
X136264160Y-104332442D02*
X136311779Y-104380061D01*
X136311779Y-104380061D02*
X136407017Y-104427680D01*
X136407017Y-104427680D02*
X136645112Y-104427680D01*
X136645112Y-104427680D02*
X136740350Y-104380061D01*
X136740350Y-104380061D02*
X136787969Y-104332442D01*
X136787969Y-104332442D02*
X136835588Y-104237204D01*
X136835588Y-104237204D02*
X136835588Y-104141966D01*
X136835588Y-104141966D02*
X136787969Y-103999109D01*
X136787969Y-103999109D02*
X136216541Y-103427680D01*
X136216541Y-103427680D02*
X136835588Y-103427680D01*
X137787969Y-103427680D02*
X137216541Y-103427680D01*
X137502255Y-103427680D02*
X137502255Y-104427680D01*
X137502255Y-104427680D02*
X137407017Y-104284823D01*
X137407017Y-104284823D02*
X137311779Y-104189585D01*
X137311779Y-104189585D02*
X137216541Y-104141966D01*
X126787969Y-104427680D02*
X126311779Y-104427680D01*
X126311779Y-104427680D02*
X126264160Y-103951490D01*
X126264160Y-103951490D02*
X126311779Y-103999109D01*
X126311779Y-103999109D02*
X126407017Y-104046728D01*
X126407017Y-104046728D02*
X126645112Y-104046728D01*
X126645112Y-104046728D02*
X126740350Y-103999109D01*
X126740350Y-103999109D02*
X126787969Y-103951490D01*
X126787969Y-103951490D02*
X126835588Y-103856252D01*
X126835588Y-103856252D02*
X126835588Y-103618157D01*
X126835588Y-103618157D02*
X126787969Y-103522919D01*
X126787969Y-103522919D02*
X126740350Y-103475300D01*
X126740350Y-103475300D02*
X126645112Y-103427680D01*
X126645112Y-103427680D02*
X126407017Y-103427680D01*
X126407017Y-103427680D02*
X126311779Y-103475300D01*
X126311779Y-103475300D02*
X126264160Y-103522919D01*
X143764160Y-104332442D02*
X143811779Y-104380061D01*
X143811779Y-104380061D02*
X143907017Y-104427680D01*
X143907017Y-104427680D02*
X144145112Y-104427680D01*
X144145112Y-104427680D02*
X144240350Y-104380061D01*
X144240350Y-104380061D02*
X144287969Y-104332442D01*
X144287969Y-104332442D02*
X144335588Y-104237204D01*
X144335588Y-104237204D02*
X144335588Y-104141966D01*
X144335588Y-104141966D02*
X144287969Y-103999109D01*
X144287969Y-103999109D02*
X143716541Y-103427680D01*
X143716541Y-103427680D02*
X144335588Y-103427680D01*
X144716541Y-104332442D02*
X144764160Y-104380061D01*
X144764160Y-104380061D02*
X144859398Y-104427680D01*
X144859398Y-104427680D02*
X145097493Y-104427680D01*
X145097493Y-104427680D02*
X145192731Y-104380061D01*
X145192731Y-104380061D02*
X145240350Y-104332442D01*
X145240350Y-104332442D02*
X145287969Y-104237204D01*
X145287969Y-104237204D02*
X145287969Y-104141966D01*
X145287969Y-104141966D02*
X145240350Y-103999109D01*
X145240350Y-103999109D02*
X144668922Y-103427680D01*
X144668922Y-103427680D02*
X145287969Y-103427680D01*
X126154160Y-82742442D02*
X126201779Y-82790061D01*
X126201779Y-82790061D02*
X126297017Y-82837680D01*
X126297017Y-82837680D02*
X126535112Y-82837680D01*
X126535112Y-82837680D02*
X126630350Y-82790061D01*
X126630350Y-82790061D02*
X126677969Y-82742442D01*
X126677969Y-82742442D02*
X126725588Y-82647204D01*
X126725588Y-82647204D02*
X126725588Y-82551966D01*
X126725588Y-82551966D02*
X126677969Y-82409109D01*
X126677969Y-82409109D02*
X126106541Y-81837680D01*
X126106541Y-81837680D02*
X126725588Y-81837680D01*
X127582731Y-82837680D02*
X127392255Y-82837680D01*
X127392255Y-82837680D02*
X127297017Y-82790061D01*
X127297017Y-82790061D02*
X127249398Y-82742442D01*
X127249398Y-82742442D02*
X127154160Y-82599585D01*
X127154160Y-82599585D02*
X127106541Y-82409109D01*
X127106541Y-82409109D02*
X127106541Y-82028157D01*
X127106541Y-82028157D02*
X127154160Y-81932919D01*
X127154160Y-81932919D02*
X127201779Y-81885300D01*
X127201779Y-81885300D02*
X127297017Y-81837680D01*
X127297017Y-81837680D02*
X127487493Y-81837680D01*
X127487493Y-81837680D02*
X127582731Y-81885300D01*
X127582731Y-81885300D02*
X127630350Y-81932919D01*
X127630350Y-81932919D02*
X127677969Y-82028157D01*
X127677969Y-82028157D02*
X127677969Y-82266252D01*
X127677969Y-82266252D02*
X127630350Y-82361490D01*
X127630350Y-82361490D02*
X127582731Y-82409109D01*
X127582731Y-82409109D02*
X127487493Y-82456728D01*
X127487493Y-82456728D02*
X127297017Y-82456728D01*
X127297017Y-82456728D02*
X127201779Y-82409109D01*
X127201779Y-82409109D02*
X127154160Y-82361490D01*
X127154160Y-82361490D02*
X127106541Y-82266252D01*
X133716541Y-82837680D02*
X134335588Y-82837680D01*
X134335588Y-82837680D02*
X134002255Y-82456728D01*
X134002255Y-82456728D02*
X134145112Y-82456728D01*
X134145112Y-82456728D02*
X134240350Y-82409109D01*
X134240350Y-82409109D02*
X134287969Y-82361490D01*
X134287969Y-82361490D02*
X134335588Y-82266252D01*
X134335588Y-82266252D02*
X134335588Y-82028157D01*
X134335588Y-82028157D02*
X134287969Y-81932919D01*
X134287969Y-81932919D02*
X134240350Y-81885300D01*
X134240350Y-81885300D02*
X134145112Y-81837680D01*
X134145112Y-81837680D02*
X133859398Y-81837680D01*
X133859398Y-81837680D02*
X133764160Y-81885300D01*
X133764160Y-81885300D02*
X133716541Y-81932919D01*
X134716541Y-82742442D02*
X134764160Y-82790061D01*
X134764160Y-82790061D02*
X134859398Y-82837680D01*
X134859398Y-82837680D02*
X135097493Y-82837680D01*
X135097493Y-82837680D02*
X135192731Y-82790061D01*
X135192731Y-82790061D02*
X135240350Y-82742442D01*
X135240350Y-82742442D02*
X135287969Y-82647204D01*
X135287969Y-82647204D02*
X135287969Y-82551966D01*
X135287969Y-82551966D02*
X135240350Y-82409109D01*
X135240350Y-82409109D02*
X134668922Y-81837680D01*
X134668922Y-81837680D02*
X135287969Y-81837680D01*
X108396779Y-81767680D02*
X108396779Y-82767680D01*
X108396779Y-82767680D02*
X108634874Y-82767680D01*
X108634874Y-82767680D02*
X108777731Y-82720061D01*
X108777731Y-82720061D02*
X108872969Y-82624823D01*
X108872969Y-82624823D02*
X108920588Y-82529585D01*
X108920588Y-82529585D02*
X108968207Y-82339109D01*
X108968207Y-82339109D02*
X108968207Y-82196252D01*
X108968207Y-82196252D02*
X108920588Y-82005776D01*
X108920588Y-82005776D02*
X108872969Y-81910538D01*
X108872969Y-81910538D02*
X108777731Y-81815300D01*
X108777731Y-81815300D02*
X108634874Y-81767680D01*
X108634874Y-81767680D02*
X108396779Y-81767680D01*
X109301541Y-82767680D02*
X109920588Y-82767680D01*
X109920588Y-82767680D02*
X109587255Y-82386728D01*
X109587255Y-82386728D02*
X109730112Y-82386728D01*
X109730112Y-82386728D02*
X109825350Y-82339109D01*
X109825350Y-82339109D02*
X109872969Y-82291490D01*
X109872969Y-82291490D02*
X109920588Y-82196252D01*
X109920588Y-82196252D02*
X109920588Y-81958157D01*
X109920588Y-81958157D02*
X109872969Y-81862919D01*
X109872969Y-81862919D02*
X109825350Y-81815300D01*
X109825350Y-81815300D02*
X109730112Y-81767680D01*
X109730112Y-81767680D02*
X109444398Y-81767680D01*
X109444398Y-81767680D02*
X109349160Y-81815300D01*
X109349160Y-81815300D02*
X109301541Y-81862919D01*
X130716541Y-82837680D02*
X131335588Y-82837680D01*
X131335588Y-82837680D02*
X131002255Y-82456728D01*
X131002255Y-82456728D02*
X131145112Y-82456728D01*
X131145112Y-82456728D02*
X131240350Y-82409109D01*
X131240350Y-82409109D02*
X131287969Y-82361490D01*
X131287969Y-82361490D02*
X131335588Y-82266252D01*
X131335588Y-82266252D02*
X131335588Y-82028157D01*
X131335588Y-82028157D02*
X131287969Y-81932919D01*
X131287969Y-81932919D02*
X131240350Y-81885300D01*
X131240350Y-81885300D02*
X131145112Y-81837680D01*
X131145112Y-81837680D02*
X130859398Y-81837680D01*
X130859398Y-81837680D02*
X130764160Y-81885300D01*
X130764160Y-81885300D02*
X130716541Y-81932919D01*
X131668922Y-82837680D02*
X132287969Y-82837680D01*
X132287969Y-82837680D02*
X131954636Y-82456728D01*
X131954636Y-82456728D02*
X132097493Y-82456728D01*
X132097493Y-82456728D02*
X132192731Y-82409109D01*
X132192731Y-82409109D02*
X132240350Y-82361490D01*
X132240350Y-82361490D02*
X132287969Y-82266252D01*
X132287969Y-82266252D02*
X132287969Y-82028157D01*
X132287969Y-82028157D02*
X132240350Y-81932919D01*
X132240350Y-81932919D02*
X132192731Y-81885300D01*
X132192731Y-81885300D02*
X132097493Y-81837680D01*
X132097493Y-81837680D02*
X131811779Y-81837680D01*
X131811779Y-81837680D02*
X131716541Y-81885300D01*
X131716541Y-81885300D02*
X131668922Y-81932919D01*
X103888207Y-103452919D02*
X103840588Y-103405300D01*
X103840588Y-103405300D02*
X103697731Y-103357680D01*
X103697731Y-103357680D02*
X103602493Y-103357680D01*
X103602493Y-103357680D02*
X103459636Y-103405300D01*
X103459636Y-103405300D02*
X103364398Y-103500538D01*
X103364398Y-103500538D02*
X103316779Y-103595776D01*
X103316779Y-103595776D02*
X103269160Y-103786252D01*
X103269160Y-103786252D02*
X103269160Y-103929109D01*
X103269160Y-103929109D02*
X103316779Y-104119585D01*
X103316779Y-104119585D02*
X103364398Y-104214823D01*
X103364398Y-104214823D02*
X103459636Y-104310061D01*
X103459636Y-104310061D02*
X103602493Y-104357680D01*
X103602493Y-104357680D02*
X103697731Y-104357680D01*
X103697731Y-104357680D02*
X103840588Y-104310061D01*
X103840588Y-104310061D02*
X103888207Y-104262442D01*
X104792969Y-103357680D02*
X104316779Y-103357680D01*
X104316779Y-103357680D02*
X104316779Y-104357680D01*
X143668922Y-82837680D02*
X144002255Y-81837680D01*
X144002255Y-81837680D02*
X144335588Y-82837680D01*
X144668922Y-81837680D02*
X144668922Y-82837680D01*
X144668922Y-82837680D02*
X145049874Y-82837680D01*
X145049874Y-82837680D02*
X145145112Y-82790061D01*
X145145112Y-82790061D02*
X145192731Y-82742442D01*
X145192731Y-82742442D02*
X145240350Y-82647204D01*
X145240350Y-82647204D02*
X145240350Y-82504347D01*
X145240350Y-82504347D02*
X145192731Y-82409109D01*
X145192731Y-82409109D02*
X145145112Y-82361490D01*
X145145112Y-82361490D02*
X145049874Y-82313871D01*
X145049874Y-82313871D02*
X144668922Y-82313871D01*
X119080588Y-81767680D02*
X118509160Y-81767680D01*
X118794874Y-81767680D02*
X118794874Y-82767680D01*
X118794874Y-82767680D02*
X118699636Y-82624823D01*
X118699636Y-82624823D02*
X118604398Y-82529585D01*
X118604398Y-82529585D02*
X118509160Y-82481966D01*
X119461541Y-82672442D02*
X119509160Y-82720061D01*
X119509160Y-82720061D02*
X119604398Y-82767680D01*
X119604398Y-82767680D02*
X119842493Y-82767680D01*
X119842493Y-82767680D02*
X119937731Y-82720061D01*
X119937731Y-82720061D02*
X119985350Y-82672442D01*
X119985350Y-82672442D02*
X120032969Y-82577204D01*
X120032969Y-82577204D02*
X120032969Y-82481966D01*
X120032969Y-82481966D02*
X119985350Y-82339109D01*
X119985350Y-82339109D02*
X119413922Y-81767680D01*
X119413922Y-81767680D02*
X120032969Y-81767680D01*
X106428207Y-81862919D02*
X106380588Y-81815300D01*
X106380588Y-81815300D02*
X106237731Y-81767680D01*
X106237731Y-81767680D02*
X106142493Y-81767680D01*
X106142493Y-81767680D02*
X105999636Y-81815300D01*
X105999636Y-81815300D02*
X105904398Y-81910538D01*
X105904398Y-81910538D02*
X105856779Y-82005776D01*
X105856779Y-82005776D02*
X105809160Y-82196252D01*
X105809160Y-82196252D02*
X105809160Y-82339109D01*
X105809160Y-82339109D02*
X105856779Y-82529585D01*
X105856779Y-82529585D02*
X105904398Y-82624823D01*
X105904398Y-82624823D02*
X105999636Y-82720061D01*
X105999636Y-82720061D02*
X106142493Y-82767680D01*
X106142493Y-82767680D02*
X106237731Y-82767680D01*
X106237731Y-82767680D02*
X106380588Y-82720061D01*
X106380588Y-82720061D02*
X106428207Y-82672442D01*
X106856779Y-81767680D02*
X106856779Y-82767680D01*
X106856779Y-82767680D02*
X107190112Y-82053395D01*
X107190112Y-82053395D02*
X107523445Y-82767680D01*
X107523445Y-82767680D02*
X107523445Y-81767680D01*
X138716541Y-82837680D02*
X139335588Y-82837680D01*
X139335588Y-82837680D02*
X139002255Y-82456728D01*
X139002255Y-82456728D02*
X139145112Y-82456728D01*
X139145112Y-82456728D02*
X139240350Y-82409109D01*
X139240350Y-82409109D02*
X139287969Y-82361490D01*
X139287969Y-82361490D02*
X139335588Y-82266252D01*
X139335588Y-82266252D02*
X139335588Y-82028157D01*
X139335588Y-82028157D02*
X139287969Y-81932919D01*
X139287969Y-81932919D02*
X139240350Y-81885300D01*
X139240350Y-81885300D02*
X139145112Y-81837680D01*
X139145112Y-81837680D02*
X138859398Y-81837680D01*
X138859398Y-81837680D02*
X138764160Y-81885300D01*
X138764160Y-81885300D02*
X138716541Y-81932919D01*
X140192731Y-82504347D02*
X140192731Y-81837680D01*
X139954636Y-82885300D02*
X139716541Y-82171014D01*
X139716541Y-82171014D02*
X140335588Y-82171014D01*
X124160588Y-103357680D02*
X123589160Y-103357680D01*
X123874874Y-103357680D02*
X123874874Y-104357680D01*
X123874874Y-104357680D02*
X123779636Y-104214823D01*
X123779636Y-104214823D02*
X123684398Y-104119585D01*
X123684398Y-104119585D02*
X123589160Y-104071966D01*
X124493922Y-104357680D02*
X125160588Y-104357680D01*
X125160588Y-104357680D02*
X124732017Y-103357680D01*
X105856779Y-103357680D02*
X105856779Y-104357680D01*
X105856779Y-104357680D02*
X106094874Y-104357680D01*
X106094874Y-104357680D02*
X106237731Y-104310061D01*
X106237731Y-104310061D02*
X106332969Y-104214823D01*
X106332969Y-104214823D02*
X106380588Y-104119585D01*
X106380588Y-104119585D02*
X106428207Y-103929109D01*
X106428207Y-103929109D02*
X106428207Y-103786252D01*
X106428207Y-103786252D02*
X106380588Y-103595776D01*
X106380588Y-103595776D02*
X106332969Y-103500538D01*
X106332969Y-103500538D02*
X106237731Y-103405300D01*
X106237731Y-103405300D02*
X106094874Y-103357680D01*
X106094874Y-103357680D02*
X105856779Y-103357680D01*
X107047255Y-104357680D02*
X107142493Y-104357680D01*
X107142493Y-104357680D02*
X107237731Y-104310061D01*
X107237731Y-104310061D02*
X107285350Y-104262442D01*
X107285350Y-104262442D02*
X107332969Y-104167204D01*
X107332969Y-104167204D02*
X107380588Y-103976728D01*
X107380588Y-103976728D02*
X107380588Y-103738633D01*
X107380588Y-103738633D02*
X107332969Y-103548157D01*
X107332969Y-103548157D02*
X107285350Y-103452919D01*
X107285350Y-103452919D02*
X107237731Y-103405300D01*
X107237731Y-103405300D02*
X107142493Y-103357680D01*
X107142493Y-103357680D02*
X107047255Y-103357680D01*
X107047255Y-103357680D02*
X106952017Y-103405300D01*
X106952017Y-103405300D02*
X106904398Y-103452919D01*
X106904398Y-103452919D02*
X106856779Y-103548157D01*
X106856779Y-103548157D02*
X106809160Y-103738633D01*
X106809160Y-103738633D02*
X106809160Y-103976728D01*
X106809160Y-103976728D02*
X106856779Y-104167204D01*
X106856779Y-104167204D02*
X106904398Y-104262442D01*
X106904398Y-104262442D02*
X106952017Y-104310061D01*
X106952017Y-104310061D02*
X107047255Y-104357680D01*
X108396779Y-103357680D02*
X108396779Y-104357680D01*
X108396779Y-104357680D02*
X108634874Y-104357680D01*
X108634874Y-104357680D02*
X108777731Y-104310061D01*
X108777731Y-104310061D02*
X108872969Y-104214823D01*
X108872969Y-104214823D02*
X108920588Y-104119585D01*
X108920588Y-104119585D02*
X108968207Y-103929109D01*
X108968207Y-103929109D02*
X108968207Y-103786252D01*
X108968207Y-103786252D02*
X108920588Y-103595776D01*
X108920588Y-103595776D02*
X108872969Y-103500538D01*
X108872969Y-103500538D02*
X108777731Y-103405300D01*
X108777731Y-103405300D02*
X108634874Y-103357680D01*
X108634874Y-103357680D02*
X108396779Y-103357680D01*
X109920588Y-103357680D02*
X109349160Y-103357680D01*
X109634874Y-103357680D02*
X109634874Y-104357680D01*
X109634874Y-104357680D02*
X109539636Y-104214823D01*
X109539636Y-104214823D02*
X109444398Y-104119585D01*
X109444398Y-104119585D02*
X109349160Y-104071966D01*
X141168922Y-104427680D02*
X141740350Y-104427680D01*
X141454636Y-103427680D02*
X141454636Y-104427680D01*
X141978446Y-104427680D02*
X142645112Y-103427680D01*
X142645112Y-104427680D02*
X141978446Y-103427680D01*
X128264160Y-82742442D02*
X128311779Y-82790061D01*
X128311779Y-82790061D02*
X128407017Y-82837680D01*
X128407017Y-82837680D02*
X128645112Y-82837680D01*
X128645112Y-82837680D02*
X128740350Y-82790061D01*
X128740350Y-82790061D02*
X128787969Y-82742442D01*
X128787969Y-82742442D02*
X128835588Y-82647204D01*
X128835588Y-82647204D02*
X128835588Y-82551966D01*
X128835588Y-82551966D02*
X128787969Y-82409109D01*
X128787969Y-82409109D02*
X128216541Y-81837680D01*
X128216541Y-81837680D02*
X128835588Y-81837680D01*
X129740350Y-82837680D02*
X129264160Y-82837680D01*
X129264160Y-82837680D02*
X129216541Y-82361490D01*
X129216541Y-82361490D02*
X129264160Y-82409109D01*
X129264160Y-82409109D02*
X129359398Y-82456728D01*
X129359398Y-82456728D02*
X129597493Y-82456728D01*
X129597493Y-82456728D02*
X129692731Y-82409109D01*
X129692731Y-82409109D02*
X129740350Y-82361490D01*
X129740350Y-82361490D02*
X129787969Y-82266252D01*
X129787969Y-82266252D02*
X129787969Y-82028157D01*
X129787969Y-82028157D02*
X129740350Y-81932919D01*
X129740350Y-81932919D02*
X129692731Y-81885300D01*
X129692731Y-81885300D02*
X129597493Y-81837680D01*
X129597493Y-81837680D02*
X129359398Y-81837680D01*
X129359398Y-81837680D02*
X129264160Y-81885300D01*
X129264160Y-81885300D02*
X129216541Y-81932919D01*
X134335588Y-104380061D02*
X134240350Y-104427680D01*
X134240350Y-104427680D02*
X134097493Y-104427680D01*
X134097493Y-104427680D02*
X133954636Y-104380061D01*
X133954636Y-104380061D02*
X133859398Y-104284823D01*
X133859398Y-104284823D02*
X133811779Y-104189585D01*
X133811779Y-104189585D02*
X133764160Y-103999109D01*
X133764160Y-103999109D02*
X133764160Y-103856252D01*
X133764160Y-103856252D02*
X133811779Y-103665776D01*
X133811779Y-103665776D02*
X133859398Y-103570538D01*
X133859398Y-103570538D02*
X133954636Y-103475300D01*
X133954636Y-103475300D02*
X134097493Y-103427680D01*
X134097493Y-103427680D02*
X134192731Y-103427680D01*
X134192731Y-103427680D02*
X134335588Y-103475300D01*
X134335588Y-103475300D02*
X134383207Y-103522919D01*
X134383207Y-103522919D02*
X134383207Y-103856252D01*
X134383207Y-103856252D02*
X134192731Y-103856252D01*
X110936779Y-81767680D02*
X110936779Y-82767680D01*
X110936779Y-82767680D02*
X111174874Y-82767680D01*
X111174874Y-82767680D02*
X111317731Y-82720061D01*
X111317731Y-82720061D02*
X111412969Y-82624823D01*
X111412969Y-82624823D02*
X111460588Y-82529585D01*
X111460588Y-82529585D02*
X111508207Y-82339109D01*
X111508207Y-82339109D02*
X111508207Y-82196252D01*
X111508207Y-82196252D02*
X111460588Y-82005776D01*
X111460588Y-82005776D02*
X111412969Y-81910538D01*
X111412969Y-81910538D02*
X111317731Y-81815300D01*
X111317731Y-81815300D02*
X111174874Y-81767680D01*
X111174874Y-81767680D02*
X110936779Y-81767680D01*
X111889160Y-82672442D02*
X111936779Y-82720061D01*
X111936779Y-82720061D02*
X112032017Y-82767680D01*
X112032017Y-82767680D02*
X112270112Y-82767680D01*
X112270112Y-82767680D02*
X112365350Y-82720061D01*
X112365350Y-82720061D02*
X112412969Y-82672442D01*
X112412969Y-82672442D02*
X112460588Y-82577204D01*
X112460588Y-82577204D02*
X112460588Y-82481966D01*
X112460588Y-82481966D02*
X112412969Y-82339109D01*
X112412969Y-82339109D02*
X111841541Y-81767680D01*
X111841541Y-81767680D02*
X112460588Y-81767680D01*
X141168922Y-82837680D02*
X141502255Y-81837680D01*
X141502255Y-81837680D02*
X141835588Y-82837680D01*
X142168922Y-81837680D02*
X142168922Y-82837680D01*
X142168922Y-82837680D02*
X142740350Y-81837680D01*
X142740350Y-81837680D02*
X142740350Y-82837680D01*
X113429160Y-104262442D02*
X113476779Y-104310061D01*
X113476779Y-104310061D02*
X113572017Y-104357680D01*
X113572017Y-104357680D02*
X113810112Y-104357680D01*
X113810112Y-104357680D02*
X113905350Y-104310061D01*
X113905350Y-104310061D02*
X113952969Y-104262442D01*
X113952969Y-104262442D02*
X114000588Y-104167204D01*
X114000588Y-104167204D02*
X114000588Y-104071966D01*
X114000588Y-104071966D02*
X113952969Y-103929109D01*
X113952969Y-103929109D02*
X113381541Y-103357680D01*
X113381541Y-103357680D02*
X114000588Y-103357680D01*
X123589160Y-82672442D02*
X123636779Y-82720061D01*
X123636779Y-82720061D02*
X123732017Y-82767680D01*
X123732017Y-82767680D02*
X123970112Y-82767680D01*
X123970112Y-82767680D02*
X124065350Y-82720061D01*
X124065350Y-82720061D02*
X124112969Y-82672442D01*
X124112969Y-82672442D02*
X124160588Y-82577204D01*
X124160588Y-82577204D02*
X124160588Y-82481966D01*
X124160588Y-82481966D02*
X124112969Y-82339109D01*
X124112969Y-82339109D02*
X123541541Y-81767680D01*
X123541541Y-81767680D02*
X124160588Y-81767680D01*
X124493922Y-82767680D02*
X125160588Y-82767680D01*
X125160588Y-82767680D02*
X124732017Y-81767680D01*
X148966541Y-82837680D02*
X149585588Y-82837680D01*
X149585588Y-82837680D02*
X149252255Y-82456728D01*
X149252255Y-82456728D02*
X149395112Y-82456728D01*
X149395112Y-82456728D02*
X149490350Y-82409109D01*
X149490350Y-82409109D02*
X149537969Y-82361490D01*
X149537969Y-82361490D02*
X149585588Y-82266252D01*
X149585588Y-82266252D02*
X149585588Y-82028157D01*
X149585588Y-82028157D02*
X149537969Y-81932919D01*
X149537969Y-81932919D02*
X149490350Y-81885300D01*
X149490350Y-81885300D02*
X149395112Y-81837680D01*
X149395112Y-81837680D02*
X149109398Y-81837680D01*
X149109398Y-81837680D02*
X149014160Y-81885300D01*
X149014160Y-81885300D02*
X148966541Y-81932919D01*
X149871303Y-82837680D02*
X150204636Y-81837680D01*
X150204636Y-81837680D02*
X150537969Y-82837680D01*
X103792969Y-82767680D02*
X103316779Y-82767680D01*
X103316779Y-82767680D02*
X103269160Y-82291490D01*
X103269160Y-82291490D02*
X103316779Y-82339109D01*
X103316779Y-82339109D02*
X103412017Y-82386728D01*
X103412017Y-82386728D02*
X103650112Y-82386728D01*
X103650112Y-82386728D02*
X103745350Y-82339109D01*
X103745350Y-82339109D02*
X103792969Y-82291490D01*
X103792969Y-82291490D02*
X103840588Y-82196252D01*
X103840588Y-82196252D02*
X103840588Y-81958157D01*
X103840588Y-81958157D02*
X103792969Y-81862919D01*
X103792969Y-81862919D02*
X103745350Y-81815300D01*
X103745350Y-81815300D02*
X103650112Y-81767680D01*
X103650112Y-81767680D02*
X103412017Y-81767680D01*
X103412017Y-81767680D02*
X103316779Y-81815300D01*
X103316779Y-81815300D02*
X103269160Y-81862919D01*
X104126303Y-82767680D02*
X104459636Y-81767680D01*
X104459636Y-81767680D02*
X104792969Y-82767680D01*
X128835588Y-103427680D02*
X128264160Y-103427680D01*
X128549874Y-103427680D02*
X128549874Y-104427680D01*
X128549874Y-104427680D02*
X128454636Y-104284823D01*
X128454636Y-104284823D02*
X128359398Y-104189585D01*
X128359398Y-104189585D02*
X128264160Y-104141966D01*
X129407017Y-103999109D02*
X129311779Y-104046728D01*
X129311779Y-104046728D02*
X129264160Y-104094347D01*
X129264160Y-104094347D02*
X129216541Y-104189585D01*
X129216541Y-104189585D02*
X129216541Y-104237204D01*
X129216541Y-104237204D02*
X129264160Y-104332442D01*
X129264160Y-104332442D02*
X129311779Y-104380061D01*
X129311779Y-104380061D02*
X129407017Y-104427680D01*
X129407017Y-104427680D02*
X129597493Y-104427680D01*
X129597493Y-104427680D02*
X129692731Y-104380061D01*
X129692731Y-104380061D02*
X129740350Y-104332442D01*
X129740350Y-104332442D02*
X129787969Y-104237204D01*
X129787969Y-104237204D02*
X129787969Y-104189585D01*
X129787969Y-104189585D02*
X129740350Y-104094347D01*
X129740350Y-104094347D02*
X129692731Y-104046728D01*
X129692731Y-104046728D02*
X129597493Y-103999109D01*
X129597493Y-103999109D02*
X129407017Y-103999109D01*
X129407017Y-103999109D02*
X129311779Y-103951490D01*
X129311779Y-103951490D02*
X129264160Y-103903871D01*
X129264160Y-103903871D02*
X129216541Y-103808633D01*
X129216541Y-103808633D02*
X129216541Y-103618157D01*
X129216541Y-103618157D02*
X129264160Y-103522919D01*
X129264160Y-103522919D02*
X129311779Y-103475300D01*
X129311779Y-103475300D02*
X129407017Y-103427680D01*
X129407017Y-103427680D02*
X129597493Y-103427680D01*
X129597493Y-103427680D02*
X129692731Y-103475300D01*
X129692731Y-103475300D02*
X129740350Y-103522919D01*
X129740350Y-103522919D02*
X129787969Y-103618157D01*
X129787969Y-103618157D02*
X129787969Y-103808633D01*
X129787969Y-103808633D02*
X129740350Y-103903871D01*
X129740350Y-103903871D02*
X129692731Y-103951490D01*
X129692731Y-103951490D02*
X129597493Y-103999109D01*
X149585588Y-104380061D02*
X149490350Y-104427680D01*
X149490350Y-104427680D02*
X149347493Y-104427680D01*
X149347493Y-104427680D02*
X149204636Y-104380061D01*
X149204636Y-104380061D02*
X149109398Y-104284823D01*
X149109398Y-104284823D02*
X149061779Y-104189585D01*
X149061779Y-104189585D02*
X149014160Y-103999109D01*
X149014160Y-103999109D02*
X149014160Y-103856252D01*
X149014160Y-103856252D02*
X149061779Y-103665776D01*
X149061779Y-103665776D02*
X149109398Y-103570538D01*
X149109398Y-103570538D02*
X149204636Y-103475300D01*
X149204636Y-103475300D02*
X149347493Y-103427680D01*
X149347493Y-103427680D02*
X149442731Y-103427680D01*
X149442731Y-103427680D02*
X149585588Y-103475300D01*
X149585588Y-103475300D02*
X149633207Y-103522919D01*
X149633207Y-103522919D02*
X149633207Y-103856252D01*
X149633207Y-103856252D02*
X149442731Y-103856252D01*
X111460588Y-103357680D02*
X110889160Y-103357680D01*
X111174874Y-103357680D02*
X111174874Y-104357680D01*
X111174874Y-104357680D02*
X111079636Y-104214823D01*
X111079636Y-104214823D02*
X110984398Y-104119585D01*
X110984398Y-104119585D02*
X110889160Y-104071966D01*
X112365350Y-104357680D02*
X111889160Y-104357680D01*
X111889160Y-104357680D02*
X111841541Y-103881490D01*
X111841541Y-103881490D02*
X111889160Y-103929109D01*
X111889160Y-103929109D02*
X111984398Y-103976728D01*
X111984398Y-103976728D02*
X112222493Y-103976728D01*
X112222493Y-103976728D02*
X112317731Y-103929109D01*
X112317731Y-103929109D02*
X112365350Y-103881490D01*
X112365350Y-103881490D02*
X112412969Y-103786252D01*
X112412969Y-103786252D02*
X112412969Y-103548157D01*
X112412969Y-103548157D02*
X112365350Y-103452919D01*
X112365350Y-103452919D02*
X112317731Y-103405300D01*
X112317731Y-103405300D02*
X112222493Y-103357680D01*
X112222493Y-103357680D02*
X111984398Y-103357680D01*
X111984398Y-103357680D02*
X111889160Y-103405300D01*
X111889160Y-103405300D02*
X111841541Y-103452919D01*
X121620588Y-81767680D02*
X121049160Y-81767680D01*
X121334874Y-81767680D02*
X121334874Y-82767680D01*
X121334874Y-82767680D02*
X121239636Y-82624823D01*
X121239636Y-82624823D02*
X121144398Y-82529585D01*
X121144398Y-82529585D02*
X121049160Y-82481966D01*
X122477731Y-82434347D02*
X122477731Y-81767680D01*
X122239636Y-82815300D02*
X122001541Y-82101014D01*
X122001541Y-82101014D02*
X122620588Y-82101014D01*
X121620588Y-103357680D02*
X121049160Y-103357680D01*
X121334874Y-103357680D02*
X121334874Y-104357680D01*
X121334874Y-104357680D02*
X121239636Y-104214823D01*
X121239636Y-104214823D02*
X121144398Y-104119585D01*
X121144398Y-104119585D02*
X121049160Y-104071966D01*
X122477731Y-104357680D02*
X122287255Y-104357680D01*
X122287255Y-104357680D02*
X122192017Y-104310061D01*
X122192017Y-104310061D02*
X122144398Y-104262442D01*
X122144398Y-104262442D02*
X122049160Y-104119585D01*
X122049160Y-104119585D02*
X122001541Y-103929109D01*
X122001541Y-103929109D02*
X122001541Y-103548157D01*
X122001541Y-103548157D02*
X122049160Y-103452919D01*
X122049160Y-103452919D02*
X122096779Y-103405300D01*
X122096779Y-103405300D02*
X122192017Y-103357680D01*
X122192017Y-103357680D02*
X122382493Y-103357680D01*
X122382493Y-103357680D02*
X122477731Y-103405300D01*
X122477731Y-103405300D02*
X122525350Y-103452919D01*
X122525350Y-103452919D02*
X122572969Y-103548157D01*
X122572969Y-103548157D02*
X122572969Y-103786252D01*
X122572969Y-103786252D02*
X122525350Y-103881490D01*
X122525350Y-103881490D02*
X122477731Y-103929109D01*
X122477731Y-103929109D02*
X122382493Y-103976728D01*
X122382493Y-103976728D02*
X122192017Y-103976728D01*
X122192017Y-103976728D02*
X122096779Y-103929109D01*
X122096779Y-103929109D02*
X122049160Y-103881490D01*
X122049160Y-103881490D02*
X122001541Y-103786252D01*
X116540588Y-82720061D02*
X116445350Y-82767680D01*
X116445350Y-82767680D02*
X116302493Y-82767680D01*
X116302493Y-82767680D02*
X116159636Y-82720061D01*
X116159636Y-82720061D02*
X116064398Y-82624823D01*
X116064398Y-82624823D02*
X116016779Y-82529585D01*
X116016779Y-82529585D02*
X115969160Y-82339109D01*
X115969160Y-82339109D02*
X115969160Y-82196252D01*
X115969160Y-82196252D02*
X116016779Y-82005776D01*
X116016779Y-82005776D02*
X116064398Y-81910538D01*
X116064398Y-81910538D02*
X116159636Y-81815300D01*
X116159636Y-81815300D02*
X116302493Y-81767680D01*
X116302493Y-81767680D02*
X116397731Y-81767680D01*
X116397731Y-81767680D02*
X116540588Y-81815300D01*
X116540588Y-81815300D02*
X116588207Y-81862919D01*
X116588207Y-81862919D02*
X116588207Y-82196252D01*
X116588207Y-82196252D02*
X116397731Y-82196252D01*
X116207255Y-104357680D02*
X116302493Y-104357680D01*
X116302493Y-104357680D02*
X116397731Y-104310061D01*
X116397731Y-104310061D02*
X116445350Y-104262442D01*
X116445350Y-104262442D02*
X116492969Y-104167204D01*
X116492969Y-104167204D02*
X116540588Y-103976728D01*
X116540588Y-103976728D02*
X116540588Y-103738633D01*
X116540588Y-103738633D02*
X116492969Y-103548157D01*
X116492969Y-103548157D02*
X116445350Y-103452919D01*
X116445350Y-103452919D02*
X116397731Y-103405300D01*
X116397731Y-103405300D02*
X116302493Y-103357680D01*
X116302493Y-103357680D02*
X116207255Y-103357680D01*
X116207255Y-103357680D02*
X116112017Y-103405300D01*
X116112017Y-103405300D02*
X116064398Y-103452919D01*
X116064398Y-103452919D02*
X116016779Y-103548157D01*
X116016779Y-103548157D02*
X115969160Y-103738633D01*
X115969160Y-103738633D02*
X115969160Y-103976728D01*
X115969160Y-103976728D02*
X116016779Y-104167204D01*
X116016779Y-104167204D02*
X116064398Y-104262442D01*
X116064398Y-104262442D02*
X116112017Y-104310061D01*
X116112017Y-104310061D02*
X116207255Y-104357680D01*
X131335588Y-103427680D02*
X130764160Y-103427680D01*
X131049874Y-103427680D02*
X131049874Y-104427680D01*
X131049874Y-104427680D02*
X130954636Y-104284823D01*
X130954636Y-104284823D02*
X130859398Y-104189585D01*
X130859398Y-104189585D02*
X130764160Y-104141966D01*
X131811779Y-103427680D02*
X132002255Y-103427680D01*
X132002255Y-103427680D02*
X132097493Y-103475300D01*
X132097493Y-103475300D02*
X132145112Y-103522919D01*
X132145112Y-103522919D02*
X132240350Y-103665776D01*
X132240350Y-103665776D02*
X132287969Y-103856252D01*
X132287969Y-103856252D02*
X132287969Y-104237204D01*
X132287969Y-104237204D02*
X132240350Y-104332442D01*
X132240350Y-104332442D02*
X132192731Y-104380061D01*
X132192731Y-104380061D02*
X132097493Y-104427680D01*
X132097493Y-104427680D02*
X131907017Y-104427680D01*
X131907017Y-104427680D02*
X131811779Y-104380061D01*
X131811779Y-104380061D02*
X131764160Y-104332442D01*
X131764160Y-104332442D02*
X131716541Y-104237204D01*
X131716541Y-104237204D02*
X131716541Y-103999109D01*
X131716541Y-103999109D02*
X131764160Y-103903871D01*
X131764160Y-103903871D02*
X131811779Y-103856252D01*
X131811779Y-103856252D02*
X131907017Y-103808633D01*
X131907017Y-103808633D02*
X132097493Y-103808633D01*
X132097493Y-103808633D02*
X132192731Y-103856252D01*
X132192731Y-103856252D02*
X132240350Y-103903871D01*
X132240350Y-103903871D02*
X132287969Y-103999109D01*
X136216541Y-82837680D02*
X136835588Y-82837680D01*
X136835588Y-82837680D02*
X136502255Y-82456728D01*
X136502255Y-82456728D02*
X136645112Y-82456728D01*
X136645112Y-82456728D02*
X136740350Y-82409109D01*
X136740350Y-82409109D02*
X136787969Y-82361490D01*
X136787969Y-82361490D02*
X136835588Y-82266252D01*
X136835588Y-82266252D02*
X136835588Y-82028157D01*
X136835588Y-82028157D02*
X136787969Y-81932919D01*
X136787969Y-81932919D02*
X136740350Y-81885300D01*
X136740350Y-81885300D02*
X136645112Y-81837680D01*
X136645112Y-81837680D02*
X136359398Y-81837680D01*
X136359398Y-81837680D02*
X136264160Y-81885300D01*
X136264160Y-81885300D02*
X136216541Y-81932919D01*
X137740350Y-82837680D02*
X137264160Y-82837680D01*
X137264160Y-82837680D02*
X137216541Y-82361490D01*
X137216541Y-82361490D02*
X137264160Y-82409109D01*
X137264160Y-82409109D02*
X137359398Y-82456728D01*
X137359398Y-82456728D02*
X137597493Y-82456728D01*
X137597493Y-82456728D02*
X137692731Y-82409109D01*
X137692731Y-82409109D02*
X137740350Y-82361490D01*
X137740350Y-82361490D02*
X137787969Y-82266252D01*
X137787969Y-82266252D02*
X137787969Y-82028157D01*
X137787969Y-82028157D02*
X137740350Y-81932919D01*
X137740350Y-81932919D02*
X137692731Y-81885300D01*
X137692731Y-81885300D02*
X137597493Y-81837680D01*
X137597493Y-81837680D02*
X137359398Y-81837680D01*
X137359398Y-81837680D02*
X137264160Y-81885300D01*
X137264160Y-81885300D02*
X137216541Y-81932919D01*
X146264160Y-104332442D02*
X146311779Y-104380061D01*
X146311779Y-104380061D02*
X146407017Y-104427680D01*
X146407017Y-104427680D02*
X146645112Y-104427680D01*
X146645112Y-104427680D02*
X146740350Y-104380061D01*
X146740350Y-104380061D02*
X146787969Y-104332442D01*
X146787969Y-104332442D02*
X146835588Y-104237204D01*
X146835588Y-104237204D02*
X146835588Y-104141966D01*
X146835588Y-104141966D02*
X146787969Y-103999109D01*
X146787969Y-103999109D02*
X146216541Y-103427680D01*
X146216541Y-103427680D02*
X146835588Y-103427680D01*
X147168922Y-104427680D02*
X147787969Y-104427680D01*
X147787969Y-104427680D02*
X147454636Y-104046728D01*
X147454636Y-104046728D02*
X147597493Y-104046728D01*
X147597493Y-104046728D02*
X147692731Y-103999109D01*
X147692731Y-103999109D02*
X147740350Y-103951490D01*
X147740350Y-103951490D02*
X147787969Y-103856252D01*
X147787969Y-103856252D02*
X147787969Y-103618157D01*
X147787969Y-103618157D02*
X147740350Y-103522919D01*
X147740350Y-103522919D02*
X147692731Y-103475300D01*
X147692731Y-103475300D02*
X147597493Y-103427680D01*
X147597493Y-103427680D02*
X147311779Y-103427680D01*
X147311779Y-103427680D02*
X147216541Y-103475300D01*
X147216541Y-103475300D02*
X147168922Y-103522919D01*
X114000588Y-81767680D02*
X113429160Y-81767680D01*
X113714874Y-81767680D02*
X113714874Y-82767680D01*
X113714874Y-82767680D02*
X113619636Y-82624823D01*
X113619636Y-82624823D02*
X113524398Y-82529585D01*
X113524398Y-82529585D02*
X113429160Y-82481966D01*
X114333922Y-82767680D02*
X114952969Y-82767680D01*
X114952969Y-82767680D02*
X114619636Y-82386728D01*
X114619636Y-82386728D02*
X114762493Y-82386728D01*
X114762493Y-82386728D02*
X114857731Y-82339109D01*
X114857731Y-82339109D02*
X114905350Y-82291490D01*
X114905350Y-82291490D02*
X114952969Y-82196252D01*
X114952969Y-82196252D02*
X114952969Y-81958157D01*
X114952969Y-81958157D02*
X114905350Y-81862919D01*
X114905350Y-81862919D02*
X114857731Y-81815300D01*
X114857731Y-81815300D02*
X114762493Y-81767680D01*
X114762493Y-81767680D02*
X114476779Y-81767680D01*
X114476779Y-81767680D02*
X114381541Y-81815300D01*
X114381541Y-81815300D02*
X114333922Y-81862919D01*
X118985350Y-104024347D02*
X118985350Y-103357680D01*
X118747255Y-104405300D02*
X118509160Y-103691014D01*
X118509160Y-103691014D02*
X119128207Y-103691014D01*
X139383207Y-103427680D02*
X139049874Y-103903871D01*
X138811779Y-103427680D02*
X138811779Y-104427680D01*
X138811779Y-104427680D02*
X139192731Y-104427680D01*
X139192731Y-104427680D02*
X139287969Y-104380061D01*
X139287969Y-104380061D02*
X139335588Y-104332442D01*
X139335588Y-104332442D02*
X139383207Y-104237204D01*
X139383207Y-104237204D02*
X139383207Y-104094347D01*
X139383207Y-104094347D02*
X139335588Y-103999109D01*
X139335588Y-103999109D02*
X139287969Y-103951490D01*
X139287969Y-103951490D02*
X139192731Y-103903871D01*
X139192731Y-103903871D02*
X138811779Y-103903871D01*
X139716541Y-104427680D02*
X140383207Y-103427680D01*
X140383207Y-104427680D02*
X139716541Y-103427680D01*
X146311779Y-82361490D02*
X146645112Y-82361490D01*
X146787969Y-81837680D02*
X146311779Y-81837680D01*
X146311779Y-81837680D02*
X146311779Y-82837680D01*
X146311779Y-82837680D02*
X146787969Y-82837680D01*
X147216541Y-81837680D02*
X147216541Y-82837680D01*
X147216541Y-82837680D02*
X147787969Y-81837680D01*
X147787969Y-81837680D02*
X147787969Y-82837680D01*
X161454819Y-90766666D02*
X162169104Y-90766666D01*
X162169104Y-90766666D02*
X162311961Y-90719047D01*
X162311961Y-90719047D02*
X162407200Y-90623809D01*
X162407200Y-90623809D02*
X162454819Y-90480952D01*
X162454819Y-90480952D02*
X162454819Y-90385714D01*
X162454819Y-91242857D02*
X161454819Y-91242857D01*
X161454819Y-91242857D02*
X161454819Y-91623809D01*
X161454819Y-91623809D02*
X161502438Y-91719047D01*
X161502438Y-91719047D02*
X161550057Y-91766666D01*
X161550057Y-91766666D02*
X161645295Y-91814285D01*
X161645295Y-91814285D02*
X161788152Y-91814285D01*
X161788152Y-91814285D02*
X161883390Y-91766666D01*
X161883390Y-91766666D02*
X161931009Y-91719047D01*
X161931009Y-91719047D02*
X161978628Y-91623809D01*
X161978628Y-91623809D02*
X161978628Y-91242857D01*
X162454819Y-92766666D02*
X162454819Y-92195238D01*
X162454819Y-92480952D02*
X161454819Y-92480952D01*
X161454819Y-92480952D02*
X161597676Y-92385714D01*
X161597676Y-92385714D02*
X161692914Y-92290476D01*
X161692914Y-92290476D02*
X161740533Y-92195238D01*
X163354819Y-93866667D02*
X163354819Y-94485714D01*
X163354819Y-94485714D02*
X163735771Y-94152381D01*
X163735771Y-94152381D02*
X163735771Y-94295238D01*
X163735771Y-94295238D02*
X163783390Y-94390476D01*
X163783390Y-94390476D02*
X163831009Y-94438095D01*
X163831009Y-94438095D02*
X163926247Y-94485714D01*
X163926247Y-94485714D02*
X164164342Y-94485714D01*
X164164342Y-94485714D02*
X164259580Y-94438095D01*
X164259580Y-94438095D02*
X164307200Y-94390476D01*
X164307200Y-94390476D02*
X164354819Y-94295238D01*
X164354819Y-94295238D02*
X164354819Y-94009524D01*
X164354819Y-94009524D02*
X164307200Y-93914286D01*
X164307200Y-93914286D02*
X164259580Y-93866667D01*
X164354819Y-89285714D02*
X164354819Y-88714286D01*
X164354819Y-89000000D02*
X163354819Y-89000000D01*
X163354819Y-89000000D02*
X163497676Y-88904762D01*
X163497676Y-88904762D02*
X163592914Y-88809524D01*
X163592914Y-88809524D02*
X163640533Y-88714286D01*
X165454819Y-90766666D02*
X166169104Y-90766666D01*
X166169104Y-90766666D02*
X166311961Y-90719047D01*
X166311961Y-90719047D02*
X166407200Y-90623809D01*
X166407200Y-90623809D02*
X166454819Y-90480952D01*
X166454819Y-90480952D02*
X166454819Y-90385714D01*
X166454819Y-91242857D02*
X165454819Y-91242857D01*
X165454819Y-91242857D02*
X165454819Y-91623809D01*
X165454819Y-91623809D02*
X165502438Y-91719047D01*
X165502438Y-91719047D02*
X165550057Y-91766666D01*
X165550057Y-91766666D02*
X165645295Y-91814285D01*
X165645295Y-91814285D02*
X165788152Y-91814285D01*
X165788152Y-91814285D02*
X165883390Y-91766666D01*
X165883390Y-91766666D02*
X165931009Y-91719047D01*
X165931009Y-91719047D02*
X165978628Y-91623809D01*
X165978628Y-91623809D02*
X165978628Y-91242857D01*
X165550057Y-92195238D02*
X165502438Y-92242857D01*
X165502438Y-92242857D02*
X165454819Y-92338095D01*
X165454819Y-92338095D02*
X165454819Y-92576190D01*
X165454819Y-92576190D02*
X165502438Y-92671428D01*
X165502438Y-92671428D02*
X165550057Y-92719047D01*
X165550057Y-92719047D02*
X165645295Y-92766666D01*
X165645295Y-92766666D02*
X165740533Y-92766666D01*
X165740533Y-92766666D02*
X165883390Y-92719047D01*
X165883390Y-92719047D02*
X166454819Y-92147619D01*
X166454819Y-92147619D02*
X166454819Y-92766666D01*
X168354819Y-89285714D02*
X168354819Y-88714286D01*
X168354819Y-89000000D02*
X167354819Y-89000000D01*
X167354819Y-89000000D02*
X167497676Y-88904762D01*
X167497676Y-88904762D02*
X167592914Y-88809524D01*
X167592914Y-88809524D02*
X167640533Y-88714286D01*
X167354819Y-93866667D02*
X167354819Y-94485714D01*
X167354819Y-94485714D02*
X167735771Y-94152381D01*
X167735771Y-94152381D02*
X167735771Y-94295238D01*
X167735771Y-94295238D02*
X167783390Y-94390476D01*
X167783390Y-94390476D02*
X167831009Y-94438095D01*
X167831009Y-94438095D02*
X167926247Y-94485714D01*
X167926247Y-94485714D02*
X168164342Y-94485714D01*
X168164342Y-94485714D02*
X168259580Y-94438095D01*
X168259580Y-94438095D02*
X168307200Y-94390476D01*
X168307200Y-94390476D02*
X168354819Y-94295238D01*
X168354819Y-94295238D02*
X168354819Y-94009524D01*
X168354819Y-94009524D02*
X168307200Y-93914286D01*
X168307200Y-93914286D02*
X168259580Y-93866667D01*
X113854819Y-112733333D02*
X113378628Y-112400000D01*
X113854819Y-112161905D02*
X112854819Y-112161905D01*
X112854819Y-112161905D02*
X112854819Y-112542857D01*
X112854819Y-112542857D02*
X112902438Y-112638095D01*
X112902438Y-112638095D02*
X112950057Y-112685714D01*
X112950057Y-112685714D02*
X113045295Y-112733333D01*
X113045295Y-112733333D02*
X113188152Y-112733333D01*
X113188152Y-112733333D02*
X113283390Y-112685714D01*
X113283390Y-112685714D02*
X113331009Y-112638095D01*
X113331009Y-112638095D02*
X113378628Y-112542857D01*
X113378628Y-112542857D02*
X113378628Y-112161905D01*
X113854819Y-113685714D02*
X113854819Y-113114286D01*
X113854819Y-113400000D02*
X112854819Y-113400000D01*
X112854819Y-113400000D02*
X112997676Y-113304762D01*
X112997676Y-113304762D02*
X113092914Y-113209524D01*
X113092914Y-113209524D02*
X113140533Y-113114286D01*
X156384819Y-112733333D02*
X155908628Y-112400000D01*
X156384819Y-112161905D02*
X155384819Y-112161905D01*
X155384819Y-112161905D02*
X155384819Y-112542857D01*
X155384819Y-112542857D02*
X155432438Y-112638095D01*
X155432438Y-112638095D02*
X155480057Y-112685714D01*
X155480057Y-112685714D02*
X155575295Y-112733333D01*
X155575295Y-112733333D02*
X155718152Y-112733333D01*
X155718152Y-112733333D02*
X155813390Y-112685714D01*
X155813390Y-112685714D02*
X155861009Y-112638095D01*
X155861009Y-112638095D02*
X155908628Y-112542857D01*
X155908628Y-112542857D02*
X155908628Y-112161905D01*
X155384819Y-113066667D02*
X155384819Y-113733333D01*
X155384819Y-113733333D02*
X156384819Y-113304762D01*
X128084819Y-112733333D02*
X127608628Y-112400000D01*
X128084819Y-112161905D02*
X127084819Y-112161905D01*
X127084819Y-112161905D02*
X127084819Y-112542857D01*
X127084819Y-112542857D02*
X127132438Y-112638095D01*
X127132438Y-112638095D02*
X127180057Y-112685714D01*
X127180057Y-112685714D02*
X127275295Y-112733333D01*
X127275295Y-112733333D02*
X127418152Y-112733333D01*
X127418152Y-112733333D02*
X127513390Y-112685714D01*
X127513390Y-112685714D02*
X127561009Y-112638095D01*
X127561009Y-112638095D02*
X127608628Y-112542857D01*
X127608628Y-112542857D02*
X127608628Y-112161905D01*
X127084819Y-113066667D02*
X127084819Y-113685714D01*
X127084819Y-113685714D02*
X127465771Y-113352381D01*
X127465771Y-113352381D02*
X127465771Y-113495238D01*
X127465771Y-113495238D02*
X127513390Y-113590476D01*
X127513390Y-113590476D02*
X127561009Y-113638095D01*
X127561009Y-113638095D02*
X127656247Y-113685714D01*
X127656247Y-113685714D02*
X127894342Y-113685714D01*
X127894342Y-113685714D02*
X127989580Y-113638095D01*
X127989580Y-113638095D02*
X128037200Y-113590476D01*
X128037200Y-113590476D02*
X128084819Y-113495238D01*
X128084819Y-113495238D02*
X128084819Y-113209524D01*
X128084819Y-113209524D02*
X128037200Y-113114286D01*
X128037200Y-113114286D02*
X127989580Y-113066667D01*
X135184819Y-112833333D02*
X134708628Y-112500000D01*
X135184819Y-112261905D02*
X134184819Y-112261905D01*
X134184819Y-112261905D02*
X134184819Y-112642857D01*
X134184819Y-112642857D02*
X134232438Y-112738095D01*
X134232438Y-112738095D02*
X134280057Y-112785714D01*
X134280057Y-112785714D02*
X134375295Y-112833333D01*
X134375295Y-112833333D02*
X134518152Y-112833333D01*
X134518152Y-112833333D02*
X134613390Y-112785714D01*
X134613390Y-112785714D02*
X134661009Y-112738095D01*
X134661009Y-112738095D02*
X134708628Y-112642857D01*
X134708628Y-112642857D02*
X134708628Y-112261905D01*
X134518152Y-113690476D02*
X135184819Y-113690476D01*
X134137200Y-113452381D02*
X134851485Y-113214286D01*
X134851485Y-113214286D02*
X134851485Y-113833333D01*
X169454819Y-90766666D02*
X170169104Y-90766666D01*
X170169104Y-90766666D02*
X170311961Y-90719047D01*
X170311961Y-90719047D02*
X170407200Y-90623809D01*
X170407200Y-90623809D02*
X170454819Y-90480952D01*
X170454819Y-90480952D02*
X170454819Y-90385714D01*
X170454819Y-91242857D02*
X169454819Y-91242857D01*
X169454819Y-91242857D02*
X169454819Y-91623809D01*
X169454819Y-91623809D02*
X169502438Y-91719047D01*
X169502438Y-91719047D02*
X169550057Y-91766666D01*
X169550057Y-91766666D02*
X169645295Y-91814285D01*
X169645295Y-91814285D02*
X169788152Y-91814285D01*
X169788152Y-91814285D02*
X169883390Y-91766666D01*
X169883390Y-91766666D02*
X169931009Y-91719047D01*
X169931009Y-91719047D02*
X169978628Y-91623809D01*
X169978628Y-91623809D02*
X169978628Y-91242857D01*
X169454819Y-92147619D02*
X169454819Y-92766666D01*
X169454819Y-92766666D02*
X169835771Y-92433333D01*
X169835771Y-92433333D02*
X169835771Y-92576190D01*
X169835771Y-92576190D02*
X169883390Y-92671428D01*
X169883390Y-92671428D02*
X169931009Y-92719047D01*
X169931009Y-92719047D02*
X170026247Y-92766666D01*
X170026247Y-92766666D02*
X170264342Y-92766666D01*
X170264342Y-92766666D02*
X170359580Y-92719047D01*
X170359580Y-92719047D02*
X170407200Y-92671428D01*
X170407200Y-92671428D02*
X170454819Y-92576190D01*
X170454819Y-92576190D02*
X170454819Y-92290476D01*
X170454819Y-92290476D02*
X170407200Y-92195238D01*
X170407200Y-92195238D02*
X170359580Y-92147619D01*
X172354819Y-89285714D02*
X172354819Y-88714286D01*
X172354819Y-89000000D02*
X171354819Y-89000000D01*
X171354819Y-89000000D02*
X171497676Y-88904762D01*
X171497676Y-88904762D02*
X171592914Y-88809524D01*
X171592914Y-88809524D02*
X171640533Y-88714286D01*
X171354819Y-93866667D02*
X171354819Y-94485714D01*
X171354819Y-94485714D02*
X171735771Y-94152381D01*
X171735771Y-94152381D02*
X171735771Y-94295238D01*
X171735771Y-94295238D02*
X171783390Y-94390476D01*
X171783390Y-94390476D02*
X171831009Y-94438095D01*
X171831009Y-94438095D02*
X171926247Y-94485714D01*
X171926247Y-94485714D02*
X172164342Y-94485714D01*
X172164342Y-94485714D02*
X172259580Y-94438095D01*
X172259580Y-94438095D02*
X172307200Y-94390476D01*
X172307200Y-94390476D02*
X172354819Y-94295238D01*
X172354819Y-94295238D02*
X172354819Y-94009524D01*
X172354819Y-94009524D02*
X172307200Y-93914286D01*
X172307200Y-93914286D02*
X172259580Y-93866667D01*
X142384819Y-112833333D02*
X141908628Y-112500000D01*
X142384819Y-112261905D02*
X141384819Y-112261905D01*
X141384819Y-112261905D02*
X141384819Y-112642857D01*
X141384819Y-112642857D02*
X141432438Y-112738095D01*
X141432438Y-112738095D02*
X141480057Y-112785714D01*
X141480057Y-112785714D02*
X141575295Y-112833333D01*
X141575295Y-112833333D02*
X141718152Y-112833333D01*
X141718152Y-112833333D02*
X141813390Y-112785714D01*
X141813390Y-112785714D02*
X141861009Y-112738095D01*
X141861009Y-112738095D02*
X141908628Y-112642857D01*
X141908628Y-112642857D02*
X141908628Y-112261905D01*
X141384819Y-113738095D02*
X141384819Y-113261905D01*
X141384819Y-113261905D02*
X141861009Y-113214286D01*
X141861009Y-113214286D02*
X141813390Y-113261905D01*
X141813390Y-113261905D02*
X141765771Y-113357143D01*
X141765771Y-113357143D02*
X141765771Y-113595238D01*
X141765771Y-113595238D02*
X141813390Y-113690476D01*
X141813390Y-113690476D02*
X141861009Y-113738095D01*
X141861009Y-113738095D02*
X141956247Y-113785714D01*
X141956247Y-113785714D02*
X142194342Y-113785714D01*
X142194342Y-113785714D02*
X142289580Y-113738095D01*
X142289580Y-113738095D02*
X142337200Y-113690476D01*
X142337200Y-113690476D02*
X142384819Y-113595238D01*
X142384819Y-113595238D02*
X142384819Y-113357143D01*
X142384819Y-113357143D02*
X142337200Y-113261905D01*
X142337200Y-113261905D02*
X142289580Y-113214286D01*
X149284819Y-112833333D02*
X148808628Y-112500000D01*
X149284819Y-112261905D02*
X148284819Y-112261905D01*
X148284819Y-112261905D02*
X148284819Y-112642857D01*
X148284819Y-112642857D02*
X148332438Y-112738095D01*
X148332438Y-112738095D02*
X148380057Y-112785714D01*
X148380057Y-112785714D02*
X148475295Y-112833333D01*
X148475295Y-112833333D02*
X148618152Y-112833333D01*
X148618152Y-112833333D02*
X148713390Y-112785714D01*
X148713390Y-112785714D02*
X148761009Y-112738095D01*
X148761009Y-112738095D02*
X148808628Y-112642857D01*
X148808628Y-112642857D02*
X148808628Y-112261905D01*
X148284819Y-113690476D02*
X148284819Y-113500000D01*
X148284819Y-113500000D02*
X148332438Y-113404762D01*
X148332438Y-113404762D02*
X148380057Y-113357143D01*
X148380057Y-113357143D02*
X148522914Y-113261905D01*
X148522914Y-113261905D02*
X148713390Y-113214286D01*
X148713390Y-113214286D02*
X149094342Y-113214286D01*
X149094342Y-113214286D02*
X149189580Y-113261905D01*
X149189580Y-113261905D02*
X149237200Y-113309524D01*
X149237200Y-113309524D02*
X149284819Y-113404762D01*
X149284819Y-113404762D02*
X149284819Y-113595238D01*
X149284819Y-113595238D02*
X149237200Y-113690476D01*
X149237200Y-113690476D02*
X149189580Y-113738095D01*
X149189580Y-113738095D02*
X149094342Y-113785714D01*
X149094342Y-113785714D02*
X148856247Y-113785714D01*
X148856247Y-113785714D02*
X148761009Y-113738095D01*
X148761009Y-113738095D02*
X148713390Y-113690476D01*
X148713390Y-113690476D02*
X148665771Y-113595238D01*
X148665771Y-113595238D02*
X148665771Y-113404762D01*
X148665771Y-113404762D02*
X148713390Y-113309524D01*
X148713390Y-113309524D02*
X148761009Y-113261905D01*
X148761009Y-113261905D02*
X148856247Y-113214286D01*
X120784819Y-112833333D02*
X120308628Y-112500000D01*
X120784819Y-112261905D02*
X119784819Y-112261905D01*
X119784819Y-112261905D02*
X119784819Y-112642857D01*
X119784819Y-112642857D02*
X119832438Y-112738095D01*
X119832438Y-112738095D02*
X119880057Y-112785714D01*
X119880057Y-112785714D02*
X119975295Y-112833333D01*
X119975295Y-112833333D02*
X120118152Y-112833333D01*
X120118152Y-112833333D02*
X120213390Y-112785714D01*
X120213390Y-112785714D02*
X120261009Y-112738095D01*
X120261009Y-112738095D02*
X120308628Y-112642857D01*
X120308628Y-112642857D02*
X120308628Y-112261905D01*
X119880057Y-113214286D02*
X119832438Y-113261905D01*
X119832438Y-113261905D02*
X119784819Y-113357143D01*
X119784819Y-113357143D02*
X119784819Y-113595238D01*
X119784819Y-113595238D02*
X119832438Y-113690476D01*
X119832438Y-113690476D02*
X119880057Y-113738095D01*
X119880057Y-113738095D02*
X119975295Y-113785714D01*
X119975295Y-113785714D02*
X120070533Y-113785714D01*
X120070533Y-113785714D02*
X120213390Y-113738095D01*
X120213390Y-113738095D02*
X120784819Y-113166667D01*
X120784819Y-113166667D02*
X120784819Y-113785714D01*
D11*
%TO.C,JP1*%
X162900000Y-90200000D02*
X162900000Y-93000000D01*
X163600000Y-93650000D02*
X164200000Y-93650000D01*
X164200000Y-89550000D02*
X163600000Y-89550000D01*
X164900000Y-93000000D02*
X164900000Y-90200000D01*
X162900000Y-90250000D02*
G75*
G02*
X163600000Y-89550000I699999J1D01*
G01*
X163600000Y-93650000D02*
G75*
G02*
X162900000Y-92950000I0J700000D01*
G01*
X164200000Y-89550000D02*
G75*
G02*
X164900000Y-90250000I1J-699999D01*
G01*
X164900000Y-92950000D02*
G75*
G02*
X164200000Y-93650000I-700000J0D01*
G01*
%TO.C,JP2*%
X166900000Y-90200000D02*
X166900000Y-93000000D01*
X167600000Y-93650000D02*
X168200000Y-93650000D01*
X168200000Y-89550000D02*
X167600000Y-89550000D01*
X168900000Y-93000000D02*
X168900000Y-90200000D01*
X166900000Y-90250000D02*
G75*
G02*
X167600000Y-89550000I699999J1D01*
G01*
X167600000Y-93650000D02*
G75*
G02*
X166900000Y-92950000I0J700000D01*
G01*
X168200000Y-89550000D02*
G75*
G02*
X168900000Y-90250000I1J-699999D01*
G01*
X168900000Y-92950000D02*
G75*
G02*
X168200000Y-93650000I-700000J0D01*
G01*
%TO.C,R1*%
X111277500Y-113037258D02*
X111277500Y-112562742D01*
X112322500Y-113037258D02*
X112322500Y-112562742D01*
%TO.C,R7*%
X153977500Y-113137258D02*
X153977500Y-112662742D01*
X155022500Y-113137258D02*
X155022500Y-112662742D01*
%TO.C,R3*%
X125677500Y-113137258D02*
X125677500Y-112662742D01*
X126722500Y-113137258D02*
X126722500Y-112662742D01*
%TO.C,R4*%
X132777500Y-113237258D02*
X132777500Y-112762742D01*
X133822500Y-113237258D02*
X133822500Y-112762742D01*
%TO.C,JP3*%
X170900000Y-90200000D02*
X170900000Y-93000000D01*
X171600000Y-93650000D02*
X172200000Y-93650000D01*
X172200000Y-89550000D02*
X171600000Y-89550000D01*
X172900000Y-93000000D02*
X172900000Y-90200000D01*
X170900000Y-90250000D02*
G75*
G02*
X171600000Y-89550000I699999J1D01*
G01*
X171600000Y-93650000D02*
G75*
G02*
X170900000Y-92950000I0J700000D01*
G01*
X172200000Y-89550000D02*
G75*
G02*
X172900000Y-90250000I1J-699999D01*
G01*
X172900000Y-92950000D02*
G75*
G02*
X172200000Y-93650000I-700000J0D01*
G01*
%TO.C,R5*%
X139977500Y-113237258D02*
X139977500Y-112762742D01*
X141022500Y-113237258D02*
X141022500Y-112762742D01*
%TO.C,R6*%
X146877500Y-113237258D02*
X146877500Y-112762742D01*
X147922500Y-113237258D02*
X147922500Y-112762742D01*
%TO.C,R2*%
X118377500Y-113237258D02*
X118377500Y-112762742D01*
X119422500Y-113237258D02*
X119422500Y-112762742D01*
%TD*%
M02*
