%TF.GenerationSoftware,KiCad,Pcbnew,8.0.0*%
%TF.CreationDate,2024-05-11T13:18:48+02:00*%
%TF.ProjectId,led_stairs_controller,6c65645f-7374-4616-9972-735f636f6e74,V0.2*%
%TF.SameCoordinates,Original*%
%TF.FileFunction,Soldermask,Bot*%
%TF.FilePolarity,Negative*%
%FSLAX46Y46*%
G04 Gerber Fmt 4.6, Leading zero omitted, Abs format (unit mm)*
G04 Created by KiCad (PCBNEW 8.0.0) date 2024-05-11 13:18:48*
%MOMM*%
%LPD*%
G01*
G04 APERTURE LIST*
G04 APERTURE END LIST*
G36*
X109994517Y-132232882D02*
G01*
X110011062Y-132243938D01*
X110022118Y-132260483D01*
X110026000Y-132280000D01*
X110026000Y-134880000D01*
X110022118Y-134899517D01*
X110011062Y-134916062D01*
X109994517Y-134927118D01*
X109975000Y-134931000D01*
X107375000Y-134931000D01*
X107355483Y-134927118D01*
X107338938Y-134916062D01*
X107327882Y-134899517D01*
X107324000Y-134880000D01*
X107324000Y-132280000D01*
X107327882Y-132260483D01*
X107338938Y-132243938D01*
X107355483Y-132232882D01*
X107375000Y-132229000D01*
X109975000Y-132229000D01*
X109994517Y-132232882D01*
G37*
G36*
X159994517Y-132232882D02*
G01*
X160011062Y-132243938D01*
X160022118Y-132260483D01*
X160026000Y-132280000D01*
X160026000Y-134880000D01*
X160022118Y-134899517D01*
X160011062Y-134916062D01*
X159994517Y-134927118D01*
X159975000Y-134931000D01*
X157375000Y-134931000D01*
X157355483Y-134927118D01*
X157338938Y-134916062D01*
X157327882Y-134899517D01*
X157324000Y-134880000D01*
X157324000Y-132280000D01*
X157327882Y-132260483D01*
X157338938Y-132243938D01*
X157355483Y-132232882D01*
X157375000Y-132229000D01*
X159975000Y-132229000D01*
X159994517Y-132232882D01*
G37*
G36*
X114006651Y-132270340D02*
G01*
X114217691Y-132342790D01*
X114413927Y-132448988D01*
X114590007Y-132586037D01*
X114741129Y-132750199D01*
X114863169Y-132936995D01*
X114952799Y-133141331D01*
X115007574Y-133357633D01*
X115026000Y-133580000D01*
X115007574Y-133802367D01*
X114952799Y-134018669D01*
X114863169Y-134223005D01*
X114741129Y-134409801D01*
X114590007Y-134573963D01*
X114413927Y-134711012D01*
X114217691Y-134817210D01*
X114006651Y-134889660D01*
X113786565Y-134926386D01*
X113563435Y-134926386D01*
X113343349Y-134889660D01*
X113132309Y-134817210D01*
X112936073Y-134711012D01*
X112759993Y-134573963D01*
X112608871Y-134409801D01*
X112486831Y-134223005D01*
X112397201Y-134018669D01*
X112342426Y-133802367D01*
X112324000Y-133580000D01*
X112342426Y-133357633D01*
X112397201Y-133141331D01*
X112486831Y-132936995D01*
X112608871Y-132750199D01*
X112759993Y-132586037D01*
X112936073Y-132448988D01*
X113132309Y-132342790D01*
X113343349Y-132270340D01*
X113563435Y-132233614D01*
X113786565Y-132233614D01*
X114006651Y-132270340D01*
G37*
G36*
X119006651Y-132270340D02*
G01*
X119217691Y-132342790D01*
X119413927Y-132448988D01*
X119590007Y-132586037D01*
X119741129Y-132750199D01*
X119863169Y-132936995D01*
X119952799Y-133141331D01*
X120007574Y-133357633D01*
X120026000Y-133580000D01*
X120007574Y-133802367D01*
X119952799Y-134018669D01*
X119863169Y-134223005D01*
X119741129Y-134409801D01*
X119590007Y-134573963D01*
X119413927Y-134711012D01*
X119217691Y-134817210D01*
X119006651Y-134889660D01*
X118786565Y-134926386D01*
X118563435Y-134926386D01*
X118343349Y-134889660D01*
X118132309Y-134817210D01*
X117936073Y-134711012D01*
X117759993Y-134573963D01*
X117608871Y-134409801D01*
X117486831Y-134223005D01*
X117397201Y-134018669D01*
X117342426Y-133802367D01*
X117324000Y-133580000D01*
X117342426Y-133357633D01*
X117397201Y-133141331D01*
X117486831Y-132936995D01*
X117608871Y-132750199D01*
X117759993Y-132586037D01*
X117936073Y-132448988D01*
X118132309Y-132342790D01*
X118343349Y-132270340D01*
X118563435Y-132233614D01*
X118786565Y-132233614D01*
X119006651Y-132270340D01*
G37*
G36*
X124006651Y-132270340D02*
G01*
X124217691Y-132342790D01*
X124413927Y-132448988D01*
X124590007Y-132586037D01*
X124741129Y-132750199D01*
X124863169Y-132936995D01*
X124952799Y-133141331D01*
X125007574Y-133357633D01*
X125026000Y-133580000D01*
X125007574Y-133802367D01*
X124952799Y-134018669D01*
X124863169Y-134223005D01*
X124741129Y-134409801D01*
X124590007Y-134573963D01*
X124413927Y-134711012D01*
X124217691Y-134817210D01*
X124006651Y-134889660D01*
X123786565Y-134926386D01*
X123563435Y-134926386D01*
X123343349Y-134889660D01*
X123132309Y-134817210D01*
X122936073Y-134711012D01*
X122759993Y-134573963D01*
X122608871Y-134409801D01*
X122486831Y-134223005D01*
X122397201Y-134018669D01*
X122342426Y-133802367D01*
X122324000Y-133580000D01*
X122342426Y-133357633D01*
X122397201Y-133141331D01*
X122486831Y-132936995D01*
X122608871Y-132750199D01*
X122759993Y-132586037D01*
X122936073Y-132448988D01*
X123132309Y-132342790D01*
X123343349Y-132270340D01*
X123563435Y-132233614D01*
X123786565Y-132233614D01*
X124006651Y-132270340D01*
G37*
G36*
X129006651Y-132270340D02*
G01*
X129217691Y-132342790D01*
X129413927Y-132448988D01*
X129590007Y-132586037D01*
X129741129Y-132750199D01*
X129863169Y-132936995D01*
X129952799Y-133141331D01*
X130007574Y-133357633D01*
X130026000Y-133580000D01*
X130007574Y-133802367D01*
X129952799Y-134018669D01*
X129863169Y-134223005D01*
X129741129Y-134409801D01*
X129590007Y-134573963D01*
X129413927Y-134711012D01*
X129217691Y-134817210D01*
X129006651Y-134889660D01*
X128786565Y-134926386D01*
X128563435Y-134926386D01*
X128343349Y-134889660D01*
X128132309Y-134817210D01*
X127936073Y-134711012D01*
X127759993Y-134573963D01*
X127608871Y-134409801D01*
X127486831Y-134223005D01*
X127397201Y-134018669D01*
X127342426Y-133802367D01*
X127324000Y-133580000D01*
X127342426Y-133357633D01*
X127397201Y-133141331D01*
X127486831Y-132936995D01*
X127608871Y-132750199D01*
X127759993Y-132586037D01*
X127936073Y-132448988D01*
X128132309Y-132342790D01*
X128343349Y-132270340D01*
X128563435Y-132233614D01*
X128786565Y-132233614D01*
X129006651Y-132270340D01*
G37*
G36*
X134006651Y-132270340D02*
G01*
X134217691Y-132342790D01*
X134413927Y-132448988D01*
X134590007Y-132586037D01*
X134741129Y-132750199D01*
X134863169Y-132936995D01*
X134952799Y-133141331D01*
X135007574Y-133357633D01*
X135026000Y-133580000D01*
X135007574Y-133802367D01*
X134952799Y-134018669D01*
X134863169Y-134223005D01*
X134741129Y-134409801D01*
X134590007Y-134573963D01*
X134413927Y-134711012D01*
X134217691Y-134817210D01*
X134006651Y-134889660D01*
X133786565Y-134926386D01*
X133563435Y-134926386D01*
X133343349Y-134889660D01*
X133132309Y-134817210D01*
X132936073Y-134711012D01*
X132759993Y-134573963D01*
X132608871Y-134409801D01*
X132486831Y-134223005D01*
X132397201Y-134018669D01*
X132342426Y-133802367D01*
X132324000Y-133580000D01*
X132342426Y-133357633D01*
X132397201Y-133141331D01*
X132486831Y-132936995D01*
X132608871Y-132750199D01*
X132759993Y-132586037D01*
X132936073Y-132448988D01*
X133132309Y-132342790D01*
X133343349Y-132270340D01*
X133563435Y-132233614D01*
X133786565Y-132233614D01*
X134006651Y-132270340D01*
G37*
G36*
X139006651Y-132270340D02*
G01*
X139217691Y-132342790D01*
X139413927Y-132448988D01*
X139590007Y-132586037D01*
X139741129Y-132750199D01*
X139863169Y-132936995D01*
X139952799Y-133141331D01*
X140007574Y-133357633D01*
X140026000Y-133580000D01*
X140007574Y-133802367D01*
X139952799Y-134018669D01*
X139863169Y-134223005D01*
X139741129Y-134409801D01*
X139590007Y-134573963D01*
X139413927Y-134711012D01*
X139217691Y-134817210D01*
X139006651Y-134889660D01*
X138786565Y-134926386D01*
X138563435Y-134926386D01*
X138343349Y-134889660D01*
X138132309Y-134817210D01*
X137936073Y-134711012D01*
X137759993Y-134573963D01*
X137608871Y-134409801D01*
X137486831Y-134223005D01*
X137397201Y-134018669D01*
X137342426Y-133802367D01*
X137324000Y-133580000D01*
X137342426Y-133357633D01*
X137397201Y-133141331D01*
X137486831Y-132936995D01*
X137608871Y-132750199D01*
X137759993Y-132586037D01*
X137936073Y-132448988D01*
X138132309Y-132342790D01*
X138343349Y-132270340D01*
X138563435Y-132233614D01*
X138786565Y-132233614D01*
X139006651Y-132270340D01*
G37*
G36*
X144006651Y-132270340D02*
G01*
X144217691Y-132342790D01*
X144413927Y-132448988D01*
X144590007Y-132586037D01*
X144741129Y-132750199D01*
X144863169Y-132936995D01*
X144952799Y-133141331D01*
X145007574Y-133357633D01*
X145026000Y-133580000D01*
X145007574Y-133802367D01*
X144952799Y-134018669D01*
X144863169Y-134223005D01*
X144741129Y-134409801D01*
X144590007Y-134573963D01*
X144413927Y-134711012D01*
X144217691Y-134817210D01*
X144006651Y-134889660D01*
X143786565Y-134926386D01*
X143563435Y-134926386D01*
X143343349Y-134889660D01*
X143132309Y-134817210D01*
X142936073Y-134711012D01*
X142759993Y-134573963D01*
X142608871Y-134409801D01*
X142486831Y-134223005D01*
X142397201Y-134018669D01*
X142342426Y-133802367D01*
X142324000Y-133580000D01*
X142342426Y-133357633D01*
X142397201Y-133141331D01*
X142486831Y-132936995D01*
X142608871Y-132750199D01*
X142759993Y-132586037D01*
X142936073Y-132448988D01*
X143132309Y-132342790D01*
X143343349Y-132270340D01*
X143563435Y-132233614D01*
X143786565Y-132233614D01*
X144006651Y-132270340D01*
G37*
G36*
X164006651Y-132270340D02*
G01*
X164217691Y-132342790D01*
X164413927Y-132448988D01*
X164590007Y-132586037D01*
X164741129Y-132750199D01*
X164863169Y-132936995D01*
X164952799Y-133141331D01*
X165007574Y-133357633D01*
X165026000Y-133580000D01*
X165007574Y-133802367D01*
X164952799Y-134018669D01*
X164863169Y-134223005D01*
X164741129Y-134409801D01*
X164590007Y-134573963D01*
X164413927Y-134711012D01*
X164217691Y-134817210D01*
X164006651Y-134889660D01*
X163786565Y-134926386D01*
X163563435Y-134926386D01*
X163343349Y-134889660D01*
X163132309Y-134817210D01*
X162936073Y-134711012D01*
X162759993Y-134573963D01*
X162608871Y-134409801D01*
X162486831Y-134223005D01*
X162397201Y-134018669D01*
X162342426Y-133802367D01*
X162324000Y-133580000D01*
X162342426Y-133357633D01*
X162397201Y-133141331D01*
X162486831Y-132936995D01*
X162608871Y-132750199D01*
X162759993Y-132586037D01*
X162936073Y-132448988D01*
X163132309Y-132342790D01*
X163343349Y-132270340D01*
X163563435Y-132233614D01*
X163786565Y-132233614D01*
X164006651Y-132270340D01*
G37*
G36*
X169006651Y-132270340D02*
G01*
X169217691Y-132342790D01*
X169413927Y-132448988D01*
X169590007Y-132586037D01*
X169741129Y-132750199D01*
X169863169Y-132936995D01*
X169952799Y-133141331D01*
X170007574Y-133357633D01*
X170026000Y-133580000D01*
X170007574Y-133802367D01*
X169952799Y-134018669D01*
X169863169Y-134223005D01*
X169741129Y-134409801D01*
X169590007Y-134573963D01*
X169413927Y-134711012D01*
X169217691Y-134817210D01*
X169006651Y-134889660D01*
X168786565Y-134926386D01*
X168563435Y-134926386D01*
X168343349Y-134889660D01*
X168132309Y-134817210D01*
X167936073Y-134711012D01*
X167759993Y-134573963D01*
X167608871Y-134409801D01*
X167486831Y-134223005D01*
X167397201Y-134018669D01*
X167342426Y-133802367D01*
X167324000Y-133580000D01*
X167342426Y-133357633D01*
X167397201Y-133141331D01*
X167486831Y-132936995D01*
X167608871Y-132750199D01*
X167759993Y-132586037D01*
X167936073Y-132448988D01*
X168132309Y-132342790D01*
X168343349Y-132270340D01*
X168563435Y-132233614D01*
X168786565Y-132233614D01*
X169006651Y-132270340D01*
G37*
G36*
X174006651Y-132270340D02*
G01*
X174217691Y-132342790D01*
X174413927Y-132448988D01*
X174590007Y-132586037D01*
X174741129Y-132750199D01*
X174863169Y-132936995D01*
X174952799Y-133141331D01*
X175007574Y-133357633D01*
X175026000Y-133580000D01*
X175007574Y-133802367D01*
X174952799Y-134018669D01*
X174863169Y-134223005D01*
X174741129Y-134409801D01*
X174590007Y-134573963D01*
X174413927Y-134711012D01*
X174217691Y-134817210D01*
X174006651Y-134889660D01*
X173786565Y-134926386D01*
X173563435Y-134926386D01*
X173343349Y-134889660D01*
X173132309Y-134817210D01*
X172936073Y-134711012D01*
X172759993Y-134573963D01*
X172608871Y-134409801D01*
X172486831Y-134223005D01*
X172397201Y-134018669D01*
X172342426Y-133802367D01*
X172324000Y-133580000D01*
X172342426Y-133357633D01*
X172397201Y-133141331D01*
X172486831Y-132936995D01*
X172608871Y-132750199D01*
X172759993Y-132586037D01*
X172936073Y-132448988D01*
X173132309Y-132342790D01*
X173343349Y-132270340D01*
X173563435Y-132233614D01*
X173786565Y-132233614D01*
X174006651Y-132270340D01*
G37*
G36*
X179006651Y-132270340D02*
G01*
X179217691Y-132342790D01*
X179413927Y-132448988D01*
X179590007Y-132586037D01*
X179741129Y-132750199D01*
X179863169Y-132936995D01*
X179952799Y-133141331D01*
X180007574Y-133357633D01*
X180026000Y-133580000D01*
X180007574Y-133802367D01*
X179952799Y-134018669D01*
X179863169Y-134223005D01*
X179741129Y-134409801D01*
X179590007Y-134573963D01*
X179413927Y-134711012D01*
X179217691Y-134817210D01*
X179006651Y-134889660D01*
X178786565Y-134926386D01*
X178563435Y-134926386D01*
X178343349Y-134889660D01*
X178132309Y-134817210D01*
X177936073Y-134711012D01*
X177759993Y-134573963D01*
X177608871Y-134409801D01*
X177486831Y-134223005D01*
X177397201Y-134018669D01*
X177342426Y-133802367D01*
X177324000Y-133580000D01*
X177342426Y-133357633D01*
X177397201Y-133141331D01*
X177486831Y-132936995D01*
X177608871Y-132750199D01*
X177759993Y-132586037D01*
X177936073Y-132448988D01*
X178132309Y-132342790D01*
X178343349Y-132270340D01*
X178563435Y-132233614D01*
X178786565Y-132233614D01*
X179006651Y-132270340D01*
G37*
G36*
X184006651Y-132270340D02*
G01*
X184217691Y-132342790D01*
X184413927Y-132448988D01*
X184590007Y-132586037D01*
X184741129Y-132750199D01*
X184863169Y-132936995D01*
X184952799Y-133141331D01*
X185007574Y-133357633D01*
X185026000Y-133580000D01*
X185007574Y-133802367D01*
X184952799Y-134018669D01*
X184863169Y-134223005D01*
X184741129Y-134409801D01*
X184590007Y-134573963D01*
X184413927Y-134711012D01*
X184217691Y-134817210D01*
X184006651Y-134889660D01*
X183786565Y-134926386D01*
X183563435Y-134926386D01*
X183343349Y-134889660D01*
X183132309Y-134817210D01*
X182936073Y-134711012D01*
X182759993Y-134573963D01*
X182608871Y-134409801D01*
X182486831Y-134223005D01*
X182397201Y-134018669D01*
X182342426Y-133802367D01*
X182324000Y-133580000D01*
X182342426Y-133357633D01*
X182397201Y-133141331D01*
X182486831Y-132936995D01*
X182608871Y-132750199D01*
X182759993Y-132586037D01*
X182936073Y-132448988D01*
X183132309Y-132342790D01*
X183343349Y-132270340D01*
X183563435Y-132233614D01*
X183786565Y-132233614D01*
X184006651Y-132270340D01*
G37*
G36*
X189006651Y-132270340D02*
G01*
X189217691Y-132342790D01*
X189413927Y-132448988D01*
X189590007Y-132586037D01*
X189741129Y-132750199D01*
X189863169Y-132936995D01*
X189952799Y-133141331D01*
X190007574Y-133357633D01*
X190026000Y-133580000D01*
X190007574Y-133802367D01*
X189952799Y-134018669D01*
X189863169Y-134223005D01*
X189741129Y-134409801D01*
X189590007Y-134573963D01*
X189413927Y-134711012D01*
X189217691Y-134817210D01*
X189006651Y-134889660D01*
X188786565Y-134926386D01*
X188563435Y-134926386D01*
X188343349Y-134889660D01*
X188132309Y-134817210D01*
X187936073Y-134711012D01*
X187759993Y-134573963D01*
X187608871Y-134409801D01*
X187486831Y-134223005D01*
X187397201Y-134018669D01*
X187342426Y-133802367D01*
X187324000Y-133580000D01*
X187342426Y-133357633D01*
X187397201Y-133141331D01*
X187486831Y-132936995D01*
X187608871Y-132750199D01*
X187759993Y-132586037D01*
X187936073Y-132448988D01*
X188132309Y-132342790D01*
X188343349Y-132270340D01*
X188563435Y-132233614D01*
X188786565Y-132233614D01*
X189006651Y-132270340D01*
G37*
G36*
X194006651Y-132270340D02*
G01*
X194217691Y-132342790D01*
X194413927Y-132448988D01*
X194590007Y-132586037D01*
X194741129Y-132750199D01*
X194863169Y-132936995D01*
X194952799Y-133141331D01*
X195007574Y-133357633D01*
X195026000Y-133580000D01*
X195007574Y-133802367D01*
X194952799Y-134018669D01*
X194863169Y-134223005D01*
X194741129Y-134409801D01*
X194590007Y-134573963D01*
X194413927Y-134711012D01*
X194217691Y-134817210D01*
X194006651Y-134889660D01*
X193786565Y-134926386D01*
X193563435Y-134926386D01*
X193343349Y-134889660D01*
X193132309Y-134817210D01*
X192936073Y-134711012D01*
X192759993Y-134573963D01*
X192608871Y-134409801D01*
X192486831Y-134223005D01*
X192397201Y-134018669D01*
X192342426Y-133802367D01*
X192324000Y-133580000D01*
X192342426Y-133357633D01*
X192397201Y-133141331D01*
X192486831Y-132936995D01*
X192608871Y-132750199D01*
X192759993Y-132586037D01*
X192936073Y-132448988D01*
X193132309Y-132342790D01*
X193343349Y-132270340D01*
X193563435Y-132233614D01*
X193786565Y-132233614D01*
X194006651Y-132270340D01*
G37*
G36*
X105391604Y-119768184D02*
G01*
X105728911Y-119825495D01*
X106057681Y-119920212D01*
X106373779Y-120051144D01*
X106673230Y-120216644D01*
X106952267Y-120414632D01*
X107207383Y-120642617D01*
X107435368Y-120897733D01*
X107633356Y-121176770D01*
X107798856Y-121476221D01*
X107929788Y-121792319D01*
X108024505Y-122121089D01*
X108081816Y-122458396D01*
X108101000Y-122800000D01*
X108081816Y-123141604D01*
X108024505Y-123478911D01*
X107929788Y-123807681D01*
X107798856Y-124123779D01*
X107633356Y-124423230D01*
X107435368Y-124702267D01*
X107207383Y-124957383D01*
X106952267Y-125185368D01*
X106673230Y-125383356D01*
X106373779Y-125548856D01*
X106057681Y-125679788D01*
X105728911Y-125774505D01*
X105391604Y-125831816D01*
X105050000Y-125851000D01*
X104708396Y-125831816D01*
X104371089Y-125774505D01*
X104042319Y-125679788D01*
X103726221Y-125548856D01*
X103426770Y-125383356D01*
X103147733Y-125185368D01*
X102892617Y-124957383D01*
X102664632Y-124702267D01*
X102466644Y-124423230D01*
X102301144Y-124123779D01*
X102170212Y-123807681D01*
X102075495Y-123478911D01*
X102018184Y-123141604D01*
X101999000Y-122800000D01*
X102018184Y-122458396D01*
X102075495Y-122121089D01*
X102170212Y-121792319D01*
X102301144Y-121476221D01*
X102466644Y-121176770D01*
X102664632Y-120897733D01*
X102892617Y-120642617D01*
X103147733Y-120414632D01*
X103426770Y-120216644D01*
X103726221Y-120051144D01*
X104042319Y-119920212D01*
X104371089Y-119825495D01*
X104708396Y-119768184D01*
X105050000Y-119749000D01*
X105391604Y-119768184D01*
G37*
G36*
X197641604Y-119768184D02*
G01*
X197978911Y-119825495D01*
X198307681Y-119920212D01*
X198623779Y-120051144D01*
X198923230Y-120216644D01*
X199202267Y-120414632D01*
X199457383Y-120642617D01*
X199685368Y-120897733D01*
X199883356Y-121176770D01*
X200048856Y-121476221D01*
X200179788Y-121792319D01*
X200274505Y-122121089D01*
X200331816Y-122458396D01*
X200351000Y-122800000D01*
X200331816Y-123141604D01*
X200274505Y-123478911D01*
X200179788Y-123807681D01*
X200048856Y-124123779D01*
X199883356Y-124423230D01*
X199685368Y-124702267D01*
X199457383Y-124957383D01*
X199202267Y-125185368D01*
X198923230Y-125383356D01*
X198623779Y-125548856D01*
X198307681Y-125679788D01*
X197978911Y-125774505D01*
X197641604Y-125831816D01*
X197300000Y-125851000D01*
X196958396Y-125831816D01*
X196621089Y-125774505D01*
X196292319Y-125679788D01*
X195976221Y-125548856D01*
X195676770Y-125383356D01*
X195397733Y-125185368D01*
X195142617Y-124957383D01*
X194914632Y-124702267D01*
X194716644Y-124423230D01*
X194551144Y-124123779D01*
X194420212Y-123807681D01*
X194325495Y-123478911D01*
X194268184Y-123141604D01*
X194249000Y-122800000D01*
X194268184Y-122458396D01*
X194325495Y-122121089D01*
X194420212Y-121792319D01*
X194551144Y-121476221D01*
X194716644Y-121176770D01*
X194914632Y-120897733D01*
X195142617Y-120642617D01*
X195397733Y-120414632D01*
X195676770Y-120216644D01*
X195976221Y-120051144D01*
X196292319Y-119920212D01*
X196621089Y-119825495D01*
X196958396Y-119768184D01*
X197300000Y-119749000D01*
X197641604Y-119768184D01*
G37*
G36*
X119179047Y-113374805D02*
G01*
X119230637Y-113380790D01*
X119248262Y-113388572D01*
X119271054Y-113393106D01*
X119295455Y-113409410D01*
X119316358Y-113418640D01*
X119330634Y-113432916D01*
X119352484Y-113447516D01*
X119367083Y-113469365D01*
X119381359Y-113483641D01*
X119390588Y-113504542D01*
X119406894Y-113528946D01*
X119411427Y-113551739D01*
X119419209Y-113569362D01*
X119425192Y-113620942D01*
X119426000Y-113625000D01*
X119426000Y-114025000D01*
X119425192Y-114029059D01*
X119419209Y-114080637D01*
X119411428Y-114098258D01*
X119406894Y-114121054D01*
X119390586Y-114145459D01*
X119381359Y-114166358D01*
X119367085Y-114180631D01*
X119352484Y-114202484D01*
X119330631Y-114217085D01*
X119316358Y-114231359D01*
X119295459Y-114240586D01*
X119271054Y-114256894D01*
X119248258Y-114261428D01*
X119230637Y-114269209D01*
X119179059Y-114275192D01*
X119175000Y-114276000D01*
X118625000Y-114276000D01*
X118620942Y-114275192D01*
X118569362Y-114269209D01*
X118551739Y-114261427D01*
X118528946Y-114256894D01*
X118504542Y-114240588D01*
X118483641Y-114231359D01*
X118469365Y-114217083D01*
X118447516Y-114202484D01*
X118432916Y-114180634D01*
X118418640Y-114166358D01*
X118409410Y-114145455D01*
X118393106Y-114121054D01*
X118388572Y-114098262D01*
X118380790Y-114080637D01*
X118374805Y-114029047D01*
X118374000Y-114025000D01*
X118374000Y-113625000D01*
X118374804Y-113620954D01*
X118380790Y-113569362D01*
X118388572Y-113551735D01*
X118393106Y-113528946D01*
X118409409Y-113504546D01*
X118418640Y-113483641D01*
X118432918Y-113469362D01*
X118447516Y-113447516D01*
X118469362Y-113432918D01*
X118483641Y-113418640D01*
X118504546Y-113409409D01*
X118528946Y-113393106D01*
X118551735Y-113388572D01*
X118569362Y-113380790D01*
X118620954Y-113374804D01*
X118625000Y-113374000D01*
X119175000Y-113374000D01*
X119179047Y-113374805D01*
G37*
G36*
X133579047Y-113374805D02*
G01*
X133630637Y-113380790D01*
X133648262Y-113388572D01*
X133671054Y-113393106D01*
X133695455Y-113409410D01*
X133716358Y-113418640D01*
X133730634Y-113432916D01*
X133752484Y-113447516D01*
X133767083Y-113469365D01*
X133781359Y-113483641D01*
X133790588Y-113504542D01*
X133806894Y-113528946D01*
X133811427Y-113551739D01*
X133819209Y-113569362D01*
X133825192Y-113620942D01*
X133826000Y-113625000D01*
X133826000Y-114025000D01*
X133825192Y-114029059D01*
X133819209Y-114080637D01*
X133811428Y-114098258D01*
X133806894Y-114121054D01*
X133790586Y-114145459D01*
X133781359Y-114166358D01*
X133767085Y-114180631D01*
X133752484Y-114202484D01*
X133730631Y-114217085D01*
X133716358Y-114231359D01*
X133695459Y-114240586D01*
X133671054Y-114256894D01*
X133648258Y-114261428D01*
X133630637Y-114269209D01*
X133579059Y-114275192D01*
X133575000Y-114276000D01*
X133025000Y-114276000D01*
X133020942Y-114275192D01*
X132969362Y-114269209D01*
X132951739Y-114261427D01*
X132928946Y-114256894D01*
X132904542Y-114240588D01*
X132883641Y-114231359D01*
X132869365Y-114217083D01*
X132847516Y-114202484D01*
X132832916Y-114180634D01*
X132818640Y-114166358D01*
X132809410Y-114145455D01*
X132793106Y-114121054D01*
X132788572Y-114098262D01*
X132780790Y-114080637D01*
X132774805Y-114029047D01*
X132774000Y-114025000D01*
X132774000Y-113625000D01*
X132774804Y-113620954D01*
X132780790Y-113569362D01*
X132788572Y-113551735D01*
X132793106Y-113528946D01*
X132809409Y-113504546D01*
X132818640Y-113483641D01*
X132832918Y-113469362D01*
X132847516Y-113447516D01*
X132869362Y-113432918D01*
X132883641Y-113418640D01*
X132904546Y-113409409D01*
X132928946Y-113393106D01*
X132951735Y-113388572D01*
X132969362Y-113380790D01*
X133020954Y-113374804D01*
X133025000Y-113374000D01*
X133575000Y-113374000D01*
X133579047Y-113374805D01*
G37*
G36*
X140779047Y-113374805D02*
G01*
X140830637Y-113380790D01*
X140848262Y-113388572D01*
X140871054Y-113393106D01*
X140895455Y-113409410D01*
X140916358Y-113418640D01*
X140930634Y-113432916D01*
X140952484Y-113447516D01*
X140967083Y-113469365D01*
X140981359Y-113483641D01*
X140990588Y-113504542D01*
X141006894Y-113528946D01*
X141011427Y-113551739D01*
X141019209Y-113569362D01*
X141025192Y-113620942D01*
X141026000Y-113625000D01*
X141026000Y-114025000D01*
X141025192Y-114029059D01*
X141019209Y-114080637D01*
X141011428Y-114098258D01*
X141006894Y-114121054D01*
X140990586Y-114145459D01*
X140981359Y-114166358D01*
X140967085Y-114180631D01*
X140952484Y-114202484D01*
X140930631Y-114217085D01*
X140916358Y-114231359D01*
X140895459Y-114240586D01*
X140871054Y-114256894D01*
X140848258Y-114261428D01*
X140830637Y-114269209D01*
X140779059Y-114275192D01*
X140775000Y-114276000D01*
X140225000Y-114276000D01*
X140220942Y-114275192D01*
X140169362Y-114269209D01*
X140151739Y-114261427D01*
X140128946Y-114256894D01*
X140104542Y-114240588D01*
X140083641Y-114231359D01*
X140069365Y-114217083D01*
X140047516Y-114202484D01*
X140032916Y-114180634D01*
X140018640Y-114166358D01*
X140009410Y-114145455D01*
X139993106Y-114121054D01*
X139988572Y-114098262D01*
X139980790Y-114080637D01*
X139974805Y-114029047D01*
X139974000Y-114025000D01*
X139974000Y-113625000D01*
X139974804Y-113620954D01*
X139980790Y-113569362D01*
X139988572Y-113551735D01*
X139993106Y-113528946D01*
X140009409Y-113504546D01*
X140018640Y-113483641D01*
X140032918Y-113469362D01*
X140047516Y-113447516D01*
X140069362Y-113432918D01*
X140083641Y-113418640D01*
X140104546Y-113409409D01*
X140128946Y-113393106D01*
X140151735Y-113388572D01*
X140169362Y-113380790D01*
X140220954Y-113374804D01*
X140225000Y-113374000D01*
X140775000Y-113374000D01*
X140779047Y-113374805D01*
G37*
G36*
X147679047Y-113374805D02*
G01*
X147730637Y-113380790D01*
X147748262Y-113388572D01*
X147771054Y-113393106D01*
X147795455Y-113409410D01*
X147816358Y-113418640D01*
X147830634Y-113432916D01*
X147852484Y-113447516D01*
X147867083Y-113469365D01*
X147881359Y-113483641D01*
X147890588Y-113504542D01*
X147906894Y-113528946D01*
X147911427Y-113551739D01*
X147919209Y-113569362D01*
X147925192Y-113620942D01*
X147926000Y-113625000D01*
X147926000Y-114025000D01*
X147925192Y-114029059D01*
X147919209Y-114080637D01*
X147911428Y-114098258D01*
X147906894Y-114121054D01*
X147890586Y-114145459D01*
X147881359Y-114166358D01*
X147867085Y-114180631D01*
X147852484Y-114202484D01*
X147830631Y-114217085D01*
X147816358Y-114231359D01*
X147795459Y-114240586D01*
X147771054Y-114256894D01*
X147748258Y-114261428D01*
X147730637Y-114269209D01*
X147679059Y-114275192D01*
X147675000Y-114276000D01*
X147125000Y-114276000D01*
X147120942Y-114275192D01*
X147069362Y-114269209D01*
X147051739Y-114261427D01*
X147028946Y-114256894D01*
X147004542Y-114240588D01*
X146983641Y-114231359D01*
X146969365Y-114217083D01*
X146947516Y-114202484D01*
X146932916Y-114180634D01*
X146918640Y-114166358D01*
X146909410Y-114145455D01*
X146893106Y-114121054D01*
X146888572Y-114098262D01*
X146880790Y-114080637D01*
X146874805Y-114029047D01*
X146874000Y-114025000D01*
X146874000Y-113625000D01*
X146874804Y-113620954D01*
X146880790Y-113569362D01*
X146888572Y-113551735D01*
X146893106Y-113528946D01*
X146909409Y-113504546D01*
X146918640Y-113483641D01*
X146932918Y-113469362D01*
X146947516Y-113447516D01*
X146969362Y-113432918D01*
X146983641Y-113418640D01*
X147004546Y-113409409D01*
X147028946Y-113393106D01*
X147051735Y-113388572D01*
X147069362Y-113380790D01*
X147120954Y-113374804D01*
X147125000Y-113374000D01*
X147675000Y-113374000D01*
X147679047Y-113374805D01*
G37*
G36*
X126479047Y-113274805D02*
G01*
X126530637Y-113280790D01*
X126548262Y-113288572D01*
X126571054Y-113293106D01*
X126595455Y-113309410D01*
X126616358Y-113318640D01*
X126630634Y-113332916D01*
X126652484Y-113347516D01*
X126667083Y-113369365D01*
X126681359Y-113383641D01*
X126690588Y-113404542D01*
X126706894Y-113428946D01*
X126711427Y-113451739D01*
X126719209Y-113469362D01*
X126725192Y-113520942D01*
X126726000Y-113525000D01*
X126726000Y-113925000D01*
X126725192Y-113929059D01*
X126719209Y-113980637D01*
X126711428Y-113998258D01*
X126706894Y-114021054D01*
X126690586Y-114045459D01*
X126681359Y-114066358D01*
X126667085Y-114080631D01*
X126652484Y-114102484D01*
X126630631Y-114117085D01*
X126616358Y-114131359D01*
X126595459Y-114140586D01*
X126571054Y-114156894D01*
X126548258Y-114161428D01*
X126530637Y-114169209D01*
X126479059Y-114175192D01*
X126475000Y-114176000D01*
X125925000Y-114176000D01*
X125920942Y-114175192D01*
X125869362Y-114169209D01*
X125851739Y-114161427D01*
X125828946Y-114156894D01*
X125804542Y-114140588D01*
X125783641Y-114131359D01*
X125769365Y-114117083D01*
X125747516Y-114102484D01*
X125732916Y-114080634D01*
X125718640Y-114066358D01*
X125709410Y-114045455D01*
X125693106Y-114021054D01*
X125688572Y-113998262D01*
X125680790Y-113980637D01*
X125674805Y-113929047D01*
X125674000Y-113925000D01*
X125674000Y-113525000D01*
X125674804Y-113520954D01*
X125680790Y-113469362D01*
X125688572Y-113451735D01*
X125693106Y-113428946D01*
X125709409Y-113404546D01*
X125718640Y-113383641D01*
X125732918Y-113369362D01*
X125747516Y-113347516D01*
X125769362Y-113332918D01*
X125783641Y-113318640D01*
X125804546Y-113309409D01*
X125828946Y-113293106D01*
X125851735Y-113288572D01*
X125869362Y-113280790D01*
X125920954Y-113274804D01*
X125925000Y-113274000D01*
X126475000Y-113274000D01*
X126479047Y-113274805D01*
G37*
G36*
X154779047Y-113274805D02*
G01*
X154830637Y-113280790D01*
X154848262Y-113288572D01*
X154871054Y-113293106D01*
X154895455Y-113309410D01*
X154916358Y-113318640D01*
X154930634Y-113332916D01*
X154952484Y-113347516D01*
X154967083Y-113369365D01*
X154981359Y-113383641D01*
X154990588Y-113404542D01*
X155006894Y-113428946D01*
X155011427Y-113451739D01*
X155019209Y-113469362D01*
X155025192Y-113520942D01*
X155026000Y-113525000D01*
X155026000Y-113925000D01*
X155025192Y-113929059D01*
X155019209Y-113980637D01*
X155011428Y-113998258D01*
X155006894Y-114021054D01*
X154990586Y-114045459D01*
X154981359Y-114066358D01*
X154967085Y-114080631D01*
X154952484Y-114102484D01*
X154930631Y-114117085D01*
X154916358Y-114131359D01*
X154895459Y-114140586D01*
X154871054Y-114156894D01*
X154848258Y-114161428D01*
X154830637Y-114169209D01*
X154779059Y-114175192D01*
X154775000Y-114176000D01*
X154225000Y-114176000D01*
X154220942Y-114175192D01*
X154169362Y-114169209D01*
X154151739Y-114161427D01*
X154128946Y-114156894D01*
X154104542Y-114140588D01*
X154083641Y-114131359D01*
X154069365Y-114117083D01*
X154047516Y-114102484D01*
X154032916Y-114080634D01*
X154018640Y-114066358D01*
X154009410Y-114045455D01*
X153993106Y-114021054D01*
X153988572Y-113998262D01*
X153980790Y-113980637D01*
X153974805Y-113929047D01*
X153974000Y-113925000D01*
X153974000Y-113525000D01*
X153974804Y-113520954D01*
X153980790Y-113469362D01*
X153988572Y-113451735D01*
X153993106Y-113428946D01*
X154009409Y-113404546D01*
X154018640Y-113383641D01*
X154032918Y-113369362D01*
X154047516Y-113347516D01*
X154069362Y-113332918D01*
X154083641Y-113318640D01*
X154104546Y-113309409D01*
X154128946Y-113293106D01*
X154151735Y-113288572D01*
X154169362Y-113280790D01*
X154220954Y-113274804D01*
X154225000Y-113274000D01*
X154775000Y-113274000D01*
X154779047Y-113274805D01*
G37*
G36*
X112079047Y-113174805D02*
G01*
X112130637Y-113180790D01*
X112148262Y-113188572D01*
X112171054Y-113193106D01*
X112195455Y-113209410D01*
X112216358Y-113218640D01*
X112230634Y-113232916D01*
X112252484Y-113247516D01*
X112267083Y-113269365D01*
X112281359Y-113283641D01*
X112290588Y-113304542D01*
X112306894Y-113328946D01*
X112311427Y-113351739D01*
X112319209Y-113369362D01*
X112325192Y-113420942D01*
X112326000Y-113425000D01*
X112326000Y-113825000D01*
X112325192Y-113829059D01*
X112319209Y-113880637D01*
X112311428Y-113898258D01*
X112306894Y-113921054D01*
X112290586Y-113945459D01*
X112281359Y-113966358D01*
X112267085Y-113980631D01*
X112252484Y-114002484D01*
X112230631Y-114017085D01*
X112216358Y-114031359D01*
X112195459Y-114040586D01*
X112171054Y-114056894D01*
X112148258Y-114061428D01*
X112130637Y-114069209D01*
X112079059Y-114075192D01*
X112075000Y-114076000D01*
X111525000Y-114076000D01*
X111520942Y-114075192D01*
X111469362Y-114069209D01*
X111451739Y-114061427D01*
X111428946Y-114056894D01*
X111404542Y-114040588D01*
X111383641Y-114031359D01*
X111369365Y-114017083D01*
X111347516Y-114002484D01*
X111332916Y-113980634D01*
X111318640Y-113966358D01*
X111309410Y-113945455D01*
X111293106Y-113921054D01*
X111288572Y-113898262D01*
X111280790Y-113880637D01*
X111274805Y-113829047D01*
X111274000Y-113825000D01*
X111274000Y-113425000D01*
X111274804Y-113420954D01*
X111280790Y-113369362D01*
X111288572Y-113351735D01*
X111293106Y-113328946D01*
X111309409Y-113304546D01*
X111318640Y-113283641D01*
X111332918Y-113269362D01*
X111347516Y-113247516D01*
X111369362Y-113232918D01*
X111383641Y-113218640D01*
X111404546Y-113209409D01*
X111428946Y-113193106D01*
X111451735Y-113188572D01*
X111469362Y-113180790D01*
X111520954Y-113174804D01*
X111525000Y-113174000D01*
X112075000Y-113174000D01*
X112079047Y-113174805D01*
G37*
G36*
X119179047Y-111724805D02*
G01*
X119230637Y-111730790D01*
X119248262Y-111738572D01*
X119271054Y-111743106D01*
X119295455Y-111759410D01*
X119316358Y-111768640D01*
X119330634Y-111782916D01*
X119352484Y-111797516D01*
X119367083Y-111819365D01*
X119381359Y-111833641D01*
X119390588Y-111854542D01*
X119406894Y-111878946D01*
X119411427Y-111901739D01*
X119419209Y-111919362D01*
X119425192Y-111970942D01*
X119426000Y-111975000D01*
X119426000Y-112375000D01*
X119425192Y-112379059D01*
X119419209Y-112430637D01*
X119411428Y-112448258D01*
X119406894Y-112471054D01*
X119390586Y-112495459D01*
X119381359Y-112516358D01*
X119367085Y-112530631D01*
X119352484Y-112552484D01*
X119330631Y-112567085D01*
X119316358Y-112581359D01*
X119295459Y-112590586D01*
X119271054Y-112606894D01*
X119248258Y-112611428D01*
X119230637Y-112619209D01*
X119179059Y-112625192D01*
X119175000Y-112626000D01*
X118625000Y-112626000D01*
X118620942Y-112625192D01*
X118569362Y-112619209D01*
X118551739Y-112611427D01*
X118528946Y-112606894D01*
X118504542Y-112590588D01*
X118483641Y-112581359D01*
X118469365Y-112567083D01*
X118447516Y-112552484D01*
X118432916Y-112530634D01*
X118418640Y-112516358D01*
X118409410Y-112495455D01*
X118393106Y-112471054D01*
X118388572Y-112448262D01*
X118380790Y-112430637D01*
X118374805Y-112379047D01*
X118374000Y-112375000D01*
X118374000Y-111975000D01*
X118374804Y-111970954D01*
X118380790Y-111919362D01*
X118388572Y-111901735D01*
X118393106Y-111878946D01*
X118409409Y-111854546D01*
X118418640Y-111833641D01*
X118432918Y-111819362D01*
X118447516Y-111797516D01*
X118469362Y-111782918D01*
X118483641Y-111768640D01*
X118504546Y-111759409D01*
X118528946Y-111743106D01*
X118551735Y-111738572D01*
X118569362Y-111730790D01*
X118620954Y-111724804D01*
X118625000Y-111724000D01*
X119175000Y-111724000D01*
X119179047Y-111724805D01*
G37*
G36*
X133579047Y-111724805D02*
G01*
X133630637Y-111730790D01*
X133648262Y-111738572D01*
X133671054Y-111743106D01*
X133695455Y-111759410D01*
X133716358Y-111768640D01*
X133730634Y-111782916D01*
X133752484Y-111797516D01*
X133767083Y-111819365D01*
X133781359Y-111833641D01*
X133790588Y-111854542D01*
X133806894Y-111878946D01*
X133811427Y-111901739D01*
X133819209Y-111919362D01*
X133825192Y-111970942D01*
X133826000Y-111975000D01*
X133826000Y-112375000D01*
X133825192Y-112379059D01*
X133819209Y-112430637D01*
X133811428Y-112448258D01*
X133806894Y-112471054D01*
X133790586Y-112495459D01*
X133781359Y-112516358D01*
X133767085Y-112530631D01*
X133752484Y-112552484D01*
X133730631Y-112567085D01*
X133716358Y-112581359D01*
X133695459Y-112590586D01*
X133671054Y-112606894D01*
X133648258Y-112611428D01*
X133630637Y-112619209D01*
X133579059Y-112625192D01*
X133575000Y-112626000D01*
X133025000Y-112626000D01*
X133020942Y-112625192D01*
X132969362Y-112619209D01*
X132951739Y-112611427D01*
X132928946Y-112606894D01*
X132904542Y-112590588D01*
X132883641Y-112581359D01*
X132869365Y-112567083D01*
X132847516Y-112552484D01*
X132832916Y-112530634D01*
X132818640Y-112516358D01*
X132809410Y-112495455D01*
X132793106Y-112471054D01*
X132788572Y-112448262D01*
X132780790Y-112430637D01*
X132774805Y-112379047D01*
X132774000Y-112375000D01*
X132774000Y-111975000D01*
X132774804Y-111970954D01*
X132780790Y-111919362D01*
X132788572Y-111901735D01*
X132793106Y-111878946D01*
X132809409Y-111854546D01*
X132818640Y-111833641D01*
X132832918Y-111819362D01*
X132847516Y-111797516D01*
X132869362Y-111782918D01*
X132883641Y-111768640D01*
X132904546Y-111759409D01*
X132928946Y-111743106D01*
X132951735Y-111738572D01*
X132969362Y-111730790D01*
X133020954Y-111724804D01*
X133025000Y-111724000D01*
X133575000Y-111724000D01*
X133579047Y-111724805D01*
G37*
G36*
X140779047Y-111724805D02*
G01*
X140830637Y-111730790D01*
X140848262Y-111738572D01*
X140871054Y-111743106D01*
X140895455Y-111759410D01*
X140916358Y-111768640D01*
X140930634Y-111782916D01*
X140952484Y-111797516D01*
X140967083Y-111819365D01*
X140981359Y-111833641D01*
X140990588Y-111854542D01*
X141006894Y-111878946D01*
X141011427Y-111901739D01*
X141019209Y-111919362D01*
X141025192Y-111970942D01*
X141026000Y-111975000D01*
X141026000Y-112375000D01*
X141025192Y-112379059D01*
X141019209Y-112430637D01*
X141011428Y-112448258D01*
X141006894Y-112471054D01*
X140990586Y-112495459D01*
X140981359Y-112516358D01*
X140967085Y-112530631D01*
X140952484Y-112552484D01*
X140930631Y-112567085D01*
X140916358Y-112581359D01*
X140895459Y-112590586D01*
X140871054Y-112606894D01*
X140848258Y-112611428D01*
X140830637Y-112619209D01*
X140779059Y-112625192D01*
X140775000Y-112626000D01*
X140225000Y-112626000D01*
X140220942Y-112625192D01*
X140169362Y-112619209D01*
X140151739Y-112611427D01*
X140128946Y-112606894D01*
X140104542Y-112590588D01*
X140083641Y-112581359D01*
X140069365Y-112567083D01*
X140047516Y-112552484D01*
X140032916Y-112530634D01*
X140018640Y-112516358D01*
X140009410Y-112495455D01*
X139993106Y-112471054D01*
X139988572Y-112448262D01*
X139980790Y-112430637D01*
X139974805Y-112379047D01*
X139974000Y-112375000D01*
X139974000Y-111975000D01*
X139974804Y-111970954D01*
X139980790Y-111919362D01*
X139988572Y-111901735D01*
X139993106Y-111878946D01*
X140009409Y-111854546D01*
X140018640Y-111833641D01*
X140032918Y-111819362D01*
X140047516Y-111797516D01*
X140069362Y-111782918D01*
X140083641Y-111768640D01*
X140104546Y-111759409D01*
X140128946Y-111743106D01*
X140151735Y-111738572D01*
X140169362Y-111730790D01*
X140220954Y-111724804D01*
X140225000Y-111724000D01*
X140775000Y-111724000D01*
X140779047Y-111724805D01*
G37*
G36*
X147679047Y-111724805D02*
G01*
X147730637Y-111730790D01*
X147748262Y-111738572D01*
X147771054Y-111743106D01*
X147795455Y-111759410D01*
X147816358Y-111768640D01*
X147830634Y-111782916D01*
X147852484Y-111797516D01*
X147867083Y-111819365D01*
X147881359Y-111833641D01*
X147890588Y-111854542D01*
X147906894Y-111878946D01*
X147911427Y-111901739D01*
X147919209Y-111919362D01*
X147925192Y-111970942D01*
X147926000Y-111975000D01*
X147926000Y-112375000D01*
X147925192Y-112379059D01*
X147919209Y-112430637D01*
X147911428Y-112448258D01*
X147906894Y-112471054D01*
X147890586Y-112495459D01*
X147881359Y-112516358D01*
X147867085Y-112530631D01*
X147852484Y-112552484D01*
X147830631Y-112567085D01*
X147816358Y-112581359D01*
X147795459Y-112590586D01*
X147771054Y-112606894D01*
X147748258Y-112611428D01*
X147730637Y-112619209D01*
X147679059Y-112625192D01*
X147675000Y-112626000D01*
X147125000Y-112626000D01*
X147120942Y-112625192D01*
X147069362Y-112619209D01*
X147051739Y-112611427D01*
X147028946Y-112606894D01*
X147004542Y-112590588D01*
X146983641Y-112581359D01*
X146969365Y-112567083D01*
X146947516Y-112552484D01*
X146932916Y-112530634D01*
X146918640Y-112516358D01*
X146909410Y-112495455D01*
X146893106Y-112471054D01*
X146888572Y-112448262D01*
X146880790Y-112430637D01*
X146874805Y-112379047D01*
X146874000Y-112375000D01*
X146874000Y-111975000D01*
X146874804Y-111970954D01*
X146880790Y-111919362D01*
X146888572Y-111901735D01*
X146893106Y-111878946D01*
X146909409Y-111854546D01*
X146918640Y-111833641D01*
X146932918Y-111819362D01*
X146947516Y-111797516D01*
X146969362Y-111782918D01*
X146983641Y-111768640D01*
X147004546Y-111759409D01*
X147028946Y-111743106D01*
X147051735Y-111738572D01*
X147069362Y-111730790D01*
X147120954Y-111724804D01*
X147125000Y-111724000D01*
X147675000Y-111724000D01*
X147679047Y-111724805D01*
G37*
G36*
X126479047Y-111624805D02*
G01*
X126530637Y-111630790D01*
X126548262Y-111638572D01*
X126571054Y-111643106D01*
X126595455Y-111659410D01*
X126616358Y-111668640D01*
X126630634Y-111682916D01*
X126652484Y-111697516D01*
X126667083Y-111719365D01*
X126681359Y-111733641D01*
X126690588Y-111754542D01*
X126706894Y-111778946D01*
X126711427Y-111801739D01*
X126719209Y-111819362D01*
X126725192Y-111870942D01*
X126726000Y-111875000D01*
X126726000Y-112275000D01*
X126725192Y-112279059D01*
X126719209Y-112330637D01*
X126711428Y-112348258D01*
X126706894Y-112371054D01*
X126690586Y-112395459D01*
X126681359Y-112416358D01*
X126667085Y-112430631D01*
X126652484Y-112452484D01*
X126630631Y-112467085D01*
X126616358Y-112481359D01*
X126595459Y-112490586D01*
X126571054Y-112506894D01*
X126548258Y-112511428D01*
X126530637Y-112519209D01*
X126479059Y-112525192D01*
X126475000Y-112526000D01*
X125925000Y-112526000D01*
X125920942Y-112525192D01*
X125869362Y-112519209D01*
X125851739Y-112511427D01*
X125828946Y-112506894D01*
X125804542Y-112490588D01*
X125783641Y-112481359D01*
X125769365Y-112467083D01*
X125747516Y-112452484D01*
X125732916Y-112430634D01*
X125718640Y-112416358D01*
X125709410Y-112395455D01*
X125693106Y-112371054D01*
X125688572Y-112348262D01*
X125680790Y-112330637D01*
X125674805Y-112279047D01*
X125674000Y-112275000D01*
X125674000Y-111875000D01*
X125674804Y-111870954D01*
X125680790Y-111819362D01*
X125688572Y-111801735D01*
X125693106Y-111778946D01*
X125709409Y-111754546D01*
X125718640Y-111733641D01*
X125732918Y-111719362D01*
X125747516Y-111697516D01*
X125769362Y-111682918D01*
X125783641Y-111668640D01*
X125804546Y-111659409D01*
X125828946Y-111643106D01*
X125851735Y-111638572D01*
X125869362Y-111630790D01*
X125920954Y-111624804D01*
X125925000Y-111624000D01*
X126475000Y-111624000D01*
X126479047Y-111624805D01*
G37*
G36*
X154779047Y-111624805D02*
G01*
X154830637Y-111630790D01*
X154848262Y-111638572D01*
X154871054Y-111643106D01*
X154895455Y-111659410D01*
X154916358Y-111668640D01*
X154930634Y-111682916D01*
X154952484Y-111697516D01*
X154967083Y-111719365D01*
X154981359Y-111733641D01*
X154990588Y-111754542D01*
X155006894Y-111778946D01*
X155011427Y-111801739D01*
X155019209Y-111819362D01*
X155025192Y-111870942D01*
X155026000Y-111875000D01*
X155026000Y-112275000D01*
X155025192Y-112279059D01*
X155019209Y-112330637D01*
X155011428Y-112348258D01*
X155006894Y-112371054D01*
X154990586Y-112395459D01*
X154981359Y-112416358D01*
X154967085Y-112430631D01*
X154952484Y-112452484D01*
X154930631Y-112467085D01*
X154916358Y-112481359D01*
X154895459Y-112490586D01*
X154871054Y-112506894D01*
X154848258Y-112511428D01*
X154830637Y-112519209D01*
X154779059Y-112525192D01*
X154775000Y-112526000D01*
X154225000Y-112526000D01*
X154220942Y-112525192D01*
X154169362Y-112519209D01*
X154151739Y-112511427D01*
X154128946Y-112506894D01*
X154104542Y-112490588D01*
X154083641Y-112481359D01*
X154069365Y-112467083D01*
X154047516Y-112452484D01*
X154032916Y-112430634D01*
X154018640Y-112416358D01*
X154009410Y-112395455D01*
X153993106Y-112371054D01*
X153988572Y-112348262D01*
X153980790Y-112330637D01*
X153974805Y-112279047D01*
X153974000Y-112275000D01*
X153974000Y-111875000D01*
X153974804Y-111870954D01*
X153980790Y-111819362D01*
X153988572Y-111801735D01*
X153993106Y-111778946D01*
X154009409Y-111754546D01*
X154018640Y-111733641D01*
X154032918Y-111719362D01*
X154047516Y-111697516D01*
X154069362Y-111682918D01*
X154083641Y-111668640D01*
X154104546Y-111659409D01*
X154128946Y-111643106D01*
X154151735Y-111638572D01*
X154169362Y-111630790D01*
X154220954Y-111624804D01*
X154225000Y-111624000D01*
X154775000Y-111624000D01*
X154779047Y-111624805D01*
G37*
G36*
X112079047Y-111524805D02*
G01*
X112130637Y-111530790D01*
X112148262Y-111538572D01*
X112171054Y-111543106D01*
X112195455Y-111559410D01*
X112216358Y-111568640D01*
X112230634Y-111582916D01*
X112252484Y-111597516D01*
X112267083Y-111619365D01*
X112281359Y-111633641D01*
X112290588Y-111654542D01*
X112306894Y-111678946D01*
X112311427Y-111701739D01*
X112319209Y-111719362D01*
X112325192Y-111770942D01*
X112326000Y-111775000D01*
X112326000Y-112175000D01*
X112325192Y-112179059D01*
X112319209Y-112230637D01*
X112311428Y-112248258D01*
X112306894Y-112271054D01*
X112290586Y-112295459D01*
X112281359Y-112316358D01*
X112267085Y-112330631D01*
X112252484Y-112352484D01*
X112230631Y-112367085D01*
X112216358Y-112381359D01*
X112195459Y-112390586D01*
X112171054Y-112406894D01*
X112148258Y-112411428D01*
X112130637Y-112419209D01*
X112079059Y-112425192D01*
X112075000Y-112426000D01*
X111525000Y-112426000D01*
X111520942Y-112425192D01*
X111469362Y-112419209D01*
X111451739Y-112411427D01*
X111428946Y-112406894D01*
X111404542Y-112390588D01*
X111383641Y-112381359D01*
X111369365Y-112367083D01*
X111347516Y-112352484D01*
X111332916Y-112330634D01*
X111318640Y-112316358D01*
X111309410Y-112295455D01*
X111293106Y-112271054D01*
X111288572Y-112248262D01*
X111280790Y-112230637D01*
X111274805Y-112179047D01*
X111274000Y-112175000D01*
X111274000Y-111775000D01*
X111274804Y-111770954D01*
X111280790Y-111719362D01*
X111288572Y-111701735D01*
X111293106Y-111678946D01*
X111309409Y-111654546D01*
X111318640Y-111633641D01*
X111332918Y-111619362D01*
X111347516Y-111597516D01*
X111369362Y-111582918D01*
X111383641Y-111568640D01*
X111404546Y-111559409D01*
X111428946Y-111543106D01*
X111451735Y-111538572D01*
X111469362Y-111530790D01*
X111520954Y-111524804D01*
X111525000Y-111524000D01*
X112075000Y-111524000D01*
X112079047Y-111524805D01*
G37*
G36*
X103912553Y-104998668D02*
G01*
X104081000Y-105073666D01*
X104230173Y-105182046D01*
X104353553Y-105319073D01*
X104445747Y-105478758D01*
X104502726Y-105654122D01*
X104522000Y-105837500D01*
X104502726Y-106020878D01*
X104445747Y-106196242D01*
X104353553Y-106355927D01*
X104230173Y-106492954D01*
X104081000Y-106601334D01*
X103912553Y-106676332D01*
X103732194Y-106714668D01*
X103547806Y-106714668D01*
X103367447Y-106676332D01*
X103199000Y-106601334D01*
X103049827Y-106492954D01*
X102926447Y-106355927D01*
X102834253Y-106196242D01*
X102777274Y-106020878D01*
X102758000Y-105837500D01*
X102777274Y-105654122D01*
X102834253Y-105478758D01*
X102926447Y-105319073D01*
X103049827Y-105182046D01*
X103199000Y-105073666D01*
X103367447Y-104998668D01*
X103547806Y-104960332D01*
X103732194Y-104960332D01*
X103912553Y-104998668D01*
G37*
G36*
X106452553Y-104998668D02*
G01*
X106621000Y-105073666D01*
X106770173Y-105182046D01*
X106893553Y-105319073D01*
X106985747Y-105478758D01*
X107042726Y-105654122D01*
X107062000Y-105837500D01*
X107042726Y-106020878D01*
X106985747Y-106196242D01*
X106893553Y-106355927D01*
X106770173Y-106492954D01*
X106621000Y-106601334D01*
X106452553Y-106676332D01*
X106272194Y-106714668D01*
X106087806Y-106714668D01*
X105907447Y-106676332D01*
X105739000Y-106601334D01*
X105589827Y-106492954D01*
X105466447Y-106355927D01*
X105374253Y-106196242D01*
X105317274Y-106020878D01*
X105298000Y-105837500D01*
X105317274Y-105654122D01*
X105374253Y-105478758D01*
X105466447Y-105319073D01*
X105589827Y-105182046D01*
X105739000Y-105073666D01*
X105907447Y-104998668D01*
X106087806Y-104960332D01*
X106272194Y-104960332D01*
X106452553Y-104998668D01*
G37*
G36*
X108992553Y-104998668D02*
G01*
X109161000Y-105073666D01*
X109310173Y-105182046D01*
X109433553Y-105319073D01*
X109525747Y-105478758D01*
X109582726Y-105654122D01*
X109602000Y-105837500D01*
X109582726Y-106020878D01*
X109525747Y-106196242D01*
X109433553Y-106355927D01*
X109310173Y-106492954D01*
X109161000Y-106601334D01*
X108992553Y-106676332D01*
X108812194Y-106714668D01*
X108627806Y-106714668D01*
X108447447Y-106676332D01*
X108279000Y-106601334D01*
X108129827Y-106492954D01*
X108006447Y-106355927D01*
X107914253Y-106196242D01*
X107857274Y-106020878D01*
X107838000Y-105837500D01*
X107857274Y-105654122D01*
X107914253Y-105478758D01*
X108006447Y-105319073D01*
X108129827Y-105182046D01*
X108279000Y-105073666D01*
X108447447Y-104998668D01*
X108627806Y-104960332D01*
X108812194Y-104960332D01*
X108992553Y-104998668D01*
G37*
G36*
X111532553Y-104998668D02*
G01*
X111701000Y-105073666D01*
X111850173Y-105182046D01*
X111973553Y-105319073D01*
X112065747Y-105478758D01*
X112122726Y-105654122D01*
X112142000Y-105837500D01*
X112122726Y-106020878D01*
X112065747Y-106196242D01*
X111973553Y-106355927D01*
X111850173Y-106492954D01*
X111701000Y-106601334D01*
X111532553Y-106676332D01*
X111352194Y-106714668D01*
X111167806Y-106714668D01*
X110987447Y-106676332D01*
X110819000Y-106601334D01*
X110669827Y-106492954D01*
X110546447Y-106355927D01*
X110454253Y-106196242D01*
X110397274Y-106020878D01*
X110378000Y-105837500D01*
X110397274Y-105654122D01*
X110454253Y-105478758D01*
X110546447Y-105319073D01*
X110669827Y-105182046D01*
X110819000Y-105073666D01*
X110987447Y-104998668D01*
X111167806Y-104960332D01*
X111352194Y-104960332D01*
X111532553Y-104998668D01*
G37*
G36*
X114072553Y-104998668D02*
G01*
X114241000Y-105073666D01*
X114390173Y-105182046D01*
X114513553Y-105319073D01*
X114605747Y-105478758D01*
X114662726Y-105654122D01*
X114682000Y-105837500D01*
X114662726Y-106020878D01*
X114605747Y-106196242D01*
X114513553Y-106355927D01*
X114390173Y-106492954D01*
X114241000Y-106601334D01*
X114072553Y-106676332D01*
X113892194Y-106714668D01*
X113707806Y-106714668D01*
X113527447Y-106676332D01*
X113359000Y-106601334D01*
X113209827Y-106492954D01*
X113086447Y-106355927D01*
X112994253Y-106196242D01*
X112937274Y-106020878D01*
X112918000Y-105837500D01*
X112937274Y-105654122D01*
X112994253Y-105478758D01*
X113086447Y-105319073D01*
X113209827Y-105182046D01*
X113359000Y-105073666D01*
X113527447Y-104998668D01*
X113707806Y-104960332D01*
X113892194Y-104960332D01*
X114072553Y-104998668D01*
G37*
G36*
X116612553Y-104998668D02*
G01*
X116781000Y-105073666D01*
X116930173Y-105182046D01*
X117053553Y-105319073D01*
X117145747Y-105478758D01*
X117202726Y-105654122D01*
X117222000Y-105837500D01*
X117202726Y-106020878D01*
X117145747Y-106196242D01*
X117053553Y-106355927D01*
X116930173Y-106492954D01*
X116781000Y-106601334D01*
X116612553Y-106676332D01*
X116432194Y-106714668D01*
X116247806Y-106714668D01*
X116067447Y-106676332D01*
X115899000Y-106601334D01*
X115749827Y-106492954D01*
X115626447Y-106355927D01*
X115534253Y-106196242D01*
X115477274Y-106020878D01*
X115458000Y-105837500D01*
X115477274Y-105654122D01*
X115534253Y-105478758D01*
X115626447Y-105319073D01*
X115749827Y-105182046D01*
X115899000Y-105073666D01*
X116067447Y-104998668D01*
X116247806Y-104960332D01*
X116432194Y-104960332D01*
X116612553Y-104998668D01*
G37*
G36*
X119152553Y-104998668D02*
G01*
X119321000Y-105073666D01*
X119470173Y-105182046D01*
X119593553Y-105319073D01*
X119685747Y-105478758D01*
X119742726Y-105654122D01*
X119762000Y-105837500D01*
X119742726Y-106020878D01*
X119685747Y-106196242D01*
X119593553Y-106355927D01*
X119470173Y-106492954D01*
X119321000Y-106601334D01*
X119152553Y-106676332D01*
X118972194Y-106714668D01*
X118787806Y-106714668D01*
X118607447Y-106676332D01*
X118439000Y-106601334D01*
X118289827Y-106492954D01*
X118166447Y-106355927D01*
X118074253Y-106196242D01*
X118017274Y-106020878D01*
X117998000Y-105837500D01*
X118017274Y-105654122D01*
X118074253Y-105478758D01*
X118166447Y-105319073D01*
X118289827Y-105182046D01*
X118439000Y-105073666D01*
X118607447Y-104998668D01*
X118787806Y-104960332D01*
X118972194Y-104960332D01*
X119152553Y-104998668D01*
G37*
G36*
X121692553Y-104998668D02*
G01*
X121861000Y-105073666D01*
X122010173Y-105182046D01*
X122133553Y-105319073D01*
X122225747Y-105478758D01*
X122282726Y-105654122D01*
X122302000Y-105837500D01*
X122282726Y-106020878D01*
X122225747Y-106196242D01*
X122133553Y-106355927D01*
X122010173Y-106492954D01*
X121861000Y-106601334D01*
X121692553Y-106676332D01*
X121512194Y-106714668D01*
X121327806Y-106714668D01*
X121147447Y-106676332D01*
X120979000Y-106601334D01*
X120829827Y-106492954D01*
X120706447Y-106355927D01*
X120614253Y-106196242D01*
X120557274Y-106020878D01*
X120538000Y-105837500D01*
X120557274Y-105654122D01*
X120614253Y-105478758D01*
X120706447Y-105319073D01*
X120829827Y-105182046D01*
X120979000Y-105073666D01*
X121147447Y-104998668D01*
X121327806Y-104960332D01*
X121512194Y-104960332D01*
X121692553Y-104998668D01*
G37*
G36*
X124232553Y-104998668D02*
G01*
X124401000Y-105073666D01*
X124550173Y-105182046D01*
X124673553Y-105319073D01*
X124765747Y-105478758D01*
X124822726Y-105654122D01*
X124842000Y-105837500D01*
X124822726Y-106020878D01*
X124765747Y-106196242D01*
X124673553Y-106355927D01*
X124550173Y-106492954D01*
X124401000Y-106601334D01*
X124232553Y-106676332D01*
X124052194Y-106714668D01*
X123867806Y-106714668D01*
X123687447Y-106676332D01*
X123519000Y-106601334D01*
X123369827Y-106492954D01*
X123246447Y-106355927D01*
X123154253Y-106196242D01*
X123097274Y-106020878D01*
X123078000Y-105837500D01*
X123097274Y-105654122D01*
X123154253Y-105478758D01*
X123246447Y-105319073D01*
X123369827Y-105182046D01*
X123519000Y-105073666D01*
X123687447Y-104998668D01*
X123867806Y-104960332D01*
X124052194Y-104960332D01*
X124232553Y-104998668D01*
G37*
G36*
X126772553Y-104998668D02*
G01*
X126941000Y-105073666D01*
X127090173Y-105182046D01*
X127213553Y-105319073D01*
X127305747Y-105478758D01*
X127362726Y-105654122D01*
X127382000Y-105837500D01*
X127362726Y-106020878D01*
X127305747Y-106196242D01*
X127213553Y-106355927D01*
X127090173Y-106492954D01*
X126941000Y-106601334D01*
X126772553Y-106676332D01*
X126592194Y-106714668D01*
X126407806Y-106714668D01*
X126227447Y-106676332D01*
X126059000Y-106601334D01*
X125909827Y-106492954D01*
X125786447Y-106355927D01*
X125694253Y-106196242D01*
X125637274Y-106020878D01*
X125618000Y-105837500D01*
X125637274Y-105654122D01*
X125694253Y-105478758D01*
X125786447Y-105319073D01*
X125909827Y-105182046D01*
X126059000Y-105073666D01*
X126227447Y-104998668D01*
X126407806Y-104960332D01*
X126592194Y-104960332D01*
X126772553Y-104998668D01*
G37*
G36*
X129312553Y-104998668D02*
G01*
X129481000Y-105073666D01*
X129630173Y-105182046D01*
X129753553Y-105319073D01*
X129845747Y-105478758D01*
X129902726Y-105654122D01*
X129922000Y-105837500D01*
X129902726Y-106020878D01*
X129845747Y-106196242D01*
X129753553Y-106355927D01*
X129630173Y-106492954D01*
X129481000Y-106601334D01*
X129312553Y-106676332D01*
X129132194Y-106714668D01*
X128947806Y-106714668D01*
X128767447Y-106676332D01*
X128599000Y-106601334D01*
X128449827Y-106492954D01*
X128326447Y-106355927D01*
X128234253Y-106196242D01*
X128177274Y-106020878D01*
X128158000Y-105837500D01*
X128177274Y-105654122D01*
X128234253Y-105478758D01*
X128326447Y-105319073D01*
X128449827Y-105182046D01*
X128599000Y-105073666D01*
X128767447Y-104998668D01*
X128947806Y-104960332D01*
X129132194Y-104960332D01*
X129312553Y-104998668D01*
G37*
G36*
X131852553Y-104998668D02*
G01*
X132021000Y-105073666D01*
X132170173Y-105182046D01*
X132293553Y-105319073D01*
X132385747Y-105478758D01*
X132442726Y-105654122D01*
X132462000Y-105837500D01*
X132442726Y-106020878D01*
X132385747Y-106196242D01*
X132293553Y-106355927D01*
X132170173Y-106492954D01*
X132021000Y-106601334D01*
X131852553Y-106676332D01*
X131672194Y-106714668D01*
X131487806Y-106714668D01*
X131307447Y-106676332D01*
X131139000Y-106601334D01*
X130989827Y-106492954D01*
X130866447Y-106355927D01*
X130774253Y-106196242D01*
X130717274Y-106020878D01*
X130698000Y-105837500D01*
X130717274Y-105654122D01*
X130774253Y-105478758D01*
X130866447Y-105319073D01*
X130989827Y-105182046D01*
X131139000Y-105073666D01*
X131307447Y-104998668D01*
X131487806Y-104960332D01*
X131672194Y-104960332D01*
X131852553Y-104998668D01*
G37*
G36*
X134392553Y-104998668D02*
G01*
X134561000Y-105073666D01*
X134710173Y-105182046D01*
X134833553Y-105319073D01*
X134925747Y-105478758D01*
X134982726Y-105654122D01*
X135002000Y-105837500D01*
X134982726Y-106020878D01*
X134925747Y-106196242D01*
X134833553Y-106355927D01*
X134710173Y-106492954D01*
X134561000Y-106601334D01*
X134392553Y-106676332D01*
X134212194Y-106714668D01*
X134027806Y-106714668D01*
X133847447Y-106676332D01*
X133679000Y-106601334D01*
X133529827Y-106492954D01*
X133406447Y-106355927D01*
X133314253Y-106196242D01*
X133257274Y-106020878D01*
X133238000Y-105837500D01*
X133257274Y-105654122D01*
X133314253Y-105478758D01*
X133406447Y-105319073D01*
X133529827Y-105182046D01*
X133679000Y-105073666D01*
X133847447Y-104998668D01*
X134027806Y-104960332D01*
X134212194Y-104960332D01*
X134392553Y-104998668D01*
G37*
G36*
X136932553Y-104998668D02*
G01*
X137101000Y-105073666D01*
X137250173Y-105182046D01*
X137373553Y-105319073D01*
X137465747Y-105478758D01*
X137522726Y-105654122D01*
X137542000Y-105837500D01*
X137522726Y-106020878D01*
X137465747Y-106196242D01*
X137373553Y-106355927D01*
X137250173Y-106492954D01*
X137101000Y-106601334D01*
X136932553Y-106676332D01*
X136752194Y-106714668D01*
X136567806Y-106714668D01*
X136387447Y-106676332D01*
X136219000Y-106601334D01*
X136069827Y-106492954D01*
X135946447Y-106355927D01*
X135854253Y-106196242D01*
X135797274Y-106020878D01*
X135778000Y-105837500D01*
X135797274Y-105654122D01*
X135854253Y-105478758D01*
X135946447Y-105319073D01*
X136069827Y-105182046D01*
X136219000Y-105073666D01*
X136387447Y-104998668D01*
X136567806Y-104960332D01*
X136752194Y-104960332D01*
X136932553Y-104998668D01*
G37*
G36*
X139472553Y-104998668D02*
G01*
X139641000Y-105073666D01*
X139790173Y-105182046D01*
X139913553Y-105319073D01*
X140005747Y-105478758D01*
X140062726Y-105654122D01*
X140082000Y-105837500D01*
X140062726Y-106020878D01*
X140005747Y-106196242D01*
X139913553Y-106355927D01*
X139790173Y-106492954D01*
X139641000Y-106601334D01*
X139472553Y-106676332D01*
X139292194Y-106714668D01*
X139107806Y-106714668D01*
X138927447Y-106676332D01*
X138759000Y-106601334D01*
X138609827Y-106492954D01*
X138486447Y-106355927D01*
X138394253Y-106196242D01*
X138337274Y-106020878D01*
X138318000Y-105837500D01*
X138337274Y-105654122D01*
X138394253Y-105478758D01*
X138486447Y-105319073D01*
X138609827Y-105182046D01*
X138759000Y-105073666D01*
X138927447Y-104998668D01*
X139107806Y-104960332D01*
X139292194Y-104960332D01*
X139472553Y-104998668D01*
G37*
G36*
X142012553Y-104998668D02*
G01*
X142181000Y-105073666D01*
X142330173Y-105182046D01*
X142453553Y-105319073D01*
X142545747Y-105478758D01*
X142602726Y-105654122D01*
X142622000Y-105837500D01*
X142602726Y-106020878D01*
X142545747Y-106196242D01*
X142453553Y-106355927D01*
X142330173Y-106492954D01*
X142181000Y-106601334D01*
X142012553Y-106676332D01*
X141832194Y-106714668D01*
X141647806Y-106714668D01*
X141467447Y-106676332D01*
X141299000Y-106601334D01*
X141149827Y-106492954D01*
X141026447Y-106355927D01*
X140934253Y-106196242D01*
X140877274Y-106020878D01*
X140858000Y-105837500D01*
X140877274Y-105654122D01*
X140934253Y-105478758D01*
X141026447Y-105319073D01*
X141149827Y-105182046D01*
X141299000Y-105073666D01*
X141467447Y-104998668D01*
X141647806Y-104960332D01*
X141832194Y-104960332D01*
X142012553Y-104998668D01*
G37*
G36*
X144552553Y-104998668D02*
G01*
X144721000Y-105073666D01*
X144870173Y-105182046D01*
X144993553Y-105319073D01*
X145085747Y-105478758D01*
X145142726Y-105654122D01*
X145162000Y-105837500D01*
X145142726Y-106020878D01*
X145085747Y-106196242D01*
X144993553Y-106355927D01*
X144870173Y-106492954D01*
X144721000Y-106601334D01*
X144552553Y-106676332D01*
X144372194Y-106714668D01*
X144187806Y-106714668D01*
X144007447Y-106676332D01*
X143839000Y-106601334D01*
X143689827Y-106492954D01*
X143566447Y-106355927D01*
X143474253Y-106196242D01*
X143417274Y-106020878D01*
X143398000Y-105837500D01*
X143417274Y-105654122D01*
X143474253Y-105478758D01*
X143566447Y-105319073D01*
X143689827Y-105182046D01*
X143839000Y-105073666D01*
X144007447Y-104998668D01*
X144187806Y-104960332D01*
X144372194Y-104960332D01*
X144552553Y-104998668D01*
G37*
G36*
X147092553Y-104998668D02*
G01*
X147261000Y-105073666D01*
X147410173Y-105182046D01*
X147533553Y-105319073D01*
X147625747Y-105478758D01*
X147682726Y-105654122D01*
X147702000Y-105837500D01*
X147682726Y-106020878D01*
X147625747Y-106196242D01*
X147533553Y-106355927D01*
X147410173Y-106492954D01*
X147261000Y-106601334D01*
X147092553Y-106676332D01*
X146912194Y-106714668D01*
X146727806Y-106714668D01*
X146547447Y-106676332D01*
X146379000Y-106601334D01*
X146229827Y-106492954D01*
X146106447Y-106355927D01*
X146014253Y-106196242D01*
X145957274Y-106020878D01*
X145938000Y-105837500D01*
X145957274Y-105654122D01*
X146014253Y-105478758D01*
X146106447Y-105319073D01*
X146229827Y-105182046D01*
X146379000Y-105073666D01*
X146547447Y-104998668D01*
X146727806Y-104960332D01*
X146912194Y-104960332D01*
X147092553Y-104998668D01*
G37*
G36*
X149632553Y-104998668D02*
G01*
X149801000Y-105073666D01*
X149950173Y-105182046D01*
X150073553Y-105319073D01*
X150165747Y-105478758D01*
X150222726Y-105654122D01*
X150242000Y-105837500D01*
X150222726Y-106020878D01*
X150165747Y-106196242D01*
X150073553Y-106355927D01*
X149950173Y-106492954D01*
X149801000Y-106601334D01*
X149632553Y-106676332D01*
X149452194Y-106714668D01*
X149267806Y-106714668D01*
X149087447Y-106676332D01*
X148919000Y-106601334D01*
X148769827Y-106492954D01*
X148646447Y-106355927D01*
X148554253Y-106196242D01*
X148497274Y-106020878D01*
X148478000Y-105837500D01*
X148497274Y-105654122D01*
X148554253Y-105478758D01*
X148646447Y-105319073D01*
X148769827Y-105182046D01*
X148919000Y-105073666D01*
X149087447Y-104998668D01*
X149267806Y-104960332D01*
X149452194Y-104960332D01*
X149632553Y-104998668D01*
G37*
G36*
X164678807Y-92305932D02*
G01*
X164681404Y-92306776D01*
X164681645Y-92307107D01*
X164689598Y-92310402D01*
X164696972Y-92328205D01*
X164703305Y-92336922D01*
X164704991Y-92347564D01*
X164706000Y-92350000D01*
X164706000Y-92900000D01*
X164700911Y-92912285D01*
X164700911Y-92971157D01*
X164698643Y-92986934D01*
X164658548Y-93123485D01*
X164651926Y-93137984D01*
X164574985Y-93257706D01*
X164564547Y-93269752D01*
X164456992Y-93362949D01*
X164443583Y-93371566D01*
X164314129Y-93430685D01*
X164298836Y-93435176D01*
X164157970Y-93455430D01*
X164150000Y-93456000D01*
X164148209Y-93456000D01*
X163651791Y-93456000D01*
X163650000Y-93456000D01*
X163642030Y-93455430D01*
X163501164Y-93435176D01*
X163485871Y-93430685D01*
X163356417Y-93371566D01*
X163343008Y-93362949D01*
X163340307Y-93360608D01*
X163340303Y-93360606D01*
X163238155Y-93272094D01*
X163238152Y-93272091D01*
X163235453Y-93269752D01*
X163225015Y-93257706D01*
X163148074Y-93137984D01*
X163141452Y-93123485D01*
X163101357Y-92986934D01*
X163099089Y-92971157D01*
X163099089Y-92930164D01*
X163098781Y-92926247D01*
X163095009Y-92902435D01*
X163094000Y-92900000D01*
X163094000Y-92350000D01*
X163105930Y-92321196D01*
X163106776Y-92318595D01*
X163107108Y-92318353D01*
X163110402Y-92310402D01*
X163128202Y-92303028D01*
X163136922Y-92296694D01*
X163147565Y-92295008D01*
X163150000Y-92294000D01*
X164650000Y-92294000D01*
X164678807Y-92305932D01*
G37*
G36*
X168678807Y-92305932D02*
G01*
X168681404Y-92306776D01*
X168681645Y-92307107D01*
X168689598Y-92310402D01*
X168696972Y-92328205D01*
X168703305Y-92336922D01*
X168704991Y-92347564D01*
X168706000Y-92350000D01*
X168706000Y-92900000D01*
X168700911Y-92912285D01*
X168700911Y-92971157D01*
X168698643Y-92986934D01*
X168658548Y-93123485D01*
X168651926Y-93137984D01*
X168574985Y-93257706D01*
X168564547Y-93269752D01*
X168456992Y-93362949D01*
X168443583Y-93371566D01*
X168314129Y-93430685D01*
X168298836Y-93435176D01*
X168157970Y-93455430D01*
X168150000Y-93456000D01*
X168148209Y-93456000D01*
X167651791Y-93456000D01*
X167650000Y-93456000D01*
X167642030Y-93455430D01*
X167501164Y-93435176D01*
X167485871Y-93430685D01*
X167356417Y-93371566D01*
X167343008Y-93362949D01*
X167340307Y-93360608D01*
X167340303Y-93360606D01*
X167238155Y-93272094D01*
X167238152Y-93272091D01*
X167235453Y-93269752D01*
X167225015Y-93257706D01*
X167148074Y-93137984D01*
X167141452Y-93123485D01*
X167101357Y-92986934D01*
X167099089Y-92971157D01*
X167099089Y-92930164D01*
X167098781Y-92926247D01*
X167095009Y-92902435D01*
X167094000Y-92900000D01*
X167094000Y-92350000D01*
X167105930Y-92321196D01*
X167106776Y-92318595D01*
X167107108Y-92318353D01*
X167110402Y-92310402D01*
X167128202Y-92303028D01*
X167136922Y-92296694D01*
X167147565Y-92295008D01*
X167150000Y-92294000D01*
X168650000Y-92294000D01*
X168678807Y-92305932D01*
G37*
G36*
X172678807Y-92305932D02*
G01*
X172681404Y-92306776D01*
X172681645Y-92307107D01*
X172689598Y-92310402D01*
X172696972Y-92328205D01*
X172703305Y-92336922D01*
X172704991Y-92347564D01*
X172706000Y-92350000D01*
X172706000Y-92900000D01*
X172700911Y-92912285D01*
X172700911Y-92971157D01*
X172698643Y-92986934D01*
X172658548Y-93123485D01*
X172651926Y-93137984D01*
X172574985Y-93257706D01*
X172564547Y-93269752D01*
X172456992Y-93362949D01*
X172443583Y-93371566D01*
X172314129Y-93430685D01*
X172298836Y-93435176D01*
X172157970Y-93455430D01*
X172150000Y-93456000D01*
X172148209Y-93456000D01*
X171651791Y-93456000D01*
X171650000Y-93456000D01*
X171642030Y-93455430D01*
X171501164Y-93435176D01*
X171485871Y-93430685D01*
X171356417Y-93371566D01*
X171343008Y-93362949D01*
X171340307Y-93360608D01*
X171340303Y-93360606D01*
X171238155Y-93272094D01*
X171238152Y-93272091D01*
X171235453Y-93269752D01*
X171225015Y-93257706D01*
X171148074Y-93137984D01*
X171141452Y-93123485D01*
X171101357Y-92986934D01*
X171099089Y-92971157D01*
X171099089Y-92930164D01*
X171098781Y-92926247D01*
X171095009Y-92902435D01*
X171094000Y-92900000D01*
X171094000Y-92350000D01*
X171105930Y-92321196D01*
X171106776Y-92318595D01*
X171107108Y-92318353D01*
X171110402Y-92310402D01*
X171128202Y-92303028D01*
X171136922Y-92296694D01*
X171147565Y-92295008D01*
X171150000Y-92294000D01*
X172650000Y-92294000D01*
X172678807Y-92305932D01*
G37*
G36*
X164669517Y-91052882D02*
G01*
X164686062Y-91063938D01*
X164697118Y-91080483D01*
X164701000Y-91100000D01*
X164701000Y-92100000D01*
X164697118Y-92119517D01*
X164686062Y-92136062D01*
X164669517Y-92147118D01*
X164650000Y-92151000D01*
X163150000Y-92151000D01*
X163130483Y-92147118D01*
X163113938Y-92136062D01*
X163102882Y-92119517D01*
X163099000Y-92100000D01*
X163099000Y-91100000D01*
X163102882Y-91080483D01*
X163113938Y-91063938D01*
X163130483Y-91052882D01*
X163150000Y-91049000D01*
X164650000Y-91049000D01*
X164669517Y-91052882D01*
G37*
G36*
X168669517Y-91052882D02*
G01*
X168686062Y-91063938D01*
X168697118Y-91080483D01*
X168701000Y-91100000D01*
X168701000Y-92100000D01*
X168697118Y-92119517D01*
X168686062Y-92136062D01*
X168669517Y-92147118D01*
X168650000Y-92151000D01*
X167150000Y-92151000D01*
X167130483Y-92147118D01*
X167113938Y-92136062D01*
X167102882Y-92119517D01*
X167099000Y-92100000D01*
X167099000Y-91100000D01*
X167102882Y-91080483D01*
X167113938Y-91063938D01*
X167130483Y-91052882D01*
X167150000Y-91049000D01*
X168650000Y-91049000D01*
X168669517Y-91052882D01*
G37*
G36*
X172669517Y-91052882D02*
G01*
X172686062Y-91063938D01*
X172697118Y-91080483D01*
X172701000Y-91100000D01*
X172701000Y-92100000D01*
X172697118Y-92119517D01*
X172686062Y-92136062D01*
X172669517Y-92147118D01*
X172650000Y-92151000D01*
X171150000Y-92151000D01*
X171130483Y-92147118D01*
X171113938Y-92136062D01*
X171102882Y-92119517D01*
X171099000Y-92100000D01*
X171099000Y-91100000D01*
X171102882Y-91080483D01*
X171113938Y-91063938D01*
X171130483Y-91052882D01*
X171150000Y-91049000D01*
X172650000Y-91049000D01*
X172669517Y-91052882D01*
G37*
G36*
X164157970Y-89744570D02*
G01*
X164179495Y-89747665D01*
X164295292Y-89764314D01*
X164295294Y-89764314D01*
X164298836Y-89764824D01*
X164314129Y-89769315D01*
X164317382Y-89770800D01*
X164317383Y-89770801D01*
X164440330Y-89826948D01*
X164440332Y-89826949D01*
X164443583Y-89828434D01*
X164456992Y-89837051D01*
X164459691Y-89839390D01*
X164459696Y-89839393D01*
X164561844Y-89927905D01*
X164561846Y-89927908D01*
X164564547Y-89930248D01*
X164574985Y-89942294D01*
X164651926Y-90062016D01*
X164658548Y-90076515D01*
X164698643Y-90213066D01*
X164700911Y-90228843D01*
X164700911Y-90232419D01*
X164700911Y-90269835D01*
X164701219Y-90273751D01*
X164704991Y-90297564D01*
X164706000Y-90300000D01*
X164706000Y-90850000D01*
X164694063Y-90878817D01*
X164693223Y-90881404D01*
X164692892Y-90881643D01*
X164689598Y-90889598D01*
X164671792Y-90896973D01*
X164663077Y-90903305D01*
X164652436Y-90904990D01*
X164650000Y-90906000D01*
X164646067Y-90906000D01*
X163157919Y-90906000D01*
X163150000Y-90906000D01*
X163121185Y-90894064D01*
X163118595Y-90893223D01*
X163118354Y-90892892D01*
X163110402Y-90889598D01*
X163103027Y-90871795D01*
X163096694Y-90863077D01*
X163095008Y-90852434D01*
X163094000Y-90850000D01*
X163094000Y-90300000D01*
X163099089Y-90287714D01*
X163099089Y-90228843D01*
X163101357Y-90213066D01*
X163141452Y-90076515D01*
X163148074Y-90062016D01*
X163150002Y-90059014D01*
X163150005Y-90059010D01*
X163223083Y-89945299D01*
X163223086Y-89945295D01*
X163225015Y-89942294D01*
X163235453Y-89930248D01*
X163238149Y-89927911D01*
X163238155Y-89927905D01*
X163340303Y-89839393D01*
X163340311Y-89839387D01*
X163343008Y-89837051D01*
X163356417Y-89828434D01*
X163359664Y-89826951D01*
X163359669Y-89826948D01*
X163482616Y-89770801D01*
X163482619Y-89770800D01*
X163485871Y-89769315D01*
X163501164Y-89764824D01*
X163504703Y-89764315D01*
X163504707Y-89764314D01*
X163640256Y-89744825D01*
X163640256Y-89744824D01*
X163642030Y-89744570D01*
X163650000Y-89744000D01*
X164150000Y-89744000D01*
X164157970Y-89744570D01*
G37*
G36*
X168157970Y-89744570D02*
G01*
X168179495Y-89747665D01*
X168295292Y-89764314D01*
X168295294Y-89764314D01*
X168298836Y-89764824D01*
X168314129Y-89769315D01*
X168317382Y-89770800D01*
X168317383Y-89770801D01*
X168440330Y-89826948D01*
X168440332Y-89826949D01*
X168443583Y-89828434D01*
X168456992Y-89837051D01*
X168459691Y-89839390D01*
X168459696Y-89839393D01*
X168561844Y-89927905D01*
X168561846Y-89927908D01*
X168564547Y-89930248D01*
X168574985Y-89942294D01*
X168651926Y-90062016D01*
X168658548Y-90076515D01*
X168698643Y-90213066D01*
X168700911Y-90228843D01*
X168700911Y-90232419D01*
X168700911Y-90269835D01*
X168701219Y-90273751D01*
X168704991Y-90297564D01*
X168706000Y-90300000D01*
X168706000Y-90850000D01*
X168694063Y-90878817D01*
X168693223Y-90881404D01*
X168692892Y-90881643D01*
X168689598Y-90889598D01*
X168671792Y-90896973D01*
X168663077Y-90903305D01*
X168652436Y-90904990D01*
X168650000Y-90906000D01*
X168646067Y-90906000D01*
X167157919Y-90906000D01*
X167150000Y-90906000D01*
X167121185Y-90894064D01*
X167118595Y-90893223D01*
X167118354Y-90892892D01*
X167110402Y-90889598D01*
X167103027Y-90871795D01*
X167096694Y-90863077D01*
X167095008Y-90852434D01*
X167094000Y-90850000D01*
X167094000Y-90300000D01*
X167099089Y-90287714D01*
X167099089Y-90228843D01*
X167101357Y-90213066D01*
X167141452Y-90076515D01*
X167148074Y-90062016D01*
X167150002Y-90059014D01*
X167150005Y-90059010D01*
X167223083Y-89945299D01*
X167223086Y-89945295D01*
X167225015Y-89942294D01*
X167235453Y-89930248D01*
X167238149Y-89927911D01*
X167238155Y-89927905D01*
X167340303Y-89839393D01*
X167340311Y-89839387D01*
X167343008Y-89837051D01*
X167356417Y-89828434D01*
X167359664Y-89826951D01*
X167359669Y-89826948D01*
X167482616Y-89770801D01*
X167482619Y-89770800D01*
X167485871Y-89769315D01*
X167501164Y-89764824D01*
X167504703Y-89764315D01*
X167504707Y-89764314D01*
X167640256Y-89744825D01*
X167640256Y-89744824D01*
X167642030Y-89744570D01*
X167650000Y-89744000D01*
X168150000Y-89744000D01*
X168157970Y-89744570D01*
G37*
G36*
X172157970Y-89744570D02*
G01*
X172179495Y-89747665D01*
X172295292Y-89764314D01*
X172295294Y-89764314D01*
X172298836Y-89764824D01*
X172314129Y-89769315D01*
X172317382Y-89770800D01*
X172317383Y-89770801D01*
X172440330Y-89826948D01*
X172440332Y-89826949D01*
X172443583Y-89828434D01*
X172456992Y-89837051D01*
X172459691Y-89839390D01*
X172459696Y-89839393D01*
X172561844Y-89927905D01*
X172561846Y-89927908D01*
X172564547Y-89930248D01*
X172574985Y-89942294D01*
X172651926Y-90062016D01*
X172658548Y-90076515D01*
X172698643Y-90213066D01*
X172700911Y-90228843D01*
X172700911Y-90232419D01*
X172700911Y-90269835D01*
X172701219Y-90273751D01*
X172704991Y-90297564D01*
X172706000Y-90300000D01*
X172706000Y-90850000D01*
X172694063Y-90878817D01*
X172693223Y-90881404D01*
X172692892Y-90881643D01*
X172689598Y-90889598D01*
X172671792Y-90896973D01*
X172663077Y-90903305D01*
X172652436Y-90904990D01*
X172650000Y-90906000D01*
X172646067Y-90906000D01*
X171157919Y-90906000D01*
X171150000Y-90906000D01*
X171121185Y-90894064D01*
X171118595Y-90893223D01*
X171118354Y-90892892D01*
X171110402Y-90889598D01*
X171103027Y-90871795D01*
X171096694Y-90863077D01*
X171095008Y-90852434D01*
X171094000Y-90850000D01*
X171094000Y-90300000D01*
X171099089Y-90287714D01*
X171099089Y-90228843D01*
X171101357Y-90213066D01*
X171141452Y-90076515D01*
X171148074Y-90062016D01*
X171150002Y-90059014D01*
X171150005Y-90059010D01*
X171223083Y-89945299D01*
X171223086Y-89945295D01*
X171225015Y-89942294D01*
X171235453Y-89930248D01*
X171238149Y-89927911D01*
X171238155Y-89927905D01*
X171340303Y-89839393D01*
X171340311Y-89839387D01*
X171343008Y-89837051D01*
X171356417Y-89828434D01*
X171359664Y-89826951D01*
X171359669Y-89826948D01*
X171482616Y-89770801D01*
X171482619Y-89770800D01*
X171485871Y-89769315D01*
X171501164Y-89764824D01*
X171504703Y-89764315D01*
X171504707Y-89764314D01*
X171640256Y-89744825D01*
X171640256Y-89744824D01*
X171642030Y-89744570D01*
X171650000Y-89744000D01*
X172150000Y-89744000D01*
X172157970Y-89744570D01*
G37*
G36*
X150179034Y-79563264D02*
G01*
X150212125Y-79585375D01*
X150234236Y-79618466D01*
X150242000Y-79657500D01*
X150242000Y-81217500D01*
X150234236Y-81256534D01*
X150212125Y-81289625D01*
X150179034Y-81311736D01*
X150140000Y-81319500D01*
X148580000Y-81319500D01*
X148540966Y-81311736D01*
X148507875Y-81289625D01*
X148485764Y-81256534D01*
X148478000Y-81217500D01*
X148478000Y-79657500D01*
X148485764Y-79618466D01*
X148507875Y-79585375D01*
X148540966Y-79563264D01*
X148580000Y-79555500D01*
X150140000Y-79555500D01*
X150179034Y-79563264D01*
G37*
G36*
X103912553Y-79598668D02*
G01*
X104081000Y-79673666D01*
X104230173Y-79782046D01*
X104353553Y-79919073D01*
X104445747Y-80078758D01*
X104502726Y-80254122D01*
X104522000Y-80437500D01*
X104502726Y-80620878D01*
X104445747Y-80796242D01*
X104353553Y-80955927D01*
X104230173Y-81092954D01*
X104081000Y-81201334D01*
X103912553Y-81276332D01*
X103732194Y-81314668D01*
X103547806Y-81314668D01*
X103367447Y-81276332D01*
X103199000Y-81201334D01*
X103049827Y-81092954D01*
X102926447Y-80955927D01*
X102834253Y-80796242D01*
X102777274Y-80620878D01*
X102758000Y-80437500D01*
X102777274Y-80254122D01*
X102834253Y-80078758D01*
X102926447Y-79919073D01*
X103049827Y-79782046D01*
X103199000Y-79673666D01*
X103367447Y-79598668D01*
X103547806Y-79560332D01*
X103732194Y-79560332D01*
X103912553Y-79598668D01*
G37*
G36*
X106452553Y-79598668D02*
G01*
X106621000Y-79673666D01*
X106770173Y-79782046D01*
X106893553Y-79919073D01*
X106985747Y-80078758D01*
X107042726Y-80254122D01*
X107062000Y-80437500D01*
X107042726Y-80620878D01*
X106985747Y-80796242D01*
X106893553Y-80955927D01*
X106770173Y-81092954D01*
X106621000Y-81201334D01*
X106452553Y-81276332D01*
X106272194Y-81314668D01*
X106087806Y-81314668D01*
X105907447Y-81276332D01*
X105739000Y-81201334D01*
X105589827Y-81092954D01*
X105466447Y-80955927D01*
X105374253Y-80796242D01*
X105317274Y-80620878D01*
X105298000Y-80437500D01*
X105317274Y-80254122D01*
X105374253Y-80078758D01*
X105466447Y-79919073D01*
X105589827Y-79782046D01*
X105739000Y-79673666D01*
X105907447Y-79598668D01*
X106087806Y-79560332D01*
X106272194Y-79560332D01*
X106452553Y-79598668D01*
G37*
G36*
X108992553Y-79598668D02*
G01*
X109161000Y-79673666D01*
X109310173Y-79782046D01*
X109433553Y-79919073D01*
X109525747Y-80078758D01*
X109582726Y-80254122D01*
X109602000Y-80437500D01*
X109582726Y-80620878D01*
X109525747Y-80796242D01*
X109433553Y-80955927D01*
X109310173Y-81092954D01*
X109161000Y-81201334D01*
X108992553Y-81276332D01*
X108812194Y-81314668D01*
X108627806Y-81314668D01*
X108447447Y-81276332D01*
X108279000Y-81201334D01*
X108129827Y-81092954D01*
X108006447Y-80955927D01*
X107914253Y-80796242D01*
X107857274Y-80620878D01*
X107838000Y-80437500D01*
X107857274Y-80254122D01*
X107914253Y-80078758D01*
X108006447Y-79919073D01*
X108129827Y-79782046D01*
X108279000Y-79673666D01*
X108447447Y-79598668D01*
X108627806Y-79560332D01*
X108812194Y-79560332D01*
X108992553Y-79598668D01*
G37*
G36*
X111532553Y-79598668D02*
G01*
X111701000Y-79673666D01*
X111850173Y-79782046D01*
X111973553Y-79919073D01*
X112065747Y-80078758D01*
X112122726Y-80254122D01*
X112142000Y-80437500D01*
X112122726Y-80620878D01*
X112065747Y-80796242D01*
X111973553Y-80955927D01*
X111850173Y-81092954D01*
X111701000Y-81201334D01*
X111532553Y-81276332D01*
X111352194Y-81314668D01*
X111167806Y-81314668D01*
X110987447Y-81276332D01*
X110819000Y-81201334D01*
X110669827Y-81092954D01*
X110546447Y-80955927D01*
X110454253Y-80796242D01*
X110397274Y-80620878D01*
X110378000Y-80437500D01*
X110397274Y-80254122D01*
X110454253Y-80078758D01*
X110546447Y-79919073D01*
X110669827Y-79782046D01*
X110819000Y-79673666D01*
X110987447Y-79598668D01*
X111167806Y-79560332D01*
X111352194Y-79560332D01*
X111532553Y-79598668D01*
G37*
G36*
X114072553Y-79598668D02*
G01*
X114241000Y-79673666D01*
X114390173Y-79782046D01*
X114513553Y-79919073D01*
X114605747Y-80078758D01*
X114662726Y-80254122D01*
X114682000Y-80437500D01*
X114662726Y-80620878D01*
X114605747Y-80796242D01*
X114513553Y-80955927D01*
X114390173Y-81092954D01*
X114241000Y-81201334D01*
X114072553Y-81276332D01*
X113892194Y-81314668D01*
X113707806Y-81314668D01*
X113527447Y-81276332D01*
X113359000Y-81201334D01*
X113209827Y-81092954D01*
X113086447Y-80955927D01*
X112994253Y-80796242D01*
X112937274Y-80620878D01*
X112918000Y-80437500D01*
X112937274Y-80254122D01*
X112994253Y-80078758D01*
X113086447Y-79919073D01*
X113209827Y-79782046D01*
X113359000Y-79673666D01*
X113527447Y-79598668D01*
X113707806Y-79560332D01*
X113892194Y-79560332D01*
X114072553Y-79598668D01*
G37*
G36*
X116612553Y-79598668D02*
G01*
X116781000Y-79673666D01*
X116930173Y-79782046D01*
X117053553Y-79919073D01*
X117145747Y-80078758D01*
X117202726Y-80254122D01*
X117222000Y-80437500D01*
X117202726Y-80620878D01*
X117145747Y-80796242D01*
X117053553Y-80955927D01*
X116930173Y-81092954D01*
X116781000Y-81201334D01*
X116612553Y-81276332D01*
X116432194Y-81314668D01*
X116247806Y-81314668D01*
X116067447Y-81276332D01*
X115899000Y-81201334D01*
X115749827Y-81092954D01*
X115626447Y-80955927D01*
X115534253Y-80796242D01*
X115477274Y-80620878D01*
X115458000Y-80437500D01*
X115477274Y-80254122D01*
X115534253Y-80078758D01*
X115626447Y-79919073D01*
X115749827Y-79782046D01*
X115899000Y-79673666D01*
X116067447Y-79598668D01*
X116247806Y-79560332D01*
X116432194Y-79560332D01*
X116612553Y-79598668D01*
G37*
G36*
X119152553Y-79598668D02*
G01*
X119321000Y-79673666D01*
X119470173Y-79782046D01*
X119593553Y-79919073D01*
X119685747Y-80078758D01*
X119742726Y-80254122D01*
X119762000Y-80437500D01*
X119742726Y-80620878D01*
X119685747Y-80796242D01*
X119593553Y-80955927D01*
X119470173Y-81092954D01*
X119321000Y-81201334D01*
X119152553Y-81276332D01*
X118972194Y-81314668D01*
X118787806Y-81314668D01*
X118607447Y-81276332D01*
X118439000Y-81201334D01*
X118289827Y-81092954D01*
X118166447Y-80955927D01*
X118074253Y-80796242D01*
X118017274Y-80620878D01*
X117998000Y-80437500D01*
X118017274Y-80254122D01*
X118074253Y-80078758D01*
X118166447Y-79919073D01*
X118289827Y-79782046D01*
X118439000Y-79673666D01*
X118607447Y-79598668D01*
X118787806Y-79560332D01*
X118972194Y-79560332D01*
X119152553Y-79598668D01*
G37*
G36*
X121692553Y-79598668D02*
G01*
X121861000Y-79673666D01*
X122010173Y-79782046D01*
X122133553Y-79919073D01*
X122225747Y-80078758D01*
X122282726Y-80254122D01*
X122302000Y-80437500D01*
X122282726Y-80620878D01*
X122225747Y-80796242D01*
X122133553Y-80955927D01*
X122010173Y-81092954D01*
X121861000Y-81201334D01*
X121692553Y-81276332D01*
X121512194Y-81314668D01*
X121327806Y-81314668D01*
X121147447Y-81276332D01*
X120979000Y-81201334D01*
X120829827Y-81092954D01*
X120706447Y-80955927D01*
X120614253Y-80796242D01*
X120557274Y-80620878D01*
X120538000Y-80437500D01*
X120557274Y-80254122D01*
X120614253Y-80078758D01*
X120706447Y-79919073D01*
X120829827Y-79782046D01*
X120979000Y-79673666D01*
X121147447Y-79598668D01*
X121327806Y-79560332D01*
X121512194Y-79560332D01*
X121692553Y-79598668D01*
G37*
G36*
X124232553Y-79598668D02*
G01*
X124401000Y-79673666D01*
X124550173Y-79782046D01*
X124673553Y-79919073D01*
X124765747Y-80078758D01*
X124822726Y-80254122D01*
X124842000Y-80437500D01*
X124822726Y-80620878D01*
X124765747Y-80796242D01*
X124673553Y-80955927D01*
X124550173Y-81092954D01*
X124401000Y-81201334D01*
X124232553Y-81276332D01*
X124052194Y-81314668D01*
X123867806Y-81314668D01*
X123687447Y-81276332D01*
X123519000Y-81201334D01*
X123369827Y-81092954D01*
X123246447Y-80955927D01*
X123154253Y-80796242D01*
X123097274Y-80620878D01*
X123078000Y-80437500D01*
X123097274Y-80254122D01*
X123154253Y-80078758D01*
X123246447Y-79919073D01*
X123369827Y-79782046D01*
X123519000Y-79673666D01*
X123687447Y-79598668D01*
X123867806Y-79560332D01*
X124052194Y-79560332D01*
X124232553Y-79598668D01*
G37*
G36*
X126772553Y-79598668D02*
G01*
X126941000Y-79673666D01*
X127090173Y-79782046D01*
X127213553Y-79919073D01*
X127305747Y-80078758D01*
X127362726Y-80254122D01*
X127382000Y-80437500D01*
X127362726Y-80620878D01*
X127305747Y-80796242D01*
X127213553Y-80955927D01*
X127090173Y-81092954D01*
X126941000Y-81201334D01*
X126772553Y-81276332D01*
X126592194Y-81314668D01*
X126407806Y-81314668D01*
X126227447Y-81276332D01*
X126059000Y-81201334D01*
X125909827Y-81092954D01*
X125786447Y-80955927D01*
X125694253Y-80796242D01*
X125637274Y-80620878D01*
X125618000Y-80437500D01*
X125637274Y-80254122D01*
X125694253Y-80078758D01*
X125786447Y-79919073D01*
X125909827Y-79782046D01*
X126059000Y-79673666D01*
X126227447Y-79598668D01*
X126407806Y-79560332D01*
X126592194Y-79560332D01*
X126772553Y-79598668D01*
G37*
G36*
X129312553Y-79598668D02*
G01*
X129481000Y-79673666D01*
X129630173Y-79782046D01*
X129753553Y-79919073D01*
X129845747Y-80078758D01*
X129902726Y-80254122D01*
X129922000Y-80437500D01*
X129902726Y-80620878D01*
X129845747Y-80796242D01*
X129753553Y-80955927D01*
X129630173Y-81092954D01*
X129481000Y-81201334D01*
X129312553Y-81276332D01*
X129132194Y-81314668D01*
X128947806Y-81314668D01*
X128767447Y-81276332D01*
X128599000Y-81201334D01*
X128449827Y-81092954D01*
X128326447Y-80955927D01*
X128234253Y-80796242D01*
X128177274Y-80620878D01*
X128158000Y-80437500D01*
X128177274Y-80254122D01*
X128234253Y-80078758D01*
X128326447Y-79919073D01*
X128449827Y-79782046D01*
X128599000Y-79673666D01*
X128767447Y-79598668D01*
X128947806Y-79560332D01*
X129132194Y-79560332D01*
X129312553Y-79598668D01*
G37*
G36*
X131852553Y-79598668D02*
G01*
X132021000Y-79673666D01*
X132170173Y-79782046D01*
X132293553Y-79919073D01*
X132385747Y-80078758D01*
X132442726Y-80254122D01*
X132462000Y-80437500D01*
X132442726Y-80620878D01*
X132385747Y-80796242D01*
X132293553Y-80955927D01*
X132170173Y-81092954D01*
X132021000Y-81201334D01*
X131852553Y-81276332D01*
X131672194Y-81314668D01*
X131487806Y-81314668D01*
X131307447Y-81276332D01*
X131139000Y-81201334D01*
X130989827Y-81092954D01*
X130866447Y-80955927D01*
X130774253Y-80796242D01*
X130717274Y-80620878D01*
X130698000Y-80437500D01*
X130717274Y-80254122D01*
X130774253Y-80078758D01*
X130866447Y-79919073D01*
X130989827Y-79782046D01*
X131139000Y-79673666D01*
X131307447Y-79598668D01*
X131487806Y-79560332D01*
X131672194Y-79560332D01*
X131852553Y-79598668D01*
G37*
G36*
X134392553Y-79598668D02*
G01*
X134561000Y-79673666D01*
X134710173Y-79782046D01*
X134833553Y-79919073D01*
X134925747Y-80078758D01*
X134982726Y-80254122D01*
X135002000Y-80437500D01*
X134982726Y-80620878D01*
X134925747Y-80796242D01*
X134833553Y-80955927D01*
X134710173Y-81092954D01*
X134561000Y-81201334D01*
X134392553Y-81276332D01*
X134212194Y-81314668D01*
X134027806Y-81314668D01*
X133847447Y-81276332D01*
X133679000Y-81201334D01*
X133529827Y-81092954D01*
X133406447Y-80955927D01*
X133314253Y-80796242D01*
X133257274Y-80620878D01*
X133238000Y-80437500D01*
X133257274Y-80254122D01*
X133314253Y-80078758D01*
X133406447Y-79919073D01*
X133529827Y-79782046D01*
X133679000Y-79673666D01*
X133847447Y-79598668D01*
X134027806Y-79560332D01*
X134212194Y-79560332D01*
X134392553Y-79598668D01*
G37*
G36*
X136932553Y-79598668D02*
G01*
X137101000Y-79673666D01*
X137250173Y-79782046D01*
X137373553Y-79919073D01*
X137465747Y-80078758D01*
X137522726Y-80254122D01*
X137542000Y-80437500D01*
X137522726Y-80620878D01*
X137465747Y-80796242D01*
X137373553Y-80955927D01*
X137250173Y-81092954D01*
X137101000Y-81201334D01*
X136932553Y-81276332D01*
X136752194Y-81314668D01*
X136567806Y-81314668D01*
X136387447Y-81276332D01*
X136219000Y-81201334D01*
X136069827Y-81092954D01*
X135946447Y-80955927D01*
X135854253Y-80796242D01*
X135797274Y-80620878D01*
X135778000Y-80437500D01*
X135797274Y-80254122D01*
X135854253Y-80078758D01*
X135946447Y-79919073D01*
X136069827Y-79782046D01*
X136219000Y-79673666D01*
X136387447Y-79598668D01*
X136567806Y-79560332D01*
X136752194Y-79560332D01*
X136932553Y-79598668D01*
G37*
G36*
X139472553Y-79598668D02*
G01*
X139641000Y-79673666D01*
X139790173Y-79782046D01*
X139913553Y-79919073D01*
X140005747Y-80078758D01*
X140062726Y-80254122D01*
X140082000Y-80437500D01*
X140062726Y-80620878D01*
X140005747Y-80796242D01*
X139913553Y-80955927D01*
X139790173Y-81092954D01*
X139641000Y-81201334D01*
X139472553Y-81276332D01*
X139292194Y-81314668D01*
X139107806Y-81314668D01*
X138927447Y-81276332D01*
X138759000Y-81201334D01*
X138609827Y-81092954D01*
X138486447Y-80955927D01*
X138394253Y-80796242D01*
X138337274Y-80620878D01*
X138318000Y-80437500D01*
X138337274Y-80254122D01*
X138394253Y-80078758D01*
X138486447Y-79919073D01*
X138609827Y-79782046D01*
X138759000Y-79673666D01*
X138927447Y-79598668D01*
X139107806Y-79560332D01*
X139292194Y-79560332D01*
X139472553Y-79598668D01*
G37*
G36*
X142012553Y-79598668D02*
G01*
X142181000Y-79673666D01*
X142330173Y-79782046D01*
X142453553Y-79919073D01*
X142545747Y-80078758D01*
X142602726Y-80254122D01*
X142622000Y-80437500D01*
X142602726Y-80620878D01*
X142545747Y-80796242D01*
X142453553Y-80955927D01*
X142330173Y-81092954D01*
X142181000Y-81201334D01*
X142012553Y-81276332D01*
X141832194Y-81314668D01*
X141647806Y-81314668D01*
X141467447Y-81276332D01*
X141299000Y-81201334D01*
X141149827Y-81092954D01*
X141026447Y-80955927D01*
X140934253Y-80796242D01*
X140877274Y-80620878D01*
X140858000Y-80437500D01*
X140877274Y-80254122D01*
X140934253Y-80078758D01*
X141026447Y-79919073D01*
X141149827Y-79782046D01*
X141299000Y-79673666D01*
X141467447Y-79598668D01*
X141647806Y-79560332D01*
X141832194Y-79560332D01*
X142012553Y-79598668D01*
G37*
G36*
X144552553Y-79598668D02*
G01*
X144721000Y-79673666D01*
X144870173Y-79782046D01*
X144993553Y-79919073D01*
X145085747Y-80078758D01*
X145142726Y-80254122D01*
X145162000Y-80437500D01*
X145142726Y-80620878D01*
X145085747Y-80796242D01*
X144993553Y-80955927D01*
X144870173Y-81092954D01*
X144721000Y-81201334D01*
X144552553Y-81276332D01*
X144372194Y-81314668D01*
X144187806Y-81314668D01*
X144007447Y-81276332D01*
X143839000Y-81201334D01*
X143689827Y-81092954D01*
X143566447Y-80955927D01*
X143474253Y-80796242D01*
X143417274Y-80620878D01*
X143398000Y-80437500D01*
X143417274Y-80254122D01*
X143474253Y-80078758D01*
X143566447Y-79919073D01*
X143689827Y-79782046D01*
X143839000Y-79673666D01*
X144007447Y-79598668D01*
X144187806Y-79560332D01*
X144372194Y-79560332D01*
X144552553Y-79598668D01*
G37*
G36*
X147092553Y-79598668D02*
G01*
X147261000Y-79673666D01*
X147410173Y-79782046D01*
X147533553Y-79919073D01*
X147625747Y-80078758D01*
X147682726Y-80254122D01*
X147702000Y-80437500D01*
X147682726Y-80620878D01*
X147625747Y-80796242D01*
X147533553Y-80955927D01*
X147410173Y-81092954D01*
X147261000Y-81201334D01*
X147092553Y-81276332D01*
X146912194Y-81314668D01*
X146727806Y-81314668D01*
X146547447Y-81276332D01*
X146379000Y-81201334D01*
X146229827Y-81092954D01*
X146106447Y-80955927D01*
X146014253Y-80796242D01*
X145957274Y-80620878D01*
X145938000Y-80437500D01*
X145957274Y-80254122D01*
X146014253Y-80078758D01*
X146106447Y-79919073D01*
X146229827Y-79782046D01*
X146379000Y-79673666D01*
X146547447Y-79598668D01*
X146727806Y-79560332D01*
X146912194Y-79560332D01*
X147092553Y-79598668D01*
G37*
G36*
X109733828Y-76419188D02*
G01*
X109811472Y-76422239D01*
X109818461Y-76423345D01*
X109833016Y-76424061D01*
X109872248Y-76431864D01*
X109975311Y-76448188D01*
X110008462Y-76458959D01*
X110035089Y-76464256D01*
X110072666Y-76479820D01*
X110132145Y-76499147D01*
X110187866Y-76527538D01*
X110225438Y-76543101D01*
X110248008Y-76558181D01*
X110279061Y-76574004D01*
X110363476Y-76635335D01*
X110396747Y-76657566D01*
X110403847Y-76664666D01*
X110412467Y-76670929D01*
X110529070Y-76787532D01*
X110535332Y-76796151D01*
X110542434Y-76803253D01*
X110564667Y-76836528D01*
X110625995Y-76920938D01*
X110641816Y-76951988D01*
X110656899Y-76974562D01*
X110672463Y-77012138D01*
X110700852Y-77067854D01*
X110720175Y-77127326D01*
X110735744Y-77164911D01*
X110741041Y-77191543D01*
X110751811Y-77224688D01*
X110768133Y-77327745D01*
X110775939Y-77366984D01*
X110775939Y-77377024D01*
X110777606Y-77387549D01*
X110777606Y-77552450D01*
X110775939Y-77562974D01*
X110775939Y-77573016D01*
X110768133Y-77612258D01*
X110751811Y-77715311D01*
X110741042Y-77748454D01*
X110735744Y-77775089D01*
X110720174Y-77812677D01*
X110700852Y-77872145D01*
X110672465Y-77927856D01*
X110656899Y-77965438D01*
X110641813Y-77988014D01*
X110625995Y-78019061D01*
X110564676Y-78103459D01*
X110542434Y-78136747D01*
X110535329Y-78143851D01*
X110529070Y-78152467D01*
X110412467Y-78269070D01*
X110403851Y-78275329D01*
X110396747Y-78282434D01*
X110363459Y-78304676D01*
X110279061Y-78365995D01*
X110248014Y-78381813D01*
X110225438Y-78396899D01*
X110187856Y-78412465D01*
X110132145Y-78440852D01*
X110072677Y-78460174D01*
X110035089Y-78475744D01*
X110008454Y-78481042D01*
X109975311Y-78491811D01*
X109872273Y-78508130D01*
X109833016Y-78515939D01*
X109822406Y-78516028D01*
X109812305Y-78517628D01*
X109230830Y-78520994D01*
X109230809Y-78520993D01*
X109230000Y-78521000D01*
X109226073Y-78520807D01*
X109148527Y-78517760D01*
X109141546Y-78516654D01*
X109126984Y-78515939D01*
X109087731Y-78508131D01*
X108984688Y-78491811D01*
X108951543Y-78481041D01*
X108924911Y-78475744D01*
X108887326Y-78460175D01*
X108827854Y-78440852D01*
X108772138Y-78412463D01*
X108734562Y-78396899D01*
X108711988Y-78381816D01*
X108680938Y-78365995D01*
X108596528Y-78304667D01*
X108563253Y-78282434D01*
X108556151Y-78275332D01*
X108547532Y-78269070D01*
X108430929Y-78152467D01*
X108424666Y-78143847D01*
X108417566Y-78136747D01*
X108395335Y-78103476D01*
X108334004Y-78019061D01*
X108318181Y-77988008D01*
X108303101Y-77965438D01*
X108287538Y-77927866D01*
X108259147Y-77872145D01*
X108239820Y-77812666D01*
X108224256Y-77775089D01*
X108218959Y-77748462D01*
X108208188Y-77715311D01*
X108191865Y-77612249D01*
X108184061Y-77573016D01*
X108184061Y-77562975D01*
X108182394Y-77552450D01*
X108182394Y-77387549D01*
X108184061Y-77377023D01*
X108184061Y-77366984D01*
X108191864Y-77327754D01*
X108208188Y-77224688D01*
X108218960Y-77191535D01*
X108224256Y-77164911D01*
X108239819Y-77127337D01*
X108259147Y-77067854D01*
X108287540Y-77012127D01*
X108303101Y-76974562D01*
X108318179Y-76951995D01*
X108334004Y-76920938D01*
X108395343Y-76836511D01*
X108417566Y-76803253D01*
X108424664Y-76796154D01*
X108430929Y-76787532D01*
X108547532Y-76670929D01*
X108556154Y-76664664D01*
X108563253Y-76657566D01*
X108596511Y-76635343D01*
X108680938Y-76574004D01*
X108711995Y-76558179D01*
X108734562Y-76543101D01*
X108772127Y-76527540D01*
X108827854Y-76499147D01*
X108887337Y-76479819D01*
X108924911Y-76464256D01*
X108951535Y-76458960D01*
X108984688Y-76448188D01*
X109087754Y-76431864D01*
X109126984Y-76424061D01*
X109137585Y-76423972D01*
X109147694Y-76422371D01*
X109729169Y-76419005D01*
X109729210Y-76419006D01*
X109730000Y-76419000D01*
X109733828Y-76419188D01*
G37*
G36*
X124973828Y-76419188D02*
G01*
X125051472Y-76422239D01*
X125058461Y-76423345D01*
X125073016Y-76424061D01*
X125112248Y-76431864D01*
X125215311Y-76448188D01*
X125248462Y-76458959D01*
X125275089Y-76464256D01*
X125312666Y-76479820D01*
X125372145Y-76499147D01*
X125427866Y-76527538D01*
X125465438Y-76543101D01*
X125488008Y-76558181D01*
X125519061Y-76574004D01*
X125603476Y-76635335D01*
X125636747Y-76657566D01*
X125643847Y-76664666D01*
X125652467Y-76670929D01*
X125769070Y-76787532D01*
X125775332Y-76796151D01*
X125782434Y-76803253D01*
X125804667Y-76836528D01*
X125865995Y-76920938D01*
X125881816Y-76951988D01*
X125896899Y-76974562D01*
X125912463Y-77012138D01*
X125940852Y-77067854D01*
X125960175Y-77127326D01*
X125975744Y-77164911D01*
X125981041Y-77191543D01*
X125991811Y-77224688D01*
X126008133Y-77327745D01*
X126015939Y-77366984D01*
X126015939Y-77377024D01*
X126017606Y-77387549D01*
X126017606Y-77552450D01*
X126015939Y-77562974D01*
X126015939Y-77573016D01*
X126008133Y-77612258D01*
X125991811Y-77715311D01*
X125981042Y-77748454D01*
X125975744Y-77775089D01*
X125960174Y-77812677D01*
X125940852Y-77872145D01*
X125912465Y-77927856D01*
X125896899Y-77965438D01*
X125881813Y-77988014D01*
X125865995Y-78019061D01*
X125804676Y-78103459D01*
X125782434Y-78136747D01*
X125775329Y-78143851D01*
X125769070Y-78152467D01*
X125652467Y-78269070D01*
X125643851Y-78275329D01*
X125636747Y-78282434D01*
X125603459Y-78304676D01*
X125519061Y-78365995D01*
X125488014Y-78381813D01*
X125465438Y-78396899D01*
X125427856Y-78412465D01*
X125372145Y-78440852D01*
X125312677Y-78460174D01*
X125275089Y-78475744D01*
X125248454Y-78481042D01*
X125215311Y-78491811D01*
X125112273Y-78508130D01*
X125073016Y-78515939D01*
X125062406Y-78516028D01*
X125052305Y-78517628D01*
X124470830Y-78520994D01*
X124470809Y-78520993D01*
X124470000Y-78521000D01*
X124466073Y-78520807D01*
X124388527Y-78517760D01*
X124381546Y-78516654D01*
X124366984Y-78515939D01*
X124327731Y-78508131D01*
X124224688Y-78491811D01*
X124191543Y-78481041D01*
X124164911Y-78475744D01*
X124127326Y-78460175D01*
X124067854Y-78440852D01*
X124012138Y-78412463D01*
X123974562Y-78396899D01*
X123951988Y-78381816D01*
X123920938Y-78365995D01*
X123836528Y-78304667D01*
X123803253Y-78282434D01*
X123796151Y-78275332D01*
X123787532Y-78269070D01*
X123670929Y-78152467D01*
X123664666Y-78143847D01*
X123657566Y-78136747D01*
X123635335Y-78103476D01*
X123574004Y-78019061D01*
X123558181Y-77988008D01*
X123543101Y-77965438D01*
X123527538Y-77927866D01*
X123499147Y-77872145D01*
X123479820Y-77812666D01*
X123464256Y-77775089D01*
X123458959Y-77748462D01*
X123448188Y-77715311D01*
X123431865Y-77612249D01*
X123424061Y-77573016D01*
X123424061Y-77562975D01*
X123422394Y-77552450D01*
X123422394Y-77387549D01*
X123424061Y-77377023D01*
X123424061Y-77366984D01*
X123431864Y-77327754D01*
X123448188Y-77224688D01*
X123458960Y-77191535D01*
X123464256Y-77164911D01*
X123479819Y-77127337D01*
X123499147Y-77067854D01*
X123527540Y-77012127D01*
X123543101Y-76974562D01*
X123558179Y-76951995D01*
X123574004Y-76920938D01*
X123635343Y-76836511D01*
X123657566Y-76803253D01*
X123664664Y-76796154D01*
X123670929Y-76787532D01*
X123787532Y-76670929D01*
X123796154Y-76664664D01*
X123803253Y-76657566D01*
X123836511Y-76635343D01*
X123920938Y-76574004D01*
X123951995Y-76558179D01*
X123974562Y-76543101D01*
X124012127Y-76527540D01*
X124067854Y-76499147D01*
X124127337Y-76479819D01*
X124164911Y-76464256D01*
X124191535Y-76458960D01*
X124224688Y-76448188D01*
X124327754Y-76431864D01*
X124366984Y-76424061D01*
X124377585Y-76423972D01*
X124387694Y-76422371D01*
X124969169Y-76419005D01*
X124969210Y-76419006D01*
X124970000Y-76419000D01*
X124973828Y-76419188D01*
G37*
G36*
X105391604Y-68868184D02*
G01*
X105728911Y-68925495D01*
X106057681Y-69020212D01*
X106373779Y-69151144D01*
X106673230Y-69316644D01*
X106952267Y-69514632D01*
X107207383Y-69742617D01*
X107435368Y-69997733D01*
X107633356Y-70276770D01*
X107798856Y-70576221D01*
X107929788Y-70892319D01*
X108024505Y-71221089D01*
X108081816Y-71558396D01*
X108101000Y-71900000D01*
X108081816Y-72241604D01*
X108024505Y-72578911D01*
X107929788Y-72907681D01*
X107798856Y-73223779D01*
X107633356Y-73523230D01*
X107435368Y-73802267D01*
X107207383Y-74057383D01*
X106952267Y-74285368D01*
X106673230Y-74483356D01*
X106373779Y-74648856D01*
X106057681Y-74779788D01*
X105728911Y-74874505D01*
X105391604Y-74931816D01*
X105050000Y-74951000D01*
X104708396Y-74931816D01*
X104371089Y-74874505D01*
X104042319Y-74779788D01*
X103726221Y-74648856D01*
X103426770Y-74483356D01*
X103147733Y-74285368D01*
X102892617Y-74057383D01*
X102664632Y-73802267D01*
X102466644Y-73523230D01*
X102301144Y-73223779D01*
X102170212Y-72907681D01*
X102075495Y-72578911D01*
X102018184Y-72241604D01*
X101999000Y-71900000D01*
X102018184Y-71558396D01*
X102075495Y-71221089D01*
X102170212Y-70892319D01*
X102301144Y-70576221D01*
X102466644Y-70276770D01*
X102664632Y-69997733D01*
X102892617Y-69742617D01*
X103147733Y-69514632D01*
X103426770Y-69316644D01*
X103726221Y-69151144D01*
X104042319Y-69020212D01*
X104371089Y-68925495D01*
X104708396Y-68868184D01*
X105050000Y-68849000D01*
X105391604Y-68868184D01*
G37*
G36*
X197641604Y-68868184D02*
G01*
X197978911Y-68925495D01*
X198307681Y-69020212D01*
X198623779Y-69151144D01*
X198923230Y-69316644D01*
X199202267Y-69514632D01*
X199457383Y-69742617D01*
X199685368Y-69997733D01*
X199883356Y-70276770D01*
X200048856Y-70576221D01*
X200179788Y-70892319D01*
X200274505Y-71221089D01*
X200331816Y-71558396D01*
X200351000Y-71900000D01*
X200331816Y-72241604D01*
X200274505Y-72578911D01*
X200179788Y-72907681D01*
X200048856Y-73223779D01*
X199883356Y-73523230D01*
X199685368Y-73802267D01*
X199457383Y-74057383D01*
X199202267Y-74285368D01*
X198923230Y-74483356D01*
X198623779Y-74648856D01*
X198307681Y-74779788D01*
X197978911Y-74874505D01*
X197641604Y-74931816D01*
X197300000Y-74951000D01*
X196958396Y-74931816D01*
X196621089Y-74874505D01*
X196292319Y-74779788D01*
X195976221Y-74648856D01*
X195676770Y-74483356D01*
X195397733Y-74285368D01*
X195142617Y-74057383D01*
X194914632Y-73802267D01*
X194716644Y-73523230D01*
X194551144Y-73223779D01*
X194420212Y-72907681D01*
X194325495Y-72578911D01*
X194268184Y-72241604D01*
X194249000Y-71900000D01*
X194268184Y-71558396D01*
X194325495Y-71221089D01*
X194420212Y-70892319D01*
X194551144Y-70576221D01*
X194716644Y-70276770D01*
X194914632Y-69997733D01*
X195142617Y-69742617D01*
X195397733Y-69514632D01*
X195676770Y-69316644D01*
X195976221Y-69151144D01*
X196292319Y-69020212D01*
X196621089Y-68925495D01*
X196958396Y-68868184D01*
X197300000Y-68849000D01*
X197641604Y-68868184D01*
G37*
G36*
X109733828Y-67279188D02*
G01*
X109811472Y-67282239D01*
X109818461Y-67283345D01*
X109833016Y-67284061D01*
X109872248Y-67291864D01*
X109975311Y-67308188D01*
X110008462Y-67318959D01*
X110035089Y-67324256D01*
X110072666Y-67339820D01*
X110132145Y-67359147D01*
X110187866Y-67387538D01*
X110225438Y-67403101D01*
X110248008Y-67418181D01*
X110279061Y-67434004D01*
X110363476Y-67495335D01*
X110396747Y-67517566D01*
X110403847Y-67524666D01*
X110412467Y-67530929D01*
X110529070Y-67647532D01*
X110535332Y-67656151D01*
X110542434Y-67663253D01*
X110564667Y-67696528D01*
X110625995Y-67780938D01*
X110641816Y-67811988D01*
X110656899Y-67834562D01*
X110672463Y-67872138D01*
X110700852Y-67927854D01*
X110720175Y-67987326D01*
X110735744Y-68024911D01*
X110741041Y-68051543D01*
X110751811Y-68084688D01*
X110768133Y-68187745D01*
X110775939Y-68226984D01*
X110775939Y-68237024D01*
X110777606Y-68247549D01*
X110777606Y-68412450D01*
X110775939Y-68422974D01*
X110775939Y-68433016D01*
X110768133Y-68472258D01*
X110751811Y-68575311D01*
X110741042Y-68608454D01*
X110735744Y-68635089D01*
X110720174Y-68672677D01*
X110700852Y-68732145D01*
X110672465Y-68787856D01*
X110656899Y-68825438D01*
X110641813Y-68848014D01*
X110625995Y-68879061D01*
X110564676Y-68963459D01*
X110542434Y-68996747D01*
X110535329Y-69003851D01*
X110529070Y-69012467D01*
X110412467Y-69129070D01*
X110403851Y-69135329D01*
X110396747Y-69142434D01*
X110363459Y-69164676D01*
X110279061Y-69225995D01*
X110248014Y-69241813D01*
X110225438Y-69256899D01*
X110187856Y-69272465D01*
X110132145Y-69300852D01*
X110072677Y-69320174D01*
X110035089Y-69335744D01*
X110008454Y-69341042D01*
X109975311Y-69351811D01*
X109872273Y-69368130D01*
X109833016Y-69375939D01*
X109822406Y-69376028D01*
X109812305Y-69377628D01*
X109230830Y-69380994D01*
X109230809Y-69380993D01*
X109230000Y-69381000D01*
X109226073Y-69380807D01*
X109148527Y-69377760D01*
X109141546Y-69376654D01*
X109126984Y-69375939D01*
X109087731Y-69368131D01*
X108984688Y-69351811D01*
X108951543Y-69341041D01*
X108924911Y-69335744D01*
X108887326Y-69320175D01*
X108827854Y-69300852D01*
X108772138Y-69272463D01*
X108734562Y-69256899D01*
X108711988Y-69241816D01*
X108680938Y-69225995D01*
X108596528Y-69164667D01*
X108563253Y-69142434D01*
X108556151Y-69135332D01*
X108547532Y-69129070D01*
X108430929Y-69012467D01*
X108424666Y-69003847D01*
X108417566Y-68996747D01*
X108395335Y-68963476D01*
X108334004Y-68879061D01*
X108318181Y-68848008D01*
X108303101Y-68825438D01*
X108287538Y-68787866D01*
X108259147Y-68732145D01*
X108239820Y-68672666D01*
X108224256Y-68635089D01*
X108218959Y-68608462D01*
X108208188Y-68575311D01*
X108191865Y-68472249D01*
X108184061Y-68433016D01*
X108184061Y-68422975D01*
X108182394Y-68412450D01*
X108182394Y-68247549D01*
X108184061Y-68237023D01*
X108184061Y-68226984D01*
X108191864Y-68187754D01*
X108208188Y-68084688D01*
X108218960Y-68051535D01*
X108224256Y-68024911D01*
X108239819Y-67987337D01*
X108259147Y-67927854D01*
X108287540Y-67872127D01*
X108303101Y-67834562D01*
X108318179Y-67811995D01*
X108334004Y-67780938D01*
X108395343Y-67696511D01*
X108417566Y-67663253D01*
X108424664Y-67656154D01*
X108430929Y-67647532D01*
X108547532Y-67530929D01*
X108556154Y-67524664D01*
X108563253Y-67517566D01*
X108596511Y-67495343D01*
X108680938Y-67434004D01*
X108711995Y-67418179D01*
X108734562Y-67403101D01*
X108772127Y-67387540D01*
X108827854Y-67359147D01*
X108887337Y-67339819D01*
X108924911Y-67324256D01*
X108951535Y-67318960D01*
X108984688Y-67308188D01*
X109087754Y-67291864D01*
X109126984Y-67284061D01*
X109137585Y-67283972D01*
X109147694Y-67282371D01*
X109729169Y-67279005D01*
X109729210Y-67279006D01*
X109730000Y-67279000D01*
X109733828Y-67279188D01*
G37*
G36*
X124973828Y-67279188D02*
G01*
X125051472Y-67282239D01*
X125058461Y-67283345D01*
X125073016Y-67284061D01*
X125112248Y-67291864D01*
X125215311Y-67308188D01*
X125248462Y-67318959D01*
X125275089Y-67324256D01*
X125312666Y-67339820D01*
X125372145Y-67359147D01*
X125427866Y-67387538D01*
X125465438Y-67403101D01*
X125488008Y-67418181D01*
X125519061Y-67434004D01*
X125603476Y-67495335D01*
X125636747Y-67517566D01*
X125643847Y-67524666D01*
X125652467Y-67530929D01*
X125769070Y-67647532D01*
X125775332Y-67656151D01*
X125782434Y-67663253D01*
X125804667Y-67696528D01*
X125865995Y-67780938D01*
X125881816Y-67811988D01*
X125896899Y-67834562D01*
X125912463Y-67872138D01*
X125940852Y-67927854D01*
X125960175Y-67987326D01*
X125975744Y-68024911D01*
X125981041Y-68051543D01*
X125991811Y-68084688D01*
X126008133Y-68187745D01*
X126015939Y-68226984D01*
X126015939Y-68237024D01*
X126017606Y-68247549D01*
X126017606Y-68412450D01*
X126015939Y-68422974D01*
X126015939Y-68433016D01*
X126008133Y-68472258D01*
X125991811Y-68575311D01*
X125981042Y-68608454D01*
X125975744Y-68635089D01*
X125960174Y-68672677D01*
X125940852Y-68732145D01*
X125912465Y-68787856D01*
X125896899Y-68825438D01*
X125881813Y-68848014D01*
X125865995Y-68879061D01*
X125804676Y-68963459D01*
X125782434Y-68996747D01*
X125775329Y-69003851D01*
X125769070Y-69012467D01*
X125652467Y-69129070D01*
X125643851Y-69135329D01*
X125636747Y-69142434D01*
X125603459Y-69164676D01*
X125519061Y-69225995D01*
X125488014Y-69241813D01*
X125465438Y-69256899D01*
X125427856Y-69272465D01*
X125372145Y-69300852D01*
X125312677Y-69320174D01*
X125275089Y-69335744D01*
X125248454Y-69341042D01*
X125215311Y-69351811D01*
X125112273Y-69368130D01*
X125073016Y-69375939D01*
X125062406Y-69376028D01*
X125052305Y-69377628D01*
X124470830Y-69380994D01*
X124470809Y-69380993D01*
X124470000Y-69381000D01*
X124466073Y-69380807D01*
X124388527Y-69377760D01*
X124381546Y-69376654D01*
X124366984Y-69375939D01*
X124327731Y-69368131D01*
X124224688Y-69351811D01*
X124191543Y-69341041D01*
X124164911Y-69335744D01*
X124127326Y-69320175D01*
X124067854Y-69300852D01*
X124012138Y-69272463D01*
X123974562Y-69256899D01*
X123951988Y-69241816D01*
X123920938Y-69225995D01*
X123836528Y-69164667D01*
X123803253Y-69142434D01*
X123796151Y-69135332D01*
X123787532Y-69129070D01*
X123670929Y-69012467D01*
X123664666Y-69003847D01*
X123657566Y-68996747D01*
X123635335Y-68963476D01*
X123574004Y-68879061D01*
X123558181Y-68848008D01*
X123543101Y-68825438D01*
X123527538Y-68787866D01*
X123499147Y-68732145D01*
X123479820Y-68672666D01*
X123464256Y-68635089D01*
X123458959Y-68608462D01*
X123448188Y-68575311D01*
X123431865Y-68472249D01*
X123424061Y-68433016D01*
X123424061Y-68422975D01*
X123422394Y-68412450D01*
X123422394Y-68247549D01*
X123424061Y-68237023D01*
X123424061Y-68226984D01*
X123431864Y-68187754D01*
X123448188Y-68084688D01*
X123458960Y-68051535D01*
X123464256Y-68024911D01*
X123479819Y-67987337D01*
X123499147Y-67927854D01*
X123527540Y-67872127D01*
X123543101Y-67834562D01*
X123558179Y-67811995D01*
X123574004Y-67780938D01*
X123635343Y-67696511D01*
X123657566Y-67663253D01*
X123664664Y-67656154D01*
X123670929Y-67647532D01*
X123787532Y-67530929D01*
X123796154Y-67524664D01*
X123803253Y-67517566D01*
X123836511Y-67495343D01*
X123920938Y-67434004D01*
X123951995Y-67418179D01*
X123974562Y-67403101D01*
X124012127Y-67387540D01*
X124067854Y-67359147D01*
X124127337Y-67339819D01*
X124164911Y-67324256D01*
X124191535Y-67318960D01*
X124224688Y-67308188D01*
X124327754Y-67291864D01*
X124366984Y-67284061D01*
X124377585Y-67283972D01*
X124387694Y-67282371D01*
X124969169Y-67279005D01*
X124969210Y-67279006D01*
X124970000Y-67279000D01*
X124973828Y-67279188D01*
G37*
G36*
X144994517Y-59812882D02*
G01*
X145011062Y-59823938D01*
X145022118Y-59840483D01*
X145026000Y-59860000D01*
X145026000Y-62460000D01*
X145022118Y-62479517D01*
X145011062Y-62496062D01*
X144994517Y-62507118D01*
X144975000Y-62511000D01*
X142375000Y-62511000D01*
X142355483Y-62507118D01*
X142338938Y-62496062D01*
X142327882Y-62479517D01*
X142324000Y-62460000D01*
X142324000Y-59860000D01*
X142327882Y-59840483D01*
X142338938Y-59823938D01*
X142355483Y-59812882D01*
X142375000Y-59809000D01*
X144975000Y-59809000D01*
X144994517Y-59812882D01*
G37*
G36*
X194994517Y-59812882D02*
G01*
X195011062Y-59823938D01*
X195022118Y-59840483D01*
X195026000Y-59860000D01*
X195026000Y-62460000D01*
X195022118Y-62479517D01*
X195011062Y-62496062D01*
X194994517Y-62507118D01*
X194975000Y-62511000D01*
X192375000Y-62511000D01*
X192355483Y-62507118D01*
X192338938Y-62496062D01*
X192327882Y-62479517D01*
X192324000Y-62460000D01*
X192324000Y-59860000D01*
X192327882Y-59840483D01*
X192338938Y-59823938D01*
X192355483Y-59812882D01*
X192375000Y-59809000D01*
X194975000Y-59809000D01*
X194994517Y-59812882D01*
G37*
G36*
X109006651Y-59850340D02*
G01*
X109217691Y-59922790D01*
X109413927Y-60028988D01*
X109590007Y-60166037D01*
X109741129Y-60330199D01*
X109863169Y-60516995D01*
X109952799Y-60721331D01*
X110007574Y-60937633D01*
X110026000Y-61160000D01*
X110007574Y-61382367D01*
X109952799Y-61598669D01*
X109863169Y-61803005D01*
X109741129Y-61989801D01*
X109590007Y-62153963D01*
X109413927Y-62291012D01*
X109217691Y-62397210D01*
X109006651Y-62469660D01*
X108786565Y-62506386D01*
X108563435Y-62506386D01*
X108343349Y-62469660D01*
X108132309Y-62397210D01*
X107936073Y-62291012D01*
X107759993Y-62153963D01*
X107608871Y-61989801D01*
X107486831Y-61803005D01*
X107397201Y-61598669D01*
X107342426Y-61382367D01*
X107324000Y-61160000D01*
X107342426Y-60937633D01*
X107397201Y-60721331D01*
X107486831Y-60516995D01*
X107608871Y-60330199D01*
X107759993Y-60166037D01*
X107936073Y-60028988D01*
X108132309Y-59922790D01*
X108343349Y-59850340D01*
X108563435Y-59813614D01*
X108786565Y-59813614D01*
X109006651Y-59850340D01*
G37*
G36*
X114006651Y-59850340D02*
G01*
X114217691Y-59922790D01*
X114413927Y-60028988D01*
X114590007Y-60166037D01*
X114741129Y-60330199D01*
X114863169Y-60516995D01*
X114952799Y-60721331D01*
X115007574Y-60937633D01*
X115026000Y-61160000D01*
X115007574Y-61382367D01*
X114952799Y-61598669D01*
X114863169Y-61803005D01*
X114741129Y-61989801D01*
X114590007Y-62153963D01*
X114413927Y-62291012D01*
X114217691Y-62397210D01*
X114006651Y-62469660D01*
X113786565Y-62506386D01*
X113563435Y-62506386D01*
X113343349Y-62469660D01*
X113132309Y-62397210D01*
X112936073Y-62291012D01*
X112759993Y-62153963D01*
X112608871Y-61989801D01*
X112486831Y-61803005D01*
X112397201Y-61598669D01*
X112342426Y-61382367D01*
X112324000Y-61160000D01*
X112342426Y-60937633D01*
X112397201Y-60721331D01*
X112486831Y-60516995D01*
X112608871Y-60330199D01*
X112759993Y-60166037D01*
X112936073Y-60028988D01*
X113132309Y-59922790D01*
X113343349Y-59850340D01*
X113563435Y-59813614D01*
X113786565Y-59813614D01*
X114006651Y-59850340D01*
G37*
G36*
X119006651Y-59850340D02*
G01*
X119217691Y-59922790D01*
X119413927Y-60028988D01*
X119590007Y-60166037D01*
X119741129Y-60330199D01*
X119863169Y-60516995D01*
X119952799Y-60721331D01*
X120007574Y-60937633D01*
X120026000Y-61160000D01*
X120007574Y-61382367D01*
X119952799Y-61598669D01*
X119863169Y-61803005D01*
X119741129Y-61989801D01*
X119590007Y-62153963D01*
X119413927Y-62291012D01*
X119217691Y-62397210D01*
X119006651Y-62469660D01*
X118786565Y-62506386D01*
X118563435Y-62506386D01*
X118343349Y-62469660D01*
X118132309Y-62397210D01*
X117936073Y-62291012D01*
X117759993Y-62153963D01*
X117608871Y-61989801D01*
X117486831Y-61803005D01*
X117397201Y-61598669D01*
X117342426Y-61382367D01*
X117324000Y-61160000D01*
X117342426Y-60937633D01*
X117397201Y-60721331D01*
X117486831Y-60516995D01*
X117608871Y-60330199D01*
X117759993Y-60166037D01*
X117936073Y-60028988D01*
X118132309Y-59922790D01*
X118343349Y-59850340D01*
X118563435Y-59813614D01*
X118786565Y-59813614D01*
X119006651Y-59850340D01*
G37*
G36*
X124006651Y-59850340D02*
G01*
X124217691Y-59922790D01*
X124413927Y-60028988D01*
X124590007Y-60166037D01*
X124741129Y-60330199D01*
X124863169Y-60516995D01*
X124952799Y-60721331D01*
X125007574Y-60937633D01*
X125026000Y-61160000D01*
X125007574Y-61382367D01*
X124952799Y-61598669D01*
X124863169Y-61803005D01*
X124741129Y-61989801D01*
X124590007Y-62153963D01*
X124413927Y-62291012D01*
X124217691Y-62397210D01*
X124006651Y-62469660D01*
X123786565Y-62506386D01*
X123563435Y-62506386D01*
X123343349Y-62469660D01*
X123132309Y-62397210D01*
X122936073Y-62291012D01*
X122759993Y-62153963D01*
X122608871Y-61989801D01*
X122486831Y-61803005D01*
X122397201Y-61598669D01*
X122342426Y-61382367D01*
X122324000Y-61160000D01*
X122342426Y-60937633D01*
X122397201Y-60721331D01*
X122486831Y-60516995D01*
X122608871Y-60330199D01*
X122759993Y-60166037D01*
X122936073Y-60028988D01*
X123132309Y-59922790D01*
X123343349Y-59850340D01*
X123563435Y-59813614D01*
X123786565Y-59813614D01*
X124006651Y-59850340D01*
G37*
G36*
X129006651Y-59850340D02*
G01*
X129217691Y-59922790D01*
X129413927Y-60028988D01*
X129590007Y-60166037D01*
X129741129Y-60330199D01*
X129863169Y-60516995D01*
X129952799Y-60721331D01*
X130007574Y-60937633D01*
X130026000Y-61160000D01*
X130007574Y-61382367D01*
X129952799Y-61598669D01*
X129863169Y-61803005D01*
X129741129Y-61989801D01*
X129590007Y-62153963D01*
X129413927Y-62291012D01*
X129217691Y-62397210D01*
X129006651Y-62469660D01*
X128786565Y-62506386D01*
X128563435Y-62506386D01*
X128343349Y-62469660D01*
X128132309Y-62397210D01*
X127936073Y-62291012D01*
X127759993Y-62153963D01*
X127608871Y-61989801D01*
X127486831Y-61803005D01*
X127397201Y-61598669D01*
X127342426Y-61382367D01*
X127324000Y-61160000D01*
X127342426Y-60937633D01*
X127397201Y-60721331D01*
X127486831Y-60516995D01*
X127608871Y-60330199D01*
X127759993Y-60166037D01*
X127936073Y-60028988D01*
X128132309Y-59922790D01*
X128343349Y-59850340D01*
X128563435Y-59813614D01*
X128786565Y-59813614D01*
X129006651Y-59850340D01*
G37*
G36*
X134006651Y-59850340D02*
G01*
X134217691Y-59922790D01*
X134413927Y-60028988D01*
X134590007Y-60166037D01*
X134741129Y-60330199D01*
X134863169Y-60516995D01*
X134952799Y-60721331D01*
X135007574Y-60937633D01*
X135026000Y-61160000D01*
X135007574Y-61382367D01*
X134952799Y-61598669D01*
X134863169Y-61803005D01*
X134741129Y-61989801D01*
X134590007Y-62153963D01*
X134413927Y-62291012D01*
X134217691Y-62397210D01*
X134006651Y-62469660D01*
X133786565Y-62506386D01*
X133563435Y-62506386D01*
X133343349Y-62469660D01*
X133132309Y-62397210D01*
X132936073Y-62291012D01*
X132759993Y-62153963D01*
X132608871Y-61989801D01*
X132486831Y-61803005D01*
X132397201Y-61598669D01*
X132342426Y-61382367D01*
X132324000Y-61160000D01*
X132342426Y-60937633D01*
X132397201Y-60721331D01*
X132486831Y-60516995D01*
X132608871Y-60330199D01*
X132759993Y-60166037D01*
X132936073Y-60028988D01*
X133132309Y-59922790D01*
X133343349Y-59850340D01*
X133563435Y-59813614D01*
X133786565Y-59813614D01*
X134006651Y-59850340D01*
G37*
G36*
X139006651Y-59850340D02*
G01*
X139217691Y-59922790D01*
X139413927Y-60028988D01*
X139590007Y-60166037D01*
X139741129Y-60330199D01*
X139863169Y-60516995D01*
X139952799Y-60721331D01*
X140007574Y-60937633D01*
X140026000Y-61160000D01*
X140007574Y-61382367D01*
X139952799Y-61598669D01*
X139863169Y-61803005D01*
X139741129Y-61989801D01*
X139590007Y-62153963D01*
X139413927Y-62291012D01*
X139217691Y-62397210D01*
X139006651Y-62469660D01*
X138786565Y-62506386D01*
X138563435Y-62506386D01*
X138343349Y-62469660D01*
X138132309Y-62397210D01*
X137936073Y-62291012D01*
X137759993Y-62153963D01*
X137608871Y-61989801D01*
X137486831Y-61803005D01*
X137397201Y-61598669D01*
X137342426Y-61382367D01*
X137324000Y-61160000D01*
X137342426Y-60937633D01*
X137397201Y-60721331D01*
X137486831Y-60516995D01*
X137608871Y-60330199D01*
X137759993Y-60166037D01*
X137936073Y-60028988D01*
X138132309Y-59922790D01*
X138343349Y-59850340D01*
X138563435Y-59813614D01*
X138786565Y-59813614D01*
X139006651Y-59850340D01*
G37*
G36*
X159006651Y-59850340D02*
G01*
X159217691Y-59922790D01*
X159413927Y-60028988D01*
X159590007Y-60166037D01*
X159741129Y-60330199D01*
X159863169Y-60516995D01*
X159952799Y-60721331D01*
X160007574Y-60937633D01*
X160026000Y-61160000D01*
X160007574Y-61382367D01*
X159952799Y-61598669D01*
X159863169Y-61803005D01*
X159741129Y-61989801D01*
X159590007Y-62153963D01*
X159413927Y-62291012D01*
X159217691Y-62397210D01*
X159006651Y-62469660D01*
X158786565Y-62506386D01*
X158563435Y-62506386D01*
X158343349Y-62469660D01*
X158132309Y-62397210D01*
X157936073Y-62291012D01*
X157759993Y-62153963D01*
X157608871Y-61989801D01*
X157486831Y-61803005D01*
X157397201Y-61598669D01*
X157342426Y-61382367D01*
X157324000Y-61160000D01*
X157342426Y-60937633D01*
X157397201Y-60721331D01*
X157486831Y-60516995D01*
X157608871Y-60330199D01*
X157759993Y-60166037D01*
X157936073Y-60028988D01*
X158132309Y-59922790D01*
X158343349Y-59850340D01*
X158563435Y-59813614D01*
X158786565Y-59813614D01*
X159006651Y-59850340D01*
G37*
G36*
X164006651Y-59850340D02*
G01*
X164217691Y-59922790D01*
X164413927Y-60028988D01*
X164590007Y-60166037D01*
X164741129Y-60330199D01*
X164863169Y-60516995D01*
X164952799Y-60721331D01*
X165007574Y-60937633D01*
X165026000Y-61160000D01*
X165007574Y-61382367D01*
X164952799Y-61598669D01*
X164863169Y-61803005D01*
X164741129Y-61989801D01*
X164590007Y-62153963D01*
X164413927Y-62291012D01*
X164217691Y-62397210D01*
X164006651Y-62469660D01*
X163786565Y-62506386D01*
X163563435Y-62506386D01*
X163343349Y-62469660D01*
X163132309Y-62397210D01*
X162936073Y-62291012D01*
X162759993Y-62153963D01*
X162608871Y-61989801D01*
X162486831Y-61803005D01*
X162397201Y-61598669D01*
X162342426Y-61382367D01*
X162324000Y-61160000D01*
X162342426Y-60937633D01*
X162397201Y-60721331D01*
X162486831Y-60516995D01*
X162608871Y-60330199D01*
X162759993Y-60166037D01*
X162936073Y-60028988D01*
X163132309Y-59922790D01*
X163343349Y-59850340D01*
X163563435Y-59813614D01*
X163786565Y-59813614D01*
X164006651Y-59850340D01*
G37*
G36*
X169006651Y-59850340D02*
G01*
X169217691Y-59922790D01*
X169413927Y-60028988D01*
X169590007Y-60166037D01*
X169741129Y-60330199D01*
X169863169Y-60516995D01*
X169952799Y-60721331D01*
X170007574Y-60937633D01*
X170026000Y-61160000D01*
X170007574Y-61382367D01*
X169952799Y-61598669D01*
X169863169Y-61803005D01*
X169741129Y-61989801D01*
X169590007Y-62153963D01*
X169413927Y-62291012D01*
X169217691Y-62397210D01*
X169006651Y-62469660D01*
X168786565Y-62506386D01*
X168563435Y-62506386D01*
X168343349Y-62469660D01*
X168132309Y-62397210D01*
X167936073Y-62291012D01*
X167759993Y-62153963D01*
X167608871Y-61989801D01*
X167486831Y-61803005D01*
X167397201Y-61598669D01*
X167342426Y-61382367D01*
X167324000Y-61160000D01*
X167342426Y-60937633D01*
X167397201Y-60721331D01*
X167486831Y-60516995D01*
X167608871Y-60330199D01*
X167759993Y-60166037D01*
X167936073Y-60028988D01*
X168132309Y-59922790D01*
X168343349Y-59850340D01*
X168563435Y-59813614D01*
X168786565Y-59813614D01*
X169006651Y-59850340D01*
G37*
G36*
X174006651Y-59850340D02*
G01*
X174217691Y-59922790D01*
X174413927Y-60028988D01*
X174590007Y-60166037D01*
X174741129Y-60330199D01*
X174863169Y-60516995D01*
X174952799Y-60721331D01*
X175007574Y-60937633D01*
X175026000Y-61160000D01*
X175007574Y-61382367D01*
X174952799Y-61598669D01*
X174863169Y-61803005D01*
X174741129Y-61989801D01*
X174590007Y-62153963D01*
X174413927Y-62291012D01*
X174217691Y-62397210D01*
X174006651Y-62469660D01*
X173786565Y-62506386D01*
X173563435Y-62506386D01*
X173343349Y-62469660D01*
X173132309Y-62397210D01*
X172936073Y-62291012D01*
X172759993Y-62153963D01*
X172608871Y-61989801D01*
X172486831Y-61803005D01*
X172397201Y-61598669D01*
X172342426Y-61382367D01*
X172324000Y-61160000D01*
X172342426Y-60937633D01*
X172397201Y-60721331D01*
X172486831Y-60516995D01*
X172608871Y-60330199D01*
X172759993Y-60166037D01*
X172936073Y-60028988D01*
X173132309Y-59922790D01*
X173343349Y-59850340D01*
X173563435Y-59813614D01*
X173786565Y-59813614D01*
X174006651Y-59850340D01*
G37*
G36*
X179006651Y-59850340D02*
G01*
X179217691Y-59922790D01*
X179413927Y-60028988D01*
X179590007Y-60166037D01*
X179741129Y-60330199D01*
X179863169Y-60516995D01*
X179952799Y-60721331D01*
X180007574Y-60937633D01*
X180026000Y-61160000D01*
X180007574Y-61382367D01*
X179952799Y-61598669D01*
X179863169Y-61803005D01*
X179741129Y-61989801D01*
X179590007Y-62153963D01*
X179413927Y-62291012D01*
X179217691Y-62397210D01*
X179006651Y-62469660D01*
X178786565Y-62506386D01*
X178563435Y-62506386D01*
X178343349Y-62469660D01*
X178132309Y-62397210D01*
X177936073Y-62291012D01*
X177759993Y-62153963D01*
X177608871Y-61989801D01*
X177486831Y-61803005D01*
X177397201Y-61598669D01*
X177342426Y-61382367D01*
X177324000Y-61160000D01*
X177342426Y-60937633D01*
X177397201Y-60721331D01*
X177486831Y-60516995D01*
X177608871Y-60330199D01*
X177759993Y-60166037D01*
X177936073Y-60028988D01*
X178132309Y-59922790D01*
X178343349Y-59850340D01*
X178563435Y-59813614D01*
X178786565Y-59813614D01*
X179006651Y-59850340D01*
G37*
G36*
X184006651Y-59850340D02*
G01*
X184217691Y-59922790D01*
X184413927Y-60028988D01*
X184590007Y-60166037D01*
X184741129Y-60330199D01*
X184863169Y-60516995D01*
X184952799Y-60721331D01*
X185007574Y-60937633D01*
X185026000Y-61160000D01*
X185007574Y-61382367D01*
X184952799Y-61598669D01*
X184863169Y-61803005D01*
X184741129Y-61989801D01*
X184590007Y-62153963D01*
X184413927Y-62291012D01*
X184217691Y-62397210D01*
X184006651Y-62469660D01*
X183786565Y-62506386D01*
X183563435Y-62506386D01*
X183343349Y-62469660D01*
X183132309Y-62397210D01*
X182936073Y-62291012D01*
X182759993Y-62153963D01*
X182608871Y-61989801D01*
X182486831Y-61803005D01*
X182397201Y-61598669D01*
X182342426Y-61382367D01*
X182324000Y-61160000D01*
X182342426Y-60937633D01*
X182397201Y-60721331D01*
X182486831Y-60516995D01*
X182608871Y-60330199D01*
X182759993Y-60166037D01*
X182936073Y-60028988D01*
X183132309Y-59922790D01*
X183343349Y-59850340D01*
X183563435Y-59813614D01*
X183786565Y-59813614D01*
X184006651Y-59850340D01*
G37*
G36*
X189006651Y-59850340D02*
G01*
X189217691Y-59922790D01*
X189413927Y-60028988D01*
X189590007Y-60166037D01*
X189741129Y-60330199D01*
X189863169Y-60516995D01*
X189952799Y-60721331D01*
X190007574Y-60937633D01*
X190026000Y-61160000D01*
X190007574Y-61382367D01*
X189952799Y-61598669D01*
X189863169Y-61803005D01*
X189741129Y-61989801D01*
X189590007Y-62153963D01*
X189413927Y-62291012D01*
X189217691Y-62397210D01*
X189006651Y-62469660D01*
X188786565Y-62506386D01*
X188563435Y-62506386D01*
X188343349Y-62469660D01*
X188132309Y-62397210D01*
X187936073Y-62291012D01*
X187759993Y-62153963D01*
X187608871Y-61989801D01*
X187486831Y-61803005D01*
X187397201Y-61598669D01*
X187342426Y-61382367D01*
X187324000Y-61160000D01*
X187342426Y-60937633D01*
X187397201Y-60721331D01*
X187486831Y-60516995D01*
X187608871Y-60330199D01*
X187759993Y-60166037D01*
X187936073Y-60028988D01*
X188132309Y-59922790D01*
X188343349Y-59850340D01*
X188563435Y-59813614D01*
X188786565Y-59813614D01*
X189006651Y-59850340D01*
G37*
M02*
