%TF.GenerationSoftware,KiCad,Pcbnew,8.0.0*%
%TF.CreationDate,2024-09-14T23:12:03+02:00*%
%TF.ProjectId,led_stairs_controller,6c65645f-7374-4616-9972-735f636f6e74,V0.4*%
%TF.SameCoordinates,Original*%
%TF.FileFunction,Paste,Top*%
%TF.FilePolarity,Positive*%
%FSLAX46Y46*%
G04 Gerber Fmt 4.6, Leading zero omitted, Abs format (unit mm)*
G04 Created by KiCad (PCBNEW 8.0.0) date 2024-09-14 23:12:03*
%MOMM*%
%LPD*%
G01*
G04 APERTURE LIST*
G04 Aperture macros list*
%AMRoundRect*
0 Rectangle with rounded corners*
0 $1 Rounding radius*
0 $2 $3 $4 $5 $6 $7 $8 $9 X,Y pos of 4 corners*
0 Add a 4 corners polygon primitive as box body*
4,1,4,$2,$3,$4,$5,$6,$7,$8,$9,$2,$3,0*
0 Add four circle primitives for the rounded corners*
1,1,$1+$1,$2,$3*
1,1,$1+$1,$4,$5*
1,1,$1+$1,$6,$7*
1,1,$1+$1,$8,$9*
0 Add four rect primitives between the rounded corners*
20,1,$1+$1,$2,$3,$4,$5,0*
20,1,$1+$1,$4,$5,$6,$7,0*
20,1,$1+$1,$6,$7,$8,$9,0*
20,1,$1+$1,$8,$9,$2,$3,0*%
G04 Aperture macros list end*
%ADD10RoundRect,0.200000X-0.275000X0.200000X-0.275000X-0.200000X0.275000X-0.200000X0.275000X0.200000X0*%
%ADD11RoundRect,0.200000X0.275000X-0.200000X0.275000X0.200000X-0.275000X0.200000X-0.275000X-0.200000X0*%
%ADD12RoundRect,0.100000X-0.637500X-0.100000X0.637500X-0.100000X0.637500X0.100000X-0.637500X0.100000X0*%
%ADD13RoundRect,0.250000X1.450000X-0.312500X1.450000X0.312500X-1.450000X0.312500X-1.450000X-0.312500X0*%
%ADD14RoundRect,0.250000X-0.262500X-0.450000X0.262500X-0.450000X0.262500X0.450000X-0.262500X0.450000X0*%
%ADD15RoundRect,0.250000X-1.450000X0.312500X-1.450000X-0.312500X1.450000X-0.312500X1.450000X0.312500X0*%
%ADD16RoundRect,0.250000X-0.350000X0.850000X-0.350000X-0.850000X0.350000X-0.850000X0.350000X0.850000X0*%
%ADD17RoundRect,0.250000X-1.125000X1.275000X-1.125000X-1.275000X1.125000X-1.275000X1.125000X1.275000X0*%
%ADD18RoundRect,0.225000X-0.225000X-0.250000X0.225000X-0.250000X0.225000X0.250000X-0.225000X0.250000X0*%
%ADD19RoundRect,0.200000X-0.200000X-0.275000X0.200000X-0.275000X0.200000X0.275000X-0.200000X0.275000X0*%
%ADD20RoundRect,0.250000X0.350000X-0.850000X0.350000X0.850000X-0.350000X0.850000X-0.350000X-0.850000X0*%
%ADD21RoundRect,0.250000X1.125000X-1.275000X1.125000X1.275000X-1.125000X1.275000X-1.125000X-1.275000X0*%
%ADD22RoundRect,0.150000X-0.587500X-0.150000X0.587500X-0.150000X0.587500X0.150000X-0.587500X0.150000X0*%
%ADD23RoundRect,0.200000X0.200000X0.275000X-0.200000X0.275000X-0.200000X-0.275000X0.200000X-0.275000X0*%
%ADD24RoundRect,0.150000X0.150000X-0.587500X0.150000X0.587500X-0.150000X0.587500X-0.150000X-0.587500X0*%
%ADD25RoundRect,0.250000X0.262500X0.450000X-0.262500X0.450000X-0.262500X-0.450000X0.262500X-0.450000X0*%
%ADD26RoundRect,0.150000X0.150000X-0.875000X0.150000X0.875000X-0.150000X0.875000X-0.150000X-0.875000X0*%
G04 APERTURE END LIST*
D10*
%TO.C,R8*%
X164020000Y-107575000D03*
X164020000Y-109225000D03*
%TD*%
D11*
%TO.C,R16*%
X166500000Y-87525000D03*
X166500000Y-85875000D03*
%TD*%
D12*
%TO.C,U1*%
X170600000Y-95575000D03*
X170600000Y-96225000D03*
X170600000Y-96875000D03*
X170600000Y-97525000D03*
X170600000Y-98175000D03*
X170600000Y-98825000D03*
X170600000Y-99475000D03*
X170600000Y-100125000D03*
X170600000Y-100775000D03*
X170600000Y-101425000D03*
X170600000Y-102075000D03*
X170600000Y-102725000D03*
X170600000Y-103375000D03*
X170600000Y-104025000D03*
X176325000Y-104025000D03*
X176325000Y-103375000D03*
X176325000Y-102725000D03*
X176325000Y-102075000D03*
X176325000Y-101425000D03*
X176325000Y-100775000D03*
X176325000Y-100125000D03*
X176325000Y-99475000D03*
X176325000Y-98825000D03*
X176325000Y-98175000D03*
X176325000Y-97525000D03*
X176325000Y-96875000D03*
X176325000Y-96225000D03*
X176325000Y-95575000D03*
%TD*%
D13*
%TO.C,F15*%
X178100000Y-72637500D03*
X178100000Y-68362500D03*
%TD*%
D14*
%TO.C,R36*%
X128687500Y-77200000D03*
X130512500Y-77200000D03*
%TD*%
D15*
%TO.C,F2*%
X116900000Y-122362500D03*
X116900000Y-126637500D03*
%TD*%
D10*
%TO.C,R9*%
X171320000Y-107575000D03*
X171320000Y-109225000D03*
%TD*%
D16*
%TO.C,Q1*%
X113800000Y-111400000D03*
D17*
X113045000Y-116025000D03*
X109995000Y-116025000D03*
X113045000Y-119375000D03*
X109995000Y-119375000D03*
D16*
X109240000Y-111400000D03*
%TD*%
D11*
%TO.C,R15*%
X173700000Y-87525000D03*
X173700000Y-85875000D03*
%TD*%
D16*
%TO.C,Q8*%
X164025000Y-111375000D03*
D17*
X163270000Y-116000000D03*
X160220000Y-116000000D03*
X163270000Y-119350000D03*
X160220000Y-119350000D03*
D16*
X159465000Y-111375000D03*
%TD*%
%TO.C,Q6*%
X149680000Y-111400000D03*
D17*
X148925000Y-116025000D03*
X145875000Y-116025000D03*
X148925000Y-119375000D03*
X145875000Y-119375000D03*
D16*
X145120000Y-111400000D03*
%TD*%
D15*
%TO.C,F5*%
X138200000Y-122362500D03*
X138200000Y-126637500D03*
%TD*%
D16*
%TO.C,Q10*%
X178525000Y-111375000D03*
D17*
X177770000Y-116000000D03*
X174720000Y-116000000D03*
X177770000Y-119350000D03*
X174720000Y-119350000D03*
D16*
X173965000Y-111375000D03*
%TD*%
D15*
%TO.C,F12*%
X192000000Y-122362500D03*
X192000000Y-126637500D03*
%TD*%
D10*
%TO.C,R19*%
X151800000Y-94175000D03*
X151800000Y-95825000D03*
%TD*%
D18*
%TO.C,C3*%
X115325000Y-88200000D03*
X116875000Y-88200000D03*
%TD*%
D19*
%TO.C,R17*%
X151475000Y-84100000D03*
X153125000Y-84100000D03*
%TD*%
D16*
%TO.C,Q3*%
X128180000Y-111400000D03*
D17*
X127425000Y-116025000D03*
X124375000Y-116025000D03*
X127425000Y-119375000D03*
X124375000Y-119375000D03*
D16*
X123620000Y-111400000D03*
%TD*%
D13*
%TO.C,F16*%
X171200000Y-72637500D03*
X171200000Y-68362500D03*
%TD*%
D10*
%TO.C,R31*%
X186000000Y-92375000D03*
X186000000Y-94025000D03*
%TD*%
D15*
%TO.C,F8*%
X163900000Y-122425000D03*
X163900000Y-126700000D03*
%TD*%
D20*
%TO.C,Q16*%
X166500000Y-83700000D03*
D21*
X167255000Y-79075000D03*
X170305000Y-79075000D03*
X167255000Y-75725000D03*
X170305000Y-75725000D03*
D20*
X171060000Y-83700000D03*
%TD*%
D22*
%TO.C,Q18*%
X153725000Y-90450000D03*
X153725000Y-92350000D03*
X155600000Y-91400000D03*
%TD*%
D15*
%TO.C,F9*%
X170700000Y-122462500D03*
X170700000Y-126737500D03*
%TD*%
D14*
%TO.C,R37*%
X128687500Y-71400000D03*
X130512500Y-71400000D03*
%TD*%
D10*
%TO.C,R12*%
X192920000Y-107600000D03*
X192920000Y-109250000D03*
%TD*%
%TO.C,R10*%
X178520000Y-107575000D03*
X178520000Y-109225000D03*
%TD*%
D23*
%TO.C,R35*%
X148125000Y-88500000D03*
X146475000Y-88500000D03*
%TD*%
D13*
%TO.C,F13*%
X191800000Y-72637500D03*
X191800000Y-68362500D03*
%TD*%
%TO.C,F14*%
X185300000Y-72637500D03*
X185300000Y-68362500D03*
%TD*%
D11*
%TO.C,R18*%
X159000000Y-96525000D03*
X159000000Y-94875000D03*
%TD*%
D20*
%TO.C,Q15*%
X173740000Y-83700000D03*
D21*
X174495000Y-79075000D03*
X177545000Y-79075000D03*
X174495000Y-75725000D03*
X177545000Y-75725000D03*
D20*
X178300000Y-83700000D03*
%TD*%
D18*
%TO.C,C1*%
X176125000Y-93900000D03*
X177675000Y-93900000D03*
%TD*%
D24*
%TO.C,Q20*%
X142837500Y-90350000D03*
X144737500Y-90350000D03*
X143787500Y-88475000D03*
%TD*%
D25*
%TO.C,R38*%
X158112500Y-68800000D03*
X156287500Y-68800000D03*
%TD*%
D19*
%TO.C,R34*%
X142875000Y-92200000D03*
X144525000Y-92200000D03*
%TD*%
D16*
%TO.C,Q2*%
X120980000Y-111400000D03*
D17*
X120225000Y-116025000D03*
X117175000Y-116025000D03*
X120225000Y-119375000D03*
X117175000Y-119375000D03*
D16*
X116420000Y-111400000D03*
%TD*%
D11*
%TO.C,R14*%
X181000000Y-87500000D03*
X181000000Y-85850000D03*
%TD*%
D25*
%TO.C,R29*%
X158032500Y-77125000D03*
X156207500Y-77125000D03*
%TD*%
D16*
%TO.C,Q4*%
X135300000Y-111400000D03*
D17*
X134545000Y-116025000D03*
X131495000Y-116025000D03*
X134545000Y-119375000D03*
X131495000Y-119375000D03*
D16*
X130740000Y-111400000D03*
%TD*%
%TO.C,Q11*%
X185700000Y-111400000D03*
D17*
X184945000Y-116025000D03*
X181895000Y-116025000D03*
X184945000Y-119375000D03*
X181895000Y-119375000D03*
D16*
X181140000Y-111400000D03*
%TD*%
D10*
%TO.C,R20*%
X151800000Y-90675000D03*
X151800000Y-92325000D03*
%TD*%
D14*
%TO.C,R24*%
X128587500Y-68800000D03*
X130412500Y-68800000D03*
%TD*%
D15*
%TO.C,F11*%
X185000000Y-122462500D03*
X185000000Y-126737500D03*
%TD*%
D16*
%TO.C,Q5*%
X142480000Y-111400000D03*
D17*
X141725000Y-116025000D03*
X138675000Y-116025000D03*
X141725000Y-119375000D03*
X138675000Y-119375000D03*
D16*
X137920000Y-111400000D03*
%TD*%
D15*
%TO.C,F6*%
X145000000Y-122462500D03*
X145000000Y-126737500D03*
%TD*%
D22*
%TO.C,Q17*%
X153725000Y-93950000D03*
X153725000Y-95850000D03*
X155600000Y-94900000D03*
%TD*%
D14*
%TO.C,R25*%
X128687500Y-74600000D03*
X130512500Y-74600000D03*
%TD*%
D24*
%TO.C,Q19*%
X157937500Y-103437500D03*
X159837500Y-103437500D03*
X158887500Y-101562500D03*
%TD*%
D15*
%TO.C,F10*%
X177700000Y-122462500D03*
X177700000Y-126737500D03*
%TD*%
D11*
%TO.C,R13*%
X188200000Y-87525000D03*
X188200000Y-85875000D03*
%TD*%
D10*
%TO.C,R32*%
X184200000Y-92275000D03*
X184200000Y-93925000D03*
%TD*%
D25*
%TO.C,R28*%
X158032500Y-71325000D03*
X156207500Y-71325000D03*
%TD*%
D10*
%TO.C,R30*%
X182500000Y-92275000D03*
X182500000Y-93925000D03*
%TD*%
D16*
%TO.C,Q7*%
X156825000Y-111375000D03*
D17*
X156070000Y-116000000D03*
X153020000Y-116000000D03*
X156070000Y-119350000D03*
X153020000Y-119350000D03*
D16*
X152265000Y-111375000D03*
%TD*%
D20*
%TO.C,Q14*%
X181000000Y-83700000D03*
D21*
X181755000Y-79075000D03*
X184805000Y-79075000D03*
X181755000Y-75725000D03*
X184805000Y-75725000D03*
D20*
X185560000Y-83700000D03*
%TD*%
D15*
%TO.C,F1*%
X110400000Y-122362500D03*
X110400000Y-126637500D03*
%TD*%
D10*
%TO.C,R11*%
X185720000Y-107575000D03*
X185720000Y-109225000D03*
%TD*%
D16*
%TO.C,Q12*%
X192925000Y-111400000D03*
D17*
X192170000Y-116025000D03*
X189120000Y-116025000D03*
X192170000Y-119375000D03*
X189120000Y-119375000D03*
D16*
X188365000Y-111400000D03*
%TD*%
D20*
%TO.C,Q13*%
X188200000Y-83700000D03*
D21*
X188955000Y-79075000D03*
X192005000Y-79075000D03*
X188955000Y-75725000D03*
X192005000Y-75725000D03*
D20*
X192760000Y-83700000D03*
%TD*%
D19*
%TO.C,R33*%
X107575000Y-91000000D03*
X109225000Y-91000000D03*
%TD*%
D15*
%TO.C,F3*%
X123700000Y-122362500D03*
X123700000Y-126637500D03*
%TD*%
%TO.C,F4*%
X131100000Y-122362500D03*
X131100000Y-126637500D03*
%TD*%
D26*
%TO.C,U4*%
X116882500Y-99650000D03*
X118152500Y-99650000D03*
X119422500Y-99650000D03*
X120692500Y-99650000D03*
X121962500Y-99650000D03*
X123232500Y-99650000D03*
X124502500Y-99650000D03*
X125772500Y-99650000D03*
X127042500Y-99650000D03*
X127042500Y-90350000D03*
X125772500Y-90350000D03*
X124502500Y-90350000D03*
X123232500Y-90350000D03*
X121962500Y-90350000D03*
X120692500Y-90350000D03*
X119422500Y-90350000D03*
X118152500Y-90350000D03*
X116882500Y-90350000D03*
%TD*%
D25*
%TO.C,R39*%
X158112500Y-74600000D03*
X156287500Y-74600000D03*
%TD*%
D15*
%TO.C,F7*%
X157200000Y-122462500D03*
X157200000Y-126737500D03*
%TD*%
D16*
%TO.C,Q9*%
X171275000Y-111375000D03*
D17*
X170520000Y-116000000D03*
X167470000Y-116000000D03*
X170520000Y-119350000D03*
X167470000Y-119350000D03*
D16*
X166715000Y-111375000D03*
%TD*%
D10*
%TO.C,R21*%
X159000000Y-89775000D03*
X159000000Y-91425000D03*
%TD*%
M02*
