%TF.GenerationSoftware,KiCad,Pcbnew,8.0.0*%
%TF.CreationDate,2024-09-14T23:12:03+02:00*%
%TF.ProjectId,led_stairs_controller,6c65645f-7374-4616-9972-735f636f6e74,V0.4*%
%TF.SameCoordinates,Original*%
%TF.FileFunction,Soldermask,Bot*%
%TF.FilePolarity,Negative*%
%FSLAX46Y46*%
G04 Gerber Fmt 4.6, Leading zero omitted, Abs format (unit mm)*
G04 Created by KiCad (PCBNEW 8.0.0) date 2024-09-14 23:12:03*
%MOMM*%
%LPD*%
G01*
G04 APERTURE LIST*
G04 Aperture macros list*
%AMRoundRect*
0 Rectangle with rounded corners*
0 $1 Rounding radius*
0 $2 $3 $4 $5 $6 $7 $8 $9 X,Y pos of 4 corners*
0 Add a 4 corners polygon primitive as box body*
4,1,4,$2,$3,$4,$5,$6,$7,$8,$9,$2,$3,0*
0 Add four circle primitives for the rounded corners*
1,1,$1+$1,$2,$3*
1,1,$1+$1,$4,$5*
1,1,$1+$1,$6,$7*
1,1,$1+$1,$8,$9*
0 Add four rect primitives between the rounded corners*
20,1,$1+$1,$2,$3,$4,$5,0*
20,1,$1+$1,$4,$5,$6,$7,0*
20,1,$1+$1,$6,$7,$8,$9,0*
20,1,$1+$1,$8,$9,$2,$3,0*%
%AMFreePoly0*
4,1,35,0.586062,0.786062,0.601000,0.750000,0.601000,-0.750000,0.586062,-0.786062,0.550000,-0.801000,0.000000,-0.801000,-0.012285,-0.795911,-0.071157,-0.795911,-0.085525,-0.793845,-0.222076,-0.753750,-0.235281,-0.747720,-0.355003,-0.670779,-0.365973,-0.661273,-0.459170,-0.553718,-0.467018,-0.541506,-0.526137,-0.412052,-0.530227,-0.398124,-0.550481,-0.257258,-0.551000,-0.250000,-0.551000,0.250000,
-0.550481,0.257258,-0.530227,0.398124,-0.526137,0.412052,-0.467018,0.541506,-0.459170,0.553718,-0.365973,0.661273,-0.355003,0.670779,-0.235281,0.747720,-0.222076,0.753750,-0.085525,0.793845,-0.071157,0.795911,-0.012285,0.795911,0.000000,0.801000,0.550000,0.801000,0.586062,0.786062,0.586062,0.786062,$1*%
%AMFreePoly1*
4,1,35,0.012285,0.795911,0.071157,0.795911,0.085525,0.793845,0.222076,0.753750,0.235281,0.747720,0.355003,0.670779,0.365973,0.661273,0.459170,0.553718,0.467018,0.541506,0.526137,0.412052,0.530227,0.398124,0.550481,0.257258,0.551000,0.250000,0.551000,-0.250000,0.550481,-0.257258,0.530227,-0.398124,0.526137,-0.412052,0.467018,-0.541506,0.459170,-0.553718,0.365973,-0.661273,
0.355003,-0.670779,0.235281,-0.747720,0.222076,-0.753750,0.085525,-0.793845,0.071157,-0.795911,0.012285,-0.795911,0.000000,-0.801000,-0.550000,-0.801000,-0.586062,-0.786062,-0.601000,-0.750000,-0.601000,0.750000,-0.586062,0.786062,-0.550000,0.801000,0.000000,0.801000,0.012285,0.795911,0.012285,0.795911,$1*%
%AMFreePoly2*
4,1,35,0.536062,0.786062,0.551000,0.750000,0.551000,-0.750000,0.536062,-0.786062,0.500000,-0.801000,0.000000,-0.801000,-0.012285,-0.795911,-0.071157,-0.795911,-0.085525,-0.793845,-0.222076,-0.753750,-0.235281,-0.747720,-0.355003,-0.670779,-0.365973,-0.661273,-0.459170,-0.553718,-0.467018,-0.541506,-0.526137,-0.412052,-0.530227,-0.398124,-0.550481,-0.257258,-0.551000,-0.250000,-0.551000,0.250000,
-0.550481,0.257258,-0.530227,0.398124,-0.526137,0.412052,-0.467018,0.541506,-0.459170,0.553718,-0.365973,0.661273,-0.355003,0.670779,-0.235281,0.747720,-0.222076,0.753750,-0.085525,0.793845,-0.071157,0.795911,-0.012285,0.795911,0.000000,0.801000,0.500000,0.801000,0.536062,0.786062,0.536062,0.786062,$1*%
%AMFreePoly3*
4,1,35,0.012285,0.795911,0.071157,0.795911,0.085525,0.793845,0.222076,0.753750,0.235281,0.747720,0.355003,0.670779,0.365973,0.661273,0.459170,0.553718,0.467018,0.541506,0.526137,0.412052,0.530227,0.398124,0.550481,0.257258,0.551000,0.250000,0.551000,-0.250000,0.550481,-0.257258,0.530227,-0.398124,0.526137,-0.412052,0.467018,-0.541506,0.459170,-0.553718,0.365973,-0.661273,
0.355003,-0.670779,0.235281,-0.747720,0.222076,-0.753750,0.085525,-0.793845,0.071157,-0.795911,0.012285,-0.795911,0.000000,-0.801000,-0.500000,-0.801000,-0.536062,-0.786062,-0.551000,-0.750000,-0.551000,0.750000,-0.536062,0.786062,-0.500000,0.801000,0.000000,0.801000,0.012285,0.795911,0.012285,0.795911,$1*%
G04 Aperture macros list end*
%ADD10RoundRect,0.051000X0.800000X0.800000X-0.800000X0.800000X-0.800000X-0.800000X0.800000X-0.800000X0*%
%ADD11O,1.702000X1.702000*%
%ADD12RoundRect,0.051000X-0.800000X-0.800000X0.800000X-0.800000X0.800000X0.800000X-0.800000X0.800000X0*%
%ADD13RoundRect,0.051000X-0.850000X-0.850000X0.850000X-0.850000X0.850000X0.850000X-0.850000X0.850000X0*%
%ADD14O,1.802000X1.802000*%
%ADD15RoundRect,0.051000X0.850000X-0.850000X0.850000X0.850000X-0.850000X0.850000X-0.850000X-0.850000X0*%
%ADD16RoundRect,0.102000X-0.780000X0.780000X-0.780000X-0.780000X0.780000X-0.780000X0.780000X0.780000X0*%
%ADD17C,1.764000*%
%ADD18RoundRect,0.051000X-1.300000X-1.300000X1.300000X-1.300000X1.300000X1.300000X-1.300000X1.300000X0*%
%ADD19C,2.702000*%
%ADD20RoundRect,0.051000X1.300000X1.300000X-1.300000X1.300000X-1.300000X-1.300000X1.300000X-1.300000X0*%
%ADD21C,6.102000*%
%ADD22RoundRect,0.051000X-0.750000X-1.150000X0.750000X-1.150000X0.750000X1.150000X-0.750000X1.150000X0*%
%ADD23O,1.602000X2.402000*%
%ADD24FreePoly0,90.000000*%
%ADD25RoundRect,0.051000X0.750000X-0.500000X0.750000X0.500000X-0.750000X0.500000X-0.750000X-0.500000X0*%
%ADD26FreePoly1,90.000000*%
%ADD27FreePoly0,270.000000*%
%ADD28RoundRect,0.051000X-0.750000X0.500000X-0.750000X-0.500000X0.750000X-0.500000X0.750000X0.500000X0*%
%ADD29FreePoly1,270.000000*%
%ADD30FreePoly2,270.000000*%
%ADD31FreePoly3,270.000000*%
%ADD32RoundRect,0.250500X-0.275500X0.250500X-0.275500X-0.250500X0.275500X-0.250500X0.275500X0.250500X0*%
%ADD33RoundRect,0.225500X-0.300500X0.225500X-0.300500X-0.225500X0.300500X-0.225500X0.300500X0.225500X0*%
%ADD34RoundRect,0.272667X-0.340833X-1.478333X0.340833X-1.478333X0.340833X1.478333X-0.340833X1.478333X0*%
%ADD35RoundRect,0.250500X0.250500X0.275500X-0.250500X0.275500X-0.250500X-0.275500X0.250500X-0.275500X0*%
%ADD36RoundRect,0.250500X-0.250500X-0.275500X0.250500X-0.275500X0.250500X0.275500X-0.250500X0.275500X0*%
%ADD37RoundRect,0.225500X0.300500X-0.225500X0.300500X0.225500X-0.300500X0.225500X-0.300500X-0.225500X0*%
%ADD38RoundRect,0.272174X-0.353826X-1.128826X0.353826X-1.128826X0.353826X1.128826X-0.353826X1.128826X0*%
%ADD39FreePoly2,90.000000*%
%ADD40FreePoly3,90.000000*%
G04 APERTURE END LIST*
D10*
%TO.C,U6*%
X154220000Y-71300000D03*
D11*
X154220000Y-68760000D03*
X146600000Y-68760000D03*
X146600000Y-71300000D03*
%TD*%
D12*
%TO.C,U5*%
X132700000Y-74625000D03*
D11*
X132700000Y-77165000D03*
X140320000Y-77165000D03*
X140320000Y-74625000D03*
%TD*%
D13*
%TO.C,J3*%
X197025000Y-91000000D03*
D14*
X197025000Y-93540000D03*
X197025000Y-96080000D03*
X197025000Y-98620000D03*
X197025000Y-101160000D03*
%TD*%
D15*
%TO.C,J2*%
X140400000Y-99860000D03*
D14*
X142940000Y-99860000D03*
X145480000Y-99860000D03*
X148020000Y-99860000D03*
X150560000Y-99860000D03*
%TD*%
D16*
%TO.C,U2*%
X153660000Y-80400000D03*
D17*
X151120000Y-80400000D03*
X148580000Y-80400000D03*
X146040000Y-80400000D03*
X143500000Y-80400000D03*
X140960000Y-80400000D03*
X138420000Y-80400000D03*
X135880000Y-80400000D03*
X133340000Y-80400000D03*
X130800000Y-80400000D03*
X128260000Y-80400000D03*
X125720000Y-80400000D03*
X123180000Y-80400000D03*
X120640000Y-80400000D03*
X118100000Y-80400000D03*
X115560000Y-80400000D03*
X113020000Y-80400000D03*
X110480000Y-80400000D03*
X107940000Y-80400000D03*
X153660000Y-105800000D03*
X151120000Y-105800000D03*
X148580000Y-105800000D03*
X146040000Y-105800000D03*
X143500000Y-105800000D03*
X140960000Y-105800000D03*
X138420000Y-105800000D03*
X135880000Y-105800000D03*
X133340000Y-105800000D03*
X130800000Y-105800000D03*
X128260000Y-105800000D03*
X125720000Y-105800000D03*
X123180000Y-105800000D03*
X120640000Y-105800000D03*
X118100000Y-105800000D03*
X115560000Y-105800000D03*
X113020000Y-105800000D03*
X110480000Y-105800000D03*
X107940000Y-105800000D03*
%TD*%
D18*
%TO.C,MOD1*%
X108675000Y-133580000D03*
D19*
X113675000Y-133580000D03*
X118675000Y-133580000D03*
X123675000Y-133580000D03*
X128675000Y-133580000D03*
X133675000Y-133580000D03*
X138675000Y-133580000D03*
X143675000Y-133580000D03*
D18*
X158675000Y-133580000D03*
D19*
X163675000Y-133580000D03*
X168675000Y-133580000D03*
X173675000Y-133580000D03*
X178675000Y-133580000D03*
X183675000Y-133580000D03*
X188675000Y-133580000D03*
X193675000Y-133580000D03*
D20*
X193675000Y-61160000D03*
D19*
X188675000Y-61160000D03*
X183675000Y-61160000D03*
X178675000Y-61160000D03*
X173675000Y-61160000D03*
X168675000Y-61160000D03*
X163675000Y-61160000D03*
X158675000Y-61160000D03*
D20*
X143675000Y-61160000D03*
D19*
X138675000Y-61160000D03*
X133675000Y-61160000D03*
X128675000Y-61160000D03*
X123675000Y-61160000D03*
X118675000Y-61160000D03*
X113675000Y-61160000D03*
X108675000Y-61160000D03*
D21*
X105050000Y-71900000D03*
X197300000Y-71900000D03*
X105050000Y-122800000D03*
X197300000Y-122800000D03*
%TD*%
D13*
%TO.C,J1*%
X104100000Y-91000000D03*
D14*
X104100000Y-93540000D03*
X104100000Y-96080000D03*
X104100000Y-98620000D03*
X104100000Y-101160000D03*
%TD*%
D22*
%TO.C,U8*%
X112753000Y-74700000D03*
D23*
X115293000Y-74700000D03*
X117833000Y-74700000D03*
%TD*%
D10*
%TO.C,U7*%
X154220000Y-77100000D03*
D11*
X154220000Y-74560000D03*
X146600000Y-74560000D03*
X146600000Y-77100000D03*
%TD*%
D12*
%TO.C,U3*%
X132700000Y-68825000D03*
D11*
X132700000Y-71365000D03*
X140320000Y-71365000D03*
X140320000Y-68825000D03*
%TD*%
D24*
%TO.C,JP4*%
X140600000Y-90300000D03*
D25*
X140600000Y-89000000D03*
D26*
X140600000Y-87700000D03*
%TD*%
D27*
%TO.C,JP1*%
X163900000Y-90300000D03*
D28*
X163900000Y-91600000D03*
D29*
X163900000Y-92900000D03*
%TD*%
D27*
%TO.C,JP2*%
X167900000Y-90300000D03*
D28*
X167900000Y-91600000D03*
D29*
X167900000Y-92900000D03*
%TD*%
D30*
%TO.C,JP7*%
X134400000Y-98250000D03*
D31*
X134400000Y-99550000D03*
%TD*%
D32*
%TO.C,C5*%
X106000000Y-80425000D03*
X106000000Y-81975000D03*
%TD*%
D33*
%TO.C,R26*%
X126200000Y-85575000D03*
X126200000Y-87225000D03*
%TD*%
D30*
%TO.C,JP6*%
X131800000Y-98250000D03*
D31*
X131800000Y-99550000D03*
%TD*%
D33*
%TO.C,R27*%
X127700000Y-85575000D03*
X127700000Y-87225000D03*
%TD*%
D34*
%TO.C,F17*%
X109562500Y-68300000D03*
X113837500Y-68300000D03*
%TD*%
D35*
%TO.C,C2*%
X121075000Y-74700000D03*
X119525000Y-74700000D03*
%TD*%
D36*
%TO.C,C4*%
X155775000Y-80400000D03*
X157325000Y-80400000D03*
%TD*%
D33*
%TO.C,R23*%
X124700000Y-85575000D03*
X124700000Y-87225000D03*
%TD*%
D37*
%TO.C,R1*%
X111800000Y-113625000D03*
X111800000Y-111975000D03*
%TD*%
D33*
%TO.C,R22*%
X123200000Y-85575000D03*
X123200000Y-87225000D03*
%TD*%
D37*
%TO.C,R7*%
X154500000Y-113725000D03*
X154500000Y-112075000D03*
%TD*%
%TO.C,R3*%
X126200000Y-113725000D03*
X126200000Y-112075000D03*
%TD*%
D38*
%TO.C,C7*%
X117925000Y-77450000D03*
X120875000Y-77450000D03*
%TD*%
D39*
%TO.C,JP8*%
X137000000Y-99550000D03*
D40*
X137000000Y-98250000D03*
%TD*%
D37*
%TO.C,R4*%
X133300000Y-113825000D03*
X133300000Y-112175000D03*
%TD*%
D27*
%TO.C,JP3*%
X171900000Y-90300000D03*
D28*
X171900000Y-91600000D03*
D29*
X171900000Y-92900000D03*
%TD*%
D30*
%TO.C,JP5*%
X129300000Y-98250000D03*
D31*
X129300000Y-99550000D03*
%TD*%
D37*
%TO.C,R5*%
X140500000Y-113825000D03*
X140500000Y-112175000D03*
%TD*%
D38*
%TO.C,C6*%
X115875000Y-68200000D03*
X118825000Y-68200000D03*
%TD*%
D37*
%TO.C,R6*%
X147400000Y-113825000D03*
X147400000Y-112175000D03*
%TD*%
%TO.C,R2*%
X118900000Y-113825000D03*
X118900000Y-112175000D03*
%TD*%
M02*
