%TF.GenerationSoftware,KiCad,Pcbnew,7.0.10*%
%TF.CreationDate,2024-02-03T19:37:43+01:00*%
%TF.ProjectId,led_stairs_controller,6c65645f-7374-4616-9972-735f636f6e74,V0.1*%
%TF.SameCoordinates,Original*%
%TF.FileFunction,Soldermask,Bot*%
%TF.FilePolarity,Negative*%
%FSLAX46Y46*%
G04 Gerber Fmt 4.6, Leading zero omitted, Abs format (unit mm)*
G04 Created by KiCad (PCBNEW 7.0.10) date 2024-02-03 19:37:43*
%MOMM*%
%LPD*%
G01*
G04 APERTURE LIST*
G04 APERTURE END LIST*
G36*
X109994517Y-132232882D02*
G01*
X110011062Y-132243938D01*
X110022118Y-132260483D01*
X110026000Y-132280000D01*
X110026000Y-134880000D01*
X110022118Y-134899517D01*
X110011062Y-134916062D01*
X109994517Y-134927118D01*
X109975000Y-134931000D01*
X107375000Y-134931000D01*
X107355483Y-134927118D01*
X107338938Y-134916062D01*
X107327882Y-134899517D01*
X107324000Y-134880000D01*
X107324000Y-132280000D01*
X107327882Y-132260483D01*
X107338938Y-132243938D01*
X107355483Y-132232882D01*
X107375000Y-132229000D01*
X109975000Y-132229000D01*
X109994517Y-132232882D01*
G37*
G36*
X159994517Y-132232882D02*
G01*
X160011062Y-132243938D01*
X160022118Y-132260483D01*
X160026000Y-132280000D01*
X160026000Y-134880000D01*
X160022118Y-134899517D01*
X160011062Y-134916062D01*
X159994517Y-134927118D01*
X159975000Y-134931000D01*
X157375000Y-134931000D01*
X157355483Y-134927118D01*
X157338938Y-134916062D01*
X157327882Y-134899517D01*
X157324000Y-134880000D01*
X157324000Y-132280000D01*
X157327882Y-132260483D01*
X157338938Y-132243938D01*
X157355483Y-132232882D01*
X157375000Y-132229000D01*
X159975000Y-132229000D01*
X159994517Y-132232882D01*
G37*
G36*
X114006651Y-132270340D02*
G01*
X114217691Y-132342790D01*
X114413927Y-132448988D01*
X114590007Y-132586037D01*
X114741129Y-132750199D01*
X114863169Y-132936995D01*
X114952799Y-133141331D01*
X115007574Y-133357633D01*
X115026000Y-133580000D01*
X115007574Y-133802367D01*
X114952799Y-134018669D01*
X114863169Y-134223005D01*
X114741129Y-134409801D01*
X114590007Y-134573963D01*
X114413927Y-134711012D01*
X114217691Y-134817210D01*
X114006651Y-134889660D01*
X113786565Y-134926386D01*
X113563435Y-134926386D01*
X113343349Y-134889660D01*
X113132309Y-134817210D01*
X112936073Y-134711012D01*
X112759993Y-134573963D01*
X112608871Y-134409801D01*
X112486831Y-134223005D01*
X112397201Y-134018669D01*
X112342426Y-133802367D01*
X112324000Y-133580000D01*
X112342426Y-133357633D01*
X112397201Y-133141331D01*
X112486831Y-132936995D01*
X112608871Y-132750199D01*
X112759993Y-132586037D01*
X112936073Y-132448988D01*
X113132309Y-132342790D01*
X113343349Y-132270340D01*
X113563435Y-132233614D01*
X113786565Y-132233614D01*
X114006651Y-132270340D01*
G37*
G36*
X119006651Y-132270340D02*
G01*
X119217691Y-132342790D01*
X119413927Y-132448988D01*
X119590007Y-132586037D01*
X119741129Y-132750199D01*
X119863169Y-132936995D01*
X119952799Y-133141331D01*
X120007574Y-133357633D01*
X120026000Y-133580000D01*
X120007574Y-133802367D01*
X119952799Y-134018669D01*
X119863169Y-134223005D01*
X119741129Y-134409801D01*
X119590007Y-134573963D01*
X119413927Y-134711012D01*
X119217691Y-134817210D01*
X119006651Y-134889660D01*
X118786565Y-134926386D01*
X118563435Y-134926386D01*
X118343349Y-134889660D01*
X118132309Y-134817210D01*
X117936073Y-134711012D01*
X117759993Y-134573963D01*
X117608871Y-134409801D01*
X117486831Y-134223005D01*
X117397201Y-134018669D01*
X117342426Y-133802367D01*
X117324000Y-133580000D01*
X117342426Y-133357633D01*
X117397201Y-133141331D01*
X117486831Y-132936995D01*
X117608871Y-132750199D01*
X117759993Y-132586037D01*
X117936073Y-132448988D01*
X118132309Y-132342790D01*
X118343349Y-132270340D01*
X118563435Y-132233614D01*
X118786565Y-132233614D01*
X119006651Y-132270340D01*
G37*
G36*
X124006651Y-132270340D02*
G01*
X124217691Y-132342790D01*
X124413927Y-132448988D01*
X124590007Y-132586037D01*
X124741129Y-132750199D01*
X124863169Y-132936995D01*
X124952799Y-133141331D01*
X125007574Y-133357633D01*
X125026000Y-133580000D01*
X125007574Y-133802367D01*
X124952799Y-134018669D01*
X124863169Y-134223005D01*
X124741129Y-134409801D01*
X124590007Y-134573963D01*
X124413927Y-134711012D01*
X124217691Y-134817210D01*
X124006651Y-134889660D01*
X123786565Y-134926386D01*
X123563435Y-134926386D01*
X123343349Y-134889660D01*
X123132309Y-134817210D01*
X122936073Y-134711012D01*
X122759993Y-134573963D01*
X122608871Y-134409801D01*
X122486831Y-134223005D01*
X122397201Y-134018669D01*
X122342426Y-133802367D01*
X122324000Y-133580000D01*
X122342426Y-133357633D01*
X122397201Y-133141331D01*
X122486831Y-132936995D01*
X122608871Y-132750199D01*
X122759993Y-132586037D01*
X122936073Y-132448988D01*
X123132309Y-132342790D01*
X123343349Y-132270340D01*
X123563435Y-132233614D01*
X123786565Y-132233614D01*
X124006651Y-132270340D01*
G37*
G36*
X129006651Y-132270340D02*
G01*
X129217691Y-132342790D01*
X129413927Y-132448988D01*
X129590007Y-132586037D01*
X129741129Y-132750199D01*
X129863169Y-132936995D01*
X129952799Y-133141331D01*
X130007574Y-133357633D01*
X130026000Y-133580000D01*
X130007574Y-133802367D01*
X129952799Y-134018669D01*
X129863169Y-134223005D01*
X129741129Y-134409801D01*
X129590007Y-134573963D01*
X129413927Y-134711012D01*
X129217691Y-134817210D01*
X129006651Y-134889660D01*
X128786565Y-134926386D01*
X128563435Y-134926386D01*
X128343349Y-134889660D01*
X128132309Y-134817210D01*
X127936073Y-134711012D01*
X127759993Y-134573963D01*
X127608871Y-134409801D01*
X127486831Y-134223005D01*
X127397201Y-134018669D01*
X127342426Y-133802367D01*
X127324000Y-133580000D01*
X127342426Y-133357633D01*
X127397201Y-133141331D01*
X127486831Y-132936995D01*
X127608871Y-132750199D01*
X127759993Y-132586037D01*
X127936073Y-132448988D01*
X128132309Y-132342790D01*
X128343349Y-132270340D01*
X128563435Y-132233614D01*
X128786565Y-132233614D01*
X129006651Y-132270340D01*
G37*
G36*
X134006651Y-132270340D02*
G01*
X134217691Y-132342790D01*
X134413927Y-132448988D01*
X134590007Y-132586037D01*
X134741129Y-132750199D01*
X134863169Y-132936995D01*
X134952799Y-133141331D01*
X135007574Y-133357633D01*
X135026000Y-133580000D01*
X135007574Y-133802367D01*
X134952799Y-134018669D01*
X134863169Y-134223005D01*
X134741129Y-134409801D01*
X134590007Y-134573963D01*
X134413927Y-134711012D01*
X134217691Y-134817210D01*
X134006651Y-134889660D01*
X133786565Y-134926386D01*
X133563435Y-134926386D01*
X133343349Y-134889660D01*
X133132309Y-134817210D01*
X132936073Y-134711012D01*
X132759993Y-134573963D01*
X132608871Y-134409801D01*
X132486831Y-134223005D01*
X132397201Y-134018669D01*
X132342426Y-133802367D01*
X132324000Y-133580000D01*
X132342426Y-133357633D01*
X132397201Y-133141331D01*
X132486831Y-132936995D01*
X132608871Y-132750199D01*
X132759993Y-132586037D01*
X132936073Y-132448988D01*
X133132309Y-132342790D01*
X133343349Y-132270340D01*
X133563435Y-132233614D01*
X133786565Y-132233614D01*
X134006651Y-132270340D01*
G37*
G36*
X139006651Y-132270340D02*
G01*
X139217691Y-132342790D01*
X139413927Y-132448988D01*
X139590007Y-132586037D01*
X139741129Y-132750199D01*
X139863169Y-132936995D01*
X139952799Y-133141331D01*
X140007574Y-133357633D01*
X140026000Y-133580000D01*
X140007574Y-133802367D01*
X139952799Y-134018669D01*
X139863169Y-134223005D01*
X139741129Y-134409801D01*
X139590007Y-134573963D01*
X139413927Y-134711012D01*
X139217691Y-134817210D01*
X139006651Y-134889660D01*
X138786565Y-134926386D01*
X138563435Y-134926386D01*
X138343349Y-134889660D01*
X138132309Y-134817210D01*
X137936073Y-134711012D01*
X137759993Y-134573963D01*
X137608871Y-134409801D01*
X137486831Y-134223005D01*
X137397201Y-134018669D01*
X137342426Y-133802367D01*
X137324000Y-133580000D01*
X137342426Y-133357633D01*
X137397201Y-133141331D01*
X137486831Y-132936995D01*
X137608871Y-132750199D01*
X137759993Y-132586037D01*
X137936073Y-132448988D01*
X138132309Y-132342790D01*
X138343349Y-132270340D01*
X138563435Y-132233614D01*
X138786565Y-132233614D01*
X139006651Y-132270340D01*
G37*
G36*
X144006651Y-132270340D02*
G01*
X144217691Y-132342790D01*
X144413927Y-132448988D01*
X144590007Y-132586037D01*
X144741129Y-132750199D01*
X144863169Y-132936995D01*
X144952799Y-133141331D01*
X145007574Y-133357633D01*
X145026000Y-133580000D01*
X145007574Y-133802367D01*
X144952799Y-134018669D01*
X144863169Y-134223005D01*
X144741129Y-134409801D01*
X144590007Y-134573963D01*
X144413927Y-134711012D01*
X144217691Y-134817210D01*
X144006651Y-134889660D01*
X143786565Y-134926386D01*
X143563435Y-134926386D01*
X143343349Y-134889660D01*
X143132309Y-134817210D01*
X142936073Y-134711012D01*
X142759993Y-134573963D01*
X142608871Y-134409801D01*
X142486831Y-134223005D01*
X142397201Y-134018669D01*
X142342426Y-133802367D01*
X142324000Y-133580000D01*
X142342426Y-133357633D01*
X142397201Y-133141331D01*
X142486831Y-132936995D01*
X142608871Y-132750199D01*
X142759993Y-132586037D01*
X142936073Y-132448988D01*
X143132309Y-132342790D01*
X143343349Y-132270340D01*
X143563435Y-132233614D01*
X143786565Y-132233614D01*
X144006651Y-132270340D01*
G37*
G36*
X164006651Y-132270340D02*
G01*
X164217691Y-132342790D01*
X164413927Y-132448988D01*
X164590007Y-132586037D01*
X164741129Y-132750199D01*
X164863169Y-132936995D01*
X164952799Y-133141331D01*
X165007574Y-133357633D01*
X165026000Y-133580000D01*
X165007574Y-133802367D01*
X164952799Y-134018669D01*
X164863169Y-134223005D01*
X164741129Y-134409801D01*
X164590007Y-134573963D01*
X164413927Y-134711012D01*
X164217691Y-134817210D01*
X164006651Y-134889660D01*
X163786565Y-134926386D01*
X163563435Y-134926386D01*
X163343349Y-134889660D01*
X163132309Y-134817210D01*
X162936073Y-134711012D01*
X162759993Y-134573963D01*
X162608871Y-134409801D01*
X162486831Y-134223005D01*
X162397201Y-134018669D01*
X162342426Y-133802367D01*
X162324000Y-133580000D01*
X162342426Y-133357633D01*
X162397201Y-133141331D01*
X162486831Y-132936995D01*
X162608871Y-132750199D01*
X162759993Y-132586037D01*
X162936073Y-132448988D01*
X163132309Y-132342790D01*
X163343349Y-132270340D01*
X163563435Y-132233614D01*
X163786565Y-132233614D01*
X164006651Y-132270340D01*
G37*
G36*
X169006651Y-132270340D02*
G01*
X169217691Y-132342790D01*
X169413927Y-132448988D01*
X169590007Y-132586037D01*
X169741129Y-132750199D01*
X169863169Y-132936995D01*
X169952799Y-133141331D01*
X170007574Y-133357633D01*
X170026000Y-133580000D01*
X170007574Y-133802367D01*
X169952799Y-134018669D01*
X169863169Y-134223005D01*
X169741129Y-134409801D01*
X169590007Y-134573963D01*
X169413927Y-134711012D01*
X169217691Y-134817210D01*
X169006651Y-134889660D01*
X168786565Y-134926386D01*
X168563435Y-134926386D01*
X168343349Y-134889660D01*
X168132309Y-134817210D01*
X167936073Y-134711012D01*
X167759993Y-134573963D01*
X167608871Y-134409801D01*
X167486831Y-134223005D01*
X167397201Y-134018669D01*
X167342426Y-133802367D01*
X167324000Y-133580000D01*
X167342426Y-133357633D01*
X167397201Y-133141331D01*
X167486831Y-132936995D01*
X167608871Y-132750199D01*
X167759993Y-132586037D01*
X167936073Y-132448988D01*
X168132309Y-132342790D01*
X168343349Y-132270340D01*
X168563435Y-132233614D01*
X168786565Y-132233614D01*
X169006651Y-132270340D01*
G37*
G36*
X174006651Y-132270340D02*
G01*
X174217691Y-132342790D01*
X174413927Y-132448988D01*
X174590007Y-132586037D01*
X174741129Y-132750199D01*
X174863169Y-132936995D01*
X174952799Y-133141331D01*
X175007574Y-133357633D01*
X175026000Y-133580000D01*
X175007574Y-133802367D01*
X174952799Y-134018669D01*
X174863169Y-134223005D01*
X174741129Y-134409801D01*
X174590007Y-134573963D01*
X174413927Y-134711012D01*
X174217691Y-134817210D01*
X174006651Y-134889660D01*
X173786565Y-134926386D01*
X173563435Y-134926386D01*
X173343349Y-134889660D01*
X173132309Y-134817210D01*
X172936073Y-134711012D01*
X172759993Y-134573963D01*
X172608871Y-134409801D01*
X172486831Y-134223005D01*
X172397201Y-134018669D01*
X172342426Y-133802367D01*
X172324000Y-133580000D01*
X172342426Y-133357633D01*
X172397201Y-133141331D01*
X172486831Y-132936995D01*
X172608871Y-132750199D01*
X172759993Y-132586037D01*
X172936073Y-132448988D01*
X173132309Y-132342790D01*
X173343349Y-132270340D01*
X173563435Y-132233614D01*
X173786565Y-132233614D01*
X174006651Y-132270340D01*
G37*
G36*
X179006651Y-132270340D02*
G01*
X179217691Y-132342790D01*
X179413927Y-132448988D01*
X179590007Y-132586037D01*
X179741129Y-132750199D01*
X179863169Y-132936995D01*
X179952799Y-133141331D01*
X180007574Y-133357633D01*
X180026000Y-133580000D01*
X180007574Y-133802367D01*
X179952799Y-134018669D01*
X179863169Y-134223005D01*
X179741129Y-134409801D01*
X179590007Y-134573963D01*
X179413927Y-134711012D01*
X179217691Y-134817210D01*
X179006651Y-134889660D01*
X178786565Y-134926386D01*
X178563435Y-134926386D01*
X178343349Y-134889660D01*
X178132309Y-134817210D01*
X177936073Y-134711012D01*
X177759993Y-134573963D01*
X177608871Y-134409801D01*
X177486831Y-134223005D01*
X177397201Y-134018669D01*
X177342426Y-133802367D01*
X177324000Y-133580000D01*
X177342426Y-133357633D01*
X177397201Y-133141331D01*
X177486831Y-132936995D01*
X177608871Y-132750199D01*
X177759993Y-132586037D01*
X177936073Y-132448988D01*
X178132309Y-132342790D01*
X178343349Y-132270340D01*
X178563435Y-132233614D01*
X178786565Y-132233614D01*
X179006651Y-132270340D01*
G37*
G36*
X184006651Y-132270340D02*
G01*
X184217691Y-132342790D01*
X184413927Y-132448988D01*
X184590007Y-132586037D01*
X184741129Y-132750199D01*
X184863169Y-132936995D01*
X184952799Y-133141331D01*
X185007574Y-133357633D01*
X185026000Y-133580000D01*
X185007574Y-133802367D01*
X184952799Y-134018669D01*
X184863169Y-134223005D01*
X184741129Y-134409801D01*
X184590007Y-134573963D01*
X184413927Y-134711012D01*
X184217691Y-134817210D01*
X184006651Y-134889660D01*
X183786565Y-134926386D01*
X183563435Y-134926386D01*
X183343349Y-134889660D01*
X183132309Y-134817210D01*
X182936073Y-134711012D01*
X182759993Y-134573963D01*
X182608871Y-134409801D01*
X182486831Y-134223005D01*
X182397201Y-134018669D01*
X182342426Y-133802367D01*
X182324000Y-133580000D01*
X182342426Y-133357633D01*
X182397201Y-133141331D01*
X182486831Y-132936995D01*
X182608871Y-132750199D01*
X182759993Y-132586037D01*
X182936073Y-132448988D01*
X183132309Y-132342790D01*
X183343349Y-132270340D01*
X183563435Y-132233614D01*
X183786565Y-132233614D01*
X184006651Y-132270340D01*
G37*
G36*
X189006651Y-132270340D02*
G01*
X189217691Y-132342790D01*
X189413927Y-132448988D01*
X189590007Y-132586037D01*
X189741129Y-132750199D01*
X189863169Y-132936995D01*
X189952799Y-133141331D01*
X190007574Y-133357633D01*
X190026000Y-133580000D01*
X190007574Y-133802367D01*
X189952799Y-134018669D01*
X189863169Y-134223005D01*
X189741129Y-134409801D01*
X189590007Y-134573963D01*
X189413927Y-134711012D01*
X189217691Y-134817210D01*
X189006651Y-134889660D01*
X188786565Y-134926386D01*
X188563435Y-134926386D01*
X188343349Y-134889660D01*
X188132309Y-134817210D01*
X187936073Y-134711012D01*
X187759993Y-134573963D01*
X187608871Y-134409801D01*
X187486831Y-134223005D01*
X187397201Y-134018669D01*
X187342426Y-133802367D01*
X187324000Y-133580000D01*
X187342426Y-133357633D01*
X187397201Y-133141331D01*
X187486831Y-132936995D01*
X187608871Y-132750199D01*
X187759993Y-132586037D01*
X187936073Y-132448988D01*
X188132309Y-132342790D01*
X188343349Y-132270340D01*
X188563435Y-132233614D01*
X188786565Y-132233614D01*
X189006651Y-132270340D01*
G37*
G36*
X194006651Y-132270340D02*
G01*
X194217691Y-132342790D01*
X194413927Y-132448988D01*
X194590007Y-132586037D01*
X194741129Y-132750199D01*
X194863169Y-132936995D01*
X194952799Y-133141331D01*
X195007574Y-133357633D01*
X195026000Y-133580000D01*
X195007574Y-133802367D01*
X194952799Y-134018669D01*
X194863169Y-134223005D01*
X194741129Y-134409801D01*
X194590007Y-134573963D01*
X194413927Y-134711012D01*
X194217691Y-134817210D01*
X194006651Y-134889660D01*
X193786565Y-134926386D01*
X193563435Y-134926386D01*
X193343349Y-134889660D01*
X193132309Y-134817210D01*
X192936073Y-134711012D01*
X192759993Y-134573963D01*
X192608871Y-134409801D01*
X192486831Y-134223005D01*
X192397201Y-134018669D01*
X192342426Y-133802367D01*
X192324000Y-133580000D01*
X192342426Y-133357633D01*
X192397201Y-133141331D01*
X192486831Y-132936995D01*
X192608871Y-132750199D01*
X192759993Y-132586037D01*
X192936073Y-132448988D01*
X193132309Y-132342790D01*
X193343349Y-132270340D01*
X193563435Y-132233614D01*
X193786565Y-132233614D01*
X194006651Y-132270340D01*
G37*
G36*
X105391604Y-119768184D02*
G01*
X105728911Y-119825495D01*
X106057681Y-119920212D01*
X106373779Y-120051144D01*
X106673230Y-120216644D01*
X106952267Y-120414632D01*
X107207383Y-120642617D01*
X107435368Y-120897733D01*
X107633356Y-121176770D01*
X107798856Y-121476221D01*
X107929788Y-121792319D01*
X108024505Y-122121089D01*
X108081816Y-122458396D01*
X108101000Y-122800000D01*
X108081816Y-123141604D01*
X108024505Y-123478911D01*
X107929788Y-123807681D01*
X107798856Y-124123779D01*
X107633356Y-124423230D01*
X107435368Y-124702267D01*
X107207383Y-124957383D01*
X106952267Y-125185368D01*
X106673230Y-125383356D01*
X106373779Y-125548856D01*
X106057681Y-125679788D01*
X105728911Y-125774505D01*
X105391604Y-125831816D01*
X105050000Y-125851000D01*
X104708396Y-125831816D01*
X104371089Y-125774505D01*
X104042319Y-125679788D01*
X103726221Y-125548856D01*
X103426770Y-125383356D01*
X103147733Y-125185368D01*
X102892617Y-124957383D01*
X102664632Y-124702267D01*
X102466644Y-124423230D01*
X102301144Y-124123779D01*
X102170212Y-123807681D01*
X102075495Y-123478911D01*
X102018184Y-123141604D01*
X101999000Y-122800000D01*
X102018184Y-122458396D01*
X102075495Y-122121089D01*
X102170212Y-121792319D01*
X102301144Y-121476221D01*
X102466644Y-121176770D01*
X102664632Y-120897733D01*
X102892617Y-120642617D01*
X103147733Y-120414632D01*
X103426770Y-120216644D01*
X103726221Y-120051144D01*
X104042319Y-119920212D01*
X104371089Y-119825495D01*
X104708396Y-119768184D01*
X105050000Y-119749000D01*
X105391604Y-119768184D01*
G37*
G36*
X197641604Y-119768184D02*
G01*
X197978911Y-119825495D01*
X198307681Y-119920212D01*
X198623779Y-120051144D01*
X198923230Y-120216644D01*
X199202267Y-120414632D01*
X199457383Y-120642617D01*
X199685368Y-120897733D01*
X199883356Y-121176770D01*
X200048856Y-121476221D01*
X200179788Y-121792319D01*
X200274505Y-122121089D01*
X200331816Y-122458396D01*
X200351000Y-122800000D01*
X200331816Y-123141604D01*
X200274505Y-123478911D01*
X200179788Y-123807681D01*
X200048856Y-124123779D01*
X199883356Y-124423230D01*
X199685368Y-124702267D01*
X199457383Y-124957383D01*
X199202267Y-125185368D01*
X198923230Y-125383356D01*
X198623779Y-125548856D01*
X198307681Y-125679788D01*
X197978911Y-125774505D01*
X197641604Y-125831816D01*
X197300000Y-125851000D01*
X196958396Y-125831816D01*
X196621089Y-125774505D01*
X196292319Y-125679788D01*
X195976221Y-125548856D01*
X195676770Y-125383356D01*
X195397733Y-125185368D01*
X195142617Y-124957383D01*
X194914632Y-124702267D01*
X194716644Y-124423230D01*
X194551144Y-124123779D01*
X194420212Y-123807681D01*
X194325495Y-123478911D01*
X194268184Y-123141604D01*
X194249000Y-122800000D01*
X194268184Y-122458396D01*
X194325495Y-122121089D01*
X194420212Y-121792319D01*
X194551144Y-121476221D01*
X194716644Y-121176770D01*
X194914632Y-120897733D01*
X195142617Y-120642617D01*
X195397733Y-120414632D01*
X195676770Y-120216644D01*
X195976221Y-120051144D01*
X196292319Y-119920212D01*
X196621089Y-119825495D01*
X196958396Y-119768184D01*
X197300000Y-119749000D01*
X197641604Y-119768184D01*
G37*
G36*
X119179047Y-113374805D02*
G01*
X119230637Y-113380790D01*
X119248262Y-113388572D01*
X119271054Y-113393106D01*
X119295455Y-113409410D01*
X119316358Y-113418640D01*
X119330634Y-113432916D01*
X119352484Y-113447516D01*
X119367083Y-113469365D01*
X119381359Y-113483641D01*
X119390588Y-113504542D01*
X119406894Y-113528946D01*
X119411427Y-113551739D01*
X119419209Y-113569362D01*
X119425192Y-113620942D01*
X119426000Y-113625000D01*
X119426000Y-114025000D01*
X119425192Y-114029059D01*
X119419209Y-114080637D01*
X119411428Y-114098258D01*
X119406894Y-114121054D01*
X119390586Y-114145459D01*
X119381359Y-114166358D01*
X119367085Y-114180631D01*
X119352484Y-114202484D01*
X119330631Y-114217085D01*
X119316358Y-114231359D01*
X119295459Y-114240586D01*
X119271054Y-114256894D01*
X119248258Y-114261428D01*
X119230637Y-114269209D01*
X119179059Y-114275192D01*
X119175000Y-114276000D01*
X118625000Y-114276000D01*
X118620942Y-114275192D01*
X118569362Y-114269209D01*
X118551739Y-114261427D01*
X118528946Y-114256894D01*
X118504542Y-114240588D01*
X118483641Y-114231359D01*
X118469365Y-114217083D01*
X118447516Y-114202484D01*
X118432916Y-114180634D01*
X118418640Y-114166358D01*
X118409410Y-114145455D01*
X118393106Y-114121054D01*
X118388572Y-114098262D01*
X118380790Y-114080637D01*
X118374805Y-114029047D01*
X118374000Y-114025000D01*
X118374000Y-113625000D01*
X118374804Y-113620954D01*
X118380790Y-113569362D01*
X118388572Y-113551735D01*
X118393106Y-113528946D01*
X118409409Y-113504546D01*
X118418640Y-113483641D01*
X118432918Y-113469362D01*
X118447516Y-113447516D01*
X118469362Y-113432918D01*
X118483641Y-113418640D01*
X118504546Y-113409409D01*
X118528946Y-113393106D01*
X118551735Y-113388572D01*
X118569362Y-113380790D01*
X118620954Y-113374804D01*
X118625000Y-113374000D01*
X119175000Y-113374000D01*
X119179047Y-113374805D01*
G37*
G36*
X133579047Y-113374805D02*
G01*
X133630637Y-113380790D01*
X133648262Y-113388572D01*
X133671054Y-113393106D01*
X133695455Y-113409410D01*
X133716358Y-113418640D01*
X133730634Y-113432916D01*
X133752484Y-113447516D01*
X133767083Y-113469365D01*
X133781359Y-113483641D01*
X133790588Y-113504542D01*
X133806894Y-113528946D01*
X133811427Y-113551739D01*
X133819209Y-113569362D01*
X133825192Y-113620942D01*
X133826000Y-113625000D01*
X133826000Y-114025000D01*
X133825192Y-114029059D01*
X133819209Y-114080637D01*
X133811428Y-114098258D01*
X133806894Y-114121054D01*
X133790586Y-114145459D01*
X133781359Y-114166358D01*
X133767085Y-114180631D01*
X133752484Y-114202484D01*
X133730631Y-114217085D01*
X133716358Y-114231359D01*
X133695459Y-114240586D01*
X133671054Y-114256894D01*
X133648258Y-114261428D01*
X133630637Y-114269209D01*
X133579059Y-114275192D01*
X133575000Y-114276000D01*
X133025000Y-114276000D01*
X133020942Y-114275192D01*
X132969362Y-114269209D01*
X132951739Y-114261427D01*
X132928946Y-114256894D01*
X132904542Y-114240588D01*
X132883641Y-114231359D01*
X132869365Y-114217083D01*
X132847516Y-114202484D01*
X132832916Y-114180634D01*
X132818640Y-114166358D01*
X132809410Y-114145455D01*
X132793106Y-114121054D01*
X132788572Y-114098262D01*
X132780790Y-114080637D01*
X132774805Y-114029047D01*
X132774000Y-114025000D01*
X132774000Y-113625000D01*
X132774804Y-113620954D01*
X132780790Y-113569362D01*
X132788572Y-113551735D01*
X132793106Y-113528946D01*
X132809409Y-113504546D01*
X132818640Y-113483641D01*
X132832918Y-113469362D01*
X132847516Y-113447516D01*
X132869362Y-113432918D01*
X132883641Y-113418640D01*
X132904546Y-113409409D01*
X132928946Y-113393106D01*
X132951735Y-113388572D01*
X132969362Y-113380790D01*
X133020954Y-113374804D01*
X133025000Y-113374000D01*
X133575000Y-113374000D01*
X133579047Y-113374805D01*
G37*
G36*
X140779047Y-113374805D02*
G01*
X140830637Y-113380790D01*
X140848262Y-113388572D01*
X140871054Y-113393106D01*
X140895455Y-113409410D01*
X140916358Y-113418640D01*
X140930634Y-113432916D01*
X140952484Y-113447516D01*
X140967083Y-113469365D01*
X140981359Y-113483641D01*
X140990588Y-113504542D01*
X141006894Y-113528946D01*
X141011427Y-113551739D01*
X141019209Y-113569362D01*
X141025192Y-113620942D01*
X141026000Y-113625000D01*
X141026000Y-114025000D01*
X141025192Y-114029059D01*
X141019209Y-114080637D01*
X141011428Y-114098258D01*
X141006894Y-114121054D01*
X140990586Y-114145459D01*
X140981359Y-114166358D01*
X140967085Y-114180631D01*
X140952484Y-114202484D01*
X140930631Y-114217085D01*
X140916358Y-114231359D01*
X140895459Y-114240586D01*
X140871054Y-114256894D01*
X140848258Y-114261428D01*
X140830637Y-114269209D01*
X140779059Y-114275192D01*
X140775000Y-114276000D01*
X140225000Y-114276000D01*
X140220942Y-114275192D01*
X140169362Y-114269209D01*
X140151739Y-114261427D01*
X140128946Y-114256894D01*
X140104542Y-114240588D01*
X140083641Y-114231359D01*
X140069365Y-114217083D01*
X140047516Y-114202484D01*
X140032916Y-114180634D01*
X140018640Y-114166358D01*
X140009410Y-114145455D01*
X139993106Y-114121054D01*
X139988572Y-114098262D01*
X139980790Y-114080637D01*
X139974805Y-114029047D01*
X139974000Y-114025000D01*
X139974000Y-113625000D01*
X139974804Y-113620954D01*
X139980790Y-113569362D01*
X139988572Y-113551735D01*
X139993106Y-113528946D01*
X140009409Y-113504546D01*
X140018640Y-113483641D01*
X140032918Y-113469362D01*
X140047516Y-113447516D01*
X140069362Y-113432918D01*
X140083641Y-113418640D01*
X140104546Y-113409409D01*
X140128946Y-113393106D01*
X140151735Y-113388572D01*
X140169362Y-113380790D01*
X140220954Y-113374804D01*
X140225000Y-113374000D01*
X140775000Y-113374000D01*
X140779047Y-113374805D01*
G37*
G36*
X147679047Y-113374805D02*
G01*
X147730637Y-113380790D01*
X147748262Y-113388572D01*
X147771054Y-113393106D01*
X147795455Y-113409410D01*
X147816358Y-113418640D01*
X147830634Y-113432916D01*
X147852484Y-113447516D01*
X147867083Y-113469365D01*
X147881359Y-113483641D01*
X147890588Y-113504542D01*
X147906894Y-113528946D01*
X147911427Y-113551739D01*
X147919209Y-113569362D01*
X147925192Y-113620942D01*
X147926000Y-113625000D01*
X147926000Y-114025000D01*
X147925192Y-114029059D01*
X147919209Y-114080637D01*
X147911428Y-114098258D01*
X147906894Y-114121054D01*
X147890586Y-114145459D01*
X147881359Y-114166358D01*
X147867085Y-114180631D01*
X147852484Y-114202484D01*
X147830631Y-114217085D01*
X147816358Y-114231359D01*
X147795459Y-114240586D01*
X147771054Y-114256894D01*
X147748258Y-114261428D01*
X147730637Y-114269209D01*
X147679059Y-114275192D01*
X147675000Y-114276000D01*
X147125000Y-114276000D01*
X147120942Y-114275192D01*
X147069362Y-114269209D01*
X147051739Y-114261427D01*
X147028946Y-114256894D01*
X147004542Y-114240588D01*
X146983641Y-114231359D01*
X146969365Y-114217083D01*
X146947516Y-114202484D01*
X146932916Y-114180634D01*
X146918640Y-114166358D01*
X146909410Y-114145455D01*
X146893106Y-114121054D01*
X146888572Y-114098262D01*
X146880790Y-114080637D01*
X146874805Y-114029047D01*
X146874000Y-114025000D01*
X146874000Y-113625000D01*
X146874804Y-113620954D01*
X146880790Y-113569362D01*
X146888572Y-113551735D01*
X146893106Y-113528946D01*
X146909409Y-113504546D01*
X146918640Y-113483641D01*
X146932918Y-113469362D01*
X146947516Y-113447516D01*
X146969362Y-113432918D01*
X146983641Y-113418640D01*
X147004546Y-113409409D01*
X147028946Y-113393106D01*
X147051735Y-113388572D01*
X147069362Y-113380790D01*
X147120954Y-113374804D01*
X147125000Y-113374000D01*
X147675000Y-113374000D01*
X147679047Y-113374805D01*
G37*
G36*
X126479047Y-113274805D02*
G01*
X126530637Y-113280790D01*
X126548262Y-113288572D01*
X126571054Y-113293106D01*
X126595455Y-113309410D01*
X126616358Y-113318640D01*
X126630634Y-113332916D01*
X126652484Y-113347516D01*
X126667083Y-113369365D01*
X126681359Y-113383641D01*
X126690588Y-113404542D01*
X126706894Y-113428946D01*
X126711427Y-113451739D01*
X126719209Y-113469362D01*
X126725192Y-113520942D01*
X126726000Y-113525000D01*
X126726000Y-113925000D01*
X126725192Y-113929059D01*
X126719209Y-113980637D01*
X126711428Y-113998258D01*
X126706894Y-114021054D01*
X126690586Y-114045459D01*
X126681359Y-114066358D01*
X126667085Y-114080631D01*
X126652484Y-114102484D01*
X126630631Y-114117085D01*
X126616358Y-114131359D01*
X126595459Y-114140586D01*
X126571054Y-114156894D01*
X126548258Y-114161428D01*
X126530637Y-114169209D01*
X126479059Y-114175192D01*
X126475000Y-114176000D01*
X125925000Y-114176000D01*
X125920942Y-114175192D01*
X125869362Y-114169209D01*
X125851739Y-114161427D01*
X125828946Y-114156894D01*
X125804542Y-114140588D01*
X125783641Y-114131359D01*
X125769365Y-114117083D01*
X125747516Y-114102484D01*
X125732916Y-114080634D01*
X125718640Y-114066358D01*
X125709410Y-114045455D01*
X125693106Y-114021054D01*
X125688572Y-113998262D01*
X125680790Y-113980637D01*
X125674805Y-113929047D01*
X125674000Y-113925000D01*
X125674000Y-113525000D01*
X125674804Y-113520954D01*
X125680790Y-113469362D01*
X125688572Y-113451735D01*
X125693106Y-113428946D01*
X125709409Y-113404546D01*
X125718640Y-113383641D01*
X125732918Y-113369362D01*
X125747516Y-113347516D01*
X125769362Y-113332918D01*
X125783641Y-113318640D01*
X125804546Y-113309409D01*
X125828946Y-113293106D01*
X125851735Y-113288572D01*
X125869362Y-113280790D01*
X125920954Y-113274804D01*
X125925000Y-113274000D01*
X126475000Y-113274000D01*
X126479047Y-113274805D01*
G37*
G36*
X154779047Y-113274805D02*
G01*
X154830637Y-113280790D01*
X154848262Y-113288572D01*
X154871054Y-113293106D01*
X154895455Y-113309410D01*
X154916358Y-113318640D01*
X154930634Y-113332916D01*
X154952484Y-113347516D01*
X154967083Y-113369365D01*
X154981359Y-113383641D01*
X154990588Y-113404542D01*
X155006894Y-113428946D01*
X155011427Y-113451739D01*
X155019209Y-113469362D01*
X155025192Y-113520942D01*
X155026000Y-113525000D01*
X155026000Y-113925000D01*
X155025192Y-113929059D01*
X155019209Y-113980637D01*
X155011428Y-113998258D01*
X155006894Y-114021054D01*
X154990586Y-114045459D01*
X154981359Y-114066358D01*
X154967085Y-114080631D01*
X154952484Y-114102484D01*
X154930631Y-114117085D01*
X154916358Y-114131359D01*
X154895459Y-114140586D01*
X154871054Y-114156894D01*
X154848258Y-114161428D01*
X154830637Y-114169209D01*
X154779059Y-114175192D01*
X154775000Y-114176000D01*
X154225000Y-114176000D01*
X154220942Y-114175192D01*
X154169362Y-114169209D01*
X154151739Y-114161427D01*
X154128946Y-114156894D01*
X154104542Y-114140588D01*
X154083641Y-114131359D01*
X154069365Y-114117083D01*
X154047516Y-114102484D01*
X154032916Y-114080634D01*
X154018640Y-114066358D01*
X154009410Y-114045455D01*
X153993106Y-114021054D01*
X153988572Y-113998262D01*
X153980790Y-113980637D01*
X153974805Y-113929047D01*
X153974000Y-113925000D01*
X153974000Y-113525000D01*
X153974804Y-113520954D01*
X153980790Y-113469362D01*
X153988572Y-113451735D01*
X153993106Y-113428946D01*
X154009409Y-113404546D01*
X154018640Y-113383641D01*
X154032918Y-113369362D01*
X154047516Y-113347516D01*
X154069362Y-113332918D01*
X154083641Y-113318640D01*
X154104546Y-113309409D01*
X154128946Y-113293106D01*
X154151735Y-113288572D01*
X154169362Y-113280790D01*
X154220954Y-113274804D01*
X154225000Y-113274000D01*
X154775000Y-113274000D01*
X154779047Y-113274805D01*
G37*
G36*
X112079047Y-113174805D02*
G01*
X112130637Y-113180790D01*
X112148262Y-113188572D01*
X112171054Y-113193106D01*
X112195455Y-113209410D01*
X112216358Y-113218640D01*
X112230634Y-113232916D01*
X112252484Y-113247516D01*
X112267083Y-113269365D01*
X112281359Y-113283641D01*
X112290588Y-113304542D01*
X112306894Y-113328946D01*
X112311427Y-113351739D01*
X112319209Y-113369362D01*
X112325192Y-113420942D01*
X112326000Y-113425000D01*
X112326000Y-113825000D01*
X112325192Y-113829059D01*
X112319209Y-113880637D01*
X112311428Y-113898258D01*
X112306894Y-113921054D01*
X112290586Y-113945459D01*
X112281359Y-113966358D01*
X112267085Y-113980631D01*
X112252484Y-114002484D01*
X112230631Y-114017085D01*
X112216358Y-114031359D01*
X112195459Y-114040586D01*
X112171054Y-114056894D01*
X112148258Y-114061428D01*
X112130637Y-114069209D01*
X112079059Y-114075192D01*
X112075000Y-114076000D01*
X111525000Y-114076000D01*
X111520942Y-114075192D01*
X111469362Y-114069209D01*
X111451739Y-114061427D01*
X111428946Y-114056894D01*
X111404542Y-114040588D01*
X111383641Y-114031359D01*
X111369365Y-114017083D01*
X111347516Y-114002484D01*
X111332916Y-113980634D01*
X111318640Y-113966358D01*
X111309410Y-113945455D01*
X111293106Y-113921054D01*
X111288572Y-113898262D01*
X111280790Y-113880637D01*
X111274805Y-113829047D01*
X111274000Y-113825000D01*
X111274000Y-113425000D01*
X111274804Y-113420954D01*
X111280790Y-113369362D01*
X111288572Y-113351735D01*
X111293106Y-113328946D01*
X111309409Y-113304546D01*
X111318640Y-113283641D01*
X111332918Y-113269362D01*
X111347516Y-113247516D01*
X111369362Y-113232918D01*
X111383641Y-113218640D01*
X111404546Y-113209409D01*
X111428946Y-113193106D01*
X111451735Y-113188572D01*
X111469362Y-113180790D01*
X111520954Y-113174804D01*
X111525000Y-113174000D01*
X112075000Y-113174000D01*
X112079047Y-113174805D01*
G37*
G36*
X119179047Y-111724805D02*
G01*
X119230637Y-111730790D01*
X119248262Y-111738572D01*
X119271054Y-111743106D01*
X119295455Y-111759410D01*
X119316358Y-111768640D01*
X119330634Y-111782916D01*
X119352484Y-111797516D01*
X119367083Y-111819365D01*
X119381359Y-111833641D01*
X119390588Y-111854542D01*
X119406894Y-111878946D01*
X119411427Y-111901739D01*
X119419209Y-111919362D01*
X119425192Y-111970942D01*
X119426000Y-111975000D01*
X119426000Y-112375000D01*
X119425192Y-112379059D01*
X119419209Y-112430637D01*
X119411428Y-112448258D01*
X119406894Y-112471054D01*
X119390586Y-112495459D01*
X119381359Y-112516358D01*
X119367085Y-112530631D01*
X119352484Y-112552484D01*
X119330631Y-112567085D01*
X119316358Y-112581359D01*
X119295459Y-112590586D01*
X119271054Y-112606894D01*
X119248258Y-112611428D01*
X119230637Y-112619209D01*
X119179059Y-112625192D01*
X119175000Y-112626000D01*
X118625000Y-112626000D01*
X118620942Y-112625192D01*
X118569362Y-112619209D01*
X118551739Y-112611427D01*
X118528946Y-112606894D01*
X118504542Y-112590588D01*
X118483641Y-112581359D01*
X118469365Y-112567083D01*
X118447516Y-112552484D01*
X118432916Y-112530634D01*
X118418640Y-112516358D01*
X118409410Y-112495455D01*
X118393106Y-112471054D01*
X118388572Y-112448262D01*
X118380790Y-112430637D01*
X118374805Y-112379047D01*
X118374000Y-112375000D01*
X118374000Y-111975000D01*
X118374804Y-111970954D01*
X118380790Y-111919362D01*
X118388572Y-111901735D01*
X118393106Y-111878946D01*
X118409409Y-111854546D01*
X118418640Y-111833641D01*
X118432918Y-111819362D01*
X118447516Y-111797516D01*
X118469362Y-111782918D01*
X118483641Y-111768640D01*
X118504546Y-111759409D01*
X118528946Y-111743106D01*
X118551735Y-111738572D01*
X118569362Y-111730790D01*
X118620954Y-111724804D01*
X118625000Y-111724000D01*
X119175000Y-111724000D01*
X119179047Y-111724805D01*
G37*
G36*
X133579047Y-111724805D02*
G01*
X133630637Y-111730790D01*
X133648262Y-111738572D01*
X133671054Y-111743106D01*
X133695455Y-111759410D01*
X133716358Y-111768640D01*
X133730634Y-111782916D01*
X133752484Y-111797516D01*
X133767083Y-111819365D01*
X133781359Y-111833641D01*
X133790588Y-111854542D01*
X133806894Y-111878946D01*
X133811427Y-111901739D01*
X133819209Y-111919362D01*
X133825192Y-111970942D01*
X133826000Y-111975000D01*
X133826000Y-112375000D01*
X133825192Y-112379059D01*
X133819209Y-112430637D01*
X133811428Y-112448258D01*
X133806894Y-112471054D01*
X133790586Y-112495459D01*
X133781359Y-112516358D01*
X133767085Y-112530631D01*
X133752484Y-112552484D01*
X133730631Y-112567085D01*
X133716358Y-112581359D01*
X133695459Y-112590586D01*
X133671054Y-112606894D01*
X133648258Y-112611428D01*
X133630637Y-112619209D01*
X133579059Y-112625192D01*
X133575000Y-112626000D01*
X133025000Y-112626000D01*
X133020942Y-112625192D01*
X132969362Y-112619209D01*
X132951739Y-112611427D01*
X132928946Y-112606894D01*
X132904542Y-112590588D01*
X132883641Y-112581359D01*
X132869365Y-112567083D01*
X132847516Y-112552484D01*
X132832916Y-112530634D01*
X132818640Y-112516358D01*
X132809410Y-112495455D01*
X132793106Y-112471054D01*
X132788572Y-112448262D01*
X132780790Y-112430637D01*
X132774805Y-112379047D01*
X132774000Y-112375000D01*
X132774000Y-111975000D01*
X132774804Y-111970954D01*
X132780790Y-111919362D01*
X132788572Y-111901735D01*
X132793106Y-111878946D01*
X132809409Y-111854546D01*
X132818640Y-111833641D01*
X132832918Y-111819362D01*
X132847516Y-111797516D01*
X132869362Y-111782918D01*
X132883641Y-111768640D01*
X132904546Y-111759409D01*
X132928946Y-111743106D01*
X132951735Y-111738572D01*
X132969362Y-111730790D01*
X133020954Y-111724804D01*
X133025000Y-111724000D01*
X133575000Y-111724000D01*
X133579047Y-111724805D01*
G37*
G36*
X140779047Y-111724805D02*
G01*
X140830637Y-111730790D01*
X140848262Y-111738572D01*
X140871054Y-111743106D01*
X140895455Y-111759410D01*
X140916358Y-111768640D01*
X140930634Y-111782916D01*
X140952484Y-111797516D01*
X140967083Y-111819365D01*
X140981359Y-111833641D01*
X140990588Y-111854542D01*
X141006894Y-111878946D01*
X141011427Y-111901739D01*
X141019209Y-111919362D01*
X141025192Y-111970942D01*
X141026000Y-111975000D01*
X141026000Y-112375000D01*
X141025192Y-112379059D01*
X141019209Y-112430637D01*
X141011428Y-112448258D01*
X141006894Y-112471054D01*
X140990586Y-112495459D01*
X140981359Y-112516358D01*
X140967085Y-112530631D01*
X140952484Y-112552484D01*
X140930631Y-112567085D01*
X140916358Y-112581359D01*
X140895459Y-112590586D01*
X140871054Y-112606894D01*
X140848258Y-112611428D01*
X140830637Y-112619209D01*
X140779059Y-112625192D01*
X140775000Y-112626000D01*
X140225000Y-112626000D01*
X140220942Y-112625192D01*
X140169362Y-112619209D01*
X140151739Y-112611427D01*
X140128946Y-112606894D01*
X140104542Y-112590588D01*
X140083641Y-112581359D01*
X140069365Y-112567083D01*
X140047516Y-112552484D01*
X140032916Y-112530634D01*
X140018640Y-112516358D01*
X140009410Y-112495455D01*
X139993106Y-112471054D01*
X139988572Y-112448262D01*
X139980790Y-112430637D01*
X139974805Y-112379047D01*
X139974000Y-112375000D01*
X139974000Y-111975000D01*
X139974804Y-111970954D01*
X139980790Y-111919362D01*
X139988572Y-111901735D01*
X139993106Y-111878946D01*
X140009409Y-111854546D01*
X140018640Y-111833641D01*
X140032918Y-111819362D01*
X140047516Y-111797516D01*
X140069362Y-111782918D01*
X140083641Y-111768640D01*
X140104546Y-111759409D01*
X140128946Y-111743106D01*
X140151735Y-111738572D01*
X140169362Y-111730790D01*
X140220954Y-111724804D01*
X140225000Y-111724000D01*
X140775000Y-111724000D01*
X140779047Y-111724805D01*
G37*
G36*
X147679047Y-111724805D02*
G01*
X147730637Y-111730790D01*
X147748262Y-111738572D01*
X147771054Y-111743106D01*
X147795455Y-111759410D01*
X147816358Y-111768640D01*
X147830634Y-111782916D01*
X147852484Y-111797516D01*
X147867083Y-111819365D01*
X147881359Y-111833641D01*
X147890588Y-111854542D01*
X147906894Y-111878946D01*
X147911427Y-111901739D01*
X147919209Y-111919362D01*
X147925192Y-111970942D01*
X147926000Y-111975000D01*
X147926000Y-112375000D01*
X147925192Y-112379059D01*
X147919209Y-112430637D01*
X147911428Y-112448258D01*
X147906894Y-112471054D01*
X147890586Y-112495459D01*
X147881359Y-112516358D01*
X147867085Y-112530631D01*
X147852484Y-112552484D01*
X147830631Y-112567085D01*
X147816358Y-112581359D01*
X147795459Y-112590586D01*
X147771054Y-112606894D01*
X147748258Y-112611428D01*
X147730637Y-112619209D01*
X147679059Y-112625192D01*
X147675000Y-112626000D01*
X147125000Y-112626000D01*
X147120942Y-112625192D01*
X147069362Y-112619209D01*
X147051739Y-112611427D01*
X147028946Y-112606894D01*
X147004542Y-112590588D01*
X146983641Y-112581359D01*
X146969365Y-112567083D01*
X146947516Y-112552484D01*
X146932916Y-112530634D01*
X146918640Y-112516358D01*
X146909410Y-112495455D01*
X146893106Y-112471054D01*
X146888572Y-112448262D01*
X146880790Y-112430637D01*
X146874805Y-112379047D01*
X146874000Y-112375000D01*
X146874000Y-111975000D01*
X146874804Y-111970954D01*
X146880790Y-111919362D01*
X146888572Y-111901735D01*
X146893106Y-111878946D01*
X146909409Y-111854546D01*
X146918640Y-111833641D01*
X146932918Y-111819362D01*
X146947516Y-111797516D01*
X146969362Y-111782918D01*
X146983641Y-111768640D01*
X147004546Y-111759409D01*
X147028946Y-111743106D01*
X147051735Y-111738572D01*
X147069362Y-111730790D01*
X147120954Y-111724804D01*
X147125000Y-111724000D01*
X147675000Y-111724000D01*
X147679047Y-111724805D01*
G37*
G36*
X126479047Y-111624805D02*
G01*
X126530637Y-111630790D01*
X126548262Y-111638572D01*
X126571054Y-111643106D01*
X126595455Y-111659410D01*
X126616358Y-111668640D01*
X126630634Y-111682916D01*
X126652484Y-111697516D01*
X126667083Y-111719365D01*
X126681359Y-111733641D01*
X126690588Y-111754542D01*
X126706894Y-111778946D01*
X126711427Y-111801739D01*
X126719209Y-111819362D01*
X126725192Y-111870942D01*
X126726000Y-111875000D01*
X126726000Y-112275000D01*
X126725192Y-112279059D01*
X126719209Y-112330637D01*
X126711428Y-112348258D01*
X126706894Y-112371054D01*
X126690586Y-112395459D01*
X126681359Y-112416358D01*
X126667085Y-112430631D01*
X126652484Y-112452484D01*
X126630631Y-112467085D01*
X126616358Y-112481359D01*
X126595459Y-112490586D01*
X126571054Y-112506894D01*
X126548258Y-112511428D01*
X126530637Y-112519209D01*
X126479059Y-112525192D01*
X126475000Y-112526000D01*
X125925000Y-112526000D01*
X125920942Y-112525192D01*
X125869362Y-112519209D01*
X125851739Y-112511427D01*
X125828946Y-112506894D01*
X125804542Y-112490588D01*
X125783641Y-112481359D01*
X125769365Y-112467083D01*
X125747516Y-112452484D01*
X125732916Y-112430634D01*
X125718640Y-112416358D01*
X125709410Y-112395455D01*
X125693106Y-112371054D01*
X125688572Y-112348262D01*
X125680790Y-112330637D01*
X125674805Y-112279047D01*
X125674000Y-112275000D01*
X125674000Y-111875000D01*
X125674804Y-111870954D01*
X125680790Y-111819362D01*
X125688572Y-111801735D01*
X125693106Y-111778946D01*
X125709409Y-111754546D01*
X125718640Y-111733641D01*
X125732918Y-111719362D01*
X125747516Y-111697516D01*
X125769362Y-111682918D01*
X125783641Y-111668640D01*
X125804546Y-111659409D01*
X125828946Y-111643106D01*
X125851735Y-111638572D01*
X125869362Y-111630790D01*
X125920954Y-111624804D01*
X125925000Y-111624000D01*
X126475000Y-111624000D01*
X126479047Y-111624805D01*
G37*
G36*
X154779047Y-111624805D02*
G01*
X154830637Y-111630790D01*
X154848262Y-111638572D01*
X154871054Y-111643106D01*
X154895455Y-111659410D01*
X154916358Y-111668640D01*
X154930634Y-111682916D01*
X154952484Y-111697516D01*
X154967083Y-111719365D01*
X154981359Y-111733641D01*
X154990588Y-111754542D01*
X155006894Y-111778946D01*
X155011427Y-111801739D01*
X155019209Y-111819362D01*
X155025192Y-111870942D01*
X155026000Y-111875000D01*
X155026000Y-112275000D01*
X155025192Y-112279059D01*
X155019209Y-112330637D01*
X155011428Y-112348258D01*
X155006894Y-112371054D01*
X154990586Y-112395459D01*
X154981359Y-112416358D01*
X154967085Y-112430631D01*
X154952484Y-112452484D01*
X154930631Y-112467085D01*
X154916358Y-112481359D01*
X154895459Y-112490586D01*
X154871054Y-112506894D01*
X154848258Y-112511428D01*
X154830637Y-112519209D01*
X154779059Y-112525192D01*
X154775000Y-112526000D01*
X154225000Y-112526000D01*
X154220942Y-112525192D01*
X154169362Y-112519209D01*
X154151739Y-112511427D01*
X154128946Y-112506894D01*
X154104542Y-112490588D01*
X154083641Y-112481359D01*
X154069365Y-112467083D01*
X154047516Y-112452484D01*
X154032916Y-112430634D01*
X154018640Y-112416358D01*
X154009410Y-112395455D01*
X153993106Y-112371054D01*
X153988572Y-112348262D01*
X153980790Y-112330637D01*
X153974805Y-112279047D01*
X153974000Y-112275000D01*
X153974000Y-111875000D01*
X153974804Y-111870954D01*
X153980790Y-111819362D01*
X153988572Y-111801735D01*
X153993106Y-111778946D01*
X154009409Y-111754546D01*
X154018640Y-111733641D01*
X154032918Y-111719362D01*
X154047516Y-111697516D01*
X154069362Y-111682918D01*
X154083641Y-111668640D01*
X154104546Y-111659409D01*
X154128946Y-111643106D01*
X154151735Y-111638572D01*
X154169362Y-111630790D01*
X154220954Y-111624804D01*
X154225000Y-111624000D01*
X154775000Y-111624000D01*
X154779047Y-111624805D01*
G37*
G36*
X112079047Y-111524805D02*
G01*
X112130637Y-111530790D01*
X112148262Y-111538572D01*
X112171054Y-111543106D01*
X112195455Y-111559410D01*
X112216358Y-111568640D01*
X112230634Y-111582916D01*
X112252484Y-111597516D01*
X112267083Y-111619365D01*
X112281359Y-111633641D01*
X112290588Y-111654542D01*
X112306894Y-111678946D01*
X112311427Y-111701739D01*
X112319209Y-111719362D01*
X112325192Y-111770942D01*
X112326000Y-111775000D01*
X112326000Y-112175000D01*
X112325192Y-112179059D01*
X112319209Y-112230637D01*
X112311428Y-112248258D01*
X112306894Y-112271054D01*
X112290586Y-112295459D01*
X112281359Y-112316358D01*
X112267085Y-112330631D01*
X112252484Y-112352484D01*
X112230631Y-112367085D01*
X112216358Y-112381359D01*
X112195459Y-112390586D01*
X112171054Y-112406894D01*
X112148258Y-112411428D01*
X112130637Y-112419209D01*
X112079059Y-112425192D01*
X112075000Y-112426000D01*
X111525000Y-112426000D01*
X111520942Y-112425192D01*
X111469362Y-112419209D01*
X111451739Y-112411427D01*
X111428946Y-112406894D01*
X111404542Y-112390588D01*
X111383641Y-112381359D01*
X111369365Y-112367083D01*
X111347516Y-112352484D01*
X111332916Y-112330634D01*
X111318640Y-112316358D01*
X111309410Y-112295455D01*
X111293106Y-112271054D01*
X111288572Y-112248262D01*
X111280790Y-112230637D01*
X111274805Y-112179047D01*
X111274000Y-112175000D01*
X111274000Y-111775000D01*
X111274804Y-111770954D01*
X111280790Y-111719362D01*
X111288572Y-111701735D01*
X111293106Y-111678946D01*
X111309409Y-111654546D01*
X111318640Y-111633641D01*
X111332918Y-111619362D01*
X111347516Y-111597516D01*
X111369362Y-111582918D01*
X111383641Y-111568640D01*
X111404546Y-111559409D01*
X111428946Y-111543106D01*
X111451735Y-111538572D01*
X111469362Y-111530790D01*
X111520954Y-111524804D01*
X111525000Y-111524000D01*
X112075000Y-111524000D01*
X112079047Y-111524805D01*
G37*
G36*
X103912553Y-104998668D02*
G01*
X104081000Y-105073666D01*
X104230173Y-105182046D01*
X104353553Y-105319073D01*
X104445747Y-105478758D01*
X104502726Y-105654122D01*
X104522000Y-105837500D01*
X104502726Y-106020878D01*
X104445747Y-106196242D01*
X104353553Y-106355927D01*
X104230173Y-106492954D01*
X104081000Y-106601334D01*
X103912553Y-106676332D01*
X103732194Y-106714668D01*
X103547806Y-106714668D01*
X103367447Y-106676332D01*
X103199000Y-106601334D01*
X103049827Y-106492954D01*
X102926447Y-106355927D01*
X102834253Y-106196242D01*
X102777274Y-106020878D01*
X102758000Y-105837500D01*
X102777274Y-105654122D01*
X102834253Y-105478758D01*
X102926447Y-105319073D01*
X103049827Y-105182046D01*
X103199000Y-105073666D01*
X103367447Y-104998668D01*
X103547806Y-104960332D01*
X103732194Y-104960332D01*
X103912553Y-104998668D01*
G37*
G36*
X106452553Y-104998668D02*
G01*
X106621000Y-105073666D01*
X106770173Y-105182046D01*
X106893553Y-105319073D01*
X106985747Y-105478758D01*
X107042726Y-105654122D01*
X107062000Y-105837500D01*
X107042726Y-106020878D01*
X106985747Y-106196242D01*
X106893553Y-106355927D01*
X106770173Y-106492954D01*
X106621000Y-106601334D01*
X106452553Y-106676332D01*
X106272194Y-106714668D01*
X106087806Y-106714668D01*
X105907447Y-106676332D01*
X105739000Y-106601334D01*
X105589827Y-106492954D01*
X105466447Y-106355927D01*
X105374253Y-106196242D01*
X105317274Y-106020878D01*
X105298000Y-105837500D01*
X105317274Y-105654122D01*
X105374253Y-105478758D01*
X105466447Y-105319073D01*
X105589827Y-105182046D01*
X105739000Y-105073666D01*
X105907447Y-104998668D01*
X106087806Y-104960332D01*
X106272194Y-104960332D01*
X106452553Y-104998668D01*
G37*
G36*
X108992553Y-104998668D02*
G01*
X109161000Y-105073666D01*
X109310173Y-105182046D01*
X109433553Y-105319073D01*
X109525747Y-105478758D01*
X109582726Y-105654122D01*
X109602000Y-105837500D01*
X109582726Y-106020878D01*
X109525747Y-106196242D01*
X109433553Y-106355927D01*
X109310173Y-106492954D01*
X109161000Y-106601334D01*
X108992553Y-106676332D01*
X108812194Y-106714668D01*
X108627806Y-106714668D01*
X108447447Y-106676332D01*
X108279000Y-106601334D01*
X108129827Y-106492954D01*
X108006447Y-106355927D01*
X107914253Y-106196242D01*
X107857274Y-106020878D01*
X107838000Y-105837500D01*
X107857274Y-105654122D01*
X107914253Y-105478758D01*
X108006447Y-105319073D01*
X108129827Y-105182046D01*
X108279000Y-105073666D01*
X108447447Y-104998668D01*
X108627806Y-104960332D01*
X108812194Y-104960332D01*
X108992553Y-104998668D01*
G37*
G36*
X111532553Y-104998668D02*
G01*
X111701000Y-105073666D01*
X111850173Y-105182046D01*
X111973553Y-105319073D01*
X112065747Y-105478758D01*
X112122726Y-105654122D01*
X112142000Y-105837500D01*
X112122726Y-106020878D01*
X112065747Y-106196242D01*
X111973553Y-106355927D01*
X111850173Y-106492954D01*
X111701000Y-106601334D01*
X111532553Y-106676332D01*
X111352194Y-106714668D01*
X111167806Y-106714668D01*
X110987447Y-106676332D01*
X110819000Y-106601334D01*
X110669827Y-106492954D01*
X110546447Y-106355927D01*
X110454253Y-106196242D01*
X110397274Y-106020878D01*
X110378000Y-105837500D01*
X110397274Y-105654122D01*
X110454253Y-105478758D01*
X110546447Y-105319073D01*
X110669827Y-105182046D01*
X110819000Y-105073666D01*
X110987447Y-104998668D01*
X111167806Y-104960332D01*
X111352194Y-104960332D01*
X111532553Y-104998668D01*
G37*
G36*
X114072553Y-104998668D02*
G01*
X114241000Y-105073666D01*
X114390173Y-105182046D01*
X114513553Y-105319073D01*
X114605747Y-105478758D01*
X114662726Y-105654122D01*
X114682000Y-105837500D01*
X114662726Y-106020878D01*
X114605747Y-106196242D01*
X114513553Y-106355927D01*
X114390173Y-106492954D01*
X114241000Y-106601334D01*
X114072553Y-106676332D01*
X113892194Y-106714668D01*
X113707806Y-106714668D01*
X113527447Y-106676332D01*
X113359000Y-106601334D01*
X113209827Y-106492954D01*
X113086447Y-106355927D01*
X112994253Y-106196242D01*
X112937274Y-106020878D01*
X112918000Y-105837500D01*
X112937274Y-105654122D01*
X112994253Y-105478758D01*
X113086447Y-105319073D01*
X113209827Y-105182046D01*
X113359000Y-105073666D01*
X113527447Y-104998668D01*
X113707806Y-104960332D01*
X113892194Y-104960332D01*
X114072553Y-104998668D01*
G37*
G36*
X116612553Y-104998668D02*
G01*
X116781000Y-105073666D01*
X116930173Y-105182046D01*
X117053553Y-105319073D01*
X117145747Y-105478758D01*
X117202726Y-105654122D01*
X117222000Y-105837500D01*
X117202726Y-106020878D01*
X117145747Y-106196242D01*
X117053553Y-106355927D01*
X116930173Y-106492954D01*
X116781000Y-106601334D01*
X116612553Y-106676332D01*
X116432194Y-106714668D01*
X116247806Y-106714668D01*
X116067447Y-106676332D01*
X115899000Y-106601334D01*
X115749827Y-106492954D01*
X115626447Y-106355927D01*
X115534253Y-106196242D01*
X115477274Y-106020878D01*
X115458000Y-105837500D01*
X115477274Y-105654122D01*
X115534253Y-105478758D01*
X115626447Y-105319073D01*
X115749827Y-105182046D01*
X115899000Y-105073666D01*
X116067447Y-104998668D01*
X116247806Y-104960332D01*
X116432194Y-104960332D01*
X116612553Y-104998668D01*
G37*
G36*
X119152553Y-104998668D02*
G01*
X119321000Y-105073666D01*
X119470173Y-105182046D01*
X119593553Y-105319073D01*
X119685747Y-105478758D01*
X119742726Y-105654122D01*
X119762000Y-105837500D01*
X119742726Y-106020878D01*
X119685747Y-106196242D01*
X119593553Y-106355927D01*
X119470173Y-106492954D01*
X119321000Y-106601334D01*
X119152553Y-106676332D01*
X118972194Y-106714668D01*
X118787806Y-106714668D01*
X118607447Y-106676332D01*
X118439000Y-106601334D01*
X118289827Y-106492954D01*
X118166447Y-106355927D01*
X118074253Y-106196242D01*
X118017274Y-106020878D01*
X117998000Y-105837500D01*
X118017274Y-105654122D01*
X118074253Y-105478758D01*
X118166447Y-105319073D01*
X118289827Y-105182046D01*
X118439000Y-105073666D01*
X118607447Y-104998668D01*
X118787806Y-104960332D01*
X118972194Y-104960332D01*
X119152553Y-104998668D01*
G37*
G36*
X121692553Y-104998668D02*
G01*
X121861000Y-105073666D01*
X122010173Y-105182046D01*
X122133553Y-105319073D01*
X122225747Y-105478758D01*
X122282726Y-105654122D01*
X122302000Y-105837500D01*
X122282726Y-106020878D01*
X122225747Y-106196242D01*
X122133553Y-106355927D01*
X122010173Y-106492954D01*
X121861000Y-106601334D01*
X121692553Y-106676332D01*
X121512194Y-106714668D01*
X121327806Y-106714668D01*
X121147447Y-106676332D01*
X120979000Y-106601334D01*
X120829827Y-106492954D01*
X120706447Y-106355927D01*
X120614253Y-106196242D01*
X120557274Y-106020878D01*
X120538000Y-105837500D01*
X120557274Y-105654122D01*
X120614253Y-105478758D01*
X120706447Y-105319073D01*
X120829827Y-105182046D01*
X120979000Y-105073666D01*
X121147447Y-104998668D01*
X121327806Y-104960332D01*
X121512194Y-104960332D01*
X121692553Y-104998668D01*
G37*
G36*
X124232553Y-104998668D02*
G01*
X124401000Y-105073666D01*
X124550173Y-105182046D01*
X124673553Y-105319073D01*
X124765747Y-105478758D01*
X124822726Y-105654122D01*
X124842000Y-105837500D01*
X124822726Y-106020878D01*
X124765747Y-106196242D01*
X124673553Y-106355927D01*
X124550173Y-106492954D01*
X124401000Y-106601334D01*
X124232553Y-106676332D01*
X124052194Y-106714668D01*
X123867806Y-106714668D01*
X123687447Y-106676332D01*
X123519000Y-106601334D01*
X123369827Y-106492954D01*
X123246447Y-106355927D01*
X123154253Y-106196242D01*
X123097274Y-106020878D01*
X123078000Y-105837500D01*
X123097274Y-105654122D01*
X123154253Y-105478758D01*
X123246447Y-105319073D01*
X123369827Y-105182046D01*
X123519000Y-105073666D01*
X123687447Y-104998668D01*
X123867806Y-104960332D01*
X124052194Y-104960332D01*
X124232553Y-104998668D01*
G37*
G36*
X126772553Y-104998668D02*
G01*
X126941000Y-105073666D01*
X127090173Y-105182046D01*
X127213553Y-105319073D01*
X127305747Y-105478758D01*
X127362726Y-105654122D01*
X127382000Y-105837500D01*
X127362726Y-106020878D01*
X127305747Y-106196242D01*
X127213553Y-106355927D01*
X127090173Y-106492954D01*
X126941000Y-106601334D01*
X126772553Y-106676332D01*
X126592194Y-106714668D01*
X126407806Y-106714668D01*
X126227447Y-106676332D01*
X126059000Y-106601334D01*
X125909827Y-106492954D01*
X125786447Y-106355927D01*
X125694253Y-106196242D01*
X125637274Y-106020878D01*
X125618000Y-105837500D01*
X125637274Y-105654122D01*
X125694253Y-105478758D01*
X125786447Y-105319073D01*
X125909827Y-105182046D01*
X126059000Y-105073666D01*
X126227447Y-104998668D01*
X126407806Y-104960332D01*
X126592194Y-104960332D01*
X126772553Y-104998668D01*
G37*
G36*
X129312553Y-104998668D02*
G01*
X129481000Y-105073666D01*
X129630173Y-105182046D01*
X129753553Y-105319073D01*
X129845747Y-105478758D01*
X129902726Y-105654122D01*
X129922000Y-105837500D01*
X129902726Y-106020878D01*
X129845747Y-106196242D01*
X129753553Y-106355927D01*
X129630173Y-106492954D01*
X129481000Y-106601334D01*
X129312553Y-106676332D01*
X129132194Y-106714668D01*
X128947806Y-106714668D01*
X128767447Y-106676332D01*
X128599000Y-106601334D01*
X128449827Y-106492954D01*
X128326447Y-106355927D01*
X128234253Y-106196242D01*
X128177274Y-106020878D01*
X128158000Y-105837500D01*
X128177274Y-105654122D01*
X128234253Y-105478758D01*
X128326447Y-105319073D01*
X128449827Y-105182046D01*
X128599000Y-105073666D01*
X128767447Y-104998668D01*
X128947806Y-104960332D01*
X129132194Y-104960332D01*
X129312553Y-104998668D01*
G37*
G36*
X131852553Y-104998668D02*
G01*
X132021000Y-105073666D01*
X132170173Y-105182046D01*
X132293553Y-105319073D01*
X132385747Y-105478758D01*
X132442726Y-105654122D01*
X132462000Y-105837500D01*
X132442726Y-106020878D01*
X132385747Y-106196242D01*
X132293553Y-106355927D01*
X132170173Y-106492954D01*
X132021000Y-106601334D01*
X131852553Y-106676332D01*
X131672194Y-106714668D01*
X131487806Y-106714668D01*
X131307447Y-106676332D01*
X131139000Y-106601334D01*
X130989827Y-106492954D01*
X130866447Y-106355927D01*
X130774253Y-106196242D01*
X130717274Y-106020878D01*
X130698000Y-105837500D01*
X130717274Y-105654122D01*
X130774253Y-105478758D01*
X130866447Y-105319073D01*
X130989827Y-105182046D01*
X131139000Y-105073666D01*
X131307447Y-104998668D01*
X131487806Y-104960332D01*
X131672194Y-104960332D01*
X131852553Y-104998668D01*
G37*
G36*
X134392553Y-104998668D02*
G01*
X134561000Y-105073666D01*
X134710173Y-105182046D01*
X134833553Y-105319073D01*
X134925747Y-105478758D01*
X134982726Y-105654122D01*
X135002000Y-105837500D01*
X134982726Y-106020878D01*
X134925747Y-106196242D01*
X134833553Y-106355927D01*
X134710173Y-106492954D01*
X134561000Y-106601334D01*
X134392553Y-106676332D01*
X134212194Y-106714668D01*
X134027806Y-106714668D01*
X133847447Y-106676332D01*
X133679000Y-106601334D01*
X133529827Y-106492954D01*
X133406447Y-106355927D01*
X133314253Y-106196242D01*
X133257274Y-106020878D01*
X133238000Y-105837500D01*
X133257274Y-105654122D01*
X133314253Y-105478758D01*
X133406447Y-105319073D01*
X133529827Y-105182046D01*
X133679000Y-105073666D01*
X133847447Y-104998668D01*
X134027806Y-104960332D01*
X134212194Y-104960332D01*
X134392553Y-104998668D01*
G37*
G36*
X136932553Y-104998668D02*
G01*
X137101000Y-105073666D01*
X137250173Y-105182046D01*
X137373553Y-105319073D01*
X137465747Y-105478758D01*
X137522726Y-105654122D01*
X137542000Y-105837500D01*
X137522726Y-106020878D01*
X137465747Y-106196242D01*
X137373553Y-106355927D01*
X137250173Y-106492954D01*
X137101000Y-106601334D01*
X136932553Y-106676332D01*
X136752194Y-106714668D01*
X136567806Y-106714668D01*
X136387447Y-106676332D01*
X136219000Y-106601334D01*
X136069827Y-106492954D01*
X135946447Y-106355927D01*
X135854253Y-106196242D01*
X135797274Y-106020878D01*
X135778000Y-105837500D01*
X135797274Y-105654122D01*
X135854253Y-105478758D01*
X135946447Y-105319073D01*
X136069827Y-105182046D01*
X136219000Y-105073666D01*
X136387447Y-104998668D01*
X136567806Y-104960332D01*
X136752194Y-104960332D01*
X136932553Y-104998668D01*
G37*
G36*
X139472553Y-104998668D02*
G01*
X139641000Y-105073666D01*
X139790173Y-105182046D01*
X139913553Y-105319073D01*
X140005747Y-105478758D01*
X140062726Y-105654122D01*
X140082000Y-105837500D01*
X140062726Y-106020878D01*
X140005747Y-106196242D01*
X139913553Y-106355927D01*
X139790173Y-106492954D01*
X139641000Y-106601334D01*
X139472553Y-106676332D01*
X139292194Y-106714668D01*
X139107806Y-106714668D01*
X138927447Y-106676332D01*
X138759000Y-106601334D01*
X138609827Y-106492954D01*
X138486447Y-106355927D01*
X138394253Y-106196242D01*
X138337274Y-106020878D01*
X138318000Y-105837500D01*
X138337274Y-105654122D01*
X138394253Y-105478758D01*
X138486447Y-105319073D01*
X138609827Y-105182046D01*
X138759000Y-105073666D01*
X138927447Y-104998668D01*
X139107806Y-104960332D01*
X139292194Y-104960332D01*
X139472553Y-104998668D01*
G37*
G36*
X142012553Y-104998668D02*
G01*
X142181000Y-105073666D01*
X142330173Y-105182046D01*
X142453553Y-105319073D01*
X142545747Y-105478758D01*
X142602726Y-105654122D01*
X142622000Y-105837500D01*
X142602726Y-106020878D01*
X142545747Y-106196242D01*
X142453553Y-106355927D01*
X142330173Y-106492954D01*
X142181000Y-106601334D01*
X142012553Y-106676332D01*
X141832194Y-106714668D01*
X141647806Y-106714668D01*
X141467447Y-106676332D01*
X141299000Y-106601334D01*
X141149827Y-106492954D01*
X141026447Y-106355927D01*
X140934253Y-106196242D01*
X140877274Y-106020878D01*
X140858000Y-105837500D01*
X140877274Y-105654122D01*
X140934253Y-105478758D01*
X141026447Y-105319073D01*
X141149827Y-105182046D01*
X141299000Y-105073666D01*
X141467447Y-104998668D01*
X141647806Y-104960332D01*
X141832194Y-104960332D01*
X142012553Y-104998668D01*
G37*
G36*
X144552553Y-104998668D02*
G01*
X144721000Y-105073666D01*
X144870173Y-105182046D01*
X144993553Y-105319073D01*
X145085747Y-105478758D01*
X145142726Y-105654122D01*
X145162000Y-105837500D01*
X145142726Y-106020878D01*
X145085747Y-106196242D01*
X144993553Y-106355927D01*
X144870173Y-106492954D01*
X144721000Y-106601334D01*
X144552553Y-106676332D01*
X144372194Y-106714668D01*
X144187806Y-106714668D01*
X144007447Y-106676332D01*
X143839000Y-106601334D01*
X143689827Y-106492954D01*
X143566447Y-106355927D01*
X143474253Y-106196242D01*
X143417274Y-106020878D01*
X143398000Y-105837500D01*
X143417274Y-105654122D01*
X143474253Y-105478758D01*
X143566447Y-105319073D01*
X143689827Y-105182046D01*
X143839000Y-105073666D01*
X144007447Y-104998668D01*
X144187806Y-104960332D01*
X144372194Y-104960332D01*
X144552553Y-104998668D01*
G37*
G36*
X147092553Y-104998668D02*
G01*
X147261000Y-105073666D01*
X147410173Y-105182046D01*
X147533553Y-105319073D01*
X147625747Y-105478758D01*
X147682726Y-105654122D01*
X147702000Y-105837500D01*
X147682726Y-106020878D01*
X147625747Y-106196242D01*
X147533553Y-106355927D01*
X147410173Y-106492954D01*
X147261000Y-106601334D01*
X147092553Y-106676332D01*
X146912194Y-106714668D01*
X146727806Y-106714668D01*
X146547447Y-106676332D01*
X146379000Y-106601334D01*
X146229827Y-106492954D01*
X146106447Y-106355927D01*
X146014253Y-106196242D01*
X145957274Y-106020878D01*
X145938000Y-105837500D01*
X145957274Y-105654122D01*
X146014253Y-105478758D01*
X146106447Y-105319073D01*
X146229827Y-105182046D01*
X146379000Y-105073666D01*
X146547447Y-104998668D01*
X146727806Y-104960332D01*
X146912194Y-104960332D01*
X147092553Y-104998668D01*
G37*
G36*
X149632553Y-104998668D02*
G01*
X149801000Y-105073666D01*
X149950173Y-105182046D01*
X150073553Y-105319073D01*
X150165747Y-105478758D01*
X150222726Y-105654122D01*
X150242000Y-105837500D01*
X150222726Y-106020878D01*
X150165747Y-106196242D01*
X150073553Y-106355927D01*
X149950173Y-106492954D01*
X149801000Y-106601334D01*
X149632553Y-106676332D01*
X149452194Y-106714668D01*
X149267806Y-106714668D01*
X149087447Y-106676332D01*
X148919000Y-106601334D01*
X148769827Y-106492954D01*
X148646447Y-106355927D01*
X148554253Y-106196242D01*
X148497274Y-106020878D01*
X148478000Y-105837500D01*
X148497274Y-105654122D01*
X148554253Y-105478758D01*
X148646447Y-105319073D01*
X148769827Y-105182046D01*
X148919000Y-105073666D01*
X149087447Y-104998668D01*
X149267806Y-104960332D01*
X149452194Y-104960332D01*
X149632553Y-104998668D01*
G37*
G36*
X150179034Y-79563264D02*
G01*
X150212125Y-79585375D01*
X150234236Y-79618466D01*
X150242000Y-79657500D01*
X150242000Y-81217500D01*
X150234236Y-81256534D01*
X150212125Y-81289625D01*
X150179034Y-81311736D01*
X150140000Y-81319500D01*
X148580000Y-81319500D01*
X148540966Y-81311736D01*
X148507875Y-81289625D01*
X148485764Y-81256534D01*
X148478000Y-81217500D01*
X148478000Y-79657500D01*
X148485764Y-79618466D01*
X148507875Y-79585375D01*
X148540966Y-79563264D01*
X148580000Y-79555500D01*
X150140000Y-79555500D01*
X150179034Y-79563264D01*
G37*
G36*
X103912553Y-79598668D02*
G01*
X104081000Y-79673666D01*
X104230173Y-79782046D01*
X104353553Y-79919073D01*
X104445747Y-80078758D01*
X104502726Y-80254122D01*
X104522000Y-80437500D01*
X104502726Y-80620878D01*
X104445747Y-80796242D01*
X104353553Y-80955927D01*
X104230173Y-81092954D01*
X104081000Y-81201334D01*
X103912553Y-81276332D01*
X103732194Y-81314668D01*
X103547806Y-81314668D01*
X103367447Y-81276332D01*
X103199000Y-81201334D01*
X103049827Y-81092954D01*
X102926447Y-80955927D01*
X102834253Y-80796242D01*
X102777274Y-80620878D01*
X102758000Y-80437500D01*
X102777274Y-80254122D01*
X102834253Y-80078758D01*
X102926447Y-79919073D01*
X103049827Y-79782046D01*
X103199000Y-79673666D01*
X103367447Y-79598668D01*
X103547806Y-79560332D01*
X103732194Y-79560332D01*
X103912553Y-79598668D01*
G37*
G36*
X106452553Y-79598668D02*
G01*
X106621000Y-79673666D01*
X106770173Y-79782046D01*
X106893553Y-79919073D01*
X106985747Y-80078758D01*
X107042726Y-80254122D01*
X107062000Y-80437500D01*
X107042726Y-80620878D01*
X106985747Y-80796242D01*
X106893553Y-80955927D01*
X106770173Y-81092954D01*
X106621000Y-81201334D01*
X106452553Y-81276332D01*
X106272194Y-81314668D01*
X106087806Y-81314668D01*
X105907447Y-81276332D01*
X105739000Y-81201334D01*
X105589827Y-81092954D01*
X105466447Y-80955927D01*
X105374253Y-80796242D01*
X105317274Y-80620878D01*
X105298000Y-80437500D01*
X105317274Y-80254122D01*
X105374253Y-80078758D01*
X105466447Y-79919073D01*
X105589827Y-79782046D01*
X105739000Y-79673666D01*
X105907447Y-79598668D01*
X106087806Y-79560332D01*
X106272194Y-79560332D01*
X106452553Y-79598668D01*
G37*
G36*
X108992553Y-79598668D02*
G01*
X109161000Y-79673666D01*
X109310173Y-79782046D01*
X109433553Y-79919073D01*
X109525747Y-80078758D01*
X109582726Y-80254122D01*
X109602000Y-80437500D01*
X109582726Y-80620878D01*
X109525747Y-80796242D01*
X109433553Y-80955927D01*
X109310173Y-81092954D01*
X109161000Y-81201334D01*
X108992553Y-81276332D01*
X108812194Y-81314668D01*
X108627806Y-81314668D01*
X108447447Y-81276332D01*
X108279000Y-81201334D01*
X108129827Y-81092954D01*
X108006447Y-80955927D01*
X107914253Y-80796242D01*
X107857274Y-80620878D01*
X107838000Y-80437500D01*
X107857274Y-80254122D01*
X107914253Y-80078758D01*
X108006447Y-79919073D01*
X108129827Y-79782046D01*
X108279000Y-79673666D01*
X108447447Y-79598668D01*
X108627806Y-79560332D01*
X108812194Y-79560332D01*
X108992553Y-79598668D01*
G37*
G36*
X111532553Y-79598668D02*
G01*
X111701000Y-79673666D01*
X111850173Y-79782046D01*
X111973553Y-79919073D01*
X112065747Y-80078758D01*
X112122726Y-80254122D01*
X112142000Y-80437500D01*
X112122726Y-80620878D01*
X112065747Y-80796242D01*
X111973553Y-80955927D01*
X111850173Y-81092954D01*
X111701000Y-81201334D01*
X111532553Y-81276332D01*
X111352194Y-81314668D01*
X111167806Y-81314668D01*
X110987447Y-81276332D01*
X110819000Y-81201334D01*
X110669827Y-81092954D01*
X110546447Y-80955927D01*
X110454253Y-80796242D01*
X110397274Y-80620878D01*
X110378000Y-80437500D01*
X110397274Y-80254122D01*
X110454253Y-80078758D01*
X110546447Y-79919073D01*
X110669827Y-79782046D01*
X110819000Y-79673666D01*
X110987447Y-79598668D01*
X111167806Y-79560332D01*
X111352194Y-79560332D01*
X111532553Y-79598668D01*
G37*
G36*
X114072553Y-79598668D02*
G01*
X114241000Y-79673666D01*
X114390173Y-79782046D01*
X114513553Y-79919073D01*
X114605747Y-80078758D01*
X114662726Y-80254122D01*
X114682000Y-80437500D01*
X114662726Y-80620878D01*
X114605747Y-80796242D01*
X114513553Y-80955927D01*
X114390173Y-81092954D01*
X114241000Y-81201334D01*
X114072553Y-81276332D01*
X113892194Y-81314668D01*
X113707806Y-81314668D01*
X113527447Y-81276332D01*
X113359000Y-81201334D01*
X113209827Y-81092954D01*
X113086447Y-80955927D01*
X112994253Y-80796242D01*
X112937274Y-80620878D01*
X112918000Y-80437500D01*
X112937274Y-80254122D01*
X112994253Y-80078758D01*
X113086447Y-79919073D01*
X113209827Y-79782046D01*
X113359000Y-79673666D01*
X113527447Y-79598668D01*
X113707806Y-79560332D01*
X113892194Y-79560332D01*
X114072553Y-79598668D01*
G37*
G36*
X116612553Y-79598668D02*
G01*
X116781000Y-79673666D01*
X116930173Y-79782046D01*
X117053553Y-79919073D01*
X117145747Y-80078758D01*
X117202726Y-80254122D01*
X117222000Y-80437500D01*
X117202726Y-80620878D01*
X117145747Y-80796242D01*
X117053553Y-80955927D01*
X116930173Y-81092954D01*
X116781000Y-81201334D01*
X116612553Y-81276332D01*
X116432194Y-81314668D01*
X116247806Y-81314668D01*
X116067447Y-81276332D01*
X115899000Y-81201334D01*
X115749827Y-81092954D01*
X115626447Y-80955927D01*
X115534253Y-80796242D01*
X115477274Y-80620878D01*
X115458000Y-80437500D01*
X115477274Y-80254122D01*
X115534253Y-80078758D01*
X115626447Y-79919073D01*
X115749827Y-79782046D01*
X115899000Y-79673666D01*
X116067447Y-79598668D01*
X116247806Y-79560332D01*
X116432194Y-79560332D01*
X116612553Y-79598668D01*
G37*
G36*
X119152553Y-79598668D02*
G01*
X119321000Y-79673666D01*
X119470173Y-79782046D01*
X119593553Y-79919073D01*
X119685747Y-80078758D01*
X119742726Y-80254122D01*
X119762000Y-80437500D01*
X119742726Y-80620878D01*
X119685747Y-80796242D01*
X119593553Y-80955927D01*
X119470173Y-81092954D01*
X119321000Y-81201334D01*
X119152553Y-81276332D01*
X118972194Y-81314668D01*
X118787806Y-81314668D01*
X118607447Y-81276332D01*
X118439000Y-81201334D01*
X118289827Y-81092954D01*
X118166447Y-80955927D01*
X118074253Y-80796242D01*
X118017274Y-80620878D01*
X117998000Y-80437500D01*
X118017274Y-80254122D01*
X118074253Y-80078758D01*
X118166447Y-79919073D01*
X118289827Y-79782046D01*
X118439000Y-79673666D01*
X118607447Y-79598668D01*
X118787806Y-79560332D01*
X118972194Y-79560332D01*
X119152553Y-79598668D01*
G37*
G36*
X121692553Y-79598668D02*
G01*
X121861000Y-79673666D01*
X122010173Y-79782046D01*
X122133553Y-79919073D01*
X122225747Y-80078758D01*
X122282726Y-80254122D01*
X122302000Y-80437500D01*
X122282726Y-80620878D01*
X122225747Y-80796242D01*
X122133553Y-80955927D01*
X122010173Y-81092954D01*
X121861000Y-81201334D01*
X121692553Y-81276332D01*
X121512194Y-81314668D01*
X121327806Y-81314668D01*
X121147447Y-81276332D01*
X120979000Y-81201334D01*
X120829827Y-81092954D01*
X120706447Y-80955927D01*
X120614253Y-80796242D01*
X120557274Y-80620878D01*
X120538000Y-80437500D01*
X120557274Y-80254122D01*
X120614253Y-80078758D01*
X120706447Y-79919073D01*
X120829827Y-79782046D01*
X120979000Y-79673666D01*
X121147447Y-79598668D01*
X121327806Y-79560332D01*
X121512194Y-79560332D01*
X121692553Y-79598668D01*
G37*
G36*
X124232553Y-79598668D02*
G01*
X124401000Y-79673666D01*
X124550173Y-79782046D01*
X124673553Y-79919073D01*
X124765747Y-80078758D01*
X124822726Y-80254122D01*
X124842000Y-80437500D01*
X124822726Y-80620878D01*
X124765747Y-80796242D01*
X124673553Y-80955927D01*
X124550173Y-81092954D01*
X124401000Y-81201334D01*
X124232553Y-81276332D01*
X124052194Y-81314668D01*
X123867806Y-81314668D01*
X123687447Y-81276332D01*
X123519000Y-81201334D01*
X123369827Y-81092954D01*
X123246447Y-80955927D01*
X123154253Y-80796242D01*
X123097274Y-80620878D01*
X123078000Y-80437500D01*
X123097274Y-80254122D01*
X123154253Y-80078758D01*
X123246447Y-79919073D01*
X123369827Y-79782046D01*
X123519000Y-79673666D01*
X123687447Y-79598668D01*
X123867806Y-79560332D01*
X124052194Y-79560332D01*
X124232553Y-79598668D01*
G37*
G36*
X126772553Y-79598668D02*
G01*
X126941000Y-79673666D01*
X127090173Y-79782046D01*
X127213553Y-79919073D01*
X127305747Y-80078758D01*
X127362726Y-80254122D01*
X127382000Y-80437500D01*
X127362726Y-80620878D01*
X127305747Y-80796242D01*
X127213553Y-80955927D01*
X127090173Y-81092954D01*
X126941000Y-81201334D01*
X126772553Y-81276332D01*
X126592194Y-81314668D01*
X126407806Y-81314668D01*
X126227447Y-81276332D01*
X126059000Y-81201334D01*
X125909827Y-81092954D01*
X125786447Y-80955927D01*
X125694253Y-80796242D01*
X125637274Y-80620878D01*
X125618000Y-80437500D01*
X125637274Y-80254122D01*
X125694253Y-80078758D01*
X125786447Y-79919073D01*
X125909827Y-79782046D01*
X126059000Y-79673666D01*
X126227447Y-79598668D01*
X126407806Y-79560332D01*
X126592194Y-79560332D01*
X126772553Y-79598668D01*
G37*
G36*
X129312553Y-79598668D02*
G01*
X129481000Y-79673666D01*
X129630173Y-79782046D01*
X129753553Y-79919073D01*
X129845747Y-80078758D01*
X129902726Y-80254122D01*
X129922000Y-80437500D01*
X129902726Y-80620878D01*
X129845747Y-80796242D01*
X129753553Y-80955927D01*
X129630173Y-81092954D01*
X129481000Y-81201334D01*
X129312553Y-81276332D01*
X129132194Y-81314668D01*
X128947806Y-81314668D01*
X128767447Y-81276332D01*
X128599000Y-81201334D01*
X128449827Y-81092954D01*
X128326447Y-80955927D01*
X128234253Y-80796242D01*
X128177274Y-80620878D01*
X128158000Y-80437500D01*
X128177274Y-80254122D01*
X128234253Y-80078758D01*
X128326447Y-79919073D01*
X128449827Y-79782046D01*
X128599000Y-79673666D01*
X128767447Y-79598668D01*
X128947806Y-79560332D01*
X129132194Y-79560332D01*
X129312553Y-79598668D01*
G37*
G36*
X131852553Y-79598668D02*
G01*
X132021000Y-79673666D01*
X132170173Y-79782046D01*
X132293553Y-79919073D01*
X132385747Y-80078758D01*
X132442726Y-80254122D01*
X132462000Y-80437500D01*
X132442726Y-80620878D01*
X132385747Y-80796242D01*
X132293553Y-80955927D01*
X132170173Y-81092954D01*
X132021000Y-81201334D01*
X131852553Y-81276332D01*
X131672194Y-81314668D01*
X131487806Y-81314668D01*
X131307447Y-81276332D01*
X131139000Y-81201334D01*
X130989827Y-81092954D01*
X130866447Y-80955927D01*
X130774253Y-80796242D01*
X130717274Y-80620878D01*
X130698000Y-80437500D01*
X130717274Y-80254122D01*
X130774253Y-80078758D01*
X130866447Y-79919073D01*
X130989827Y-79782046D01*
X131139000Y-79673666D01*
X131307447Y-79598668D01*
X131487806Y-79560332D01*
X131672194Y-79560332D01*
X131852553Y-79598668D01*
G37*
G36*
X134392553Y-79598668D02*
G01*
X134561000Y-79673666D01*
X134710173Y-79782046D01*
X134833553Y-79919073D01*
X134925747Y-80078758D01*
X134982726Y-80254122D01*
X135002000Y-80437500D01*
X134982726Y-80620878D01*
X134925747Y-80796242D01*
X134833553Y-80955927D01*
X134710173Y-81092954D01*
X134561000Y-81201334D01*
X134392553Y-81276332D01*
X134212194Y-81314668D01*
X134027806Y-81314668D01*
X133847447Y-81276332D01*
X133679000Y-81201334D01*
X133529827Y-81092954D01*
X133406447Y-80955927D01*
X133314253Y-80796242D01*
X133257274Y-80620878D01*
X133238000Y-80437500D01*
X133257274Y-80254122D01*
X133314253Y-80078758D01*
X133406447Y-79919073D01*
X133529827Y-79782046D01*
X133679000Y-79673666D01*
X133847447Y-79598668D01*
X134027806Y-79560332D01*
X134212194Y-79560332D01*
X134392553Y-79598668D01*
G37*
G36*
X136932553Y-79598668D02*
G01*
X137101000Y-79673666D01*
X137250173Y-79782046D01*
X137373553Y-79919073D01*
X137465747Y-80078758D01*
X137522726Y-80254122D01*
X137542000Y-80437500D01*
X137522726Y-80620878D01*
X137465747Y-80796242D01*
X137373553Y-80955927D01*
X137250173Y-81092954D01*
X137101000Y-81201334D01*
X136932553Y-81276332D01*
X136752194Y-81314668D01*
X136567806Y-81314668D01*
X136387447Y-81276332D01*
X136219000Y-81201334D01*
X136069827Y-81092954D01*
X135946447Y-80955927D01*
X135854253Y-80796242D01*
X135797274Y-80620878D01*
X135778000Y-80437500D01*
X135797274Y-80254122D01*
X135854253Y-80078758D01*
X135946447Y-79919073D01*
X136069827Y-79782046D01*
X136219000Y-79673666D01*
X136387447Y-79598668D01*
X136567806Y-79560332D01*
X136752194Y-79560332D01*
X136932553Y-79598668D01*
G37*
G36*
X139472553Y-79598668D02*
G01*
X139641000Y-79673666D01*
X139790173Y-79782046D01*
X139913553Y-79919073D01*
X140005747Y-80078758D01*
X140062726Y-80254122D01*
X140082000Y-80437500D01*
X140062726Y-80620878D01*
X140005747Y-80796242D01*
X139913553Y-80955927D01*
X139790173Y-81092954D01*
X139641000Y-81201334D01*
X139472553Y-81276332D01*
X139292194Y-81314668D01*
X139107806Y-81314668D01*
X138927447Y-81276332D01*
X138759000Y-81201334D01*
X138609827Y-81092954D01*
X138486447Y-80955927D01*
X138394253Y-80796242D01*
X138337274Y-80620878D01*
X138318000Y-80437500D01*
X138337274Y-80254122D01*
X138394253Y-80078758D01*
X138486447Y-79919073D01*
X138609827Y-79782046D01*
X138759000Y-79673666D01*
X138927447Y-79598668D01*
X139107806Y-79560332D01*
X139292194Y-79560332D01*
X139472553Y-79598668D01*
G37*
G36*
X142012553Y-79598668D02*
G01*
X142181000Y-79673666D01*
X142330173Y-79782046D01*
X142453553Y-79919073D01*
X142545747Y-80078758D01*
X142602726Y-80254122D01*
X142622000Y-80437500D01*
X142602726Y-80620878D01*
X142545747Y-80796242D01*
X142453553Y-80955927D01*
X142330173Y-81092954D01*
X142181000Y-81201334D01*
X142012553Y-81276332D01*
X141832194Y-81314668D01*
X141647806Y-81314668D01*
X141467447Y-81276332D01*
X141299000Y-81201334D01*
X141149827Y-81092954D01*
X141026447Y-80955927D01*
X140934253Y-80796242D01*
X140877274Y-80620878D01*
X140858000Y-80437500D01*
X140877274Y-80254122D01*
X140934253Y-80078758D01*
X141026447Y-79919073D01*
X141149827Y-79782046D01*
X141299000Y-79673666D01*
X141467447Y-79598668D01*
X141647806Y-79560332D01*
X141832194Y-79560332D01*
X142012553Y-79598668D01*
G37*
G36*
X144552553Y-79598668D02*
G01*
X144721000Y-79673666D01*
X144870173Y-79782046D01*
X144993553Y-79919073D01*
X145085747Y-80078758D01*
X145142726Y-80254122D01*
X145162000Y-80437500D01*
X145142726Y-80620878D01*
X145085747Y-80796242D01*
X144993553Y-80955927D01*
X144870173Y-81092954D01*
X144721000Y-81201334D01*
X144552553Y-81276332D01*
X144372194Y-81314668D01*
X144187806Y-81314668D01*
X144007447Y-81276332D01*
X143839000Y-81201334D01*
X143689827Y-81092954D01*
X143566447Y-80955927D01*
X143474253Y-80796242D01*
X143417274Y-80620878D01*
X143398000Y-80437500D01*
X143417274Y-80254122D01*
X143474253Y-80078758D01*
X143566447Y-79919073D01*
X143689827Y-79782046D01*
X143839000Y-79673666D01*
X144007447Y-79598668D01*
X144187806Y-79560332D01*
X144372194Y-79560332D01*
X144552553Y-79598668D01*
G37*
G36*
X147092553Y-79598668D02*
G01*
X147261000Y-79673666D01*
X147410173Y-79782046D01*
X147533553Y-79919073D01*
X147625747Y-80078758D01*
X147682726Y-80254122D01*
X147702000Y-80437500D01*
X147682726Y-80620878D01*
X147625747Y-80796242D01*
X147533553Y-80955927D01*
X147410173Y-81092954D01*
X147261000Y-81201334D01*
X147092553Y-81276332D01*
X146912194Y-81314668D01*
X146727806Y-81314668D01*
X146547447Y-81276332D01*
X146379000Y-81201334D01*
X146229827Y-81092954D01*
X146106447Y-80955927D01*
X146014253Y-80796242D01*
X145957274Y-80620878D01*
X145938000Y-80437500D01*
X145957274Y-80254122D01*
X146014253Y-80078758D01*
X146106447Y-79919073D01*
X146229827Y-79782046D01*
X146379000Y-79673666D01*
X146547447Y-79598668D01*
X146727806Y-79560332D01*
X146912194Y-79560332D01*
X147092553Y-79598668D01*
G37*
G36*
X109731106Y-76419108D02*
G01*
X109828707Y-76423757D01*
X109881387Y-76433910D01*
X109935040Y-76439195D01*
X109980756Y-76453063D01*
X110026035Y-76461790D01*
X110077669Y-76482461D01*
X110132200Y-76499003D01*
X110171620Y-76520073D01*
X110211488Y-76536034D01*
X110260945Y-76567818D01*
X110313904Y-76596125D01*
X110346077Y-76622528D01*
X110379546Y-76644038D01*
X110424406Y-76686812D01*
X110473169Y-76726831D01*
X110497608Y-76756610D01*
X110524121Y-76781890D01*
X110561932Y-76834988D01*
X110603875Y-76886096D01*
X110620579Y-76917347D01*
X110639994Y-76944612D01*
X110668409Y-77006832D01*
X110700997Y-77067800D01*
X110710382Y-77098739D01*
X110722980Y-77126324D01*
X110739869Y-77195946D01*
X110760805Y-77264960D01*
X110763670Y-77294057D01*
X110770077Y-77320464D01*
X110773641Y-77395287D01*
X110781000Y-77470000D01*
X110778439Y-77496001D01*
X110779582Y-77519996D01*
X110768449Y-77597428D01*
X110760805Y-77675040D01*
X110754124Y-77697063D01*
X110751153Y-77717729D01*
X110724460Y-77794852D01*
X110700997Y-77872200D01*
X110691614Y-77889753D01*
X110685816Y-77906507D01*
X110643284Y-77980173D01*
X110603875Y-78053904D01*
X110593220Y-78066886D01*
X110585934Y-78079507D01*
X110527870Y-78146515D01*
X110473169Y-78213169D01*
X110462594Y-78221847D01*
X110455115Y-78230479D01*
X110382352Y-78287700D01*
X110313904Y-78343875D01*
X110304592Y-78348851D01*
X110298091Y-78353965D01*
X110211756Y-78398473D01*
X110132200Y-78440997D01*
X110125087Y-78443154D01*
X110120532Y-78445503D01*
X110021103Y-78474697D01*
X109935040Y-78500805D01*
X109930752Y-78501227D01*
X109928860Y-78501783D01*
X109805873Y-78513526D01*
X109730000Y-78521000D01*
X109727614Y-78521000D01*
X109231182Y-78521000D01*
X109230000Y-78521000D01*
X109228893Y-78520890D01*
X109131292Y-78516242D01*
X109078621Y-78506090D01*
X109024960Y-78500805D01*
X108979235Y-78486934D01*
X108933964Y-78478209D01*
X108882336Y-78457540D01*
X108827800Y-78440997D01*
X108788375Y-78419924D01*
X108748511Y-78403965D01*
X108699057Y-78372183D01*
X108646096Y-78343875D01*
X108613920Y-78317469D01*
X108580453Y-78295961D01*
X108535593Y-78253187D01*
X108486831Y-78213169D01*
X108462391Y-78183389D01*
X108435878Y-78158109D01*
X108398065Y-78105008D01*
X108356125Y-78053904D01*
X108339421Y-78022654D01*
X108320005Y-77995387D01*
X108291586Y-77933160D01*
X108259003Y-77872200D01*
X108249618Y-77841264D01*
X108237019Y-77813675D01*
X108220126Y-77744040D01*
X108199195Y-77675040D01*
X108196329Y-77645948D01*
X108189922Y-77619535D01*
X108186356Y-77544694D01*
X108179000Y-77470000D01*
X108181560Y-77444004D01*
X108180417Y-77420003D01*
X108191553Y-77342546D01*
X108199195Y-77264960D01*
X108205873Y-77242943D01*
X108208846Y-77222270D01*
X108235549Y-77145115D01*
X108259003Y-77067800D01*
X108268381Y-77050253D01*
X108274183Y-77033492D01*
X108316735Y-76959789D01*
X108356125Y-76886096D01*
X108366774Y-76873119D01*
X108374065Y-76860492D01*
X108432162Y-76793443D01*
X108486831Y-76726831D01*
X108497399Y-76718157D01*
X108504884Y-76709520D01*
X108577699Y-76652256D01*
X108646096Y-76596125D01*
X108655400Y-76591151D01*
X108661908Y-76586034D01*
X108748323Y-76541483D01*
X108827800Y-76499003D01*
X108834905Y-76496847D01*
X108839467Y-76494496D01*
X108939030Y-76465261D01*
X109024960Y-76439195D01*
X109029240Y-76438773D01*
X109031139Y-76438216D01*
X109154267Y-76426459D01*
X109230000Y-76419000D01*
X109730000Y-76419000D01*
X109731106Y-76419108D01*
G37*
G36*
X124971106Y-76419108D02*
G01*
X125068707Y-76423757D01*
X125121387Y-76433910D01*
X125175040Y-76439195D01*
X125220756Y-76453063D01*
X125266035Y-76461790D01*
X125317669Y-76482461D01*
X125372200Y-76499003D01*
X125411620Y-76520073D01*
X125451488Y-76536034D01*
X125500945Y-76567818D01*
X125553904Y-76596125D01*
X125586077Y-76622528D01*
X125619546Y-76644038D01*
X125664406Y-76686812D01*
X125713169Y-76726831D01*
X125737608Y-76756610D01*
X125764121Y-76781890D01*
X125801932Y-76834988D01*
X125843875Y-76886096D01*
X125860579Y-76917347D01*
X125879994Y-76944612D01*
X125908409Y-77006832D01*
X125940997Y-77067800D01*
X125950382Y-77098739D01*
X125962980Y-77126324D01*
X125979869Y-77195946D01*
X126000805Y-77264960D01*
X126003670Y-77294057D01*
X126010077Y-77320464D01*
X126013641Y-77395287D01*
X126021000Y-77470000D01*
X126018439Y-77496001D01*
X126019582Y-77519996D01*
X126008449Y-77597428D01*
X126000805Y-77675040D01*
X125994124Y-77697063D01*
X125991153Y-77717729D01*
X125964460Y-77794852D01*
X125940997Y-77872200D01*
X125931614Y-77889753D01*
X125925816Y-77906507D01*
X125883284Y-77980173D01*
X125843875Y-78053904D01*
X125833220Y-78066886D01*
X125825934Y-78079507D01*
X125767870Y-78146515D01*
X125713169Y-78213169D01*
X125702594Y-78221847D01*
X125695115Y-78230479D01*
X125622352Y-78287700D01*
X125553904Y-78343875D01*
X125544592Y-78348851D01*
X125538091Y-78353965D01*
X125451756Y-78398473D01*
X125372200Y-78440997D01*
X125365087Y-78443154D01*
X125360532Y-78445503D01*
X125261103Y-78474697D01*
X125175040Y-78500805D01*
X125170752Y-78501227D01*
X125168860Y-78501783D01*
X125045873Y-78513526D01*
X124970000Y-78521000D01*
X124967614Y-78521000D01*
X124471182Y-78521000D01*
X124470000Y-78521000D01*
X124468893Y-78520890D01*
X124371292Y-78516242D01*
X124318621Y-78506090D01*
X124264960Y-78500805D01*
X124219235Y-78486934D01*
X124173964Y-78478209D01*
X124122336Y-78457540D01*
X124067800Y-78440997D01*
X124028375Y-78419924D01*
X123988511Y-78403965D01*
X123939057Y-78372183D01*
X123886096Y-78343875D01*
X123853920Y-78317469D01*
X123820453Y-78295961D01*
X123775593Y-78253187D01*
X123726831Y-78213169D01*
X123702391Y-78183389D01*
X123675878Y-78158109D01*
X123638065Y-78105008D01*
X123596125Y-78053904D01*
X123579421Y-78022654D01*
X123560005Y-77995387D01*
X123531586Y-77933160D01*
X123499003Y-77872200D01*
X123489618Y-77841264D01*
X123477019Y-77813675D01*
X123460126Y-77744040D01*
X123439195Y-77675040D01*
X123436329Y-77645948D01*
X123429922Y-77619535D01*
X123426356Y-77544694D01*
X123419000Y-77470000D01*
X123421560Y-77444004D01*
X123420417Y-77420003D01*
X123431553Y-77342546D01*
X123439195Y-77264960D01*
X123445873Y-77242943D01*
X123448846Y-77222270D01*
X123475549Y-77145115D01*
X123499003Y-77067800D01*
X123508381Y-77050253D01*
X123514183Y-77033492D01*
X123556735Y-76959789D01*
X123596125Y-76886096D01*
X123606774Y-76873119D01*
X123614065Y-76860492D01*
X123672162Y-76793443D01*
X123726831Y-76726831D01*
X123737399Y-76718157D01*
X123744884Y-76709520D01*
X123817699Y-76652256D01*
X123886096Y-76596125D01*
X123895400Y-76591151D01*
X123901908Y-76586034D01*
X123988323Y-76541483D01*
X124067800Y-76499003D01*
X124074905Y-76496847D01*
X124079467Y-76494496D01*
X124179030Y-76465261D01*
X124264960Y-76439195D01*
X124269240Y-76438773D01*
X124271139Y-76438216D01*
X124394267Y-76426459D01*
X124470000Y-76419000D01*
X124970000Y-76419000D01*
X124971106Y-76419108D01*
G37*
G36*
X105391604Y-68868184D02*
G01*
X105728911Y-68925495D01*
X106057681Y-69020212D01*
X106373779Y-69151144D01*
X106673230Y-69316644D01*
X106952267Y-69514632D01*
X107207383Y-69742617D01*
X107435368Y-69997733D01*
X107633356Y-70276770D01*
X107798856Y-70576221D01*
X107929788Y-70892319D01*
X108024505Y-71221089D01*
X108081816Y-71558396D01*
X108101000Y-71900000D01*
X108081816Y-72241604D01*
X108024505Y-72578911D01*
X107929788Y-72907681D01*
X107798856Y-73223779D01*
X107633356Y-73523230D01*
X107435368Y-73802267D01*
X107207383Y-74057383D01*
X106952267Y-74285368D01*
X106673230Y-74483356D01*
X106373779Y-74648856D01*
X106057681Y-74779788D01*
X105728911Y-74874505D01*
X105391604Y-74931816D01*
X105050000Y-74951000D01*
X104708396Y-74931816D01*
X104371089Y-74874505D01*
X104042319Y-74779788D01*
X103726221Y-74648856D01*
X103426770Y-74483356D01*
X103147733Y-74285368D01*
X102892617Y-74057383D01*
X102664632Y-73802267D01*
X102466644Y-73523230D01*
X102301144Y-73223779D01*
X102170212Y-72907681D01*
X102075495Y-72578911D01*
X102018184Y-72241604D01*
X101999000Y-71900000D01*
X102018184Y-71558396D01*
X102075495Y-71221089D01*
X102170212Y-70892319D01*
X102301144Y-70576221D01*
X102466644Y-70276770D01*
X102664632Y-69997733D01*
X102892617Y-69742617D01*
X103147733Y-69514632D01*
X103426770Y-69316644D01*
X103726221Y-69151144D01*
X104042319Y-69020212D01*
X104371089Y-68925495D01*
X104708396Y-68868184D01*
X105050000Y-68849000D01*
X105391604Y-68868184D01*
G37*
G36*
X197641604Y-68868184D02*
G01*
X197978911Y-68925495D01*
X198307681Y-69020212D01*
X198623779Y-69151144D01*
X198923230Y-69316644D01*
X199202267Y-69514632D01*
X199457383Y-69742617D01*
X199685368Y-69997733D01*
X199883356Y-70276770D01*
X200048856Y-70576221D01*
X200179788Y-70892319D01*
X200274505Y-71221089D01*
X200331816Y-71558396D01*
X200351000Y-71900000D01*
X200331816Y-72241604D01*
X200274505Y-72578911D01*
X200179788Y-72907681D01*
X200048856Y-73223779D01*
X199883356Y-73523230D01*
X199685368Y-73802267D01*
X199457383Y-74057383D01*
X199202267Y-74285368D01*
X198923230Y-74483356D01*
X198623779Y-74648856D01*
X198307681Y-74779788D01*
X197978911Y-74874505D01*
X197641604Y-74931816D01*
X197300000Y-74951000D01*
X196958396Y-74931816D01*
X196621089Y-74874505D01*
X196292319Y-74779788D01*
X195976221Y-74648856D01*
X195676770Y-74483356D01*
X195397733Y-74285368D01*
X195142617Y-74057383D01*
X194914632Y-73802267D01*
X194716644Y-73523230D01*
X194551144Y-73223779D01*
X194420212Y-72907681D01*
X194325495Y-72578911D01*
X194268184Y-72241604D01*
X194249000Y-71900000D01*
X194268184Y-71558396D01*
X194325495Y-71221089D01*
X194420212Y-70892319D01*
X194551144Y-70576221D01*
X194716644Y-70276770D01*
X194914632Y-69997733D01*
X195142617Y-69742617D01*
X195397733Y-69514632D01*
X195676770Y-69316644D01*
X195976221Y-69151144D01*
X196292319Y-69020212D01*
X196621089Y-68925495D01*
X196958396Y-68868184D01*
X197300000Y-68849000D01*
X197641604Y-68868184D01*
G37*
G36*
X109731106Y-67279108D02*
G01*
X109828707Y-67283757D01*
X109881387Y-67293910D01*
X109935040Y-67299195D01*
X109980756Y-67313063D01*
X110026035Y-67321790D01*
X110077669Y-67342461D01*
X110132200Y-67359003D01*
X110171620Y-67380073D01*
X110211488Y-67396034D01*
X110260945Y-67427818D01*
X110313904Y-67456125D01*
X110346077Y-67482528D01*
X110379546Y-67504038D01*
X110424406Y-67546812D01*
X110473169Y-67586831D01*
X110497608Y-67616610D01*
X110524121Y-67641890D01*
X110561932Y-67694988D01*
X110603875Y-67746096D01*
X110620579Y-67777347D01*
X110639994Y-67804612D01*
X110668409Y-67866832D01*
X110700997Y-67927800D01*
X110710382Y-67958739D01*
X110722980Y-67986324D01*
X110739869Y-68055946D01*
X110760805Y-68124960D01*
X110763670Y-68154057D01*
X110770077Y-68180464D01*
X110773641Y-68255287D01*
X110781000Y-68330000D01*
X110778439Y-68356001D01*
X110779582Y-68379996D01*
X110768449Y-68457428D01*
X110760805Y-68535040D01*
X110754124Y-68557063D01*
X110751153Y-68577729D01*
X110724460Y-68654852D01*
X110700997Y-68732200D01*
X110691614Y-68749753D01*
X110685816Y-68766507D01*
X110643284Y-68840173D01*
X110603875Y-68913904D01*
X110593220Y-68926886D01*
X110585934Y-68939507D01*
X110527870Y-69006515D01*
X110473169Y-69073169D01*
X110462594Y-69081847D01*
X110455115Y-69090479D01*
X110382352Y-69147700D01*
X110313904Y-69203875D01*
X110304592Y-69208851D01*
X110298091Y-69213965D01*
X110211756Y-69258473D01*
X110132200Y-69300997D01*
X110125087Y-69303154D01*
X110120532Y-69305503D01*
X110021103Y-69334697D01*
X109935040Y-69360805D01*
X109930752Y-69361227D01*
X109928860Y-69361783D01*
X109805873Y-69373526D01*
X109730000Y-69381000D01*
X109727614Y-69381000D01*
X109231182Y-69381000D01*
X109230000Y-69381000D01*
X109228893Y-69380890D01*
X109131292Y-69376242D01*
X109078621Y-69366090D01*
X109024960Y-69360805D01*
X108979235Y-69346934D01*
X108933964Y-69338209D01*
X108882336Y-69317540D01*
X108827800Y-69300997D01*
X108788375Y-69279924D01*
X108748511Y-69263965D01*
X108699057Y-69232183D01*
X108646096Y-69203875D01*
X108613920Y-69177469D01*
X108580453Y-69155961D01*
X108535593Y-69113187D01*
X108486831Y-69073169D01*
X108462391Y-69043389D01*
X108435878Y-69018109D01*
X108398065Y-68965008D01*
X108356125Y-68913904D01*
X108339421Y-68882654D01*
X108320005Y-68855387D01*
X108291586Y-68793160D01*
X108259003Y-68732200D01*
X108249618Y-68701264D01*
X108237019Y-68673675D01*
X108220126Y-68604040D01*
X108199195Y-68535040D01*
X108196329Y-68505948D01*
X108189922Y-68479535D01*
X108186356Y-68404694D01*
X108179000Y-68330000D01*
X108181560Y-68304004D01*
X108180417Y-68280003D01*
X108191553Y-68202546D01*
X108199195Y-68124960D01*
X108205873Y-68102943D01*
X108208846Y-68082270D01*
X108235549Y-68005115D01*
X108259003Y-67927800D01*
X108268381Y-67910253D01*
X108274183Y-67893492D01*
X108316735Y-67819789D01*
X108356125Y-67746096D01*
X108366774Y-67733119D01*
X108374065Y-67720492D01*
X108432162Y-67653443D01*
X108486831Y-67586831D01*
X108497399Y-67578157D01*
X108504884Y-67569520D01*
X108577699Y-67512256D01*
X108646096Y-67456125D01*
X108655400Y-67451151D01*
X108661908Y-67446034D01*
X108748323Y-67401483D01*
X108827800Y-67359003D01*
X108834905Y-67356847D01*
X108839467Y-67354496D01*
X108939030Y-67325261D01*
X109024960Y-67299195D01*
X109029240Y-67298773D01*
X109031139Y-67298216D01*
X109154267Y-67286459D01*
X109230000Y-67279000D01*
X109730000Y-67279000D01*
X109731106Y-67279108D01*
G37*
G36*
X124971106Y-67279108D02*
G01*
X125068707Y-67283757D01*
X125121387Y-67293910D01*
X125175040Y-67299195D01*
X125220756Y-67313063D01*
X125266035Y-67321790D01*
X125317669Y-67342461D01*
X125372200Y-67359003D01*
X125411620Y-67380073D01*
X125451488Y-67396034D01*
X125500945Y-67427818D01*
X125553904Y-67456125D01*
X125586077Y-67482528D01*
X125619546Y-67504038D01*
X125664406Y-67546812D01*
X125713169Y-67586831D01*
X125737608Y-67616610D01*
X125764121Y-67641890D01*
X125801932Y-67694988D01*
X125843875Y-67746096D01*
X125860579Y-67777347D01*
X125879994Y-67804612D01*
X125908409Y-67866832D01*
X125940997Y-67927800D01*
X125950382Y-67958739D01*
X125962980Y-67986324D01*
X125979869Y-68055946D01*
X126000805Y-68124960D01*
X126003670Y-68154057D01*
X126010077Y-68180464D01*
X126013641Y-68255287D01*
X126021000Y-68330000D01*
X126018439Y-68356001D01*
X126019582Y-68379996D01*
X126008449Y-68457428D01*
X126000805Y-68535040D01*
X125994124Y-68557063D01*
X125991153Y-68577729D01*
X125964460Y-68654852D01*
X125940997Y-68732200D01*
X125931614Y-68749753D01*
X125925816Y-68766507D01*
X125883284Y-68840173D01*
X125843875Y-68913904D01*
X125833220Y-68926886D01*
X125825934Y-68939507D01*
X125767870Y-69006515D01*
X125713169Y-69073169D01*
X125702594Y-69081847D01*
X125695115Y-69090479D01*
X125622352Y-69147700D01*
X125553904Y-69203875D01*
X125544592Y-69208851D01*
X125538091Y-69213965D01*
X125451756Y-69258473D01*
X125372200Y-69300997D01*
X125365087Y-69303154D01*
X125360532Y-69305503D01*
X125261103Y-69334697D01*
X125175040Y-69360805D01*
X125170752Y-69361227D01*
X125168860Y-69361783D01*
X125045873Y-69373526D01*
X124970000Y-69381000D01*
X124967614Y-69381000D01*
X124471182Y-69381000D01*
X124470000Y-69381000D01*
X124468893Y-69380890D01*
X124371292Y-69376242D01*
X124318621Y-69366090D01*
X124264960Y-69360805D01*
X124219235Y-69346934D01*
X124173964Y-69338209D01*
X124122336Y-69317540D01*
X124067800Y-69300997D01*
X124028375Y-69279924D01*
X123988511Y-69263965D01*
X123939057Y-69232183D01*
X123886096Y-69203875D01*
X123853920Y-69177469D01*
X123820453Y-69155961D01*
X123775593Y-69113187D01*
X123726831Y-69073169D01*
X123702391Y-69043389D01*
X123675878Y-69018109D01*
X123638065Y-68965008D01*
X123596125Y-68913904D01*
X123579421Y-68882654D01*
X123560005Y-68855387D01*
X123531586Y-68793160D01*
X123499003Y-68732200D01*
X123489618Y-68701264D01*
X123477019Y-68673675D01*
X123460126Y-68604040D01*
X123439195Y-68535040D01*
X123436329Y-68505948D01*
X123429922Y-68479535D01*
X123426356Y-68404694D01*
X123419000Y-68330000D01*
X123421560Y-68304004D01*
X123420417Y-68280003D01*
X123431553Y-68202546D01*
X123439195Y-68124960D01*
X123445873Y-68102943D01*
X123448846Y-68082270D01*
X123475549Y-68005115D01*
X123499003Y-67927800D01*
X123508381Y-67910253D01*
X123514183Y-67893492D01*
X123556735Y-67819789D01*
X123596125Y-67746096D01*
X123606774Y-67733119D01*
X123614065Y-67720492D01*
X123672162Y-67653443D01*
X123726831Y-67586831D01*
X123737399Y-67578157D01*
X123744884Y-67569520D01*
X123817699Y-67512256D01*
X123886096Y-67456125D01*
X123895400Y-67451151D01*
X123901908Y-67446034D01*
X123988323Y-67401483D01*
X124067800Y-67359003D01*
X124074905Y-67356847D01*
X124079467Y-67354496D01*
X124179030Y-67325261D01*
X124264960Y-67299195D01*
X124269240Y-67298773D01*
X124271139Y-67298216D01*
X124394267Y-67286459D01*
X124470000Y-67279000D01*
X124970000Y-67279000D01*
X124971106Y-67279108D01*
G37*
G36*
X144994517Y-59812882D02*
G01*
X145011062Y-59823938D01*
X145022118Y-59840483D01*
X145026000Y-59860000D01*
X145026000Y-62460000D01*
X145022118Y-62479517D01*
X145011062Y-62496062D01*
X144994517Y-62507118D01*
X144975000Y-62511000D01*
X142375000Y-62511000D01*
X142355483Y-62507118D01*
X142338938Y-62496062D01*
X142327882Y-62479517D01*
X142324000Y-62460000D01*
X142324000Y-59860000D01*
X142327882Y-59840483D01*
X142338938Y-59823938D01*
X142355483Y-59812882D01*
X142375000Y-59809000D01*
X144975000Y-59809000D01*
X144994517Y-59812882D01*
G37*
G36*
X194994517Y-59812882D02*
G01*
X195011062Y-59823938D01*
X195022118Y-59840483D01*
X195026000Y-59860000D01*
X195026000Y-62460000D01*
X195022118Y-62479517D01*
X195011062Y-62496062D01*
X194994517Y-62507118D01*
X194975000Y-62511000D01*
X192375000Y-62511000D01*
X192355483Y-62507118D01*
X192338938Y-62496062D01*
X192327882Y-62479517D01*
X192324000Y-62460000D01*
X192324000Y-59860000D01*
X192327882Y-59840483D01*
X192338938Y-59823938D01*
X192355483Y-59812882D01*
X192375000Y-59809000D01*
X194975000Y-59809000D01*
X194994517Y-59812882D01*
G37*
G36*
X109006651Y-59850340D02*
G01*
X109217691Y-59922790D01*
X109413927Y-60028988D01*
X109590007Y-60166037D01*
X109741129Y-60330199D01*
X109863169Y-60516995D01*
X109952799Y-60721331D01*
X110007574Y-60937633D01*
X110026000Y-61160000D01*
X110007574Y-61382367D01*
X109952799Y-61598669D01*
X109863169Y-61803005D01*
X109741129Y-61989801D01*
X109590007Y-62153963D01*
X109413927Y-62291012D01*
X109217691Y-62397210D01*
X109006651Y-62469660D01*
X108786565Y-62506386D01*
X108563435Y-62506386D01*
X108343349Y-62469660D01*
X108132309Y-62397210D01*
X107936073Y-62291012D01*
X107759993Y-62153963D01*
X107608871Y-61989801D01*
X107486831Y-61803005D01*
X107397201Y-61598669D01*
X107342426Y-61382367D01*
X107324000Y-61160000D01*
X107342426Y-60937633D01*
X107397201Y-60721331D01*
X107486831Y-60516995D01*
X107608871Y-60330199D01*
X107759993Y-60166037D01*
X107936073Y-60028988D01*
X108132309Y-59922790D01*
X108343349Y-59850340D01*
X108563435Y-59813614D01*
X108786565Y-59813614D01*
X109006651Y-59850340D01*
G37*
G36*
X114006651Y-59850340D02*
G01*
X114217691Y-59922790D01*
X114413927Y-60028988D01*
X114590007Y-60166037D01*
X114741129Y-60330199D01*
X114863169Y-60516995D01*
X114952799Y-60721331D01*
X115007574Y-60937633D01*
X115026000Y-61160000D01*
X115007574Y-61382367D01*
X114952799Y-61598669D01*
X114863169Y-61803005D01*
X114741129Y-61989801D01*
X114590007Y-62153963D01*
X114413927Y-62291012D01*
X114217691Y-62397210D01*
X114006651Y-62469660D01*
X113786565Y-62506386D01*
X113563435Y-62506386D01*
X113343349Y-62469660D01*
X113132309Y-62397210D01*
X112936073Y-62291012D01*
X112759993Y-62153963D01*
X112608871Y-61989801D01*
X112486831Y-61803005D01*
X112397201Y-61598669D01*
X112342426Y-61382367D01*
X112324000Y-61160000D01*
X112342426Y-60937633D01*
X112397201Y-60721331D01*
X112486831Y-60516995D01*
X112608871Y-60330199D01*
X112759993Y-60166037D01*
X112936073Y-60028988D01*
X113132309Y-59922790D01*
X113343349Y-59850340D01*
X113563435Y-59813614D01*
X113786565Y-59813614D01*
X114006651Y-59850340D01*
G37*
G36*
X119006651Y-59850340D02*
G01*
X119217691Y-59922790D01*
X119413927Y-60028988D01*
X119590007Y-60166037D01*
X119741129Y-60330199D01*
X119863169Y-60516995D01*
X119952799Y-60721331D01*
X120007574Y-60937633D01*
X120026000Y-61160000D01*
X120007574Y-61382367D01*
X119952799Y-61598669D01*
X119863169Y-61803005D01*
X119741129Y-61989801D01*
X119590007Y-62153963D01*
X119413927Y-62291012D01*
X119217691Y-62397210D01*
X119006651Y-62469660D01*
X118786565Y-62506386D01*
X118563435Y-62506386D01*
X118343349Y-62469660D01*
X118132309Y-62397210D01*
X117936073Y-62291012D01*
X117759993Y-62153963D01*
X117608871Y-61989801D01*
X117486831Y-61803005D01*
X117397201Y-61598669D01*
X117342426Y-61382367D01*
X117324000Y-61160000D01*
X117342426Y-60937633D01*
X117397201Y-60721331D01*
X117486831Y-60516995D01*
X117608871Y-60330199D01*
X117759993Y-60166037D01*
X117936073Y-60028988D01*
X118132309Y-59922790D01*
X118343349Y-59850340D01*
X118563435Y-59813614D01*
X118786565Y-59813614D01*
X119006651Y-59850340D01*
G37*
G36*
X124006651Y-59850340D02*
G01*
X124217691Y-59922790D01*
X124413927Y-60028988D01*
X124590007Y-60166037D01*
X124741129Y-60330199D01*
X124863169Y-60516995D01*
X124952799Y-60721331D01*
X125007574Y-60937633D01*
X125026000Y-61160000D01*
X125007574Y-61382367D01*
X124952799Y-61598669D01*
X124863169Y-61803005D01*
X124741129Y-61989801D01*
X124590007Y-62153963D01*
X124413927Y-62291012D01*
X124217691Y-62397210D01*
X124006651Y-62469660D01*
X123786565Y-62506386D01*
X123563435Y-62506386D01*
X123343349Y-62469660D01*
X123132309Y-62397210D01*
X122936073Y-62291012D01*
X122759993Y-62153963D01*
X122608871Y-61989801D01*
X122486831Y-61803005D01*
X122397201Y-61598669D01*
X122342426Y-61382367D01*
X122324000Y-61160000D01*
X122342426Y-60937633D01*
X122397201Y-60721331D01*
X122486831Y-60516995D01*
X122608871Y-60330199D01*
X122759993Y-60166037D01*
X122936073Y-60028988D01*
X123132309Y-59922790D01*
X123343349Y-59850340D01*
X123563435Y-59813614D01*
X123786565Y-59813614D01*
X124006651Y-59850340D01*
G37*
G36*
X129006651Y-59850340D02*
G01*
X129217691Y-59922790D01*
X129413927Y-60028988D01*
X129590007Y-60166037D01*
X129741129Y-60330199D01*
X129863169Y-60516995D01*
X129952799Y-60721331D01*
X130007574Y-60937633D01*
X130026000Y-61160000D01*
X130007574Y-61382367D01*
X129952799Y-61598669D01*
X129863169Y-61803005D01*
X129741129Y-61989801D01*
X129590007Y-62153963D01*
X129413927Y-62291012D01*
X129217691Y-62397210D01*
X129006651Y-62469660D01*
X128786565Y-62506386D01*
X128563435Y-62506386D01*
X128343349Y-62469660D01*
X128132309Y-62397210D01*
X127936073Y-62291012D01*
X127759993Y-62153963D01*
X127608871Y-61989801D01*
X127486831Y-61803005D01*
X127397201Y-61598669D01*
X127342426Y-61382367D01*
X127324000Y-61160000D01*
X127342426Y-60937633D01*
X127397201Y-60721331D01*
X127486831Y-60516995D01*
X127608871Y-60330199D01*
X127759993Y-60166037D01*
X127936073Y-60028988D01*
X128132309Y-59922790D01*
X128343349Y-59850340D01*
X128563435Y-59813614D01*
X128786565Y-59813614D01*
X129006651Y-59850340D01*
G37*
G36*
X134006651Y-59850340D02*
G01*
X134217691Y-59922790D01*
X134413927Y-60028988D01*
X134590007Y-60166037D01*
X134741129Y-60330199D01*
X134863169Y-60516995D01*
X134952799Y-60721331D01*
X135007574Y-60937633D01*
X135026000Y-61160000D01*
X135007574Y-61382367D01*
X134952799Y-61598669D01*
X134863169Y-61803005D01*
X134741129Y-61989801D01*
X134590007Y-62153963D01*
X134413927Y-62291012D01*
X134217691Y-62397210D01*
X134006651Y-62469660D01*
X133786565Y-62506386D01*
X133563435Y-62506386D01*
X133343349Y-62469660D01*
X133132309Y-62397210D01*
X132936073Y-62291012D01*
X132759993Y-62153963D01*
X132608871Y-61989801D01*
X132486831Y-61803005D01*
X132397201Y-61598669D01*
X132342426Y-61382367D01*
X132324000Y-61160000D01*
X132342426Y-60937633D01*
X132397201Y-60721331D01*
X132486831Y-60516995D01*
X132608871Y-60330199D01*
X132759993Y-60166037D01*
X132936073Y-60028988D01*
X133132309Y-59922790D01*
X133343349Y-59850340D01*
X133563435Y-59813614D01*
X133786565Y-59813614D01*
X134006651Y-59850340D01*
G37*
G36*
X139006651Y-59850340D02*
G01*
X139217691Y-59922790D01*
X139413927Y-60028988D01*
X139590007Y-60166037D01*
X139741129Y-60330199D01*
X139863169Y-60516995D01*
X139952799Y-60721331D01*
X140007574Y-60937633D01*
X140026000Y-61160000D01*
X140007574Y-61382367D01*
X139952799Y-61598669D01*
X139863169Y-61803005D01*
X139741129Y-61989801D01*
X139590007Y-62153963D01*
X139413927Y-62291012D01*
X139217691Y-62397210D01*
X139006651Y-62469660D01*
X138786565Y-62506386D01*
X138563435Y-62506386D01*
X138343349Y-62469660D01*
X138132309Y-62397210D01*
X137936073Y-62291012D01*
X137759993Y-62153963D01*
X137608871Y-61989801D01*
X137486831Y-61803005D01*
X137397201Y-61598669D01*
X137342426Y-61382367D01*
X137324000Y-61160000D01*
X137342426Y-60937633D01*
X137397201Y-60721331D01*
X137486831Y-60516995D01*
X137608871Y-60330199D01*
X137759993Y-60166037D01*
X137936073Y-60028988D01*
X138132309Y-59922790D01*
X138343349Y-59850340D01*
X138563435Y-59813614D01*
X138786565Y-59813614D01*
X139006651Y-59850340D01*
G37*
G36*
X159006651Y-59850340D02*
G01*
X159217691Y-59922790D01*
X159413927Y-60028988D01*
X159590007Y-60166037D01*
X159741129Y-60330199D01*
X159863169Y-60516995D01*
X159952799Y-60721331D01*
X160007574Y-60937633D01*
X160026000Y-61160000D01*
X160007574Y-61382367D01*
X159952799Y-61598669D01*
X159863169Y-61803005D01*
X159741129Y-61989801D01*
X159590007Y-62153963D01*
X159413927Y-62291012D01*
X159217691Y-62397210D01*
X159006651Y-62469660D01*
X158786565Y-62506386D01*
X158563435Y-62506386D01*
X158343349Y-62469660D01*
X158132309Y-62397210D01*
X157936073Y-62291012D01*
X157759993Y-62153963D01*
X157608871Y-61989801D01*
X157486831Y-61803005D01*
X157397201Y-61598669D01*
X157342426Y-61382367D01*
X157324000Y-61160000D01*
X157342426Y-60937633D01*
X157397201Y-60721331D01*
X157486831Y-60516995D01*
X157608871Y-60330199D01*
X157759993Y-60166037D01*
X157936073Y-60028988D01*
X158132309Y-59922790D01*
X158343349Y-59850340D01*
X158563435Y-59813614D01*
X158786565Y-59813614D01*
X159006651Y-59850340D01*
G37*
G36*
X164006651Y-59850340D02*
G01*
X164217691Y-59922790D01*
X164413927Y-60028988D01*
X164590007Y-60166037D01*
X164741129Y-60330199D01*
X164863169Y-60516995D01*
X164952799Y-60721331D01*
X165007574Y-60937633D01*
X165026000Y-61160000D01*
X165007574Y-61382367D01*
X164952799Y-61598669D01*
X164863169Y-61803005D01*
X164741129Y-61989801D01*
X164590007Y-62153963D01*
X164413927Y-62291012D01*
X164217691Y-62397210D01*
X164006651Y-62469660D01*
X163786565Y-62506386D01*
X163563435Y-62506386D01*
X163343349Y-62469660D01*
X163132309Y-62397210D01*
X162936073Y-62291012D01*
X162759993Y-62153963D01*
X162608871Y-61989801D01*
X162486831Y-61803005D01*
X162397201Y-61598669D01*
X162342426Y-61382367D01*
X162324000Y-61160000D01*
X162342426Y-60937633D01*
X162397201Y-60721331D01*
X162486831Y-60516995D01*
X162608871Y-60330199D01*
X162759993Y-60166037D01*
X162936073Y-60028988D01*
X163132309Y-59922790D01*
X163343349Y-59850340D01*
X163563435Y-59813614D01*
X163786565Y-59813614D01*
X164006651Y-59850340D01*
G37*
G36*
X169006651Y-59850340D02*
G01*
X169217691Y-59922790D01*
X169413927Y-60028988D01*
X169590007Y-60166037D01*
X169741129Y-60330199D01*
X169863169Y-60516995D01*
X169952799Y-60721331D01*
X170007574Y-60937633D01*
X170026000Y-61160000D01*
X170007574Y-61382367D01*
X169952799Y-61598669D01*
X169863169Y-61803005D01*
X169741129Y-61989801D01*
X169590007Y-62153963D01*
X169413927Y-62291012D01*
X169217691Y-62397210D01*
X169006651Y-62469660D01*
X168786565Y-62506386D01*
X168563435Y-62506386D01*
X168343349Y-62469660D01*
X168132309Y-62397210D01*
X167936073Y-62291012D01*
X167759993Y-62153963D01*
X167608871Y-61989801D01*
X167486831Y-61803005D01*
X167397201Y-61598669D01*
X167342426Y-61382367D01*
X167324000Y-61160000D01*
X167342426Y-60937633D01*
X167397201Y-60721331D01*
X167486831Y-60516995D01*
X167608871Y-60330199D01*
X167759993Y-60166037D01*
X167936073Y-60028988D01*
X168132309Y-59922790D01*
X168343349Y-59850340D01*
X168563435Y-59813614D01*
X168786565Y-59813614D01*
X169006651Y-59850340D01*
G37*
G36*
X174006651Y-59850340D02*
G01*
X174217691Y-59922790D01*
X174413927Y-60028988D01*
X174590007Y-60166037D01*
X174741129Y-60330199D01*
X174863169Y-60516995D01*
X174952799Y-60721331D01*
X175007574Y-60937633D01*
X175026000Y-61160000D01*
X175007574Y-61382367D01*
X174952799Y-61598669D01*
X174863169Y-61803005D01*
X174741129Y-61989801D01*
X174590007Y-62153963D01*
X174413927Y-62291012D01*
X174217691Y-62397210D01*
X174006651Y-62469660D01*
X173786565Y-62506386D01*
X173563435Y-62506386D01*
X173343349Y-62469660D01*
X173132309Y-62397210D01*
X172936073Y-62291012D01*
X172759993Y-62153963D01*
X172608871Y-61989801D01*
X172486831Y-61803005D01*
X172397201Y-61598669D01*
X172342426Y-61382367D01*
X172324000Y-61160000D01*
X172342426Y-60937633D01*
X172397201Y-60721331D01*
X172486831Y-60516995D01*
X172608871Y-60330199D01*
X172759993Y-60166037D01*
X172936073Y-60028988D01*
X173132309Y-59922790D01*
X173343349Y-59850340D01*
X173563435Y-59813614D01*
X173786565Y-59813614D01*
X174006651Y-59850340D01*
G37*
G36*
X179006651Y-59850340D02*
G01*
X179217691Y-59922790D01*
X179413927Y-60028988D01*
X179590007Y-60166037D01*
X179741129Y-60330199D01*
X179863169Y-60516995D01*
X179952799Y-60721331D01*
X180007574Y-60937633D01*
X180026000Y-61160000D01*
X180007574Y-61382367D01*
X179952799Y-61598669D01*
X179863169Y-61803005D01*
X179741129Y-61989801D01*
X179590007Y-62153963D01*
X179413927Y-62291012D01*
X179217691Y-62397210D01*
X179006651Y-62469660D01*
X178786565Y-62506386D01*
X178563435Y-62506386D01*
X178343349Y-62469660D01*
X178132309Y-62397210D01*
X177936073Y-62291012D01*
X177759993Y-62153963D01*
X177608871Y-61989801D01*
X177486831Y-61803005D01*
X177397201Y-61598669D01*
X177342426Y-61382367D01*
X177324000Y-61160000D01*
X177342426Y-60937633D01*
X177397201Y-60721331D01*
X177486831Y-60516995D01*
X177608871Y-60330199D01*
X177759993Y-60166037D01*
X177936073Y-60028988D01*
X178132309Y-59922790D01*
X178343349Y-59850340D01*
X178563435Y-59813614D01*
X178786565Y-59813614D01*
X179006651Y-59850340D01*
G37*
G36*
X184006651Y-59850340D02*
G01*
X184217691Y-59922790D01*
X184413927Y-60028988D01*
X184590007Y-60166037D01*
X184741129Y-60330199D01*
X184863169Y-60516995D01*
X184952799Y-60721331D01*
X185007574Y-60937633D01*
X185026000Y-61160000D01*
X185007574Y-61382367D01*
X184952799Y-61598669D01*
X184863169Y-61803005D01*
X184741129Y-61989801D01*
X184590007Y-62153963D01*
X184413927Y-62291012D01*
X184217691Y-62397210D01*
X184006651Y-62469660D01*
X183786565Y-62506386D01*
X183563435Y-62506386D01*
X183343349Y-62469660D01*
X183132309Y-62397210D01*
X182936073Y-62291012D01*
X182759993Y-62153963D01*
X182608871Y-61989801D01*
X182486831Y-61803005D01*
X182397201Y-61598669D01*
X182342426Y-61382367D01*
X182324000Y-61160000D01*
X182342426Y-60937633D01*
X182397201Y-60721331D01*
X182486831Y-60516995D01*
X182608871Y-60330199D01*
X182759993Y-60166037D01*
X182936073Y-60028988D01*
X183132309Y-59922790D01*
X183343349Y-59850340D01*
X183563435Y-59813614D01*
X183786565Y-59813614D01*
X184006651Y-59850340D01*
G37*
G36*
X189006651Y-59850340D02*
G01*
X189217691Y-59922790D01*
X189413927Y-60028988D01*
X189590007Y-60166037D01*
X189741129Y-60330199D01*
X189863169Y-60516995D01*
X189952799Y-60721331D01*
X190007574Y-60937633D01*
X190026000Y-61160000D01*
X190007574Y-61382367D01*
X189952799Y-61598669D01*
X189863169Y-61803005D01*
X189741129Y-61989801D01*
X189590007Y-62153963D01*
X189413927Y-62291012D01*
X189217691Y-62397210D01*
X189006651Y-62469660D01*
X188786565Y-62506386D01*
X188563435Y-62506386D01*
X188343349Y-62469660D01*
X188132309Y-62397210D01*
X187936073Y-62291012D01*
X187759993Y-62153963D01*
X187608871Y-61989801D01*
X187486831Y-61803005D01*
X187397201Y-61598669D01*
X187342426Y-61382367D01*
X187324000Y-61160000D01*
X187342426Y-60937633D01*
X187397201Y-60721331D01*
X187486831Y-60516995D01*
X187608871Y-60330199D01*
X187759993Y-60166037D01*
X187936073Y-60028988D01*
X188132309Y-59922790D01*
X188343349Y-59850340D01*
X188563435Y-59813614D01*
X188786565Y-59813614D01*
X189006651Y-59850340D01*
G37*
M02*
