%TF.GenerationSoftware,KiCad,Pcbnew,7.0.10*%
%TF.CreationDate,2024-02-03T19:37:43+01:00*%
%TF.ProjectId,led_stairs_controller,6c65645f-7374-4616-9972-735f636f6e74,V0.1*%
%TF.SameCoordinates,Original*%
%TF.FileFunction,Copper,L3,Inr*%
%TF.FilePolarity,Positive*%
%FSLAX46Y46*%
G04 Gerber Fmt 4.6, Leading zero omitted, Abs format (unit mm)*
G04 Created by KiCad (PCBNEW 7.0.10) date 2024-02-03 19:37:43*
%MOMM*%
%LPD*%
G01*
G04 APERTURE LIST*
%TA.AperFunction,ComponentPad*%
%ADD10R,1.560000X1.560000*%
%TD*%
%TA.AperFunction,ComponentPad*%
%ADD11C,1.560000*%
%TD*%
%TA.AperFunction,ComponentPad*%
%ADD12R,2.600000X2.600000*%
%TD*%
%TA.AperFunction,ComponentPad*%
%ADD13C,2.600000*%
%TD*%
%TA.AperFunction,ComponentPad*%
%ADD14C,6.000000*%
%TD*%
%TA.AperFunction,ComponentPad*%
%ADD15O,2.500000X2.000000*%
%TD*%
%TA.AperFunction,ViaPad*%
%ADD16C,0.800000*%
%TD*%
%TA.AperFunction,ViaPad*%
%ADD17C,0.450000*%
%TD*%
%TA.AperFunction,ViaPad*%
%ADD18C,0.650000*%
%TD*%
G04 APERTURE END LIST*
D10*
%TO.N,+3.3V*%
%TO.C,U2*%
X149360000Y-80437500D03*
D11*
%TO.N,Net-(U2-EN)*%
X146820000Y-80437500D03*
%TO.N,unconnected-(U2-VP-Pad3)*%
X144280000Y-80437500D03*
%TO.N,unconnected-(U2-VN-Pad4)*%
X141740000Y-80437500D03*
%TO.N,unconnected-(U2-34-Pad5)*%
X139200000Y-80437500D03*
%TO.N,unconnected-(U2-35-Pad6)*%
X136660000Y-80437500D03*
%TO.N,unconnected-(U2-32-Pad7)*%
X134120000Y-80437500D03*
%TO.N,unconnected-(U2-33-Pad8)*%
X131580000Y-80437500D03*
%TO.N,unconnected-(U2-25-Pad9)*%
X129040000Y-80437500D03*
%TO.N,unconnected-(U2-26-Pad10)*%
X126500000Y-80437500D03*
%TO.N,unconnected-(U2-27-Pad11)*%
X123960000Y-80437500D03*
%TO.N,unconnected-(U2-14-Pad12)*%
X121420000Y-80437500D03*
%TO.N,unconnected-(U2-12-Pad13)*%
X118880000Y-80437500D03*
%TO.N,GND*%
X116340000Y-80437500D03*
%TO.N,unconnected-(U2-13-Pad15)*%
X113800000Y-80437500D03*
%TO.N,unconnected-(U2-D2-Pad16)*%
X111260000Y-80437500D03*
%TO.N,unconnected-(U2-D3-Pad17)*%
X108720000Y-80437500D03*
%TO.N,unconnected-(U2-CMD-Pad18)*%
X106180000Y-80437500D03*
%TO.N,+5V*%
X103640000Y-80437500D03*
%TO.N,GND*%
X149360000Y-105837500D03*
%TO.N,unconnected-(U2-23-Pad21)*%
X146820000Y-105837500D03*
%TO.N,/SCL_L*%
X144280000Y-105837500D03*
%TO.N,unconnected-(U2-TX-Pad23)*%
X141740000Y-105837500D03*
%TO.N,unconnected-(U2-RX-Pad24)*%
X139200000Y-105837500D03*
%TO.N,/SDA_L*%
X136660000Y-105837500D03*
%TO.N,GND*%
X134120000Y-105837500D03*
%TO.N,unconnected-(U2-19-Pad27)*%
X131580000Y-105837500D03*
%TO.N,unconnected-(U2-18-Pad28)*%
X129040000Y-105837500D03*
%TO.N,unconnected-(U2-5-Pad29)*%
X126500000Y-105837500D03*
%TO.N,unconnected-(U2-17-Pad30)*%
X123960000Y-105837500D03*
%TO.N,unconnected-(U2-16-Pad31)*%
X121420000Y-105837500D03*
%TO.N,unconnected-(U2-4-Pad32)*%
X118880000Y-105837500D03*
%TO.N,unconnected-(U2-0-Pad33)*%
X116340000Y-105837500D03*
%TO.N,unconnected-(U2-2-Pad34)*%
X113800000Y-105837500D03*
%TO.N,unconnected-(U2-15-Pad35)*%
X111260000Y-105837500D03*
%TO.N,unconnected-(U2-D1-Pad36)*%
X108720000Y-105837500D03*
%TO.N,unconnected-(U2-D0-Pad37)*%
X106180000Y-105837500D03*
%TO.N,unconnected-(U2-CLK-Pad38)*%
X103640000Y-105837500D03*
%TD*%
D12*
%TO.N,/LED1_OUT*%
%TO.C,MOD1*%
X108675000Y-133580000D03*
D13*
%TO.N,/LED2_OUT*%
X113675000Y-133580000D03*
%TO.N,VBUS*%
X118675000Y-133580000D03*
%TO.N,/LED3_OUT*%
X123675000Y-133580000D03*
%TO.N,/LED4_OUT*%
X128675000Y-133580000D03*
%TO.N,VBUS*%
X133675000Y-133580000D03*
%TO.N,/LED5_OUT*%
X138675000Y-133580000D03*
%TO.N,/LED6_OUT*%
X143675000Y-133580000D03*
D12*
%TO.N,/LED7_OUT*%
X158675000Y-133580000D03*
D13*
%TO.N,/LED8_OUT*%
X163675000Y-133580000D03*
%TO.N,VBUS*%
X168675000Y-133580000D03*
%TO.N,/LED9_OUT*%
X173675000Y-133580000D03*
%TO.N,/LED10_OUT*%
X178675000Y-133580000D03*
%TO.N,VBUS*%
X183675000Y-133580000D03*
%TO.N,/LED11_OUT*%
X188675000Y-133580000D03*
%TO.N,/LED12_OUT*%
X193675000Y-133580000D03*
D12*
%TO.N,/LED13_OUT*%
X193675000Y-61160000D03*
D13*
%TO.N,/LED14_OUT*%
X188675000Y-61160000D03*
%TO.N,VBUS*%
X183675000Y-61160000D03*
%TO.N,/LED15_OUT*%
X178675000Y-61160000D03*
%TO.N,/LED16_OUT*%
X173675000Y-61160000D03*
%TO.N,VBUS*%
X168675000Y-61160000D03*
%TO.N,/LED17_OUT*%
X163675000Y-61160000D03*
%TO.N,/LED18_OUT*%
X158675000Y-61160000D03*
D12*
%TO.N,GND*%
X143675000Y-61160000D03*
D13*
%TO.N,unconnected-(MOD1-PadD2)*%
X138675000Y-61160000D03*
%TO.N,VBUS*%
X133675000Y-61160000D03*
%TO.N,GND*%
X128675000Y-61160000D03*
%TO.N,unconnected-(MOD1-PadD5)*%
X123675000Y-61160000D03*
%TO.N,VBUS*%
X118675000Y-61160000D03*
%TO.N,GND*%
X113675000Y-61160000D03*
%TO.N,VBUS*%
X108675000Y-61160000D03*
D14*
%TO.N,N/C*%
X105050000Y-71900000D03*
X197300000Y-71900000D03*
X105050000Y-122800000D03*
X197300000Y-122800000D03*
%TD*%
D15*
%TO.N,GND*%
%TO.C,U4*%
X109480000Y-68330000D03*
%TO.N,VBUS*%
X109480000Y-77470000D03*
%TO.N,GND*%
X124720000Y-68330000D03*
%TO.N,+5V*%
X124720000Y-77470000D03*
%TD*%
D16*
%TO.N,GND*%
X159400000Y-109600000D03*
X123600000Y-109700000D03*
D17*
X171742500Y-104000000D03*
D16*
X178320000Y-85500000D03*
X188300000Y-109600000D03*
X181100000Y-109600000D03*
X137900000Y-109700000D03*
X173900000Y-109600000D03*
X152200000Y-109600000D03*
X116400000Y-109600000D03*
D18*
X178600000Y-93900000D03*
D16*
X109220000Y-109600000D03*
X185520000Y-85500000D03*
X192720000Y-85500000D03*
X130700000Y-109600000D03*
X166700000Y-109600000D03*
X171020000Y-85500000D03*
X145100000Y-109700000D03*
D18*
%TO.N,+5V*%
X159000000Y-97400000D03*
X175400000Y-93900000D03*
X159000000Y-89000000D03*
D17*
%TO.N,/LED1*%
X168642500Y-98825000D03*
%TO.N,/LED7*%
X165642500Y-102725000D03*
%TO.N,/LED6*%
X166142500Y-102075000D03*
%TO.N,/LED5*%
X166642500Y-101425000D03*
%TO.N,/LED4*%
X167142500Y-100775000D03*
%TO.N,/LED3*%
X167642500Y-100125000D03*
%TO.N,/LED2*%
X168142500Y-99475000D03*
%TO.N,Net-(Q1-G)*%
X112900000Y-111400000D03*
%TO.N,Net-(Q2-G)*%
X120100000Y-111400000D03*
%TO.N,Net-(Q3-G)*%
X127300000Y-111400000D03*
%TO.N,Net-(Q4-G)*%
X134400000Y-111400000D03*
%TO.N,Net-(Q5-G)*%
X141600000Y-111400000D03*
%TO.N,Net-(Q6-G)*%
X148700000Y-111400000D03*
%TO.N,Net-(Q7-G)*%
X155800000Y-111400000D03*
D18*
%TO.N,+3.3V*%
X150700000Y-90700000D03*
X150800000Y-94200000D03*
X149700000Y-84000000D03*
%TD*%
%TA.AperFunction,Conductor*%
%TO.N,+3.3V*%
G36*
X108545148Y-78814204D02*
G01*
X108636792Y-78862303D01*
X108636794Y-78862303D01*
X108636795Y-78862304D01*
X108682913Y-78877700D01*
X108757075Y-78902460D01*
X108814431Y-78942360D01*
X108841110Y-79006936D01*
X108828641Y-79075684D01*
X108780984Y-79126778D01*
X108725255Y-79142038D01*
X108725393Y-79143606D01*
X108495405Y-79163727D01*
X108495394Y-79163729D01*
X108277631Y-79222078D01*
X108277622Y-79222082D01*
X108073290Y-79317363D01*
X108073288Y-79317364D01*
X107888601Y-79446682D01*
X107729182Y-79606101D01*
X107599864Y-79790788D01*
X107599863Y-79790790D01*
X107562382Y-79871169D01*
X107516209Y-79923608D01*
X107449016Y-79942760D01*
X107382135Y-79922544D01*
X107337618Y-79871169D01*
X107307272Y-79806092D01*
X107300136Y-79790789D01*
X107173317Y-79609672D01*
X107170817Y-79606101D01*
X107011398Y-79446682D01*
X106826711Y-79317364D01*
X106826709Y-79317363D01*
X106790136Y-79300309D01*
X106622376Y-79222081D01*
X106622372Y-79222080D01*
X106622368Y-79222078D01*
X106404605Y-79163729D01*
X106404601Y-79163728D01*
X106404600Y-79163728D01*
X106404599Y-79163727D01*
X106404594Y-79163727D01*
X106180002Y-79144078D01*
X106179998Y-79144078D01*
X105955405Y-79163727D01*
X105955394Y-79163729D01*
X105737631Y-79222078D01*
X105737622Y-79222082D01*
X105533290Y-79317363D01*
X105533288Y-79317364D01*
X105348601Y-79446682D01*
X105189182Y-79606101D01*
X105059864Y-79790788D01*
X105059863Y-79790790D01*
X105022382Y-79871169D01*
X104976209Y-79923608D01*
X104909016Y-79942760D01*
X104842135Y-79922544D01*
X104797618Y-79871169D01*
X104767272Y-79806092D01*
X104760136Y-79790789D01*
X104633317Y-79609672D01*
X104630817Y-79606101D01*
X104471398Y-79446682D01*
X104286711Y-79317364D01*
X104286709Y-79317363D01*
X104250136Y-79300309D01*
X104082376Y-79222081D01*
X104082372Y-79222080D01*
X104082368Y-79222078D01*
X103864605Y-79163729D01*
X103864601Y-79163728D01*
X103864600Y-79163728D01*
X103864599Y-79163727D01*
X103864594Y-79163727D01*
X103640002Y-79144078D01*
X103639998Y-79144078D01*
X103415405Y-79163727D01*
X103415394Y-79163729D01*
X103197631Y-79222078D01*
X103197622Y-79222082D01*
X102993290Y-79317363D01*
X102993288Y-79317364D01*
X102808601Y-79446682D01*
X102649182Y-79606101D01*
X102519864Y-79790788D01*
X102519863Y-79790790D01*
X102424582Y-79995122D01*
X102424578Y-79995131D01*
X102366229Y-80212894D01*
X102366227Y-80212905D01*
X102346578Y-80437498D01*
X102346578Y-80437501D01*
X102366227Y-80662094D01*
X102366229Y-80662105D01*
X102424578Y-80879868D01*
X102424580Y-80879872D01*
X102424581Y-80879876D01*
X102457929Y-80951391D01*
X102519863Y-81084209D01*
X102519864Y-81084211D01*
X102649182Y-81268898D01*
X102808601Y-81428317D01*
X102808604Y-81428319D01*
X102993289Y-81557636D01*
X103197624Y-81652919D01*
X103415400Y-81711272D01*
X103575828Y-81725307D01*
X103639998Y-81730922D01*
X103640000Y-81730922D01*
X103640002Y-81730922D01*
X103696150Y-81726009D01*
X103864600Y-81711272D01*
X104082376Y-81652919D01*
X104286711Y-81557636D01*
X104471396Y-81428319D01*
X104630819Y-81268896D01*
X104760136Y-81084211D01*
X104797618Y-81003829D01*
X104843790Y-80951391D01*
X104910984Y-80932239D01*
X104977865Y-80952455D01*
X105022382Y-81003830D01*
X105059863Y-81084209D01*
X105059864Y-81084211D01*
X105189182Y-81268898D01*
X105348601Y-81428317D01*
X105348604Y-81428319D01*
X105533289Y-81557636D01*
X105737624Y-81652919D01*
X105955400Y-81711272D01*
X106115828Y-81725307D01*
X106179998Y-81730922D01*
X106180000Y-81730922D01*
X106180002Y-81730922D01*
X106236150Y-81726009D01*
X106404600Y-81711272D01*
X106622376Y-81652919D01*
X106826711Y-81557636D01*
X107011396Y-81428319D01*
X107170819Y-81268896D01*
X107300136Y-81084211D01*
X107337618Y-81003829D01*
X107383790Y-80951391D01*
X107450984Y-80932239D01*
X107517865Y-80952455D01*
X107562382Y-81003830D01*
X107599863Y-81084209D01*
X107599864Y-81084211D01*
X107729182Y-81268898D01*
X107888601Y-81428317D01*
X107888604Y-81428319D01*
X108073289Y-81557636D01*
X108277624Y-81652919D01*
X108495400Y-81711272D01*
X108655828Y-81725307D01*
X108719998Y-81730922D01*
X108720000Y-81730922D01*
X108720002Y-81730922D01*
X108776150Y-81726009D01*
X108944600Y-81711272D01*
X109162376Y-81652919D01*
X109366711Y-81557636D01*
X109551396Y-81428319D01*
X109710819Y-81268896D01*
X109840136Y-81084211D01*
X109877618Y-81003829D01*
X109923790Y-80951391D01*
X109990984Y-80932239D01*
X110057865Y-80952455D01*
X110102382Y-81003830D01*
X110139863Y-81084209D01*
X110139864Y-81084211D01*
X110269182Y-81268898D01*
X110428601Y-81428317D01*
X110428604Y-81428319D01*
X110613289Y-81557636D01*
X110817624Y-81652919D01*
X111035400Y-81711272D01*
X111195828Y-81725307D01*
X111259998Y-81730922D01*
X111260000Y-81730922D01*
X111260002Y-81730922D01*
X111316150Y-81726009D01*
X111484600Y-81711272D01*
X111702376Y-81652919D01*
X111906711Y-81557636D01*
X112091396Y-81428319D01*
X112250819Y-81268896D01*
X112380136Y-81084211D01*
X112417618Y-81003829D01*
X112463790Y-80951391D01*
X112530984Y-80932239D01*
X112597865Y-80952455D01*
X112642382Y-81003830D01*
X112679863Y-81084209D01*
X112679864Y-81084211D01*
X112809182Y-81268898D01*
X112968601Y-81428317D01*
X112968604Y-81428319D01*
X113153289Y-81557636D01*
X113357624Y-81652919D01*
X113575400Y-81711272D01*
X113735828Y-81725307D01*
X113799998Y-81730922D01*
X113800000Y-81730922D01*
X113800002Y-81730922D01*
X113856150Y-81726009D01*
X114024600Y-81711272D01*
X114242376Y-81652919D01*
X114446711Y-81557636D01*
X114631396Y-81428319D01*
X114790819Y-81268896D01*
X114920136Y-81084211D01*
X114957618Y-81003829D01*
X115003790Y-80951391D01*
X115070984Y-80932239D01*
X115137865Y-80952455D01*
X115182382Y-81003830D01*
X115219863Y-81084209D01*
X115219864Y-81084211D01*
X115349182Y-81268898D01*
X115508601Y-81428317D01*
X115508604Y-81428319D01*
X115693289Y-81557636D01*
X115897624Y-81652919D01*
X116115400Y-81711272D01*
X116275828Y-81725307D01*
X116339998Y-81730922D01*
X116340000Y-81730922D01*
X116340002Y-81730922D01*
X116396150Y-81726009D01*
X116564600Y-81711272D01*
X116782376Y-81652919D01*
X116986711Y-81557636D01*
X117171396Y-81428319D01*
X117330819Y-81268896D01*
X117460136Y-81084211D01*
X117497618Y-81003829D01*
X117543790Y-80951391D01*
X117610984Y-80932239D01*
X117677865Y-80952455D01*
X117722382Y-81003830D01*
X117759863Y-81084209D01*
X117759864Y-81084211D01*
X117889182Y-81268898D01*
X118048601Y-81428317D01*
X118048604Y-81428319D01*
X118233289Y-81557636D01*
X118437624Y-81652919D01*
X118655400Y-81711272D01*
X118815828Y-81725307D01*
X118879998Y-81730922D01*
X118880000Y-81730922D01*
X118880002Y-81730922D01*
X118936150Y-81726009D01*
X119104600Y-81711272D01*
X119322376Y-81652919D01*
X119526711Y-81557636D01*
X119711396Y-81428319D01*
X119870819Y-81268896D01*
X120000136Y-81084211D01*
X120037618Y-81003829D01*
X120083790Y-80951391D01*
X120150984Y-80932239D01*
X120217865Y-80952455D01*
X120262382Y-81003830D01*
X120299863Y-81084209D01*
X120299864Y-81084211D01*
X120429182Y-81268898D01*
X120588601Y-81428317D01*
X120588604Y-81428319D01*
X120773289Y-81557636D01*
X120977624Y-81652919D01*
X121195400Y-81711272D01*
X121355828Y-81725307D01*
X121419998Y-81730922D01*
X121420000Y-81730922D01*
X121420002Y-81730922D01*
X121476150Y-81726009D01*
X121644600Y-81711272D01*
X121862376Y-81652919D01*
X122066711Y-81557636D01*
X122251396Y-81428319D01*
X122410819Y-81268896D01*
X122540136Y-81084211D01*
X122577618Y-81003829D01*
X122623790Y-80951391D01*
X122690984Y-80932239D01*
X122757865Y-80952455D01*
X122802382Y-81003830D01*
X122839863Y-81084209D01*
X122839864Y-81084211D01*
X122969182Y-81268898D01*
X123128601Y-81428317D01*
X123128604Y-81428319D01*
X123313289Y-81557636D01*
X123517624Y-81652919D01*
X123735400Y-81711272D01*
X123895828Y-81725307D01*
X123959998Y-81730922D01*
X123960000Y-81730922D01*
X123960002Y-81730922D01*
X124016150Y-81726009D01*
X124184600Y-81711272D01*
X124402376Y-81652919D01*
X124606711Y-81557636D01*
X124791396Y-81428319D01*
X124950819Y-81268896D01*
X125080136Y-81084211D01*
X125117618Y-81003829D01*
X125163790Y-80951391D01*
X125230984Y-80932239D01*
X125297865Y-80952455D01*
X125342382Y-81003830D01*
X125379863Y-81084209D01*
X125379864Y-81084211D01*
X125509182Y-81268898D01*
X125668601Y-81428317D01*
X125668604Y-81428319D01*
X125853289Y-81557636D01*
X126057624Y-81652919D01*
X126275400Y-81711272D01*
X126435828Y-81725307D01*
X126499998Y-81730922D01*
X126500000Y-81730922D01*
X126500002Y-81730922D01*
X126556150Y-81726009D01*
X126724600Y-81711272D01*
X126942376Y-81652919D01*
X127146711Y-81557636D01*
X127331396Y-81428319D01*
X127490819Y-81268896D01*
X127620136Y-81084211D01*
X127657618Y-81003829D01*
X127703790Y-80951391D01*
X127770984Y-80932239D01*
X127837865Y-80952455D01*
X127882382Y-81003830D01*
X127919863Y-81084209D01*
X127919864Y-81084211D01*
X128049182Y-81268898D01*
X128208601Y-81428317D01*
X128208604Y-81428319D01*
X128393289Y-81557636D01*
X128597624Y-81652919D01*
X128815400Y-81711272D01*
X128975828Y-81725307D01*
X129039998Y-81730922D01*
X129040000Y-81730922D01*
X129040002Y-81730922D01*
X129096150Y-81726009D01*
X129264600Y-81711272D01*
X129482376Y-81652919D01*
X129686711Y-81557636D01*
X129871396Y-81428319D01*
X130030819Y-81268896D01*
X130160136Y-81084211D01*
X130197618Y-81003829D01*
X130243790Y-80951391D01*
X130310984Y-80932239D01*
X130377865Y-80952455D01*
X130422382Y-81003830D01*
X130459863Y-81084209D01*
X130459864Y-81084211D01*
X130589182Y-81268898D01*
X130748601Y-81428317D01*
X130748604Y-81428319D01*
X130933289Y-81557636D01*
X131137624Y-81652919D01*
X131355400Y-81711272D01*
X131515828Y-81725307D01*
X131579998Y-81730922D01*
X131580000Y-81730922D01*
X131580002Y-81730922D01*
X131636150Y-81726009D01*
X131804600Y-81711272D01*
X132022376Y-81652919D01*
X132226711Y-81557636D01*
X132411396Y-81428319D01*
X132570819Y-81268896D01*
X132700136Y-81084211D01*
X132737618Y-81003829D01*
X132783790Y-80951391D01*
X132850984Y-80932239D01*
X132917865Y-80952455D01*
X132962382Y-81003830D01*
X132999863Y-81084209D01*
X132999864Y-81084211D01*
X133129182Y-81268898D01*
X133288601Y-81428317D01*
X133288604Y-81428319D01*
X133473289Y-81557636D01*
X133677624Y-81652919D01*
X133895400Y-81711272D01*
X134055828Y-81725307D01*
X134119998Y-81730922D01*
X134120000Y-81730922D01*
X134120002Y-81730922D01*
X134176150Y-81726009D01*
X134344600Y-81711272D01*
X134562376Y-81652919D01*
X134766711Y-81557636D01*
X134951396Y-81428319D01*
X135110819Y-81268896D01*
X135240136Y-81084211D01*
X135277618Y-81003829D01*
X135323790Y-80951391D01*
X135390984Y-80932239D01*
X135457865Y-80952455D01*
X135502382Y-81003830D01*
X135539863Y-81084209D01*
X135539864Y-81084211D01*
X135669182Y-81268898D01*
X135828601Y-81428317D01*
X135828604Y-81428319D01*
X136013289Y-81557636D01*
X136217624Y-81652919D01*
X136435400Y-81711272D01*
X136595828Y-81725307D01*
X136659998Y-81730922D01*
X136660000Y-81730922D01*
X136660002Y-81730922D01*
X136716150Y-81726009D01*
X136884600Y-81711272D01*
X137102376Y-81652919D01*
X137306711Y-81557636D01*
X137491396Y-81428319D01*
X137650819Y-81268896D01*
X137780136Y-81084211D01*
X137817618Y-81003829D01*
X137863790Y-80951391D01*
X137930984Y-80932239D01*
X137997865Y-80952455D01*
X138042382Y-81003830D01*
X138079863Y-81084209D01*
X138079864Y-81084211D01*
X138209182Y-81268898D01*
X138368601Y-81428317D01*
X138368604Y-81428319D01*
X138553289Y-81557636D01*
X138757624Y-81652919D01*
X138975400Y-81711272D01*
X139135828Y-81725307D01*
X139199998Y-81730922D01*
X139200000Y-81730922D01*
X139200002Y-81730922D01*
X139256150Y-81726009D01*
X139424600Y-81711272D01*
X139642376Y-81652919D01*
X139846711Y-81557636D01*
X140031396Y-81428319D01*
X140190819Y-81268896D01*
X140320136Y-81084211D01*
X140357618Y-81003829D01*
X140403790Y-80951391D01*
X140470984Y-80932239D01*
X140537865Y-80952455D01*
X140582382Y-81003830D01*
X140619863Y-81084209D01*
X140619864Y-81084211D01*
X140749182Y-81268898D01*
X140908601Y-81428317D01*
X140908604Y-81428319D01*
X141093289Y-81557636D01*
X141297624Y-81652919D01*
X141515400Y-81711272D01*
X141675828Y-81725307D01*
X141739998Y-81730922D01*
X141740000Y-81730922D01*
X141740002Y-81730922D01*
X141796150Y-81726009D01*
X141964600Y-81711272D01*
X142182376Y-81652919D01*
X142386711Y-81557636D01*
X142571396Y-81428319D01*
X142730819Y-81268896D01*
X142860136Y-81084211D01*
X142897618Y-81003829D01*
X142943790Y-80951391D01*
X143010984Y-80932239D01*
X143077865Y-80952455D01*
X143122382Y-81003830D01*
X143159863Y-81084209D01*
X143159864Y-81084211D01*
X143289182Y-81268898D01*
X143448601Y-81428317D01*
X143448604Y-81428319D01*
X143633289Y-81557636D01*
X143837624Y-81652919D01*
X144055400Y-81711272D01*
X144215828Y-81725307D01*
X144279998Y-81730922D01*
X144280000Y-81730922D01*
X144280002Y-81730922D01*
X144336150Y-81726009D01*
X144504600Y-81711272D01*
X144722376Y-81652919D01*
X144926711Y-81557636D01*
X145111396Y-81428319D01*
X145270819Y-81268896D01*
X145400136Y-81084211D01*
X145437618Y-81003829D01*
X145483790Y-80951391D01*
X145550984Y-80932239D01*
X145617865Y-80952455D01*
X145662382Y-81003830D01*
X145699863Y-81084209D01*
X145699864Y-81084211D01*
X145829182Y-81268898D01*
X145988601Y-81428317D01*
X145988604Y-81428319D01*
X146173289Y-81557636D01*
X146377624Y-81652919D01*
X146595400Y-81711272D01*
X146755828Y-81725307D01*
X146819998Y-81730922D01*
X146820000Y-81730922D01*
X146820002Y-81730922D01*
X146876150Y-81726009D01*
X147044600Y-81711272D01*
X147262376Y-81652919D01*
X147466711Y-81557636D01*
X147651396Y-81428319D01*
X147810819Y-81268896D01*
X147854963Y-81205851D01*
X147909538Y-81162227D01*
X147979036Y-81155033D01*
X148041391Y-81186555D01*
X148076806Y-81246784D01*
X148079826Y-81263718D01*
X148086401Y-81324873D01*
X148086403Y-81324879D01*
X148136645Y-81459586D01*
X148136649Y-81459593D01*
X148222809Y-81574687D01*
X148222812Y-81574690D01*
X148337906Y-81660850D01*
X148337913Y-81660854D01*
X148472620Y-81711096D01*
X148472627Y-81711098D01*
X148532155Y-81717499D01*
X148532172Y-81717500D01*
X149110000Y-81717500D01*
X149110000Y-80894071D01*
X149150884Y-80918934D01*
X149288528Y-80957500D01*
X149395571Y-80957500D01*
X149501613Y-80942925D01*
X149610000Y-80895845D01*
X149610000Y-81717500D01*
X150187828Y-81717500D01*
X150187844Y-81717499D01*
X150247372Y-81711098D01*
X150247379Y-81711096D01*
X150382086Y-81660854D01*
X150382093Y-81660850D01*
X150497187Y-81574690D01*
X150497190Y-81574687D01*
X150583350Y-81459593D01*
X150583354Y-81459586D01*
X150633596Y-81324879D01*
X150633598Y-81324872D01*
X150639999Y-81265344D01*
X150640000Y-81265327D01*
X150640000Y-80687500D01*
X149820029Y-80687500D01*
X149826041Y-80678983D01*
X149873910Y-80544292D01*
X149883665Y-80401680D01*
X149854582Y-80261725D01*
X149816122Y-80187500D01*
X150640000Y-80187500D01*
X150640000Y-79609672D01*
X150639999Y-79609655D01*
X150633598Y-79550127D01*
X150633596Y-79550120D01*
X150583354Y-79415413D01*
X150583350Y-79415406D01*
X150497190Y-79300312D01*
X150497187Y-79300309D01*
X150382093Y-79214149D01*
X150382086Y-79214145D01*
X150247379Y-79163903D01*
X150247372Y-79163901D01*
X150187844Y-79157500D01*
X149610000Y-79157500D01*
X149610000Y-79980928D01*
X149569116Y-79956066D01*
X149431472Y-79917500D01*
X149324429Y-79917500D01*
X149218387Y-79932075D01*
X149110000Y-79979154D01*
X149110000Y-79157500D01*
X148532155Y-79157500D01*
X148472627Y-79163901D01*
X148472620Y-79163903D01*
X148337913Y-79214145D01*
X148337906Y-79214149D01*
X148222812Y-79300309D01*
X148222809Y-79300312D01*
X148136649Y-79415406D01*
X148136645Y-79415413D01*
X148086403Y-79550120D01*
X148086401Y-79550126D01*
X148079826Y-79611281D01*
X148053087Y-79675832D01*
X147995694Y-79715679D01*
X147925869Y-79718172D01*
X147865781Y-79682518D01*
X147854962Y-79669147D01*
X147810817Y-79606101D01*
X147651398Y-79446682D01*
X147466711Y-79317364D01*
X147466709Y-79317363D01*
X147430136Y-79300309D01*
X147262376Y-79222081D01*
X147262372Y-79222080D01*
X147262368Y-79222078D01*
X147044605Y-79163729D01*
X147044601Y-79163728D01*
X147044600Y-79163728D01*
X147044599Y-79163727D01*
X147044594Y-79163727D01*
X146820002Y-79144078D01*
X146819998Y-79144078D01*
X146595405Y-79163727D01*
X146595394Y-79163729D01*
X146377631Y-79222078D01*
X146377622Y-79222082D01*
X146173290Y-79317363D01*
X146173288Y-79317364D01*
X145988601Y-79446682D01*
X145829182Y-79606101D01*
X145699864Y-79790788D01*
X145699863Y-79790790D01*
X145662382Y-79871169D01*
X145616209Y-79923608D01*
X145549016Y-79942760D01*
X145482135Y-79922544D01*
X145437618Y-79871169D01*
X145407272Y-79806092D01*
X145400136Y-79790789D01*
X145273317Y-79609672D01*
X145270817Y-79606101D01*
X145111398Y-79446682D01*
X144926711Y-79317364D01*
X144926709Y-79317363D01*
X144890136Y-79300309D01*
X144722376Y-79222081D01*
X144722372Y-79222080D01*
X144722368Y-79222078D01*
X144504605Y-79163729D01*
X144504601Y-79163728D01*
X144504600Y-79163728D01*
X144504599Y-79163727D01*
X144504594Y-79163727D01*
X144280002Y-79144078D01*
X144279998Y-79144078D01*
X144055405Y-79163727D01*
X144055394Y-79163729D01*
X143837631Y-79222078D01*
X143837622Y-79222082D01*
X143633290Y-79317363D01*
X143633288Y-79317364D01*
X143448601Y-79446682D01*
X143289182Y-79606101D01*
X143159864Y-79790788D01*
X143159863Y-79790790D01*
X143122382Y-79871169D01*
X143076209Y-79923608D01*
X143009016Y-79942760D01*
X142942135Y-79922544D01*
X142897618Y-79871169D01*
X142867272Y-79806092D01*
X142860136Y-79790789D01*
X142733317Y-79609672D01*
X142730817Y-79606101D01*
X142571398Y-79446682D01*
X142386711Y-79317364D01*
X142386709Y-79317363D01*
X142350136Y-79300309D01*
X142182376Y-79222081D01*
X142182372Y-79222080D01*
X142182368Y-79222078D01*
X141964605Y-79163729D01*
X141964601Y-79163728D01*
X141964600Y-79163728D01*
X141964599Y-79163727D01*
X141964594Y-79163727D01*
X141740002Y-79144078D01*
X141739998Y-79144078D01*
X141515405Y-79163727D01*
X141515394Y-79163729D01*
X141297631Y-79222078D01*
X141297622Y-79222082D01*
X141093290Y-79317363D01*
X141093288Y-79317364D01*
X140908601Y-79446682D01*
X140749182Y-79606101D01*
X140619864Y-79790788D01*
X140619863Y-79790790D01*
X140582382Y-79871169D01*
X140536209Y-79923608D01*
X140469016Y-79942760D01*
X140402135Y-79922544D01*
X140357618Y-79871169D01*
X140327272Y-79806092D01*
X140320136Y-79790789D01*
X140193317Y-79609672D01*
X140190817Y-79606101D01*
X140031398Y-79446682D01*
X139846711Y-79317364D01*
X139846709Y-79317363D01*
X139810136Y-79300309D01*
X139642376Y-79222081D01*
X139642372Y-79222080D01*
X139642368Y-79222078D01*
X139424605Y-79163729D01*
X139424601Y-79163728D01*
X139424600Y-79163728D01*
X139424599Y-79163727D01*
X139424594Y-79163727D01*
X139200002Y-79144078D01*
X139199998Y-79144078D01*
X138975405Y-79163727D01*
X138975394Y-79163729D01*
X138757631Y-79222078D01*
X138757622Y-79222082D01*
X138553290Y-79317363D01*
X138553288Y-79317364D01*
X138368601Y-79446682D01*
X138209182Y-79606101D01*
X138079864Y-79790788D01*
X138079863Y-79790790D01*
X138042382Y-79871169D01*
X137996209Y-79923608D01*
X137929016Y-79942760D01*
X137862135Y-79922544D01*
X137817618Y-79871169D01*
X137787272Y-79806092D01*
X137780136Y-79790789D01*
X137653317Y-79609672D01*
X137650817Y-79606101D01*
X137491398Y-79446682D01*
X137306711Y-79317364D01*
X137306709Y-79317363D01*
X137270136Y-79300309D01*
X137102376Y-79222081D01*
X137102372Y-79222080D01*
X137102368Y-79222078D01*
X136884605Y-79163729D01*
X136884601Y-79163728D01*
X136884600Y-79163728D01*
X136884599Y-79163727D01*
X136884594Y-79163727D01*
X136660002Y-79144078D01*
X136659998Y-79144078D01*
X136435405Y-79163727D01*
X136435394Y-79163729D01*
X136217631Y-79222078D01*
X136217622Y-79222082D01*
X136013290Y-79317363D01*
X136013288Y-79317364D01*
X135828601Y-79446682D01*
X135669182Y-79606101D01*
X135539864Y-79790788D01*
X135539863Y-79790790D01*
X135502382Y-79871169D01*
X135456209Y-79923608D01*
X135389016Y-79942760D01*
X135322135Y-79922544D01*
X135277618Y-79871169D01*
X135247272Y-79806092D01*
X135240136Y-79790789D01*
X135113317Y-79609672D01*
X135110817Y-79606101D01*
X134951398Y-79446682D01*
X134766711Y-79317364D01*
X134766709Y-79317363D01*
X134730136Y-79300309D01*
X134562376Y-79222081D01*
X134562372Y-79222080D01*
X134562368Y-79222078D01*
X134344605Y-79163729D01*
X134344601Y-79163728D01*
X134344600Y-79163728D01*
X134344599Y-79163727D01*
X134344594Y-79163727D01*
X134120002Y-79144078D01*
X134119998Y-79144078D01*
X133895405Y-79163727D01*
X133895394Y-79163729D01*
X133677631Y-79222078D01*
X133677622Y-79222082D01*
X133473290Y-79317363D01*
X133473288Y-79317364D01*
X133288601Y-79446682D01*
X133129182Y-79606101D01*
X132999864Y-79790788D01*
X132999863Y-79790790D01*
X132962382Y-79871169D01*
X132916209Y-79923608D01*
X132849016Y-79942760D01*
X132782135Y-79922544D01*
X132737618Y-79871169D01*
X132707272Y-79806092D01*
X132700136Y-79790789D01*
X132573317Y-79609672D01*
X132570817Y-79606101D01*
X132411398Y-79446682D01*
X132226711Y-79317364D01*
X132226709Y-79317363D01*
X132190136Y-79300309D01*
X132022376Y-79222081D01*
X132022372Y-79222080D01*
X132022368Y-79222078D01*
X131804605Y-79163729D01*
X131804601Y-79163728D01*
X131804600Y-79163728D01*
X131804599Y-79163727D01*
X131804594Y-79163727D01*
X131580002Y-79144078D01*
X131579998Y-79144078D01*
X131355405Y-79163727D01*
X131355394Y-79163729D01*
X131137631Y-79222078D01*
X131137622Y-79222082D01*
X130933290Y-79317363D01*
X130933288Y-79317364D01*
X130748601Y-79446682D01*
X130589182Y-79606101D01*
X130459864Y-79790788D01*
X130459863Y-79790790D01*
X130422382Y-79871169D01*
X130376209Y-79923608D01*
X130309016Y-79942760D01*
X130242135Y-79922544D01*
X130197618Y-79871169D01*
X130167272Y-79806092D01*
X130160136Y-79790789D01*
X130033317Y-79609672D01*
X130030817Y-79606101D01*
X129871398Y-79446682D01*
X129686711Y-79317364D01*
X129686709Y-79317363D01*
X129650136Y-79300309D01*
X129482376Y-79222081D01*
X129482372Y-79222080D01*
X129482368Y-79222078D01*
X129264605Y-79163729D01*
X129264601Y-79163728D01*
X129264600Y-79163728D01*
X129264599Y-79163727D01*
X129264594Y-79163727D01*
X129040002Y-79144078D01*
X129039998Y-79144078D01*
X128815405Y-79163727D01*
X128815394Y-79163729D01*
X128597631Y-79222078D01*
X128597622Y-79222082D01*
X128393290Y-79317363D01*
X128393288Y-79317364D01*
X128208601Y-79446682D01*
X128049182Y-79606101D01*
X127919864Y-79790788D01*
X127919863Y-79790790D01*
X127882382Y-79871169D01*
X127836209Y-79923608D01*
X127769016Y-79942760D01*
X127702135Y-79922544D01*
X127657618Y-79871169D01*
X127627272Y-79806092D01*
X127620136Y-79790789D01*
X127493317Y-79609672D01*
X127490817Y-79606101D01*
X127331398Y-79446682D01*
X127146711Y-79317364D01*
X127146709Y-79317363D01*
X127110136Y-79300309D01*
X126942376Y-79222081D01*
X126942372Y-79222080D01*
X126942368Y-79222078D01*
X126724605Y-79163729D01*
X126724601Y-79163728D01*
X126724600Y-79163728D01*
X126724599Y-79163727D01*
X126724594Y-79163727D01*
X126500002Y-79144078D01*
X126499998Y-79144078D01*
X126275405Y-79163727D01*
X126275394Y-79163729D01*
X126057631Y-79222078D01*
X126057622Y-79222082D01*
X125853290Y-79317363D01*
X125853288Y-79317364D01*
X125668601Y-79446682D01*
X125509182Y-79606101D01*
X125379864Y-79790788D01*
X125379863Y-79790790D01*
X125342382Y-79871169D01*
X125296209Y-79923608D01*
X125229016Y-79942760D01*
X125162135Y-79922544D01*
X125117618Y-79871169D01*
X125087272Y-79806092D01*
X125080136Y-79790789D01*
X124953317Y-79609672D01*
X124950817Y-79606101D01*
X124791398Y-79446682D01*
X124606711Y-79317364D01*
X124606709Y-79317363D01*
X124570136Y-79300309D01*
X124402376Y-79222081D01*
X124402369Y-79222079D01*
X124397282Y-79220227D01*
X124397728Y-79219000D01*
X124343442Y-79185912D01*
X124312911Y-79123066D01*
X124321205Y-79053690D01*
X124365689Y-78999811D01*
X124432240Y-78978535D01*
X124435194Y-78978500D01*
X125030787Y-78978500D01*
X125030797Y-78978500D01*
X125212768Y-78963810D01*
X125449248Y-78905523D01*
X125526577Y-78872576D01*
X125673630Y-78809923D01*
X125722234Y-78800000D01*
X156093907Y-78800000D01*
X156106061Y-78800597D01*
X156282941Y-78818018D01*
X156306769Y-78822757D01*
X156471001Y-78872576D01*
X156493453Y-78881877D01*
X156644798Y-78962772D01*
X156665008Y-78976276D01*
X156667761Y-78978535D01*
X156797666Y-79085145D01*
X156814854Y-79102333D01*
X156923722Y-79234989D01*
X156937227Y-79255201D01*
X157018121Y-79406543D01*
X157027424Y-79429001D01*
X157077240Y-79593224D01*
X157081982Y-79617065D01*
X157099403Y-79793938D01*
X157100000Y-79806092D01*
X157100000Y-109100000D01*
X152960370Y-109100000D01*
X152939040Y-109063056D01*
X152811253Y-108921134D01*
X152656752Y-108808882D01*
X152482288Y-108731206D01*
X152482286Y-108731205D01*
X152295487Y-108691500D01*
X152104513Y-108691500D01*
X151917714Y-108731205D01*
X151743246Y-108808883D01*
X151588745Y-108921135D01*
X151460959Y-109063057D01*
X151439630Y-109100000D01*
X145782264Y-109100000D01*
X145780778Y-109098350D01*
X145711253Y-109021134D01*
X145556752Y-108908882D01*
X145382288Y-108831206D01*
X145382286Y-108831205D01*
X145195487Y-108791500D01*
X145004513Y-108791500D01*
X144817714Y-108831205D01*
X144643246Y-108908883D01*
X144488745Y-109021135D01*
X144417735Y-109100000D01*
X138582264Y-109100000D01*
X138580778Y-109098350D01*
X138511253Y-109021134D01*
X138356752Y-108908882D01*
X138182288Y-108831206D01*
X138182286Y-108831205D01*
X137995487Y-108791500D01*
X137804513Y-108791500D01*
X137617714Y-108831205D01*
X137443246Y-108908883D01*
X137288745Y-109021135D01*
X137217735Y-109100000D01*
X131460370Y-109100000D01*
X131439040Y-109063056D01*
X131311253Y-108921134D01*
X131156752Y-108808882D01*
X130982288Y-108731206D01*
X130982286Y-108731205D01*
X130795487Y-108691500D01*
X130604513Y-108691500D01*
X130417714Y-108731205D01*
X130243246Y-108808883D01*
X130088745Y-108921135D01*
X129960959Y-109063057D01*
X129939630Y-109100000D01*
X124282264Y-109100000D01*
X124280778Y-109098350D01*
X124211253Y-109021134D01*
X124056752Y-108908882D01*
X123882288Y-108831206D01*
X123882286Y-108831205D01*
X123695487Y-108791500D01*
X123504513Y-108791500D01*
X123317714Y-108831205D01*
X123143246Y-108908883D01*
X122988745Y-109021135D01*
X122917735Y-109100000D01*
X117160370Y-109100000D01*
X117139040Y-109063056D01*
X117011253Y-108921134D01*
X116856752Y-108808882D01*
X116682288Y-108731206D01*
X116682286Y-108731205D01*
X116495487Y-108691500D01*
X116304513Y-108691500D01*
X116117714Y-108731205D01*
X115943246Y-108808883D01*
X115788745Y-108921135D01*
X115660959Y-109063057D01*
X115639630Y-109100000D01*
X109980370Y-109100000D01*
X109959040Y-109063056D01*
X109831253Y-108921134D01*
X109676752Y-108808882D01*
X109502288Y-108731206D01*
X109502286Y-108731205D01*
X109315487Y-108691500D01*
X109124513Y-108691500D01*
X108937714Y-108731205D01*
X108763246Y-108808883D01*
X108608745Y-108921135D01*
X108480959Y-109063057D01*
X108459630Y-109100000D01*
X101400001Y-109100000D01*
X101400005Y-109098350D01*
X101400016Y-109098350D01*
X101400005Y-109098241D01*
X101400967Y-108807107D01*
X101410768Y-105837501D01*
X102346578Y-105837501D01*
X102366227Y-106062094D01*
X102366229Y-106062105D01*
X102424578Y-106279868D01*
X102424580Y-106279872D01*
X102424581Y-106279876D01*
X102457929Y-106351391D01*
X102519863Y-106484209D01*
X102519864Y-106484211D01*
X102649182Y-106668898D01*
X102808601Y-106828317D01*
X102808604Y-106828319D01*
X102993289Y-106957636D01*
X103197624Y-107052919D01*
X103415400Y-107111272D01*
X103575828Y-107125307D01*
X103639998Y-107130922D01*
X103640000Y-107130922D01*
X103640002Y-107130922D01*
X103696150Y-107126009D01*
X103864600Y-107111272D01*
X104082376Y-107052919D01*
X104286711Y-106957636D01*
X104471396Y-106828319D01*
X104630819Y-106668896D01*
X104760136Y-106484211D01*
X104797618Y-106403829D01*
X104843790Y-106351391D01*
X104910984Y-106332239D01*
X104977865Y-106352455D01*
X105022382Y-106403830D01*
X105059863Y-106484209D01*
X105059864Y-106484211D01*
X105189182Y-106668898D01*
X105348601Y-106828317D01*
X105348604Y-106828319D01*
X105533289Y-106957636D01*
X105737624Y-107052919D01*
X105955400Y-107111272D01*
X106115828Y-107125307D01*
X106179998Y-107130922D01*
X106180000Y-107130922D01*
X106180002Y-107130922D01*
X106236150Y-107126009D01*
X106404600Y-107111272D01*
X106622376Y-107052919D01*
X106826711Y-106957636D01*
X107011396Y-106828319D01*
X107170819Y-106668896D01*
X107300136Y-106484211D01*
X107337618Y-106403829D01*
X107383790Y-106351391D01*
X107450984Y-106332239D01*
X107517865Y-106352455D01*
X107562382Y-106403830D01*
X107599863Y-106484209D01*
X107599864Y-106484211D01*
X107729182Y-106668898D01*
X107888601Y-106828317D01*
X107888604Y-106828319D01*
X108073289Y-106957636D01*
X108277624Y-107052919D01*
X108495400Y-107111272D01*
X108655828Y-107125307D01*
X108719998Y-107130922D01*
X108720000Y-107130922D01*
X108720002Y-107130922D01*
X108776150Y-107126009D01*
X108944600Y-107111272D01*
X109162376Y-107052919D01*
X109366711Y-106957636D01*
X109551396Y-106828319D01*
X109710819Y-106668896D01*
X109840136Y-106484211D01*
X109877618Y-106403829D01*
X109923790Y-106351391D01*
X109990984Y-106332239D01*
X110057865Y-106352455D01*
X110102382Y-106403830D01*
X110139863Y-106484209D01*
X110139864Y-106484211D01*
X110269182Y-106668898D01*
X110428601Y-106828317D01*
X110428604Y-106828319D01*
X110613289Y-106957636D01*
X110817624Y-107052919D01*
X111035400Y-107111272D01*
X111195828Y-107125307D01*
X111259998Y-107130922D01*
X111260000Y-107130922D01*
X111260002Y-107130922D01*
X111316150Y-107126009D01*
X111484600Y-107111272D01*
X111702376Y-107052919D01*
X111906711Y-106957636D01*
X112091396Y-106828319D01*
X112250819Y-106668896D01*
X112380136Y-106484211D01*
X112417618Y-106403829D01*
X112463790Y-106351391D01*
X112530984Y-106332239D01*
X112597865Y-106352455D01*
X112642382Y-106403830D01*
X112679863Y-106484209D01*
X112679864Y-106484211D01*
X112809182Y-106668898D01*
X112968601Y-106828317D01*
X112968604Y-106828319D01*
X113153289Y-106957636D01*
X113357624Y-107052919D01*
X113575400Y-107111272D01*
X113735828Y-107125307D01*
X113799998Y-107130922D01*
X113800000Y-107130922D01*
X113800002Y-107130922D01*
X113856150Y-107126009D01*
X114024600Y-107111272D01*
X114242376Y-107052919D01*
X114446711Y-106957636D01*
X114631396Y-106828319D01*
X114790819Y-106668896D01*
X114920136Y-106484211D01*
X114957618Y-106403829D01*
X115003790Y-106351391D01*
X115070984Y-106332239D01*
X115137865Y-106352455D01*
X115182382Y-106403830D01*
X115219863Y-106484209D01*
X115219864Y-106484211D01*
X115349182Y-106668898D01*
X115508601Y-106828317D01*
X115508604Y-106828319D01*
X115693289Y-106957636D01*
X115897624Y-107052919D01*
X116115400Y-107111272D01*
X116275828Y-107125307D01*
X116339998Y-107130922D01*
X116340000Y-107130922D01*
X116340002Y-107130922D01*
X116396150Y-107126009D01*
X116564600Y-107111272D01*
X116782376Y-107052919D01*
X116986711Y-106957636D01*
X117171396Y-106828319D01*
X117330819Y-106668896D01*
X117460136Y-106484211D01*
X117497618Y-106403829D01*
X117543790Y-106351391D01*
X117610984Y-106332239D01*
X117677865Y-106352455D01*
X117722382Y-106403830D01*
X117759863Y-106484209D01*
X117759864Y-106484211D01*
X117889182Y-106668898D01*
X118048601Y-106828317D01*
X118048604Y-106828319D01*
X118233289Y-106957636D01*
X118437624Y-107052919D01*
X118655400Y-107111272D01*
X118815828Y-107125307D01*
X118879998Y-107130922D01*
X118880000Y-107130922D01*
X118880002Y-107130922D01*
X118936150Y-107126009D01*
X119104600Y-107111272D01*
X119322376Y-107052919D01*
X119526711Y-106957636D01*
X119711396Y-106828319D01*
X119870819Y-106668896D01*
X120000136Y-106484211D01*
X120037618Y-106403829D01*
X120083790Y-106351391D01*
X120150984Y-106332239D01*
X120217865Y-106352455D01*
X120262382Y-106403830D01*
X120299863Y-106484209D01*
X120299864Y-106484211D01*
X120429182Y-106668898D01*
X120588601Y-106828317D01*
X120588604Y-106828319D01*
X120773289Y-106957636D01*
X120977624Y-107052919D01*
X121195400Y-107111272D01*
X121355828Y-107125307D01*
X121419998Y-107130922D01*
X121420000Y-107130922D01*
X121420002Y-107130922D01*
X121476150Y-107126009D01*
X121644600Y-107111272D01*
X121862376Y-107052919D01*
X122066711Y-106957636D01*
X122251396Y-106828319D01*
X122410819Y-106668896D01*
X122540136Y-106484211D01*
X122577618Y-106403829D01*
X122623790Y-106351391D01*
X122690984Y-106332239D01*
X122757865Y-106352455D01*
X122802382Y-106403830D01*
X122839863Y-106484209D01*
X122839864Y-106484211D01*
X122969182Y-106668898D01*
X123128601Y-106828317D01*
X123128604Y-106828319D01*
X123313289Y-106957636D01*
X123517624Y-107052919D01*
X123735400Y-107111272D01*
X123895828Y-107125307D01*
X123959998Y-107130922D01*
X123960000Y-107130922D01*
X123960002Y-107130922D01*
X124016150Y-107126009D01*
X124184600Y-107111272D01*
X124402376Y-107052919D01*
X124606711Y-106957636D01*
X124791396Y-106828319D01*
X124950819Y-106668896D01*
X125080136Y-106484211D01*
X125117618Y-106403829D01*
X125163790Y-106351391D01*
X125230984Y-106332239D01*
X125297865Y-106352455D01*
X125342382Y-106403830D01*
X125379863Y-106484209D01*
X125379864Y-106484211D01*
X125509182Y-106668898D01*
X125668601Y-106828317D01*
X125668604Y-106828319D01*
X125853289Y-106957636D01*
X126057624Y-107052919D01*
X126275400Y-107111272D01*
X126435828Y-107125307D01*
X126499998Y-107130922D01*
X126500000Y-107130922D01*
X126500002Y-107130922D01*
X126556150Y-107126009D01*
X126724600Y-107111272D01*
X126942376Y-107052919D01*
X127146711Y-106957636D01*
X127331396Y-106828319D01*
X127490819Y-106668896D01*
X127620136Y-106484211D01*
X127657618Y-106403829D01*
X127703790Y-106351391D01*
X127770984Y-106332239D01*
X127837865Y-106352455D01*
X127882382Y-106403830D01*
X127919863Y-106484209D01*
X127919864Y-106484211D01*
X128049182Y-106668898D01*
X128208601Y-106828317D01*
X128208604Y-106828319D01*
X128393289Y-106957636D01*
X128597624Y-107052919D01*
X128815400Y-107111272D01*
X128975828Y-107125307D01*
X129039998Y-107130922D01*
X129040000Y-107130922D01*
X129040002Y-107130922D01*
X129096150Y-107126009D01*
X129264600Y-107111272D01*
X129482376Y-107052919D01*
X129686711Y-106957636D01*
X129871396Y-106828319D01*
X130030819Y-106668896D01*
X130160136Y-106484211D01*
X130197618Y-106403829D01*
X130243790Y-106351391D01*
X130310984Y-106332239D01*
X130377865Y-106352455D01*
X130422382Y-106403830D01*
X130459863Y-106484209D01*
X130459864Y-106484211D01*
X130589182Y-106668898D01*
X130748601Y-106828317D01*
X130748604Y-106828319D01*
X130933289Y-106957636D01*
X131137624Y-107052919D01*
X131355400Y-107111272D01*
X131515828Y-107125307D01*
X131579998Y-107130922D01*
X131580000Y-107130922D01*
X131580002Y-107130922D01*
X131636150Y-107126009D01*
X131804600Y-107111272D01*
X132022376Y-107052919D01*
X132226711Y-106957636D01*
X132411396Y-106828319D01*
X132570819Y-106668896D01*
X132700136Y-106484211D01*
X132737618Y-106403829D01*
X132783790Y-106351391D01*
X132850984Y-106332239D01*
X132917865Y-106352455D01*
X132962382Y-106403830D01*
X132999863Y-106484209D01*
X132999864Y-106484211D01*
X133129182Y-106668898D01*
X133288601Y-106828317D01*
X133288604Y-106828319D01*
X133473289Y-106957636D01*
X133677624Y-107052919D01*
X133895400Y-107111272D01*
X134055828Y-107125307D01*
X134119998Y-107130922D01*
X134120000Y-107130922D01*
X134120002Y-107130922D01*
X134176150Y-107126009D01*
X134344600Y-107111272D01*
X134562376Y-107052919D01*
X134766711Y-106957636D01*
X134951396Y-106828319D01*
X135110819Y-106668896D01*
X135240136Y-106484211D01*
X135277618Y-106403829D01*
X135323790Y-106351391D01*
X135390984Y-106332239D01*
X135457865Y-106352455D01*
X135502382Y-106403830D01*
X135539863Y-106484209D01*
X135539864Y-106484211D01*
X135669182Y-106668898D01*
X135828601Y-106828317D01*
X135828604Y-106828319D01*
X136013289Y-106957636D01*
X136217624Y-107052919D01*
X136435400Y-107111272D01*
X136595828Y-107125307D01*
X136659998Y-107130922D01*
X136660000Y-107130922D01*
X136660002Y-107130922D01*
X136716150Y-107126009D01*
X136884600Y-107111272D01*
X137102376Y-107052919D01*
X137306711Y-106957636D01*
X137491396Y-106828319D01*
X137650819Y-106668896D01*
X137780136Y-106484211D01*
X137817618Y-106403829D01*
X137863790Y-106351391D01*
X137930984Y-106332239D01*
X137997865Y-106352455D01*
X138042382Y-106403830D01*
X138079863Y-106484209D01*
X138079864Y-106484211D01*
X138209182Y-106668898D01*
X138368601Y-106828317D01*
X138368604Y-106828319D01*
X138553289Y-106957636D01*
X138757624Y-107052919D01*
X138975400Y-107111272D01*
X139135828Y-107125307D01*
X139199998Y-107130922D01*
X139200000Y-107130922D01*
X139200002Y-107130922D01*
X139256150Y-107126009D01*
X139424600Y-107111272D01*
X139642376Y-107052919D01*
X139846711Y-106957636D01*
X140031396Y-106828319D01*
X140190819Y-106668896D01*
X140320136Y-106484211D01*
X140357618Y-106403829D01*
X140403790Y-106351391D01*
X140470984Y-106332239D01*
X140537865Y-106352455D01*
X140582382Y-106403830D01*
X140619863Y-106484209D01*
X140619864Y-106484211D01*
X140749182Y-106668898D01*
X140908601Y-106828317D01*
X140908604Y-106828319D01*
X141093289Y-106957636D01*
X141297624Y-107052919D01*
X141515400Y-107111272D01*
X141675828Y-107125307D01*
X141739998Y-107130922D01*
X141740000Y-107130922D01*
X141740002Y-107130922D01*
X141796150Y-107126009D01*
X141964600Y-107111272D01*
X142182376Y-107052919D01*
X142386711Y-106957636D01*
X142571396Y-106828319D01*
X142730819Y-106668896D01*
X142860136Y-106484211D01*
X142897618Y-106403829D01*
X142943790Y-106351391D01*
X143010984Y-106332239D01*
X143077865Y-106352455D01*
X143122382Y-106403830D01*
X143159863Y-106484209D01*
X143159864Y-106484211D01*
X143289182Y-106668898D01*
X143448601Y-106828317D01*
X143448604Y-106828319D01*
X143633289Y-106957636D01*
X143837624Y-107052919D01*
X144055400Y-107111272D01*
X144215828Y-107125307D01*
X144279998Y-107130922D01*
X144280000Y-107130922D01*
X144280002Y-107130922D01*
X144336150Y-107126009D01*
X144504600Y-107111272D01*
X144722376Y-107052919D01*
X144926711Y-106957636D01*
X145111396Y-106828319D01*
X145270819Y-106668896D01*
X145400136Y-106484211D01*
X145437618Y-106403829D01*
X145483790Y-106351391D01*
X145550984Y-106332239D01*
X145617865Y-106352455D01*
X145662382Y-106403830D01*
X145699863Y-106484209D01*
X145699864Y-106484211D01*
X145829182Y-106668898D01*
X145988601Y-106828317D01*
X145988604Y-106828319D01*
X146173289Y-106957636D01*
X146377624Y-107052919D01*
X146595400Y-107111272D01*
X146755828Y-107125307D01*
X146819998Y-107130922D01*
X146820000Y-107130922D01*
X146820002Y-107130922D01*
X146876150Y-107126009D01*
X147044600Y-107111272D01*
X147262376Y-107052919D01*
X147466711Y-106957636D01*
X147651396Y-106828319D01*
X147810819Y-106668896D01*
X147940136Y-106484211D01*
X147977618Y-106403829D01*
X148023790Y-106351391D01*
X148090984Y-106332239D01*
X148157865Y-106352455D01*
X148202382Y-106403830D01*
X148239863Y-106484209D01*
X148239864Y-106484211D01*
X148369182Y-106668898D01*
X148528601Y-106828317D01*
X148528604Y-106828319D01*
X148713289Y-106957636D01*
X148917624Y-107052919D01*
X149135400Y-107111272D01*
X149295828Y-107125307D01*
X149359998Y-107130922D01*
X149360000Y-107130922D01*
X149360002Y-107130922D01*
X149416150Y-107126009D01*
X149584600Y-107111272D01*
X149802376Y-107052919D01*
X150006711Y-106957636D01*
X150191396Y-106828319D01*
X150350819Y-106668896D01*
X150480136Y-106484211D01*
X150575419Y-106279876D01*
X150633772Y-106062100D01*
X150653422Y-105837500D01*
X150633772Y-105612900D01*
X150575419Y-105395124D01*
X150480136Y-105190789D01*
X150350819Y-105006104D01*
X150350817Y-105006101D01*
X150191398Y-104846682D01*
X150006711Y-104717364D01*
X150006709Y-104717363D01*
X149983802Y-104706681D01*
X149802376Y-104622081D01*
X149802372Y-104622080D01*
X149802368Y-104622078D01*
X149584605Y-104563729D01*
X149584601Y-104563728D01*
X149584600Y-104563728D01*
X149584599Y-104563727D01*
X149584594Y-104563727D01*
X149360002Y-104544078D01*
X149359998Y-104544078D01*
X149135405Y-104563727D01*
X149135394Y-104563729D01*
X148917631Y-104622078D01*
X148917622Y-104622082D01*
X148713290Y-104717363D01*
X148713288Y-104717364D01*
X148528601Y-104846682D01*
X148369182Y-105006101D01*
X148239864Y-105190788D01*
X148239863Y-105190790D01*
X148202382Y-105271169D01*
X148156209Y-105323608D01*
X148089016Y-105342760D01*
X148022135Y-105322544D01*
X147977618Y-105271169D01*
X147940136Y-105190790D01*
X147940135Y-105190788D01*
X147810817Y-105006101D01*
X147651398Y-104846682D01*
X147466711Y-104717364D01*
X147466709Y-104717363D01*
X147443802Y-104706681D01*
X147262376Y-104622081D01*
X147262372Y-104622080D01*
X147262368Y-104622078D01*
X147044605Y-104563729D01*
X147044601Y-104563728D01*
X147044600Y-104563728D01*
X147044599Y-104563727D01*
X147044594Y-104563727D01*
X146820002Y-104544078D01*
X146819998Y-104544078D01*
X146595405Y-104563727D01*
X146595394Y-104563729D01*
X146377631Y-104622078D01*
X146377622Y-104622082D01*
X146173290Y-104717363D01*
X146173288Y-104717364D01*
X145988601Y-104846682D01*
X145829182Y-105006101D01*
X145699864Y-105190788D01*
X145699863Y-105190790D01*
X145662382Y-105271169D01*
X145616209Y-105323608D01*
X145549016Y-105342760D01*
X145482135Y-105322544D01*
X145437618Y-105271169D01*
X145400136Y-105190790D01*
X145400135Y-105190788D01*
X145270817Y-105006101D01*
X145111398Y-104846682D01*
X144926711Y-104717364D01*
X144926709Y-104717363D01*
X144903802Y-104706681D01*
X144722376Y-104622081D01*
X144722372Y-104622080D01*
X144722368Y-104622078D01*
X144504605Y-104563729D01*
X144504601Y-104563728D01*
X144504600Y-104563728D01*
X144504599Y-104563727D01*
X144504594Y-104563727D01*
X144280002Y-104544078D01*
X144279998Y-104544078D01*
X144055405Y-104563727D01*
X144055394Y-104563729D01*
X143837631Y-104622078D01*
X143837622Y-104622082D01*
X143633290Y-104717363D01*
X143633288Y-104717364D01*
X143448601Y-104846682D01*
X143289182Y-105006101D01*
X143159864Y-105190788D01*
X143159863Y-105190790D01*
X143122382Y-105271169D01*
X143076209Y-105323608D01*
X143009016Y-105342760D01*
X142942135Y-105322544D01*
X142897618Y-105271169D01*
X142860136Y-105190790D01*
X142860135Y-105190788D01*
X142730817Y-105006101D01*
X142571398Y-104846682D01*
X142386711Y-104717364D01*
X142386709Y-104717363D01*
X142363802Y-104706681D01*
X142182376Y-104622081D01*
X142182372Y-104622080D01*
X142182368Y-104622078D01*
X141964605Y-104563729D01*
X141964601Y-104563728D01*
X141964600Y-104563728D01*
X141964599Y-104563727D01*
X141964594Y-104563727D01*
X141740002Y-104544078D01*
X141739998Y-104544078D01*
X141515405Y-104563727D01*
X141515394Y-104563729D01*
X141297631Y-104622078D01*
X141297622Y-104622082D01*
X141093290Y-104717363D01*
X141093288Y-104717364D01*
X140908601Y-104846682D01*
X140749182Y-105006101D01*
X140619864Y-105190788D01*
X140619863Y-105190790D01*
X140582382Y-105271169D01*
X140536209Y-105323608D01*
X140469016Y-105342760D01*
X140402135Y-105322544D01*
X140357618Y-105271169D01*
X140320136Y-105190790D01*
X140320135Y-105190788D01*
X140190817Y-105006101D01*
X140031398Y-104846682D01*
X139846711Y-104717364D01*
X139846709Y-104717363D01*
X139823802Y-104706681D01*
X139642376Y-104622081D01*
X139642372Y-104622080D01*
X139642368Y-104622078D01*
X139424605Y-104563729D01*
X139424601Y-104563728D01*
X139424600Y-104563728D01*
X139424599Y-104563727D01*
X139424594Y-104563727D01*
X139200002Y-104544078D01*
X139199998Y-104544078D01*
X138975405Y-104563727D01*
X138975394Y-104563729D01*
X138757631Y-104622078D01*
X138757622Y-104622082D01*
X138553290Y-104717363D01*
X138553288Y-104717364D01*
X138368601Y-104846682D01*
X138209182Y-105006101D01*
X138079864Y-105190788D01*
X138079863Y-105190790D01*
X138042382Y-105271169D01*
X137996209Y-105323608D01*
X137929016Y-105342760D01*
X137862135Y-105322544D01*
X137817618Y-105271169D01*
X137780136Y-105190790D01*
X137780135Y-105190788D01*
X137650817Y-105006101D01*
X137491398Y-104846682D01*
X137306711Y-104717364D01*
X137306709Y-104717363D01*
X137283802Y-104706681D01*
X137102376Y-104622081D01*
X137102372Y-104622080D01*
X137102368Y-104622078D01*
X136884605Y-104563729D01*
X136884601Y-104563728D01*
X136884600Y-104563728D01*
X136884599Y-104563727D01*
X136884594Y-104563727D01*
X136660002Y-104544078D01*
X136659998Y-104544078D01*
X136435405Y-104563727D01*
X136435394Y-104563729D01*
X136217631Y-104622078D01*
X136217622Y-104622082D01*
X136013290Y-104717363D01*
X136013288Y-104717364D01*
X135828601Y-104846682D01*
X135669182Y-105006101D01*
X135539864Y-105190788D01*
X135539863Y-105190790D01*
X135502382Y-105271169D01*
X135456209Y-105323608D01*
X135389016Y-105342760D01*
X135322135Y-105322544D01*
X135277618Y-105271169D01*
X135240136Y-105190790D01*
X135240135Y-105190788D01*
X135110817Y-105006101D01*
X134951398Y-104846682D01*
X134766711Y-104717364D01*
X134766709Y-104717363D01*
X134743802Y-104706681D01*
X134562376Y-104622081D01*
X134562372Y-104622080D01*
X134562368Y-104622078D01*
X134344605Y-104563729D01*
X134344601Y-104563728D01*
X134344600Y-104563728D01*
X134344599Y-104563727D01*
X134344594Y-104563727D01*
X134120002Y-104544078D01*
X134119998Y-104544078D01*
X133895405Y-104563727D01*
X133895394Y-104563729D01*
X133677631Y-104622078D01*
X133677622Y-104622082D01*
X133473290Y-104717363D01*
X133473288Y-104717364D01*
X133288601Y-104846682D01*
X133129182Y-105006101D01*
X132999864Y-105190788D01*
X132999863Y-105190790D01*
X132962382Y-105271169D01*
X132916209Y-105323608D01*
X132849016Y-105342760D01*
X132782135Y-105322544D01*
X132737618Y-105271169D01*
X132700136Y-105190790D01*
X132700135Y-105190788D01*
X132570817Y-105006101D01*
X132411398Y-104846682D01*
X132226711Y-104717364D01*
X132226709Y-104717363D01*
X132203802Y-104706681D01*
X132022376Y-104622081D01*
X132022372Y-104622080D01*
X132022368Y-104622078D01*
X131804605Y-104563729D01*
X131804601Y-104563728D01*
X131804600Y-104563728D01*
X131804599Y-104563727D01*
X131804594Y-104563727D01*
X131580002Y-104544078D01*
X131579998Y-104544078D01*
X131355405Y-104563727D01*
X131355394Y-104563729D01*
X131137631Y-104622078D01*
X131137622Y-104622082D01*
X130933290Y-104717363D01*
X130933288Y-104717364D01*
X130748601Y-104846682D01*
X130589182Y-105006101D01*
X130459864Y-105190788D01*
X130459863Y-105190790D01*
X130422382Y-105271169D01*
X130376209Y-105323608D01*
X130309016Y-105342760D01*
X130242135Y-105322544D01*
X130197618Y-105271169D01*
X130160136Y-105190790D01*
X130160135Y-105190788D01*
X130030817Y-105006101D01*
X129871398Y-104846682D01*
X129686711Y-104717364D01*
X129686709Y-104717363D01*
X129663802Y-104706681D01*
X129482376Y-104622081D01*
X129482372Y-104622080D01*
X129482368Y-104622078D01*
X129264605Y-104563729D01*
X129264601Y-104563728D01*
X129264600Y-104563728D01*
X129264599Y-104563727D01*
X129264594Y-104563727D01*
X129040002Y-104544078D01*
X129039998Y-104544078D01*
X128815405Y-104563727D01*
X128815394Y-104563729D01*
X128597631Y-104622078D01*
X128597622Y-104622082D01*
X128393290Y-104717363D01*
X128393288Y-104717364D01*
X128208601Y-104846682D01*
X128049182Y-105006101D01*
X127919864Y-105190788D01*
X127919863Y-105190790D01*
X127882382Y-105271169D01*
X127836209Y-105323608D01*
X127769016Y-105342760D01*
X127702135Y-105322544D01*
X127657618Y-105271169D01*
X127620136Y-105190790D01*
X127620135Y-105190788D01*
X127490817Y-105006101D01*
X127331398Y-104846682D01*
X127146711Y-104717364D01*
X127146709Y-104717363D01*
X127123802Y-104706681D01*
X126942376Y-104622081D01*
X126942372Y-104622080D01*
X126942368Y-104622078D01*
X126724605Y-104563729D01*
X126724601Y-104563728D01*
X126724600Y-104563728D01*
X126724599Y-104563727D01*
X126724594Y-104563727D01*
X126500002Y-104544078D01*
X126499998Y-104544078D01*
X126275405Y-104563727D01*
X126275394Y-104563729D01*
X126057631Y-104622078D01*
X126057622Y-104622082D01*
X125853290Y-104717363D01*
X125853288Y-104717364D01*
X125668601Y-104846682D01*
X125509182Y-105006101D01*
X125379864Y-105190788D01*
X125379863Y-105190790D01*
X125342382Y-105271169D01*
X125296209Y-105323608D01*
X125229016Y-105342760D01*
X125162135Y-105322544D01*
X125117618Y-105271169D01*
X125080136Y-105190790D01*
X125080135Y-105190788D01*
X124950817Y-105006101D01*
X124791398Y-104846682D01*
X124606711Y-104717364D01*
X124606709Y-104717363D01*
X124583802Y-104706681D01*
X124402376Y-104622081D01*
X124402372Y-104622080D01*
X124402368Y-104622078D01*
X124184605Y-104563729D01*
X124184601Y-104563728D01*
X124184600Y-104563728D01*
X124184599Y-104563727D01*
X124184594Y-104563727D01*
X123960002Y-104544078D01*
X123959998Y-104544078D01*
X123735405Y-104563727D01*
X123735394Y-104563729D01*
X123517631Y-104622078D01*
X123517622Y-104622082D01*
X123313290Y-104717363D01*
X123313288Y-104717364D01*
X123128601Y-104846682D01*
X122969182Y-105006101D01*
X122839864Y-105190788D01*
X122839863Y-105190790D01*
X122802382Y-105271169D01*
X122756209Y-105323608D01*
X122689016Y-105342760D01*
X122622135Y-105322544D01*
X122577618Y-105271169D01*
X122540136Y-105190790D01*
X122540135Y-105190788D01*
X122410817Y-105006101D01*
X122251398Y-104846682D01*
X122066711Y-104717364D01*
X122066709Y-104717363D01*
X122043802Y-104706681D01*
X121862376Y-104622081D01*
X121862372Y-104622080D01*
X121862368Y-104622078D01*
X121644605Y-104563729D01*
X121644601Y-104563728D01*
X121644600Y-104563728D01*
X121644599Y-104563727D01*
X121644594Y-104563727D01*
X121420002Y-104544078D01*
X121419998Y-104544078D01*
X121195405Y-104563727D01*
X121195394Y-104563729D01*
X120977631Y-104622078D01*
X120977622Y-104622082D01*
X120773290Y-104717363D01*
X120773288Y-104717364D01*
X120588601Y-104846682D01*
X120429182Y-105006101D01*
X120299864Y-105190788D01*
X120299863Y-105190790D01*
X120262382Y-105271169D01*
X120216209Y-105323608D01*
X120149016Y-105342760D01*
X120082135Y-105322544D01*
X120037618Y-105271169D01*
X120000136Y-105190790D01*
X120000135Y-105190788D01*
X119870817Y-105006101D01*
X119711398Y-104846682D01*
X119526711Y-104717364D01*
X119526709Y-104717363D01*
X119503802Y-104706681D01*
X119322376Y-104622081D01*
X119322372Y-104622080D01*
X119322368Y-104622078D01*
X119104605Y-104563729D01*
X119104601Y-104563728D01*
X119104600Y-104563728D01*
X119104599Y-104563727D01*
X119104594Y-104563727D01*
X118880002Y-104544078D01*
X118879998Y-104544078D01*
X118655405Y-104563727D01*
X118655394Y-104563729D01*
X118437631Y-104622078D01*
X118437622Y-104622082D01*
X118233290Y-104717363D01*
X118233288Y-104717364D01*
X118048601Y-104846682D01*
X117889182Y-105006101D01*
X117759864Y-105190788D01*
X117759863Y-105190790D01*
X117722382Y-105271169D01*
X117676209Y-105323608D01*
X117609016Y-105342760D01*
X117542135Y-105322544D01*
X117497618Y-105271169D01*
X117460136Y-105190790D01*
X117460135Y-105190788D01*
X117330817Y-105006101D01*
X117171398Y-104846682D01*
X116986711Y-104717364D01*
X116986709Y-104717363D01*
X116963802Y-104706681D01*
X116782376Y-104622081D01*
X116782372Y-104622080D01*
X116782368Y-104622078D01*
X116564605Y-104563729D01*
X116564601Y-104563728D01*
X116564600Y-104563728D01*
X116564599Y-104563727D01*
X116564594Y-104563727D01*
X116340002Y-104544078D01*
X116339998Y-104544078D01*
X116115405Y-104563727D01*
X116115394Y-104563729D01*
X115897631Y-104622078D01*
X115897622Y-104622082D01*
X115693290Y-104717363D01*
X115693288Y-104717364D01*
X115508601Y-104846682D01*
X115349182Y-105006101D01*
X115219864Y-105190788D01*
X115219863Y-105190790D01*
X115182382Y-105271169D01*
X115136209Y-105323608D01*
X115069016Y-105342760D01*
X115002135Y-105322544D01*
X114957618Y-105271169D01*
X114920136Y-105190790D01*
X114920135Y-105190788D01*
X114790817Y-105006101D01*
X114631398Y-104846682D01*
X114446711Y-104717364D01*
X114446709Y-104717363D01*
X114423802Y-104706681D01*
X114242376Y-104622081D01*
X114242372Y-104622080D01*
X114242368Y-104622078D01*
X114024605Y-104563729D01*
X114024601Y-104563728D01*
X114024600Y-104563728D01*
X114024599Y-104563727D01*
X114024594Y-104563727D01*
X113800002Y-104544078D01*
X113799998Y-104544078D01*
X113575405Y-104563727D01*
X113575394Y-104563729D01*
X113357631Y-104622078D01*
X113357622Y-104622082D01*
X113153290Y-104717363D01*
X113153288Y-104717364D01*
X112968601Y-104846682D01*
X112809182Y-105006101D01*
X112679864Y-105190788D01*
X112679863Y-105190790D01*
X112642382Y-105271169D01*
X112596209Y-105323608D01*
X112529016Y-105342760D01*
X112462135Y-105322544D01*
X112417618Y-105271169D01*
X112380136Y-105190790D01*
X112380135Y-105190788D01*
X112250817Y-105006101D01*
X112091398Y-104846682D01*
X111906711Y-104717364D01*
X111906709Y-104717363D01*
X111883802Y-104706681D01*
X111702376Y-104622081D01*
X111702372Y-104622080D01*
X111702368Y-104622078D01*
X111484605Y-104563729D01*
X111484601Y-104563728D01*
X111484600Y-104563728D01*
X111484599Y-104563727D01*
X111484594Y-104563727D01*
X111260002Y-104544078D01*
X111259998Y-104544078D01*
X111035405Y-104563727D01*
X111035394Y-104563729D01*
X110817631Y-104622078D01*
X110817622Y-104622082D01*
X110613290Y-104717363D01*
X110613288Y-104717364D01*
X110428601Y-104846682D01*
X110269182Y-105006101D01*
X110139864Y-105190788D01*
X110139863Y-105190790D01*
X110102382Y-105271169D01*
X110056209Y-105323608D01*
X109989016Y-105342760D01*
X109922135Y-105322544D01*
X109877618Y-105271169D01*
X109840136Y-105190790D01*
X109840135Y-105190788D01*
X109710817Y-105006101D01*
X109551398Y-104846682D01*
X109366711Y-104717364D01*
X109366709Y-104717363D01*
X109343802Y-104706681D01*
X109162376Y-104622081D01*
X109162372Y-104622080D01*
X109162368Y-104622078D01*
X108944605Y-104563729D01*
X108944601Y-104563728D01*
X108944600Y-104563728D01*
X108944599Y-104563727D01*
X108944594Y-104563727D01*
X108720002Y-104544078D01*
X108719998Y-104544078D01*
X108495405Y-104563727D01*
X108495394Y-104563729D01*
X108277631Y-104622078D01*
X108277622Y-104622082D01*
X108073290Y-104717363D01*
X108073288Y-104717364D01*
X107888601Y-104846682D01*
X107729182Y-105006101D01*
X107599864Y-105190788D01*
X107599863Y-105190790D01*
X107562382Y-105271169D01*
X107516209Y-105323608D01*
X107449016Y-105342760D01*
X107382135Y-105322544D01*
X107337618Y-105271169D01*
X107300136Y-105190790D01*
X107300135Y-105190788D01*
X107170817Y-105006101D01*
X107011398Y-104846682D01*
X106826711Y-104717364D01*
X106826709Y-104717363D01*
X106803802Y-104706681D01*
X106622376Y-104622081D01*
X106622372Y-104622080D01*
X106622368Y-104622078D01*
X106404605Y-104563729D01*
X106404601Y-104563728D01*
X106404600Y-104563728D01*
X106404599Y-104563727D01*
X106404594Y-104563727D01*
X106180002Y-104544078D01*
X106179998Y-104544078D01*
X105955405Y-104563727D01*
X105955394Y-104563729D01*
X105737631Y-104622078D01*
X105737622Y-104622082D01*
X105533290Y-104717363D01*
X105533288Y-104717364D01*
X105348601Y-104846682D01*
X105189182Y-105006101D01*
X105059864Y-105190788D01*
X105059863Y-105190790D01*
X105022382Y-105271169D01*
X104976209Y-105323608D01*
X104909016Y-105342760D01*
X104842135Y-105322544D01*
X104797618Y-105271169D01*
X104760136Y-105190790D01*
X104760135Y-105190788D01*
X104630817Y-105006101D01*
X104471398Y-104846682D01*
X104286711Y-104717364D01*
X104286709Y-104717363D01*
X104263802Y-104706681D01*
X104082376Y-104622081D01*
X104082372Y-104622080D01*
X104082368Y-104622078D01*
X103864605Y-104563729D01*
X103864601Y-104563728D01*
X103864600Y-104563728D01*
X103864599Y-104563727D01*
X103864594Y-104563727D01*
X103640002Y-104544078D01*
X103639998Y-104544078D01*
X103415405Y-104563727D01*
X103415394Y-104563729D01*
X103197631Y-104622078D01*
X103197622Y-104622082D01*
X102993290Y-104717363D01*
X102993288Y-104717364D01*
X102808601Y-104846682D01*
X102649182Y-105006101D01*
X102519864Y-105190788D01*
X102519863Y-105190790D01*
X102424582Y-105395122D01*
X102424578Y-105395131D01*
X102366229Y-105612894D01*
X102366227Y-105612905D01*
X102346578Y-105837498D01*
X102346578Y-105837501D01*
X101410768Y-105837501D01*
X101496690Y-79802765D01*
X101497322Y-79790678D01*
X101515255Y-79614195D01*
X101520056Y-79590426D01*
X101570209Y-79426679D01*
X101579542Y-79404300D01*
X101660620Y-79253438D01*
X101674121Y-79233322D01*
X101783024Y-79101124D01*
X101800191Y-79084014D01*
X101932735Y-78975557D01*
X101952911Y-78962112D01*
X102104037Y-78881535D01*
X102126442Y-78872276D01*
X102290364Y-78822661D01*
X102314144Y-78817942D01*
X102490651Y-78800595D01*
X102502779Y-78800000D01*
X108487522Y-78800000D01*
X108545148Y-78814204D01*
G37*
%TD.AperFunction*%
%TD*%
%TA.AperFunction,Conductor*%
%TO.N,VBUS*%
G36*
X199806061Y-56000597D02*
G01*
X199982941Y-56018018D01*
X200006769Y-56022757D01*
X200171001Y-56072576D01*
X200193453Y-56081877D01*
X200344798Y-56162772D01*
X200365010Y-56176277D01*
X200497666Y-56285145D01*
X200514854Y-56302333D01*
X200623722Y-56434989D01*
X200637227Y-56455201D01*
X200718121Y-56606543D01*
X200727424Y-56629001D01*
X200777240Y-56793224D01*
X200781982Y-56817065D01*
X200799403Y-56993938D01*
X200800000Y-57006092D01*
X200800000Y-70558550D01*
X200780315Y-70625589D01*
X200727511Y-70671344D01*
X200658353Y-70681288D01*
X200594797Y-70652263D01*
X200560236Y-70602988D01*
X200509571Y-70471002D01*
X200342617Y-70143338D01*
X200142333Y-69834926D01*
X199910905Y-69549137D01*
X199910902Y-69549133D01*
X199650867Y-69289098D01*
X199528138Y-69189714D01*
X199365073Y-69057666D01*
X199056662Y-68857382D01*
X198728997Y-68690428D01*
X198385681Y-68558641D01*
X198385674Y-68558639D01*
X198030459Y-68463459D01*
X198030455Y-68463458D01*
X198030454Y-68463458D01*
X197667242Y-68405931D01*
X197300001Y-68386685D01*
X197299999Y-68386685D01*
X196932757Y-68405931D01*
X196569546Y-68463458D01*
X196569544Y-68463458D01*
X196214318Y-68558641D01*
X195871002Y-68690428D01*
X195543338Y-68857382D01*
X195234926Y-69057666D01*
X194949137Y-69289094D01*
X194949129Y-69289101D01*
X194689101Y-69549129D01*
X194689094Y-69549137D01*
X194457666Y-69834926D01*
X194257382Y-70143338D01*
X194090428Y-70471002D01*
X193958641Y-70814318D01*
X193863458Y-71169544D01*
X193863458Y-71169546D01*
X193805931Y-71532757D01*
X193786685Y-71899999D01*
X193786685Y-71900000D01*
X193805931Y-72267242D01*
X193863458Y-72630453D01*
X193863458Y-72630455D01*
X193958641Y-72985681D01*
X194090428Y-73328997D01*
X194257382Y-73656662D01*
X194457666Y-73965073D01*
X194457668Y-73965075D01*
X194689098Y-74250867D01*
X194949133Y-74510902D01*
X194949137Y-74510905D01*
X195234926Y-74742333D01*
X195543337Y-74942617D01*
X195543342Y-74942620D01*
X195871006Y-75109573D01*
X196214326Y-75241361D01*
X196569541Y-75336541D01*
X196932759Y-75394069D01*
X197279688Y-75412250D01*
X197299999Y-75413315D01*
X197300000Y-75413315D01*
X197300001Y-75413315D01*
X197319247Y-75412306D01*
X197667241Y-75394069D01*
X198030459Y-75336541D01*
X198385674Y-75241361D01*
X198728994Y-75109573D01*
X199056658Y-74942620D01*
X199365075Y-74742332D01*
X199650867Y-74510902D01*
X199910902Y-74250867D01*
X200142332Y-73965075D01*
X200342620Y-73656658D01*
X200509573Y-73328994D01*
X200560236Y-73197009D01*
X200602638Y-73141479D01*
X200668332Y-73117686D01*
X200736460Y-73133187D01*
X200785393Y-73183061D01*
X200800000Y-73241449D01*
X200800000Y-121458550D01*
X200780315Y-121525589D01*
X200727511Y-121571344D01*
X200658353Y-121581288D01*
X200594797Y-121552263D01*
X200560236Y-121502988D01*
X200509571Y-121371002D01*
X200342617Y-121043338D01*
X200142333Y-120734926D01*
X199910905Y-120449137D01*
X199910902Y-120449133D01*
X199650867Y-120189098D01*
X199365075Y-119957668D01*
X199365073Y-119957666D01*
X199056662Y-119757382D01*
X198728997Y-119590428D01*
X198385681Y-119458641D01*
X198385674Y-119458639D01*
X198030459Y-119363459D01*
X198030455Y-119363458D01*
X198030454Y-119363458D01*
X197667242Y-119305931D01*
X197300001Y-119286685D01*
X197299999Y-119286685D01*
X196932757Y-119305931D01*
X196569546Y-119363458D01*
X196569544Y-119363458D01*
X196214318Y-119458641D01*
X195871002Y-119590428D01*
X195543338Y-119757382D01*
X195234926Y-119957666D01*
X194949137Y-120189094D01*
X194949129Y-120189101D01*
X194689101Y-120449129D01*
X194689094Y-120449137D01*
X194457666Y-120734926D01*
X194257382Y-121043338D01*
X194090428Y-121371002D01*
X193958641Y-121714318D01*
X193863458Y-122069544D01*
X193863458Y-122069546D01*
X193805931Y-122432757D01*
X193786685Y-122799999D01*
X193786685Y-122800000D01*
X193805931Y-123167242D01*
X193863458Y-123530453D01*
X193863458Y-123530455D01*
X193958641Y-123885681D01*
X194090428Y-124228997D01*
X194257382Y-124556662D01*
X194457666Y-124865073D01*
X194457668Y-124865075D01*
X194689098Y-125150867D01*
X194949133Y-125410902D01*
X194949137Y-125410905D01*
X195234926Y-125642333D01*
X195543337Y-125842617D01*
X195543342Y-125842620D01*
X195871006Y-126009573D01*
X196214326Y-126141361D01*
X196569541Y-126236541D01*
X196932759Y-126294069D01*
X197279688Y-126312250D01*
X197299999Y-126313315D01*
X197300000Y-126313315D01*
X197300001Y-126313315D01*
X197319247Y-126312306D01*
X197667241Y-126294069D01*
X198030459Y-126236541D01*
X198385674Y-126141361D01*
X198728994Y-126009573D01*
X199056658Y-125842620D01*
X199365075Y-125642332D01*
X199650867Y-125410902D01*
X199910902Y-125150867D01*
X200142332Y-124865075D01*
X200342620Y-124556658D01*
X200509573Y-124228994D01*
X200560236Y-124097009D01*
X200602638Y-124041479D01*
X200668332Y-124017686D01*
X200736460Y-124033187D01*
X200785393Y-124083061D01*
X200800000Y-124141449D01*
X200800000Y-137693907D01*
X200799403Y-137706061D01*
X200781982Y-137882934D01*
X200777240Y-137906775D01*
X200727424Y-138070998D01*
X200718121Y-138093456D01*
X200637227Y-138244798D01*
X200623722Y-138265010D01*
X200514854Y-138397666D01*
X200497666Y-138414854D01*
X200365010Y-138523722D01*
X200344798Y-138537227D01*
X200193456Y-138618121D01*
X200170998Y-138627424D01*
X200006775Y-138677240D01*
X199982934Y-138681982D01*
X199806061Y-138699403D01*
X199793907Y-138700000D01*
X102406093Y-138700000D01*
X102393939Y-138699403D01*
X102217065Y-138681982D01*
X102193224Y-138677240D01*
X102029001Y-138627424D01*
X102006543Y-138618121D01*
X101855201Y-138537227D01*
X101834989Y-138523722D01*
X101702333Y-138414854D01*
X101685145Y-138397666D01*
X101576277Y-138265010D01*
X101562772Y-138244798D01*
X101481878Y-138093456D01*
X101472575Y-138070998D01*
X101422757Y-137906769D01*
X101418018Y-137882941D01*
X101400597Y-137706061D01*
X101400000Y-137693907D01*
X101400000Y-134928654D01*
X106866500Y-134928654D01*
X106873011Y-134989202D01*
X106873011Y-134989204D01*
X106884014Y-135018702D01*
X106924111Y-135126204D01*
X107011739Y-135243261D01*
X107128796Y-135330889D01*
X107243949Y-135373839D01*
X107260463Y-135379999D01*
X107265799Y-135381989D01*
X107293050Y-135384918D01*
X107326345Y-135388499D01*
X107326362Y-135388500D01*
X110023638Y-135388500D01*
X110023654Y-135388499D01*
X110050692Y-135385591D01*
X110084201Y-135381989D01*
X110089537Y-135379999D01*
X110098768Y-135376555D01*
X110221204Y-135330889D01*
X110338261Y-135243261D01*
X110425889Y-135126204D01*
X110476989Y-134989201D01*
X110480591Y-134955692D01*
X110483499Y-134928654D01*
X110483500Y-134928637D01*
X110483500Y-133580004D01*
X111861429Y-133580004D01*
X111881683Y-133850289D01*
X111881684Y-133850294D01*
X111941997Y-134114545D01*
X111941999Y-134114554D01*
X111942001Y-134114559D01*
X112041029Y-134366879D01*
X112176557Y-134601621D01*
X112345558Y-134813542D01*
X112544257Y-134997907D01*
X112768215Y-135150599D01*
X113012428Y-135268206D01*
X113271442Y-135348101D01*
X113271443Y-135348101D01*
X113271446Y-135348102D01*
X113539464Y-135388499D01*
X113539469Y-135388499D01*
X113539472Y-135388500D01*
X113539473Y-135388500D01*
X113810527Y-135388500D01*
X113810528Y-135388500D01*
X113853726Y-135381989D01*
X114078553Y-135348102D01*
X114078554Y-135348101D01*
X114078558Y-135348101D01*
X114337572Y-135268206D01*
X114581786Y-135150599D01*
X114805743Y-134997907D01*
X115004442Y-134813542D01*
X115173443Y-134601621D01*
X115308971Y-134366879D01*
X115407999Y-134114559D01*
X115468315Y-133850299D01*
X115468410Y-133849028D01*
X115488571Y-133580004D01*
X116869953Y-133580004D01*
X116890113Y-133849026D01*
X116890113Y-133849028D01*
X116950142Y-134112033D01*
X116950148Y-134112052D01*
X117048709Y-134363181D01*
X117048708Y-134363181D01*
X117183602Y-134596822D01*
X117237294Y-134664151D01*
X118072452Y-133828992D01*
X118082188Y-133858956D01*
X118170186Y-133997619D01*
X118289903Y-134110040D01*
X118424510Y-134184041D01*
X117589848Y-135018702D01*
X117772483Y-135143220D01*
X117772485Y-135143221D01*
X118015539Y-135260269D01*
X118015537Y-135260269D01*
X118273337Y-135339790D01*
X118273343Y-135339792D01*
X118540101Y-135379999D01*
X118540110Y-135380000D01*
X118809890Y-135380000D01*
X118809898Y-135379999D01*
X119076656Y-135339792D01*
X119076662Y-135339790D01*
X119334461Y-135260269D01*
X119577521Y-135143218D01*
X119760150Y-135018702D01*
X118922534Y-134181086D01*
X118990629Y-134154126D01*
X119123492Y-134057595D01*
X119228175Y-133931055D01*
X119276631Y-133828079D01*
X120112703Y-134664151D01*
X120112704Y-134664150D01*
X120166393Y-134596828D01*
X120166400Y-134596817D01*
X120301290Y-134363181D01*
X120399851Y-134112052D01*
X120399857Y-134112033D01*
X120459886Y-133849028D01*
X120459886Y-133849026D01*
X120480047Y-133580004D01*
X121861429Y-133580004D01*
X121881683Y-133850289D01*
X121881684Y-133850294D01*
X121941997Y-134114545D01*
X121941999Y-134114554D01*
X121942001Y-134114559D01*
X122041029Y-134366879D01*
X122176557Y-134601621D01*
X122345558Y-134813542D01*
X122544257Y-134997907D01*
X122768215Y-135150599D01*
X123012428Y-135268206D01*
X123271442Y-135348101D01*
X123271443Y-135348101D01*
X123271446Y-135348102D01*
X123539464Y-135388499D01*
X123539469Y-135388499D01*
X123539472Y-135388500D01*
X123539473Y-135388500D01*
X123810527Y-135388500D01*
X123810528Y-135388500D01*
X123853726Y-135381989D01*
X124078553Y-135348102D01*
X124078554Y-135348101D01*
X124078558Y-135348101D01*
X124337572Y-135268206D01*
X124581786Y-135150599D01*
X124805743Y-134997907D01*
X125004442Y-134813542D01*
X125173443Y-134601621D01*
X125308971Y-134366879D01*
X125407999Y-134114559D01*
X125468315Y-133850299D01*
X125468410Y-133849028D01*
X125488571Y-133580004D01*
X126861429Y-133580004D01*
X126881683Y-133850289D01*
X126881684Y-133850294D01*
X126941997Y-134114545D01*
X126941999Y-134114554D01*
X126942001Y-134114559D01*
X127041029Y-134366879D01*
X127176557Y-134601621D01*
X127345558Y-134813542D01*
X127544257Y-134997907D01*
X127768215Y-135150599D01*
X128012428Y-135268206D01*
X128271442Y-135348101D01*
X128271443Y-135348101D01*
X128271446Y-135348102D01*
X128539464Y-135388499D01*
X128539469Y-135388499D01*
X128539472Y-135388500D01*
X128539473Y-135388500D01*
X128810527Y-135388500D01*
X128810528Y-135388500D01*
X128853726Y-135381989D01*
X129078553Y-135348102D01*
X129078554Y-135348101D01*
X129078558Y-135348101D01*
X129337572Y-135268206D01*
X129581786Y-135150599D01*
X129805743Y-134997907D01*
X130004442Y-134813542D01*
X130173443Y-134601621D01*
X130308971Y-134366879D01*
X130407999Y-134114559D01*
X130468315Y-133850299D01*
X130468410Y-133849028D01*
X130488571Y-133580004D01*
X131869953Y-133580004D01*
X131890113Y-133849026D01*
X131890113Y-133849028D01*
X131950142Y-134112033D01*
X131950148Y-134112052D01*
X132048709Y-134363181D01*
X132048708Y-134363181D01*
X132183602Y-134596822D01*
X132237294Y-134664151D01*
X133072452Y-133828992D01*
X133082188Y-133858956D01*
X133170186Y-133997619D01*
X133289903Y-134110040D01*
X133424510Y-134184041D01*
X132589848Y-135018702D01*
X132772483Y-135143220D01*
X132772485Y-135143221D01*
X133015539Y-135260269D01*
X133015537Y-135260269D01*
X133273337Y-135339790D01*
X133273343Y-135339792D01*
X133540101Y-135379999D01*
X133540110Y-135380000D01*
X133809890Y-135380000D01*
X133809898Y-135379999D01*
X134076656Y-135339792D01*
X134076662Y-135339790D01*
X134334461Y-135260269D01*
X134577521Y-135143218D01*
X134760150Y-135018702D01*
X133922534Y-134181086D01*
X133990629Y-134154126D01*
X134123492Y-134057595D01*
X134228175Y-133931055D01*
X134276631Y-133828079D01*
X135112703Y-134664151D01*
X135112704Y-134664150D01*
X135166393Y-134596828D01*
X135166400Y-134596817D01*
X135301290Y-134363181D01*
X135399851Y-134112052D01*
X135399857Y-134112033D01*
X135459886Y-133849028D01*
X135459886Y-133849026D01*
X135480047Y-133580004D01*
X136861429Y-133580004D01*
X136881683Y-133850289D01*
X136881684Y-133850294D01*
X136941997Y-134114545D01*
X136941999Y-134114554D01*
X136942001Y-134114559D01*
X137041029Y-134366879D01*
X137176557Y-134601621D01*
X137345558Y-134813542D01*
X137544257Y-134997907D01*
X137768215Y-135150599D01*
X138012428Y-135268206D01*
X138271442Y-135348101D01*
X138271443Y-135348101D01*
X138271446Y-135348102D01*
X138539464Y-135388499D01*
X138539469Y-135388499D01*
X138539472Y-135388500D01*
X138539473Y-135388500D01*
X138810527Y-135388500D01*
X138810528Y-135388500D01*
X138853726Y-135381989D01*
X139078553Y-135348102D01*
X139078554Y-135348101D01*
X139078558Y-135348101D01*
X139337572Y-135268206D01*
X139581786Y-135150599D01*
X139805743Y-134997907D01*
X140004442Y-134813542D01*
X140173443Y-134601621D01*
X140308971Y-134366879D01*
X140407999Y-134114559D01*
X140468315Y-133850299D01*
X140468410Y-133849028D01*
X140488571Y-133580004D01*
X141861429Y-133580004D01*
X141881683Y-133850289D01*
X141881684Y-133850294D01*
X141941997Y-134114545D01*
X141941999Y-134114554D01*
X141942001Y-134114559D01*
X142041029Y-134366879D01*
X142176557Y-134601621D01*
X142345558Y-134813542D01*
X142544257Y-134997907D01*
X142768215Y-135150599D01*
X143012428Y-135268206D01*
X143271442Y-135348101D01*
X143271443Y-135348101D01*
X143271446Y-135348102D01*
X143539464Y-135388499D01*
X143539469Y-135388499D01*
X143539472Y-135388500D01*
X143539473Y-135388500D01*
X143810527Y-135388500D01*
X143810528Y-135388500D01*
X143853726Y-135381989D01*
X144078553Y-135348102D01*
X144078554Y-135348101D01*
X144078558Y-135348101D01*
X144337572Y-135268206D01*
X144581786Y-135150599D01*
X144805743Y-134997907D01*
X144880380Y-134928654D01*
X156866500Y-134928654D01*
X156873011Y-134989202D01*
X156873011Y-134989204D01*
X156884014Y-135018702D01*
X156924111Y-135126204D01*
X157011739Y-135243261D01*
X157128796Y-135330889D01*
X157243949Y-135373839D01*
X157260463Y-135379999D01*
X157265799Y-135381989D01*
X157293050Y-135384918D01*
X157326345Y-135388499D01*
X157326362Y-135388500D01*
X160023638Y-135388500D01*
X160023654Y-135388499D01*
X160050692Y-135385591D01*
X160084201Y-135381989D01*
X160089537Y-135379999D01*
X160098768Y-135376555D01*
X160221204Y-135330889D01*
X160338261Y-135243261D01*
X160425889Y-135126204D01*
X160476989Y-134989201D01*
X160480591Y-134955692D01*
X160483499Y-134928654D01*
X160483500Y-134928637D01*
X160483500Y-133580004D01*
X161861429Y-133580004D01*
X161881683Y-133850289D01*
X161881684Y-133850294D01*
X161941997Y-134114545D01*
X161941999Y-134114554D01*
X161942001Y-134114559D01*
X162041029Y-134366879D01*
X162176557Y-134601621D01*
X162345558Y-134813542D01*
X162544257Y-134997907D01*
X162768215Y-135150599D01*
X163012428Y-135268206D01*
X163271442Y-135348101D01*
X163271443Y-135348101D01*
X163271446Y-135348102D01*
X163539464Y-135388499D01*
X163539469Y-135388499D01*
X163539472Y-135388500D01*
X163539473Y-135388500D01*
X163810527Y-135388500D01*
X163810528Y-135388500D01*
X163853726Y-135381989D01*
X164078553Y-135348102D01*
X164078554Y-135348101D01*
X164078558Y-135348101D01*
X164337572Y-135268206D01*
X164581786Y-135150599D01*
X164805743Y-134997907D01*
X165004442Y-134813542D01*
X165173443Y-134601621D01*
X165308971Y-134366879D01*
X165407999Y-134114559D01*
X165468315Y-133850299D01*
X165468410Y-133849028D01*
X165488571Y-133580004D01*
X166869953Y-133580004D01*
X166890113Y-133849026D01*
X166890113Y-133849028D01*
X166950142Y-134112033D01*
X166950148Y-134112052D01*
X167048709Y-134363181D01*
X167048708Y-134363181D01*
X167183602Y-134596822D01*
X167237294Y-134664151D01*
X167237295Y-134664151D01*
X168072452Y-133828993D01*
X168082188Y-133858956D01*
X168170186Y-133997619D01*
X168289903Y-134110040D01*
X168424510Y-134184041D01*
X167589848Y-135018702D01*
X167772483Y-135143220D01*
X167772485Y-135143221D01*
X168015539Y-135260269D01*
X168015537Y-135260269D01*
X168273337Y-135339790D01*
X168273343Y-135339792D01*
X168540101Y-135379999D01*
X168540110Y-135380000D01*
X168809890Y-135380000D01*
X168809898Y-135379999D01*
X169076656Y-135339792D01*
X169076662Y-135339790D01*
X169334461Y-135260269D01*
X169577521Y-135143218D01*
X169760150Y-135018702D01*
X168922534Y-134181086D01*
X168990629Y-134154126D01*
X169123492Y-134057595D01*
X169228175Y-133931055D01*
X169276631Y-133828079D01*
X170112703Y-134664151D01*
X170112704Y-134664150D01*
X170166393Y-134596828D01*
X170166400Y-134596817D01*
X170301290Y-134363181D01*
X170399851Y-134112052D01*
X170399857Y-134112033D01*
X170459886Y-133849028D01*
X170459886Y-133849026D01*
X170480047Y-133580004D01*
X171861429Y-133580004D01*
X171881683Y-133850289D01*
X171881684Y-133850294D01*
X171941997Y-134114545D01*
X171941999Y-134114554D01*
X171942001Y-134114559D01*
X172041029Y-134366879D01*
X172176557Y-134601621D01*
X172345558Y-134813542D01*
X172544257Y-134997907D01*
X172768215Y-135150599D01*
X173012428Y-135268206D01*
X173271442Y-135348101D01*
X173271443Y-135348101D01*
X173271446Y-135348102D01*
X173539464Y-135388499D01*
X173539469Y-135388499D01*
X173539472Y-135388500D01*
X173539473Y-135388500D01*
X173810527Y-135388500D01*
X173810528Y-135388500D01*
X173853726Y-135381989D01*
X174078553Y-135348102D01*
X174078554Y-135348101D01*
X174078558Y-135348101D01*
X174337572Y-135268206D01*
X174581786Y-135150599D01*
X174805743Y-134997907D01*
X175004442Y-134813542D01*
X175173443Y-134601621D01*
X175308971Y-134366879D01*
X175407999Y-134114559D01*
X175468315Y-133850299D01*
X175468410Y-133849028D01*
X175488571Y-133580004D01*
X176861429Y-133580004D01*
X176881683Y-133850289D01*
X176881684Y-133850294D01*
X176941997Y-134114545D01*
X176941999Y-134114554D01*
X176942001Y-134114559D01*
X177041029Y-134366879D01*
X177176557Y-134601621D01*
X177345558Y-134813542D01*
X177544257Y-134997907D01*
X177768215Y-135150599D01*
X178012428Y-135268206D01*
X178271442Y-135348101D01*
X178271443Y-135348101D01*
X178271446Y-135348102D01*
X178539464Y-135388499D01*
X178539469Y-135388499D01*
X178539472Y-135388500D01*
X178539473Y-135388500D01*
X178810527Y-135388500D01*
X178810528Y-135388500D01*
X178853726Y-135381989D01*
X179078553Y-135348102D01*
X179078554Y-135348101D01*
X179078558Y-135348101D01*
X179337572Y-135268206D01*
X179581786Y-135150599D01*
X179805743Y-134997907D01*
X180004442Y-134813542D01*
X180173443Y-134601621D01*
X180308971Y-134366879D01*
X180407999Y-134114559D01*
X180468315Y-133850299D01*
X180468410Y-133849028D01*
X180488571Y-133580004D01*
X181869953Y-133580004D01*
X181890113Y-133849026D01*
X181890113Y-133849028D01*
X181950142Y-134112033D01*
X181950148Y-134112052D01*
X182048709Y-134363181D01*
X182048708Y-134363181D01*
X182183602Y-134596822D01*
X182237294Y-134664151D01*
X183072452Y-133828992D01*
X183082188Y-133858956D01*
X183170186Y-133997619D01*
X183289903Y-134110040D01*
X183424510Y-134184041D01*
X182589848Y-135018702D01*
X182772483Y-135143220D01*
X182772485Y-135143221D01*
X183015539Y-135260269D01*
X183015537Y-135260269D01*
X183273337Y-135339790D01*
X183273343Y-135339792D01*
X183540101Y-135379999D01*
X183540110Y-135380000D01*
X183809890Y-135380000D01*
X183809898Y-135379999D01*
X184076656Y-135339792D01*
X184076662Y-135339790D01*
X184334461Y-135260269D01*
X184577521Y-135143218D01*
X184760150Y-135018702D01*
X183922534Y-134181086D01*
X183990629Y-134154126D01*
X184123492Y-134057595D01*
X184228175Y-133931055D01*
X184276631Y-133828079D01*
X185112703Y-134664151D01*
X185112704Y-134664150D01*
X185166393Y-134596828D01*
X185166400Y-134596817D01*
X185301290Y-134363181D01*
X185399851Y-134112052D01*
X185399857Y-134112033D01*
X185459886Y-133849028D01*
X185459886Y-133849026D01*
X185480047Y-133580004D01*
X186861429Y-133580004D01*
X186881683Y-133850289D01*
X186881684Y-133850294D01*
X186941997Y-134114545D01*
X186941999Y-134114554D01*
X186942001Y-134114559D01*
X187041029Y-134366879D01*
X187176557Y-134601621D01*
X187345558Y-134813542D01*
X187544257Y-134997907D01*
X187768215Y-135150599D01*
X188012428Y-135268206D01*
X188271442Y-135348101D01*
X188271443Y-135348101D01*
X188271446Y-135348102D01*
X188539464Y-135388499D01*
X188539469Y-135388499D01*
X188539472Y-135388500D01*
X188539473Y-135388500D01*
X188810527Y-135388500D01*
X188810528Y-135388500D01*
X188853726Y-135381989D01*
X189078553Y-135348102D01*
X189078554Y-135348101D01*
X189078558Y-135348101D01*
X189337572Y-135268206D01*
X189581786Y-135150599D01*
X189805743Y-134997907D01*
X190004442Y-134813542D01*
X190173443Y-134601621D01*
X190308971Y-134366879D01*
X190407999Y-134114559D01*
X190468315Y-133850299D01*
X190468410Y-133849028D01*
X190488571Y-133580004D01*
X191861429Y-133580004D01*
X191881683Y-133850289D01*
X191881684Y-133850294D01*
X191941997Y-134114545D01*
X191941999Y-134114554D01*
X191942001Y-134114559D01*
X192041029Y-134366879D01*
X192176557Y-134601621D01*
X192345558Y-134813542D01*
X192544257Y-134997907D01*
X192768215Y-135150599D01*
X193012428Y-135268206D01*
X193271442Y-135348101D01*
X193271443Y-135348101D01*
X193271446Y-135348102D01*
X193539464Y-135388499D01*
X193539469Y-135388499D01*
X193539472Y-135388500D01*
X193539473Y-135388500D01*
X193810527Y-135388500D01*
X193810528Y-135388500D01*
X193853726Y-135381989D01*
X194078553Y-135348102D01*
X194078554Y-135348101D01*
X194078558Y-135348101D01*
X194337572Y-135268206D01*
X194581786Y-135150599D01*
X194805743Y-134997907D01*
X195004442Y-134813542D01*
X195173443Y-134601621D01*
X195308971Y-134366879D01*
X195407999Y-134114559D01*
X195468315Y-133850299D01*
X195468410Y-133849028D01*
X195488571Y-133580004D01*
X195488571Y-133579995D01*
X195468316Y-133309710D01*
X195468315Y-133309705D01*
X195468315Y-133309701D01*
X195407999Y-133045441D01*
X195308971Y-132793121D01*
X195173443Y-132558379D01*
X195004442Y-132346458D01*
X194805743Y-132162093D01*
X194581786Y-132009401D01*
X194581780Y-132009398D01*
X194581779Y-132009397D01*
X194581778Y-132009396D01*
X194337574Y-131891795D01*
X194337576Y-131891795D01*
X194078559Y-131811899D01*
X194078553Y-131811897D01*
X193810535Y-131771500D01*
X193810528Y-131771500D01*
X193539472Y-131771500D01*
X193539464Y-131771500D01*
X193271446Y-131811897D01*
X193271440Y-131811899D01*
X193012427Y-131891794D01*
X192768219Y-132009398D01*
X192544256Y-132162093D01*
X192345560Y-132346456D01*
X192345558Y-132346458D01*
X192176557Y-132558379D01*
X192041029Y-132793120D01*
X191942003Y-133045435D01*
X191941997Y-133045454D01*
X191881684Y-133309705D01*
X191881683Y-133309710D01*
X191861429Y-133579995D01*
X191861429Y-133580004D01*
X190488571Y-133580004D01*
X190488571Y-133579995D01*
X190468316Y-133309710D01*
X190468315Y-133309705D01*
X190468315Y-133309701D01*
X190407999Y-133045441D01*
X190308971Y-132793121D01*
X190173443Y-132558379D01*
X190004442Y-132346458D01*
X189805743Y-132162093D01*
X189581786Y-132009401D01*
X189581780Y-132009398D01*
X189581779Y-132009397D01*
X189581778Y-132009396D01*
X189337574Y-131891795D01*
X189337576Y-131891795D01*
X189078559Y-131811899D01*
X189078553Y-131811897D01*
X188810535Y-131771500D01*
X188810528Y-131771500D01*
X188539472Y-131771500D01*
X188539464Y-131771500D01*
X188271446Y-131811897D01*
X188271440Y-131811899D01*
X188012427Y-131891794D01*
X187768219Y-132009398D01*
X187544256Y-132162093D01*
X187345560Y-132346456D01*
X187345558Y-132346458D01*
X187176557Y-132558379D01*
X187041029Y-132793120D01*
X186942003Y-133045435D01*
X186941997Y-133045454D01*
X186881684Y-133309705D01*
X186881683Y-133309710D01*
X186861429Y-133579995D01*
X186861429Y-133580004D01*
X185480047Y-133580004D01*
X185480047Y-133579995D01*
X185459886Y-133310973D01*
X185459886Y-133310971D01*
X185399857Y-133047966D01*
X185399851Y-133047947D01*
X185301290Y-132796818D01*
X185301291Y-132796818D01*
X185166397Y-132563177D01*
X185112704Y-132495847D01*
X184277546Y-133331004D01*
X184267812Y-133301044D01*
X184179814Y-133162381D01*
X184060097Y-133049960D01*
X183925489Y-132975958D01*
X184760150Y-132141296D01*
X184577517Y-132016779D01*
X184577516Y-132016778D01*
X184334460Y-131899730D01*
X184334462Y-131899730D01*
X184076662Y-131820209D01*
X184076656Y-131820207D01*
X183809898Y-131780000D01*
X183540101Y-131780000D01*
X183273343Y-131820207D01*
X183273337Y-131820209D01*
X183015538Y-131899730D01*
X182772485Y-132016778D01*
X182772476Y-132016783D01*
X182589848Y-132141296D01*
X183427465Y-132978913D01*
X183359371Y-133005874D01*
X183226508Y-133102405D01*
X183121825Y-133228945D01*
X183073368Y-133331921D01*
X182237295Y-132495848D01*
X182183600Y-132563180D01*
X182048709Y-132796818D01*
X181950148Y-133047947D01*
X181950142Y-133047966D01*
X181890113Y-133310971D01*
X181890113Y-133310973D01*
X181869953Y-133579995D01*
X181869953Y-133580004D01*
X180488571Y-133580004D01*
X180488571Y-133579995D01*
X180468316Y-133309710D01*
X180468315Y-133309705D01*
X180468315Y-133309701D01*
X180407999Y-133045441D01*
X180308971Y-132793121D01*
X180173443Y-132558379D01*
X180004442Y-132346458D01*
X179805743Y-132162093D01*
X179581786Y-132009401D01*
X179581780Y-132009398D01*
X179581779Y-132009397D01*
X179581778Y-132009396D01*
X179337574Y-131891795D01*
X179337576Y-131891795D01*
X179078559Y-131811899D01*
X179078553Y-131811897D01*
X178810535Y-131771500D01*
X178810528Y-131771500D01*
X178539472Y-131771500D01*
X178539464Y-131771500D01*
X178271446Y-131811897D01*
X178271440Y-131811899D01*
X178012427Y-131891794D01*
X177768219Y-132009398D01*
X177544256Y-132162093D01*
X177345560Y-132346456D01*
X177345558Y-132346458D01*
X177176557Y-132558379D01*
X177041029Y-132793120D01*
X176942003Y-133045435D01*
X176941997Y-133045454D01*
X176881684Y-133309705D01*
X176881683Y-133309710D01*
X176861429Y-133579995D01*
X176861429Y-133580004D01*
X175488571Y-133580004D01*
X175488571Y-133579995D01*
X175468316Y-133309710D01*
X175468315Y-133309705D01*
X175468315Y-133309701D01*
X175407999Y-133045441D01*
X175308971Y-132793121D01*
X175173443Y-132558379D01*
X175004442Y-132346458D01*
X174805743Y-132162093D01*
X174581786Y-132009401D01*
X174581780Y-132009398D01*
X174581779Y-132009397D01*
X174581778Y-132009396D01*
X174337574Y-131891795D01*
X174337576Y-131891795D01*
X174078559Y-131811899D01*
X174078553Y-131811897D01*
X173810535Y-131771500D01*
X173810528Y-131771500D01*
X173539472Y-131771500D01*
X173539464Y-131771500D01*
X173271446Y-131811897D01*
X173271440Y-131811899D01*
X173012427Y-131891794D01*
X172768219Y-132009398D01*
X172544256Y-132162093D01*
X172345560Y-132346456D01*
X172345558Y-132346458D01*
X172176557Y-132558379D01*
X172041029Y-132793120D01*
X171942003Y-133045435D01*
X171941997Y-133045454D01*
X171881684Y-133309705D01*
X171881683Y-133309710D01*
X171861429Y-133579995D01*
X171861429Y-133580004D01*
X170480047Y-133580004D01*
X170480047Y-133579995D01*
X170459886Y-133310973D01*
X170459886Y-133310971D01*
X170399857Y-133047966D01*
X170399851Y-133047947D01*
X170301290Y-132796818D01*
X170301291Y-132796818D01*
X170166397Y-132563177D01*
X170112704Y-132495847D01*
X169277546Y-133331004D01*
X169267812Y-133301044D01*
X169179814Y-133162381D01*
X169060097Y-133049960D01*
X168925489Y-132975958D01*
X169760150Y-132141296D01*
X169577517Y-132016779D01*
X169577516Y-132016778D01*
X169334460Y-131899730D01*
X169334462Y-131899730D01*
X169076662Y-131820209D01*
X169076656Y-131820207D01*
X168809898Y-131780000D01*
X168540101Y-131780000D01*
X168273343Y-131820207D01*
X168273337Y-131820209D01*
X168015538Y-131899730D01*
X167772485Y-132016778D01*
X167772476Y-132016783D01*
X167589848Y-132141296D01*
X168427465Y-132978913D01*
X168359371Y-133005874D01*
X168226508Y-133102405D01*
X168121825Y-133228945D01*
X168073368Y-133331921D01*
X167237295Y-132495848D01*
X167183600Y-132563180D01*
X167048709Y-132796818D01*
X166950148Y-133047947D01*
X166950142Y-133047966D01*
X166890113Y-133310971D01*
X166890113Y-133310973D01*
X166869953Y-133579995D01*
X166869953Y-133580004D01*
X165488571Y-133580004D01*
X165488571Y-133579995D01*
X165468316Y-133309710D01*
X165468315Y-133309705D01*
X165468315Y-133309701D01*
X165407999Y-133045441D01*
X165308971Y-132793121D01*
X165173443Y-132558379D01*
X165004442Y-132346458D01*
X164805743Y-132162093D01*
X164581786Y-132009401D01*
X164581780Y-132009398D01*
X164581779Y-132009397D01*
X164581778Y-132009396D01*
X164337574Y-131891795D01*
X164337576Y-131891795D01*
X164078559Y-131811899D01*
X164078553Y-131811897D01*
X163810535Y-131771500D01*
X163810528Y-131771500D01*
X163539472Y-131771500D01*
X163539464Y-131771500D01*
X163271446Y-131811897D01*
X163271440Y-131811899D01*
X163012427Y-131891794D01*
X162768219Y-132009398D01*
X162544256Y-132162093D01*
X162345560Y-132346456D01*
X162345558Y-132346458D01*
X162176557Y-132558379D01*
X162041029Y-132793120D01*
X161942003Y-133045435D01*
X161941997Y-133045454D01*
X161881684Y-133309705D01*
X161881683Y-133309710D01*
X161861429Y-133579995D01*
X161861429Y-133580004D01*
X160483500Y-133580004D01*
X160483500Y-132231362D01*
X160483499Y-132231345D01*
X160480157Y-132200270D01*
X160476989Y-132170799D01*
X160425889Y-132033796D01*
X160338261Y-131916739D01*
X160221204Y-131829111D01*
X160197332Y-131820207D01*
X160084203Y-131778011D01*
X160023654Y-131771500D01*
X160023638Y-131771500D01*
X157326362Y-131771500D01*
X157326345Y-131771500D01*
X157265797Y-131778011D01*
X157265795Y-131778011D01*
X157128795Y-131829111D01*
X157011739Y-131916739D01*
X156924111Y-132033795D01*
X156873011Y-132170795D01*
X156873011Y-132170797D01*
X156866500Y-132231345D01*
X156866500Y-134928654D01*
X144880380Y-134928654D01*
X145004442Y-134813542D01*
X145173443Y-134601621D01*
X145308971Y-134366879D01*
X145407999Y-134114559D01*
X145468315Y-133850299D01*
X145468410Y-133849028D01*
X145488571Y-133580004D01*
X145488571Y-133579995D01*
X145468316Y-133309710D01*
X145468315Y-133309705D01*
X145468315Y-133309701D01*
X145407999Y-133045441D01*
X145308971Y-132793121D01*
X145173443Y-132558379D01*
X145004442Y-132346458D01*
X144805743Y-132162093D01*
X144581786Y-132009401D01*
X144581780Y-132009398D01*
X144581779Y-132009397D01*
X144581778Y-132009396D01*
X144337574Y-131891795D01*
X144337576Y-131891795D01*
X144078559Y-131811899D01*
X144078553Y-131811897D01*
X143810535Y-131771500D01*
X143810528Y-131771500D01*
X143539472Y-131771500D01*
X143539464Y-131771500D01*
X143271446Y-131811897D01*
X143271440Y-131811899D01*
X143012427Y-131891794D01*
X142768219Y-132009398D01*
X142544256Y-132162093D01*
X142345560Y-132346456D01*
X142345558Y-132346458D01*
X142176557Y-132558379D01*
X142041029Y-132793120D01*
X141942003Y-133045435D01*
X141941997Y-133045454D01*
X141881684Y-133309705D01*
X141881683Y-133309710D01*
X141861429Y-133579995D01*
X141861429Y-133580004D01*
X140488571Y-133580004D01*
X140488571Y-133579995D01*
X140468316Y-133309710D01*
X140468315Y-133309705D01*
X140468315Y-133309701D01*
X140407999Y-133045441D01*
X140308971Y-132793121D01*
X140173443Y-132558379D01*
X140004442Y-132346458D01*
X139805743Y-132162093D01*
X139581786Y-132009401D01*
X139581780Y-132009398D01*
X139581779Y-132009397D01*
X139581778Y-132009396D01*
X139337574Y-131891795D01*
X139337576Y-131891795D01*
X139078559Y-131811899D01*
X139078553Y-131811897D01*
X138810535Y-131771500D01*
X138810528Y-131771500D01*
X138539472Y-131771500D01*
X138539464Y-131771500D01*
X138271446Y-131811897D01*
X138271440Y-131811899D01*
X138012427Y-131891794D01*
X137768219Y-132009398D01*
X137544256Y-132162093D01*
X137345560Y-132346456D01*
X137345558Y-132346458D01*
X137176557Y-132558379D01*
X137041029Y-132793120D01*
X136942003Y-133045435D01*
X136941997Y-133045454D01*
X136881684Y-133309705D01*
X136881683Y-133309710D01*
X136861429Y-133579995D01*
X136861429Y-133580004D01*
X135480047Y-133580004D01*
X135480047Y-133579995D01*
X135459886Y-133310973D01*
X135459886Y-133310971D01*
X135399857Y-133047966D01*
X135399851Y-133047947D01*
X135301290Y-132796818D01*
X135301291Y-132796818D01*
X135166397Y-132563177D01*
X135112704Y-132495847D01*
X134277546Y-133331004D01*
X134267812Y-133301044D01*
X134179814Y-133162381D01*
X134060097Y-133049960D01*
X133925489Y-132975958D01*
X134760150Y-132141296D01*
X134577517Y-132016779D01*
X134577516Y-132016778D01*
X134334460Y-131899730D01*
X134334462Y-131899730D01*
X134076662Y-131820209D01*
X134076656Y-131820207D01*
X133809898Y-131780000D01*
X133540101Y-131780000D01*
X133273343Y-131820207D01*
X133273337Y-131820209D01*
X133015538Y-131899730D01*
X132772485Y-132016778D01*
X132772476Y-132016783D01*
X132589848Y-132141296D01*
X133427465Y-132978913D01*
X133359371Y-133005874D01*
X133226508Y-133102405D01*
X133121825Y-133228945D01*
X133073368Y-133331921D01*
X132237295Y-132495848D01*
X132183600Y-132563180D01*
X132048709Y-132796818D01*
X131950148Y-133047947D01*
X131950142Y-133047966D01*
X131890113Y-133310971D01*
X131890113Y-133310973D01*
X131869953Y-133579995D01*
X131869953Y-133580004D01*
X130488571Y-133580004D01*
X130488571Y-133579995D01*
X130468316Y-133309710D01*
X130468315Y-133309705D01*
X130468315Y-133309701D01*
X130407999Y-133045441D01*
X130308971Y-132793121D01*
X130173443Y-132558379D01*
X130004442Y-132346458D01*
X129805743Y-132162093D01*
X129581786Y-132009401D01*
X129581780Y-132009398D01*
X129581779Y-132009397D01*
X129581778Y-132009396D01*
X129337574Y-131891795D01*
X129337576Y-131891795D01*
X129078559Y-131811899D01*
X129078553Y-131811897D01*
X128810535Y-131771500D01*
X128810528Y-131771500D01*
X128539472Y-131771500D01*
X128539464Y-131771500D01*
X128271446Y-131811897D01*
X128271440Y-131811899D01*
X128012427Y-131891794D01*
X127768219Y-132009398D01*
X127544256Y-132162093D01*
X127345560Y-132346456D01*
X127345558Y-132346458D01*
X127176557Y-132558379D01*
X127041029Y-132793120D01*
X126942003Y-133045435D01*
X126941997Y-133045454D01*
X126881684Y-133309705D01*
X126881683Y-133309710D01*
X126861429Y-133579995D01*
X126861429Y-133580004D01*
X125488571Y-133580004D01*
X125488571Y-133579995D01*
X125468316Y-133309710D01*
X125468315Y-133309705D01*
X125468315Y-133309701D01*
X125407999Y-133045441D01*
X125308971Y-132793121D01*
X125173443Y-132558379D01*
X125004442Y-132346458D01*
X124805743Y-132162093D01*
X124581786Y-132009401D01*
X124581780Y-132009398D01*
X124581779Y-132009397D01*
X124581778Y-132009396D01*
X124337574Y-131891795D01*
X124337576Y-131891795D01*
X124078559Y-131811899D01*
X124078553Y-131811897D01*
X123810535Y-131771500D01*
X123810528Y-131771500D01*
X123539472Y-131771500D01*
X123539464Y-131771500D01*
X123271446Y-131811897D01*
X123271440Y-131811899D01*
X123012427Y-131891794D01*
X122768219Y-132009398D01*
X122544256Y-132162093D01*
X122345560Y-132346456D01*
X122345558Y-132346458D01*
X122176557Y-132558379D01*
X122041029Y-132793120D01*
X121942003Y-133045435D01*
X121941997Y-133045454D01*
X121881684Y-133309705D01*
X121881683Y-133309710D01*
X121861429Y-133579995D01*
X121861429Y-133580004D01*
X120480047Y-133580004D01*
X120480047Y-133579995D01*
X120459886Y-133310973D01*
X120459886Y-133310971D01*
X120399857Y-133047966D01*
X120399851Y-133047947D01*
X120301290Y-132796818D01*
X120301291Y-132796818D01*
X120166397Y-132563177D01*
X120112704Y-132495847D01*
X119277546Y-133331004D01*
X119267812Y-133301044D01*
X119179814Y-133162381D01*
X119060097Y-133049960D01*
X118925489Y-132975958D01*
X119760150Y-132141296D01*
X119577517Y-132016779D01*
X119577516Y-132016778D01*
X119334460Y-131899730D01*
X119334462Y-131899730D01*
X119076662Y-131820209D01*
X119076656Y-131820207D01*
X118809898Y-131780000D01*
X118540101Y-131780000D01*
X118273343Y-131820207D01*
X118273337Y-131820209D01*
X118015538Y-131899730D01*
X117772485Y-132016778D01*
X117772476Y-132016783D01*
X117589848Y-132141296D01*
X118427465Y-132978913D01*
X118359371Y-133005874D01*
X118226508Y-133102405D01*
X118121825Y-133228945D01*
X118073368Y-133331921D01*
X117237295Y-132495848D01*
X117183600Y-132563180D01*
X117048709Y-132796818D01*
X116950148Y-133047947D01*
X116950142Y-133047966D01*
X116890113Y-133310971D01*
X116890113Y-133310973D01*
X116869953Y-133579995D01*
X116869953Y-133580004D01*
X115488571Y-133580004D01*
X115488571Y-133579995D01*
X115468316Y-133309710D01*
X115468315Y-133309705D01*
X115468315Y-133309701D01*
X115407999Y-133045441D01*
X115308971Y-132793121D01*
X115173443Y-132558379D01*
X115004442Y-132346458D01*
X114805743Y-132162093D01*
X114581786Y-132009401D01*
X114581780Y-132009398D01*
X114581779Y-132009397D01*
X114581778Y-132009396D01*
X114337574Y-131891795D01*
X114337576Y-131891795D01*
X114078559Y-131811899D01*
X114078553Y-131811897D01*
X113810535Y-131771500D01*
X113810528Y-131771500D01*
X113539472Y-131771500D01*
X113539464Y-131771500D01*
X113271446Y-131811897D01*
X113271440Y-131811899D01*
X113012427Y-131891794D01*
X112768219Y-132009398D01*
X112544256Y-132162093D01*
X112345560Y-132346456D01*
X112345558Y-132346458D01*
X112176557Y-132558379D01*
X112041029Y-132793120D01*
X111942003Y-133045435D01*
X111941997Y-133045454D01*
X111881684Y-133309705D01*
X111881683Y-133309710D01*
X111861429Y-133579995D01*
X111861429Y-133580004D01*
X110483500Y-133580004D01*
X110483500Y-132231362D01*
X110483499Y-132231345D01*
X110480157Y-132200270D01*
X110476989Y-132170799D01*
X110425889Y-132033796D01*
X110338261Y-131916739D01*
X110221204Y-131829111D01*
X110197332Y-131820207D01*
X110084203Y-131778011D01*
X110023654Y-131771500D01*
X110023638Y-131771500D01*
X107326362Y-131771500D01*
X107326345Y-131771500D01*
X107265797Y-131778011D01*
X107265795Y-131778011D01*
X107128795Y-131829111D01*
X107011739Y-131916739D01*
X106924111Y-132033795D01*
X106873011Y-132170795D01*
X106873011Y-132170797D01*
X106866500Y-132231345D01*
X106866500Y-134928654D01*
X101400000Y-134928654D01*
X101400000Y-129006092D01*
X101400597Y-128993938D01*
X101418018Y-128817056D01*
X101422757Y-128793232D01*
X101472577Y-128628994D01*
X101481876Y-128606546D01*
X101496578Y-128579043D01*
X101545541Y-128529201D01*
X101605934Y-128513500D01*
X190875990Y-128513500D01*
X190876000Y-128513500D01*
X190985157Y-128501764D01*
X191036668Y-128490558D01*
X191071440Y-128478984D01*
X191140820Y-128455893D01*
X191140824Y-128455890D01*
X191140827Y-128455890D01*
X191263782Y-128376871D01*
X191316586Y-128331116D01*
X191412297Y-128220661D01*
X191473014Y-128087713D01*
X191492699Y-128020674D01*
X191492700Y-128020670D01*
X191513500Y-127876000D01*
X191513500Y-109224000D01*
X191501764Y-109114843D01*
X191490558Y-109063332D01*
X191490453Y-109063017D01*
X191455893Y-108959179D01*
X191455890Y-108959174D01*
X191455890Y-108959173D01*
X191383236Y-108846122D01*
X191363552Y-108779086D01*
X191375457Y-108726069D01*
X191392534Y-108689963D01*
X191401836Y-108667506D01*
X191418813Y-108620058D01*
X191468629Y-108455835D01*
X191480874Y-108406948D01*
X191485616Y-108383107D01*
X191493009Y-108333267D01*
X191510430Y-108156394D01*
X191512285Y-108131254D01*
X191512882Y-108119100D01*
X191513500Y-108093907D01*
X191513500Y-85500000D01*
X191806496Y-85500000D01*
X191826458Y-85689928D01*
X191826459Y-85689931D01*
X191885470Y-85871549D01*
X191885473Y-85871556D01*
X191980960Y-86036944D01*
X192108747Y-86178866D01*
X192263248Y-86291118D01*
X192437712Y-86368794D01*
X192624513Y-86408500D01*
X192815487Y-86408500D01*
X193002288Y-86368794D01*
X193176752Y-86291118D01*
X193331253Y-86178866D01*
X193459040Y-86036944D01*
X193554527Y-85871556D01*
X193613542Y-85689928D01*
X193633504Y-85500000D01*
X193613542Y-85310072D01*
X193554527Y-85128444D01*
X193459040Y-84963056D01*
X193331253Y-84821134D01*
X193176752Y-84708882D01*
X193002288Y-84631206D01*
X193002286Y-84631205D01*
X192815487Y-84591500D01*
X192624513Y-84591500D01*
X192437714Y-84631205D01*
X192263246Y-84708883D01*
X192108745Y-84821135D01*
X191980959Y-84963057D01*
X191885473Y-85128443D01*
X191885470Y-85128450D01*
X191826459Y-85310068D01*
X191826458Y-85310072D01*
X191806496Y-85500000D01*
X191513500Y-85500000D01*
X191513500Y-68006092D01*
X191512882Y-67980899D01*
X191512285Y-67968745D01*
X191510430Y-67943605D01*
X191493009Y-67766732D01*
X191485616Y-67716892D01*
X191480874Y-67693051D01*
X191468629Y-67644164D01*
X191418813Y-67479941D01*
X191411761Y-67460232D01*
X191401842Y-67432508D01*
X191401830Y-67432477D01*
X191392536Y-67410042D01*
X191392529Y-67410024D01*
X191370988Y-67364481D01*
X191290094Y-67213139D01*
X191264189Y-67169919D01*
X191250684Y-67149707D01*
X191250670Y-67149689D01*
X191250664Y-67149679D01*
X191220678Y-67109248D01*
X191220667Y-67109234D01*
X191220663Y-67109228D01*
X191111795Y-66976572D01*
X191077953Y-66939234D01*
X191060765Y-66922046D01*
X191023427Y-66888204D01*
X190890771Y-66779336D01*
X190890758Y-66779326D01*
X190890750Y-66779320D01*
X190850318Y-66749333D01*
X190850293Y-66749316D01*
X190850284Y-66749310D01*
X190830080Y-66735810D01*
X190830070Y-66735804D01*
X190830053Y-66735793D01*
X190786861Y-66709906D01*
X190777821Y-66705074D01*
X190635514Y-66629010D01*
X190635487Y-66628997D01*
X190635476Y-66628991D01*
X190589999Y-66607481D01*
X190589980Y-66607473D01*
X190567522Y-66598169D01*
X190520055Y-66581184D01*
X190355836Y-66531369D01*
X190306959Y-66519127D01*
X190306943Y-66519123D01*
X190306934Y-66519121D01*
X190306929Y-66519120D01*
X190306912Y-66519116D01*
X190283113Y-66514383D01*
X190283086Y-66514378D01*
X190235039Y-66507253D01*
X190233272Y-66506991D01*
X190233271Y-66506990D01*
X190056399Y-66489570D01*
X190031250Y-66487714D01*
X190019109Y-66487118D01*
X190009652Y-66486886D01*
X189993907Y-66486500D01*
X126075203Y-66486500D01*
X126070942Y-66486554D01*
X126062011Y-66486669D01*
X126055666Y-66486832D01*
X126042536Y-66487337D01*
X125899128Y-66515523D01*
X125899122Y-66515524D01*
X125899120Y-66515525D01*
X125899117Y-66515525D01*
X125899117Y-66515526D01*
X125833177Y-66538618D01*
X125703523Y-66606062D01*
X125703521Y-66606064D01*
X125598112Y-66707308D01*
X125598110Y-66707310D01*
X125555133Y-66762373D01*
X125555123Y-66762386D01*
X125555110Y-66762404D01*
X125522649Y-66819108D01*
X125472258Y-66867508D01*
X125403700Y-66880982D01*
X125375771Y-66875120D01*
X125332180Y-66860568D01*
X125091782Y-66821500D01*
X125091779Y-66821500D01*
X124409203Y-66821500D01*
X124409193Y-66821500D01*
X124227231Y-66836189D01*
X124060658Y-66877246D01*
X123990855Y-66874177D01*
X123933793Y-66833857D01*
X123926668Y-66823889D01*
X123923595Y-66819108D01*
X123870325Y-66736218D01*
X123869974Y-66735813D01*
X123824574Y-66683418D01*
X123824571Y-66683415D01*
X123714118Y-66587705D01*
X123714112Y-66587701D01*
X123581170Y-66526987D01*
X123514125Y-66507300D01*
X123465900Y-66500366D01*
X123369454Y-66486500D01*
X113106093Y-66486500D01*
X113090977Y-66486870D01*
X113080890Y-66487118D01*
X113068749Y-66487714D01*
X113043601Y-66489570D01*
X112866739Y-66506989D01*
X112866719Y-66506992D01*
X112816888Y-66514382D01*
X112800924Y-66517557D01*
X112793051Y-66519124D01*
X112793047Y-66519124D01*
X112793047Y-66519125D01*
X112744158Y-66531371D01*
X112579932Y-66581188D01*
X112532480Y-66598167D01*
X112532462Y-66598174D01*
X112510019Y-66607471D01*
X112509999Y-66607480D01*
X112464509Y-66628997D01*
X112464471Y-66629016D01*
X112313154Y-66709896D01*
X112313139Y-66709905D01*
X112269926Y-66735804D01*
X112249685Y-66749329D01*
X112209254Y-66779315D01*
X112209220Y-66779342D01*
X112100000Y-66868976D01*
X112100000Y-62049020D01*
X112176557Y-62181621D01*
X112345558Y-62393542D01*
X112544257Y-62577907D01*
X112768215Y-62730599D01*
X113012428Y-62848206D01*
X113271442Y-62928101D01*
X113271443Y-62928101D01*
X113271446Y-62928102D01*
X113539464Y-62968499D01*
X113539469Y-62968499D01*
X113539472Y-62968500D01*
X113539473Y-62968500D01*
X113810527Y-62968500D01*
X113810528Y-62968500D01*
X113853726Y-62961989D01*
X114078553Y-62928102D01*
X114078554Y-62928101D01*
X114078558Y-62928101D01*
X114337572Y-62848206D01*
X114581786Y-62730599D01*
X114805743Y-62577907D01*
X115004442Y-62393542D01*
X115173443Y-62181621D01*
X115308971Y-61946879D01*
X115407999Y-61694559D01*
X115468315Y-61430299D01*
X115468410Y-61429028D01*
X115488571Y-61160004D01*
X116869953Y-61160004D01*
X116890113Y-61429026D01*
X116890113Y-61429028D01*
X116950142Y-61692033D01*
X116950148Y-61692052D01*
X117048709Y-61943181D01*
X117048708Y-61943181D01*
X117183602Y-62176822D01*
X117237294Y-62244151D01*
X118072452Y-61408992D01*
X118082188Y-61438956D01*
X118170186Y-61577619D01*
X118289903Y-61690040D01*
X118424510Y-61764041D01*
X117589848Y-62598702D01*
X117772483Y-62723220D01*
X117772485Y-62723221D01*
X118015539Y-62840269D01*
X118015537Y-62840269D01*
X118273337Y-62919790D01*
X118273343Y-62919792D01*
X118540101Y-62959999D01*
X118540110Y-62960000D01*
X118809890Y-62960000D01*
X118809898Y-62959999D01*
X119076656Y-62919792D01*
X119076662Y-62919790D01*
X119334461Y-62840269D01*
X119577521Y-62723218D01*
X119760150Y-62598702D01*
X118922534Y-61761086D01*
X118990629Y-61734126D01*
X119123492Y-61637595D01*
X119228175Y-61511055D01*
X119276631Y-61408079D01*
X120112703Y-62244151D01*
X120112704Y-62244150D01*
X120166393Y-62176828D01*
X120166400Y-62176817D01*
X120301290Y-61943181D01*
X120399851Y-61692052D01*
X120399857Y-61692033D01*
X120459886Y-61429028D01*
X120459886Y-61429026D01*
X120480047Y-61160004D01*
X121861429Y-61160004D01*
X121881683Y-61430289D01*
X121881684Y-61430294D01*
X121941997Y-61694545D01*
X121941999Y-61694554D01*
X121942001Y-61694559D01*
X122041029Y-61946879D01*
X122176557Y-62181621D01*
X122345558Y-62393542D01*
X122544257Y-62577907D01*
X122768215Y-62730599D01*
X123012428Y-62848206D01*
X123271442Y-62928101D01*
X123271443Y-62928101D01*
X123271446Y-62928102D01*
X123539464Y-62968499D01*
X123539469Y-62968499D01*
X123539472Y-62968500D01*
X123539473Y-62968500D01*
X123810527Y-62968500D01*
X123810528Y-62968500D01*
X123853726Y-62961989D01*
X124078553Y-62928102D01*
X124078554Y-62928101D01*
X124078558Y-62928101D01*
X124337572Y-62848206D01*
X124581786Y-62730599D01*
X124805743Y-62577907D01*
X125004442Y-62393542D01*
X125173443Y-62181621D01*
X125308971Y-61946879D01*
X125407999Y-61694559D01*
X125468315Y-61430299D01*
X125468410Y-61429028D01*
X125488571Y-61160004D01*
X126861429Y-61160004D01*
X126881683Y-61430289D01*
X126881684Y-61430294D01*
X126941997Y-61694545D01*
X126941999Y-61694554D01*
X126942001Y-61694559D01*
X127041029Y-61946879D01*
X127176557Y-62181621D01*
X127345558Y-62393542D01*
X127544257Y-62577907D01*
X127768215Y-62730599D01*
X128012428Y-62848206D01*
X128271442Y-62928101D01*
X128271443Y-62928101D01*
X128271446Y-62928102D01*
X128539464Y-62968499D01*
X128539469Y-62968499D01*
X128539472Y-62968500D01*
X128539473Y-62968500D01*
X128810527Y-62968500D01*
X128810528Y-62968500D01*
X128853726Y-62961989D01*
X129078553Y-62928102D01*
X129078554Y-62928101D01*
X129078558Y-62928101D01*
X129337572Y-62848206D01*
X129581786Y-62730599D01*
X129805743Y-62577907D01*
X130004442Y-62393542D01*
X130173443Y-62181621D01*
X130308971Y-61946879D01*
X130407999Y-61694559D01*
X130468315Y-61430299D01*
X130468410Y-61429028D01*
X130488571Y-61160004D01*
X131869953Y-61160004D01*
X131890113Y-61429026D01*
X131890113Y-61429028D01*
X131950142Y-61692033D01*
X131950148Y-61692052D01*
X132048709Y-61943181D01*
X132048708Y-61943181D01*
X132183602Y-62176822D01*
X132237294Y-62244151D01*
X133072452Y-61408992D01*
X133082188Y-61438956D01*
X133170186Y-61577619D01*
X133289903Y-61690040D01*
X133424510Y-61764041D01*
X132589848Y-62598702D01*
X132772483Y-62723220D01*
X132772485Y-62723221D01*
X133015539Y-62840269D01*
X133015537Y-62840269D01*
X133273337Y-62919790D01*
X133273343Y-62919792D01*
X133540101Y-62959999D01*
X133540110Y-62960000D01*
X133809890Y-62960000D01*
X133809898Y-62959999D01*
X134076656Y-62919792D01*
X134076662Y-62919790D01*
X134334461Y-62840269D01*
X134577521Y-62723218D01*
X134760150Y-62598702D01*
X133922534Y-61761086D01*
X133990629Y-61734126D01*
X134123492Y-61637595D01*
X134228175Y-61511055D01*
X134276631Y-61408079D01*
X135112703Y-62244151D01*
X135112704Y-62244150D01*
X135166393Y-62176828D01*
X135166400Y-62176817D01*
X135301290Y-61943181D01*
X135399851Y-61692052D01*
X135399857Y-61692033D01*
X135459886Y-61429028D01*
X135459886Y-61429026D01*
X135480047Y-61160004D01*
X136861429Y-61160004D01*
X136881683Y-61430289D01*
X136881684Y-61430294D01*
X136941997Y-61694545D01*
X136941999Y-61694554D01*
X136942001Y-61694559D01*
X137041029Y-61946879D01*
X137176557Y-62181621D01*
X137345558Y-62393542D01*
X137544257Y-62577907D01*
X137768215Y-62730599D01*
X138012428Y-62848206D01*
X138271442Y-62928101D01*
X138271443Y-62928101D01*
X138271446Y-62928102D01*
X138539464Y-62968499D01*
X138539469Y-62968499D01*
X138539472Y-62968500D01*
X138539473Y-62968500D01*
X138810527Y-62968500D01*
X138810528Y-62968500D01*
X138853726Y-62961989D01*
X139078553Y-62928102D01*
X139078554Y-62928101D01*
X139078558Y-62928101D01*
X139337572Y-62848206D01*
X139581786Y-62730599D01*
X139805743Y-62577907D01*
X139880380Y-62508654D01*
X141866500Y-62508654D01*
X141873011Y-62569202D01*
X141873011Y-62569204D01*
X141884014Y-62598702D01*
X141924111Y-62706204D01*
X142011739Y-62823261D01*
X142128796Y-62910889D01*
X142243949Y-62953839D01*
X142260463Y-62959999D01*
X142265799Y-62961989D01*
X142293050Y-62964918D01*
X142326345Y-62968499D01*
X142326362Y-62968500D01*
X145023638Y-62968500D01*
X145023654Y-62968499D01*
X145050692Y-62965591D01*
X145084201Y-62961989D01*
X145089537Y-62959999D01*
X145098768Y-62956555D01*
X145221204Y-62910889D01*
X145338261Y-62823261D01*
X145425889Y-62706204D01*
X145476989Y-62569201D01*
X145480591Y-62535692D01*
X145483499Y-62508654D01*
X145483500Y-62508637D01*
X145483500Y-61160004D01*
X156861429Y-61160004D01*
X156881683Y-61430289D01*
X156881684Y-61430294D01*
X156941997Y-61694545D01*
X156941999Y-61694554D01*
X156942001Y-61694559D01*
X157041029Y-61946879D01*
X157176557Y-62181621D01*
X157345558Y-62393542D01*
X157544257Y-62577907D01*
X157768215Y-62730599D01*
X158012428Y-62848206D01*
X158271442Y-62928101D01*
X158271443Y-62928101D01*
X158271446Y-62928102D01*
X158539464Y-62968499D01*
X158539469Y-62968499D01*
X158539472Y-62968500D01*
X158539473Y-62968500D01*
X158810527Y-62968500D01*
X158810528Y-62968500D01*
X158853726Y-62961989D01*
X159078553Y-62928102D01*
X159078554Y-62928101D01*
X159078558Y-62928101D01*
X159337572Y-62848206D01*
X159581786Y-62730599D01*
X159805743Y-62577907D01*
X160004442Y-62393542D01*
X160173443Y-62181621D01*
X160308971Y-61946879D01*
X160407999Y-61694559D01*
X160468315Y-61430299D01*
X160468410Y-61429028D01*
X160488571Y-61160004D01*
X161861429Y-61160004D01*
X161881683Y-61430289D01*
X161881684Y-61430294D01*
X161941997Y-61694545D01*
X161941999Y-61694554D01*
X161942001Y-61694559D01*
X162041029Y-61946879D01*
X162176557Y-62181621D01*
X162345558Y-62393542D01*
X162544257Y-62577907D01*
X162768215Y-62730599D01*
X163012428Y-62848206D01*
X163271442Y-62928101D01*
X163271443Y-62928101D01*
X163271446Y-62928102D01*
X163539464Y-62968499D01*
X163539469Y-62968499D01*
X163539472Y-62968500D01*
X163539473Y-62968500D01*
X163810527Y-62968500D01*
X163810528Y-62968500D01*
X163853726Y-62961989D01*
X164078553Y-62928102D01*
X164078554Y-62928101D01*
X164078558Y-62928101D01*
X164337572Y-62848206D01*
X164581786Y-62730599D01*
X164805743Y-62577907D01*
X165004442Y-62393542D01*
X165173443Y-62181621D01*
X165308971Y-61946879D01*
X165407999Y-61694559D01*
X165468315Y-61430299D01*
X165468410Y-61429028D01*
X165488571Y-61160004D01*
X166869953Y-61160004D01*
X166890113Y-61429026D01*
X166890113Y-61429028D01*
X166950142Y-61692033D01*
X166950148Y-61692052D01*
X167048709Y-61943181D01*
X167048708Y-61943181D01*
X167183602Y-62176822D01*
X167237294Y-62244151D01*
X167237295Y-62244151D01*
X168072452Y-61408993D01*
X168082188Y-61438956D01*
X168170186Y-61577619D01*
X168289903Y-61690040D01*
X168424510Y-61764041D01*
X167589848Y-62598702D01*
X167772483Y-62723220D01*
X167772485Y-62723221D01*
X168015539Y-62840269D01*
X168015537Y-62840269D01*
X168273337Y-62919790D01*
X168273343Y-62919792D01*
X168540101Y-62959999D01*
X168540110Y-62960000D01*
X168809890Y-62960000D01*
X168809898Y-62959999D01*
X169076656Y-62919792D01*
X169076662Y-62919790D01*
X169334461Y-62840269D01*
X169577521Y-62723218D01*
X169760150Y-62598702D01*
X168922534Y-61761086D01*
X168990629Y-61734126D01*
X169123492Y-61637595D01*
X169228175Y-61511055D01*
X169276631Y-61408079D01*
X170112703Y-62244151D01*
X170112704Y-62244150D01*
X170166393Y-62176828D01*
X170166400Y-62176817D01*
X170301290Y-61943181D01*
X170399851Y-61692052D01*
X170399857Y-61692033D01*
X170459886Y-61429028D01*
X170459886Y-61429026D01*
X170480047Y-61160004D01*
X171861429Y-61160004D01*
X171881683Y-61430289D01*
X171881684Y-61430294D01*
X171941997Y-61694545D01*
X171941999Y-61694554D01*
X171942001Y-61694559D01*
X172041029Y-61946879D01*
X172176557Y-62181621D01*
X172345558Y-62393542D01*
X172544257Y-62577907D01*
X172768215Y-62730599D01*
X173012428Y-62848206D01*
X173271442Y-62928101D01*
X173271443Y-62928101D01*
X173271446Y-62928102D01*
X173539464Y-62968499D01*
X173539469Y-62968499D01*
X173539472Y-62968500D01*
X173539473Y-62968500D01*
X173810527Y-62968500D01*
X173810528Y-62968500D01*
X173853726Y-62961989D01*
X174078553Y-62928102D01*
X174078554Y-62928101D01*
X174078558Y-62928101D01*
X174337572Y-62848206D01*
X174581786Y-62730599D01*
X174805743Y-62577907D01*
X175004442Y-62393542D01*
X175173443Y-62181621D01*
X175308971Y-61946879D01*
X175407999Y-61694559D01*
X175468315Y-61430299D01*
X175468410Y-61429028D01*
X175488571Y-61160004D01*
X176861429Y-61160004D01*
X176881683Y-61430289D01*
X176881684Y-61430294D01*
X176941997Y-61694545D01*
X176941999Y-61694554D01*
X176942001Y-61694559D01*
X177041029Y-61946879D01*
X177176557Y-62181621D01*
X177345558Y-62393542D01*
X177544257Y-62577907D01*
X177768215Y-62730599D01*
X178012428Y-62848206D01*
X178271442Y-62928101D01*
X178271443Y-62928101D01*
X178271446Y-62928102D01*
X178539464Y-62968499D01*
X178539469Y-62968499D01*
X178539472Y-62968500D01*
X178539473Y-62968500D01*
X178810527Y-62968500D01*
X178810528Y-62968500D01*
X178853726Y-62961989D01*
X179078553Y-62928102D01*
X179078554Y-62928101D01*
X179078558Y-62928101D01*
X179337572Y-62848206D01*
X179581786Y-62730599D01*
X179805743Y-62577907D01*
X180004442Y-62393542D01*
X180173443Y-62181621D01*
X180308971Y-61946879D01*
X180407999Y-61694559D01*
X180468315Y-61430299D01*
X180468410Y-61429028D01*
X180488571Y-61160004D01*
X181869953Y-61160004D01*
X181890113Y-61429026D01*
X181890113Y-61429028D01*
X181950142Y-61692033D01*
X181950148Y-61692052D01*
X182048709Y-61943181D01*
X182048708Y-61943181D01*
X182183602Y-62176822D01*
X182237294Y-62244151D01*
X183072452Y-61408992D01*
X183082188Y-61438956D01*
X183170186Y-61577619D01*
X183289903Y-61690040D01*
X183424510Y-61764041D01*
X182589848Y-62598702D01*
X182772483Y-62723220D01*
X182772485Y-62723221D01*
X183015539Y-62840269D01*
X183015537Y-62840269D01*
X183273337Y-62919790D01*
X183273343Y-62919792D01*
X183540101Y-62959999D01*
X183540110Y-62960000D01*
X183809890Y-62960000D01*
X183809898Y-62959999D01*
X184076656Y-62919792D01*
X184076662Y-62919790D01*
X184334461Y-62840269D01*
X184577521Y-62723218D01*
X184760150Y-62598702D01*
X183922534Y-61761086D01*
X183990629Y-61734126D01*
X184123492Y-61637595D01*
X184228175Y-61511055D01*
X184276631Y-61408079D01*
X185112703Y-62244151D01*
X185112704Y-62244150D01*
X185166393Y-62176828D01*
X185166400Y-62176817D01*
X185301290Y-61943181D01*
X185399851Y-61692052D01*
X185399857Y-61692033D01*
X185459886Y-61429028D01*
X185459886Y-61429026D01*
X185480047Y-61160004D01*
X186861429Y-61160004D01*
X186881683Y-61430289D01*
X186881684Y-61430294D01*
X186941997Y-61694545D01*
X186941999Y-61694554D01*
X186942001Y-61694559D01*
X187041029Y-61946879D01*
X187176557Y-62181621D01*
X187345558Y-62393542D01*
X187544257Y-62577907D01*
X187768215Y-62730599D01*
X188012428Y-62848206D01*
X188271442Y-62928101D01*
X188271443Y-62928101D01*
X188271446Y-62928102D01*
X188539464Y-62968499D01*
X188539469Y-62968499D01*
X188539472Y-62968500D01*
X188539473Y-62968500D01*
X188810527Y-62968500D01*
X188810528Y-62968500D01*
X188853726Y-62961989D01*
X189078553Y-62928102D01*
X189078554Y-62928101D01*
X189078558Y-62928101D01*
X189337572Y-62848206D01*
X189581786Y-62730599D01*
X189805743Y-62577907D01*
X189880380Y-62508654D01*
X191866500Y-62508654D01*
X191873011Y-62569202D01*
X191873011Y-62569204D01*
X191884014Y-62598702D01*
X191924111Y-62706204D01*
X192011739Y-62823261D01*
X192128796Y-62910889D01*
X192243949Y-62953839D01*
X192260463Y-62959999D01*
X192265799Y-62961989D01*
X192293050Y-62964918D01*
X192326345Y-62968499D01*
X192326362Y-62968500D01*
X195023638Y-62968500D01*
X195023654Y-62968499D01*
X195050692Y-62965591D01*
X195084201Y-62961989D01*
X195089537Y-62959999D01*
X195098768Y-62956555D01*
X195221204Y-62910889D01*
X195338261Y-62823261D01*
X195425889Y-62706204D01*
X195476989Y-62569201D01*
X195480591Y-62535692D01*
X195483499Y-62508654D01*
X195483500Y-62508637D01*
X195483500Y-59811362D01*
X195483499Y-59811345D01*
X195480157Y-59780270D01*
X195476989Y-59750799D01*
X195425889Y-59613796D01*
X195338261Y-59496739D01*
X195221204Y-59409111D01*
X195197332Y-59400207D01*
X195084203Y-59358011D01*
X195023654Y-59351500D01*
X195023638Y-59351500D01*
X192326362Y-59351500D01*
X192326345Y-59351500D01*
X192265797Y-59358011D01*
X192265795Y-59358011D01*
X192128795Y-59409111D01*
X192011739Y-59496739D01*
X191924111Y-59613795D01*
X191873011Y-59750795D01*
X191873011Y-59750797D01*
X191866500Y-59811345D01*
X191866500Y-62508654D01*
X189880380Y-62508654D01*
X190004442Y-62393542D01*
X190173443Y-62181621D01*
X190308971Y-61946879D01*
X190407999Y-61694559D01*
X190468315Y-61430299D01*
X190468410Y-61429028D01*
X190488571Y-61160004D01*
X190488571Y-61159995D01*
X190468316Y-60889710D01*
X190468315Y-60889705D01*
X190468315Y-60889701D01*
X190407999Y-60625441D01*
X190308971Y-60373121D01*
X190173443Y-60138379D01*
X190004442Y-59926458D01*
X189805743Y-59742093D01*
X189581786Y-59589401D01*
X189581780Y-59589398D01*
X189581779Y-59589397D01*
X189581778Y-59589396D01*
X189337574Y-59471795D01*
X189337576Y-59471795D01*
X189078559Y-59391899D01*
X189078553Y-59391897D01*
X188810535Y-59351500D01*
X188810528Y-59351500D01*
X188539472Y-59351500D01*
X188539464Y-59351500D01*
X188271446Y-59391897D01*
X188271440Y-59391899D01*
X188012427Y-59471794D01*
X187768219Y-59589398D01*
X187544256Y-59742093D01*
X187345560Y-59926456D01*
X187345558Y-59926458D01*
X187176557Y-60138379D01*
X187041029Y-60373120D01*
X186942003Y-60625435D01*
X186941997Y-60625454D01*
X186881684Y-60889705D01*
X186881683Y-60889710D01*
X186861429Y-61159995D01*
X186861429Y-61160004D01*
X185480047Y-61160004D01*
X185480047Y-61159995D01*
X185459886Y-60890973D01*
X185459886Y-60890971D01*
X185399857Y-60627966D01*
X185399851Y-60627947D01*
X185301290Y-60376818D01*
X185301291Y-60376818D01*
X185166397Y-60143177D01*
X185112704Y-60075847D01*
X184277546Y-60911004D01*
X184267812Y-60881044D01*
X184179814Y-60742381D01*
X184060097Y-60629960D01*
X183925489Y-60555958D01*
X184760150Y-59721296D01*
X184577517Y-59596779D01*
X184577516Y-59596778D01*
X184334460Y-59479730D01*
X184334462Y-59479730D01*
X184076662Y-59400209D01*
X184076656Y-59400207D01*
X183809898Y-59360000D01*
X183540101Y-59360000D01*
X183273343Y-59400207D01*
X183273337Y-59400209D01*
X183015538Y-59479730D01*
X182772485Y-59596778D01*
X182772476Y-59596783D01*
X182589848Y-59721296D01*
X183427465Y-60558913D01*
X183359371Y-60585874D01*
X183226508Y-60682405D01*
X183121825Y-60808945D01*
X183073368Y-60911921D01*
X182237295Y-60075848D01*
X182183600Y-60143180D01*
X182048709Y-60376818D01*
X181950148Y-60627947D01*
X181950142Y-60627966D01*
X181890113Y-60890971D01*
X181890113Y-60890973D01*
X181869953Y-61159995D01*
X181869953Y-61160004D01*
X180488571Y-61160004D01*
X180488571Y-61159995D01*
X180468316Y-60889710D01*
X180468315Y-60889705D01*
X180468315Y-60889701D01*
X180407999Y-60625441D01*
X180308971Y-60373121D01*
X180173443Y-60138379D01*
X180004442Y-59926458D01*
X179805743Y-59742093D01*
X179581786Y-59589401D01*
X179581780Y-59589398D01*
X179581779Y-59589397D01*
X179581778Y-59589396D01*
X179337574Y-59471795D01*
X179337576Y-59471795D01*
X179078559Y-59391899D01*
X179078553Y-59391897D01*
X178810535Y-59351500D01*
X178810528Y-59351500D01*
X178539472Y-59351500D01*
X178539464Y-59351500D01*
X178271446Y-59391897D01*
X178271440Y-59391899D01*
X178012427Y-59471794D01*
X177768219Y-59589398D01*
X177544256Y-59742093D01*
X177345560Y-59926456D01*
X177345558Y-59926458D01*
X177176557Y-60138379D01*
X177041029Y-60373120D01*
X176942003Y-60625435D01*
X176941997Y-60625454D01*
X176881684Y-60889705D01*
X176881683Y-60889710D01*
X176861429Y-61159995D01*
X176861429Y-61160004D01*
X175488571Y-61160004D01*
X175488571Y-61159995D01*
X175468316Y-60889710D01*
X175468315Y-60889705D01*
X175468315Y-60889701D01*
X175407999Y-60625441D01*
X175308971Y-60373121D01*
X175173443Y-60138379D01*
X175004442Y-59926458D01*
X174805743Y-59742093D01*
X174581786Y-59589401D01*
X174581780Y-59589398D01*
X174581779Y-59589397D01*
X174581778Y-59589396D01*
X174337574Y-59471795D01*
X174337576Y-59471795D01*
X174078559Y-59391899D01*
X174078553Y-59391897D01*
X173810535Y-59351500D01*
X173810528Y-59351500D01*
X173539472Y-59351500D01*
X173539464Y-59351500D01*
X173271446Y-59391897D01*
X173271440Y-59391899D01*
X173012427Y-59471794D01*
X172768219Y-59589398D01*
X172544256Y-59742093D01*
X172345560Y-59926456D01*
X172345558Y-59926458D01*
X172176557Y-60138379D01*
X172041029Y-60373120D01*
X171942003Y-60625435D01*
X171941997Y-60625454D01*
X171881684Y-60889705D01*
X171881683Y-60889710D01*
X171861429Y-61159995D01*
X171861429Y-61160004D01*
X170480047Y-61160004D01*
X170480047Y-61159995D01*
X170459886Y-60890973D01*
X170459886Y-60890971D01*
X170399857Y-60627966D01*
X170399851Y-60627947D01*
X170301290Y-60376818D01*
X170301291Y-60376818D01*
X170166397Y-60143177D01*
X170112704Y-60075847D01*
X169277546Y-60911004D01*
X169267812Y-60881044D01*
X169179814Y-60742381D01*
X169060097Y-60629960D01*
X168925489Y-60555958D01*
X169760150Y-59721296D01*
X169577517Y-59596779D01*
X169577516Y-59596778D01*
X169334460Y-59479730D01*
X169334462Y-59479730D01*
X169076662Y-59400209D01*
X169076656Y-59400207D01*
X168809898Y-59360000D01*
X168540101Y-59360000D01*
X168273343Y-59400207D01*
X168273337Y-59400209D01*
X168015538Y-59479730D01*
X167772485Y-59596778D01*
X167772476Y-59596783D01*
X167589848Y-59721296D01*
X168427465Y-60558913D01*
X168359371Y-60585874D01*
X168226508Y-60682405D01*
X168121825Y-60808945D01*
X168073368Y-60911921D01*
X167237295Y-60075848D01*
X167183600Y-60143180D01*
X167048709Y-60376818D01*
X166950148Y-60627947D01*
X166950142Y-60627966D01*
X166890113Y-60890971D01*
X166890113Y-60890973D01*
X166869953Y-61159995D01*
X166869953Y-61160004D01*
X165488571Y-61160004D01*
X165488571Y-61159995D01*
X165468316Y-60889710D01*
X165468315Y-60889705D01*
X165468315Y-60889701D01*
X165407999Y-60625441D01*
X165308971Y-60373121D01*
X165173443Y-60138379D01*
X165004442Y-59926458D01*
X164805743Y-59742093D01*
X164581786Y-59589401D01*
X164581780Y-59589398D01*
X164581779Y-59589397D01*
X164581778Y-59589396D01*
X164337574Y-59471795D01*
X164337576Y-59471795D01*
X164078559Y-59391899D01*
X164078553Y-59391897D01*
X163810535Y-59351500D01*
X163810528Y-59351500D01*
X163539472Y-59351500D01*
X163539464Y-59351500D01*
X163271446Y-59391897D01*
X163271440Y-59391899D01*
X163012427Y-59471794D01*
X162768219Y-59589398D01*
X162544256Y-59742093D01*
X162345560Y-59926456D01*
X162345558Y-59926458D01*
X162176557Y-60138379D01*
X162041029Y-60373120D01*
X161942003Y-60625435D01*
X161941997Y-60625454D01*
X161881684Y-60889705D01*
X161881683Y-60889710D01*
X161861429Y-61159995D01*
X161861429Y-61160004D01*
X160488571Y-61160004D01*
X160488571Y-61159995D01*
X160468316Y-60889710D01*
X160468315Y-60889705D01*
X160468315Y-60889701D01*
X160407999Y-60625441D01*
X160308971Y-60373121D01*
X160173443Y-60138379D01*
X160004442Y-59926458D01*
X159805743Y-59742093D01*
X159581786Y-59589401D01*
X159581780Y-59589398D01*
X159581779Y-59589397D01*
X159581778Y-59589396D01*
X159337574Y-59471795D01*
X159337576Y-59471795D01*
X159078559Y-59391899D01*
X159078553Y-59391897D01*
X158810535Y-59351500D01*
X158810528Y-59351500D01*
X158539472Y-59351500D01*
X158539464Y-59351500D01*
X158271446Y-59391897D01*
X158271440Y-59391899D01*
X158012427Y-59471794D01*
X157768219Y-59589398D01*
X157544256Y-59742093D01*
X157345560Y-59926456D01*
X157345558Y-59926458D01*
X157176557Y-60138379D01*
X157041029Y-60373120D01*
X156942003Y-60625435D01*
X156941997Y-60625454D01*
X156881684Y-60889705D01*
X156881683Y-60889710D01*
X156861429Y-61159995D01*
X156861429Y-61160004D01*
X145483500Y-61160004D01*
X145483500Y-59811362D01*
X145483499Y-59811345D01*
X145480157Y-59780270D01*
X145476989Y-59750799D01*
X145425889Y-59613796D01*
X145338261Y-59496739D01*
X145221204Y-59409111D01*
X145197332Y-59400207D01*
X145084203Y-59358011D01*
X145023654Y-59351500D01*
X145023638Y-59351500D01*
X142326362Y-59351500D01*
X142326345Y-59351500D01*
X142265797Y-59358011D01*
X142265795Y-59358011D01*
X142128795Y-59409111D01*
X142011739Y-59496739D01*
X141924111Y-59613795D01*
X141873011Y-59750795D01*
X141873011Y-59750797D01*
X141866500Y-59811345D01*
X141866500Y-62508654D01*
X139880380Y-62508654D01*
X140004442Y-62393542D01*
X140173443Y-62181621D01*
X140308971Y-61946879D01*
X140407999Y-61694559D01*
X140468315Y-61430299D01*
X140468410Y-61429028D01*
X140488571Y-61160004D01*
X140488571Y-61159995D01*
X140468316Y-60889710D01*
X140468315Y-60889705D01*
X140468315Y-60889701D01*
X140407999Y-60625441D01*
X140308971Y-60373121D01*
X140173443Y-60138379D01*
X140004442Y-59926458D01*
X139805743Y-59742093D01*
X139581786Y-59589401D01*
X139581780Y-59589398D01*
X139581779Y-59589397D01*
X139581778Y-59589396D01*
X139337574Y-59471795D01*
X139337576Y-59471795D01*
X139078559Y-59391899D01*
X139078553Y-59391897D01*
X138810535Y-59351500D01*
X138810528Y-59351500D01*
X138539472Y-59351500D01*
X138539464Y-59351500D01*
X138271446Y-59391897D01*
X138271440Y-59391899D01*
X138012427Y-59471794D01*
X137768219Y-59589398D01*
X137544256Y-59742093D01*
X137345560Y-59926456D01*
X137345558Y-59926458D01*
X137176557Y-60138379D01*
X137041029Y-60373120D01*
X136942003Y-60625435D01*
X136941997Y-60625454D01*
X136881684Y-60889705D01*
X136881683Y-60889710D01*
X136861429Y-61159995D01*
X136861429Y-61160004D01*
X135480047Y-61160004D01*
X135480047Y-61159995D01*
X135459886Y-60890973D01*
X135459886Y-60890971D01*
X135399857Y-60627966D01*
X135399851Y-60627947D01*
X135301290Y-60376818D01*
X135301291Y-60376818D01*
X135166397Y-60143177D01*
X135112704Y-60075847D01*
X134277546Y-60911004D01*
X134267812Y-60881044D01*
X134179814Y-60742381D01*
X134060097Y-60629960D01*
X133925489Y-60555958D01*
X134760150Y-59721296D01*
X134577517Y-59596779D01*
X134577516Y-59596778D01*
X134334460Y-59479730D01*
X134334462Y-59479730D01*
X134076662Y-59400209D01*
X134076656Y-59400207D01*
X133809898Y-59360000D01*
X133540101Y-59360000D01*
X133273343Y-59400207D01*
X133273337Y-59400209D01*
X133015538Y-59479730D01*
X132772485Y-59596778D01*
X132772476Y-59596783D01*
X132589848Y-59721296D01*
X133427465Y-60558913D01*
X133359371Y-60585874D01*
X133226508Y-60682405D01*
X133121825Y-60808945D01*
X133073368Y-60911921D01*
X132237295Y-60075848D01*
X132183600Y-60143180D01*
X132048709Y-60376818D01*
X131950148Y-60627947D01*
X131950142Y-60627966D01*
X131890113Y-60890971D01*
X131890113Y-60890973D01*
X131869953Y-61159995D01*
X131869953Y-61160004D01*
X130488571Y-61160004D01*
X130488571Y-61159995D01*
X130468316Y-60889710D01*
X130468315Y-60889705D01*
X130468315Y-60889701D01*
X130407999Y-60625441D01*
X130308971Y-60373121D01*
X130173443Y-60138379D01*
X130004442Y-59926458D01*
X129805743Y-59742093D01*
X129581786Y-59589401D01*
X129581780Y-59589398D01*
X129581779Y-59589397D01*
X129581778Y-59589396D01*
X129337574Y-59471795D01*
X129337576Y-59471795D01*
X129078559Y-59391899D01*
X129078553Y-59391897D01*
X128810535Y-59351500D01*
X128810528Y-59351500D01*
X128539472Y-59351500D01*
X128539464Y-59351500D01*
X128271446Y-59391897D01*
X128271440Y-59391899D01*
X128012427Y-59471794D01*
X127768219Y-59589398D01*
X127544256Y-59742093D01*
X127345560Y-59926456D01*
X127345558Y-59926458D01*
X127176557Y-60138379D01*
X127041029Y-60373120D01*
X126942003Y-60625435D01*
X126941997Y-60625454D01*
X126881684Y-60889705D01*
X126881683Y-60889710D01*
X126861429Y-61159995D01*
X126861429Y-61160004D01*
X125488571Y-61160004D01*
X125488571Y-61159995D01*
X125468316Y-60889710D01*
X125468315Y-60889705D01*
X125468315Y-60889701D01*
X125407999Y-60625441D01*
X125308971Y-60373121D01*
X125173443Y-60138379D01*
X125004442Y-59926458D01*
X124805743Y-59742093D01*
X124581786Y-59589401D01*
X124581780Y-59589398D01*
X124581779Y-59589397D01*
X124581778Y-59589396D01*
X124337574Y-59471795D01*
X124337576Y-59471795D01*
X124078559Y-59391899D01*
X124078553Y-59391897D01*
X123810535Y-59351500D01*
X123810528Y-59351500D01*
X123539472Y-59351500D01*
X123539464Y-59351500D01*
X123271446Y-59391897D01*
X123271440Y-59391899D01*
X123012427Y-59471794D01*
X122768219Y-59589398D01*
X122544256Y-59742093D01*
X122345560Y-59926456D01*
X122345558Y-59926458D01*
X122176557Y-60138379D01*
X122041029Y-60373120D01*
X121942003Y-60625435D01*
X121941997Y-60625454D01*
X121881684Y-60889705D01*
X121881683Y-60889710D01*
X121861429Y-61159995D01*
X121861429Y-61160004D01*
X120480047Y-61160004D01*
X120480047Y-61159995D01*
X120459886Y-60890973D01*
X120459886Y-60890971D01*
X120399857Y-60627966D01*
X120399851Y-60627947D01*
X120301290Y-60376818D01*
X120301291Y-60376818D01*
X120166397Y-60143177D01*
X120112704Y-60075847D01*
X119277546Y-60911004D01*
X119267812Y-60881044D01*
X119179814Y-60742381D01*
X119060097Y-60629960D01*
X118925489Y-60555958D01*
X119760150Y-59721296D01*
X119577517Y-59596779D01*
X119577516Y-59596778D01*
X119334460Y-59479730D01*
X119334462Y-59479730D01*
X119076662Y-59400209D01*
X119076656Y-59400207D01*
X118809898Y-59360000D01*
X118540101Y-59360000D01*
X118273343Y-59400207D01*
X118273337Y-59400209D01*
X118015538Y-59479730D01*
X117772485Y-59596778D01*
X117772476Y-59596783D01*
X117589848Y-59721296D01*
X118427465Y-60558913D01*
X118359371Y-60585874D01*
X118226508Y-60682405D01*
X118121825Y-60808945D01*
X118073368Y-60911921D01*
X117237295Y-60075848D01*
X117183600Y-60143180D01*
X117048709Y-60376818D01*
X116950148Y-60627947D01*
X116950142Y-60627966D01*
X116890113Y-60890971D01*
X116890113Y-60890973D01*
X116869953Y-61159995D01*
X116869953Y-61160004D01*
X115488571Y-61160004D01*
X115488571Y-61159995D01*
X115468316Y-60889710D01*
X115468315Y-60889705D01*
X115468315Y-60889701D01*
X115407999Y-60625441D01*
X115308971Y-60373121D01*
X115173443Y-60138379D01*
X115004442Y-59926458D01*
X114805743Y-59742093D01*
X114581786Y-59589401D01*
X114581780Y-59589398D01*
X114581779Y-59589397D01*
X114581778Y-59589396D01*
X114337574Y-59471795D01*
X114337576Y-59471795D01*
X114078559Y-59391899D01*
X114078553Y-59391897D01*
X113810535Y-59351500D01*
X113810528Y-59351500D01*
X113539472Y-59351500D01*
X113539464Y-59351500D01*
X113271446Y-59391897D01*
X113271440Y-59391899D01*
X113012427Y-59471794D01*
X112768219Y-59589398D01*
X112544256Y-59742093D01*
X112345560Y-59926456D01*
X112345558Y-59926458D01*
X112176557Y-60138379D01*
X112100000Y-60270979D01*
X112100000Y-56000000D01*
X199793907Y-56000000D01*
X199806061Y-56000597D01*
G37*
%TD.AperFunction*%
%TD*%
%TA.AperFunction,Conductor*%
%TO.N,+5V*%
G36*
X123436493Y-67019685D02*
G01*
X123482248Y-67072489D01*
X123492192Y-67141647D01*
X123463167Y-67205203D01*
X123451681Y-67216815D01*
X123378527Y-67281623D01*
X123378523Y-67281627D01*
X123224489Y-67470285D01*
X123224487Y-67470289D01*
X123102715Y-67681203D01*
X123102710Y-67681213D01*
X123016345Y-67908938D01*
X122967626Y-68147574D01*
X122967625Y-68147582D01*
X122957818Y-68390932D01*
X122957818Y-68390933D01*
X122987176Y-68632721D01*
X123054937Y-68866656D01*
X123054938Y-68866659D01*
X123159351Y-69086707D01*
X123297707Y-69287148D01*
X123297708Y-69287149D01*
X123466422Y-69462800D01*
X123661129Y-69609113D01*
X123661131Y-69609114D01*
X123661135Y-69609117D01*
X123773434Y-69668056D01*
X123876792Y-69722303D01*
X123876794Y-69722303D01*
X123876795Y-69722304D01*
X123992306Y-69760867D01*
X124107817Y-69799431D01*
X124348218Y-69838500D01*
X124348221Y-69838500D01*
X125030787Y-69838500D01*
X125030797Y-69838500D01*
X125212768Y-69823810D01*
X125449248Y-69765523D01*
X125673316Y-69670056D01*
X125879168Y-69539883D01*
X126061474Y-69378375D01*
X126215510Y-69189714D01*
X126337289Y-68978787D01*
X126423656Y-68751057D01*
X126472374Y-68512421D01*
X126482181Y-68269061D01*
X126452823Y-68027280D01*
X126452823Y-68027278D01*
X126414621Y-67895394D01*
X126385061Y-67793338D01*
X126280650Y-67573296D01*
X126280649Y-67573295D01*
X126280648Y-67573292D01*
X126142292Y-67372851D01*
X126142291Y-67372850D01*
X125985774Y-67209898D01*
X125953531Y-67147913D01*
X125959917Y-67078336D01*
X126002907Y-67023257D01*
X126068849Y-67000163D01*
X126075203Y-67000000D01*
X189993907Y-67000000D01*
X190006061Y-67000597D01*
X190182941Y-67018018D01*
X190206769Y-67022757D01*
X190371001Y-67072576D01*
X190393453Y-67081877D01*
X190544798Y-67162772D01*
X190565010Y-67176277D01*
X190697666Y-67285145D01*
X190714854Y-67302333D01*
X190823722Y-67434989D01*
X190837227Y-67455201D01*
X190918121Y-67606543D01*
X190927424Y-67629001D01*
X190977240Y-67793224D01*
X190981982Y-67817065D01*
X190999403Y-67993938D01*
X191000000Y-68006092D01*
X191000000Y-108093907D01*
X190999403Y-108106061D01*
X190981982Y-108282934D01*
X190977240Y-108306775D01*
X190927424Y-108470998D01*
X190918122Y-108493455D01*
X190903425Y-108520952D01*
X190854463Y-108570797D01*
X190794066Y-108586500D01*
X189263456Y-108586500D01*
X189219532Y-108588381D01*
X189198380Y-108590198D01*
X189154756Y-108595836D01*
X189154753Y-108595837D01*
X189015761Y-108640998D01*
X188953045Y-108671833D01*
X188953044Y-108671834D01*
X188832399Y-108754330D01*
X188827608Y-108758728D01*
X188764905Y-108789551D01*
X188695491Y-108781582D01*
X188693333Y-108780646D01*
X188644104Y-108758728D01*
X188582288Y-108731206D01*
X188582286Y-108731205D01*
X188395487Y-108691500D01*
X188204513Y-108691500D01*
X188017714Y-108731205D01*
X187900620Y-108783338D01*
X187831369Y-108792622D01*
X187768982Y-108763771D01*
X187681195Y-108687702D01*
X187681193Y-108687701D01*
X187548251Y-108626987D01*
X187481206Y-108607300D01*
X187432981Y-108600366D01*
X187336535Y-108586500D01*
X182063465Y-108586500D01*
X182063456Y-108586500D01*
X182019532Y-108588381D01*
X181998380Y-108590198D01*
X181954756Y-108595836D01*
X181954753Y-108595837D01*
X181815761Y-108640998D01*
X181753045Y-108671833D01*
X181753044Y-108671834D01*
X181632399Y-108754330D01*
X181627608Y-108758728D01*
X181564905Y-108789551D01*
X181495491Y-108781582D01*
X181493333Y-108780646D01*
X181444104Y-108758728D01*
X181382288Y-108731206D01*
X181382286Y-108731205D01*
X181195487Y-108691500D01*
X181004513Y-108691500D01*
X180817714Y-108731205D01*
X180700620Y-108783338D01*
X180631369Y-108792622D01*
X180568982Y-108763771D01*
X180481195Y-108687702D01*
X180481193Y-108687701D01*
X180348251Y-108626987D01*
X180281206Y-108607300D01*
X180232981Y-108600366D01*
X180136535Y-108586500D01*
X174863465Y-108586500D01*
X174863456Y-108586500D01*
X174819532Y-108588381D01*
X174798380Y-108590198D01*
X174754756Y-108595836D01*
X174754753Y-108595837D01*
X174615761Y-108640998D01*
X174553045Y-108671833D01*
X174553044Y-108671834D01*
X174432399Y-108754330D01*
X174427608Y-108758728D01*
X174364905Y-108789551D01*
X174295491Y-108781582D01*
X174293333Y-108780646D01*
X174244104Y-108758728D01*
X174182288Y-108731206D01*
X174182286Y-108731205D01*
X173995487Y-108691500D01*
X173804513Y-108691500D01*
X173617714Y-108731205D01*
X173500620Y-108783338D01*
X173431369Y-108792622D01*
X173368982Y-108763771D01*
X173281195Y-108687702D01*
X173281193Y-108687701D01*
X173148251Y-108626987D01*
X173081206Y-108607300D01*
X173032981Y-108600366D01*
X172936535Y-108586500D01*
X167663465Y-108586500D01*
X167663456Y-108586500D01*
X167619532Y-108588381D01*
X167598380Y-108590198D01*
X167554756Y-108595836D01*
X167554753Y-108595837D01*
X167415761Y-108640998D01*
X167353045Y-108671833D01*
X167353044Y-108671834D01*
X167232399Y-108754330D01*
X167227608Y-108758728D01*
X167164905Y-108789551D01*
X167095491Y-108781582D01*
X167093333Y-108780646D01*
X167044104Y-108758728D01*
X166982288Y-108731206D01*
X166982286Y-108731205D01*
X166795487Y-108691500D01*
X166604513Y-108691500D01*
X166417714Y-108731205D01*
X166300620Y-108783338D01*
X166231369Y-108792622D01*
X166168982Y-108763771D01*
X166081195Y-108687702D01*
X166081193Y-108687701D01*
X165948251Y-108626987D01*
X165881206Y-108607300D01*
X165832981Y-108600366D01*
X165736535Y-108586500D01*
X160363465Y-108586500D01*
X160363456Y-108586500D01*
X160319532Y-108588381D01*
X160298380Y-108590198D01*
X160254756Y-108595836D01*
X160254753Y-108595837D01*
X160115761Y-108640998D01*
X160053045Y-108671833D01*
X160053044Y-108671834D01*
X159932399Y-108754330D01*
X159927608Y-108758728D01*
X159864905Y-108789551D01*
X159795491Y-108781582D01*
X159793333Y-108780646D01*
X159744104Y-108758728D01*
X159682288Y-108731206D01*
X159682286Y-108731205D01*
X159495487Y-108691500D01*
X159304513Y-108691500D01*
X159117714Y-108731205D01*
X159000620Y-108783338D01*
X158931369Y-108792622D01*
X158868982Y-108763771D01*
X158781195Y-108687702D01*
X158781193Y-108687701D01*
X158648251Y-108626987D01*
X158581206Y-108607300D01*
X158532981Y-108600366D01*
X158436535Y-108586500D01*
X158436533Y-108586500D01*
X157737500Y-108586500D01*
X157670461Y-108566815D01*
X157624706Y-108514011D01*
X157613500Y-108462500D01*
X157613500Y-104000003D01*
X171004359Y-104000003D01*
X171022864Y-104164246D01*
X171077458Y-104320268D01*
X171165398Y-104460223D01*
X171282277Y-104577102D01*
X171422233Y-104665042D01*
X171578248Y-104719634D01*
X171578251Y-104719634D01*
X171578253Y-104719635D01*
X171742496Y-104738141D01*
X171742500Y-104738141D01*
X171742504Y-104738141D01*
X171906746Y-104719635D01*
X171906747Y-104719634D01*
X171906752Y-104719634D01*
X172062767Y-104665042D01*
X172202723Y-104577102D01*
X172319602Y-104460223D01*
X172407542Y-104320267D01*
X172462134Y-104164252D01*
X172480641Y-104000000D01*
X172462134Y-103835748D01*
X172407542Y-103679733D01*
X172319602Y-103539777D01*
X172202723Y-103422898D01*
X172150433Y-103390042D01*
X172062768Y-103334958D01*
X171906746Y-103280364D01*
X171742504Y-103261859D01*
X171742496Y-103261859D01*
X171578253Y-103280364D01*
X171422231Y-103334958D01*
X171282276Y-103422898D01*
X171165398Y-103539776D01*
X171077458Y-103679731D01*
X171022864Y-103835753D01*
X171004359Y-103999996D01*
X171004359Y-104000003D01*
X157613500Y-104000003D01*
X157613500Y-102725003D01*
X164904359Y-102725003D01*
X164922864Y-102889246D01*
X164922865Y-102889251D01*
X164922866Y-102889252D01*
X164934950Y-102923786D01*
X164977458Y-103045268D01*
X165065398Y-103185223D01*
X165182277Y-103302102D01*
X165322233Y-103390042D01*
X165478248Y-103444634D01*
X165478251Y-103444634D01*
X165478253Y-103444635D01*
X165642496Y-103463141D01*
X165642500Y-103463141D01*
X165642504Y-103463141D01*
X165806746Y-103444635D01*
X165806747Y-103444634D01*
X165806752Y-103444634D01*
X165962767Y-103390042D01*
X166102723Y-103302102D01*
X166219602Y-103185223D01*
X166307542Y-103045267D01*
X166362134Y-102889252D01*
X166366782Y-102848002D01*
X166393848Y-102783588D01*
X166449050Y-102744842D01*
X166454459Y-102742948D01*
X166462767Y-102740042D01*
X166602723Y-102652102D01*
X166719602Y-102535223D01*
X166807542Y-102395267D01*
X166833238Y-102321830D01*
X166862132Y-102239259D01*
X166862135Y-102239246D01*
X166866782Y-102198002D01*
X166893848Y-102133588D01*
X166949050Y-102094842D01*
X166954459Y-102092948D01*
X166962767Y-102090042D01*
X167102723Y-102002102D01*
X167219602Y-101885223D01*
X167307542Y-101745267D01*
X167333238Y-101671830D01*
X167362132Y-101589259D01*
X167362135Y-101589246D01*
X167366782Y-101548002D01*
X167393848Y-101483588D01*
X167449050Y-101444842D01*
X167454459Y-101442948D01*
X167462767Y-101440042D01*
X167602723Y-101352102D01*
X167719602Y-101235223D01*
X167807542Y-101095267D01*
X167833238Y-101021830D01*
X167862132Y-100939259D01*
X167862135Y-100939246D01*
X167866782Y-100898002D01*
X167893848Y-100833588D01*
X167949050Y-100794842D01*
X167954459Y-100792948D01*
X167962767Y-100790042D01*
X168102723Y-100702102D01*
X168219602Y-100585223D01*
X168307542Y-100445267D01*
X168333238Y-100371830D01*
X168362132Y-100289259D01*
X168362135Y-100289246D01*
X168366782Y-100248002D01*
X168393848Y-100183588D01*
X168449050Y-100144842D01*
X168454459Y-100142948D01*
X168462767Y-100140042D01*
X168602723Y-100052102D01*
X168719602Y-99935223D01*
X168807542Y-99795267D01*
X168833238Y-99721830D01*
X168862132Y-99639259D01*
X168862135Y-99639246D01*
X168866782Y-99598002D01*
X168893848Y-99533588D01*
X168949050Y-99494842D01*
X168954459Y-99492948D01*
X168962767Y-99490042D01*
X169102723Y-99402102D01*
X169219602Y-99285223D01*
X169307542Y-99145267D01*
X169362134Y-98989252D01*
X169362135Y-98989246D01*
X169380641Y-98825003D01*
X169380641Y-98824996D01*
X169362135Y-98660753D01*
X169362134Y-98660751D01*
X169362134Y-98660748D01*
X169307542Y-98504733D01*
X169219602Y-98364777D01*
X169102723Y-98247898D01*
X168962768Y-98159958D01*
X168806746Y-98105364D01*
X168642504Y-98086859D01*
X168642496Y-98086859D01*
X168478253Y-98105364D01*
X168322231Y-98159958D01*
X168182276Y-98247898D01*
X168065398Y-98364776D01*
X167977458Y-98504731D01*
X167922864Y-98660753D01*
X167918217Y-98702000D01*
X167891150Y-98766414D01*
X167835954Y-98805156D01*
X167823932Y-98809363D01*
X167822230Y-98809959D01*
X167682276Y-98897898D01*
X167565398Y-99014776D01*
X167477458Y-99154731D01*
X167422864Y-99310753D01*
X167418217Y-99352000D01*
X167391150Y-99416414D01*
X167335954Y-99455156D01*
X167323932Y-99459363D01*
X167322230Y-99459959D01*
X167182276Y-99547898D01*
X167065398Y-99664776D01*
X166977458Y-99804731D01*
X166922864Y-99960753D01*
X166918217Y-100002000D01*
X166891150Y-100066414D01*
X166835954Y-100105156D01*
X166823932Y-100109363D01*
X166822230Y-100109959D01*
X166682276Y-100197898D01*
X166565398Y-100314776D01*
X166477458Y-100454731D01*
X166422864Y-100610753D01*
X166418217Y-100652000D01*
X166391150Y-100716414D01*
X166335954Y-100755156D01*
X166323932Y-100759363D01*
X166322230Y-100759959D01*
X166182276Y-100847898D01*
X166065398Y-100964776D01*
X165977458Y-101104731D01*
X165922864Y-101260753D01*
X165918217Y-101302000D01*
X165891150Y-101366414D01*
X165835954Y-101405156D01*
X165823932Y-101409363D01*
X165822230Y-101409959D01*
X165682276Y-101497898D01*
X165565398Y-101614776D01*
X165477458Y-101754731D01*
X165422864Y-101910753D01*
X165418217Y-101952000D01*
X165391150Y-102016414D01*
X165335954Y-102055156D01*
X165323932Y-102059363D01*
X165322230Y-102059959D01*
X165182276Y-102147898D01*
X165065398Y-102264776D01*
X164977458Y-102404731D01*
X164922864Y-102560753D01*
X164904359Y-102724996D01*
X164904359Y-102725003D01*
X157613500Y-102725003D01*
X157613500Y-93900000D01*
X177761909Y-93900000D01*
X177780223Y-94074249D01*
X177780224Y-94074252D01*
X177834366Y-94240883D01*
X177921967Y-94392613D01*
X177921970Y-94392618D01*
X178039208Y-94522823D01*
X178180954Y-94625808D01*
X178341011Y-94697070D01*
X178341016Y-94697072D01*
X178512396Y-94733500D01*
X178687604Y-94733500D01*
X178858984Y-94697072D01*
X179019046Y-94625808D01*
X179160792Y-94522823D01*
X179278030Y-94392618D01*
X179365634Y-94240882D01*
X179419777Y-94074249D01*
X179438091Y-93900000D01*
X179419777Y-93725751D01*
X179365634Y-93559118D01*
X179278030Y-93407382D01*
X179160792Y-93277177D01*
X179019046Y-93174192D01*
X179019045Y-93174191D01*
X178858988Y-93102929D01*
X178858983Y-93102927D01*
X178687604Y-93066500D01*
X178512396Y-93066500D01*
X178341016Y-93102927D01*
X178341011Y-93102929D01*
X178180955Y-93174191D01*
X178180950Y-93174194D01*
X178039211Y-93277174D01*
X178039208Y-93277176D01*
X178039208Y-93277177D01*
X177921970Y-93407382D01*
X177921968Y-93407383D01*
X177921967Y-93407386D01*
X177834366Y-93559116D01*
X177780224Y-93725747D01*
X177780223Y-93725751D01*
X177761909Y-93900000D01*
X157613500Y-93900000D01*
X157613500Y-85500000D01*
X170106496Y-85500000D01*
X170126458Y-85689928D01*
X170126459Y-85689931D01*
X170185470Y-85871549D01*
X170185473Y-85871556D01*
X170280960Y-86036944D01*
X170408747Y-86178866D01*
X170563248Y-86291118D01*
X170737712Y-86368794D01*
X170924513Y-86408500D01*
X171115487Y-86408500D01*
X171302288Y-86368794D01*
X171476752Y-86291118D01*
X171631253Y-86178866D01*
X171759040Y-86036944D01*
X171854527Y-85871556D01*
X171913542Y-85689928D01*
X171933504Y-85500000D01*
X177406496Y-85500000D01*
X177426458Y-85689928D01*
X177426459Y-85689931D01*
X177485470Y-85871549D01*
X177485473Y-85871556D01*
X177580960Y-86036944D01*
X177708747Y-86178866D01*
X177863248Y-86291118D01*
X178037712Y-86368794D01*
X178224513Y-86408500D01*
X178415487Y-86408500D01*
X178602288Y-86368794D01*
X178776752Y-86291118D01*
X178931253Y-86178866D01*
X179059040Y-86036944D01*
X179154527Y-85871556D01*
X179213542Y-85689928D01*
X179233504Y-85500000D01*
X184606496Y-85500000D01*
X184626458Y-85689928D01*
X184626459Y-85689931D01*
X184685470Y-85871549D01*
X184685473Y-85871556D01*
X184780960Y-86036944D01*
X184908747Y-86178866D01*
X185063248Y-86291118D01*
X185237712Y-86368794D01*
X185424513Y-86408500D01*
X185615487Y-86408500D01*
X185802288Y-86368794D01*
X185976752Y-86291118D01*
X186131253Y-86178866D01*
X186259040Y-86036944D01*
X186354527Y-85871556D01*
X186413542Y-85689928D01*
X186433504Y-85500000D01*
X186413542Y-85310072D01*
X186354527Y-85128444D01*
X186259040Y-84963056D01*
X186131253Y-84821134D01*
X185976752Y-84708882D01*
X185802288Y-84631206D01*
X185802286Y-84631205D01*
X185615487Y-84591500D01*
X185424513Y-84591500D01*
X185237714Y-84631205D01*
X185063246Y-84708883D01*
X184908745Y-84821135D01*
X184780959Y-84963057D01*
X184685473Y-85128443D01*
X184685470Y-85128450D01*
X184626459Y-85310068D01*
X184626458Y-85310072D01*
X184606496Y-85500000D01*
X179233504Y-85500000D01*
X179213542Y-85310072D01*
X179154527Y-85128444D01*
X179059040Y-84963056D01*
X178931253Y-84821134D01*
X178776752Y-84708882D01*
X178602288Y-84631206D01*
X178602286Y-84631205D01*
X178415487Y-84591500D01*
X178224513Y-84591500D01*
X178037714Y-84631205D01*
X177863246Y-84708883D01*
X177708745Y-84821135D01*
X177580959Y-84963057D01*
X177485473Y-85128443D01*
X177485470Y-85128450D01*
X177426459Y-85310068D01*
X177426458Y-85310072D01*
X177406496Y-85500000D01*
X171933504Y-85500000D01*
X171913542Y-85310072D01*
X171854527Y-85128444D01*
X171759040Y-84963056D01*
X171631253Y-84821134D01*
X171476752Y-84708882D01*
X171302288Y-84631206D01*
X171302286Y-84631205D01*
X171115487Y-84591500D01*
X170924513Y-84591500D01*
X170737714Y-84631205D01*
X170563246Y-84708883D01*
X170408745Y-84821135D01*
X170280959Y-84963057D01*
X170185473Y-85128443D01*
X170185470Y-85128450D01*
X170126459Y-85310068D01*
X170126458Y-85310072D01*
X170106496Y-85500000D01*
X157613500Y-85500000D01*
X157613500Y-79806106D01*
X157613500Y-79806092D01*
X157612882Y-79780899D01*
X157612285Y-79768745D01*
X157610430Y-79743605D01*
X157593009Y-79566732D01*
X157585616Y-79516892D01*
X157580874Y-79493051D01*
X157568629Y-79444164D01*
X157518813Y-79279941D01*
X157511761Y-79260232D01*
X157501842Y-79232508D01*
X157501830Y-79232477D01*
X157492536Y-79210042D01*
X157492529Y-79210024D01*
X157470988Y-79164481D01*
X157390094Y-79013139D01*
X157364189Y-78969919D01*
X157350684Y-78949707D01*
X157350670Y-78949689D01*
X157350664Y-78949679D01*
X157320678Y-78909248D01*
X157320675Y-78909244D01*
X157320663Y-78909228D01*
X157211795Y-78776572D01*
X157177953Y-78739234D01*
X157160765Y-78722046D01*
X157123426Y-78688203D01*
X157123422Y-78688199D01*
X156990777Y-78579341D01*
X156990772Y-78579337D01*
X156990768Y-78579334D01*
X156950295Y-78549317D01*
X156950283Y-78549309D01*
X156950272Y-78549301D01*
X156930098Y-78535821D01*
X156928393Y-78534799D01*
X156886859Y-78509905D01*
X156735514Y-78429010D01*
X156735496Y-78429001D01*
X156735476Y-78428991D01*
X156689999Y-78407481D01*
X156689980Y-78407473D01*
X156667522Y-78398169D01*
X156620055Y-78381184D01*
X156455836Y-78331369D01*
X156406959Y-78319127D01*
X156406943Y-78319123D01*
X156406934Y-78319121D01*
X156406929Y-78319120D01*
X156406912Y-78319116D01*
X156383113Y-78314383D01*
X156383086Y-78314378D01*
X156333265Y-78306990D01*
X156333271Y-78306990D01*
X156156399Y-78289570D01*
X156131250Y-78287714D01*
X156119109Y-78287118D01*
X156109652Y-78286886D01*
X156093907Y-78286500D01*
X126441797Y-78286500D01*
X126374758Y-78266815D01*
X126329003Y-78214011D01*
X126319059Y-78144853D01*
X126332742Y-78103483D01*
X126348364Y-78074614D01*
X126348369Y-78074603D01*
X126429083Y-77839492D01*
X126449023Y-77720000D01*
X125007717Y-77720000D01*
X125043371Y-77681269D01*
X125094448Y-77564823D01*
X125104949Y-77438102D01*
X125073734Y-77314838D01*
X125011773Y-77220000D01*
X126449022Y-77220000D01*
X126449023Y-77219999D01*
X126429083Y-77100507D01*
X126348369Y-76865396D01*
X126348364Y-76865385D01*
X126230057Y-76646771D01*
X126230051Y-76646762D01*
X126077373Y-76450602D01*
X126077364Y-76450592D01*
X125894477Y-76282232D01*
X125894478Y-76282232D01*
X125686367Y-76146267D01*
X125458717Y-76046412D01*
X125217738Y-75985387D01*
X125217730Y-75985385D01*
X125032054Y-75970000D01*
X124970000Y-75970000D01*
X124970000Y-77181779D01*
X124903843Y-77130287D01*
X124783578Y-77089000D01*
X124688431Y-77089000D01*
X124594579Y-77104661D01*
X124482749Y-77165180D01*
X124470000Y-77179029D01*
X124470000Y-75970000D01*
X124407945Y-75970000D01*
X124222269Y-75985385D01*
X124222261Y-75985387D01*
X123981282Y-76046412D01*
X123753632Y-76146267D01*
X123545521Y-76282232D01*
X123362635Y-76450592D01*
X123362626Y-76450602D01*
X123209948Y-76646762D01*
X123209942Y-76646771D01*
X123091635Y-76865385D01*
X123091630Y-76865396D01*
X123010916Y-77100507D01*
X122990976Y-77219999D01*
X122990978Y-77220000D01*
X124432283Y-77220000D01*
X124396629Y-77258731D01*
X124345552Y-77375177D01*
X124335051Y-77501898D01*
X124366266Y-77625162D01*
X124428227Y-77720000D01*
X122990977Y-77720000D01*
X123010916Y-77839492D01*
X123091630Y-78074603D01*
X123091635Y-78074614D01*
X123107258Y-78103483D01*
X123121853Y-78171811D01*
X123097190Y-78237183D01*
X123041099Y-78278844D01*
X122998203Y-78286500D01*
X112305934Y-78286500D01*
X112238895Y-78266815D01*
X112196577Y-78220955D01*
X112181879Y-78193458D01*
X112172575Y-78170998D01*
X112122757Y-78006769D01*
X112118018Y-77982941D01*
X112100597Y-77806061D01*
X112100000Y-77793907D01*
X112100000Y-68006092D01*
X112100597Y-67993938D01*
X112108969Y-67908938D01*
X112118018Y-67817056D01*
X112122757Y-67793232D01*
X112172577Y-67628994D01*
X112181875Y-67606549D01*
X112262775Y-67455195D01*
X112276272Y-67434995D01*
X112385149Y-67302328D01*
X112402328Y-67285149D01*
X112534995Y-67176272D01*
X112555195Y-67162775D01*
X112706549Y-67081875D01*
X112728994Y-67072577D01*
X112893232Y-67022757D01*
X112917056Y-67018018D01*
X113093939Y-67000597D01*
X113106093Y-67000000D01*
X123369454Y-67000000D01*
X123436493Y-67019685D01*
G37*
%TD.AperFunction*%
%TD*%
%TA.AperFunction,Conductor*%
%TO.N,VBUS*%
G36*
X112100000Y-60270979D02*
G01*
X112041029Y-60373120D01*
X111942003Y-60625435D01*
X111941997Y-60625454D01*
X111881684Y-60889705D01*
X111881683Y-60889710D01*
X111861429Y-61159995D01*
X111861429Y-61160004D01*
X111881683Y-61430289D01*
X111881684Y-61430294D01*
X111941997Y-61694545D01*
X111941999Y-61694554D01*
X111942001Y-61694559D01*
X112041029Y-61946879D01*
X112100000Y-62049020D01*
X112100000Y-66868976D01*
X112076572Y-66888203D01*
X112039223Y-66922055D01*
X112022055Y-66939223D01*
X111988203Y-66976572D01*
X111879342Y-67109220D01*
X111879315Y-67109254D01*
X111849329Y-67149685D01*
X111835804Y-67169926D01*
X111809905Y-67213139D01*
X111809896Y-67213154D01*
X111729016Y-67364471D01*
X111728997Y-67364509D01*
X111707480Y-67409999D01*
X111707471Y-67410019D01*
X111698174Y-67432462D01*
X111698167Y-67432480D01*
X111681188Y-67479932D01*
X111631371Y-67644158D01*
X111619125Y-67693047D01*
X111614382Y-67716888D01*
X111606991Y-67766718D01*
X111606989Y-67766738D01*
X111589570Y-67943599D01*
X111587714Y-67968748D01*
X111587118Y-67980889D01*
X111586500Y-68006106D01*
X111586500Y-77793892D01*
X111587118Y-77819109D01*
X111587714Y-77831250D01*
X111589570Y-77856399D01*
X111606990Y-78033268D01*
X111614378Y-78083086D01*
X111614383Y-78083113D01*
X111619119Y-78106926D01*
X111625493Y-78132373D01*
X111622686Y-78202186D01*
X111582580Y-78259399D01*
X111517910Y-78285848D01*
X111505208Y-78286500D01*
X111201797Y-78286500D01*
X111134758Y-78266815D01*
X111089003Y-78214011D01*
X111079059Y-78144853D01*
X111092742Y-78103483D01*
X111108364Y-78074614D01*
X111108369Y-78074603D01*
X111189083Y-77839492D01*
X111209023Y-77720000D01*
X109767717Y-77720000D01*
X109803371Y-77681269D01*
X109854448Y-77564823D01*
X109864949Y-77438102D01*
X109833734Y-77314838D01*
X109771773Y-77220000D01*
X111209022Y-77220000D01*
X111209023Y-77219999D01*
X111189083Y-77100507D01*
X111108369Y-76865396D01*
X111108364Y-76865385D01*
X110990057Y-76646771D01*
X110990051Y-76646762D01*
X110837373Y-76450602D01*
X110837364Y-76450592D01*
X110654477Y-76282232D01*
X110654478Y-76282232D01*
X110446367Y-76146267D01*
X110218717Y-76046412D01*
X109977738Y-75985387D01*
X109977730Y-75985385D01*
X109792054Y-75970000D01*
X109730000Y-75970000D01*
X109730000Y-77181779D01*
X109663843Y-77130287D01*
X109543578Y-77089000D01*
X109448431Y-77089000D01*
X109354579Y-77104661D01*
X109242749Y-77165180D01*
X109230000Y-77179029D01*
X109230000Y-75970000D01*
X109167945Y-75970000D01*
X108982269Y-75985385D01*
X108982261Y-75985387D01*
X108741282Y-76046412D01*
X108513632Y-76146267D01*
X108305521Y-76282232D01*
X108122635Y-76450592D01*
X108122626Y-76450602D01*
X107969948Y-76646762D01*
X107969942Y-76646771D01*
X107851635Y-76865385D01*
X107851630Y-76865396D01*
X107770916Y-77100507D01*
X107750976Y-77219999D01*
X107750978Y-77220000D01*
X109192283Y-77220000D01*
X109156629Y-77258731D01*
X109105552Y-77375177D01*
X109095051Y-77501898D01*
X109126266Y-77625162D01*
X109188227Y-77720000D01*
X107750977Y-77720000D01*
X107770916Y-77839492D01*
X107851630Y-78074603D01*
X107851635Y-78074614D01*
X107867258Y-78103483D01*
X107881853Y-78171811D01*
X107857190Y-78237183D01*
X107801099Y-78278844D01*
X107758203Y-78286500D01*
X102502779Y-78286500D01*
X102477617Y-78287117D01*
X102477606Y-78287117D01*
X102477587Y-78287118D01*
X102465489Y-78287711D01*
X102440418Y-78289557D01*
X102263934Y-78306902D01*
X102263930Y-78306902D01*
X102214187Y-78314264D01*
X102190422Y-78318980D01*
X102190396Y-78318986D01*
X102141638Y-78331171D01*
X102141589Y-78331184D01*
X101977686Y-78380793D01*
X101977665Y-78380800D01*
X101930324Y-78397701D01*
X101907914Y-78406963D01*
X101862430Y-78428423D01*
X101862423Y-78428427D01*
X101858834Y-78430341D01*
X101790415Y-78444507D01*
X101725200Y-78419434D01*
X101704652Y-78399585D01*
X101676274Y-78365006D01*
X101662772Y-78344798D01*
X101633245Y-78289557D01*
X101581877Y-78193453D01*
X101572575Y-78170998D01*
X101522757Y-78006769D01*
X101518018Y-77982941D01*
X101500597Y-77806061D01*
X101500000Y-77793907D01*
X101500000Y-73111195D01*
X101519685Y-73044156D01*
X101572489Y-72998401D01*
X101641647Y-72988457D01*
X101705203Y-73017482D01*
X101739764Y-73066757D01*
X101840428Y-73328997D01*
X102007382Y-73656662D01*
X102207666Y-73965073D01*
X102207668Y-73965075D01*
X102439098Y-74250867D01*
X102699133Y-74510902D01*
X102699137Y-74510905D01*
X102984926Y-74742333D01*
X103293337Y-74942617D01*
X103293342Y-74942620D01*
X103621006Y-75109573D01*
X103964326Y-75241361D01*
X104319541Y-75336541D01*
X104682759Y-75394069D01*
X105029688Y-75412250D01*
X105049999Y-75413315D01*
X105050000Y-75413315D01*
X105050001Y-75413315D01*
X105069247Y-75412306D01*
X105417241Y-75394069D01*
X105780459Y-75336541D01*
X106135674Y-75241361D01*
X106478994Y-75109573D01*
X106806658Y-74942620D01*
X107115075Y-74742332D01*
X107400867Y-74510902D01*
X107660902Y-74250867D01*
X107892332Y-73965075D01*
X108092620Y-73656658D01*
X108259573Y-73328994D01*
X108391361Y-72985674D01*
X108486541Y-72630459D01*
X108544069Y-72267241D01*
X108563315Y-71900000D01*
X108544069Y-71532759D01*
X108486541Y-71169541D01*
X108391361Y-70814326D01*
X108259573Y-70471006D01*
X108092620Y-70143343D01*
X107892332Y-69834925D01*
X107660902Y-69549133D01*
X107400867Y-69289098D01*
X107258361Y-69173699D01*
X107115073Y-69057666D01*
X106806662Y-68857382D01*
X106478997Y-68690428D01*
X106135681Y-68558641D01*
X106135674Y-68558639D01*
X105780459Y-68463459D01*
X105780455Y-68463458D01*
X105780454Y-68463458D01*
X105417242Y-68405931D01*
X105131059Y-68390933D01*
X107717818Y-68390933D01*
X107747176Y-68632721D01*
X107814937Y-68866656D01*
X107814938Y-68866659D01*
X107919351Y-69086707D01*
X108057707Y-69287148D01*
X108057708Y-69287149D01*
X108226422Y-69462800D01*
X108421129Y-69609113D01*
X108421131Y-69609114D01*
X108421135Y-69609117D01*
X108533434Y-69668056D01*
X108636792Y-69722303D01*
X108636794Y-69722303D01*
X108636795Y-69722304D01*
X108752306Y-69760867D01*
X108867817Y-69799431D01*
X109108218Y-69838500D01*
X109108221Y-69838500D01*
X109790787Y-69838500D01*
X109790797Y-69838500D01*
X109972768Y-69823810D01*
X110209248Y-69765523D01*
X110433316Y-69670056D01*
X110639168Y-69539883D01*
X110821474Y-69378375D01*
X110975510Y-69189714D01*
X111097289Y-68978787D01*
X111183656Y-68751057D01*
X111232374Y-68512421D01*
X111242181Y-68269061D01*
X111227430Y-68147574D01*
X111212823Y-68027278D01*
X111145062Y-67793343D01*
X111145061Y-67793338D01*
X111040650Y-67573296D01*
X111040649Y-67573295D01*
X111040648Y-67573292D01*
X110902292Y-67372851D01*
X110902291Y-67372850D01*
X110733577Y-67197199D01*
X110538870Y-67050886D01*
X110538866Y-67050883D01*
X110538865Y-67050883D01*
X110440784Y-66999406D01*
X110323207Y-66937696D01*
X110323203Y-66937695D01*
X110092182Y-66860568D01*
X109851782Y-66821500D01*
X109851779Y-66821500D01*
X109169203Y-66821500D01*
X109169193Y-66821500D01*
X108987232Y-66836189D01*
X108750749Y-66894477D01*
X108526692Y-66989939D01*
X108526684Y-66989943D01*
X108526684Y-66989944D01*
X108320832Y-67120117D01*
X108138526Y-67281625D01*
X108138524Y-67281626D01*
X108138522Y-67281629D01*
X107984489Y-67470285D01*
X107984487Y-67470289D01*
X107862715Y-67681203D01*
X107862710Y-67681213D01*
X107776345Y-67908938D01*
X107727626Y-68147574D01*
X107727625Y-68147582D01*
X107717818Y-68390932D01*
X107717818Y-68390933D01*
X105131059Y-68390933D01*
X105050001Y-68386685D01*
X105049999Y-68386685D01*
X104682757Y-68405931D01*
X104319546Y-68463458D01*
X104319544Y-68463458D01*
X103964318Y-68558641D01*
X103621002Y-68690428D01*
X103293338Y-68857382D01*
X102984926Y-69057666D01*
X102699137Y-69289094D01*
X102699129Y-69289101D01*
X102439101Y-69549129D01*
X102439094Y-69549137D01*
X102207666Y-69834926D01*
X102007382Y-70143338D01*
X101840428Y-70471002D01*
X101739764Y-70733242D01*
X101697362Y-70788774D01*
X101631668Y-70812567D01*
X101563540Y-70797065D01*
X101514607Y-70747192D01*
X101500000Y-70688804D01*
X101500000Y-61160004D01*
X106869953Y-61160004D01*
X106890113Y-61429026D01*
X106890113Y-61429028D01*
X106950142Y-61692033D01*
X106950148Y-61692052D01*
X107048709Y-61943181D01*
X107048708Y-61943181D01*
X107183602Y-62176822D01*
X107237294Y-62244151D01*
X107237295Y-62244151D01*
X108072452Y-61408993D01*
X108082188Y-61438956D01*
X108170186Y-61577619D01*
X108289903Y-61690040D01*
X108424510Y-61764041D01*
X107589848Y-62598702D01*
X107772483Y-62723220D01*
X107772485Y-62723221D01*
X108015539Y-62840269D01*
X108015537Y-62840269D01*
X108273337Y-62919790D01*
X108273343Y-62919792D01*
X108540101Y-62959999D01*
X108540110Y-62960000D01*
X108809890Y-62960000D01*
X108809898Y-62959999D01*
X109076656Y-62919792D01*
X109076662Y-62919790D01*
X109334461Y-62840269D01*
X109577521Y-62723218D01*
X109760150Y-62598702D01*
X108922534Y-61761086D01*
X108990629Y-61734126D01*
X109123492Y-61637595D01*
X109228175Y-61511055D01*
X109276631Y-61408079D01*
X110112703Y-62244151D01*
X110112704Y-62244150D01*
X110166393Y-62176828D01*
X110166400Y-62176817D01*
X110301290Y-61943181D01*
X110399851Y-61692052D01*
X110399857Y-61692033D01*
X110459886Y-61429028D01*
X110459886Y-61429026D01*
X110480047Y-61160004D01*
X110480047Y-61159995D01*
X110459886Y-60890973D01*
X110459886Y-60890971D01*
X110399857Y-60627966D01*
X110399851Y-60627947D01*
X110301290Y-60376818D01*
X110301291Y-60376818D01*
X110166397Y-60143177D01*
X110112704Y-60075847D01*
X109277546Y-60911004D01*
X109267812Y-60881044D01*
X109179814Y-60742381D01*
X109060097Y-60629960D01*
X108925489Y-60555958D01*
X109760150Y-59721296D01*
X109577517Y-59596779D01*
X109577516Y-59596778D01*
X109334460Y-59479730D01*
X109334462Y-59479730D01*
X109076662Y-59400209D01*
X109076656Y-59400207D01*
X108809898Y-59360000D01*
X108540101Y-59360000D01*
X108273343Y-59400207D01*
X108273337Y-59400209D01*
X108015538Y-59479730D01*
X107772485Y-59596778D01*
X107772476Y-59596783D01*
X107589848Y-59721296D01*
X108427465Y-60558913D01*
X108359371Y-60585874D01*
X108226508Y-60682405D01*
X108121825Y-60808945D01*
X108073368Y-60911921D01*
X107237295Y-60075848D01*
X107183600Y-60143180D01*
X107048709Y-60376818D01*
X106950148Y-60627947D01*
X106950142Y-60627966D01*
X106890113Y-60890971D01*
X106890113Y-60890973D01*
X106869953Y-61159995D01*
X106869953Y-61160004D01*
X101500000Y-61160004D01*
X101500000Y-57006092D01*
X101500597Y-56993938D01*
X101518018Y-56817056D01*
X101522757Y-56793232D01*
X101572577Y-56628994D01*
X101581875Y-56606549D01*
X101662775Y-56455195D01*
X101676272Y-56434995D01*
X101785149Y-56302328D01*
X101802328Y-56285149D01*
X101934995Y-56176272D01*
X101955195Y-56162775D01*
X102106549Y-56081875D01*
X102128994Y-56072577D01*
X102293232Y-56022757D01*
X102317056Y-56018018D01*
X102493939Y-56000597D01*
X102506093Y-56000000D01*
X112100000Y-56000000D01*
X112100000Y-60270979D01*
G37*
%TD.AperFunction*%
%TD*%
%TA.AperFunction,Conductor*%
%TO.N,+3.3V*%
G36*
X108385473Y-109228443D02*
G01*
X108385470Y-109228450D01*
X108326459Y-109410068D01*
X108326458Y-109410072D01*
X108306496Y-109600000D01*
X108326458Y-109789928D01*
X108326459Y-109789931D01*
X108385470Y-109971549D01*
X108385473Y-109971556D01*
X108480960Y-110136944D01*
X108608747Y-110278866D01*
X108763248Y-110391118D01*
X108937712Y-110468794D01*
X109124513Y-110508500D01*
X109315487Y-110508500D01*
X109502288Y-110468794D01*
X109676752Y-110391118D01*
X109831253Y-110278866D01*
X109959040Y-110136944D01*
X110054527Y-109971556D01*
X110113542Y-109789928D01*
X110133504Y-109600000D01*
X110113542Y-109410072D01*
X110054527Y-109228444D01*
X109980370Y-109100000D01*
X115639629Y-109100000D01*
X115565473Y-109228443D01*
X115565470Y-109228450D01*
X115506459Y-109410068D01*
X115506458Y-109410072D01*
X115486496Y-109600000D01*
X115506458Y-109789928D01*
X115506459Y-109789931D01*
X115565470Y-109971549D01*
X115565473Y-109971556D01*
X115660960Y-110136944D01*
X115788747Y-110278866D01*
X115943248Y-110391118D01*
X116117712Y-110468794D01*
X116304513Y-110508500D01*
X116495487Y-110508500D01*
X116682288Y-110468794D01*
X116856752Y-110391118D01*
X117011253Y-110278866D01*
X117139040Y-110136944D01*
X117234527Y-109971556D01*
X117293542Y-109789928D01*
X117313504Y-109600000D01*
X117293542Y-109410072D01*
X117234527Y-109228444D01*
X117160370Y-109100000D01*
X122917736Y-109100000D01*
X122860959Y-109163057D01*
X122765473Y-109328443D01*
X122765470Y-109328450D01*
X122738950Y-109410072D01*
X122706458Y-109510072D01*
X122686496Y-109700000D01*
X122706458Y-109889928D01*
X122706459Y-109889931D01*
X122765470Y-110071549D01*
X122765473Y-110071556D01*
X122860960Y-110236944D01*
X122988747Y-110378866D01*
X123143248Y-110491118D01*
X123317712Y-110568794D01*
X123504513Y-110608500D01*
X123695487Y-110608500D01*
X123882288Y-110568794D01*
X124056752Y-110491118D01*
X124211253Y-110378866D01*
X124339040Y-110236944D01*
X124434527Y-110071556D01*
X124493542Y-109889928D01*
X124513504Y-109700000D01*
X124493542Y-109510072D01*
X124434527Y-109328444D01*
X124339040Y-109163056D01*
X124282264Y-109100000D01*
X129939629Y-109100000D01*
X129865473Y-109228443D01*
X129865470Y-109228450D01*
X129806459Y-109410068D01*
X129806458Y-109410072D01*
X129786496Y-109600000D01*
X129806458Y-109789928D01*
X129806459Y-109789931D01*
X129865470Y-109971549D01*
X129865473Y-109971556D01*
X129960960Y-110136944D01*
X130088747Y-110278866D01*
X130243248Y-110391118D01*
X130417712Y-110468794D01*
X130604513Y-110508500D01*
X130795487Y-110508500D01*
X130982288Y-110468794D01*
X131156752Y-110391118D01*
X131311253Y-110278866D01*
X131439040Y-110136944D01*
X131534527Y-109971556D01*
X131593542Y-109789928D01*
X131613504Y-109600000D01*
X131593542Y-109410072D01*
X131534527Y-109228444D01*
X131460370Y-109100000D01*
X137217736Y-109100000D01*
X137160959Y-109163057D01*
X137065473Y-109328443D01*
X137065470Y-109328450D01*
X137038950Y-109410072D01*
X137006458Y-109510072D01*
X136986496Y-109700000D01*
X137006458Y-109889928D01*
X137006459Y-109889931D01*
X137065470Y-110071549D01*
X137065473Y-110071556D01*
X137160960Y-110236944D01*
X137288747Y-110378866D01*
X137443248Y-110491118D01*
X137617712Y-110568794D01*
X137804513Y-110608500D01*
X137995487Y-110608500D01*
X138182288Y-110568794D01*
X138356752Y-110491118D01*
X138511253Y-110378866D01*
X138639040Y-110236944D01*
X138734527Y-110071556D01*
X138793542Y-109889928D01*
X138813504Y-109700000D01*
X138793542Y-109510072D01*
X138734527Y-109328444D01*
X138639040Y-109163056D01*
X138582264Y-109100000D01*
X144417736Y-109100000D01*
X144360959Y-109163057D01*
X144265473Y-109328443D01*
X144265470Y-109328450D01*
X144238950Y-109410072D01*
X144206458Y-109510072D01*
X144186496Y-109700000D01*
X144206458Y-109889928D01*
X144206459Y-109889931D01*
X144265470Y-110071549D01*
X144265473Y-110071556D01*
X144360960Y-110236944D01*
X144488747Y-110378866D01*
X144643248Y-110491118D01*
X144817712Y-110568794D01*
X145004513Y-110608500D01*
X145195487Y-110608500D01*
X145382288Y-110568794D01*
X145556752Y-110491118D01*
X145711253Y-110378866D01*
X145839040Y-110236944D01*
X145934527Y-110071556D01*
X145993542Y-109889928D01*
X146013504Y-109700000D01*
X145993542Y-109510072D01*
X145934527Y-109328444D01*
X145839040Y-109163056D01*
X145782264Y-109100000D01*
X151439629Y-109100000D01*
X151365473Y-109228443D01*
X151365470Y-109228450D01*
X151306459Y-109410068D01*
X151306458Y-109410072D01*
X151286496Y-109600000D01*
X151306458Y-109789928D01*
X151306459Y-109789931D01*
X151365470Y-109971549D01*
X151365473Y-109971556D01*
X151460960Y-110136944D01*
X151588747Y-110278866D01*
X151743248Y-110391118D01*
X151917712Y-110468794D01*
X152104513Y-110508500D01*
X152295487Y-110508500D01*
X152482288Y-110468794D01*
X152656752Y-110391118D01*
X152811253Y-110278866D01*
X152939040Y-110136944D01*
X153034527Y-109971556D01*
X153093542Y-109789928D01*
X153113504Y-109600000D01*
X153093542Y-109410072D01*
X153034527Y-109228444D01*
X152960370Y-109100000D01*
X157100000Y-109100000D01*
X158436535Y-109100000D01*
X158503574Y-109119685D01*
X158549329Y-109172489D01*
X158559273Y-109241647D01*
X158554466Y-109262318D01*
X158506459Y-109410068D01*
X158506458Y-109410072D01*
X158486496Y-109600000D01*
X158506458Y-109789928D01*
X158506459Y-109789931D01*
X158565470Y-109971549D01*
X158565473Y-109971556D01*
X158660960Y-110136944D01*
X158788747Y-110278866D01*
X158943248Y-110391118D01*
X159117712Y-110468794D01*
X159304513Y-110508500D01*
X159495487Y-110508500D01*
X159682288Y-110468794D01*
X159856752Y-110391118D01*
X160011253Y-110278866D01*
X160139040Y-110136944D01*
X160234527Y-109971556D01*
X160293542Y-109789928D01*
X160313504Y-109600000D01*
X160293542Y-109410072D01*
X160267019Y-109328443D01*
X160245534Y-109262318D01*
X160243539Y-109192477D01*
X160279619Y-109132644D01*
X160342320Y-109101816D01*
X160363465Y-109100000D01*
X165736535Y-109100000D01*
X165803574Y-109119685D01*
X165849329Y-109172489D01*
X165859273Y-109241647D01*
X165854466Y-109262318D01*
X165806459Y-109410068D01*
X165806458Y-109410072D01*
X165786496Y-109600000D01*
X165806458Y-109789928D01*
X165806459Y-109789931D01*
X165865470Y-109971549D01*
X165865473Y-109971556D01*
X165960960Y-110136944D01*
X166088747Y-110278866D01*
X166243248Y-110391118D01*
X166417712Y-110468794D01*
X166604513Y-110508500D01*
X166795487Y-110508500D01*
X166982288Y-110468794D01*
X167156752Y-110391118D01*
X167311253Y-110278866D01*
X167439040Y-110136944D01*
X167534527Y-109971556D01*
X167593542Y-109789928D01*
X167613504Y-109600000D01*
X167593542Y-109410072D01*
X167567019Y-109328443D01*
X167545534Y-109262318D01*
X167543539Y-109192477D01*
X167579619Y-109132644D01*
X167642320Y-109101816D01*
X167663465Y-109100000D01*
X172936535Y-109100000D01*
X173003574Y-109119685D01*
X173049329Y-109172489D01*
X173059273Y-109241647D01*
X173054466Y-109262318D01*
X173006459Y-109410068D01*
X173006458Y-109410072D01*
X172986496Y-109600000D01*
X173006458Y-109789928D01*
X173006459Y-109789931D01*
X173065470Y-109971549D01*
X173065473Y-109971556D01*
X173160960Y-110136944D01*
X173288747Y-110278866D01*
X173443248Y-110391118D01*
X173617712Y-110468794D01*
X173804513Y-110508500D01*
X173995487Y-110508500D01*
X174182288Y-110468794D01*
X174356752Y-110391118D01*
X174511253Y-110278866D01*
X174639040Y-110136944D01*
X174734527Y-109971556D01*
X174793542Y-109789928D01*
X174813504Y-109600000D01*
X174793542Y-109410072D01*
X174767019Y-109328443D01*
X174745534Y-109262318D01*
X174743539Y-109192477D01*
X174779619Y-109132644D01*
X174842320Y-109101816D01*
X174863465Y-109100000D01*
X180136535Y-109100000D01*
X180203574Y-109119685D01*
X180249329Y-109172489D01*
X180259273Y-109241647D01*
X180254466Y-109262318D01*
X180206459Y-109410068D01*
X180206458Y-109410072D01*
X180186496Y-109600000D01*
X180206458Y-109789928D01*
X180206459Y-109789931D01*
X180265470Y-109971549D01*
X180265473Y-109971556D01*
X180360960Y-110136944D01*
X180488747Y-110278866D01*
X180643248Y-110391118D01*
X180817712Y-110468794D01*
X181004513Y-110508500D01*
X181195487Y-110508500D01*
X181382288Y-110468794D01*
X181556752Y-110391118D01*
X181711253Y-110278866D01*
X181839040Y-110136944D01*
X181934527Y-109971556D01*
X181993542Y-109789928D01*
X182013504Y-109600000D01*
X181993542Y-109410072D01*
X181967019Y-109328443D01*
X181945534Y-109262318D01*
X181943539Y-109192477D01*
X181979619Y-109132644D01*
X182042320Y-109101816D01*
X182063465Y-109100000D01*
X187336535Y-109100000D01*
X187403574Y-109119685D01*
X187449329Y-109172489D01*
X187459273Y-109241647D01*
X187454466Y-109262318D01*
X187406459Y-109410068D01*
X187406458Y-109410072D01*
X187386496Y-109600000D01*
X187406458Y-109789928D01*
X187406459Y-109789931D01*
X187465470Y-109971549D01*
X187465473Y-109971556D01*
X187560960Y-110136944D01*
X187688747Y-110278866D01*
X187843248Y-110391118D01*
X188017712Y-110468794D01*
X188204513Y-110508500D01*
X188395487Y-110508500D01*
X188582288Y-110468794D01*
X188756752Y-110391118D01*
X188911253Y-110278866D01*
X189039040Y-110136944D01*
X189134527Y-109971556D01*
X189193542Y-109789928D01*
X189213504Y-109600000D01*
X189193542Y-109410072D01*
X189167019Y-109328443D01*
X189145534Y-109262318D01*
X189143539Y-109192477D01*
X189179619Y-109132644D01*
X189242320Y-109101816D01*
X189263465Y-109100000D01*
X190876000Y-109100000D01*
X190943039Y-109119685D01*
X190988794Y-109172489D01*
X191000000Y-109224000D01*
X191000000Y-127876000D01*
X190980315Y-127943039D01*
X190927511Y-127988794D01*
X190876000Y-128000000D01*
X101524000Y-128000000D01*
X101456961Y-127980315D01*
X101411206Y-127927511D01*
X101400000Y-127876000D01*
X101400000Y-123675691D01*
X101419685Y-123608652D01*
X101472489Y-123562897D01*
X101541647Y-123552953D01*
X101605203Y-123581978D01*
X101642977Y-123640756D01*
X101643761Y-123643548D01*
X101708639Y-123885674D01*
X101708641Y-123885681D01*
X101840428Y-124228997D01*
X102007382Y-124556662D01*
X102207666Y-124865073D01*
X102207668Y-124865075D01*
X102439098Y-125150867D01*
X102699133Y-125410902D01*
X102699137Y-125410905D01*
X102984926Y-125642333D01*
X103293337Y-125842617D01*
X103293342Y-125842620D01*
X103621006Y-126009573D01*
X103964326Y-126141361D01*
X104319541Y-126236541D01*
X104682759Y-126294069D01*
X105029688Y-126312250D01*
X105049999Y-126313315D01*
X105050000Y-126313315D01*
X105050001Y-126313315D01*
X105069247Y-126312306D01*
X105417241Y-126294069D01*
X105780459Y-126236541D01*
X106135674Y-126141361D01*
X106478994Y-126009573D01*
X106806658Y-125842620D01*
X107115075Y-125642332D01*
X107400867Y-125410902D01*
X107660902Y-125150867D01*
X107892332Y-124865075D01*
X108092620Y-124556658D01*
X108259573Y-124228994D01*
X108391361Y-123885674D01*
X108486541Y-123530459D01*
X108544069Y-123167241D01*
X108563315Y-122800000D01*
X108544069Y-122432759D01*
X108486541Y-122069541D01*
X108391361Y-121714326D01*
X108259573Y-121371006D01*
X108092620Y-121043343D01*
X107892332Y-120734925D01*
X107660902Y-120449133D01*
X107400867Y-120189098D01*
X107115075Y-119957668D01*
X107115073Y-119957666D01*
X106806662Y-119757382D01*
X106478997Y-119590428D01*
X106135681Y-119458641D01*
X106135674Y-119458639D01*
X105780459Y-119363459D01*
X105780455Y-119363458D01*
X105780454Y-119363458D01*
X105417242Y-119305931D01*
X105050001Y-119286685D01*
X105049999Y-119286685D01*
X104682757Y-119305931D01*
X104319546Y-119363458D01*
X104319544Y-119363458D01*
X103964318Y-119458641D01*
X103621002Y-119590428D01*
X103293338Y-119757382D01*
X102984926Y-119957666D01*
X102699137Y-120189094D01*
X102699129Y-120189101D01*
X102439101Y-120449129D01*
X102439094Y-120449137D01*
X102207666Y-120734926D01*
X102007382Y-121043338D01*
X101840428Y-121371002D01*
X101708641Y-121714318D01*
X101708639Y-121714326D01*
X101652375Y-121924308D01*
X101643775Y-121956402D01*
X101607410Y-122016062D01*
X101544563Y-122046591D01*
X101475187Y-122038296D01*
X101421309Y-121993811D01*
X101400035Y-121927259D01*
X101400000Y-121924308D01*
X101400000Y-111400003D01*
X112161859Y-111400003D01*
X112180364Y-111564246D01*
X112234958Y-111720268D01*
X112322898Y-111860223D01*
X112439777Y-111977102D01*
X112579733Y-112065042D01*
X112735748Y-112119634D01*
X112735751Y-112119634D01*
X112735753Y-112119635D01*
X112899996Y-112138141D01*
X112900000Y-112138141D01*
X112900004Y-112138141D01*
X113064246Y-112119635D01*
X113064247Y-112119634D01*
X113064252Y-112119634D01*
X113220267Y-112065042D01*
X113360223Y-111977102D01*
X113477102Y-111860223D01*
X113565042Y-111720267D01*
X113619634Y-111564252D01*
X113638141Y-111400003D01*
X119361859Y-111400003D01*
X119380364Y-111564246D01*
X119434958Y-111720268D01*
X119522898Y-111860223D01*
X119639777Y-111977102D01*
X119779733Y-112065042D01*
X119935748Y-112119634D01*
X119935751Y-112119634D01*
X119935753Y-112119635D01*
X120099996Y-112138141D01*
X120100000Y-112138141D01*
X120100004Y-112138141D01*
X120264246Y-112119635D01*
X120264247Y-112119634D01*
X120264252Y-112119634D01*
X120420267Y-112065042D01*
X120560223Y-111977102D01*
X120677102Y-111860223D01*
X120765042Y-111720267D01*
X120819634Y-111564252D01*
X120838141Y-111400003D01*
X126561859Y-111400003D01*
X126580364Y-111564246D01*
X126634958Y-111720268D01*
X126722898Y-111860223D01*
X126839777Y-111977102D01*
X126979733Y-112065042D01*
X127135748Y-112119634D01*
X127135751Y-112119634D01*
X127135753Y-112119635D01*
X127299996Y-112138141D01*
X127300000Y-112138141D01*
X127300004Y-112138141D01*
X127464246Y-112119635D01*
X127464247Y-112119634D01*
X127464252Y-112119634D01*
X127620267Y-112065042D01*
X127760223Y-111977102D01*
X127877102Y-111860223D01*
X127965042Y-111720267D01*
X128019634Y-111564252D01*
X128038141Y-111400003D01*
X133661859Y-111400003D01*
X133680364Y-111564246D01*
X133734958Y-111720268D01*
X133822898Y-111860223D01*
X133939777Y-111977102D01*
X134079733Y-112065042D01*
X134235748Y-112119634D01*
X134235751Y-112119634D01*
X134235753Y-112119635D01*
X134399996Y-112138141D01*
X134400000Y-112138141D01*
X134400004Y-112138141D01*
X134564246Y-112119635D01*
X134564247Y-112119634D01*
X134564252Y-112119634D01*
X134720267Y-112065042D01*
X134860223Y-111977102D01*
X134977102Y-111860223D01*
X135065042Y-111720267D01*
X135119634Y-111564252D01*
X135138141Y-111400003D01*
X140861859Y-111400003D01*
X140880364Y-111564246D01*
X140934958Y-111720268D01*
X141022898Y-111860223D01*
X141139777Y-111977102D01*
X141279733Y-112065042D01*
X141435748Y-112119634D01*
X141435751Y-112119634D01*
X141435753Y-112119635D01*
X141599996Y-112138141D01*
X141600000Y-112138141D01*
X141600004Y-112138141D01*
X141764246Y-112119635D01*
X141764247Y-112119634D01*
X141764252Y-112119634D01*
X141920267Y-112065042D01*
X142060223Y-111977102D01*
X142177102Y-111860223D01*
X142265042Y-111720267D01*
X142319634Y-111564252D01*
X142338141Y-111400003D01*
X147961859Y-111400003D01*
X147980364Y-111564246D01*
X148034958Y-111720268D01*
X148122898Y-111860223D01*
X148239777Y-111977102D01*
X148379733Y-112065042D01*
X148535748Y-112119634D01*
X148535751Y-112119634D01*
X148535753Y-112119635D01*
X148699996Y-112138141D01*
X148700000Y-112138141D01*
X148700004Y-112138141D01*
X148864246Y-112119635D01*
X148864247Y-112119634D01*
X148864252Y-112119634D01*
X149020267Y-112065042D01*
X149160223Y-111977102D01*
X149277102Y-111860223D01*
X149365042Y-111720267D01*
X149419634Y-111564252D01*
X149438141Y-111400003D01*
X155061859Y-111400003D01*
X155080364Y-111564246D01*
X155134958Y-111720268D01*
X155222898Y-111860223D01*
X155339777Y-111977102D01*
X155479733Y-112065042D01*
X155635748Y-112119634D01*
X155635751Y-112119634D01*
X155635753Y-112119635D01*
X155799996Y-112138141D01*
X155800000Y-112138141D01*
X155800004Y-112138141D01*
X155964246Y-112119635D01*
X155964247Y-112119634D01*
X155964252Y-112119634D01*
X156120267Y-112065042D01*
X156260223Y-111977102D01*
X156377102Y-111860223D01*
X156465042Y-111720267D01*
X156519634Y-111564252D01*
X156538141Y-111400000D01*
X156519634Y-111235748D01*
X156465042Y-111079733D01*
X156377102Y-110939777D01*
X156260223Y-110822898D01*
X156120268Y-110734958D01*
X155964246Y-110680364D01*
X155800004Y-110661859D01*
X155799996Y-110661859D01*
X155635753Y-110680364D01*
X155479731Y-110734958D01*
X155339776Y-110822898D01*
X155222898Y-110939776D01*
X155134958Y-111079731D01*
X155080364Y-111235753D01*
X155061859Y-111399996D01*
X155061859Y-111400003D01*
X149438141Y-111400003D01*
X149438141Y-111400000D01*
X149419634Y-111235748D01*
X149365042Y-111079733D01*
X149277102Y-110939777D01*
X149160223Y-110822898D01*
X149020268Y-110734958D01*
X148864246Y-110680364D01*
X148700004Y-110661859D01*
X148699996Y-110661859D01*
X148535753Y-110680364D01*
X148379731Y-110734958D01*
X148239776Y-110822898D01*
X148122898Y-110939776D01*
X148034958Y-111079731D01*
X147980364Y-111235753D01*
X147961859Y-111399996D01*
X147961859Y-111400003D01*
X142338141Y-111400003D01*
X142338141Y-111400000D01*
X142319634Y-111235748D01*
X142265042Y-111079733D01*
X142177102Y-110939777D01*
X142060223Y-110822898D01*
X141920268Y-110734958D01*
X141764246Y-110680364D01*
X141600004Y-110661859D01*
X141599996Y-110661859D01*
X141435753Y-110680364D01*
X141279731Y-110734958D01*
X141139776Y-110822898D01*
X141022898Y-110939776D01*
X140934958Y-111079731D01*
X140880364Y-111235753D01*
X140861859Y-111399996D01*
X140861859Y-111400003D01*
X135138141Y-111400003D01*
X135138141Y-111400000D01*
X135119634Y-111235748D01*
X135065042Y-111079733D01*
X134977102Y-110939777D01*
X134860223Y-110822898D01*
X134720268Y-110734958D01*
X134564246Y-110680364D01*
X134400004Y-110661859D01*
X134399996Y-110661859D01*
X134235753Y-110680364D01*
X134079731Y-110734958D01*
X133939776Y-110822898D01*
X133822898Y-110939776D01*
X133734958Y-111079731D01*
X133680364Y-111235753D01*
X133661859Y-111399996D01*
X133661859Y-111400003D01*
X128038141Y-111400003D01*
X128038141Y-111400000D01*
X128019634Y-111235748D01*
X127965042Y-111079733D01*
X127877102Y-110939777D01*
X127760223Y-110822898D01*
X127620268Y-110734958D01*
X127464246Y-110680364D01*
X127300004Y-110661859D01*
X127299996Y-110661859D01*
X127135753Y-110680364D01*
X126979731Y-110734958D01*
X126839776Y-110822898D01*
X126722898Y-110939776D01*
X126634958Y-111079731D01*
X126580364Y-111235753D01*
X126561859Y-111399996D01*
X126561859Y-111400003D01*
X120838141Y-111400003D01*
X120838141Y-111400000D01*
X120819634Y-111235748D01*
X120765042Y-111079733D01*
X120677102Y-110939777D01*
X120560223Y-110822898D01*
X120420268Y-110734958D01*
X120264246Y-110680364D01*
X120100004Y-110661859D01*
X120099996Y-110661859D01*
X119935753Y-110680364D01*
X119779731Y-110734958D01*
X119639776Y-110822898D01*
X119522898Y-110939776D01*
X119434958Y-111079731D01*
X119380364Y-111235753D01*
X119361859Y-111399996D01*
X119361859Y-111400003D01*
X113638141Y-111400003D01*
X113638141Y-111400000D01*
X113619634Y-111235748D01*
X113565042Y-111079733D01*
X113477102Y-110939777D01*
X113360223Y-110822898D01*
X113220268Y-110734958D01*
X113064246Y-110680364D01*
X112900004Y-110661859D01*
X112899996Y-110661859D01*
X112735753Y-110680364D01*
X112579731Y-110734958D01*
X112439776Y-110822898D01*
X112322898Y-110939776D01*
X112234958Y-111079731D01*
X112180364Y-111235753D01*
X112161859Y-111399996D01*
X112161859Y-111400003D01*
X101400000Y-111400003D01*
X101400000Y-109100000D01*
X108459629Y-109100000D01*
X108385473Y-109228443D01*
G37*
%TD.AperFunction*%
%TD*%
M02*
