M48
; DRILL file {KiCad 7.0.10} date Sat Feb  3 19:37:37 2024
; FORMAT={-:-/ absolute / inch / decimal}
; #@! TF.CreationDate,2024-02-03T19:37:37+01:00
; #@! TF.GenerationSoftware,Kicad,Pcbnew,7.0.10
; #@! TF.FileFunction,Plated,1,4,PTH
FMAT,2
INCH
; #@! TA.AperFunction,Plated,PTH,ViaDrill
T1C0.0079
; #@! TA.AperFunction,Plated,PTH,ViaDrill
T2C0.0118
; #@! TA.AperFunction,Plated,PTH,ViaDrill
T3C0.0157
; #@! TA.AperFunction,Plated,PTH,ComponentDrill
T4C0.0300
; #@! TA.AperFunction,Plated,PTH,ComponentDrill
T5C0.0409
; #@! TA.AperFunction,Plated,PTH,ComponentDrill
T6C0.0512
; #@! TA.AperFunction,Plated,PTH,ComponentDrill
T7C0.0984
%
G90
G05
T1
X4.4449Y-4.3858
X4.7283Y-4.3858
X5.0118Y-4.3858
X5.2913Y-4.3858
X5.5748Y-4.3858
X5.8543Y-4.3858
X6.1339Y-4.3858
X6.5214Y-4.0443
X6.541Y-4.0187
X6.5607Y-3.9931
X6.5804Y-3.9675
X6.6001Y-3.9419
X6.6198Y-3.9163
X6.6395Y-3.8907
X6.7615Y-4.0945
T2
X5.8937Y-3.3071
X5.9331Y-3.5709
X5.937Y-3.7087
X6.2598Y-3.5039
X6.2598Y-3.8346
X6.9055Y-3.6969
X7.0315Y-3.6969
T3
X4.3Y-4.315
X4.5827Y-4.315
X4.8661Y-4.3189
X5.1457Y-4.315
X5.4291Y-4.3189
X5.7126Y-4.3189
X5.9921Y-4.315
X6.2756Y-4.315
X6.563Y-4.315
X6.7331Y-3.3661
X6.8465Y-4.315
X7.0205Y-3.3661
X7.1299Y-4.315
X7.3039Y-3.3661
X7.4134Y-4.315
X7.5874Y-3.3661
T4
X4.3102Y-2.6902
X4.3102Y-3.05
X4.9102Y-2.6902
X4.9102Y-3.05
T5
X4.0803Y-3.1668
X4.0803Y-4.1668
X4.1803Y-3.1668
X4.1803Y-4.1668
X4.2803Y-3.1668
X4.2803Y-4.1668
X4.3803Y-3.1668
X4.3803Y-4.1668
X4.4803Y-3.1668
X4.4803Y-4.1668
X4.5803Y-3.1668
X4.5803Y-4.1668
X4.6803Y-3.1668
X4.6803Y-4.1668
X4.7803Y-3.1668
X4.7803Y-4.1668
X4.8803Y-3.1668
X4.8803Y-4.1668
X4.9803Y-3.1668
X4.9803Y-4.1668
X5.0803Y-3.1668
X5.0803Y-4.1668
X5.1803Y-3.1668
X5.1803Y-4.1668
X5.2803Y-3.1668
X5.2803Y-4.1668
X5.3803Y-3.1668
X5.3803Y-4.1668
X5.4803Y-3.1668
X5.4803Y-4.1668
X5.5803Y-3.1668
X5.5803Y-4.1668
X5.6803Y-3.1668
X5.6803Y-4.1668
X5.7803Y-3.1668
X5.7803Y-4.1668
X5.8803Y-3.1668
X5.8803Y-4.1668
T6
X4.2785Y-2.4079
X4.2785Y-5.2591
X4.4754Y-2.4079
X4.4754Y-5.2591
X4.6722Y-2.4079
X4.6722Y-5.2591
X4.8691Y-2.4079
X4.8691Y-5.2591
X5.0659Y-2.4079
X5.0659Y-5.2591
X5.2628Y-2.4079
X5.2628Y-5.2591
X5.4596Y-2.4079
X5.4596Y-5.2591
X5.6565Y-2.4079
X5.6565Y-5.2591
X6.247Y-2.4079
X6.247Y-5.2591
X6.4439Y-2.4079
X6.4439Y-5.2591
X6.6407Y-2.4079
X6.6407Y-5.2591
X6.8376Y-2.4079
X6.8376Y-5.2591
X7.0344Y-2.4079
X7.0344Y-5.2591
X7.2313Y-2.4079
X7.2313Y-5.2591
X7.4281Y-2.4079
X7.4281Y-5.2591
X7.625Y-2.4079
X7.625Y-5.2591
T7
X4.1358Y-2.8307
X4.1358Y-4.8346
X7.7677Y-2.8307
X7.7677Y-4.8346
M30
