%TF.GenerationSoftware,KiCad,Pcbnew,7.0.10*%
%TF.CreationDate,2024-02-03T19:37:43+01:00*%
%TF.ProjectId,led_stairs_controller,6c65645f-7374-4616-9972-735f636f6e74,V0.1*%
%TF.SameCoordinates,Original*%
%TF.FileFunction,Legend,Top*%
%TF.FilePolarity,Positive*%
%FSLAX46Y46*%
G04 Gerber Fmt 4.6, Leading zero omitted, Abs format (unit mm)*
G04 Created by KiCad (PCBNEW 7.0.10) date 2024-02-03 19:37:43*
%MOMM*%
%LPD*%
G01*
G04 APERTURE LIST*
%ADD10C,0.300000*%
%ADD11C,0.150000*%
%ADD12C,0.500000*%
%ADD13C,0.120000*%
%ADD14C,0.127000*%
%ADD15C,0.200000*%
G04 APERTURE END LIST*
D10*
X102640225Y-110900828D02*
X103140225Y-112400828D01*
X103140225Y-112400828D02*
X103640225Y-110900828D01*
X104425939Y-110900828D02*
X104568796Y-110900828D01*
X104568796Y-110900828D02*
X104711653Y-110972257D01*
X104711653Y-110972257D02*
X104783082Y-111043685D01*
X104783082Y-111043685D02*
X104854510Y-111186542D01*
X104854510Y-111186542D02*
X104925939Y-111472257D01*
X104925939Y-111472257D02*
X104925939Y-111829400D01*
X104925939Y-111829400D02*
X104854510Y-112115114D01*
X104854510Y-112115114D02*
X104783082Y-112257971D01*
X104783082Y-112257971D02*
X104711653Y-112329400D01*
X104711653Y-112329400D02*
X104568796Y-112400828D01*
X104568796Y-112400828D02*
X104425939Y-112400828D01*
X104425939Y-112400828D02*
X104283082Y-112329400D01*
X104283082Y-112329400D02*
X104211653Y-112257971D01*
X104211653Y-112257971D02*
X104140224Y-112115114D01*
X104140224Y-112115114D02*
X104068796Y-111829400D01*
X104068796Y-111829400D02*
X104068796Y-111472257D01*
X104068796Y-111472257D02*
X104140224Y-111186542D01*
X104140224Y-111186542D02*
X104211653Y-111043685D01*
X104211653Y-111043685D02*
X104283082Y-110972257D01*
X104283082Y-110972257D02*
X104425939Y-110900828D01*
X105568795Y-112257971D02*
X105640224Y-112329400D01*
X105640224Y-112329400D02*
X105568795Y-112400828D01*
X105568795Y-112400828D02*
X105497367Y-112329400D01*
X105497367Y-112329400D02*
X105568795Y-112257971D01*
X105568795Y-112257971D02*
X105568795Y-112400828D01*
X107068796Y-112400828D02*
X106211653Y-112400828D01*
X106640224Y-112400828D02*
X106640224Y-110900828D01*
X106640224Y-110900828D02*
X106497367Y-111115114D01*
X106497367Y-111115114D02*
X106354510Y-111257971D01*
X106354510Y-111257971D02*
X106211653Y-111329400D01*
D11*
X108060588Y-127369819D02*
X107489160Y-127369819D01*
X107774874Y-127369819D02*
X107774874Y-126369819D01*
X107774874Y-126369819D02*
X107679636Y-126512676D01*
X107679636Y-126512676D02*
X107584398Y-126607914D01*
X107584398Y-126607914D02*
X107489160Y-126655533D01*
X165904819Y-108566666D02*
X165428628Y-108899999D01*
X165904819Y-109138094D02*
X164904819Y-109138094D01*
X164904819Y-109138094D02*
X164904819Y-108757142D01*
X164904819Y-108757142D02*
X164952438Y-108661904D01*
X164952438Y-108661904D02*
X165000057Y-108614285D01*
X165000057Y-108614285D02*
X165095295Y-108566666D01*
X165095295Y-108566666D02*
X165238152Y-108566666D01*
X165238152Y-108566666D02*
X165333390Y-108614285D01*
X165333390Y-108614285D02*
X165381009Y-108661904D01*
X165381009Y-108661904D02*
X165428628Y-108757142D01*
X165428628Y-108757142D02*
X165428628Y-109138094D01*
X165333390Y-107995237D02*
X165285771Y-108090475D01*
X165285771Y-108090475D02*
X165238152Y-108138094D01*
X165238152Y-108138094D02*
X165142914Y-108185713D01*
X165142914Y-108185713D02*
X165095295Y-108185713D01*
X165095295Y-108185713D02*
X165000057Y-108138094D01*
X165000057Y-108138094D02*
X164952438Y-108090475D01*
X164952438Y-108090475D02*
X164904819Y-107995237D01*
X164904819Y-107995237D02*
X164904819Y-107804761D01*
X164904819Y-107804761D02*
X164952438Y-107709523D01*
X164952438Y-107709523D02*
X165000057Y-107661904D01*
X165000057Y-107661904D02*
X165095295Y-107614285D01*
X165095295Y-107614285D02*
X165142914Y-107614285D01*
X165142914Y-107614285D02*
X165238152Y-107661904D01*
X165238152Y-107661904D02*
X165285771Y-107709523D01*
X165285771Y-107709523D02*
X165333390Y-107804761D01*
X165333390Y-107804761D02*
X165333390Y-107995237D01*
X165333390Y-107995237D02*
X165381009Y-108090475D01*
X165381009Y-108090475D02*
X165428628Y-108138094D01*
X165428628Y-108138094D02*
X165523866Y-108185713D01*
X165523866Y-108185713D02*
X165714342Y-108185713D01*
X165714342Y-108185713D02*
X165809580Y-108138094D01*
X165809580Y-108138094D02*
X165857200Y-108090475D01*
X165857200Y-108090475D02*
X165904819Y-107995237D01*
X165904819Y-107995237D02*
X165904819Y-107804761D01*
X165904819Y-107804761D02*
X165857200Y-107709523D01*
X165857200Y-107709523D02*
X165809580Y-107661904D01*
X165809580Y-107661904D02*
X165714342Y-107614285D01*
X165714342Y-107614285D02*
X165523866Y-107614285D01*
X165523866Y-107614285D02*
X165428628Y-107661904D01*
X165428628Y-107661904D02*
X165381009Y-107709523D01*
X165381009Y-107709523D02*
X165333390Y-107804761D01*
X165524819Y-87342857D02*
X165048628Y-87676190D01*
X165524819Y-87914285D02*
X164524819Y-87914285D01*
X164524819Y-87914285D02*
X164524819Y-87533333D01*
X164524819Y-87533333D02*
X164572438Y-87438095D01*
X164572438Y-87438095D02*
X164620057Y-87390476D01*
X164620057Y-87390476D02*
X164715295Y-87342857D01*
X164715295Y-87342857D02*
X164858152Y-87342857D01*
X164858152Y-87342857D02*
X164953390Y-87390476D01*
X164953390Y-87390476D02*
X165001009Y-87438095D01*
X165001009Y-87438095D02*
X165048628Y-87533333D01*
X165048628Y-87533333D02*
X165048628Y-87914285D01*
X165524819Y-86390476D02*
X165524819Y-86961904D01*
X165524819Y-86676190D02*
X164524819Y-86676190D01*
X164524819Y-86676190D02*
X164667676Y-86771428D01*
X164667676Y-86771428D02*
X164762914Y-86866666D01*
X164762914Y-86866666D02*
X164810533Y-86961904D01*
X164524819Y-85533333D02*
X164524819Y-85723809D01*
X164524819Y-85723809D02*
X164572438Y-85819047D01*
X164572438Y-85819047D02*
X164620057Y-85866666D01*
X164620057Y-85866666D02*
X164762914Y-85961904D01*
X164762914Y-85961904D02*
X164953390Y-86009523D01*
X164953390Y-86009523D02*
X165334342Y-86009523D01*
X165334342Y-86009523D02*
X165429580Y-85961904D01*
X165429580Y-85961904D02*
X165477200Y-85914285D01*
X165477200Y-85914285D02*
X165524819Y-85819047D01*
X165524819Y-85819047D02*
X165524819Y-85628571D01*
X165524819Y-85628571D02*
X165477200Y-85533333D01*
X165477200Y-85533333D02*
X165429580Y-85485714D01*
X165429580Y-85485714D02*
X165334342Y-85438095D01*
X165334342Y-85438095D02*
X165096247Y-85438095D01*
X165096247Y-85438095D02*
X165001009Y-85485714D01*
X165001009Y-85485714D02*
X164953390Y-85533333D01*
X164953390Y-85533333D02*
X164905771Y-85628571D01*
X164905771Y-85628571D02*
X164905771Y-85819047D01*
X164905771Y-85819047D02*
X164953390Y-85914285D01*
X164953390Y-85914285D02*
X165001009Y-85961904D01*
X165001009Y-85961904D02*
X165096247Y-86009523D01*
X172700595Y-93454819D02*
X172700595Y-94264342D01*
X172700595Y-94264342D02*
X172748214Y-94359580D01*
X172748214Y-94359580D02*
X172795833Y-94407200D01*
X172795833Y-94407200D02*
X172891071Y-94454819D01*
X172891071Y-94454819D02*
X173081547Y-94454819D01*
X173081547Y-94454819D02*
X173176785Y-94407200D01*
X173176785Y-94407200D02*
X173224404Y-94359580D01*
X173224404Y-94359580D02*
X173272023Y-94264342D01*
X173272023Y-94264342D02*
X173272023Y-93454819D01*
X174272023Y-94454819D02*
X173700595Y-94454819D01*
X173986309Y-94454819D02*
X173986309Y-93454819D01*
X173986309Y-93454819D02*
X173891071Y-93597676D01*
X173891071Y-93597676D02*
X173795833Y-93692914D01*
X173795833Y-93692914D02*
X173700595Y-93740533D01*
X175381009Y-71309523D02*
X175381009Y-71642856D01*
X175904819Y-71642856D02*
X174904819Y-71642856D01*
X174904819Y-71642856D02*
X174904819Y-71166666D01*
X175904819Y-70261904D02*
X175904819Y-70833332D01*
X175904819Y-70547618D02*
X174904819Y-70547618D01*
X174904819Y-70547618D02*
X175047676Y-70642856D01*
X175047676Y-70642856D02*
X175142914Y-70738094D01*
X175142914Y-70738094D02*
X175190533Y-70833332D01*
X174904819Y-69357142D02*
X174904819Y-69833332D01*
X174904819Y-69833332D02*
X175381009Y-69880951D01*
X175381009Y-69880951D02*
X175333390Y-69833332D01*
X175333390Y-69833332D02*
X175285771Y-69738094D01*
X175285771Y-69738094D02*
X175285771Y-69499999D01*
X175285771Y-69499999D02*
X175333390Y-69404761D01*
X175333390Y-69404761D02*
X175381009Y-69357142D01*
X175381009Y-69357142D02*
X175476247Y-69309523D01*
X175476247Y-69309523D02*
X175714342Y-69309523D01*
X175714342Y-69309523D02*
X175809580Y-69357142D01*
X175809580Y-69357142D02*
X175857200Y-69404761D01*
X175857200Y-69404761D02*
X175904819Y-69499999D01*
X175904819Y-69499999D02*
X175904819Y-69738094D01*
X175904819Y-69738094D02*
X175857200Y-69833332D01*
X175857200Y-69833332D02*
X175809580Y-69880951D01*
X119631009Y-124833333D02*
X119631009Y-125166666D01*
X120154819Y-125166666D02*
X119154819Y-125166666D01*
X119154819Y-125166666D02*
X119154819Y-124690476D01*
X119250057Y-124357142D02*
X119202438Y-124309523D01*
X119202438Y-124309523D02*
X119154819Y-124214285D01*
X119154819Y-124214285D02*
X119154819Y-123976190D01*
X119154819Y-123976190D02*
X119202438Y-123880952D01*
X119202438Y-123880952D02*
X119250057Y-123833333D01*
X119250057Y-123833333D02*
X119345295Y-123785714D01*
X119345295Y-123785714D02*
X119440533Y-123785714D01*
X119440533Y-123785714D02*
X119583390Y-123833333D01*
X119583390Y-123833333D02*
X120154819Y-124404761D01*
X120154819Y-124404761D02*
X120154819Y-123785714D01*
X173204819Y-108566666D02*
X172728628Y-108899999D01*
X173204819Y-109138094D02*
X172204819Y-109138094D01*
X172204819Y-109138094D02*
X172204819Y-108757142D01*
X172204819Y-108757142D02*
X172252438Y-108661904D01*
X172252438Y-108661904D02*
X172300057Y-108614285D01*
X172300057Y-108614285D02*
X172395295Y-108566666D01*
X172395295Y-108566666D02*
X172538152Y-108566666D01*
X172538152Y-108566666D02*
X172633390Y-108614285D01*
X172633390Y-108614285D02*
X172681009Y-108661904D01*
X172681009Y-108661904D02*
X172728628Y-108757142D01*
X172728628Y-108757142D02*
X172728628Y-109138094D01*
X173204819Y-108090475D02*
X173204819Y-107899999D01*
X173204819Y-107899999D02*
X173157200Y-107804761D01*
X173157200Y-107804761D02*
X173109580Y-107757142D01*
X173109580Y-107757142D02*
X172966723Y-107661904D01*
X172966723Y-107661904D02*
X172776247Y-107614285D01*
X172776247Y-107614285D02*
X172395295Y-107614285D01*
X172395295Y-107614285D02*
X172300057Y-107661904D01*
X172300057Y-107661904D02*
X172252438Y-107709523D01*
X172252438Y-107709523D02*
X172204819Y-107804761D01*
X172204819Y-107804761D02*
X172204819Y-107995237D01*
X172204819Y-107995237D02*
X172252438Y-108090475D01*
X172252438Y-108090475D02*
X172300057Y-108138094D01*
X172300057Y-108138094D02*
X172395295Y-108185713D01*
X172395295Y-108185713D02*
X172633390Y-108185713D01*
X172633390Y-108185713D02*
X172728628Y-108138094D01*
X172728628Y-108138094D02*
X172776247Y-108090475D01*
X172776247Y-108090475D02*
X172823866Y-107995237D01*
X172823866Y-107995237D02*
X172823866Y-107804761D01*
X172823866Y-107804761D02*
X172776247Y-107709523D01*
X172776247Y-107709523D02*
X172728628Y-107661904D01*
X172728628Y-107661904D02*
X172633390Y-107614285D01*
X111424761Y-111950057D02*
X111329523Y-111902438D01*
X111329523Y-111902438D02*
X111234285Y-111807200D01*
X111234285Y-111807200D02*
X111091428Y-111664342D01*
X111091428Y-111664342D02*
X110996190Y-111616723D01*
X110996190Y-111616723D02*
X110900952Y-111616723D01*
X110948571Y-111854819D02*
X110853333Y-111807200D01*
X110853333Y-111807200D02*
X110758095Y-111711961D01*
X110758095Y-111711961D02*
X110710476Y-111521485D01*
X110710476Y-111521485D02*
X110710476Y-111188152D01*
X110710476Y-111188152D02*
X110758095Y-110997676D01*
X110758095Y-110997676D02*
X110853333Y-110902438D01*
X110853333Y-110902438D02*
X110948571Y-110854819D01*
X110948571Y-110854819D02*
X111139047Y-110854819D01*
X111139047Y-110854819D02*
X111234285Y-110902438D01*
X111234285Y-110902438D02*
X111329523Y-110997676D01*
X111329523Y-110997676D02*
X111377142Y-111188152D01*
X111377142Y-111188152D02*
X111377142Y-111521485D01*
X111377142Y-111521485D02*
X111329523Y-111711961D01*
X111329523Y-111711961D02*
X111234285Y-111807200D01*
X111234285Y-111807200D02*
X111139047Y-111854819D01*
X111139047Y-111854819D02*
X110948571Y-111854819D01*
X112329523Y-111854819D02*
X111758095Y-111854819D01*
X112043809Y-111854819D02*
X112043809Y-110854819D01*
X112043809Y-110854819D02*
X111948571Y-110997676D01*
X111948571Y-110997676D02*
X111853333Y-111092914D01*
X111853333Y-111092914D02*
X111758095Y-111140533D01*
X161629761Y-112025057D02*
X161534523Y-111977438D01*
X161534523Y-111977438D02*
X161439285Y-111882200D01*
X161439285Y-111882200D02*
X161296428Y-111739342D01*
X161296428Y-111739342D02*
X161201190Y-111691723D01*
X161201190Y-111691723D02*
X161105952Y-111691723D01*
X161153571Y-111929819D02*
X161058333Y-111882200D01*
X161058333Y-111882200D02*
X160963095Y-111786961D01*
X160963095Y-111786961D02*
X160915476Y-111596485D01*
X160915476Y-111596485D02*
X160915476Y-111263152D01*
X160915476Y-111263152D02*
X160963095Y-111072676D01*
X160963095Y-111072676D02*
X161058333Y-110977438D01*
X161058333Y-110977438D02*
X161153571Y-110929819D01*
X161153571Y-110929819D02*
X161344047Y-110929819D01*
X161344047Y-110929819D02*
X161439285Y-110977438D01*
X161439285Y-110977438D02*
X161534523Y-111072676D01*
X161534523Y-111072676D02*
X161582142Y-111263152D01*
X161582142Y-111263152D02*
X161582142Y-111596485D01*
X161582142Y-111596485D02*
X161534523Y-111786961D01*
X161534523Y-111786961D02*
X161439285Y-111882200D01*
X161439285Y-111882200D02*
X161344047Y-111929819D01*
X161344047Y-111929819D02*
X161153571Y-111929819D01*
X162153571Y-111358390D02*
X162058333Y-111310771D01*
X162058333Y-111310771D02*
X162010714Y-111263152D01*
X162010714Y-111263152D02*
X161963095Y-111167914D01*
X161963095Y-111167914D02*
X161963095Y-111120295D01*
X161963095Y-111120295D02*
X162010714Y-111025057D01*
X162010714Y-111025057D02*
X162058333Y-110977438D01*
X162058333Y-110977438D02*
X162153571Y-110929819D01*
X162153571Y-110929819D02*
X162344047Y-110929819D01*
X162344047Y-110929819D02*
X162439285Y-110977438D01*
X162439285Y-110977438D02*
X162486904Y-111025057D01*
X162486904Y-111025057D02*
X162534523Y-111120295D01*
X162534523Y-111120295D02*
X162534523Y-111167914D01*
X162534523Y-111167914D02*
X162486904Y-111263152D01*
X162486904Y-111263152D02*
X162439285Y-111310771D01*
X162439285Y-111310771D02*
X162344047Y-111358390D01*
X162344047Y-111358390D02*
X162153571Y-111358390D01*
X162153571Y-111358390D02*
X162058333Y-111406009D01*
X162058333Y-111406009D02*
X162010714Y-111453628D01*
X162010714Y-111453628D02*
X161963095Y-111548866D01*
X161963095Y-111548866D02*
X161963095Y-111739342D01*
X161963095Y-111739342D02*
X162010714Y-111834580D01*
X162010714Y-111834580D02*
X162058333Y-111882200D01*
X162058333Y-111882200D02*
X162153571Y-111929819D01*
X162153571Y-111929819D02*
X162344047Y-111929819D01*
X162344047Y-111929819D02*
X162439285Y-111882200D01*
X162439285Y-111882200D02*
X162486904Y-111834580D01*
X162486904Y-111834580D02*
X162534523Y-111739342D01*
X162534523Y-111739342D02*
X162534523Y-111548866D01*
X162534523Y-111548866D02*
X162486904Y-111453628D01*
X162486904Y-111453628D02*
X162439285Y-111406009D01*
X162439285Y-111406009D02*
X162344047Y-111358390D01*
X147324761Y-112250057D02*
X147229523Y-112202438D01*
X147229523Y-112202438D02*
X147134285Y-112107200D01*
X147134285Y-112107200D02*
X146991428Y-111964342D01*
X146991428Y-111964342D02*
X146896190Y-111916723D01*
X146896190Y-111916723D02*
X146800952Y-111916723D01*
X146848571Y-112154819D02*
X146753333Y-112107200D01*
X146753333Y-112107200D02*
X146658095Y-112011961D01*
X146658095Y-112011961D02*
X146610476Y-111821485D01*
X146610476Y-111821485D02*
X146610476Y-111488152D01*
X146610476Y-111488152D02*
X146658095Y-111297676D01*
X146658095Y-111297676D02*
X146753333Y-111202438D01*
X146753333Y-111202438D02*
X146848571Y-111154819D01*
X146848571Y-111154819D02*
X147039047Y-111154819D01*
X147039047Y-111154819D02*
X147134285Y-111202438D01*
X147134285Y-111202438D02*
X147229523Y-111297676D01*
X147229523Y-111297676D02*
X147277142Y-111488152D01*
X147277142Y-111488152D02*
X147277142Y-111821485D01*
X147277142Y-111821485D02*
X147229523Y-112011961D01*
X147229523Y-112011961D02*
X147134285Y-112107200D01*
X147134285Y-112107200D02*
X147039047Y-112154819D01*
X147039047Y-112154819D02*
X146848571Y-112154819D01*
X148134285Y-111154819D02*
X147943809Y-111154819D01*
X147943809Y-111154819D02*
X147848571Y-111202438D01*
X147848571Y-111202438D02*
X147800952Y-111250057D01*
X147800952Y-111250057D02*
X147705714Y-111392914D01*
X147705714Y-111392914D02*
X147658095Y-111583390D01*
X147658095Y-111583390D02*
X147658095Y-111964342D01*
X147658095Y-111964342D02*
X147705714Y-112059580D01*
X147705714Y-112059580D02*
X147753333Y-112107200D01*
X147753333Y-112107200D02*
X147848571Y-112154819D01*
X147848571Y-112154819D02*
X148039047Y-112154819D01*
X148039047Y-112154819D02*
X148134285Y-112107200D01*
X148134285Y-112107200D02*
X148181904Y-112059580D01*
X148181904Y-112059580D02*
X148229523Y-111964342D01*
X148229523Y-111964342D02*
X148229523Y-111726247D01*
X148229523Y-111726247D02*
X148181904Y-111631009D01*
X148181904Y-111631009D02*
X148134285Y-111583390D01*
X148134285Y-111583390D02*
X148039047Y-111535771D01*
X148039047Y-111535771D02*
X147848571Y-111535771D01*
X147848571Y-111535771D02*
X147753333Y-111583390D01*
X147753333Y-111583390D02*
X147705714Y-111631009D01*
X147705714Y-111631009D02*
X147658095Y-111726247D01*
X140781009Y-124833333D02*
X140781009Y-125166666D01*
X141304819Y-125166666D02*
X140304819Y-125166666D01*
X140304819Y-125166666D02*
X140304819Y-124690476D01*
X140304819Y-123833333D02*
X140304819Y-124309523D01*
X140304819Y-124309523D02*
X140781009Y-124357142D01*
X140781009Y-124357142D02*
X140733390Y-124309523D01*
X140733390Y-124309523D02*
X140685771Y-124214285D01*
X140685771Y-124214285D02*
X140685771Y-123976190D01*
X140685771Y-123976190D02*
X140733390Y-123880952D01*
X140733390Y-123880952D02*
X140781009Y-123833333D01*
X140781009Y-123833333D02*
X140876247Y-123785714D01*
X140876247Y-123785714D02*
X141114342Y-123785714D01*
X141114342Y-123785714D02*
X141209580Y-123833333D01*
X141209580Y-123833333D02*
X141257200Y-123880952D01*
X141257200Y-123880952D02*
X141304819Y-123976190D01*
X141304819Y-123976190D02*
X141304819Y-124214285D01*
X141304819Y-124214285D02*
X141257200Y-124309523D01*
X141257200Y-124309523D02*
X141209580Y-124357142D01*
X175693571Y-112025057D02*
X175598333Y-111977438D01*
X175598333Y-111977438D02*
X175503095Y-111882200D01*
X175503095Y-111882200D02*
X175360238Y-111739342D01*
X175360238Y-111739342D02*
X175265000Y-111691723D01*
X175265000Y-111691723D02*
X175169762Y-111691723D01*
X175217381Y-111929819D02*
X175122143Y-111882200D01*
X175122143Y-111882200D02*
X175026905Y-111786961D01*
X175026905Y-111786961D02*
X174979286Y-111596485D01*
X174979286Y-111596485D02*
X174979286Y-111263152D01*
X174979286Y-111263152D02*
X175026905Y-111072676D01*
X175026905Y-111072676D02*
X175122143Y-110977438D01*
X175122143Y-110977438D02*
X175217381Y-110929819D01*
X175217381Y-110929819D02*
X175407857Y-110929819D01*
X175407857Y-110929819D02*
X175503095Y-110977438D01*
X175503095Y-110977438D02*
X175598333Y-111072676D01*
X175598333Y-111072676D02*
X175645952Y-111263152D01*
X175645952Y-111263152D02*
X175645952Y-111596485D01*
X175645952Y-111596485D02*
X175598333Y-111786961D01*
X175598333Y-111786961D02*
X175503095Y-111882200D01*
X175503095Y-111882200D02*
X175407857Y-111929819D01*
X175407857Y-111929819D02*
X175217381Y-111929819D01*
X176598333Y-111929819D02*
X176026905Y-111929819D01*
X176312619Y-111929819D02*
X176312619Y-110929819D01*
X176312619Y-110929819D02*
X176217381Y-111072676D01*
X176217381Y-111072676D02*
X176122143Y-111167914D01*
X176122143Y-111167914D02*
X176026905Y-111215533D01*
X177217381Y-110929819D02*
X177312619Y-110929819D01*
X177312619Y-110929819D02*
X177407857Y-110977438D01*
X177407857Y-110977438D02*
X177455476Y-111025057D01*
X177455476Y-111025057D02*
X177503095Y-111120295D01*
X177503095Y-111120295D02*
X177550714Y-111310771D01*
X177550714Y-111310771D02*
X177550714Y-111548866D01*
X177550714Y-111548866D02*
X177503095Y-111739342D01*
X177503095Y-111739342D02*
X177455476Y-111834580D01*
X177455476Y-111834580D02*
X177407857Y-111882200D01*
X177407857Y-111882200D02*
X177312619Y-111929819D01*
X177312619Y-111929819D02*
X177217381Y-111929819D01*
X177217381Y-111929819D02*
X177122143Y-111882200D01*
X177122143Y-111882200D02*
X177074524Y-111834580D01*
X177074524Y-111834580D02*
X177026905Y-111739342D01*
X177026905Y-111739342D02*
X176979286Y-111548866D01*
X176979286Y-111548866D02*
X176979286Y-111310771D01*
X176979286Y-111310771D02*
X177026905Y-111120295D01*
X177026905Y-111120295D02*
X177074524Y-111025057D01*
X177074524Y-111025057D02*
X177122143Y-110977438D01*
X177122143Y-110977438D02*
X177217381Y-110929819D01*
X189031009Y-125309523D02*
X189031009Y-125642856D01*
X189554819Y-125642856D02*
X188554819Y-125642856D01*
X188554819Y-125642856D02*
X188554819Y-125166666D01*
X189554819Y-124261904D02*
X189554819Y-124833332D01*
X189554819Y-124547618D02*
X188554819Y-124547618D01*
X188554819Y-124547618D02*
X188697676Y-124642856D01*
X188697676Y-124642856D02*
X188792914Y-124738094D01*
X188792914Y-124738094D02*
X188840533Y-124833332D01*
X188650057Y-123880951D02*
X188602438Y-123833332D01*
X188602438Y-123833332D02*
X188554819Y-123738094D01*
X188554819Y-123738094D02*
X188554819Y-123499999D01*
X188554819Y-123499999D02*
X188602438Y-123404761D01*
X188602438Y-123404761D02*
X188650057Y-123357142D01*
X188650057Y-123357142D02*
X188745295Y-123309523D01*
X188745295Y-123309523D02*
X188840533Y-123309523D01*
X188840533Y-123309523D02*
X188983390Y-123357142D01*
X188983390Y-123357142D02*
X189554819Y-123928570D01*
X189554819Y-123928570D02*
X189554819Y-123309523D01*
X152354819Y-98742857D02*
X151878628Y-99076190D01*
X152354819Y-99314285D02*
X151354819Y-99314285D01*
X151354819Y-99314285D02*
X151354819Y-98933333D01*
X151354819Y-98933333D02*
X151402438Y-98838095D01*
X151402438Y-98838095D02*
X151450057Y-98790476D01*
X151450057Y-98790476D02*
X151545295Y-98742857D01*
X151545295Y-98742857D02*
X151688152Y-98742857D01*
X151688152Y-98742857D02*
X151783390Y-98790476D01*
X151783390Y-98790476D02*
X151831009Y-98838095D01*
X151831009Y-98838095D02*
X151878628Y-98933333D01*
X151878628Y-98933333D02*
X151878628Y-99314285D01*
X152354819Y-97790476D02*
X152354819Y-98361904D01*
X152354819Y-98076190D02*
X151354819Y-98076190D01*
X151354819Y-98076190D02*
X151497676Y-98171428D01*
X151497676Y-98171428D02*
X151592914Y-98266666D01*
X151592914Y-98266666D02*
X151640533Y-98361904D01*
X152354819Y-97314285D02*
X152354819Y-97123809D01*
X152354819Y-97123809D02*
X152307200Y-97028571D01*
X152307200Y-97028571D02*
X152259580Y-96980952D01*
X152259580Y-96980952D02*
X152116723Y-96885714D01*
X152116723Y-96885714D02*
X151926247Y-96838095D01*
X151926247Y-96838095D02*
X151545295Y-96838095D01*
X151545295Y-96838095D02*
X151450057Y-96885714D01*
X151450057Y-96885714D02*
X151402438Y-96933333D01*
X151402438Y-96933333D02*
X151354819Y-97028571D01*
X151354819Y-97028571D02*
X151354819Y-97219047D01*
X151354819Y-97219047D02*
X151402438Y-97314285D01*
X151402438Y-97314285D02*
X151450057Y-97361904D01*
X151450057Y-97361904D02*
X151545295Y-97409523D01*
X151545295Y-97409523D02*
X151783390Y-97409523D01*
X151783390Y-97409523D02*
X151878628Y-97361904D01*
X151878628Y-97361904D02*
X151926247Y-97314285D01*
X151926247Y-97314285D02*
X151973866Y-97219047D01*
X151973866Y-97219047D02*
X151973866Y-97028571D01*
X151973866Y-97028571D02*
X151926247Y-96933333D01*
X151926247Y-96933333D02*
X151878628Y-96885714D01*
X151878628Y-96885714D02*
X151783390Y-96838095D01*
X147357142Y-86154819D02*
X147023809Y-85678628D01*
X146785714Y-86154819D02*
X146785714Y-85154819D01*
X146785714Y-85154819D02*
X147166666Y-85154819D01*
X147166666Y-85154819D02*
X147261904Y-85202438D01*
X147261904Y-85202438D02*
X147309523Y-85250057D01*
X147309523Y-85250057D02*
X147357142Y-85345295D01*
X147357142Y-85345295D02*
X147357142Y-85488152D01*
X147357142Y-85488152D02*
X147309523Y-85583390D01*
X147309523Y-85583390D02*
X147261904Y-85631009D01*
X147261904Y-85631009D02*
X147166666Y-85678628D01*
X147166666Y-85678628D02*
X146785714Y-85678628D01*
X148309523Y-86154819D02*
X147738095Y-86154819D01*
X148023809Y-86154819D02*
X148023809Y-85154819D01*
X148023809Y-85154819D02*
X147928571Y-85297676D01*
X147928571Y-85297676D02*
X147833333Y-85392914D01*
X147833333Y-85392914D02*
X147738095Y-85440533D01*
X148642857Y-85154819D02*
X149309523Y-85154819D01*
X149309523Y-85154819D02*
X148880952Y-86154819D01*
X125684761Y-112250057D02*
X125589523Y-112202438D01*
X125589523Y-112202438D02*
X125494285Y-112107200D01*
X125494285Y-112107200D02*
X125351428Y-111964342D01*
X125351428Y-111964342D02*
X125256190Y-111916723D01*
X125256190Y-111916723D02*
X125160952Y-111916723D01*
X125208571Y-112154819D02*
X125113333Y-112107200D01*
X125113333Y-112107200D02*
X125018095Y-112011961D01*
X125018095Y-112011961D02*
X124970476Y-111821485D01*
X124970476Y-111821485D02*
X124970476Y-111488152D01*
X124970476Y-111488152D02*
X125018095Y-111297676D01*
X125018095Y-111297676D02*
X125113333Y-111202438D01*
X125113333Y-111202438D02*
X125208571Y-111154819D01*
X125208571Y-111154819D02*
X125399047Y-111154819D01*
X125399047Y-111154819D02*
X125494285Y-111202438D01*
X125494285Y-111202438D02*
X125589523Y-111297676D01*
X125589523Y-111297676D02*
X125637142Y-111488152D01*
X125637142Y-111488152D02*
X125637142Y-111821485D01*
X125637142Y-111821485D02*
X125589523Y-112011961D01*
X125589523Y-112011961D02*
X125494285Y-112107200D01*
X125494285Y-112107200D02*
X125399047Y-112154819D01*
X125399047Y-112154819D02*
X125208571Y-112154819D01*
X125970476Y-111154819D02*
X126589523Y-111154819D01*
X126589523Y-111154819D02*
X126256190Y-111535771D01*
X126256190Y-111535771D02*
X126399047Y-111535771D01*
X126399047Y-111535771D02*
X126494285Y-111583390D01*
X126494285Y-111583390D02*
X126541904Y-111631009D01*
X126541904Y-111631009D02*
X126589523Y-111726247D01*
X126589523Y-111726247D02*
X126589523Y-111964342D01*
X126589523Y-111964342D02*
X126541904Y-112059580D01*
X126541904Y-112059580D02*
X126494285Y-112107200D01*
X126494285Y-112107200D02*
X126399047Y-112154819D01*
X126399047Y-112154819D02*
X126113333Y-112154819D01*
X126113333Y-112154819D02*
X126018095Y-112107200D01*
X126018095Y-112107200D02*
X125970476Y-112059580D01*
X168481009Y-71309523D02*
X168481009Y-71642856D01*
X169004819Y-71642856D02*
X168004819Y-71642856D01*
X168004819Y-71642856D02*
X168004819Y-71166666D01*
X169004819Y-70261904D02*
X169004819Y-70833332D01*
X169004819Y-70547618D02*
X168004819Y-70547618D01*
X168004819Y-70547618D02*
X168147676Y-70642856D01*
X168147676Y-70642856D02*
X168242914Y-70738094D01*
X168242914Y-70738094D02*
X168290533Y-70833332D01*
X168004819Y-69404761D02*
X168004819Y-69595237D01*
X168004819Y-69595237D02*
X168052438Y-69690475D01*
X168052438Y-69690475D02*
X168100057Y-69738094D01*
X168100057Y-69738094D02*
X168242914Y-69833332D01*
X168242914Y-69833332D02*
X168433390Y-69880951D01*
X168433390Y-69880951D02*
X168814342Y-69880951D01*
X168814342Y-69880951D02*
X168909580Y-69833332D01*
X168909580Y-69833332D02*
X168957200Y-69785713D01*
X168957200Y-69785713D02*
X169004819Y-69690475D01*
X169004819Y-69690475D02*
X169004819Y-69499999D01*
X169004819Y-69499999D02*
X168957200Y-69404761D01*
X168957200Y-69404761D02*
X168909580Y-69357142D01*
X168909580Y-69357142D02*
X168814342Y-69309523D01*
X168814342Y-69309523D02*
X168576247Y-69309523D01*
X168576247Y-69309523D02*
X168481009Y-69357142D01*
X168481009Y-69357142D02*
X168433390Y-69404761D01*
X168433390Y-69404761D02*
X168385771Y-69499999D01*
X168385771Y-69499999D02*
X168385771Y-69690475D01*
X168385771Y-69690475D02*
X168433390Y-69785713D01*
X168433390Y-69785713D02*
X168481009Y-69833332D01*
X168481009Y-69833332D02*
X168576247Y-69880951D01*
X161131009Y-124895833D02*
X161131009Y-125229166D01*
X161654819Y-125229166D02*
X160654819Y-125229166D01*
X160654819Y-125229166D02*
X160654819Y-124752976D01*
X161083390Y-124229166D02*
X161035771Y-124324404D01*
X161035771Y-124324404D02*
X160988152Y-124372023D01*
X160988152Y-124372023D02*
X160892914Y-124419642D01*
X160892914Y-124419642D02*
X160845295Y-124419642D01*
X160845295Y-124419642D02*
X160750057Y-124372023D01*
X160750057Y-124372023D02*
X160702438Y-124324404D01*
X160702438Y-124324404D02*
X160654819Y-124229166D01*
X160654819Y-124229166D02*
X160654819Y-124038690D01*
X160654819Y-124038690D02*
X160702438Y-123943452D01*
X160702438Y-123943452D02*
X160750057Y-123895833D01*
X160750057Y-123895833D02*
X160845295Y-123848214D01*
X160845295Y-123848214D02*
X160892914Y-123848214D01*
X160892914Y-123848214D02*
X160988152Y-123895833D01*
X160988152Y-123895833D02*
X161035771Y-123943452D01*
X161035771Y-123943452D02*
X161083390Y-124038690D01*
X161083390Y-124038690D02*
X161083390Y-124229166D01*
X161083390Y-124229166D02*
X161131009Y-124324404D01*
X161131009Y-124324404D02*
X161178628Y-124372023D01*
X161178628Y-124372023D02*
X161273866Y-124419642D01*
X161273866Y-124419642D02*
X161464342Y-124419642D01*
X161464342Y-124419642D02*
X161559580Y-124372023D01*
X161559580Y-124372023D02*
X161607200Y-124324404D01*
X161607200Y-124324404D02*
X161654819Y-124229166D01*
X161654819Y-124229166D02*
X161654819Y-124038690D01*
X161654819Y-124038690D02*
X161607200Y-123943452D01*
X161607200Y-123943452D02*
X161559580Y-123895833D01*
X161559580Y-123895833D02*
X161464342Y-123848214D01*
X161464342Y-123848214D02*
X161273866Y-123848214D01*
X161273866Y-123848214D02*
X161178628Y-123895833D01*
X161178628Y-123895833D02*
X161131009Y-123943452D01*
X161131009Y-123943452D02*
X161083390Y-124038690D01*
X168228571Y-84250057D02*
X168133333Y-84202438D01*
X168133333Y-84202438D02*
X168038095Y-84107200D01*
X168038095Y-84107200D02*
X167895238Y-83964342D01*
X167895238Y-83964342D02*
X167800000Y-83916723D01*
X167800000Y-83916723D02*
X167704762Y-83916723D01*
X167752381Y-84154819D02*
X167657143Y-84107200D01*
X167657143Y-84107200D02*
X167561905Y-84011961D01*
X167561905Y-84011961D02*
X167514286Y-83821485D01*
X167514286Y-83821485D02*
X167514286Y-83488152D01*
X167514286Y-83488152D02*
X167561905Y-83297676D01*
X167561905Y-83297676D02*
X167657143Y-83202438D01*
X167657143Y-83202438D02*
X167752381Y-83154819D01*
X167752381Y-83154819D02*
X167942857Y-83154819D01*
X167942857Y-83154819D02*
X168038095Y-83202438D01*
X168038095Y-83202438D02*
X168133333Y-83297676D01*
X168133333Y-83297676D02*
X168180952Y-83488152D01*
X168180952Y-83488152D02*
X168180952Y-83821485D01*
X168180952Y-83821485D02*
X168133333Y-84011961D01*
X168133333Y-84011961D02*
X168038095Y-84107200D01*
X168038095Y-84107200D02*
X167942857Y-84154819D01*
X167942857Y-84154819D02*
X167752381Y-84154819D01*
X169133333Y-84154819D02*
X168561905Y-84154819D01*
X168847619Y-84154819D02*
X168847619Y-83154819D01*
X168847619Y-83154819D02*
X168752381Y-83297676D01*
X168752381Y-83297676D02*
X168657143Y-83392914D01*
X168657143Y-83392914D02*
X168561905Y-83440533D01*
X169990476Y-83154819D02*
X169800000Y-83154819D01*
X169800000Y-83154819D02*
X169704762Y-83202438D01*
X169704762Y-83202438D02*
X169657143Y-83250057D01*
X169657143Y-83250057D02*
X169561905Y-83392914D01*
X169561905Y-83392914D02*
X169514286Y-83583390D01*
X169514286Y-83583390D02*
X169514286Y-83964342D01*
X169514286Y-83964342D02*
X169561905Y-84059580D01*
X169561905Y-84059580D02*
X169609524Y-84107200D01*
X169609524Y-84107200D02*
X169704762Y-84154819D01*
X169704762Y-84154819D02*
X169895238Y-84154819D01*
X169895238Y-84154819D02*
X169990476Y-84107200D01*
X169990476Y-84107200D02*
X170038095Y-84059580D01*
X170038095Y-84059580D02*
X170085714Y-83964342D01*
X170085714Y-83964342D02*
X170085714Y-83726247D01*
X170085714Y-83726247D02*
X170038095Y-83631009D01*
X170038095Y-83631009D02*
X169990476Y-83583390D01*
X169990476Y-83583390D02*
X169895238Y-83535771D01*
X169895238Y-83535771D02*
X169704762Y-83535771D01*
X169704762Y-83535771D02*
X169609524Y-83583390D01*
X169609524Y-83583390D02*
X169561905Y-83631009D01*
X169561905Y-83631009D02*
X169514286Y-83726247D01*
X154091071Y-89550057D02*
X153995833Y-89502438D01*
X153995833Y-89502438D02*
X153900595Y-89407200D01*
X153900595Y-89407200D02*
X153757738Y-89264342D01*
X153757738Y-89264342D02*
X153662500Y-89216723D01*
X153662500Y-89216723D02*
X153567262Y-89216723D01*
X153614881Y-89454819D02*
X153519643Y-89407200D01*
X153519643Y-89407200D02*
X153424405Y-89311961D01*
X153424405Y-89311961D02*
X153376786Y-89121485D01*
X153376786Y-89121485D02*
X153376786Y-88788152D01*
X153376786Y-88788152D02*
X153424405Y-88597676D01*
X153424405Y-88597676D02*
X153519643Y-88502438D01*
X153519643Y-88502438D02*
X153614881Y-88454819D01*
X153614881Y-88454819D02*
X153805357Y-88454819D01*
X153805357Y-88454819D02*
X153900595Y-88502438D01*
X153900595Y-88502438D02*
X153995833Y-88597676D01*
X153995833Y-88597676D02*
X154043452Y-88788152D01*
X154043452Y-88788152D02*
X154043452Y-89121485D01*
X154043452Y-89121485D02*
X153995833Y-89311961D01*
X153995833Y-89311961D02*
X153900595Y-89407200D01*
X153900595Y-89407200D02*
X153805357Y-89454819D01*
X153805357Y-89454819D02*
X153614881Y-89454819D01*
X154995833Y-89454819D02*
X154424405Y-89454819D01*
X154710119Y-89454819D02*
X154710119Y-88454819D01*
X154710119Y-88454819D02*
X154614881Y-88597676D01*
X154614881Y-88597676D02*
X154519643Y-88692914D01*
X154519643Y-88692914D02*
X154424405Y-88740533D01*
X155567262Y-88883390D02*
X155472024Y-88835771D01*
X155472024Y-88835771D02*
X155424405Y-88788152D01*
X155424405Y-88788152D02*
X155376786Y-88692914D01*
X155376786Y-88692914D02*
X155376786Y-88645295D01*
X155376786Y-88645295D02*
X155424405Y-88550057D01*
X155424405Y-88550057D02*
X155472024Y-88502438D01*
X155472024Y-88502438D02*
X155567262Y-88454819D01*
X155567262Y-88454819D02*
X155757738Y-88454819D01*
X155757738Y-88454819D02*
X155852976Y-88502438D01*
X155852976Y-88502438D02*
X155900595Y-88550057D01*
X155900595Y-88550057D02*
X155948214Y-88645295D01*
X155948214Y-88645295D02*
X155948214Y-88692914D01*
X155948214Y-88692914D02*
X155900595Y-88788152D01*
X155900595Y-88788152D02*
X155852976Y-88835771D01*
X155852976Y-88835771D02*
X155757738Y-88883390D01*
X155757738Y-88883390D02*
X155567262Y-88883390D01*
X155567262Y-88883390D02*
X155472024Y-88931009D01*
X155472024Y-88931009D02*
X155424405Y-88978628D01*
X155424405Y-88978628D02*
X155376786Y-89073866D01*
X155376786Y-89073866D02*
X155376786Y-89264342D01*
X155376786Y-89264342D02*
X155424405Y-89359580D01*
X155424405Y-89359580D02*
X155472024Y-89407200D01*
X155472024Y-89407200D02*
X155567262Y-89454819D01*
X155567262Y-89454819D02*
X155757738Y-89454819D01*
X155757738Y-89454819D02*
X155852976Y-89407200D01*
X155852976Y-89407200D02*
X155900595Y-89359580D01*
X155900595Y-89359580D02*
X155948214Y-89264342D01*
X155948214Y-89264342D02*
X155948214Y-89073866D01*
X155948214Y-89073866D02*
X155900595Y-88978628D01*
X155900595Y-88978628D02*
X155852976Y-88931009D01*
X155852976Y-88931009D02*
X155757738Y-88883390D01*
X168031009Y-124933333D02*
X168031009Y-125266666D01*
X168554819Y-125266666D02*
X167554819Y-125266666D01*
X167554819Y-125266666D02*
X167554819Y-124790476D01*
X168554819Y-124361904D02*
X168554819Y-124171428D01*
X168554819Y-124171428D02*
X168507200Y-124076190D01*
X168507200Y-124076190D02*
X168459580Y-124028571D01*
X168459580Y-124028571D02*
X168316723Y-123933333D01*
X168316723Y-123933333D02*
X168126247Y-123885714D01*
X168126247Y-123885714D02*
X167745295Y-123885714D01*
X167745295Y-123885714D02*
X167650057Y-123933333D01*
X167650057Y-123933333D02*
X167602438Y-123980952D01*
X167602438Y-123980952D02*
X167554819Y-124076190D01*
X167554819Y-124076190D02*
X167554819Y-124266666D01*
X167554819Y-124266666D02*
X167602438Y-124361904D01*
X167602438Y-124361904D02*
X167650057Y-124409523D01*
X167650057Y-124409523D02*
X167745295Y-124457142D01*
X167745295Y-124457142D02*
X167983390Y-124457142D01*
X167983390Y-124457142D02*
X168078628Y-124409523D01*
X168078628Y-124409523D02*
X168126247Y-124361904D01*
X168126247Y-124361904D02*
X168173866Y-124266666D01*
X168173866Y-124266666D02*
X168173866Y-124076190D01*
X168173866Y-124076190D02*
X168126247Y-123980952D01*
X168126247Y-123980952D02*
X168078628Y-123933333D01*
X168078628Y-123933333D02*
X167983390Y-123885714D01*
X194804819Y-109067857D02*
X194328628Y-109401190D01*
X194804819Y-109639285D02*
X193804819Y-109639285D01*
X193804819Y-109639285D02*
X193804819Y-109258333D01*
X193804819Y-109258333D02*
X193852438Y-109163095D01*
X193852438Y-109163095D02*
X193900057Y-109115476D01*
X193900057Y-109115476D02*
X193995295Y-109067857D01*
X193995295Y-109067857D02*
X194138152Y-109067857D01*
X194138152Y-109067857D02*
X194233390Y-109115476D01*
X194233390Y-109115476D02*
X194281009Y-109163095D01*
X194281009Y-109163095D02*
X194328628Y-109258333D01*
X194328628Y-109258333D02*
X194328628Y-109639285D01*
X194804819Y-108115476D02*
X194804819Y-108686904D01*
X194804819Y-108401190D02*
X193804819Y-108401190D01*
X193804819Y-108401190D02*
X193947676Y-108496428D01*
X193947676Y-108496428D02*
X194042914Y-108591666D01*
X194042914Y-108591666D02*
X194090533Y-108686904D01*
X193900057Y-107734523D02*
X193852438Y-107686904D01*
X193852438Y-107686904D02*
X193804819Y-107591666D01*
X193804819Y-107591666D02*
X193804819Y-107353571D01*
X193804819Y-107353571D02*
X193852438Y-107258333D01*
X193852438Y-107258333D02*
X193900057Y-107210714D01*
X193900057Y-107210714D02*
X193995295Y-107163095D01*
X193995295Y-107163095D02*
X194090533Y-107163095D01*
X194090533Y-107163095D02*
X194233390Y-107210714D01*
X194233390Y-107210714D02*
X194804819Y-107782142D01*
X194804819Y-107782142D02*
X194804819Y-107163095D01*
X180404819Y-109042857D02*
X179928628Y-109376190D01*
X180404819Y-109614285D02*
X179404819Y-109614285D01*
X179404819Y-109614285D02*
X179404819Y-109233333D01*
X179404819Y-109233333D02*
X179452438Y-109138095D01*
X179452438Y-109138095D02*
X179500057Y-109090476D01*
X179500057Y-109090476D02*
X179595295Y-109042857D01*
X179595295Y-109042857D02*
X179738152Y-109042857D01*
X179738152Y-109042857D02*
X179833390Y-109090476D01*
X179833390Y-109090476D02*
X179881009Y-109138095D01*
X179881009Y-109138095D02*
X179928628Y-109233333D01*
X179928628Y-109233333D02*
X179928628Y-109614285D01*
X180404819Y-108090476D02*
X180404819Y-108661904D01*
X180404819Y-108376190D02*
X179404819Y-108376190D01*
X179404819Y-108376190D02*
X179547676Y-108471428D01*
X179547676Y-108471428D02*
X179642914Y-108566666D01*
X179642914Y-108566666D02*
X179690533Y-108661904D01*
X179404819Y-107471428D02*
X179404819Y-107376190D01*
X179404819Y-107376190D02*
X179452438Y-107280952D01*
X179452438Y-107280952D02*
X179500057Y-107233333D01*
X179500057Y-107233333D02*
X179595295Y-107185714D01*
X179595295Y-107185714D02*
X179785771Y-107138095D01*
X179785771Y-107138095D02*
X180023866Y-107138095D01*
X180023866Y-107138095D02*
X180214342Y-107185714D01*
X180214342Y-107185714D02*
X180309580Y-107233333D01*
X180309580Y-107233333D02*
X180357200Y-107280952D01*
X180357200Y-107280952D02*
X180404819Y-107376190D01*
X180404819Y-107376190D02*
X180404819Y-107471428D01*
X180404819Y-107471428D02*
X180357200Y-107566666D01*
X180357200Y-107566666D02*
X180309580Y-107614285D01*
X180309580Y-107614285D02*
X180214342Y-107661904D01*
X180214342Y-107661904D02*
X180023866Y-107709523D01*
X180023866Y-107709523D02*
X179785771Y-107709523D01*
X179785771Y-107709523D02*
X179595295Y-107661904D01*
X179595295Y-107661904D02*
X179500057Y-107614285D01*
X179500057Y-107614285D02*
X179452438Y-107566666D01*
X179452438Y-107566666D02*
X179404819Y-107471428D01*
X189081009Y-71309523D02*
X189081009Y-71642856D01*
X189604819Y-71642856D02*
X188604819Y-71642856D01*
X188604819Y-71642856D02*
X188604819Y-71166666D01*
X189604819Y-70261904D02*
X189604819Y-70833332D01*
X189604819Y-70547618D02*
X188604819Y-70547618D01*
X188604819Y-70547618D02*
X188747676Y-70642856D01*
X188747676Y-70642856D02*
X188842914Y-70738094D01*
X188842914Y-70738094D02*
X188890533Y-70833332D01*
X188604819Y-69928570D02*
X188604819Y-69309523D01*
X188604819Y-69309523D02*
X188985771Y-69642856D01*
X188985771Y-69642856D02*
X188985771Y-69499999D01*
X188985771Y-69499999D02*
X189033390Y-69404761D01*
X189033390Y-69404761D02*
X189081009Y-69357142D01*
X189081009Y-69357142D02*
X189176247Y-69309523D01*
X189176247Y-69309523D02*
X189414342Y-69309523D01*
X189414342Y-69309523D02*
X189509580Y-69357142D01*
X189509580Y-69357142D02*
X189557200Y-69404761D01*
X189557200Y-69404761D02*
X189604819Y-69499999D01*
X189604819Y-69499999D02*
X189604819Y-69785713D01*
X189604819Y-69785713D02*
X189557200Y-69880951D01*
X189557200Y-69880951D02*
X189509580Y-69928570D01*
X182581009Y-71309523D02*
X182581009Y-71642856D01*
X183104819Y-71642856D02*
X182104819Y-71642856D01*
X182104819Y-71642856D02*
X182104819Y-71166666D01*
X183104819Y-70261904D02*
X183104819Y-70833332D01*
X183104819Y-70547618D02*
X182104819Y-70547618D01*
X182104819Y-70547618D02*
X182247676Y-70642856D01*
X182247676Y-70642856D02*
X182342914Y-70738094D01*
X182342914Y-70738094D02*
X182390533Y-70833332D01*
X182438152Y-69404761D02*
X183104819Y-69404761D01*
X182057200Y-69642856D02*
X182771485Y-69880951D01*
X182771485Y-69880951D02*
X182771485Y-69261904D01*
X161154819Y-96342857D02*
X160678628Y-96676190D01*
X161154819Y-96914285D02*
X160154819Y-96914285D01*
X160154819Y-96914285D02*
X160154819Y-96533333D01*
X160154819Y-96533333D02*
X160202438Y-96438095D01*
X160202438Y-96438095D02*
X160250057Y-96390476D01*
X160250057Y-96390476D02*
X160345295Y-96342857D01*
X160345295Y-96342857D02*
X160488152Y-96342857D01*
X160488152Y-96342857D02*
X160583390Y-96390476D01*
X160583390Y-96390476D02*
X160631009Y-96438095D01*
X160631009Y-96438095D02*
X160678628Y-96533333D01*
X160678628Y-96533333D02*
X160678628Y-96914285D01*
X161154819Y-95390476D02*
X161154819Y-95961904D01*
X161154819Y-95676190D02*
X160154819Y-95676190D01*
X160154819Y-95676190D02*
X160297676Y-95771428D01*
X160297676Y-95771428D02*
X160392914Y-95866666D01*
X160392914Y-95866666D02*
X160440533Y-95961904D01*
X160583390Y-94819047D02*
X160535771Y-94914285D01*
X160535771Y-94914285D02*
X160488152Y-94961904D01*
X160488152Y-94961904D02*
X160392914Y-95009523D01*
X160392914Y-95009523D02*
X160345295Y-95009523D01*
X160345295Y-95009523D02*
X160250057Y-94961904D01*
X160250057Y-94961904D02*
X160202438Y-94914285D01*
X160202438Y-94914285D02*
X160154819Y-94819047D01*
X160154819Y-94819047D02*
X160154819Y-94628571D01*
X160154819Y-94628571D02*
X160202438Y-94533333D01*
X160202438Y-94533333D02*
X160250057Y-94485714D01*
X160250057Y-94485714D02*
X160345295Y-94438095D01*
X160345295Y-94438095D02*
X160392914Y-94438095D01*
X160392914Y-94438095D02*
X160488152Y-94485714D01*
X160488152Y-94485714D02*
X160535771Y-94533333D01*
X160535771Y-94533333D02*
X160583390Y-94628571D01*
X160583390Y-94628571D02*
X160583390Y-94819047D01*
X160583390Y-94819047D02*
X160631009Y-94914285D01*
X160631009Y-94914285D02*
X160678628Y-94961904D01*
X160678628Y-94961904D02*
X160773866Y-95009523D01*
X160773866Y-95009523D02*
X160964342Y-95009523D01*
X160964342Y-95009523D02*
X161059580Y-94961904D01*
X161059580Y-94961904D02*
X161107200Y-94914285D01*
X161107200Y-94914285D02*
X161154819Y-94819047D01*
X161154819Y-94819047D02*
X161154819Y-94628571D01*
X161154819Y-94628571D02*
X161107200Y-94533333D01*
X161107200Y-94533333D02*
X161059580Y-94485714D01*
X161059580Y-94485714D02*
X160964342Y-94438095D01*
X160964342Y-94438095D02*
X160773866Y-94438095D01*
X160773866Y-94438095D02*
X160678628Y-94485714D01*
X160678628Y-94485714D02*
X160631009Y-94533333D01*
X160631009Y-94533333D02*
X160583390Y-94628571D01*
X175428571Y-84250057D02*
X175333333Y-84202438D01*
X175333333Y-84202438D02*
X175238095Y-84107200D01*
X175238095Y-84107200D02*
X175095238Y-83964342D01*
X175095238Y-83964342D02*
X175000000Y-83916723D01*
X175000000Y-83916723D02*
X174904762Y-83916723D01*
X174952381Y-84154819D02*
X174857143Y-84107200D01*
X174857143Y-84107200D02*
X174761905Y-84011961D01*
X174761905Y-84011961D02*
X174714286Y-83821485D01*
X174714286Y-83821485D02*
X174714286Y-83488152D01*
X174714286Y-83488152D02*
X174761905Y-83297676D01*
X174761905Y-83297676D02*
X174857143Y-83202438D01*
X174857143Y-83202438D02*
X174952381Y-83154819D01*
X174952381Y-83154819D02*
X175142857Y-83154819D01*
X175142857Y-83154819D02*
X175238095Y-83202438D01*
X175238095Y-83202438D02*
X175333333Y-83297676D01*
X175333333Y-83297676D02*
X175380952Y-83488152D01*
X175380952Y-83488152D02*
X175380952Y-83821485D01*
X175380952Y-83821485D02*
X175333333Y-84011961D01*
X175333333Y-84011961D02*
X175238095Y-84107200D01*
X175238095Y-84107200D02*
X175142857Y-84154819D01*
X175142857Y-84154819D02*
X174952381Y-84154819D01*
X176333333Y-84154819D02*
X175761905Y-84154819D01*
X176047619Y-84154819D02*
X176047619Y-83154819D01*
X176047619Y-83154819D02*
X175952381Y-83297676D01*
X175952381Y-83297676D02*
X175857143Y-83392914D01*
X175857143Y-83392914D02*
X175761905Y-83440533D01*
X177238095Y-83154819D02*
X176761905Y-83154819D01*
X176761905Y-83154819D02*
X176714286Y-83631009D01*
X176714286Y-83631009D02*
X176761905Y-83583390D01*
X176761905Y-83583390D02*
X176857143Y-83535771D01*
X176857143Y-83535771D02*
X177095238Y-83535771D01*
X177095238Y-83535771D02*
X177190476Y-83583390D01*
X177190476Y-83583390D02*
X177238095Y-83631009D01*
X177238095Y-83631009D02*
X177285714Y-83726247D01*
X177285714Y-83726247D02*
X177285714Y-83964342D01*
X177285714Y-83964342D02*
X177238095Y-84059580D01*
X177238095Y-84059580D02*
X177190476Y-84107200D01*
X177190476Y-84107200D02*
X177095238Y-84154819D01*
X177095238Y-84154819D02*
X176857143Y-84154819D01*
X176857143Y-84154819D02*
X176761905Y-84107200D01*
X176761905Y-84107200D02*
X176714286Y-84059580D01*
X177633333Y-92859580D02*
X177585714Y-92907200D01*
X177585714Y-92907200D02*
X177442857Y-92954819D01*
X177442857Y-92954819D02*
X177347619Y-92954819D01*
X177347619Y-92954819D02*
X177204762Y-92907200D01*
X177204762Y-92907200D02*
X177109524Y-92811961D01*
X177109524Y-92811961D02*
X177061905Y-92716723D01*
X177061905Y-92716723D02*
X177014286Y-92526247D01*
X177014286Y-92526247D02*
X177014286Y-92383390D01*
X177014286Y-92383390D02*
X177061905Y-92192914D01*
X177061905Y-92192914D02*
X177109524Y-92097676D01*
X177109524Y-92097676D02*
X177204762Y-92002438D01*
X177204762Y-92002438D02*
X177347619Y-91954819D01*
X177347619Y-91954819D02*
X177442857Y-91954819D01*
X177442857Y-91954819D02*
X177585714Y-92002438D01*
X177585714Y-92002438D02*
X177633333Y-92050057D01*
X178585714Y-92954819D02*
X178014286Y-92954819D01*
X178300000Y-92954819D02*
X178300000Y-91954819D01*
X178300000Y-91954819D02*
X178204762Y-92097676D01*
X178204762Y-92097676D02*
X178109524Y-92192914D01*
X178109524Y-92192914D02*
X178014286Y-92240533D01*
X118624761Y-112150057D02*
X118529523Y-112102438D01*
X118529523Y-112102438D02*
X118434285Y-112007200D01*
X118434285Y-112007200D02*
X118291428Y-111864342D01*
X118291428Y-111864342D02*
X118196190Y-111816723D01*
X118196190Y-111816723D02*
X118100952Y-111816723D01*
X118148571Y-112054819D02*
X118053333Y-112007200D01*
X118053333Y-112007200D02*
X117958095Y-111911961D01*
X117958095Y-111911961D02*
X117910476Y-111721485D01*
X117910476Y-111721485D02*
X117910476Y-111388152D01*
X117910476Y-111388152D02*
X117958095Y-111197676D01*
X117958095Y-111197676D02*
X118053333Y-111102438D01*
X118053333Y-111102438D02*
X118148571Y-111054819D01*
X118148571Y-111054819D02*
X118339047Y-111054819D01*
X118339047Y-111054819D02*
X118434285Y-111102438D01*
X118434285Y-111102438D02*
X118529523Y-111197676D01*
X118529523Y-111197676D02*
X118577142Y-111388152D01*
X118577142Y-111388152D02*
X118577142Y-111721485D01*
X118577142Y-111721485D02*
X118529523Y-111911961D01*
X118529523Y-111911961D02*
X118434285Y-112007200D01*
X118434285Y-112007200D02*
X118339047Y-112054819D01*
X118339047Y-112054819D02*
X118148571Y-112054819D01*
X118958095Y-111150057D02*
X119005714Y-111102438D01*
X119005714Y-111102438D02*
X119100952Y-111054819D01*
X119100952Y-111054819D02*
X119339047Y-111054819D01*
X119339047Y-111054819D02*
X119434285Y-111102438D01*
X119434285Y-111102438D02*
X119481904Y-111150057D01*
X119481904Y-111150057D02*
X119529523Y-111245295D01*
X119529523Y-111245295D02*
X119529523Y-111340533D01*
X119529523Y-111340533D02*
X119481904Y-111483390D01*
X119481904Y-111483390D02*
X118910476Y-112054819D01*
X118910476Y-112054819D02*
X119529523Y-112054819D01*
X157589819Y-83074404D02*
X158399342Y-83074404D01*
X158399342Y-83074404D02*
X158494580Y-83026785D01*
X158494580Y-83026785D02*
X158542200Y-82979166D01*
X158542200Y-82979166D02*
X158589819Y-82883928D01*
X158589819Y-82883928D02*
X158589819Y-82693452D01*
X158589819Y-82693452D02*
X158542200Y-82598214D01*
X158542200Y-82598214D02*
X158494580Y-82550595D01*
X158494580Y-82550595D02*
X158399342Y-82502976D01*
X158399342Y-82502976D02*
X157589819Y-82502976D01*
X157685057Y-82074404D02*
X157637438Y-82026785D01*
X157637438Y-82026785D02*
X157589819Y-81931547D01*
X157589819Y-81931547D02*
X157589819Y-81693452D01*
X157589819Y-81693452D02*
X157637438Y-81598214D01*
X157637438Y-81598214D02*
X157685057Y-81550595D01*
X157685057Y-81550595D02*
X157780295Y-81502976D01*
X157780295Y-81502976D02*
X157875533Y-81502976D01*
X157875533Y-81502976D02*
X158018390Y-81550595D01*
X158018390Y-81550595D02*
X158589819Y-82122023D01*
X158589819Y-82122023D02*
X158589819Y-81502976D01*
X136177800Y-101926660D02*
X136130180Y-102069517D01*
X136130180Y-102069517D02*
X136130180Y-102307612D01*
X136130180Y-102307612D02*
X136177800Y-102402850D01*
X136177800Y-102402850D02*
X136225419Y-102450469D01*
X136225419Y-102450469D02*
X136320657Y-102498088D01*
X136320657Y-102498088D02*
X136415895Y-102498088D01*
X136415895Y-102498088D02*
X136511133Y-102450469D01*
X136511133Y-102450469D02*
X136558752Y-102402850D01*
X136558752Y-102402850D02*
X136606371Y-102307612D01*
X136606371Y-102307612D02*
X136653990Y-102117136D01*
X136653990Y-102117136D02*
X136701609Y-102021898D01*
X136701609Y-102021898D02*
X136749228Y-101974279D01*
X136749228Y-101974279D02*
X136844466Y-101926660D01*
X136844466Y-101926660D02*
X136939704Y-101926660D01*
X136939704Y-101926660D02*
X137034942Y-101974279D01*
X137034942Y-101974279D02*
X137082561Y-102021898D01*
X137082561Y-102021898D02*
X137130180Y-102117136D01*
X137130180Y-102117136D02*
X137130180Y-102355231D01*
X137130180Y-102355231D02*
X137082561Y-102498088D01*
X136130180Y-102926660D02*
X137130180Y-102926660D01*
X137130180Y-102926660D02*
X137130180Y-103164755D01*
X137130180Y-103164755D02*
X137082561Y-103307612D01*
X137082561Y-103307612D02*
X136987323Y-103402850D01*
X136987323Y-103402850D02*
X136892085Y-103450469D01*
X136892085Y-103450469D02*
X136701609Y-103498088D01*
X136701609Y-103498088D02*
X136558752Y-103498088D01*
X136558752Y-103498088D02*
X136368276Y-103450469D01*
X136368276Y-103450469D02*
X136273038Y-103402850D01*
X136273038Y-103402850D02*
X136177800Y-103307612D01*
X136177800Y-103307612D02*
X136130180Y-103164755D01*
X136130180Y-103164755D02*
X136130180Y-102926660D01*
X136415895Y-103879041D02*
X136415895Y-104355231D01*
X136130180Y-103783803D02*
X137130180Y-104117136D01*
X137130180Y-104117136D02*
X136130180Y-104450469D01*
X141177800Y-101926660D02*
X141130180Y-102069517D01*
X141130180Y-102069517D02*
X141130180Y-102307612D01*
X141130180Y-102307612D02*
X141177800Y-102402850D01*
X141177800Y-102402850D02*
X141225419Y-102450469D01*
X141225419Y-102450469D02*
X141320657Y-102498088D01*
X141320657Y-102498088D02*
X141415895Y-102498088D01*
X141415895Y-102498088D02*
X141511133Y-102450469D01*
X141511133Y-102450469D02*
X141558752Y-102402850D01*
X141558752Y-102402850D02*
X141606371Y-102307612D01*
X141606371Y-102307612D02*
X141653990Y-102117136D01*
X141653990Y-102117136D02*
X141701609Y-102021898D01*
X141701609Y-102021898D02*
X141749228Y-101974279D01*
X141749228Y-101974279D02*
X141844466Y-101926660D01*
X141844466Y-101926660D02*
X141939704Y-101926660D01*
X141939704Y-101926660D02*
X142034942Y-101974279D01*
X142034942Y-101974279D02*
X142082561Y-102021898D01*
X142082561Y-102021898D02*
X142130180Y-102117136D01*
X142130180Y-102117136D02*
X142130180Y-102355231D01*
X142130180Y-102355231D02*
X142082561Y-102498088D01*
X141225419Y-103498088D02*
X141177800Y-103450469D01*
X141177800Y-103450469D02*
X141130180Y-103307612D01*
X141130180Y-103307612D02*
X141130180Y-103212374D01*
X141130180Y-103212374D02*
X141177800Y-103069517D01*
X141177800Y-103069517D02*
X141273038Y-102974279D01*
X141273038Y-102974279D02*
X141368276Y-102926660D01*
X141368276Y-102926660D02*
X141558752Y-102879041D01*
X141558752Y-102879041D02*
X141701609Y-102879041D01*
X141701609Y-102879041D02*
X141892085Y-102926660D01*
X141892085Y-102926660D02*
X141987323Y-102974279D01*
X141987323Y-102974279D02*
X142082561Y-103069517D01*
X142082561Y-103069517D02*
X142130180Y-103212374D01*
X142130180Y-103212374D02*
X142130180Y-103307612D01*
X142130180Y-103307612D02*
X142082561Y-103450469D01*
X142082561Y-103450469D02*
X142034942Y-103498088D01*
X141130180Y-104402850D02*
X141130180Y-103926660D01*
X141130180Y-103926660D02*
X142130180Y-103926660D01*
X101581667Y-68424819D02*
X101581667Y-67424819D01*
X101581667Y-67424819D02*
X101915000Y-68139104D01*
X101915000Y-68139104D02*
X102248333Y-67424819D01*
X102248333Y-67424819D02*
X102248333Y-68424819D01*
X102915000Y-67424819D02*
X103105476Y-67424819D01*
X103105476Y-67424819D02*
X103200714Y-67472438D01*
X103200714Y-67472438D02*
X103295952Y-67567676D01*
X103295952Y-67567676D02*
X103343571Y-67758152D01*
X103343571Y-67758152D02*
X103343571Y-68091485D01*
X103343571Y-68091485D02*
X103295952Y-68281961D01*
X103295952Y-68281961D02*
X103200714Y-68377200D01*
X103200714Y-68377200D02*
X103105476Y-68424819D01*
X103105476Y-68424819D02*
X102915000Y-68424819D01*
X102915000Y-68424819D02*
X102819762Y-68377200D01*
X102819762Y-68377200D02*
X102724524Y-68281961D01*
X102724524Y-68281961D02*
X102676905Y-68091485D01*
X102676905Y-68091485D02*
X102676905Y-67758152D01*
X102676905Y-67758152D02*
X102724524Y-67567676D01*
X102724524Y-67567676D02*
X102819762Y-67472438D01*
X102819762Y-67472438D02*
X102915000Y-67424819D01*
X103772143Y-68424819D02*
X103772143Y-67424819D01*
X103772143Y-67424819D02*
X104010238Y-67424819D01*
X104010238Y-67424819D02*
X104153095Y-67472438D01*
X104153095Y-67472438D02*
X104248333Y-67567676D01*
X104248333Y-67567676D02*
X104295952Y-67662914D01*
X104295952Y-67662914D02*
X104343571Y-67853390D01*
X104343571Y-67853390D02*
X104343571Y-67996247D01*
X104343571Y-67996247D02*
X104295952Y-68186723D01*
X104295952Y-68186723D02*
X104248333Y-68281961D01*
X104248333Y-68281961D02*
X104153095Y-68377200D01*
X104153095Y-68377200D02*
X104010238Y-68424819D01*
X104010238Y-68424819D02*
X103772143Y-68424819D01*
X105295952Y-68424819D02*
X104724524Y-68424819D01*
X105010238Y-68424819D02*
X105010238Y-67424819D01*
X105010238Y-67424819D02*
X104915000Y-67567676D01*
X104915000Y-67567676D02*
X104819762Y-67662914D01*
X104819762Y-67662914D02*
X104724524Y-67710533D01*
D12*
X102265851Y-134711619D02*
X104170613Y-134711619D01*
X101884899Y-135854476D02*
X103218232Y-131854476D01*
X103218232Y-131854476D02*
X104551566Y-135854476D01*
X198849661Y-133569238D02*
X199421089Y-133759714D01*
X199421089Y-133759714D02*
X199611566Y-133950190D01*
X199611566Y-133950190D02*
X199802042Y-134331142D01*
X199802042Y-134331142D02*
X199802042Y-134902571D01*
X199802042Y-134902571D02*
X199611566Y-135283523D01*
X199611566Y-135283523D02*
X199421089Y-135474000D01*
X199421089Y-135474000D02*
X199040137Y-135664476D01*
X199040137Y-135664476D02*
X197516327Y-135664476D01*
X197516327Y-135664476D02*
X197516327Y-131664476D01*
X197516327Y-131664476D02*
X198849661Y-131664476D01*
X198849661Y-131664476D02*
X199230613Y-131854952D01*
X199230613Y-131854952D02*
X199421089Y-132045428D01*
X199421089Y-132045428D02*
X199611566Y-132426380D01*
X199611566Y-132426380D02*
X199611566Y-132807333D01*
X199611566Y-132807333D02*
X199421089Y-133188285D01*
X199421089Y-133188285D02*
X199230613Y-133378761D01*
X199230613Y-133378761D02*
X198849661Y-133569238D01*
X198849661Y-133569238D02*
X197516327Y-133569238D01*
X102456327Y-62854476D02*
X102456327Y-58854476D01*
X102456327Y-58854476D02*
X103408708Y-58854476D01*
X103408708Y-58854476D02*
X103980137Y-59044952D01*
X103980137Y-59044952D02*
X104361089Y-59425904D01*
X104361089Y-59425904D02*
X104551566Y-59806857D01*
X104551566Y-59806857D02*
X104742042Y-60568761D01*
X104742042Y-60568761D02*
X104742042Y-61140190D01*
X104742042Y-61140190D02*
X104551566Y-61902095D01*
X104551566Y-61902095D02*
X104361089Y-62283047D01*
X104361089Y-62283047D02*
X103980137Y-62664000D01*
X103980137Y-62664000D02*
X103408708Y-62854476D01*
X103408708Y-62854476D02*
X102456327Y-62854476D01*
X199802042Y-62564523D02*
X199611566Y-62755000D01*
X199611566Y-62755000D02*
X199040137Y-62945476D01*
X199040137Y-62945476D02*
X198659185Y-62945476D01*
X198659185Y-62945476D02*
X198087756Y-62755000D01*
X198087756Y-62755000D02*
X197706804Y-62374047D01*
X197706804Y-62374047D02*
X197516327Y-61993095D01*
X197516327Y-61993095D02*
X197325851Y-61231190D01*
X197325851Y-61231190D02*
X197325851Y-60659761D01*
X197325851Y-60659761D02*
X197516327Y-59897857D01*
X197516327Y-59897857D02*
X197706804Y-59516904D01*
X197706804Y-59516904D02*
X198087756Y-59135952D01*
X198087756Y-59135952D02*
X198659185Y-58945476D01*
X198659185Y-58945476D02*
X199040137Y-58945476D01*
X199040137Y-58945476D02*
X199611566Y-59135952D01*
X199611566Y-59135952D02*
X199802042Y-59326428D01*
D11*
X180024819Y-87317857D02*
X179548628Y-87651190D01*
X180024819Y-87889285D02*
X179024819Y-87889285D01*
X179024819Y-87889285D02*
X179024819Y-87508333D01*
X179024819Y-87508333D02*
X179072438Y-87413095D01*
X179072438Y-87413095D02*
X179120057Y-87365476D01*
X179120057Y-87365476D02*
X179215295Y-87317857D01*
X179215295Y-87317857D02*
X179358152Y-87317857D01*
X179358152Y-87317857D02*
X179453390Y-87365476D01*
X179453390Y-87365476D02*
X179501009Y-87413095D01*
X179501009Y-87413095D02*
X179548628Y-87508333D01*
X179548628Y-87508333D02*
X179548628Y-87889285D01*
X180024819Y-86365476D02*
X180024819Y-86936904D01*
X180024819Y-86651190D02*
X179024819Y-86651190D01*
X179024819Y-86651190D02*
X179167676Y-86746428D01*
X179167676Y-86746428D02*
X179262914Y-86841666D01*
X179262914Y-86841666D02*
X179310533Y-86936904D01*
X179358152Y-85508333D02*
X180024819Y-85508333D01*
X178977200Y-85746428D02*
X179691485Y-85984523D01*
X179691485Y-85984523D02*
X179691485Y-85365476D01*
X132944761Y-112250057D02*
X132849523Y-112202438D01*
X132849523Y-112202438D02*
X132754285Y-112107200D01*
X132754285Y-112107200D02*
X132611428Y-111964342D01*
X132611428Y-111964342D02*
X132516190Y-111916723D01*
X132516190Y-111916723D02*
X132420952Y-111916723D01*
X132468571Y-112154819D02*
X132373333Y-112107200D01*
X132373333Y-112107200D02*
X132278095Y-112011961D01*
X132278095Y-112011961D02*
X132230476Y-111821485D01*
X132230476Y-111821485D02*
X132230476Y-111488152D01*
X132230476Y-111488152D02*
X132278095Y-111297676D01*
X132278095Y-111297676D02*
X132373333Y-111202438D01*
X132373333Y-111202438D02*
X132468571Y-111154819D01*
X132468571Y-111154819D02*
X132659047Y-111154819D01*
X132659047Y-111154819D02*
X132754285Y-111202438D01*
X132754285Y-111202438D02*
X132849523Y-111297676D01*
X132849523Y-111297676D02*
X132897142Y-111488152D01*
X132897142Y-111488152D02*
X132897142Y-111821485D01*
X132897142Y-111821485D02*
X132849523Y-112011961D01*
X132849523Y-112011961D02*
X132754285Y-112107200D01*
X132754285Y-112107200D02*
X132659047Y-112154819D01*
X132659047Y-112154819D02*
X132468571Y-112154819D01*
X133754285Y-111488152D02*
X133754285Y-112154819D01*
X133516190Y-111107200D02*
X133278095Y-111821485D01*
X133278095Y-111821485D02*
X133897142Y-111821485D01*
X182848571Y-111950057D02*
X182753333Y-111902438D01*
X182753333Y-111902438D02*
X182658095Y-111807200D01*
X182658095Y-111807200D02*
X182515238Y-111664342D01*
X182515238Y-111664342D02*
X182420000Y-111616723D01*
X182420000Y-111616723D02*
X182324762Y-111616723D01*
X182372381Y-111854819D02*
X182277143Y-111807200D01*
X182277143Y-111807200D02*
X182181905Y-111711961D01*
X182181905Y-111711961D02*
X182134286Y-111521485D01*
X182134286Y-111521485D02*
X182134286Y-111188152D01*
X182134286Y-111188152D02*
X182181905Y-110997676D01*
X182181905Y-110997676D02*
X182277143Y-110902438D01*
X182277143Y-110902438D02*
X182372381Y-110854819D01*
X182372381Y-110854819D02*
X182562857Y-110854819D01*
X182562857Y-110854819D02*
X182658095Y-110902438D01*
X182658095Y-110902438D02*
X182753333Y-110997676D01*
X182753333Y-110997676D02*
X182800952Y-111188152D01*
X182800952Y-111188152D02*
X182800952Y-111521485D01*
X182800952Y-111521485D02*
X182753333Y-111711961D01*
X182753333Y-111711961D02*
X182658095Y-111807200D01*
X182658095Y-111807200D02*
X182562857Y-111854819D01*
X182562857Y-111854819D02*
X182372381Y-111854819D01*
X183753333Y-111854819D02*
X183181905Y-111854819D01*
X183467619Y-111854819D02*
X183467619Y-110854819D01*
X183467619Y-110854819D02*
X183372381Y-110997676D01*
X183372381Y-110997676D02*
X183277143Y-111092914D01*
X183277143Y-111092914D02*
X183181905Y-111140533D01*
X184705714Y-111854819D02*
X184134286Y-111854819D01*
X184420000Y-111854819D02*
X184420000Y-110854819D01*
X184420000Y-110854819D02*
X184324762Y-110997676D01*
X184324762Y-110997676D02*
X184229524Y-111092914D01*
X184229524Y-111092914D02*
X184134286Y-111140533D01*
X116338095Y-72854819D02*
X116338095Y-73664342D01*
X116338095Y-73664342D02*
X116385714Y-73759580D01*
X116385714Y-73759580D02*
X116433333Y-73807200D01*
X116433333Y-73807200D02*
X116528571Y-73854819D01*
X116528571Y-73854819D02*
X116719047Y-73854819D01*
X116719047Y-73854819D02*
X116814285Y-73807200D01*
X116814285Y-73807200D02*
X116861904Y-73759580D01*
X116861904Y-73759580D02*
X116909523Y-73664342D01*
X116909523Y-73664342D02*
X116909523Y-72854819D01*
X117814285Y-73188152D02*
X117814285Y-73854819D01*
X117576190Y-72807200D02*
X117338095Y-73521485D01*
X117338095Y-73521485D02*
X117957142Y-73521485D01*
X111721779Y-68959819D02*
X111721779Y-67959819D01*
X112197969Y-68959819D02*
X112197969Y-67959819D01*
X112197969Y-67959819D02*
X112769397Y-68959819D01*
X112769397Y-68959819D02*
X112769397Y-67959819D01*
X113245588Y-68578866D02*
X114007493Y-68578866D01*
X119532255Y-76849819D02*
X119722731Y-76849819D01*
X119722731Y-76849819D02*
X119817969Y-76897438D01*
X119817969Y-76897438D02*
X119913207Y-76992676D01*
X119913207Y-76992676D02*
X119960826Y-77183152D01*
X119960826Y-77183152D02*
X119960826Y-77516485D01*
X119960826Y-77516485D02*
X119913207Y-77706961D01*
X119913207Y-77706961D02*
X119817969Y-77802200D01*
X119817969Y-77802200D02*
X119722731Y-77849819D01*
X119722731Y-77849819D02*
X119532255Y-77849819D01*
X119532255Y-77849819D02*
X119437017Y-77802200D01*
X119437017Y-77802200D02*
X119341779Y-77706961D01*
X119341779Y-77706961D02*
X119294160Y-77516485D01*
X119294160Y-77516485D02*
X119294160Y-77183152D01*
X119294160Y-77183152D02*
X119341779Y-76992676D01*
X119341779Y-76992676D02*
X119437017Y-76897438D01*
X119437017Y-76897438D02*
X119532255Y-76849819D01*
X120389398Y-76849819D02*
X120389398Y-77659342D01*
X120389398Y-77659342D02*
X120437017Y-77754580D01*
X120437017Y-77754580D02*
X120484636Y-77802200D01*
X120484636Y-77802200D02*
X120579874Y-77849819D01*
X120579874Y-77849819D02*
X120770350Y-77849819D01*
X120770350Y-77849819D02*
X120865588Y-77802200D01*
X120865588Y-77802200D02*
X120913207Y-77754580D01*
X120913207Y-77754580D02*
X120960826Y-77659342D01*
X120960826Y-77659342D02*
X120960826Y-76849819D01*
X121294160Y-76849819D02*
X121865588Y-76849819D01*
X121579874Y-77849819D02*
X121579874Y-76849819D01*
X122198922Y-77468866D02*
X122960827Y-77468866D01*
X122579874Y-77849819D02*
X122579874Y-77087914D01*
X119532255Y-67959819D02*
X119722731Y-67959819D01*
X119722731Y-67959819D02*
X119817969Y-68007438D01*
X119817969Y-68007438D02*
X119913207Y-68102676D01*
X119913207Y-68102676D02*
X119960826Y-68293152D01*
X119960826Y-68293152D02*
X119960826Y-68626485D01*
X119960826Y-68626485D02*
X119913207Y-68816961D01*
X119913207Y-68816961D02*
X119817969Y-68912200D01*
X119817969Y-68912200D02*
X119722731Y-68959819D01*
X119722731Y-68959819D02*
X119532255Y-68959819D01*
X119532255Y-68959819D02*
X119437017Y-68912200D01*
X119437017Y-68912200D02*
X119341779Y-68816961D01*
X119341779Y-68816961D02*
X119294160Y-68626485D01*
X119294160Y-68626485D02*
X119294160Y-68293152D01*
X119294160Y-68293152D02*
X119341779Y-68102676D01*
X119341779Y-68102676D02*
X119437017Y-68007438D01*
X119437017Y-68007438D02*
X119532255Y-67959819D01*
X120389398Y-67959819D02*
X120389398Y-68769342D01*
X120389398Y-68769342D02*
X120437017Y-68864580D01*
X120437017Y-68864580D02*
X120484636Y-68912200D01*
X120484636Y-68912200D02*
X120579874Y-68959819D01*
X120579874Y-68959819D02*
X120770350Y-68959819D01*
X120770350Y-68959819D02*
X120865588Y-68912200D01*
X120865588Y-68912200D02*
X120913207Y-68864580D01*
X120913207Y-68864580D02*
X120960826Y-68769342D01*
X120960826Y-68769342D02*
X120960826Y-67959819D01*
X121294160Y-67959819D02*
X121865588Y-67959819D01*
X121579874Y-68959819D02*
X121579874Y-67959819D01*
X122198922Y-68578866D02*
X122960827Y-68578866D01*
X112356779Y-77849819D02*
X112356779Y-76849819D01*
X112832969Y-77849819D02*
X112832969Y-76849819D01*
X112832969Y-76849819D02*
X113404397Y-77849819D01*
X113404397Y-77849819D02*
X113404397Y-76849819D01*
X113880588Y-77468866D02*
X114642493Y-77468866D01*
X114261540Y-77849819D02*
X114261540Y-77087914D01*
X152254819Y-89042857D02*
X151778628Y-89376190D01*
X152254819Y-89614285D02*
X151254819Y-89614285D01*
X151254819Y-89614285D02*
X151254819Y-89233333D01*
X151254819Y-89233333D02*
X151302438Y-89138095D01*
X151302438Y-89138095D02*
X151350057Y-89090476D01*
X151350057Y-89090476D02*
X151445295Y-89042857D01*
X151445295Y-89042857D02*
X151588152Y-89042857D01*
X151588152Y-89042857D02*
X151683390Y-89090476D01*
X151683390Y-89090476D02*
X151731009Y-89138095D01*
X151731009Y-89138095D02*
X151778628Y-89233333D01*
X151778628Y-89233333D02*
X151778628Y-89614285D01*
X151350057Y-88661904D02*
X151302438Y-88614285D01*
X151302438Y-88614285D02*
X151254819Y-88519047D01*
X151254819Y-88519047D02*
X151254819Y-88280952D01*
X151254819Y-88280952D02*
X151302438Y-88185714D01*
X151302438Y-88185714D02*
X151350057Y-88138095D01*
X151350057Y-88138095D02*
X151445295Y-88090476D01*
X151445295Y-88090476D02*
X151540533Y-88090476D01*
X151540533Y-88090476D02*
X151683390Y-88138095D01*
X151683390Y-88138095D02*
X152254819Y-88709523D01*
X152254819Y-88709523D02*
X152254819Y-88090476D01*
X151254819Y-87471428D02*
X151254819Y-87376190D01*
X151254819Y-87376190D02*
X151302438Y-87280952D01*
X151302438Y-87280952D02*
X151350057Y-87233333D01*
X151350057Y-87233333D02*
X151445295Y-87185714D01*
X151445295Y-87185714D02*
X151635771Y-87138095D01*
X151635771Y-87138095D02*
X151873866Y-87138095D01*
X151873866Y-87138095D02*
X152064342Y-87185714D01*
X152064342Y-87185714D02*
X152159580Y-87233333D01*
X152159580Y-87233333D02*
X152207200Y-87280952D01*
X152207200Y-87280952D02*
X152254819Y-87376190D01*
X152254819Y-87376190D02*
X152254819Y-87471428D01*
X152254819Y-87471428D02*
X152207200Y-87566666D01*
X152207200Y-87566666D02*
X152159580Y-87614285D01*
X152159580Y-87614285D02*
X152064342Y-87661904D01*
X152064342Y-87661904D02*
X151873866Y-87709523D01*
X151873866Y-87709523D02*
X151635771Y-87709523D01*
X151635771Y-87709523D02*
X151445295Y-87661904D01*
X151445295Y-87661904D02*
X151350057Y-87614285D01*
X151350057Y-87614285D02*
X151302438Y-87566666D01*
X151302438Y-87566666D02*
X151254819Y-87471428D01*
X182231009Y-125409523D02*
X182231009Y-125742856D01*
X182754819Y-125742856D02*
X181754819Y-125742856D01*
X181754819Y-125742856D02*
X181754819Y-125266666D01*
X182754819Y-124361904D02*
X182754819Y-124933332D01*
X182754819Y-124647618D02*
X181754819Y-124647618D01*
X181754819Y-124647618D02*
X181897676Y-124742856D01*
X181897676Y-124742856D02*
X181992914Y-124838094D01*
X181992914Y-124838094D02*
X182040533Y-124933332D01*
X182754819Y-123409523D02*
X182754819Y-123980951D01*
X182754819Y-123695237D02*
X181754819Y-123695237D01*
X181754819Y-123695237D02*
X181897676Y-123790475D01*
X181897676Y-123790475D02*
X181992914Y-123885713D01*
X181992914Y-123885713D02*
X182040533Y-123980951D01*
X140104761Y-112150057D02*
X140009523Y-112102438D01*
X140009523Y-112102438D02*
X139914285Y-112007200D01*
X139914285Y-112007200D02*
X139771428Y-111864342D01*
X139771428Y-111864342D02*
X139676190Y-111816723D01*
X139676190Y-111816723D02*
X139580952Y-111816723D01*
X139628571Y-112054819D02*
X139533333Y-112007200D01*
X139533333Y-112007200D02*
X139438095Y-111911961D01*
X139438095Y-111911961D02*
X139390476Y-111721485D01*
X139390476Y-111721485D02*
X139390476Y-111388152D01*
X139390476Y-111388152D02*
X139438095Y-111197676D01*
X139438095Y-111197676D02*
X139533333Y-111102438D01*
X139533333Y-111102438D02*
X139628571Y-111054819D01*
X139628571Y-111054819D02*
X139819047Y-111054819D01*
X139819047Y-111054819D02*
X139914285Y-111102438D01*
X139914285Y-111102438D02*
X140009523Y-111197676D01*
X140009523Y-111197676D02*
X140057142Y-111388152D01*
X140057142Y-111388152D02*
X140057142Y-111721485D01*
X140057142Y-111721485D02*
X140009523Y-111911961D01*
X140009523Y-111911961D02*
X139914285Y-112007200D01*
X139914285Y-112007200D02*
X139819047Y-112054819D01*
X139819047Y-112054819D02*
X139628571Y-112054819D01*
X140961904Y-111054819D02*
X140485714Y-111054819D01*
X140485714Y-111054819D02*
X140438095Y-111531009D01*
X140438095Y-111531009D02*
X140485714Y-111483390D01*
X140485714Y-111483390D02*
X140580952Y-111435771D01*
X140580952Y-111435771D02*
X140819047Y-111435771D01*
X140819047Y-111435771D02*
X140914285Y-111483390D01*
X140914285Y-111483390D02*
X140961904Y-111531009D01*
X140961904Y-111531009D02*
X141009523Y-111626247D01*
X141009523Y-111626247D02*
X141009523Y-111864342D01*
X141009523Y-111864342D02*
X140961904Y-111959580D01*
X140961904Y-111959580D02*
X140914285Y-112007200D01*
X140914285Y-112007200D02*
X140819047Y-112054819D01*
X140819047Y-112054819D02*
X140580952Y-112054819D01*
X140580952Y-112054819D02*
X140485714Y-112007200D01*
X140485714Y-112007200D02*
X140438095Y-111959580D01*
X147581009Y-124933333D02*
X147581009Y-125266666D01*
X148104819Y-125266666D02*
X147104819Y-125266666D01*
X147104819Y-125266666D02*
X147104819Y-124790476D01*
X147104819Y-123980952D02*
X147104819Y-124171428D01*
X147104819Y-124171428D02*
X147152438Y-124266666D01*
X147152438Y-124266666D02*
X147200057Y-124314285D01*
X147200057Y-124314285D02*
X147342914Y-124409523D01*
X147342914Y-124409523D02*
X147533390Y-124457142D01*
X147533390Y-124457142D02*
X147914342Y-124457142D01*
X147914342Y-124457142D02*
X148009580Y-124409523D01*
X148009580Y-124409523D02*
X148057200Y-124361904D01*
X148057200Y-124361904D02*
X148104819Y-124266666D01*
X148104819Y-124266666D02*
X148104819Y-124076190D01*
X148104819Y-124076190D02*
X148057200Y-123980952D01*
X148057200Y-123980952D02*
X148009580Y-123933333D01*
X148009580Y-123933333D02*
X147914342Y-123885714D01*
X147914342Y-123885714D02*
X147676247Y-123885714D01*
X147676247Y-123885714D02*
X147581009Y-123933333D01*
X147581009Y-123933333D02*
X147533390Y-123980952D01*
X147533390Y-123980952D02*
X147485771Y-124076190D01*
X147485771Y-124076190D02*
X147485771Y-124266666D01*
X147485771Y-124266666D02*
X147533390Y-124361904D01*
X147533390Y-124361904D02*
X147581009Y-124409523D01*
X147581009Y-124409523D02*
X147676247Y-124457142D01*
X154228571Y-97950057D02*
X154133333Y-97902438D01*
X154133333Y-97902438D02*
X154038095Y-97807200D01*
X154038095Y-97807200D02*
X153895238Y-97664342D01*
X153895238Y-97664342D02*
X153800000Y-97616723D01*
X153800000Y-97616723D02*
X153704762Y-97616723D01*
X153752381Y-97854819D02*
X153657143Y-97807200D01*
X153657143Y-97807200D02*
X153561905Y-97711961D01*
X153561905Y-97711961D02*
X153514286Y-97521485D01*
X153514286Y-97521485D02*
X153514286Y-97188152D01*
X153514286Y-97188152D02*
X153561905Y-96997676D01*
X153561905Y-96997676D02*
X153657143Y-96902438D01*
X153657143Y-96902438D02*
X153752381Y-96854819D01*
X153752381Y-96854819D02*
X153942857Y-96854819D01*
X153942857Y-96854819D02*
X154038095Y-96902438D01*
X154038095Y-96902438D02*
X154133333Y-96997676D01*
X154133333Y-96997676D02*
X154180952Y-97188152D01*
X154180952Y-97188152D02*
X154180952Y-97521485D01*
X154180952Y-97521485D02*
X154133333Y-97711961D01*
X154133333Y-97711961D02*
X154038095Y-97807200D01*
X154038095Y-97807200D02*
X153942857Y-97854819D01*
X153942857Y-97854819D02*
X153752381Y-97854819D01*
X155133333Y-97854819D02*
X154561905Y-97854819D01*
X154847619Y-97854819D02*
X154847619Y-96854819D01*
X154847619Y-96854819D02*
X154752381Y-96997676D01*
X154752381Y-96997676D02*
X154657143Y-97092914D01*
X154657143Y-97092914D02*
X154561905Y-97140533D01*
X155466667Y-96854819D02*
X156133333Y-96854819D01*
X156133333Y-96854819D02*
X155704762Y-97854819D01*
X174931009Y-125309523D02*
X174931009Y-125642856D01*
X175454819Y-125642856D02*
X174454819Y-125642856D01*
X174454819Y-125642856D02*
X174454819Y-125166666D01*
X175454819Y-124261904D02*
X175454819Y-124833332D01*
X175454819Y-124547618D02*
X174454819Y-124547618D01*
X174454819Y-124547618D02*
X174597676Y-124642856D01*
X174597676Y-124642856D02*
X174692914Y-124738094D01*
X174692914Y-124738094D02*
X174740533Y-124833332D01*
X174454819Y-123642856D02*
X174454819Y-123547618D01*
X174454819Y-123547618D02*
X174502438Y-123452380D01*
X174502438Y-123452380D02*
X174550057Y-123404761D01*
X174550057Y-123404761D02*
X174645295Y-123357142D01*
X174645295Y-123357142D02*
X174835771Y-123309523D01*
X174835771Y-123309523D02*
X175073866Y-123309523D01*
X175073866Y-123309523D02*
X175264342Y-123357142D01*
X175264342Y-123357142D02*
X175359580Y-123404761D01*
X175359580Y-123404761D02*
X175407200Y-123452380D01*
X175407200Y-123452380D02*
X175454819Y-123547618D01*
X175454819Y-123547618D02*
X175454819Y-123642856D01*
X175454819Y-123642856D02*
X175407200Y-123738094D01*
X175407200Y-123738094D02*
X175359580Y-123785713D01*
X175359580Y-123785713D02*
X175264342Y-123833332D01*
X175264342Y-123833332D02*
X175073866Y-123880951D01*
X175073866Y-123880951D02*
X174835771Y-123880951D01*
X174835771Y-123880951D02*
X174645295Y-123833332D01*
X174645295Y-123833332D02*
X174550057Y-123785713D01*
X174550057Y-123785713D02*
X174502438Y-123738094D01*
X174502438Y-123738094D02*
X174454819Y-123642856D01*
X187224819Y-87342857D02*
X186748628Y-87676190D01*
X187224819Y-87914285D02*
X186224819Y-87914285D01*
X186224819Y-87914285D02*
X186224819Y-87533333D01*
X186224819Y-87533333D02*
X186272438Y-87438095D01*
X186272438Y-87438095D02*
X186320057Y-87390476D01*
X186320057Y-87390476D02*
X186415295Y-87342857D01*
X186415295Y-87342857D02*
X186558152Y-87342857D01*
X186558152Y-87342857D02*
X186653390Y-87390476D01*
X186653390Y-87390476D02*
X186701009Y-87438095D01*
X186701009Y-87438095D02*
X186748628Y-87533333D01*
X186748628Y-87533333D02*
X186748628Y-87914285D01*
X187224819Y-86390476D02*
X187224819Y-86961904D01*
X187224819Y-86676190D02*
X186224819Y-86676190D01*
X186224819Y-86676190D02*
X186367676Y-86771428D01*
X186367676Y-86771428D02*
X186462914Y-86866666D01*
X186462914Y-86866666D02*
X186510533Y-86961904D01*
X186224819Y-86057142D02*
X186224819Y-85438095D01*
X186224819Y-85438095D02*
X186605771Y-85771428D01*
X186605771Y-85771428D02*
X186605771Y-85628571D01*
X186605771Y-85628571D02*
X186653390Y-85533333D01*
X186653390Y-85533333D02*
X186701009Y-85485714D01*
X186701009Y-85485714D02*
X186796247Y-85438095D01*
X186796247Y-85438095D02*
X187034342Y-85438095D01*
X187034342Y-85438095D02*
X187129580Y-85485714D01*
X187129580Y-85485714D02*
X187177200Y-85533333D01*
X187177200Y-85533333D02*
X187224819Y-85628571D01*
X187224819Y-85628571D02*
X187224819Y-85914285D01*
X187224819Y-85914285D02*
X187177200Y-86009523D01*
X187177200Y-86009523D02*
X187129580Y-86057142D01*
X154349761Y-112025057D02*
X154254523Y-111977438D01*
X154254523Y-111977438D02*
X154159285Y-111882200D01*
X154159285Y-111882200D02*
X154016428Y-111739342D01*
X154016428Y-111739342D02*
X153921190Y-111691723D01*
X153921190Y-111691723D02*
X153825952Y-111691723D01*
X153873571Y-111929819D02*
X153778333Y-111882200D01*
X153778333Y-111882200D02*
X153683095Y-111786961D01*
X153683095Y-111786961D02*
X153635476Y-111596485D01*
X153635476Y-111596485D02*
X153635476Y-111263152D01*
X153635476Y-111263152D02*
X153683095Y-111072676D01*
X153683095Y-111072676D02*
X153778333Y-110977438D01*
X153778333Y-110977438D02*
X153873571Y-110929819D01*
X153873571Y-110929819D02*
X154064047Y-110929819D01*
X154064047Y-110929819D02*
X154159285Y-110977438D01*
X154159285Y-110977438D02*
X154254523Y-111072676D01*
X154254523Y-111072676D02*
X154302142Y-111263152D01*
X154302142Y-111263152D02*
X154302142Y-111596485D01*
X154302142Y-111596485D02*
X154254523Y-111786961D01*
X154254523Y-111786961D02*
X154159285Y-111882200D01*
X154159285Y-111882200D02*
X154064047Y-111929819D01*
X154064047Y-111929819D02*
X153873571Y-111929819D01*
X154635476Y-110929819D02*
X155302142Y-110929819D01*
X155302142Y-110929819D02*
X154873571Y-111929819D01*
X182728571Y-84150057D02*
X182633333Y-84102438D01*
X182633333Y-84102438D02*
X182538095Y-84007200D01*
X182538095Y-84007200D02*
X182395238Y-83864342D01*
X182395238Y-83864342D02*
X182300000Y-83816723D01*
X182300000Y-83816723D02*
X182204762Y-83816723D01*
X182252381Y-84054819D02*
X182157143Y-84007200D01*
X182157143Y-84007200D02*
X182061905Y-83911961D01*
X182061905Y-83911961D02*
X182014286Y-83721485D01*
X182014286Y-83721485D02*
X182014286Y-83388152D01*
X182014286Y-83388152D02*
X182061905Y-83197676D01*
X182061905Y-83197676D02*
X182157143Y-83102438D01*
X182157143Y-83102438D02*
X182252381Y-83054819D01*
X182252381Y-83054819D02*
X182442857Y-83054819D01*
X182442857Y-83054819D02*
X182538095Y-83102438D01*
X182538095Y-83102438D02*
X182633333Y-83197676D01*
X182633333Y-83197676D02*
X182680952Y-83388152D01*
X182680952Y-83388152D02*
X182680952Y-83721485D01*
X182680952Y-83721485D02*
X182633333Y-83911961D01*
X182633333Y-83911961D02*
X182538095Y-84007200D01*
X182538095Y-84007200D02*
X182442857Y-84054819D01*
X182442857Y-84054819D02*
X182252381Y-84054819D01*
X183633333Y-84054819D02*
X183061905Y-84054819D01*
X183347619Y-84054819D02*
X183347619Y-83054819D01*
X183347619Y-83054819D02*
X183252381Y-83197676D01*
X183252381Y-83197676D02*
X183157143Y-83292914D01*
X183157143Y-83292914D02*
X183061905Y-83340533D01*
X184490476Y-83388152D02*
X184490476Y-84054819D01*
X184252381Y-83007200D02*
X184014286Y-83721485D01*
X184014286Y-83721485D02*
X184633333Y-83721485D01*
X113231009Y-124833333D02*
X113231009Y-125166666D01*
X113754819Y-125166666D02*
X112754819Y-125166666D01*
X112754819Y-125166666D02*
X112754819Y-124690476D01*
X113754819Y-123785714D02*
X113754819Y-124357142D01*
X113754819Y-124071428D02*
X112754819Y-124071428D01*
X112754819Y-124071428D02*
X112897676Y-124166666D01*
X112897676Y-124166666D02*
X112992914Y-124261904D01*
X112992914Y-124261904D02*
X113040533Y-124357142D01*
X187604819Y-109042857D02*
X187128628Y-109376190D01*
X187604819Y-109614285D02*
X186604819Y-109614285D01*
X186604819Y-109614285D02*
X186604819Y-109233333D01*
X186604819Y-109233333D02*
X186652438Y-109138095D01*
X186652438Y-109138095D02*
X186700057Y-109090476D01*
X186700057Y-109090476D02*
X186795295Y-109042857D01*
X186795295Y-109042857D02*
X186938152Y-109042857D01*
X186938152Y-109042857D02*
X187033390Y-109090476D01*
X187033390Y-109090476D02*
X187081009Y-109138095D01*
X187081009Y-109138095D02*
X187128628Y-109233333D01*
X187128628Y-109233333D02*
X187128628Y-109614285D01*
X187604819Y-108090476D02*
X187604819Y-108661904D01*
X187604819Y-108376190D02*
X186604819Y-108376190D01*
X186604819Y-108376190D02*
X186747676Y-108471428D01*
X186747676Y-108471428D02*
X186842914Y-108566666D01*
X186842914Y-108566666D02*
X186890533Y-108661904D01*
X187604819Y-107138095D02*
X187604819Y-107709523D01*
X187604819Y-107423809D02*
X186604819Y-107423809D01*
X186604819Y-107423809D02*
X186747676Y-107519047D01*
X186747676Y-107519047D02*
X186842914Y-107614285D01*
X186842914Y-107614285D02*
X186890533Y-107709523D01*
X190048571Y-111950057D02*
X189953333Y-111902438D01*
X189953333Y-111902438D02*
X189858095Y-111807200D01*
X189858095Y-111807200D02*
X189715238Y-111664342D01*
X189715238Y-111664342D02*
X189620000Y-111616723D01*
X189620000Y-111616723D02*
X189524762Y-111616723D01*
X189572381Y-111854819D02*
X189477143Y-111807200D01*
X189477143Y-111807200D02*
X189381905Y-111711961D01*
X189381905Y-111711961D02*
X189334286Y-111521485D01*
X189334286Y-111521485D02*
X189334286Y-111188152D01*
X189334286Y-111188152D02*
X189381905Y-110997676D01*
X189381905Y-110997676D02*
X189477143Y-110902438D01*
X189477143Y-110902438D02*
X189572381Y-110854819D01*
X189572381Y-110854819D02*
X189762857Y-110854819D01*
X189762857Y-110854819D02*
X189858095Y-110902438D01*
X189858095Y-110902438D02*
X189953333Y-110997676D01*
X189953333Y-110997676D02*
X190000952Y-111188152D01*
X190000952Y-111188152D02*
X190000952Y-111521485D01*
X190000952Y-111521485D02*
X189953333Y-111711961D01*
X189953333Y-111711961D02*
X189858095Y-111807200D01*
X189858095Y-111807200D02*
X189762857Y-111854819D01*
X189762857Y-111854819D02*
X189572381Y-111854819D01*
X190953333Y-111854819D02*
X190381905Y-111854819D01*
X190667619Y-111854819D02*
X190667619Y-110854819D01*
X190667619Y-110854819D02*
X190572381Y-110997676D01*
X190572381Y-110997676D02*
X190477143Y-111092914D01*
X190477143Y-111092914D02*
X190381905Y-111140533D01*
X191334286Y-110950057D02*
X191381905Y-110902438D01*
X191381905Y-110902438D02*
X191477143Y-110854819D01*
X191477143Y-110854819D02*
X191715238Y-110854819D01*
X191715238Y-110854819D02*
X191810476Y-110902438D01*
X191810476Y-110902438D02*
X191858095Y-110950057D01*
X191858095Y-110950057D02*
X191905714Y-111045295D01*
X191905714Y-111045295D02*
X191905714Y-111140533D01*
X191905714Y-111140533D02*
X191858095Y-111283390D01*
X191858095Y-111283390D02*
X191286667Y-111854819D01*
X191286667Y-111854819D02*
X191905714Y-111854819D01*
X189928571Y-84350057D02*
X189833333Y-84302438D01*
X189833333Y-84302438D02*
X189738095Y-84207200D01*
X189738095Y-84207200D02*
X189595238Y-84064342D01*
X189595238Y-84064342D02*
X189500000Y-84016723D01*
X189500000Y-84016723D02*
X189404762Y-84016723D01*
X189452381Y-84254819D02*
X189357143Y-84207200D01*
X189357143Y-84207200D02*
X189261905Y-84111961D01*
X189261905Y-84111961D02*
X189214286Y-83921485D01*
X189214286Y-83921485D02*
X189214286Y-83588152D01*
X189214286Y-83588152D02*
X189261905Y-83397676D01*
X189261905Y-83397676D02*
X189357143Y-83302438D01*
X189357143Y-83302438D02*
X189452381Y-83254819D01*
X189452381Y-83254819D02*
X189642857Y-83254819D01*
X189642857Y-83254819D02*
X189738095Y-83302438D01*
X189738095Y-83302438D02*
X189833333Y-83397676D01*
X189833333Y-83397676D02*
X189880952Y-83588152D01*
X189880952Y-83588152D02*
X189880952Y-83921485D01*
X189880952Y-83921485D02*
X189833333Y-84111961D01*
X189833333Y-84111961D02*
X189738095Y-84207200D01*
X189738095Y-84207200D02*
X189642857Y-84254819D01*
X189642857Y-84254819D02*
X189452381Y-84254819D01*
X190833333Y-84254819D02*
X190261905Y-84254819D01*
X190547619Y-84254819D02*
X190547619Y-83254819D01*
X190547619Y-83254819D02*
X190452381Y-83397676D01*
X190452381Y-83397676D02*
X190357143Y-83492914D01*
X190357143Y-83492914D02*
X190261905Y-83540533D01*
X191166667Y-83254819D02*
X191785714Y-83254819D01*
X191785714Y-83254819D02*
X191452381Y-83635771D01*
X191452381Y-83635771D02*
X191595238Y-83635771D01*
X191595238Y-83635771D02*
X191690476Y-83683390D01*
X191690476Y-83683390D02*
X191738095Y-83731009D01*
X191738095Y-83731009D02*
X191785714Y-83826247D01*
X191785714Y-83826247D02*
X191785714Y-84064342D01*
X191785714Y-84064342D02*
X191738095Y-84159580D01*
X191738095Y-84159580D02*
X191690476Y-84207200D01*
X191690476Y-84207200D02*
X191595238Y-84254819D01*
X191595238Y-84254819D02*
X191309524Y-84254819D01*
X191309524Y-84254819D02*
X191214286Y-84207200D01*
X191214286Y-84207200D02*
X191166667Y-84159580D01*
X126431009Y-124833333D02*
X126431009Y-125166666D01*
X126954819Y-125166666D02*
X125954819Y-125166666D01*
X125954819Y-125166666D02*
X125954819Y-124690476D01*
X125954819Y-124404761D02*
X125954819Y-123785714D01*
X125954819Y-123785714D02*
X126335771Y-124119047D01*
X126335771Y-124119047D02*
X126335771Y-123976190D01*
X126335771Y-123976190D02*
X126383390Y-123880952D01*
X126383390Y-123880952D02*
X126431009Y-123833333D01*
X126431009Y-123833333D02*
X126526247Y-123785714D01*
X126526247Y-123785714D02*
X126764342Y-123785714D01*
X126764342Y-123785714D02*
X126859580Y-123833333D01*
X126859580Y-123833333D02*
X126907200Y-123880952D01*
X126907200Y-123880952D02*
X126954819Y-123976190D01*
X126954819Y-123976190D02*
X126954819Y-124261904D01*
X126954819Y-124261904D02*
X126907200Y-124357142D01*
X126907200Y-124357142D02*
X126859580Y-124404761D01*
X133681009Y-124833333D02*
X133681009Y-125166666D01*
X134204819Y-125166666D02*
X133204819Y-125166666D01*
X133204819Y-125166666D02*
X133204819Y-124690476D01*
X133538152Y-123880952D02*
X134204819Y-123880952D01*
X133157200Y-124119047D02*
X133871485Y-124357142D01*
X133871485Y-124357142D02*
X133871485Y-123738095D01*
X154531009Y-124833333D02*
X154531009Y-125166666D01*
X155054819Y-125166666D02*
X154054819Y-125166666D01*
X154054819Y-125166666D02*
X154054819Y-124690476D01*
X154054819Y-124404761D02*
X154054819Y-123738095D01*
X154054819Y-123738095D02*
X155054819Y-124166666D01*
X168919761Y-111925057D02*
X168824523Y-111877438D01*
X168824523Y-111877438D02*
X168729285Y-111782200D01*
X168729285Y-111782200D02*
X168586428Y-111639342D01*
X168586428Y-111639342D02*
X168491190Y-111591723D01*
X168491190Y-111591723D02*
X168395952Y-111591723D01*
X168443571Y-111829819D02*
X168348333Y-111782200D01*
X168348333Y-111782200D02*
X168253095Y-111686961D01*
X168253095Y-111686961D02*
X168205476Y-111496485D01*
X168205476Y-111496485D02*
X168205476Y-111163152D01*
X168205476Y-111163152D02*
X168253095Y-110972676D01*
X168253095Y-110972676D02*
X168348333Y-110877438D01*
X168348333Y-110877438D02*
X168443571Y-110829819D01*
X168443571Y-110829819D02*
X168634047Y-110829819D01*
X168634047Y-110829819D02*
X168729285Y-110877438D01*
X168729285Y-110877438D02*
X168824523Y-110972676D01*
X168824523Y-110972676D02*
X168872142Y-111163152D01*
X168872142Y-111163152D02*
X168872142Y-111496485D01*
X168872142Y-111496485D02*
X168824523Y-111686961D01*
X168824523Y-111686961D02*
X168729285Y-111782200D01*
X168729285Y-111782200D02*
X168634047Y-111829819D01*
X168634047Y-111829819D02*
X168443571Y-111829819D01*
X169348333Y-111829819D02*
X169538809Y-111829819D01*
X169538809Y-111829819D02*
X169634047Y-111782200D01*
X169634047Y-111782200D02*
X169681666Y-111734580D01*
X169681666Y-111734580D02*
X169776904Y-111591723D01*
X169776904Y-111591723D02*
X169824523Y-111401247D01*
X169824523Y-111401247D02*
X169824523Y-111020295D01*
X169824523Y-111020295D02*
X169776904Y-110925057D01*
X169776904Y-110925057D02*
X169729285Y-110877438D01*
X169729285Y-110877438D02*
X169634047Y-110829819D01*
X169634047Y-110829819D02*
X169443571Y-110829819D01*
X169443571Y-110829819D02*
X169348333Y-110877438D01*
X169348333Y-110877438D02*
X169300714Y-110925057D01*
X169300714Y-110925057D02*
X169253095Y-111020295D01*
X169253095Y-111020295D02*
X169253095Y-111258390D01*
X169253095Y-111258390D02*
X169300714Y-111353628D01*
X169300714Y-111353628D02*
X169348333Y-111401247D01*
X169348333Y-111401247D02*
X169443571Y-111448866D01*
X169443571Y-111448866D02*
X169634047Y-111448866D01*
X169634047Y-111448866D02*
X169729285Y-111401247D01*
X169729285Y-111401247D02*
X169776904Y-111353628D01*
X169776904Y-111353628D02*
X169824523Y-111258390D01*
X161154819Y-91242857D02*
X160678628Y-91576190D01*
X161154819Y-91814285D02*
X160154819Y-91814285D01*
X160154819Y-91814285D02*
X160154819Y-91433333D01*
X160154819Y-91433333D02*
X160202438Y-91338095D01*
X160202438Y-91338095D02*
X160250057Y-91290476D01*
X160250057Y-91290476D02*
X160345295Y-91242857D01*
X160345295Y-91242857D02*
X160488152Y-91242857D01*
X160488152Y-91242857D02*
X160583390Y-91290476D01*
X160583390Y-91290476D02*
X160631009Y-91338095D01*
X160631009Y-91338095D02*
X160678628Y-91433333D01*
X160678628Y-91433333D02*
X160678628Y-91814285D01*
X160250057Y-90861904D02*
X160202438Y-90814285D01*
X160202438Y-90814285D02*
X160154819Y-90719047D01*
X160154819Y-90719047D02*
X160154819Y-90480952D01*
X160154819Y-90480952D02*
X160202438Y-90385714D01*
X160202438Y-90385714D02*
X160250057Y-90338095D01*
X160250057Y-90338095D02*
X160345295Y-90290476D01*
X160345295Y-90290476D02*
X160440533Y-90290476D01*
X160440533Y-90290476D02*
X160583390Y-90338095D01*
X160583390Y-90338095D02*
X161154819Y-90909523D01*
X161154819Y-90909523D02*
X161154819Y-90290476D01*
X161154819Y-89338095D02*
X161154819Y-89909523D01*
X161154819Y-89623809D02*
X160154819Y-89623809D01*
X160154819Y-89623809D02*
X160297676Y-89719047D01*
X160297676Y-89719047D02*
X160392914Y-89814285D01*
X160392914Y-89814285D02*
X160440533Y-89909523D01*
D13*
%TO.C,R8*%
X164542500Y-108162742D02*
X164542500Y-108637258D01*
X163497500Y-108162742D02*
X163497500Y-108637258D01*
%TO.C,R16*%
X165977500Y-86937258D02*
X165977500Y-86462742D01*
X167022500Y-86937258D02*
X167022500Y-86462742D01*
%TO.C,U1*%
X171152500Y-94840000D02*
X171152500Y-95115000D01*
X171152500Y-95115000D02*
X169862500Y-95115000D01*
X171152500Y-104760000D02*
X171152500Y-104485000D01*
X173462500Y-94840000D02*
X171152500Y-94840000D01*
X173462500Y-94840000D02*
X175772500Y-94840000D01*
X173462500Y-104760000D02*
X171152500Y-104760000D01*
X173462500Y-104760000D02*
X175772500Y-104760000D01*
X175772500Y-94840000D02*
X175772500Y-95115000D01*
X175772500Y-104760000D02*
X175772500Y-104485000D01*
%TO.C,F15*%
X176390000Y-71886252D02*
X176390000Y-69113748D01*
X179810000Y-71886252D02*
X179810000Y-69113748D01*
%TO.C,F2*%
X118610000Y-123113748D02*
X118610000Y-125886252D01*
X115190000Y-123113748D02*
X115190000Y-125886252D01*
%TO.C,R9*%
X171842500Y-108162742D02*
X171842500Y-108637258D01*
X170797500Y-108162742D02*
X170797500Y-108637258D01*
%TO.C,Q1*%
X114970000Y-113130000D02*
X114700000Y-113130000D01*
X114700000Y-113130000D02*
X114700000Y-110300000D01*
X108340000Y-113130000D02*
X108340000Y-112030000D01*
X108070000Y-113130000D02*
X108340000Y-113130000D01*
X114970000Y-119550000D02*
X114970000Y-113130000D01*
X108070000Y-119550000D02*
X108070000Y-113130000D01*
%TO.C,R15*%
X173177500Y-86937258D02*
X173177500Y-86462742D01*
X174222500Y-86937258D02*
X174222500Y-86462742D01*
%TO.C,Q8*%
X165195000Y-113105000D02*
X164925000Y-113105000D01*
X164925000Y-113105000D02*
X164925000Y-110275000D01*
X158565000Y-113105000D02*
X158565000Y-112005000D01*
X158295000Y-113105000D02*
X158565000Y-113105000D01*
X165195000Y-119525000D02*
X165195000Y-113105000D01*
X158295000Y-119525000D02*
X158295000Y-113105000D01*
%TO.C,Q6*%
X150850000Y-113130000D02*
X150580000Y-113130000D01*
X150580000Y-113130000D02*
X150580000Y-110300000D01*
X144220000Y-113130000D02*
X144220000Y-112030000D01*
X143950000Y-113130000D02*
X144220000Y-113130000D01*
X150850000Y-119550000D02*
X150850000Y-113130000D01*
X143950000Y-119550000D02*
X143950000Y-113130000D01*
%TO.C,F5*%
X139910000Y-123113748D02*
X139910000Y-125886252D01*
X136490000Y-123113748D02*
X136490000Y-125886252D01*
%TO.C,Q10*%
X179695000Y-113105000D02*
X179425000Y-113105000D01*
X179425000Y-113105000D02*
X179425000Y-110275000D01*
X173065000Y-113105000D02*
X173065000Y-112005000D01*
X172795000Y-113105000D02*
X173065000Y-113105000D01*
X179695000Y-119525000D02*
X179695000Y-113105000D01*
X172795000Y-119525000D02*
X172795000Y-113105000D01*
%TO.C,F12*%
X193710000Y-123113748D02*
X193710000Y-125886252D01*
X190290000Y-123113748D02*
X190290000Y-125886252D01*
%TO.C,R19*%
X152322500Y-94762742D02*
X152322500Y-95237258D01*
X151277500Y-94762742D02*
X151277500Y-95237258D01*
%TO.C,R17*%
X147762742Y-83477500D02*
X148237258Y-83477500D01*
X147762742Y-84522500D02*
X148237258Y-84522500D01*
%TO.C,Q3*%
X129350000Y-113130000D02*
X129080000Y-113130000D01*
X129080000Y-113130000D02*
X129080000Y-110300000D01*
X122720000Y-113130000D02*
X122720000Y-112030000D01*
X122450000Y-113130000D02*
X122720000Y-113130000D01*
X129350000Y-119550000D02*
X129350000Y-113130000D01*
X122450000Y-119550000D02*
X122450000Y-113130000D01*
%TO.C,F16*%
X169490000Y-71886252D02*
X169490000Y-69113748D01*
X172910000Y-71886252D02*
X172910000Y-69113748D01*
%TO.C,F8*%
X165610000Y-123176248D02*
X165610000Y-125948752D01*
X162190000Y-123176248D02*
X162190000Y-125948752D01*
%TO.C,Q16*%
X165330000Y-81970000D02*
X165600000Y-81970000D01*
X165600000Y-81970000D02*
X165600000Y-84800000D01*
X171960000Y-81970000D02*
X171960000Y-83070000D01*
X172230000Y-81970000D02*
X171960000Y-81970000D01*
X165330000Y-75550000D02*
X165330000Y-81970000D01*
X172230000Y-75550000D02*
X172230000Y-81970000D01*
%TO.C,Q18*%
X154662500Y-89840000D02*
X152987500Y-89840000D01*
X154662500Y-89840000D02*
X155312500Y-89840000D01*
X154662500Y-92960000D02*
X154012500Y-92960000D01*
X154662500Y-92960000D02*
X155312500Y-92960000D01*
%TO.C,F9*%
X172410000Y-123213748D02*
X172410000Y-125986252D01*
X168990000Y-123213748D02*
X168990000Y-125986252D01*
%TO.C,R12*%
X193442500Y-108187742D02*
X193442500Y-108662258D01*
X192397500Y-108187742D02*
X192397500Y-108662258D01*
%TO.C,R10*%
X179042500Y-108162742D02*
X179042500Y-108637258D01*
X177997500Y-108162742D02*
X177997500Y-108637258D01*
%TO.C,F13*%
X190090000Y-71886252D02*
X190090000Y-69113748D01*
X193510000Y-71886252D02*
X193510000Y-69113748D01*
%TO.C,F14*%
X183590000Y-71886252D02*
X183590000Y-69113748D01*
X187010000Y-71886252D02*
X187010000Y-69113748D01*
%TO.C,R18*%
X158477500Y-95937258D02*
X158477500Y-95462742D01*
X159522500Y-95937258D02*
X159522500Y-95462742D01*
%TO.C,Q15*%
X172570000Y-81970000D02*
X172840000Y-81970000D01*
X172840000Y-81970000D02*
X172840000Y-84800000D01*
X179200000Y-81970000D02*
X179200000Y-83070000D01*
X179470000Y-81970000D02*
X179200000Y-81970000D01*
X172570000Y-75550000D02*
X172570000Y-81970000D01*
X179470000Y-75550000D02*
X179470000Y-81970000D01*
%TO.C,C1*%
X176884420Y-93390000D02*
X177165580Y-93390000D01*
X176884420Y-94410000D02*
X177165580Y-94410000D01*
%TO.C,Q2*%
X122150000Y-113130000D02*
X121880000Y-113130000D01*
X121880000Y-113130000D02*
X121880000Y-110300000D01*
X115520000Y-113130000D02*
X115520000Y-112030000D01*
X115250000Y-113130000D02*
X115520000Y-113130000D01*
X122150000Y-119550000D02*
X122150000Y-113130000D01*
X115250000Y-119550000D02*
X115250000Y-113130000D01*
D14*
%TO.C,U2*%
X156800000Y-79187500D02*
X156800000Y-107087500D01*
X102400000Y-79187500D02*
X156800000Y-79187500D01*
X156800000Y-107087500D02*
X102400000Y-107087500D01*
X102400000Y-107087500D02*
X102400000Y-79187500D01*
D15*
X149600000Y-77637500D02*
G75*
G03*
X149400000Y-77637500I-100000J0D01*
G01*
X149400000Y-77637500D02*
G75*
G03*
X149600000Y-77637500I100000J0D01*
G01*
D13*
%TO.C,MOD1*%
X105175000Y-65370000D02*
X102175000Y-65370000D01*
X105175000Y-129370000D02*
X102175000Y-129370000D01*
X105875000Y-137740000D02*
X105875000Y-138480000D01*
X105875000Y-138480000D02*
X106375000Y-138480000D01*
X106115000Y-66421000D02*
X106115000Y-56500000D01*
X106115000Y-128319000D02*
X106115000Y-138240000D01*
X106115000Y-128319000D02*
X146235000Y-128319000D01*
X106115000Y-131279000D02*
X146235000Y-131279000D01*
X106115000Y-136180000D02*
X146235000Y-136180000D01*
X106115000Y-137680000D02*
X146235000Y-137680000D01*
X106115000Y-138240000D02*
X146235000Y-138240000D01*
X107400000Y-62229000D02*
X107447000Y-62183000D01*
X107605000Y-62435000D02*
X107640000Y-62399000D01*
X109709000Y-59921000D02*
X109744000Y-59886000D01*
X109902000Y-60137000D02*
X109949000Y-60091000D01*
X112400000Y-62229000D02*
X112447000Y-62183000D01*
X112448000Y-134603000D02*
X112401000Y-134649000D01*
X112605000Y-62435000D02*
X112640000Y-62399000D01*
X112641000Y-134819000D02*
X112606000Y-134854000D01*
X114709000Y-59921000D02*
X114744000Y-59886000D01*
X114745000Y-132305000D02*
X114710000Y-132341000D01*
X114902000Y-60137000D02*
X114949000Y-60091000D01*
X114950000Y-132511000D02*
X114903000Y-132557000D01*
X117400000Y-62229000D02*
X117447000Y-62183000D01*
X117448000Y-134603000D02*
X117401000Y-134649000D01*
X117605000Y-62435000D02*
X117640000Y-62399000D01*
X117641000Y-134819000D02*
X117606000Y-134854000D01*
X119709000Y-59921000D02*
X119744000Y-59886000D01*
X119745000Y-132305000D02*
X119710000Y-132341000D01*
X119902000Y-60137000D02*
X119949000Y-60091000D01*
X119950000Y-132511000D02*
X119903000Y-132557000D01*
X122400000Y-62229000D02*
X122447000Y-62183000D01*
X122448000Y-134603000D02*
X122401000Y-134649000D01*
X122605000Y-62435000D02*
X122640000Y-62399000D01*
X122641000Y-134819000D02*
X122606000Y-134854000D01*
X124709000Y-59921000D02*
X124744000Y-59886000D01*
X124745000Y-132305000D02*
X124710000Y-132341000D01*
X124902000Y-60137000D02*
X124949000Y-60091000D01*
X124950000Y-132511000D02*
X124903000Y-132557000D01*
X127400000Y-62229000D02*
X127447000Y-62183000D01*
X127448000Y-134603000D02*
X127401000Y-134649000D01*
X127605000Y-62435000D02*
X127640000Y-62399000D01*
X127641000Y-134819000D02*
X127606000Y-134854000D01*
X129709000Y-59921000D02*
X129744000Y-59886000D01*
X129745000Y-132305000D02*
X129710000Y-132341000D01*
X129902000Y-60137000D02*
X129949000Y-60091000D01*
X129950000Y-132511000D02*
X129903000Y-132557000D01*
X132400000Y-62229000D02*
X132447000Y-62183000D01*
X132448000Y-134603000D02*
X132401000Y-134649000D01*
X132605000Y-62435000D02*
X132640000Y-62399000D01*
X132641000Y-134819000D02*
X132606000Y-134854000D01*
X134709000Y-59921000D02*
X134744000Y-59886000D01*
X134745000Y-132305000D02*
X134710000Y-132341000D01*
X134902000Y-60137000D02*
X134949000Y-60091000D01*
X134950000Y-132511000D02*
X134903000Y-132557000D01*
X137400000Y-62229000D02*
X137447000Y-62183000D01*
X137448000Y-134603000D02*
X137401000Y-134649000D01*
X137605000Y-62435000D02*
X137640000Y-62399000D01*
X137641000Y-134819000D02*
X137606000Y-134854000D01*
X139709000Y-59921000D02*
X139744000Y-59886000D01*
X139745000Y-132305000D02*
X139710000Y-132341000D01*
X139902000Y-60137000D02*
X139949000Y-60091000D01*
X139950000Y-132511000D02*
X139903000Y-132557000D01*
X142448000Y-134603000D02*
X142401000Y-134649000D01*
X142641000Y-134819000D02*
X142606000Y-134854000D01*
X144745000Y-132305000D02*
X144710000Y-132341000D01*
X144950000Y-132511000D02*
X144903000Y-132557000D01*
X146235000Y-56500000D02*
X106115000Y-56500000D01*
X146235000Y-57060000D02*
X106115000Y-57060000D01*
X146235000Y-58560000D02*
X106115000Y-58560000D01*
X146235000Y-63461000D02*
X106115000Y-63461000D01*
X146235000Y-66421000D02*
X106115000Y-66421000D01*
X146235000Y-66421000D02*
X146235000Y-56500000D01*
X146235000Y-128319000D02*
X146235000Y-138240000D01*
X146475000Y-56260000D02*
X145975000Y-56260000D01*
X146475000Y-57000000D02*
X146475000Y-56260000D01*
X147175000Y-65370000D02*
X155175000Y-65370000D01*
X147175000Y-129370000D02*
X155175000Y-129370000D01*
X151175000Y-57370000D02*
X151175000Y-65370000D01*
X151175000Y-137370000D02*
X151175000Y-129370000D01*
X155875000Y-137740000D02*
X155875000Y-138480000D01*
X155875000Y-138480000D02*
X156375000Y-138480000D01*
X156115000Y-66421000D02*
X156115000Y-56500000D01*
X156115000Y-128319000D02*
X156115000Y-138240000D01*
X156115000Y-128319000D02*
X196235000Y-128319000D01*
X156115000Y-131279000D02*
X196235000Y-131279000D01*
X156115000Y-136180000D02*
X196235000Y-136180000D01*
X156115000Y-137680000D02*
X196235000Y-137680000D01*
X156115000Y-138240000D02*
X196235000Y-138240000D01*
X157400000Y-62229000D02*
X157447000Y-62183000D01*
X157605000Y-62435000D02*
X157640000Y-62399000D01*
X159709000Y-59921000D02*
X159744000Y-59886000D01*
X159902000Y-60137000D02*
X159949000Y-60091000D01*
X162400000Y-62229000D02*
X162447000Y-62183000D01*
X162448000Y-134603000D02*
X162401000Y-134649000D01*
X162605000Y-62435000D02*
X162640000Y-62399000D01*
X162641000Y-134819000D02*
X162606000Y-134854000D01*
X164709000Y-59921000D02*
X164744000Y-59886000D01*
X164745000Y-132305000D02*
X164710000Y-132341000D01*
X164902000Y-60137000D02*
X164949000Y-60091000D01*
X164950000Y-132511000D02*
X164903000Y-132557000D01*
X167400000Y-62229000D02*
X167447000Y-62183000D01*
X167448000Y-134603000D02*
X167401000Y-134649000D01*
X167605000Y-62435000D02*
X167640000Y-62399000D01*
X167641000Y-134819000D02*
X167606000Y-134854000D01*
X169709000Y-59921000D02*
X169744000Y-59886000D01*
X169745000Y-132305000D02*
X169710000Y-132341000D01*
X169902000Y-60137000D02*
X169949000Y-60091000D01*
X169950000Y-132511000D02*
X169903000Y-132557000D01*
X172400000Y-62229000D02*
X172447000Y-62183000D01*
X172448000Y-134603000D02*
X172401000Y-134649000D01*
X172605000Y-62435000D02*
X172640000Y-62399000D01*
X172641000Y-134819000D02*
X172606000Y-134854000D01*
X174709000Y-59921000D02*
X174744000Y-59886000D01*
X174745000Y-132305000D02*
X174710000Y-132341000D01*
X174902000Y-60137000D02*
X174949000Y-60091000D01*
X174950000Y-132511000D02*
X174903000Y-132557000D01*
X177400000Y-62229000D02*
X177447000Y-62183000D01*
X177448000Y-134603000D02*
X177401000Y-134649000D01*
X177605000Y-62435000D02*
X177640000Y-62399000D01*
X177641000Y-134819000D02*
X177606000Y-134854000D01*
X179709000Y-59921000D02*
X179744000Y-59886000D01*
X179745000Y-132305000D02*
X179710000Y-132341000D01*
X179902000Y-60137000D02*
X179949000Y-60091000D01*
X179950000Y-132511000D02*
X179903000Y-132557000D01*
X182400000Y-62229000D02*
X182447000Y-62183000D01*
X182448000Y-134603000D02*
X182401000Y-134649000D01*
X182605000Y-62435000D02*
X182640000Y-62399000D01*
X182641000Y-134819000D02*
X182606000Y-134854000D01*
X184709000Y-59921000D02*
X184744000Y-59886000D01*
X184745000Y-132305000D02*
X184710000Y-132341000D01*
X184902000Y-60137000D02*
X184949000Y-60091000D01*
X184950000Y-132511000D02*
X184903000Y-132557000D01*
X187400000Y-62229000D02*
X187447000Y-62183000D01*
X187448000Y-134603000D02*
X187401000Y-134649000D01*
X187605000Y-62435000D02*
X187640000Y-62399000D01*
X187641000Y-134819000D02*
X187606000Y-134854000D01*
X189709000Y-59921000D02*
X189744000Y-59886000D01*
X189745000Y-132305000D02*
X189710000Y-132341000D01*
X189902000Y-60137000D02*
X189949000Y-60091000D01*
X189950000Y-132511000D02*
X189903000Y-132557000D01*
X192448000Y-134603000D02*
X192401000Y-134649000D01*
X192641000Y-134819000D02*
X192606000Y-134854000D01*
X194745000Y-132305000D02*
X194710000Y-132341000D01*
X194950000Y-132511000D02*
X194903000Y-132557000D01*
X196235000Y-56500000D02*
X156115000Y-56500000D01*
X196235000Y-57060000D02*
X156115000Y-57060000D01*
X196235000Y-58560000D02*
X156115000Y-58560000D01*
X196235000Y-63461000D02*
X156115000Y-63461000D01*
X196235000Y-66421000D02*
X156115000Y-66421000D01*
X196235000Y-66421000D02*
X196235000Y-56500000D01*
X196235000Y-128319000D02*
X196235000Y-138240000D01*
X196475000Y-56260000D02*
X195975000Y-56260000D01*
X196475000Y-57000000D02*
X196475000Y-56260000D01*
X197175000Y-129370000D02*
X200175000Y-129370000D01*
X200175000Y-65370000D02*
X197175000Y-65370000D01*
X107140000Y-132896000D02*
G75*
G03*
X107139574Y-134263042I1535000J-684000D01*
G01*
X109359000Y-132045000D02*
G75*
G03*
X107991958Y-132044574I-684000J-1535000D01*
G01*
X107991000Y-135114999D02*
G75*
G03*
X108703805Y-135260252I684000J1534999D01*
G01*
X108675000Y-135259999D02*
G75*
G03*
X109358318Y-135114755I0J1679999D01*
G01*
X110210000Y-134264000D02*
G75*
G03*
X110210426Y-132896958I-1535000J684000D01*
G01*
X142140000Y-60476000D02*
G75*
G03*
X142139574Y-61843042I1535000J-684000D01*
G01*
X143675000Y-59480001D02*
G75*
G03*
X142991682Y-59625245I0J-1679999D01*
G01*
X144359000Y-59625001D02*
G75*
G03*
X143646195Y-59479748I-684000J-1534999D01*
G01*
X142991000Y-62695000D02*
G75*
G03*
X144358042Y-62695426I684000J1535000D01*
G01*
X145210000Y-61844000D02*
G75*
G03*
X145210426Y-60476958I-1535000J684000D01*
G01*
X157140000Y-132896000D02*
G75*
G03*
X157139574Y-134263042I1535000J-684000D01*
G01*
X159359000Y-132045000D02*
G75*
G03*
X157991958Y-132044574I-684000J-1535000D01*
G01*
X157991000Y-135114999D02*
G75*
G03*
X158703805Y-135260252I684000J1534999D01*
G01*
X158675000Y-135259999D02*
G75*
G03*
X159358318Y-135114755I0J1679999D01*
G01*
X160210000Y-134264000D02*
G75*
G03*
X160210426Y-132896958I-1535000J684000D01*
G01*
X192140000Y-60476000D02*
G75*
G03*
X192139574Y-61843042I1535000J-684000D01*
G01*
X193675000Y-59480001D02*
G75*
G03*
X192991682Y-59625245I0J-1679999D01*
G01*
X194359000Y-59625001D02*
G75*
G03*
X193646195Y-59479748I-684000J-1534999D01*
G01*
X192991000Y-62695000D02*
G75*
G03*
X194358042Y-62695426I684000J1535000D01*
G01*
X195210000Y-61844000D02*
G75*
G03*
X195210426Y-60476958I-1535000J684000D01*
G01*
X110355000Y-61160000D02*
G75*
G03*
X106995000Y-61160000I-1680000J0D01*
G01*
X106995000Y-61160000D02*
G75*
G03*
X110355000Y-61160000I1680000J0D01*
G01*
X115355000Y-61160000D02*
G75*
G03*
X111995000Y-61160000I-1680000J0D01*
G01*
X111995000Y-61160000D02*
G75*
G03*
X115355000Y-61160000I1680000J0D01*
G01*
X115355000Y-133580000D02*
G75*
G03*
X111995000Y-133580000I-1680000J0D01*
G01*
X111995000Y-133580000D02*
G75*
G03*
X115355000Y-133580000I1680000J0D01*
G01*
X120355000Y-61160000D02*
G75*
G03*
X116995000Y-61160000I-1680000J0D01*
G01*
X116995000Y-61160000D02*
G75*
G03*
X120355000Y-61160000I1680000J0D01*
G01*
X120355000Y-133580000D02*
G75*
G03*
X116995000Y-133580000I-1680000J0D01*
G01*
X116995000Y-133580000D02*
G75*
G03*
X120355000Y-133580000I1680000J0D01*
G01*
X125355000Y-61160000D02*
G75*
G03*
X121995000Y-61160000I-1680000J0D01*
G01*
X121995000Y-61160000D02*
G75*
G03*
X125355000Y-61160000I1680000J0D01*
G01*
X125355000Y-133580000D02*
G75*
G03*
X121995000Y-133580000I-1680000J0D01*
G01*
X121995000Y-133580000D02*
G75*
G03*
X125355000Y-133580000I1680000J0D01*
G01*
X130355000Y-61160000D02*
G75*
G03*
X126995000Y-61160000I-1680000J0D01*
G01*
X126995000Y-61160000D02*
G75*
G03*
X130355000Y-61160000I1680000J0D01*
G01*
X130355000Y-133580000D02*
G75*
G03*
X126995000Y-133580000I-1680000J0D01*
G01*
X126995000Y-133580000D02*
G75*
G03*
X130355000Y-133580000I1680000J0D01*
G01*
X135355000Y-61160000D02*
G75*
G03*
X131995000Y-61160000I-1680000J0D01*
G01*
X131995000Y-61160000D02*
G75*
G03*
X135355000Y-61160000I1680000J0D01*
G01*
X135355000Y-133580000D02*
G75*
G03*
X131995000Y-133580000I-1680000J0D01*
G01*
X131995000Y-133580000D02*
G75*
G03*
X135355000Y-133580000I1680000J0D01*
G01*
X140355000Y-61160000D02*
G75*
G03*
X136995000Y-61160000I-1680000J0D01*
G01*
X136995000Y-61160000D02*
G75*
G03*
X140355000Y-61160000I1680000J0D01*
G01*
X140355000Y-133580000D02*
G75*
G03*
X136995000Y-133580000I-1680000J0D01*
G01*
X136995000Y-133580000D02*
G75*
G03*
X140355000Y-133580000I1680000J0D01*
G01*
X145355000Y-133580000D02*
G75*
G03*
X141995000Y-133580000I-1680000J0D01*
G01*
X141995000Y-133580000D02*
G75*
G03*
X145355000Y-133580000I1680000J0D01*
G01*
X160355000Y-61160000D02*
G75*
G03*
X156995000Y-61160000I-1680000J0D01*
G01*
X156995000Y-61160000D02*
G75*
G03*
X160355000Y-61160000I1680000J0D01*
G01*
X165355000Y-61160000D02*
G75*
G03*
X161995000Y-61160000I-1680000J0D01*
G01*
X161995000Y-61160000D02*
G75*
G03*
X165355000Y-61160000I1680000J0D01*
G01*
X165355000Y-133580000D02*
G75*
G03*
X161995000Y-133580000I-1680000J0D01*
G01*
X161995000Y-133580000D02*
G75*
G03*
X165355000Y-133580000I1680000J0D01*
G01*
X170355000Y-61160000D02*
G75*
G03*
X166995000Y-61160000I-1680000J0D01*
G01*
X166995000Y-61160000D02*
G75*
G03*
X170355000Y-61160000I1680000J0D01*
G01*
X170355000Y-133580000D02*
G75*
G03*
X166995000Y-133580000I-1680000J0D01*
G01*
X166995000Y-133580000D02*
G75*
G03*
X170355000Y-133580000I1680000J0D01*
G01*
X175355000Y-61160000D02*
G75*
G03*
X171995000Y-61160000I-1680000J0D01*
G01*
X171995000Y-61160000D02*
G75*
G03*
X175355000Y-61160000I1680000J0D01*
G01*
X175355000Y-133580000D02*
G75*
G03*
X171995000Y-133580000I-1680000J0D01*
G01*
X171995000Y-133580000D02*
G75*
G03*
X175355000Y-133580000I1680000J0D01*
G01*
X180355000Y-61160000D02*
G75*
G03*
X176995000Y-61160000I-1680000J0D01*
G01*
X176995000Y-61160000D02*
G75*
G03*
X180355000Y-61160000I1680000J0D01*
G01*
X180355000Y-133580000D02*
G75*
G03*
X176995000Y-133580000I-1680000J0D01*
G01*
X176995000Y-133580000D02*
G75*
G03*
X180355000Y-133580000I1680000J0D01*
G01*
X185355000Y-61160000D02*
G75*
G03*
X181995000Y-61160000I-1680000J0D01*
G01*
X181995000Y-61160000D02*
G75*
G03*
X185355000Y-61160000I1680000J0D01*
G01*
X185355000Y-133580000D02*
G75*
G03*
X181995000Y-133580000I-1680000J0D01*
G01*
X181995000Y-133580000D02*
G75*
G03*
X185355000Y-133580000I1680000J0D01*
G01*
X190355000Y-61160000D02*
G75*
G03*
X186995000Y-61160000I-1680000J0D01*
G01*
X186995000Y-61160000D02*
G75*
G03*
X190355000Y-61160000I1680000J0D01*
G01*
X190355000Y-133580000D02*
G75*
G03*
X186995000Y-133580000I-1680000J0D01*
G01*
X186995000Y-133580000D02*
G75*
G03*
X190355000Y-133580000I1680000J0D01*
G01*
X195355000Y-133580000D02*
G75*
G03*
X191995000Y-133580000I-1680000J0D01*
G01*
X191995000Y-133580000D02*
G75*
G03*
X195355000Y-133580000I1680000J0D01*
G01*
%TO.C,R14*%
X180477500Y-86912258D02*
X180477500Y-86437742D01*
X181522500Y-86912258D02*
X181522500Y-86437742D01*
%TO.C,Q4*%
X136470000Y-113130000D02*
X136200000Y-113130000D01*
X136200000Y-113130000D02*
X136200000Y-110300000D01*
X129840000Y-113130000D02*
X129840000Y-112030000D01*
X129570000Y-113130000D02*
X129840000Y-113130000D01*
X136470000Y-119550000D02*
X136470000Y-113130000D01*
X129570000Y-119550000D02*
X129570000Y-113130000D01*
%TO.C,Q11*%
X186870000Y-113130000D02*
X186600000Y-113130000D01*
X186600000Y-113130000D02*
X186600000Y-110300000D01*
X180240000Y-113130000D02*
X180240000Y-112030000D01*
X179970000Y-113130000D02*
X180240000Y-113130000D01*
X186870000Y-119550000D02*
X186870000Y-113130000D01*
X179970000Y-119550000D02*
X179970000Y-113130000D01*
D11*
%TO.C,U4*%
X108350000Y-69725000D02*
X108350000Y-76075000D01*
X111385000Y-67360000D02*
X122815000Y-67360000D01*
X122815000Y-78430000D02*
X111385000Y-78430000D01*
X125850000Y-76075000D02*
X125850000Y-69725000D01*
D13*
%TO.C,R20*%
X152322500Y-91262742D02*
X152322500Y-91737258D01*
X151277500Y-91262742D02*
X151277500Y-91737258D01*
%TO.C,F11*%
X186710000Y-123213748D02*
X186710000Y-125986252D01*
X183290000Y-123213748D02*
X183290000Y-125986252D01*
%TO.C,Q5*%
X143650000Y-113130000D02*
X143380000Y-113130000D01*
X143380000Y-113130000D02*
X143380000Y-110300000D01*
X137020000Y-113130000D02*
X137020000Y-112030000D01*
X136750000Y-113130000D02*
X137020000Y-113130000D01*
X143650000Y-119550000D02*
X143650000Y-113130000D01*
X136750000Y-119550000D02*
X136750000Y-113130000D01*
%TO.C,F6*%
X146710000Y-123213748D02*
X146710000Y-125986252D01*
X143290000Y-123213748D02*
X143290000Y-125986252D01*
%TO.C,Q17*%
X154662500Y-93340000D02*
X152987500Y-93340000D01*
X154662500Y-93340000D02*
X155312500Y-93340000D01*
X154662500Y-96460000D02*
X154012500Y-96460000D01*
X154662500Y-96460000D02*
X155312500Y-96460000D01*
%TO.C,F10*%
X179410000Y-123213748D02*
X179410000Y-125986252D01*
X175990000Y-123213748D02*
X175990000Y-125986252D01*
%TO.C,R13*%
X187677500Y-86937258D02*
X187677500Y-86462742D01*
X188722500Y-86937258D02*
X188722500Y-86462742D01*
%TO.C,Q7*%
X157995000Y-113105000D02*
X157725000Y-113105000D01*
X157725000Y-113105000D02*
X157725000Y-110275000D01*
X151365000Y-113105000D02*
X151365000Y-112005000D01*
X151095000Y-113105000D02*
X151365000Y-113105000D01*
X157995000Y-119525000D02*
X157995000Y-113105000D01*
X151095000Y-119525000D02*
X151095000Y-113105000D01*
%TO.C,Q14*%
X179830000Y-81970000D02*
X180100000Y-81970000D01*
X180100000Y-81970000D02*
X180100000Y-84800000D01*
X186460000Y-81970000D02*
X186460000Y-83070000D01*
X186730000Y-81970000D02*
X186460000Y-81970000D01*
X179830000Y-75550000D02*
X179830000Y-81970000D01*
X186730000Y-75550000D02*
X186730000Y-81970000D01*
%TO.C,F1*%
X112110000Y-123113748D02*
X112110000Y-125886252D01*
X108690000Y-123113748D02*
X108690000Y-125886252D01*
%TO.C,R11*%
X186242500Y-108162742D02*
X186242500Y-108637258D01*
X185197500Y-108162742D02*
X185197500Y-108637258D01*
%TO.C,Q12*%
X194095000Y-113130000D02*
X193825000Y-113130000D01*
X193825000Y-113130000D02*
X193825000Y-110300000D01*
X187465000Y-113130000D02*
X187465000Y-112030000D01*
X187195000Y-113130000D02*
X187465000Y-113130000D01*
X194095000Y-119550000D02*
X194095000Y-113130000D01*
X187195000Y-119550000D02*
X187195000Y-113130000D01*
%TO.C,Q13*%
X187030000Y-81970000D02*
X187300000Y-81970000D01*
X187300000Y-81970000D02*
X187300000Y-84800000D01*
X193660000Y-81970000D02*
X193660000Y-83070000D01*
X193930000Y-81970000D02*
X193660000Y-81970000D01*
X187030000Y-75550000D02*
X187030000Y-81970000D01*
X193930000Y-75550000D02*
X193930000Y-81970000D01*
%TO.C,F3*%
X125410000Y-123113748D02*
X125410000Y-125886252D01*
X121990000Y-123113748D02*
X121990000Y-125886252D01*
%TO.C,F4*%
X132810000Y-123113748D02*
X132810000Y-125886252D01*
X129390000Y-123113748D02*
X129390000Y-125886252D01*
%TO.C,F7*%
X158910000Y-123213748D02*
X158910000Y-125986252D01*
X155490000Y-123213748D02*
X155490000Y-125986252D01*
%TO.C,Q9*%
X172445000Y-113105000D02*
X172175000Y-113105000D01*
X172175000Y-113105000D02*
X172175000Y-110275000D01*
X165815000Y-113105000D02*
X165815000Y-112005000D01*
X165545000Y-113105000D02*
X165815000Y-113105000D01*
X172445000Y-119525000D02*
X172445000Y-113105000D01*
X165545000Y-119525000D02*
X165545000Y-113105000D01*
%TO.C,R21*%
X159522500Y-90362742D02*
X159522500Y-90837258D01*
X158477500Y-90362742D02*
X158477500Y-90837258D01*
%TD*%
M02*
