%TF.GenerationSoftware,KiCad,Pcbnew,7.0.10*%
%TF.CreationDate,2024-02-03T19:37:43+01:00*%
%TF.ProjectId,led_stairs_controller,6c65645f-7374-4616-9972-735f636f6e74,V0.1*%
%TF.SameCoordinates,Original*%
%TF.FileFunction,Copper,L4,Bot*%
%TF.FilePolarity,Positive*%
%FSLAX46Y46*%
G04 Gerber Fmt 4.6, Leading zero omitted, Abs format (unit mm)*
G04 Created by KiCad (PCBNEW 7.0.10) date 2024-02-03 19:37:43*
%MOMM*%
%LPD*%
G01*
G04 APERTURE LIST*
G04 Aperture macros list*
%AMRoundRect*
0 Rectangle with rounded corners*
0 $1 Rounding radius*
0 $2 $3 $4 $5 $6 $7 $8 $9 X,Y pos of 4 corners*
0 Add a 4 corners polygon primitive as box body*
4,1,4,$2,$3,$4,$5,$6,$7,$8,$9,$2,$3,0*
0 Add four circle primitives for the rounded corners*
1,1,$1+$1,$2,$3*
1,1,$1+$1,$4,$5*
1,1,$1+$1,$6,$7*
1,1,$1+$1,$8,$9*
0 Add four rect primitives between the rounded corners*
20,1,$1+$1,$2,$3,$4,$5,0*
20,1,$1+$1,$4,$5,$6,$7,0*
20,1,$1+$1,$6,$7,$8,$9,0*
20,1,$1+$1,$8,$9,$2,$3,0*%
G04 Aperture macros list end*
%TA.AperFunction,ComponentPad*%
%ADD10R,1.560000X1.560000*%
%TD*%
%TA.AperFunction,ComponentPad*%
%ADD11C,1.560000*%
%TD*%
%TA.AperFunction,ComponentPad*%
%ADD12R,2.600000X2.600000*%
%TD*%
%TA.AperFunction,ComponentPad*%
%ADD13C,2.600000*%
%TD*%
%TA.AperFunction,ComponentPad*%
%ADD14C,6.000000*%
%TD*%
%TA.AperFunction,ComponentPad*%
%ADD15O,2.500000X2.000000*%
%TD*%
%TA.AperFunction,SMDPad,CuDef*%
%ADD16RoundRect,0.200000X0.275000X-0.200000X0.275000X0.200000X-0.275000X0.200000X-0.275000X-0.200000X0*%
%TD*%
%TA.AperFunction,ViaPad*%
%ADD17C,0.800000*%
%TD*%
%TA.AperFunction,ViaPad*%
%ADD18C,0.450000*%
%TD*%
%TA.AperFunction,ViaPad*%
%ADD19C,0.650000*%
%TD*%
%TA.AperFunction,Conductor*%
%ADD20C,1.000000*%
%TD*%
%TA.AperFunction,Conductor*%
%ADD21C,0.200000*%
%TD*%
%TA.AperFunction,Conductor*%
%ADD22C,0.250000*%
%TD*%
G04 APERTURE END LIST*
D10*
%TO.P,U2,1,3V3*%
%TO.N,+3.3V*%
X149360000Y-80437500D03*
D11*
%TO.P,U2,2,EN*%
%TO.N,Net-(U2-EN)*%
X146820000Y-80437500D03*
%TO.P,U2,3,VP*%
%TO.N,unconnected-(U2-VP-Pad3)*%
X144280000Y-80437500D03*
%TO.P,U2,4,VN*%
%TO.N,unconnected-(U2-VN-Pad4)*%
X141740000Y-80437500D03*
%TO.P,U2,5,34*%
%TO.N,unconnected-(U2-34-Pad5)*%
X139200000Y-80437500D03*
%TO.P,U2,6,35*%
%TO.N,unconnected-(U2-35-Pad6)*%
X136660000Y-80437500D03*
%TO.P,U2,7,32*%
%TO.N,unconnected-(U2-32-Pad7)*%
X134120000Y-80437500D03*
%TO.P,U2,8,33*%
%TO.N,unconnected-(U2-33-Pad8)*%
X131580000Y-80437500D03*
%TO.P,U2,9,25*%
%TO.N,unconnected-(U2-25-Pad9)*%
X129040000Y-80437500D03*
%TO.P,U2,10,26*%
%TO.N,unconnected-(U2-26-Pad10)*%
X126500000Y-80437500D03*
%TO.P,U2,11,27*%
%TO.N,unconnected-(U2-27-Pad11)*%
X123960000Y-80437500D03*
%TO.P,U2,12,14*%
%TO.N,unconnected-(U2-14-Pad12)*%
X121420000Y-80437500D03*
%TO.P,U2,13,12*%
%TO.N,unconnected-(U2-12-Pad13)*%
X118880000Y-80437500D03*
%TO.P,U2,14,GND*%
%TO.N,GND*%
X116340000Y-80437500D03*
%TO.P,U2,15,13*%
%TO.N,unconnected-(U2-13-Pad15)*%
X113800000Y-80437500D03*
%TO.P,U2,16,D2*%
%TO.N,unconnected-(U2-D2-Pad16)*%
X111260000Y-80437500D03*
%TO.P,U2,17,D3*%
%TO.N,unconnected-(U2-D3-Pad17)*%
X108720000Y-80437500D03*
%TO.P,U2,18,CMD*%
%TO.N,unconnected-(U2-CMD-Pad18)*%
X106180000Y-80437500D03*
%TO.P,U2,19,5V*%
%TO.N,+5V*%
X103640000Y-80437500D03*
%TO.P,U2,20,GND__1*%
%TO.N,GND*%
X149360000Y-105837500D03*
%TO.P,U2,21,23*%
%TO.N,unconnected-(U2-23-Pad21)*%
X146820000Y-105837500D03*
%TO.P,U2,22,22*%
%TO.N,/SCL_L*%
X144280000Y-105837500D03*
%TO.P,U2,23,TX*%
%TO.N,unconnected-(U2-TX-Pad23)*%
X141740000Y-105837500D03*
%TO.P,U2,24,RX*%
%TO.N,unconnected-(U2-RX-Pad24)*%
X139200000Y-105837500D03*
%TO.P,U2,25,21*%
%TO.N,/SDA_L*%
X136660000Y-105837500D03*
%TO.P,U2,26,GND__2*%
%TO.N,GND*%
X134120000Y-105837500D03*
%TO.P,U2,27,19*%
%TO.N,unconnected-(U2-19-Pad27)*%
X131580000Y-105837500D03*
%TO.P,U2,28,18*%
%TO.N,unconnected-(U2-18-Pad28)*%
X129040000Y-105837500D03*
%TO.P,U2,29,5*%
%TO.N,unconnected-(U2-5-Pad29)*%
X126500000Y-105837500D03*
%TO.P,U2,30,17*%
%TO.N,unconnected-(U2-17-Pad30)*%
X123960000Y-105837500D03*
%TO.P,U2,31,16*%
%TO.N,unconnected-(U2-16-Pad31)*%
X121420000Y-105837500D03*
%TO.P,U2,32,4*%
%TO.N,unconnected-(U2-4-Pad32)*%
X118880000Y-105837500D03*
%TO.P,U2,33,0*%
%TO.N,unconnected-(U2-0-Pad33)*%
X116340000Y-105837500D03*
%TO.P,U2,34,2*%
%TO.N,unconnected-(U2-2-Pad34)*%
X113800000Y-105837500D03*
%TO.P,U2,35,15*%
%TO.N,unconnected-(U2-15-Pad35)*%
X111260000Y-105837500D03*
%TO.P,U2,36,D1*%
%TO.N,unconnected-(U2-D1-Pad36)*%
X108720000Y-105837500D03*
%TO.P,U2,37,D0*%
%TO.N,unconnected-(U2-D0-Pad37)*%
X106180000Y-105837500D03*
%TO.P,U2,38,CLK*%
%TO.N,unconnected-(U2-CLK-Pad38)*%
X103640000Y-105837500D03*
%TD*%
D12*
%TO.P,MOD1,A1,A1*%
%TO.N,/LED1_OUT*%
X108675000Y-133580000D03*
D13*
%TO.P,MOD1,A2,A2*%
%TO.N,/LED2_OUT*%
X113675000Y-133580000D03*
%TO.P,MOD1,A3,A3*%
%TO.N,VBUS*%
X118675000Y-133580000D03*
%TO.P,MOD1,A4,A4*%
%TO.N,/LED3_OUT*%
X123675000Y-133580000D03*
%TO.P,MOD1,A5,A5*%
%TO.N,/LED4_OUT*%
X128675000Y-133580000D03*
%TO.P,MOD1,A6,A6*%
%TO.N,VBUS*%
X133675000Y-133580000D03*
%TO.P,MOD1,A7,A7*%
%TO.N,/LED5_OUT*%
X138675000Y-133580000D03*
%TO.P,MOD1,A8,A8*%
%TO.N,/LED6_OUT*%
X143675000Y-133580000D03*
D12*
%TO.P,MOD1,B1,B1*%
%TO.N,/LED7_OUT*%
X158675000Y-133580000D03*
D13*
%TO.P,MOD1,B2,B2*%
%TO.N,/LED8_OUT*%
X163675000Y-133580000D03*
%TO.P,MOD1,B3,B3*%
%TO.N,VBUS*%
X168675000Y-133580000D03*
%TO.P,MOD1,B4,B4*%
%TO.N,/LED9_OUT*%
X173675000Y-133580000D03*
%TO.P,MOD1,B5,B5*%
%TO.N,/LED10_OUT*%
X178675000Y-133580000D03*
%TO.P,MOD1,B6,B6*%
%TO.N,VBUS*%
X183675000Y-133580000D03*
%TO.P,MOD1,B7,B7*%
%TO.N,/LED11_OUT*%
X188675000Y-133580000D03*
%TO.P,MOD1,B8,B8*%
%TO.N,/LED12_OUT*%
X193675000Y-133580000D03*
D12*
%TO.P,MOD1,C1,C1*%
%TO.N,/LED13_OUT*%
X193675000Y-61160000D03*
D13*
%TO.P,MOD1,C2,C2*%
%TO.N,/LED14_OUT*%
X188675000Y-61160000D03*
%TO.P,MOD1,C3,C3*%
%TO.N,VBUS*%
X183675000Y-61160000D03*
%TO.P,MOD1,C4,C4*%
%TO.N,/LED15_OUT*%
X178675000Y-61160000D03*
%TO.P,MOD1,C5,C5*%
%TO.N,/LED16_OUT*%
X173675000Y-61160000D03*
%TO.P,MOD1,C6,C6*%
%TO.N,VBUS*%
X168675000Y-61160000D03*
%TO.P,MOD1,C7,C7*%
%TO.N,/LED17_OUT*%
X163675000Y-61160000D03*
%TO.P,MOD1,C8,C8*%
%TO.N,/LED18_OUT*%
X158675000Y-61160000D03*
D12*
%TO.P,MOD1,D1,D1*%
%TO.N,GND*%
X143675000Y-61160000D03*
D13*
%TO.P,MOD1,D2,D2*%
%TO.N,unconnected-(MOD1-PadD2)*%
X138675000Y-61160000D03*
%TO.P,MOD1,D3,D3*%
%TO.N,VBUS*%
X133675000Y-61160000D03*
%TO.P,MOD1,D4,D4*%
%TO.N,GND*%
X128675000Y-61160000D03*
%TO.P,MOD1,D5,D5*%
%TO.N,unconnected-(MOD1-PadD5)*%
X123675000Y-61160000D03*
%TO.P,MOD1,D6,D6*%
%TO.N,VBUS*%
X118675000Y-61160000D03*
%TO.P,MOD1,D7,D7*%
%TO.N,GND*%
X113675000Y-61160000D03*
%TO.P,MOD1,D8,D8*%
%TO.N,VBUS*%
X108675000Y-61160000D03*
D14*
%TO.P,MOD1,MH1*%
%TO.N,N/C*%
X105050000Y-71900000D03*
%TO.P,MOD1,MH2*%
X197300000Y-71900000D03*
%TO.P,MOD1,MH3*%
X105050000Y-122800000D03*
%TO.P,MOD1,MH4*%
X197300000Y-122800000D03*
%TD*%
D15*
%TO.P,U4,1,IN-*%
%TO.N,GND*%
X109480000Y-68330000D03*
%TO.P,U4,2,IN+*%
%TO.N,VBUS*%
X109480000Y-77470000D03*
%TO.P,U4,3,OUT-*%
%TO.N,GND*%
X124720000Y-68330000D03*
%TO.P,U4,4,OUT+*%
%TO.N,+5V*%
X124720000Y-77470000D03*
%TD*%
D16*
%TO.P,R1,1*%
%TO.N,/LED1*%
X111800000Y-113625000D03*
%TO.P,R1,2*%
%TO.N,Net-(Q1-G)*%
X111800000Y-111975000D03*
%TD*%
%TO.P,R7,1*%
%TO.N,/LED7*%
X154500000Y-113725000D03*
%TO.P,R7,2*%
%TO.N,Net-(Q7-G)*%
X154500000Y-112075000D03*
%TD*%
%TO.P,R3,1*%
%TO.N,/LED3*%
X126200000Y-113725000D03*
%TO.P,R3,2*%
%TO.N,Net-(Q3-G)*%
X126200000Y-112075000D03*
%TD*%
%TO.P,R4,1*%
%TO.N,/LED4*%
X133300000Y-113825000D03*
%TO.P,R4,2*%
%TO.N,Net-(Q4-G)*%
X133300000Y-112175000D03*
%TD*%
%TO.P,R5,1*%
%TO.N,/LED5*%
X140500000Y-113825000D03*
%TO.P,R5,2*%
%TO.N,Net-(Q5-G)*%
X140500000Y-112175000D03*
%TD*%
%TO.P,R6,1*%
%TO.N,/LED6*%
X147400000Y-113825000D03*
%TO.P,R6,2*%
%TO.N,Net-(Q6-G)*%
X147400000Y-112175000D03*
%TD*%
%TO.P,R2,1*%
%TO.N,/LED2*%
X118900000Y-113825000D03*
%TO.P,R2,2*%
%TO.N,Net-(Q2-G)*%
X118900000Y-112175000D03*
%TD*%
D17*
%TO.N,GND*%
X159400000Y-109600000D03*
X123600000Y-109700000D03*
D18*
X171742500Y-104000000D03*
D17*
X178320000Y-85500000D03*
X188300000Y-109600000D03*
X181100000Y-109600000D03*
X137900000Y-109700000D03*
X173900000Y-109600000D03*
X152200000Y-109600000D03*
X116400000Y-109600000D03*
D19*
X178600000Y-93900000D03*
D17*
X109220000Y-109600000D03*
X185520000Y-85500000D03*
X192720000Y-85500000D03*
X130700000Y-109600000D03*
X166700000Y-109600000D03*
X171020000Y-85500000D03*
X145100000Y-109700000D03*
D19*
%TO.N,+5V*%
X159000000Y-97400000D03*
X175400000Y-93900000D03*
X159000000Y-89000000D03*
D18*
%TO.N,/LED1*%
X168642500Y-98825000D03*
%TO.N,/LED7*%
X165642500Y-102725000D03*
%TO.N,/LED6*%
X166142500Y-102075000D03*
%TO.N,/LED5*%
X166642500Y-101425000D03*
%TO.N,/LED4*%
X167142500Y-100775000D03*
%TO.N,/LED3*%
X167642500Y-100125000D03*
%TO.N,/LED2*%
X168142500Y-99475000D03*
%TO.N,Net-(Q1-G)*%
X112900000Y-111400000D03*
%TO.N,Net-(Q2-G)*%
X120100000Y-111400000D03*
%TO.N,Net-(Q3-G)*%
X127300000Y-111400000D03*
%TO.N,Net-(Q4-G)*%
X134400000Y-111400000D03*
%TO.N,Net-(Q5-G)*%
X141600000Y-111400000D03*
%TO.N,Net-(Q6-G)*%
X148700000Y-111400000D03*
%TO.N,Net-(Q7-G)*%
X155800000Y-111400000D03*
D19*
%TO.N,+3.3V*%
X150700000Y-90700000D03*
X150800000Y-94200000D03*
X149700000Y-84000000D03*
%TD*%
D20*
%TO.N,+5V*%
X113700000Y-75400000D02*
X115770000Y-77470000D01*
X115770000Y-77470000D02*
X124720000Y-77470000D01*
X107300000Y-75400000D02*
X113700000Y-75400000D01*
X103640000Y-80437500D02*
X103640000Y-79060000D01*
X103640000Y-79060000D02*
X107300000Y-75400000D01*
D21*
%TO.N,/LED1*%
X166500000Y-118100000D02*
X120900000Y-118100000D01*
X120900000Y-118100000D02*
X116425000Y-113625000D01*
X171100000Y-101282500D02*
X171100000Y-113500000D01*
X116425000Y-113625000D02*
X111800000Y-113625000D01*
X168642500Y-98825000D02*
X171100000Y-101282500D01*
X171100000Y-113500000D02*
X166500000Y-118100000D01*
%TO.N,/LED7*%
X167500000Y-104582500D02*
X165642500Y-102725000D01*
X165375000Y-113725000D02*
X167500000Y-111600000D01*
X167500000Y-111600000D02*
X167500000Y-104582500D01*
X154500000Y-113725000D02*
X165375000Y-113725000D01*
%TO.N,/LED6*%
X152225000Y-113825000D02*
X153500000Y-115100000D01*
X153500000Y-115100000D02*
X165000000Y-115100000D01*
X168100000Y-104032500D02*
X166142500Y-102075000D01*
X147400000Y-113825000D02*
X152225000Y-113825000D01*
X168100000Y-112000000D02*
X168100000Y-104032500D01*
X165000000Y-115100000D02*
X168100000Y-112000000D01*
%TO.N,/LED5*%
X165400000Y-115700000D02*
X168700000Y-112400000D01*
X145325000Y-113825000D02*
X147200000Y-115700000D01*
X168700000Y-112400000D02*
X168700000Y-103482500D01*
X140500000Y-113825000D02*
X145325000Y-113825000D01*
X147200000Y-115700000D02*
X165400000Y-115700000D01*
X168700000Y-103482500D02*
X166642500Y-101425000D01*
%TO.N,/LED4*%
X169300000Y-102932500D02*
X167142500Y-100775000D01*
X165700000Y-116300000D02*
X169300000Y-112700000D01*
X169300000Y-112700000D02*
X169300000Y-102932500D01*
X133300000Y-113825000D02*
X138325000Y-113825000D01*
X138325000Y-113825000D02*
X140800000Y-116300000D01*
X140800000Y-116300000D02*
X165700000Y-116300000D01*
%TO.N,/LED3*%
X169900000Y-112900000D02*
X169900000Y-102382500D01*
X165900000Y-116900000D02*
X169900000Y-112900000D01*
X134200000Y-116900000D02*
X165900000Y-116900000D01*
X126200000Y-113725000D02*
X131025000Y-113725000D01*
X169900000Y-102382500D02*
X167642500Y-100125000D01*
X131025000Y-113725000D02*
X134200000Y-116900000D01*
%TO.N,/LED2*%
X170500000Y-101832500D02*
X168142500Y-99475000D01*
X170500000Y-113100000D02*
X170500000Y-101832500D01*
X124225000Y-113825000D02*
X127900000Y-117500000D01*
X118900000Y-113825000D02*
X124225000Y-113825000D01*
X127900000Y-117500000D02*
X166100000Y-117500000D01*
X166100000Y-117500000D02*
X170500000Y-113100000D01*
D22*
%TO.N,Net-(Q1-G)*%
X112375000Y-111400000D02*
X111800000Y-111975000D01*
X112900000Y-111400000D02*
X112375000Y-111400000D01*
%TO.N,Net-(Q2-G)*%
X120100000Y-111400000D02*
X119675000Y-111400000D01*
X119675000Y-111400000D02*
X118900000Y-112175000D01*
D21*
%TO.N,Net-(Q3-G)*%
X126875000Y-111400000D02*
X127300000Y-111400000D01*
X126200000Y-112075000D02*
X126875000Y-111400000D01*
D22*
%TO.N,Net-(Q4-G)*%
X134075000Y-111400000D02*
X133300000Y-112175000D01*
X134400000Y-111400000D02*
X134075000Y-111400000D01*
%TO.N,Net-(Q5-G)*%
X141600000Y-111400000D02*
X141275000Y-111400000D01*
X141275000Y-111400000D02*
X140500000Y-112175000D01*
%TO.N,Net-(Q6-G)*%
X148700000Y-111400000D02*
X148175000Y-111400000D01*
X148175000Y-111400000D02*
X147400000Y-112175000D01*
%TO.N,Net-(Q7-G)*%
X155175000Y-111400000D02*
X154500000Y-112075000D01*
X155800000Y-111400000D02*
X155175000Y-111400000D01*
%TD*%
M02*
