%TF.GenerationSoftware,KiCad,Pcbnew,8.0.0*%
%TF.CreationDate,2024-08-18T21:11:00+02:00*%
%TF.ProjectId,led_stairs_controller,6c65645f-7374-4616-9972-735f636f6e74,V0.3*%
%TF.SameCoordinates,Original*%
%TF.FileFunction,Legend,Bot*%
%TF.FilePolarity,Positive*%
%FSLAX46Y46*%
G04 Gerber Fmt 4.6, Leading zero omitted, Abs format (unit mm)*
G04 Created by KiCad (PCBNEW 8.0.0) date 2024-08-18 21:11:00*
%MOMM*%
%LPD*%
G01*
G04 APERTURE LIST*
%ADD10C,0.150000*%
%ADD11C,0.120000*%
%TA.AperFunction,Profile*%
%ADD12C,0.120000*%
%TD*%
G04 APERTURE END LIST*
D10*
X140564160Y-104294942D02*
X140611779Y-104342561D01*
X140611779Y-104342561D02*
X140707017Y-104390180D01*
X140707017Y-104390180D02*
X140945112Y-104390180D01*
X140945112Y-104390180D02*
X141040350Y-104342561D01*
X141040350Y-104342561D02*
X141087969Y-104294942D01*
X141087969Y-104294942D02*
X141135588Y-104199704D01*
X141135588Y-104199704D02*
X141135588Y-104104466D01*
X141135588Y-104104466D02*
X141087969Y-103961609D01*
X141087969Y-103961609D02*
X140516541Y-103390180D01*
X140516541Y-103390180D02*
X141135588Y-103390180D01*
X142087969Y-103390180D02*
X141516541Y-103390180D01*
X141802255Y-103390180D02*
X141802255Y-104390180D01*
X141802255Y-104390180D02*
X141707017Y-104247323D01*
X141707017Y-104247323D02*
X141611779Y-104152085D01*
X141611779Y-104152085D02*
X141516541Y-104104466D01*
X131087969Y-104390180D02*
X130611779Y-104390180D01*
X130611779Y-104390180D02*
X130564160Y-103913990D01*
X130564160Y-103913990D02*
X130611779Y-103961609D01*
X130611779Y-103961609D02*
X130707017Y-104009228D01*
X130707017Y-104009228D02*
X130945112Y-104009228D01*
X130945112Y-104009228D02*
X131040350Y-103961609D01*
X131040350Y-103961609D02*
X131087969Y-103913990D01*
X131087969Y-103913990D02*
X131135588Y-103818752D01*
X131135588Y-103818752D02*
X131135588Y-103580657D01*
X131135588Y-103580657D02*
X131087969Y-103485419D01*
X131087969Y-103485419D02*
X131040350Y-103437800D01*
X131040350Y-103437800D02*
X130945112Y-103390180D01*
X130945112Y-103390180D02*
X130707017Y-103390180D01*
X130707017Y-103390180D02*
X130611779Y-103437800D01*
X130611779Y-103437800D02*
X130564160Y-103485419D01*
X148064160Y-104294942D02*
X148111779Y-104342561D01*
X148111779Y-104342561D02*
X148207017Y-104390180D01*
X148207017Y-104390180D02*
X148445112Y-104390180D01*
X148445112Y-104390180D02*
X148540350Y-104342561D01*
X148540350Y-104342561D02*
X148587969Y-104294942D01*
X148587969Y-104294942D02*
X148635588Y-104199704D01*
X148635588Y-104199704D02*
X148635588Y-104104466D01*
X148635588Y-104104466D02*
X148587969Y-103961609D01*
X148587969Y-103961609D02*
X148016541Y-103390180D01*
X148016541Y-103390180D02*
X148635588Y-103390180D01*
X149016541Y-104294942D02*
X149064160Y-104342561D01*
X149064160Y-104342561D02*
X149159398Y-104390180D01*
X149159398Y-104390180D02*
X149397493Y-104390180D01*
X149397493Y-104390180D02*
X149492731Y-104342561D01*
X149492731Y-104342561D02*
X149540350Y-104294942D01*
X149540350Y-104294942D02*
X149587969Y-104199704D01*
X149587969Y-104199704D02*
X149587969Y-104104466D01*
X149587969Y-104104466D02*
X149540350Y-103961609D01*
X149540350Y-103961609D02*
X148968922Y-103390180D01*
X148968922Y-103390180D02*
X149587969Y-103390180D01*
X130454160Y-82704942D02*
X130501779Y-82752561D01*
X130501779Y-82752561D02*
X130597017Y-82800180D01*
X130597017Y-82800180D02*
X130835112Y-82800180D01*
X130835112Y-82800180D02*
X130930350Y-82752561D01*
X130930350Y-82752561D02*
X130977969Y-82704942D01*
X130977969Y-82704942D02*
X131025588Y-82609704D01*
X131025588Y-82609704D02*
X131025588Y-82514466D01*
X131025588Y-82514466D02*
X130977969Y-82371609D01*
X130977969Y-82371609D02*
X130406541Y-81800180D01*
X130406541Y-81800180D02*
X131025588Y-81800180D01*
X131882731Y-82800180D02*
X131692255Y-82800180D01*
X131692255Y-82800180D02*
X131597017Y-82752561D01*
X131597017Y-82752561D02*
X131549398Y-82704942D01*
X131549398Y-82704942D02*
X131454160Y-82562085D01*
X131454160Y-82562085D02*
X131406541Y-82371609D01*
X131406541Y-82371609D02*
X131406541Y-81990657D01*
X131406541Y-81990657D02*
X131454160Y-81895419D01*
X131454160Y-81895419D02*
X131501779Y-81847800D01*
X131501779Y-81847800D02*
X131597017Y-81800180D01*
X131597017Y-81800180D02*
X131787493Y-81800180D01*
X131787493Y-81800180D02*
X131882731Y-81847800D01*
X131882731Y-81847800D02*
X131930350Y-81895419D01*
X131930350Y-81895419D02*
X131977969Y-81990657D01*
X131977969Y-81990657D02*
X131977969Y-82228752D01*
X131977969Y-82228752D02*
X131930350Y-82323990D01*
X131930350Y-82323990D02*
X131882731Y-82371609D01*
X131882731Y-82371609D02*
X131787493Y-82419228D01*
X131787493Y-82419228D02*
X131597017Y-82419228D01*
X131597017Y-82419228D02*
X131501779Y-82371609D01*
X131501779Y-82371609D02*
X131454160Y-82323990D01*
X131454160Y-82323990D02*
X131406541Y-82228752D01*
X138016541Y-82800180D02*
X138635588Y-82800180D01*
X138635588Y-82800180D02*
X138302255Y-82419228D01*
X138302255Y-82419228D02*
X138445112Y-82419228D01*
X138445112Y-82419228D02*
X138540350Y-82371609D01*
X138540350Y-82371609D02*
X138587969Y-82323990D01*
X138587969Y-82323990D02*
X138635588Y-82228752D01*
X138635588Y-82228752D02*
X138635588Y-81990657D01*
X138635588Y-81990657D02*
X138587969Y-81895419D01*
X138587969Y-81895419D02*
X138540350Y-81847800D01*
X138540350Y-81847800D02*
X138445112Y-81800180D01*
X138445112Y-81800180D02*
X138159398Y-81800180D01*
X138159398Y-81800180D02*
X138064160Y-81847800D01*
X138064160Y-81847800D02*
X138016541Y-81895419D01*
X139016541Y-82704942D02*
X139064160Y-82752561D01*
X139064160Y-82752561D02*
X139159398Y-82800180D01*
X139159398Y-82800180D02*
X139397493Y-82800180D01*
X139397493Y-82800180D02*
X139492731Y-82752561D01*
X139492731Y-82752561D02*
X139540350Y-82704942D01*
X139540350Y-82704942D02*
X139587969Y-82609704D01*
X139587969Y-82609704D02*
X139587969Y-82514466D01*
X139587969Y-82514466D02*
X139540350Y-82371609D01*
X139540350Y-82371609D02*
X138968922Y-81800180D01*
X138968922Y-81800180D02*
X139587969Y-81800180D01*
X112696779Y-81730180D02*
X112696779Y-82730180D01*
X112696779Y-82730180D02*
X112934874Y-82730180D01*
X112934874Y-82730180D02*
X113077731Y-82682561D01*
X113077731Y-82682561D02*
X113172969Y-82587323D01*
X113172969Y-82587323D02*
X113220588Y-82492085D01*
X113220588Y-82492085D02*
X113268207Y-82301609D01*
X113268207Y-82301609D02*
X113268207Y-82158752D01*
X113268207Y-82158752D02*
X113220588Y-81968276D01*
X113220588Y-81968276D02*
X113172969Y-81873038D01*
X113172969Y-81873038D02*
X113077731Y-81777800D01*
X113077731Y-81777800D02*
X112934874Y-81730180D01*
X112934874Y-81730180D02*
X112696779Y-81730180D01*
X113601541Y-82730180D02*
X114220588Y-82730180D01*
X114220588Y-82730180D02*
X113887255Y-82349228D01*
X113887255Y-82349228D02*
X114030112Y-82349228D01*
X114030112Y-82349228D02*
X114125350Y-82301609D01*
X114125350Y-82301609D02*
X114172969Y-82253990D01*
X114172969Y-82253990D02*
X114220588Y-82158752D01*
X114220588Y-82158752D02*
X114220588Y-81920657D01*
X114220588Y-81920657D02*
X114172969Y-81825419D01*
X114172969Y-81825419D02*
X114125350Y-81777800D01*
X114125350Y-81777800D02*
X114030112Y-81730180D01*
X114030112Y-81730180D02*
X113744398Y-81730180D01*
X113744398Y-81730180D02*
X113649160Y-81777800D01*
X113649160Y-81777800D02*
X113601541Y-81825419D01*
X135016541Y-82800180D02*
X135635588Y-82800180D01*
X135635588Y-82800180D02*
X135302255Y-82419228D01*
X135302255Y-82419228D02*
X135445112Y-82419228D01*
X135445112Y-82419228D02*
X135540350Y-82371609D01*
X135540350Y-82371609D02*
X135587969Y-82323990D01*
X135587969Y-82323990D02*
X135635588Y-82228752D01*
X135635588Y-82228752D02*
X135635588Y-81990657D01*
X135635588Y-81990657D02*
X135587969Y-81895419D01*
X135587969Y-81895419D02*
X135540350Y-81847800D01*
X135540350Y-81847800D02*
X135445112Y-81800180D01*
X135445112Y-81800180D02*
X135159398Y-81800180D01*
X135159398Y-81800180D02*
X135064160Y-81847800D01*
X135064160Y-81847800D02*
X135016541Y-81895419D01*
X135968922Y-82800180D02*
X136587969Y-82800180D01*
X136587969Y-82800180D02*
X136254636Y-82419228D01*
X136254636Y-82419228D02*
X136397493Y-82419228D01*
X136397493Y-82419228D02*
X136492731Y-82371609D01*
X136492731Y-82371609D02*
X136540350Y-82323990D01*
X136540350Y-82323990D02*
X136587969Y-82228752D01*
X136587969Y-82228752D02*
X136587969Y-81990657D01*
X136587969Y-81990657D02*
X136540350Y-81895419D01*
X136540350Y-81895419D02*
X136492731Y-81847800D01*
X136492731Y-81847800D02*
X136397493Y-81800180D01*
X136397493Y-81800180D02*
X136111779Y-81800180D01*
X136111779Y-81800180D02*
X136016541Y-81847800D01*
X136016541Y-81847800D02*
X135968922Y-81895419D01*
X108188207Y-103415419D02*
X108140588Y-103367800D01*
X108140588Y-103367800D02*
X107997731Y-103320180D01*
X107997731Y-103320180D02*
X107902493Y-103320180D01*
X107902493Y-103320180D02*
X107759636Y-103367800D01*
X107759636Y-103367800D02*
X107664398Y-103463038D01*
X107664398Y-103463038D02*
X107616779Y-103558276D01*
X107616779Y-103558276D02*
X107569160Y-103748752D01*
X107569160Y-103748752D02*
X107569160Y-103891609D01*
X107569160Y-103891609D02*
X107616779Y-104082085D01*
X107616779Y-104082085D02*
X107664398Y-104177323D01*
X107664398Y-104177323D02*
X107759636Y-104272561D01*
X107759636Y-104272561D02*
X107902493Y-104320180D01*
X107902493Y-104320180D02*
X107997731Y-104320180D01*
X107997731Y-104320180D02*
X108140588Y-104272561D01*
X108140588Y-104272561D02*
X108188207Y-104224942D01*
X109092969Y-103320180D02*
X108616779Y-103320180D01*
X108616779Y-103320180D02*
X108616779Y-104320180D01*
X147968922Y-82800180D02*
X148302255Y-81800180D01*
X148302255Y-81800180D02*
X148635588Y-82800180D01*
X148968922Y-81800180D02*
X148968922Y-82800180D01*
X148968922Y-82800180D02*
X149349874Y-82800180D01*
X149349874Y-82800180D02*
X149445112Y-82752561D01*
X149445112Y-82752561D02*
X149492731Y-82704942D01*
X149492731Y-82704942D02*
X149540350Y-82609704D01*
X149540350Y-82609704D02*
X149540350Y-82466847D01*
X149540350Y-82466847D02*
X149492731Y-82371609D01*
X149492731Y-82371609D02*
X149445112Y-82323990D01*
X149445112Y-82323990D02*
X149349874Y-82276371D01*
X149349874Y-82276371D02*
X148968922Y-82276371D01*
X123380588Y-81730180D02*
X122809160Y-81730180D01*
X123094874Y-81730180D02*
X123094874Y-82730180D01*
X123094874Y-82730180D02*
X122999636Y-82587323D01*
X122999636Y-82587323D02*
X122904398Y-82492085D01*
X122904398Y-82492085D02*
X122809160Y-82444466D01*
X123761541Y-82634942D02*
X123809160Y-82682561D01*
X123809160Y-82682561D02*
X123904398Y-82730180D01*
X123904398Y-82730180D02*
X124142493Y-82730180D01*
X124142493Y-82730180D02*
X124237731Y-82682561D01*
X124237731Y-82682561D02*
X124285350Y-82634942D01*
X124285350Y-82634942D02*
X124332969Y-82539704D01*
X124332969Y-82539704D02*
X124332969Y-82444466D01*
X124332969Y-82444466D02*
X124285350Y-82301609D01*
X124285350Y-82301609D02*
X123713922Y-81730180D01*
X123713922Y-81730180D02*
X124332969Y-81730180D01*
X110728207Y-81825419D02*
X110680588Y-81777800D01*
X110680588Y-81777800D02*
X110537731Y-81730180D01*
X110537731Y-81730180D02*
X110442493Y-81730180D01*
X110442493Y-81730180D02*
X110299636Y-81777800D01*
X110299636Y-81777800D02*
X110204398Y-81873038D01*
X110204398Y-81873038D02*
X110156779Y-81968276D01*
X110156779Y-81968276D02*
X110109160Y-82158752D01*
X110109160Y-82158752D02*
X110109160Y-82301609D01*
X110109160Y-82301609D02*
X110156779Y-82492085D01*
X110156779Y-82492085D02*
X110204398Y-82587323D01*
X110204398Y-82587323D02*
X110299636Y-82682561D01*
X110299636Y-82682561D02*
X110442493Y-82730180D01*
X110442493Y-82730180D02*
X110537731Y-82730180D01*
X110537731Y-82730180D02*
X110680588Y-82682561D01*
X110680588Y-82682561D02*
X110728207Y-82634942D01*
X111156779Y-81730180D02*
X111156779Y-82730180D01*
X111156779Y-82730180D02*
X111490112Y-82015895D01*
X111490112Y-82015895D02*
X111823445Y-82730180D01*
X111823445Y-82730180D02*
X111823445Y-81730180D01*
X143016541Y-82800180D02*
X143635588Y-82800180D01*
X143635588Y-82800180D02*
X143302255Y-82419228D01*
X143302255Y-82419228D02*
X143445112Y-82419228D01*
X143445112Y-82419228D02*
X143540350Y-82371609D01*
X143540350Y-82371609D02*
X143587969Y-82323990D01*
X143587969Y-82323990D02*
X143635588Y-82228752D01*
X143635588Y-82228752D02*
X143635588Y-81990657D01*
X143635588Y-81990657D02*
X143587969Y-81895419D01*
X143587969Y-81895419D02*
X143540350Y-81847800D01*
X143540350Y-81847800D02*
X143445112Y-81800180D01*
X143445112Y-81800180D02*
X143159398Y-81800180D01*
X143159398Y-81800180D02*
X143064160Y-81847800D01*
X143064160Y-81847800D02*
X143016541Y-81895419D01*
X144492731Y-82466847D02*
X144492731Y-81800180D01*
X144254636Y-82847800D02*
X144016541Y-82133514D01*
X144016541Y-82133514D02*
X144635588Y-82133514D01*
X128460588Y-103320180D02*
X127889160Y-103320180D01*
X128174874Y-103320180D02*
X128174874Y-104320180D01*
X128174874Y-104320180D02*
X128079636Y-104177323D01*
X128079636Y-104177323D02*
X127984398Y-104082085D01*
X127984398Y-104082085D02*
X127889160Y-104034466D01*
X128793922Y-104320180D02*
X129460588Y-104320180D01*
X129460588Y-104320180D02*
X129032017Y-103320180D01*
X110156779Y-103320180D02*
X110156779Y-104320180D01*
X110156779Y-104320180D02*
X110394874Y-104320180D01*
X110394874Y-104320180D02*
X110537731Y-104272561D01*
X110537731Y-104272561D02*
X110632969Y-104177323D01*
X110632969Y-104177323D02*
X110680588Y-104082085D01*
X110680588Y-104082085D02*
X110728207Y-103891609D01*
X110728207Y-103891609D02*
X110728207Y-103748752D01*
X110728207Y-103748752D02*
X110680588Y-103558276D01*
X110680588Y-103558276D02*
X110632969Y-103463038D01*
X110632969Y-103463038D02*
X110537731Y-103367800D01*
X110537731Y-103367800D02*
X110394874Y-103320180D01*
X110394874Y-103320180D02*
X110156779Y-103320180D01*
X111347255Y-104320180D02*
X111442493Y-104320180D01*
X111442493Y-104320180D02*
X111537731Y-104272561D01*
X111537731Y-104272561D02*
X111585350Y-104224942D01*
X111585350Y-104224942D02*
X111632969Y-104129704D01*
X111632969Y-104129704D02*
X111680588Y-103939228D01*
X111680588Y-103939228D02*
X111680588Y-103701133D01*
X111680588Y-103701133D02*
X111632969Y-103510657D01*
X111632969Y-103510657D02*
X111585350Y-103415419D01*
X111585350Y-103415419D02*
X111537731Y-103367800D01*
X111537731Y-103367800D02*
X111442493Y-103320180D01*
X111442493Y-103320180D02*
X111347255Y-103320180D01*
X111347255Y-103320180D02*
X111252017Y-103367800D01*
X111252017Y-103367800D02*
X111204398Y-103415419D01*
X111204398Y-103415419D02*
X111156779Y-103510657D01*
X111156779Y-103510657D02*
X111109160Y-103701133D01*
X111109160Y-103701133D02*
X111109160Y-103939228D01*
X111109160Y-103939228D02*
X111156779Y-104129704D01*
X111156779Y-104129704D02*
X111204398Y-104224942D01*
X111204398Y-104224942D02*
X111252017Y-104272561D01*
X111252017Y-104272561D02*
X111347255Y-104320180D01*
X112696779Y-103320180D02*
X112696779Y-104320180D01*
X112696779Y-104320180D02*
X112934874Y-104320180D01*
X112934874Y-104320180D02*
X113077731Y-104272561D01*
X113077731Y-104272561D02*
X113172969Y-104177323D01*
X113172969Y-104177323D02*
X113220588Y-104082085D01*
X113220588Y-104082085D02*
X113268207Y-103891609D01*
X113268207Y-103891609D02*
X113268207Y-103748752D01*
X113268207Y-103748752D02*
X113220588Y-103558276D01*
X113220588Y-103558276D02*
X113172969Y-103463038D01*
X113172969Y-103463038D02*
X113077731Y-103367800D01*
X113077731Y-103367800D02*
X112934874Y-103320180D01*
X112934874Y-103320180D02*
X112696779Y-103320180D01*
X114220588Y-103320180D02*
X113649160Y-103320180D01*
X113934874Y-103320180D02*
X113934874Y-104320180D01*
X113934874Y-104320180D02*
X113839636Y-104177323D01*
X113839636Y-104177323D02*
X113744398Y-104082085D01*
X113744398Y-104082085D02*
X113649160Y-104034466D01*
X145468922Y-104390180D02*
X146040350Y-104390180D01*
X145754636Y-103390180D02*
X145754636Y-104390180D01*
X146278446Y-104390180D02*
X146945112Y-103390180D01*
X146945112Y-104390180D02*
X146278446Y-103390180D01*
X132564160Y-82704942D02*
X132611779Y-82752561D01*
X132611779Y-82752561D02*
X132707017Y-82800180D01*
X132707017Y-82800180D02*
X132945112Y-82800180D01*
X132945112Y-82800180D02*
X133040350Y-82752561D01*
X133040350Y-82752561D02*
X133087969Y-82704942D01*
X133087969Y-82704942D02*
X133135588Y-82609704D01*
X133135588Y-82609704D02*
X133135588Y-82514466D01*
X133135588Y-82514466D02*
X133087969Y-82371609D01*
X133087969Y-82371609D02*
X132516541Y-81800180D01*
X132516541Y-81800180D02*
X133135588Y-81800180D01*
X134040350Y-82800180D02*
X133564160Y-82800180D01*
X133564160Y-82800180D02*
X133516541Y-82323990D01*
X133516541Y-82323990D02*
X133564160Y-82371609D01*
X133564160Y-82371609D02*
X133659398Y-82419228D01*
X133659398Y-82419228D02*
X133897493Y-82419228D01*
X133897493Y-82419228D02*
X133992731Y-82371609D01*
X133992731Y-82371609D02*
X134040350Y-82323990D01*
X134040350Y-82323990D02*
X134087969Y-82228752D01*
X134087969Y-82228752D02*
X134087969Y-81990657D01*
X134087969Y-81990657D02*
X134040350Y-81895419D01*
X134040350Y-81895419D02*
X133992731Y-81847800D01*
X133992731Y-81847800D02*
X133897493Y-81800180D01*
X133897493Y-81800180D02*
X133659398Y-81800180D01*
X133659398Y-81800180D02*
X133564160Y-81847800D01*
X133564160Y-81847800D02*
X133516541Y-81895419D01*
X138635588Y-104342561D02*
X138540350Y-104390180D01*
X138540350Y-104390180D02*
X138397493Y-104390180D01*
X138397493Y-104390180D02*
X138254636Y-104342561D01*
X138254636Y-104342561D02*
X138159398Y-104247323D01*
X138159398Y-104247323D02*
X138111779Y-104152085D01*
X138111779Y-104152085D02*
X138064160Y-103961609D01*
X138064160Y-103961609D02*
X138064160Y-103818752D01*
X138064160Y-103818752D02*
X138111779Y-103628276D01*
X138111779Y-103628276D02*
X138159398Y-103533038D01*
X138159398Y-103533038D02*
X138254636Y-103437800D01*
X138254636Y-103437800D02*
X138397493Y-103390180D01*
X138397493Y-103390180D02*
X138492731Y-103390180D01*
X138492731Y-103390180D02*
X138635588Y-103437800D01*
X138635588Y-103437800D02*
X138683207Y-103485419D01*
X138683207Y-103485419D02*
X138683207Y-103818752D01*
X138683207Y-103818752D02*
X138492731Y-103818752D01*
X115236779Y-81730180D02*
X115236779Y-82730180D01*
X115236779Y-82730180D02*
X115474874Y-82730180D01*
X115474874Y-82730180D02*
X115617731Y-82682561D01*
X115617731Y-82682561D02*
X115712969Y-82587323D01*
X115712969Y-82587323D02*
X115760588Y-82492085D01*
X115760588Y-82492085D02*
X115808207Y-82301609D01*
X115808207Y-82301609D02*
X115808207Y-82158752D01*
X115808207Y-82158752D02*
X115760588Y-81968276D01*
X115760588Y-81968276D02*
X115712969Y-81873038D01*
X115712969Y-81873038D02*
X115617731Y-81777800D01*
X115617731Y-81777800D02*
X115474874Y-81730180D01*
X115474874Y-81730180D02*
X115236779Y-81730180D01*
X116189160Y-82634942D02*
X116236779Y-82682561D01*
X116236779Y-82682561D02*
X116332017Y-82730180D01*
X116332017Y-82730180D02*
X116570112Y-82730180D01*
X116570112Y-82730180D02*
X116665350Y-82682561D01*
X116665350Y-82682561D02*
X116712969Y-82634942D01*
X116712969Y-82634942D02*
X116760588Y-82539704D01*
X116760588Y-82539704D02*
X116760588Y-82444466D01*
X116760588Y-82444466D02*
X116712969Y-82301609D01*
X116712969Y-82301609D02*
X116141541Y-81730180D01*
X116141541Y-81730180D02*
X116760588Y-81730180D01*
X145468922Y-82800180D02*
X145802255Y-81800180D01*
X145802255Y-81800180D02*
X146135588Y-82800180D01*
X146468922Y-81800180D02*
X146468922Y-82800180D01*
X146468922Y-82800180D02*
X147040350Y-81800180D01*
X147040350Y-81800180D02*
X147040350Y-82800180D01*
X117729160Y-104224942D02*
X117776779Y-104272561D01*
X117776779Y-104272561D02*
X117872017Y-104320180D01*
X117872017Y-104320180D02*
X118110112Y-104320180D01*
X118110112Y-104320180D02*
X118205350Y-104272561D01*
X118205350Y-104272561D02*
X118252969Y-104224942D01*
X118252969Y-104224942D02*
X118300588Y-104129704D01*
X118300588Y-104129704D02*
X118300588Y-104034466D01*
X118300588Y-104034466D02*
X118252969Y-103891609D01*
X118252969Y-103891609D02*
X117681541Y-103320180D01*
X117681541Y-103320180D02*
X118300588Y-103320180D01*
X127889160Y-82634942D02*
X127936779Y-82682561D01*
X127936779Y-82682561D02*
X128032017Y-82730180D01*
X128032017Y-82730180D02*
X128270112Y-82730180D01*
X128270112Y-82730180D02*
X128365350Y-82682561D01*
X128365350Y-82682561D02*
X128412969Y-82634942D01*
X128412969Y-82634942D02*
X128460588Y-82539704D01*
X128460588Y-82539704D02*
X128460588Y-82444466D01*
X128460588Y-82444466D02*
X128412969Y-82301609D01*
X128412969Y-82301609D02*
X127841541Y-81730180D01*
X127841541Y-81730180D02*
X128460588Y-81730180D01*
X128793922Y-82730180D02*
X129460588Y-82730180D01*
X129460588Y-82730180D02*
X129032017Y-81730180D01*
X153266541Y-82800180D02*
X153885588Y-82800180D01*
X153885588Y-82800180D02*
X153552255Y-82419228D01*
X153552255Y-82419228D02*
X153695112Y-82419228D01*
X153695112Y-82419228D02*
X153790350Y-82371609D01*
X153790350Y-82371609D02*
X153837969Y-82323990D01*
X153837969Y-82323990D02*
X153885588Y-82228752D01*
X153885588Y-82228752D02*
X153885588Y-81990657D01*
X153885588Y-81990657D02*
X153837969Y-81895419D01*
X153837969Y-81895419D02*
X153790350Y-81847800D01*
X153790350Y-81847800D02*
X153695112Y-81800180D01*
X153695112Y-81800180D02*
X153409398Y-81800180D01*
X153409398Y-81800180D02*
X153314160Y-81847800D01*
X153314160Y-81847800D02*
X153266541Y-81895419D01*
X154171303Y-82800180D02*
X154504636Y-81800180D01*
X154504636Y-81800180D02*
X154837969Y-82800180D01*
X108092969Y-82730180D02*
X107616779Y-82730180D01*
X107616779Y-82730180D02*
X107569160Y-82253990D01*
X107569160Y-82253990D02*
X107616779Y-82301609D01*
X107616779Y-82301609D02*
X107712017Y-82349228D01*
X107712017Y-82349228D02*
X107950112Y-82349228D01*
X107950112Y-82349228D02*
X108045350Y-82301609D01*
X108045350Y-82301609D02*
X108092969Y-82253990D01*
X108092969Y-82253990D02*
X108140588Y-82158752D01*
X108140588Y-82158752D02*
X108140588Y-81920657D01*
X108140588Y-81920657D02*
X108092969Y-81825419D01*
X108092969Y-81825419D02*
X108045350Y-81777800D01*
X108045350Y-81777800D02*
X107950112Y-81730180D01*
X107950112Y-81730180D02*
X107712017Y-81730180D01*
X107712017Y-81730180D02*
X107616779Y-81777800D01*
X107616779Y-81777800D02*
X107569160Y-81825419D01*
X108426303Y-82730180D02*
X108759636Y-81730180D01*
X108759636Y-81730180D02*
X109092969Y-82730180D01*
X133135588Y-103390180D02*
X132564160Y-103390180D01*
X132849874Y-103390180D02*
X132849874Y-104390180D01*
X132849874Y-104390180D02*
X132754636Y-104247323D01*
X132754636Y-104247323D02*
X132659398Y-104152085D01*
X132659398Y-104152085D02*
X132564160Y-104104466D01*
X133707017Y-103961609D02*
X133611779Y-104009228D01*
X133611779Y-104009228D02*
X133564160Y-104056847D01*
X133564160Y-104056847D02*
X133516541Y-104152085D01*
X133516541Y-104152085D02*
X133516541Y-104199704D01*
X133516541Y-104199704D02*
X133564160Y-104294942D01*
X133564160Y-104294942D02*
X133611779Y-104342561D01*
X133611779Y-104342561D02*
X133707017Y-104390180D01*
X133707017Y-104390180D02*
X133897493Y-104390180D01*
X133897493Y-104390180D02*
X133992731Y-104342561D01*
X133992731Y-104342561D02*
X134040350Y-104294942D01*
X134040350Y-104294942D02*
X134087969Y-104199704D01*
X134087969Y-104199704D02*
X134087969Y-104152085D01*
X134087969Y-104152085D02*
X134040350Y-104056847D01*
X134040350Y-104056847D02*
X133992731Y-104009228D01*
X133992731Y-104009228D02*
X133897493Y-103961609D01*
X133897493Y-103961609D02*
X133707017Y-103961609D01*
X133707017Y-103961609D02*
X133611779Y-103913990D01*
X133611779Y-103913990D02*
X133564160Y-103866371D01*
X133564160Y-103866371D02*
X133516541Y-103771133D01*
X133516541Y-103771133D02*
X133516541Y-103580657D01*
X133516541Y-103580657D02*
X133564160Y-103485419D01*
X133564160Y-103485419D02*
X133611779Y-103437800D01*
X133611779Y-103437800D02*
X133707017Y-103390180D01*
X133707017Y-103390180D02*
X133897493Y-103390180D01*
X133897493Y-103390180D02*
X133992731Y-103437800D01*
X133992731Y-103437800D02*
X134040350Y-103485419D01*
X134040350Y-103485419D02*
X134087969Y-103580657D01*
X134087969Y-103580657D02*
X134087969Y-103771133D01*
X134087969Y-103771133D02*
X134040350Y-103866371D01*
X134040350Y-103866371D02*
X133992731Y-103913990D01*
X133992731Y-103913990D02*
X133897493Y-103961609D01*
X153885588Y-104342561D02*
X153790350Y-104390180D01*
X153790350Y-104390180D02*
X153647493Y-104390180D01*
X153647493Y-104390180D02*
X153504636Y-104342561D01*
X153504636Y-104342561D02*
X153409398Y-104247323D01*
X153409398Y-104247323D02*
X153361779Y-104152085D01*
X153361779Y-104152085D02*
X153314160Y-103961609D01*
X153314160Y-103961609D02*
X153314160Y-103818752D01*
X153314160Y-103818752D02*
X153361779Y-103628276D01*
X153361779Y-103628276D02*
X153409398Y-103533038D01*
X153409398Y-103533038D02*
X153504636Y-103437800D01*
X153504636Y-103437800D02*
X153647493Y-103390180D01*
X153647493Y-103390180D02*
X153742731Y-103390180D01*
X153742731Y-103390180D02*
X153885588Y-103437800D01*
X153885588Y-103437800D02*
X153933207Y-103485419D01*
X153933207Y-103485419D02*
X153933207Y-103818752D01*
X153933207Y-103818752D02*
X153742731Y-103818752D01*
X115760588Y-103320180D02*
X115189160Y-103320180D01*
X115474874Y-103320180D02*
X115474874Y-104320180D01*
X115474874Y-104320180D02*
X115379636Y-104177323D01*
X115379636Y-104177323D02*
X115284398Y-104082085D01*
X115284398Y-104082085D02*
X115189160Y-104034466D01*
X116665350Y-104320180D02*
X116189160Y-104320180D01*
X116189160Y-104320180D02*
X116141541Y-103843990D01*
X116141541Y-103843990D02*
X116189160Y-103891609D01*
X116189160Y-103891609D02*
X116284398Y-103939228D01*
X116284398Y-103939228D02*
X116522493Y-103939228D01*
X116522493Y-103939228D02*
X116617731Y-103891609D01*
X116617731Y-103891609D02*
X116665350Y-103843990D01*
X116665350Y-103843990D02*
X116712969Y-103748752D01*
X116712969Y-103748752D02*
X116712969Y-103510657D01*
X116712969Y-103510657D02*
X116665350Y-103415419D01*
X116665350Y-103415419D02*
X116617731Y-103367800D01*
X116617731Y-103367800D02*
X116522493Y-103320180D01*
X116522493Y-103320180D02*
X116284398Y-103320180D01*
X116284398Y-103320180D02*
X116189160Y-103367800D01*
X116189160Y-103367800D02*
X116141541Y-103415419D01*
X125920588Y-81730180D02*
X125349160Y-81730180D01*
X125634874Y-81730180D02*
X125634874Y-82730180D01*
X125634874Y-82730180D02*
X125539636Y-82587323D01*
X125539636Y-82587323D02*
X125444398Y-82492085D01*
X125444398Y-82492085D02*
X125349160Y-82444466D01*
X126777731Y-82396847D02*
X126777731Y-81730180D01*
X126539636Y-82777800D02*
X126301541Y-82063514D01*
X126301541Y-82063514D02*
X126920588Y-82063514D01*
X125920588Y-103320180D02*
X125349160Y-103320180D01*
X125634874Y-103320180D02*
X125634874Y-104320180D01*
X125634874Y-104320180D02*
X125539636Y-104177323D01*
X125539636Y-104177323D02*
X125444398Y-104082085D01*
X125444398Y-104082085D02*
X125349160Y-104034466D01*
X126777731Y-104320180D02*
X126587255Y-104320180D01*
X126587255Y-104320180D02*
X126492017Y-104272561D01*
X126492017Y-104272561D02*
X126444398Y-104224942D01*
X126444398Y-104224942D02*
X126349160Y-104082085D01*
X126349160Y-104082085D02*
X126301541Y-103891609D01*
X126301541Y-103891609D02*
X126301541Y-103510657D01*
X126301541Y-103510657D02*
X126349160Y-103415419D01*
X126349160Y-103415419D02*
X126396779Y-103367800D01*
X126396779Y-103367800D02*
X126492017Y-103320180D01*
X126492017Y-103320180D02*
X126682493Y-103320180D01*
X126682493Y-103320180D02*
X126777731Y-103367800D01*
X126777731Y-103367800D02*
X126825350Y-103415419D01*
X126825350Y-103415419D02*
X126872969Y-103510657D01*
X126872969Y-103510657D02*
X126872969Y-103748752D01*
X126872969Y-103748752D02*
X126825350Y-103843990D01*
X126825350Y-103843990D02*
X126777731Y-103891609D01*
X126777731Y-103891609D02*
X126682493Y-103939228D01*
X126682493Y-103939228D02*
X126492017Y-103939228D01*
X126492017Y-103939228D02*
X126396779Y-103891609D01*
X126396779Y-103891609D02*
X126349160Y-103843990D01*
X126349160Y-103843990D02*
X126301541Y-103748752D01*
X120840588Y-82682561D02*
X120745350Y-82730180D01*
X120745350Y-82730180D02*
X120602493Y-82730180D01*
X120602493Y-82730180D02*
X120459636Y-82682561D01*
X120459636Y-82682561D02*
X120364398Y-82587323D01*
X120364398Y-82587323D02*
X120316779Y-82492085D01*
X120316779Y-82492085D02*
X120269160Y-82301609D01*
X120269160Y-82301609D02*
X120269160Y-82158752D01*
X120269160Y-82158752D02*
X120316779Y-81968276D01*
X120316779Y-81968276D02*
X120364398Y-81873038D01*
X120364398Y-81873038D02*
X120459636Y-81777800D01*
X120459636Y-81777800D02*
X120602493Y-81730180D01*
X120602493Y-81730180D02*
X120697731Y-81730180D01*
X120697731Y-81730180D02*
X120840588Y-81777800D01*
X120840588Y-81777800D02*
X120888207Y-81825419D01*
X120888207Y-81825419D02*
X120888207Y-82158752D01*
X120888207Y-82158752D02*
X120697731Y-82158752D01*
X120507255Y-104320180D02*
X120602493Y-104320180D01*
X120602493Y-104320180D02*
X120697731Y-104272561D01*
X120697731Y-104272561D02*
X120745350Y-104224942D01*
X120745350Y-104224942D02*
X120792969Y-104129704D01*
X120792969Y-104129704D02*
X120840588Y-103939228D01*
X120840588Y-103939228D02*
X120840588Y-103701133D01*
X120840588Y-103701133D02*
X120792969Y-103510657D01*
X120792969Y-103510657D02*
X120745350Y-103415419D01*
X120745350Y-103415419D02*
X120697731Y-103367800D01*
X120697731Y-103367800D02*
X120602493Y-103320180D01*
X120602493Y-103320180D02*
X120507255Y-103320180D01*
X120507255Y-103320180D02*
X120412017Y-103367800D01*
X120412017Y-103367800D02*
X120364398Y-103415419D01*
X120364398Y-103415419D02*
X120316779Y-103510657D01*
X120316779Y-103510657D02*
X120269160Y-103701133D01*
X120269160Y-103701133D02*
X120269160Y-103939228D01*
X120269160Y-103939228D02*
X120316779Y-104129704D01*
X120316779Y-104129704D02*
X120364398Y-104224942D01*
X120364398Y-104224942D02*
X120412017Y-104272561D01*
X120412017Y-104272561D02*
X120507255Y-104320180D01*
X135635588Y-103390180D02*
X135064160Y-103390180D01*
X135349874Y-103390180D02*
X135349874Y-104390180D01*
X135349874Y-104390180D02*
X135254636Y-104247323D01*
X135254636Y-104247323D02*
X135159398Y-104152085D01*
X135159398Y-104152085D02*
X135064160Y-104104466D01*
X136111779Y-103390180D02*
X136302255Y-103390180D01*
X136302255Y-103390180D02*
X136397493Y-103437800D01*
X136397493Y-103437800D02*
X136445112Y-103485419D01*
X136445112Y-103485419D02*
X136540350Y-103628276D01*
X136540350Y-103628276D02*
X136587969Y-103818752D01*
X136587969Y-103818752D02*
X136587969Y-104199704D01*
X136587969Y-104199704D02*
X136540350Y-104294942D01*
X136540350Y-104294942D02*
X136492731Y-104342561D01*
X136492731Y-104342561D02*
X136397493Y-104390180D01*
X136397493Y-104390180D02*
X136207017Y-104390180D01*
X136207017Y-104390180D02*
X136111779Y-104342561D01*
X136111779Y-104342561D02*
X136064160Y-104294942D01*
X136064160Y-104294942D02*
X136016541Y-104199704D01*
X136016541Y-104199704D02*
X136016541Y-103961609D01*
X136016541Y-103961609D02*
X136064160Y-103866371D01*
X136064160Y-103866371D02*
X136111779Y-103818752D01*
X136111779Y-103818752D02*
X136207017Y-103771133D01*
X136207017Y-103771133D02*
X136397493Y-103771133D01*
X136397493Y-103771133D02*
X136492731Y-103818752D01*
X136492731Y-103818752D02*
X136540350Y-103866371D01*
X136540350Y-103866371D02*
X136587969Y-103961609D01*
X140516541Y-82800180D02*
X141135588Y-82800180D01*
X141135588Y-82800180D02*
X140802255Y-82419228D01*
X140802255Y-82419228D02*
X140945112Y-82419228D01*
X140945112Y-82419228D02*
X141040350Y-82371609D01*
X141040350Y-82371609D02*
X141087969Y-82323990D01*
X141087969Y-82323990D02*
X141135588Y-82228752D01*
X141135588Y-82228752D02*
X141135588Y-81990657D01*
X141135588Y-81990657D02*
X141087969Y-81895419D01*
X141087969Y-81895419D02*
X141040350Y-81847800D01*
X141040350Y-81847800D02*
X140945112Y-81800180D01*
X140945112Y-81800180D02*
X140659398Y-81800180D01*
X140659398Y-81800180D02*
X140564160Y-81847800D01*
X140564160Y-81847800D02*
X140516541Y-81895419D01*
X142040350Y-82800180D02*
X141564160Y-82800180D01*
X141564160Y-82800180D02*
X141516541Y-82323990D01*
X141516541Y-82323990D02*
X141564160Y-82371609D01*
X141564160Y-82371609D02*
X141659398Y-82419228D01*
X141659398Y-82419228D02*
X141897493Y-82419228D01*
X141897493Y-82419228D02*
X141992731Y-82371609D01*
X141992731Y-82371609D02*
X142040350Y-82323990D01*
X142040350Y-82323990D02*
X142087969Y-82228752D01*
X142087969Y-82228752D02*
X142087969Y-81990657D01*
X142087969Y-81990657D02*
X142040350Y-81895419D01*
X142040350Y-81895419D02*
X141992731Y-81847800D01*
X141992731Y-81847800D02*
X141897493Y-81800180D01*
X141897493Y-81800180D02*
X141659398Y-81800180D01*
X141659398Y-81800180D02*
X141564160Y-81847800D01*
X141564160Y-81847800D02*
X141516541Y-81895419D01*
X150564160Y-104294942D02*
X150611779Y-104342561D01*
X150611779Y-104342561D02*
X150707017Y-104390180D01*
X150707017Y-104390180D02*
X150945112Y-104390180D01*
X150945112Y-104390180D02*
X151040350Y-104342561D01*
X151040350Y-104342561D02*
X151087969Y-104294942D01*
X151087969Y-104294942D02*
X151135588Y-104199704D01*
X151135588Y-104199704D02*
X151135588Y-104104466D01*
X151135588Y-104104466D02*
X151087969Y-103961609D01*
X151087969Y-103961609D02*
X150516541Y-103390180D01*
X150516541Y-103390180D02*
X151135588Y-103390180D01*
X151468922Y-104390180D02*
X152087969Y-104390180D01*
X152087969Y-104390180D02*
X151754636Y-104009228D01*
X151754636Y-104009228D02*
X151897493Y-104009228D01*
X151897493Y-104009228D02*
X151992731Y-103961609D01*
X151992731Y-103961609D02*
X152040350Y-103913990D01*
X152040350Y-103913990D02*
X152087969Y-103818752D01*
X152087969Y-103818752D02*
X152087969Y-103580657D01*
X152087969Y-103580657D02*
X152040350Y-103485419D01*
X152040350Y-103485419D02*
X151992731Y-103437800D01*
X151992731Y-103437800D02*
X151897493Y-103390180D01*
X151897493Y-103390180D02*
X151611779Y-103390180D01*
X151611779Y-103390180D02*
X151516541Y-103437800D01*
X151516541Y-103437800D02*
X151468922Y-103485419D01*
X118300588Y-81730180D02*
X117729160Y-81730180D01*
X118014874Y-81730180D02*
X118014874Y-82730180D01*
X118014874Y-82730180D02*
X117919636Y-82587323D01*
X117919636Y-82587323D02*
X117824398Y-82492085D01*
X117824398Y-82492085D02*
X117729160Y-82444466D01*
X118633922Y-82730180D02*
X119252969Y-82730180D01*
X119252969Y-82730180D02*
X118919636Y-82349228D01*
X118919636Y-82349228D02*
X119062493Y-82349228D01*
X119062493Y-82349228D02*
X119157731Y-82301609D01*
X119157731Y-82301609D02*
X119205350Y-82253990D01*
X119205350Y-82253990D02*
X119252969Y-82158752D01*
X119252969Y-82158752D02*
X119252969Y-81920657D01*
X119252969Y-81920657D02*
X119205350Y-81825419D01*
X119205350Y-81825419D02*
X119157731Y-81777800D01*
X119157731Y-81777800D02*
X119062493Y-81730180D01*
X119062493Y-81730180D02*
X118776779Y-81730180D01*
X118776779Y-81730180D02*
X118681541Y-81777800D01*
X118681541Y-81777800D02*
X118633922Y-81825419D01*
X123285350Y-103986847D02*
X123285350Y-103320180D01*
X123047255Y-104367800D02*
X122809160Y-103653514D01*
X122809160Y-103653514D02*
X123428207Y-103653514D01*
X143683207Y-103390180D02*
X143349874Y-103866371D01*
X143111779Y-103390180D02*
X143111779Y-104390180D01*
X143111779Y-104390180D02*
X143492731Y-104390180D01*
X143492731Y-104390180D02*
X143587969Y-104342561D01*
X143587969Y-104342561D02*
X143635588Y-104294942D01*
X143635588Y-104294942D02*
X143683207Y-104199704D01*
X143683207Y-104199704D02*
X143683207Y-104056847D01*
X143683207Y-104056847D02*
X143635588Y-103961609D01*
X143635588Y-103961609D02*
X143587969Y-103913990D01*
X143587969Y-103913990D02*
X143492731Y-103866371D01*
X143492731Y-103866371D02*
X143111779Y-103866371D01*
X144016541Y-104390180D02*
X144683207Y-103390180D01*
X144683207Y-104390180D02*
X144016541Y-103390180D01*
X150611779Y-82323990D02*
X150945112Y-82323990D01*
X151087969Y-81800180D02*
X150611779Y-81800180D01*
X150611779Y-81800180D02*
X150611779Y-82800180D01*
X150611779Y-82800180D02*
X151087969Y-82800180D01*
X151516541Y-81800180D02*
X151516541Y-82800180D01*
X151516541Y-82800180D02*
X152087969Y-81800180D01*
X152087969Y-81800180D02*
X152087969Y-82800180D01*
X161454819Y-90766666D02*
X162169104Y-90766666D01*
X162169104Y-90766666D02*
X162311961Y-90719047D01*
X162311961Y-90719047D02*
X162407200Y-90623809D01*
X162407200Y-90623809D02*
X162454819Y-90480952D01*
X162454819Y-90480952D02*
X162454819Y-90385714D01*
X162454819Y-91242857D02*
X161454819Y-91242857D01*
X161454819Y-91242857D02*
X161454819Y-91623809D01*
X161454819Y-91623809D02*
X161502438Y-91719047D01*
X161502438Y-91719047D02*
X161550057Y-91766666D01*
X161550057Y-91766666D02*
X161645295Y-91814285D01*
X161645295Y-91814285D02*
X161788152Y-91814285D01*
X161788152Y-91814285D02*
X161883390Y-91766666D01*
X161883390Y-91766666D02*
X161931009Y-91719047D01*
X161931009Y-91719047D02*
X161978628Y-91623809D01*
X161978628Y-91623809D02*
X161978628Y-91242857D01*
X162454819Y-92766666D02*
X162454819Y-92195238D01*
X162454819Y-92480952D02*
X161454819Y-92480952D01*
X161454819Y-92480952D02*
X161597676Y-92385714D01*
X161597676Y-92385714D02*
X161692914Y-92290476D01*
X161692914Y-92290476D02*
X161740533Y-92195238D01*
X164354819Y-89285714D02*
X164354819Y-88714286D01*
X164354819Y-89000000D02*
X163354819Y-89000000D01*
X163354819Y-89000000D02*
X163497676Y-88904762D01*
X163497676Y-88904762D02*
X163592914Y-88809524D01*
X163592914Y-88809524D02*
X163640533Y-88714286D01*
X163354819Y-93866667D02*
X163354819Y-94485714D01*
X163354819Y-94485714D02*
X163735771Y-94152381D01*
X163735771Y-94152381D02*
X163735771Y-94295238D01*
X163735771Y-94295238D02*
X163783390Y-94390476D01*
X163783390Y-94390476D02*
X163831009Y-94438095D01*
X163831009Y-94438095D02*
X163926247Y-94485714D01*
X163926247Y-94485714D02*
X164164342Y-94485714D01*
X164164342Y-94485714D02*
X164259580Y-94438095D01*
X164259580Y-94438095D02*
X164307200Y-94390476D01*
X164307200Y-94390476D02*
X164354819Y-94295238D01*
X164354819Y-94295238D02*
X164354819Y-94009524D01*
X164354819Y-94009524D02*
X164307200Y-93914286D01*
X164307200Y-93914286D02*
X164259580Y-93866667D01*
X165454819Y-90766666D02*
X166169104Y-90766666D01*
X166169104Y-90766666D02*
X166311961Y-90719047D01*
X166311961Y-90719047D02*
X166407200Y-90623809D01*
X166407200Y-90623809D02*
X166454819Y-90480952D01*
X166454819Y-90480952D02*
X166454819Y-90385714D01*
X166454819Y-91242857D02*
X165454819Y-91242857D01*
X165454819Y-91242857D02*
X165454819Y-91623809D01*
X165454819Y-91623809D02*
X165502438Y-91719047D01*
X165502438Y-91719047D02*
X165550057Y-91766666D01*
X165550057Y-91766666D02*
X165645295Y-91814285D01*
X165645295Y-91814285D02*
X165788152Y-91814285D01*
X165788152Y-91814285D02*
X165883390Y-91766666D01*
X165883390Y-91766666D02*
X165931009Y-91719047D01*
X165931009Y-91719047D02*
X165978628Y-91623809D01*
X165978628Y-91623809D02*
X165978628Y-91242857D01*
X165550057Y-92195238D02*
X165502438Y-92242857D01*
X165502438Y-92242857D02*
X165454819Y-92338095D01*
X165454819Y-92338095D02*
X165454819Y-92576190D01*
X165454819Y-92576190D02*
X165502438Y-92671428D01*
X165502438Y-92671428D02*
X165550057Y-92719047D01*
X165550057Y-92719047D02*
X165645295Y-92766666D01*
X165645295Y-92766666D02*
X165740533Y-92766666D01*
X165740533Y-92766666D02*
X165883390Y-92719047D01*
X165883390Y-92719047D02*
X166454819Y-92147619D01*
X166454819Y-92147619D02*
X166454819Y-92766666D01*
X167354819Y-93866667D02*
X167354819Y-94485714D01*
X167354819Y-94485714D02*
X167735771Y-94152381D01*
X167735771Y-94152381D02*
X167735771Y-94295238D01*
X167735771Y-94295238D02*
X167783390Y-94390476D01*
X167783390Y-94390476D02*
X167831009Y-94438095D01*
X167831009Y-94438095D02*
X167926247Y-94485714D01*
X167926247Y-94485714D02*
X168164342Y-94485714D01*
X168164342Y-94485714D02*
X168259580Y-94438095D01*
X168259580Y-94438095D02*
X168307200Y-94390476D01*
X168307200Y-94390476D02*
X168354819Y-94295238D01*
X168354819Y-94295238D02*
X168354819Y-94009524D01*
X168354819Y-94009524D02*
X168307200Y-93914286D01*
X168307200Y-93914286D02*
X168259580Y-93866667D01*
X168354819Y-89285714D02*
X168354819Y-88714286D01*
X168354819Y-89000000D02*
X167354819Y-89000000D01*
X167354819Y-89000000D02*
X167497676Y-88904762D01*
X167497676Y-88904762D02*
X167592914Y-88809524D01*
X167592914Y-88809524D02*
X167640533Y-88714286D01*
X126854819Y-88857142D02*
X126378628Y-88523809D01*
X126854819Y-88285714D02*
X125854819Y-88285714D01*
X125854819Y-88285714D02*
X125854819Y-88666666D01*
X125854819Y-88666666D02*
X125902438Y-88761904D01*
X125902438Y-88761904D02*
X125950057Y-88809523D01*
X125950057Y-88809523D02*
X126045295Y-88857142D01*
X126045295Y-88857142D02*
X126188152Y-88857142D01*
X126188152Y-88857142D02*
X126283390Y-88809523D01*
X126283390Y-88809523D02*
X126331009Y-88761904D01*
X126331009Y-88761904D02*
X126378628Y-88666666D01*
X126378628Y-88666666D02*
X126378628Y-88285714D01*
X125950057Y-89238095D02*
X125902438Y-89285714D01*
X125902438Y-89285714D02*
X125854819Y-89380952D01*
X125854819Y-89380952D02*
X125854819Y-89619047D01*
X125854819Y-89619047D02*
X125902438Y-89714285D01*
X125902438Y-89714285D02*
X125950057Y-89761904D01*
X125950057Y-89761904D02*
X126045295Y-89809523D01*
X126045295Y-89809523D02*
X126140533Y-89809523D01*
X126140533Y-89809523D02*
X126283390Y-89761904D01*
X126283390Y-89761904D02*
X126854819Y-89190476D01*
X126854819Y-89190476D02*
X126854819Y-89809523D01*
X125854819Y-90666666D02*
X125854819Y-90476190D01*
X125854819Y-90476190D02*
X125902438Y-90380952D01*
X125902438Y-90380952D02*
X125950057Y-90333333D01*
X125950057Y-90333333D02*
X126092914Y-90238095D01*
X126092914Y-90238095D02*
X126283390Y-90190476D01*
X126283390Y-90190476D02*
X126664342Y-90190476D01*
X126664342Y-90190476D02*
X126759580Y-90238095D01*
X126759580Y-90238095D02*
X126807200Y-90285714D01*
X126807200Y-90285714D02*
X126854819Y-90380952D01*
X126854819Y-90380952D02*
X126854819Y-90571428D01*
X126854819Y-90571428D02*
X126807200Y-90666666D01*
X126807200Y-90666666D02*
X126759580Y-90714285D01*
X126759580Y-90714285D02*
X126664342Y-90761904D01*
X126664342Y-90761904D02*
X126426247Y-90761904D01*
X126426247Y-90761904D02*
X126331009Y-90714285D01*
X126331009Y-90714285D02*
X126283390Y-90666666D01*
X126283390Y-90666666D02*
X126235771Y-90571428D01*
X126235771Y-90571428D02*
X126235771Y-90380952D01*
X126235771Y-90380952D02*
X126283390Y-90285714D01*
X126283390Y-90285714D02*
X126331009Y-90238095D01*
X126331009Y-90238095D02*
X126426247Y-90190476D01*
X128354819Y-88857142D02*
X127878628Y-88523809D01*
X128354819Y-88285714D02*
X127354819Y-88285714D01*
X127354819Y-88285714D02*
X127354819Y-88666666D01*
X127354819Y-88666666D02*
X127402438Y-88761904D01*
X127402438Y-88761904D02*
X127450057Y-88809523D01*
X127450057Y-88809523D02*
X127545295Y-88857142D01*
X127545295Y-88857142D02*
X127688152Y-88857142D01*
X127688152Y-88857142D02*
X127783390Y-88809523D01*
X127783390Y-88809523D02*
X127831009Y-88761904D01*
X127831009Y-88761904D02*
X127878628Y-88666666D01*
X127878628Y-88666666D02*
X127878628Y-88285714D01*
X127450057Y-89238095D02*
X127402438Y-89285714D01*
X127402438Y-89285714D02*
X127354819Y-89380952D01*
X127354819Y-89380952D02*
X127354819Y-89619047D01*
X127354819Y-89619047D02*
X127402438Y-89714285D01*
X127402438Y-89714285D02*
X127450057Y-89761904D01*
X127450057Y-89761904D02*
X127545295Y-89809523D01*
X127545295Y-89809523D02*
X127640533Y-89809523D01*
X127640533Y-89809523D02*
X127783390Y-89761904D01*
X127783390Y-89761904D02*
X128354819Y-89190476D01*
X128354819Y-89190476D02*
X128354819Y-89809523D01*
X127354819Y-90142857D02*
X127354819Y-90809523D01*
X127354819Y-90809523D02*
X128354819Y-90380952D01*
X112509523Y-70881009D02*
X112842856Y-70881009D01*
X112842856Y-71404819D02*
X112842856Y-70404819D01*
X112842856Y-70404819D02*
X112366666Y-70404819D01*
X111461904Y-71404819D02*
X112033332Y-71404819D01*
X111747618Y-71404819D02*
X111747618Y-70404819D01*
X111747618Y-70404819D02*
X111842856Y-70547676D01*
X111842856Y-70547676D02*
X111938094Y-70642914D01*
X111938094Y-70642914D02*
X112033332Y-70690533D01*
X111128570Y-70404819D02*
X110461904Y-70404819D01*
X110461904Y-70404819D02*
X110890475Y-71404819D01*
X120466666Y-73629580D02*
X120514285Y-73677200D01*
X120514285Y-73677200D02*
X120657142Y-73724819D01*
X120657142Y-73724819D02*
X120752380Y-73724819D01*
X120752380Y-73724819D02*
X120895237Y-73677200D01*
X120895237Y-73677200D02*
X120990475Y-73581961D01*
X120990475Y-73581961D02*
X121038094Y-73486723D01*
X121038094Y-73486723D02*
X121085713Y-73296247D01*
X121085713Y-73296247D02*
X121085713Y-73153390D01*
X121085713Y-73153390D02*
X121038094Y-72962914D01*
X121038094Y-72962914D02*
X120990475Y-72867676D01*
X120990475Y-72867676D02*
X120895237Y-72772438D01*
X120895237Y-72772438D02*
X120752380Y-72724819D01*
X120752380Y-72724819D02*
X120657142Y-72724819D01*
X120657142Y-72724819D02*
X120514285Y-72772438D01*
X120514285Y-72772438D02*
X120466666Y-72820057D01*
X120085713Y-72820057D02*
X120038094Y-72772438D01*
X120038094Y-72772438D02*
X119942856Y-72724819D01*
X119942856Y-72724819D02*
X119704761Y-72724819D01*
X119704761Y-72724819D02*
X119609523Y-72772438D01*
X119609523Y-72772438D02*
X119561904Y-72820057D01*
X119561904Y-72820057D02*
X119514285Y-72915295D01*
X119514285Y-72915295D02*
X119514285Y-73010533D01*
X119514285Y-73010533D02*
X119561904Y-73153390D01*
X119561904Y-73153390D02*
X120133332Y-73724819D01*
X120133332Y-73724819D02*
X119514285Y-73724819D01*
X125254819Y-88857142D02*
X124778628Y-88523809D01*
X125254819Y-88285714D02*
X124254819Y-88285714D01*
X124254819Y-88285714D02*
X124254819Y-88666666D01*
X124254819Y-88666666D02*
X124302438Y-88761904D01*
X124302438Y-88761904D02*
X124350057Y-88809523D01*
X124350057Y-88809523D02*
X124445295Y-88857142D01*
X124445295Y-88857142D02*
X124588152Y-88857142D01*
X124588152Y-88857142D02*
X124683390Y-88809523D01*
X124683390Y-88809523D02*
X124731009Y-88761904D01*
X124731009Y-88761904D02*
X124778628Y-88666666D01*
X124778628Y-88666666D02*
X124778628Y-88285714D01*
X124350057Y-89238095D02*
X124302438Y-89285714D01*
X124302438Y-89285714D02*
X124254819Y-89380952D01*
X124254819Y-89380952D02*
X124254819Y-89619047D01*
X124254819Y-89619047D02*
X124302438Y-89714285D01*
X124302438Y-89714285D02*
X124350057Y-89761904D01*
X124350057Y-89761904D02*
X124445295Y-89809523D01*
X124445295Y-89809523D02*
X124540533Y-89809523D01*
X124540533Y-89809523D02*
X124683390Y-89761904D01*
X124683390Y-89761904D02*
X125254819Y-89190476D01*
X125254819Y-89190476D02*
X125254819Y-89809523D01*
X124254819Y-90142857D02*
X124254819Y-90761904D01*
X124254819Y-90761904D02*
X124635771Y-90428571D01*
X124635771Y-90428571D02*
X124635771Y-90571428D01*
X124635771Y-90571428D02*
X124683390Y-90666666D01*
X124683390Y-90666666D02*
X124731009Y-90714285D01*
X124731009Y-90714285D02*
X124826247Y-90761904D01*
X124826247Y-90761904D02*
X125064342Y-90761904D01*
X125064342Y-90761904D02*
X125159580Y-90714285D01*
X125159580Y-90714285D02*
X125207200Y-90666666D01*
X125207200Y-90666666D02*
X125254819Y-90571428D01*
X125254819Y-90571428D02*
X125254819Y-90285714D01*
X125254819Y-90285714D02*
X125207200Y-90190476D01*
X125207200Y-90190476D02*
X125159580Y-90142857D01*
X113854819Y-112733333D02*
X113378628Y-112400000D01*
X113854819Y-112161905D02*
X112854819Y-112161905D01*
X112854819Y-112161905D02*
X112854819Y-112542857D01*
X112854819Y-112542857D02*
X112902438Y-112638095D01*
X112902438Y-112638095D02*
X112950057Y-112685714D01*
X112950057Y-112685714D02*
X113045295Y-112733333D01*
X113045295Y-112733333D02*
X113188152Y-112733333D01*
X113188152Y-112733333D02*
X113283390Y-112685714D01*
X113283390Y-112685714D02*
X113331009Y-112638095D01*
X113331009Y-112638095D02*
X113378628Y-112542857D01*
X113378628Y-112542857D02*
X113378628Y-112161905D01*
X113854819Y-113685714D02*
X113854819Y-113114286D01*
X113854819Y-113400000D02*
X112854819Y-113400000D01*
X112854819Y-113400000D02*
X112997676Y-113304762D01*
X112997676Y-113304762D02*
X113092914Y-113209524D01*
X113092914Y-113209524D02*
X113140533Y-113114286D01*
X123754819Y-88857142D02*
X123278628Y-88523809D01*
X123754819Y-88285714D02*
X122754819Y-88285714D01*
X122754819Y-88285714D02*
X122754819Y-88666666D01*
X122754819Y-88666666D02*
X122802438Y-88761904D01*
X122802438Y-88761904D02*
X122850057Y-88809523D01*
X122850057Y-88809523D02*
X122945295Y-88857142D01*
X122945295Y-88857142D02*
X123088152Y-88857142D01*
X123088152Y-88857142D02*
X123183390Y-88809523D01*
X123183390Y-88809523D02*
X123231009Y-88761904D01*
X123231009Y-88761904D02*
X123278628Y-88666666D01*
X123278628Y-88666666D02*
X123278628Y-88285714D01*
X122850057Y-89238095D02*
X122802438Y-89285714D01*
X122802438Y-89285714D02*
X122754819Y-89380952D01*
X122754819Y-89380952D02*
X122754819Y-89619047D01*
X122754819Y-89619047D02*
X122802438Y-89714285D01*
X122802438Y-89714285D02*
X122850057Y-89761904D01*
X122850057Y-89761904D02*
X122945295Y-89809523D01*
X122945295Y-89809523D02*
X123040533Y-89809523D01*
X123040533Y-89809523D02*
X123183390Y-89761904D01*
X123183390Y-89761904D02*
X123754819Y-89190476D01*
X123754819Y-89190476D02*
X123754819Y-89809523D01*
X122850057Y-90190476D02*
X122802438Y-90238095D01*
X122802438Y-90238095D02*
X122754819Y-90333333D01*
X122754819Y-90333333D02*
X122754819Y-90571428D01*
X122754819Y-90571428D02*
X122802438Y-90666666D01*
X122802438Y-90666666D02*
X122850057Y-90714285D01*
X122850057Y-90714285D02*
X122945295Y-90761904D01*
X122945295Y-90761904D02*
X123040533Y-90761904D01*
X123040533Y-90761904D02*
X123183390Y-90714285D01*
X123183390Y-90714285D02*
X123754819Y-90142857D01*
X123754819Y-90142857D02*
X123754819Y-90761904D01*
X156384819Y-112733333D02*
X155908628Y-112400000D01*
X156384819Y-112161905D02*
X155384819Y-112161905D01*
X155384819Y-112161905D02*
X155384819Y-112542857D01*
X155384819Y-112542857D02*
X155432438Y-112638095D01*
X155432438Y-112638095D02*
X155480057Y-112685714D01*
X155480057Y-112685714D02*
X155575295Y-112733333D01*
X155575295Y-112733333D02*
X155718152Y-112733333D01*
X155718152Y-112733333D02*
X155813390Y-112685714D01*
X155813390Y-112685714D02*
X155861009Y-112638095D01*
X155861009Y-112638095D02*
X155908628Y-112542857D01*
X155908628Y-112542857D02*
X155908628Y-112161905D01*
X155384819Y-113066667D02*
X155384819Y-113733333D01*
X155384819Y-113733333D02*
X156384819Y-113304762D01*
X128084819Y-112733333D02*
X127608628Y-112400000D01*
X128084819Y-112161905D02*
X127084819Y-112161905D01*
X127084819Y-112161905D02*
X127084819Y-112542857D01*
X127084819Y-112542857D02*
X127132438Y-112638095D01*
X127132438Y-112638095D02*
X127180057Y-112685714D01*
X127180057Y-112685714D02*
X127275295Y-112733333D01*
X127275295Y-112733333D02*
X127418152Y-112733333D01*
X127418152Y-112733333D02*
X127513390Y-112685714D01*
X127513390Y-112685714D02*
X127561009Y-112638095D01*
X127561009Y-112638095D02*
X127608628Y-112542857D01*
X127608628Y-112542857D02*
X127608628Y-112161905D01*
X127084819Y-113066667D02*
X127084819Y-113685714D01*
X127084819Y-113685714D02*
X127465771Y-113352381D01*
X127465771Y-113352381D02*
X127465771Y-113495238D01*
X127465771Y-113495238D02*
X127513390Y-113590476D01*
X127513390Y-113590476D02*
X127561009Y-113638095D01*
X127561009Y-113638095D02*
X127656247Y-113685714D01*
X127656247Y-113685714D02*
X127894342Y-113685714D01*
X127894342Y-113685714D02*
X127989580Y-113638095D01*
X127989580Y-113638095D02*
X128037200Y-113590476D01*
X128037200Y-113590476D02*
X128084819Y-113495238D01*
X128084819Y-113495238D02*
X128084819Y-113209524D01*
X128084819Y-113209524D02*
X128037200Y-113114286D01*
X128037200Y-113114286D02*
X127989580Y-113066667D01*
X135184819Y-112833333D02*
X134708628Y-112500000D01*
X135184819Y-112261905D02*
X134184819Y-112261905D01*
X134184819Y-112261905D02*
X134184819Y-112642857D01*
X134184819Y-112642857D02*
X134232438Y-112738095D01*
X134232438Y-112738095D02*
X134280057Y-112785714D01*
X134280057Y-112785714D02*
X134375295Y-112833333D01*
X134375295Y-112833333D02*
X134518152Y-112833333D01*
X134518152Y-112833333D02*
X134613390Y-112785714D01*
X134613390Y-112785714D02*
X134661009Y-112738095D01*
X134661009Y-112738095D02*
X134708628Y-112642857D01*
X134708628Y-112642857D02*
X134708628Y-112261905D01*
X134518152Y-113690476D02*
X135184819Y-113690476D01*
X134137200Y-113452381D02*
X134851485Y-113214286D01*
X134851485Y-113214286D02*
X134851485Y-113833333D01*
X169454819Y-90766666D02*
X170169104Y-90766666D01*
X170169104Y-90766666D02*
X170311961Y-90719047D01*
X170311961Y-90719047D02*
X170407200Y-90623809D01*
X170407200Y-90623809D02*
X170454819Y-90480952D01*
X170454819Y-90480952D02*
X170454819Y-90385714D01*
X170454819Y-91242857D02*
X169454819Y-91242857D01*
X169454819Y-91242857D02*
X169454819Y-91623809D01*
X169454819Y-91623809D02*
X169502438Y-91719047D01*
X169502438Y-91719047D02*
X169550057Y-91766666D01*
X169550057Y-91766666D02*
X169645295Y-91814285D01*
X169645295Y-91814285D02*
X169788152Y-91814285D01*
X169788152Y-91814285D02*
X169883390Y-91766666D01*
X169883390Y-91766666D02*
X169931009Y-91719047D01*
X169931009Y-91719047D02*
X169978628Y-91623809D01*
X169978628Y-91623809D02*
X169978628Y-91242857D01*
X169454819Y-92147619D02*
X169454819Y-92766666D01*
X169454819Y-92766666D02*
X169835771Y-92433333D01*
X169835771Y-92433333D02*
X169835771Y-92576190D01*
X169835771Y-92576190D02*
X169883390Y-92671428D01*
X169883390Y-92671428D02*
X169931009Y-92719047D01*
X169931009Y-92719047D02*
X170026247Y-92766666D01*
X170026247Y-92766666D02*
X170264342Y-92766666D01*
X170264342Y-92766666D02*
X170359580Y-92719047D01*
X170359580Y-92719047D02*
X170407200Y-92671428D01*
X170407200Y-92671428D02*
X170454819Y-92576190D01*
X170454819Y-92576190D02*
X170454819Y-92290476D01*
X170454819Y-92290476D02*
X170407200Y-92195238D01*
X170407200Y-92195238D02*
X170359580Y-92147619D01*
X171354819Y-93866667D02*
X171354819Y-94485714D01*
X171354819Y-94485714D02*
X171735771Y-94152381D01*
X171735771Y-94152381D02*
X171735771Y-94295238D01*
X171735771Y-94295238D02*
X171783390Y-94390476D01*
X171783390Y-94390476D02*
X171831009Y-94438095D01*
X171831009Y-94438095D02*
X171926247Y-94485714D01*
X171926247Y-94485714D02*
X172164342Y-94485714D01*
X172164342Y-94485714D02*
X172259580Y-94438095D01*
X172259580Y-94438095D02*
X172307200Y-94390476D01*
X172307200Y-94390476D02*
X172354819Y-94295238D01*
X172354819Y-94295238D02*
X172354819Y-94009524D01*
X172354819Y-94009524D02*
X172307200Y-93914286D01*
X172307200Y-93914286D02*
X172259580Y-93866667D01*
X172354819Y-89285714D02*
X172354819Y-88714286D01*
X172354819Y-89000000D02*
X171354819Y-89000000D01*
X171354819Y-89000000D02*
X171497676Y-88904762D01*
X171497676Y-88904762D02*
X171592914Y-88809524D01*
X171592914Y-88809524D02*
X171640533Y-88714286D01*
X142384819Y-112833333D02*
X141908628Y-112500000D01*
X142384819Y-112261905D02*
X141384819Y-112261905D01*
X141384819Y-112261905D02*
X141384819Y-112642857D01*
X141384819Y-112642857D02*
X141432438Y-112738095D01*
X141432438Y-112738095D02*
X141480057Y-112785714D01*
X141480057Y-112785714D02*
X141575295Y-112833333D01*
X141575295Y-112833333D02*
X141718152Y-112833333D01*
X141718152Y-112833333D02*
X141813390Y-112785714D01*
X141813390Y-112785714D02*
X141861009Y-112738095D01*
X141861009Y-112738095D02*
X141908628Y-112642857D01*
X141908628Y-112642857D02*
X141908628Y-112261905D01*
X141384819Y-113738095D02*
X141384819Y-113261905D01*
X141384819Y-113261905D02*
X141861009Y-113214286D01*
X141861009Y-113214286D02*
X141813390Y-113261905D01*
X141813390Y-113261905D02*
X141765771Y-113357143D01*
X141765771Y-113357143D02*
X141765771Y-113595238D01*
X141765771Y-113595238D02*
X141813390Y-113690476D01*
X141813390Y-113690476D02*
X141861009Y-113738095D01*
X141861009Y-113738095D02*
X141956247Y-113785714D01*
X141956247Y-113785714D02*
X142194342Y-113785714D01*
X142194342Y-113785714D02*
X142289580Y-113738095D01*
X142289580Y-113738095D02*
X142337200Y-113690476D01*
X142337200Y-113690476D02*
X142384819Y-113595238D01*
X142384819Y-113595238D02*
X142384819Y-113357143D01*
X142384819Y-113357143D02*
X142337200Y-113261905D01*
X142337200Y-113261905D02*
X142289580Y-113214286D01*
X149284819Y-112833333D02*
X148808628Y-112500000D01*
X149284819Y-112261905D02*
X148284819Y-112261905D01*
X148284819Y-112261905D02*
X148284819Y-112642857D01*
X148284819Y-112642857D02*
X148332438Y-112738095D01*
X148332438Y-112738095D02*
X148380057Y-112785714D01*
X148380057Y-112785714D02*
X148475295Y-112833333D01*
X148475295Y-112833333D02*
X148618152Y-112833333D01*
X148618152Y-112833333D02*
X148713390Y-112785714D01*
X148713390Y-112785714D02*
X148761009Y-112738095D01*
X148761009Y-112738095D02*
X148808628Y-112642857D01*
X148808628Y-112642857D02*
X148808628Y-112261905D01*
X148284819Y-113690476D02*
X148284819Y-113500000D01*
X148284819Y-113500000D02*
X148332438Y-113404762D01*
X148332438Y-113404762D02*
X148380057Y-113357143D01*
X148380057Y-113357143D02*
X148522914Y-113261905D01*
X148522914Y-113261905D02*
X148713390Y-113214286D01*
X148713390Y-113214286D02*
X149094342Y-113214286D01*
X149094342Y-113214286D02*
X149189580Y-113261905D01*
X149189580Y-113261905D02*
X149237200Y-113309524D01*
X149237200Y-113309524D02*
X149284819Y-113404762D01*
X149284819Y-113404762D02*
X149284819Y-113595238D01*
X149284819Y-113595238D02*
X149237200Y-113690476D01*
X149237200Y-113690476D02*
X149189580Y-113738095D01*
X149189580Y-113738095D02*
X149094342Y-113785714D01*
X149094342Y-113785714D02*
X148856247Y-113785714D01*
X148856247Y-113785714D02*
X148761009Y-113738095D01*
X148761009Y-113738095D02*
X148713390Y-113690476D01*
X148713390Y-113690476D02*
X148665771Y-113595238D01*
X148665771Y-113595238D02*
X148665771Y-113404762D01*
X148665771Y-113404762D02*
X148713390Y-113309524D01*
X148713390Y-113309524D02*
X148761009Y-113261905D01*
X148761009Y-113261905D02*
X148856247Y-113214286D01*
X120784819Y-112833333D02*
X120308628Y-112500000D01*
X120784819Y-112261905D02*
X119784819Y-112261905D01*
X119784819Y-112261905D02*
X119784819Y-112642857D01*
X119784819Y-112642857D02*
X119832438Y-112738095D01*
X119832438Y-112738095D02*
X119880057Y-112785714D01*
X119880057Y-112785714D02*
X119975295Y-112833333D01*
X119975295Y-112833333D02*
X120118152Y-112833333D01*
X120118152Y-112833333D02*
X120213390Y-112785714D01*
X120213390Y-112785714D02*
X120261009Y-112738095D01*
X120261009Y-112738095D02*
X120308628Y-112642857D01*
X120308628Y-112642857D02*
X120308628Y-112261905D01*
X119880057Y-113214286D02*
X119832438Y-113261905D01*
X119832438Y-113261905D02*
X119784819Y-113357143D01*
X119784819Y-113357143D02*
X119784819Y-113595238D01*
X119784819Y-113595238D02*
X119832438Y-113690476D01*
X119832438Y-113690476D02*
X119880057Y-113738095D01*
X119880057Y-113738095D02*
X119975295Y-113785714D01*
X119975295Y-113785714D02*
X120070533Y-113785714D01*
X120070533Y-113785714D02*
X120213390Y-113738095D01*
X120213390Y-113738095D02*
X120784819Y-113166667D01*
X120784819Y-113166667D02*
X120784819Y-113785714D01*
D11*
%TO.C,JP1*%
X162900000Y-93000000D02*
X162900000Y-90200000D01*
X163600000Y-89550000D02*
X164200000Y-89550000D01*
X164200000Y-93650000D02*
X163600000Y-93650000D01*
X164900000Y-90200000D02*
X164900000Y-93000000D01*
X162900000Y-90250000D02*
G75*
G02*
X163600000Y-89550000I699999J1D01*
G01*
X163600000Y-93650000D02*
G75*
G02*
X162900000Y-92950000I0J700000D01*
G01*
X164200000Y-89550000D02*
G75*
G02*
X164900000Y-90250000I1J-699999D01*
G01*
X164900000Y-92950000D02*
G75*
G02*
X164200000Y-93650000I-700000J0D01*
G01*
%TO.C,JP2*%
X166900000Y-93000000D02*
X166900000Y-90200000D01*
X167600000Y-89550000D02*
X168200000Y-89550000D01*
X168200000Y-93650000D02*
X167600000Y-93650000D01*
X168900000Y-90200000D02*
X168900000Y-93000000D01*
X166900000Y-90250000D02*
G75*
G02*
X167600000Y-89550000I699999J1D01*
G01*
X167600000Y-93650000D02*
G75*
G02*
X166900000Y-92950000I0J700000D01*
G01*
X168200000Y-89550000D02*
G75*
G02*
X168900000Y-90250000I1J-699999D01*
G01*
X168900000Y-92950000D02*
G75*
G02*
X168200000Y-93650000I-700000J0D01*
G01*
%TO.C,R26*%
X125677500Y-86637258D02*
X125677500Y-86162742D01*
X126722500Y-86637258D02*
X126722500Y-86162742D01*
%TO.C,R27*%
X127177500Y-86637258D02*
X127177500Y-86162742D01*
X128222500Y-86637258D02*
X128222500Y-86162742D01*
%TO.C,F17*%
X113086252Y-66590000D02*
X110313748Y-66590000D01*
X113086252Y-70010000D02*
X110313748Y-70010000D01*
%TO.C,C2*%
X120159420Y-74190000D02*
X120440580Y-74190000D01*
X120159420Y-75210000D02*
X120440580Y-75210000D01*
%TO.C,R23*%
X124177500Y-86637258D02*
X124177500Y-86162742D01*
X125222500Y-86637258D02*
X125222500Y-86162742D01*
%TO.C,R1*%
X111277500Y-112562742D02*
X111277500Y-113037258D01*
X112322500Y-112562742D02*
X112322500Y-113037258D01*
%TO.C,R22*%
X122677500Y-86637258D02*
X122677500Y-86162742D01*
X123722500Y-86637258D02*
X123722500Y-86162742D01*
%TO.C,R7*%
X153977500Y-112662742D02*
X153977500Y-113137258D01*
X155022500Y-112662742D02*
X155022500Y-113137258D01*
%TO.C,R3*%
X125677500Y-112662742D02*
X125677500Y-113137258D01*
X126722500Y-112662742D02*
X126722500Y-113137258D01*
%TO.C,R4*%
X132777500Y-112762742D02*
X132777500Y-113237258D01*
X133822500Y-112762742D02*
X133822500Y-113237258D01*
%TO.C,JP3*%
X170900000Y-93000000D02*
X170900000Y-90200000D01*
X171600000Y-89550000D02*
X172200000Y-89550000D01*
X172200000Y-93650000D02*
X171600000Y-93650000D01*
X172900000Y-90200000D02*
X172900000Y-93000000D01*
X170900000Y-90250000D02*
G75*
G02*
X171600000Y-89550000I699999J1D01*
G01*
X171600000Y-93650000D02*
G75*
G02*
X170900000Y-92950000I0J700000D01*
G01*
X172200000Y-89550000D02*
G75*
G02*
X172900000Y-90250000I1J-699999D01*
G01*
X172900000Y-92950000D02*
G75*
G02*
X172200000Y-93650000I-700000J0D01*
G01*
%TO.C,R5*%
X139977500Y-112762742D02*
X139977500Y-113237258D01*
X141022500Y-112762742D02*
X141022500Y-113237258D01*
%TO.C,R6*%
X146877500Y-112762742D02*
X146877500Y-113237258D01*
X147922500Y-112762742D02*
X147922500Y-113237258D01*
%TO.C,R2*%
X118377500Y-112762742D02*
X118377500Y-113237258D01*
X119422500Y-112762742D02*
X119422500Y-113237258D01*
%TD*%
D12*
%TO.C,MOD1*%
X101175000Y-55745000D02*
X101175000Y-138995000D01*
X101175000Y-138995000D02*
X201175000Y-138995000D01*
X201175000Y-55745000D02*
X101175000Y-55745000D01*
X201175000Y-138995000D02*
X201175000Y-55745000D01*
%TD*%
M02*
