M48
; DRILL file {KiCad 8.0.0} date 2024-08-18T21:11:02+0200
; FORMAT={-:-/ absolute / inch / decimal}
; #@! TF.CreationDate,2024-08-18T21:11:02+02:00
; #@! TF.GenerationSoftware,Kicad,Pcbnew,8.0.0
; #@! TF.FileFunction,Plated,1,2,PTH
FMAT,2
INCH
; #@! TA.AperFunction,Plated,PTH,ViaDrill
T1C0.0079
; #@! TA.AperFunction,Plated,PTH,ViaDrill
T2C0.0118
; #@! TA.AperFunction,Plated,PTH,ViaDrill
T3C0.0157
; #@! TA.AperFunction,Plated,PTH,ComponentDrill
T4C0.0315
; #@! TA.AperFunction,Plated,PTH,ComponentDrill
T5C0.0394
; #@! TA.AperFunction,Plated,PTH,ComponentDrill
T6C0.0409
; #@! TA.AperFunction,Plated,PTH,ComponentDrill
T7C0.0512
; #@! TA.AperFunction,Plated,PTH,ComponentDrill
T8C0.0984
%
G90
G05
T1
X4.0551Y-4.6457
X4.0551Y-5.0787
X4.2362Y-3.752
X4.2512Y-3.7827
X4.4331Y-3.6299
X4.4331Y-3.878
X4.4449Y-4.3858
X4.6024Y-3.4252
X4.7283Y-4.3858
X4.8017Y-3.7205
X4.8504Y-3.4685
X4.8517Y-3.811
X4.8789Y-3.9882
X4.9017Y-3.7559
X4.9094Y-3.4803
X4.9517Y-3.7598
X4.9528Y-3.8543
X4.9528Y-4.0827
X4.9685Y-3.4724
X5.0017Y-3.766
X5.0118Y-4.3858
X5.0276Y-3.4646
X5.2913Y-4.3858
X5.4213Y-3.9882
X5.4764Y-4.0354
X5.4921Y-4.0827
X5.5118Y-4.0591
X5.5394Y-4.0118
X5.5748Y-4.3858
X5.6654Y-3.4291
X5.7283Y-3.4646
X5.7992Y-4.0118
X5.8071Y-3.2874
X5.8465Y-4.0354
X5.8543Y-4.3858
X5.8701Y-4.0591
X5.8937Y-4.0827
X5.9094Y-4.1063
X5.9252Y-3.3465
X5.9252Y-5.1378
X6.1339Y-4.3858
X6.2963Y-3.7352
X6.3297Y-3.622
X6.3622Y-4.0039
X6.3898Y-4.0118
X6.4528Y-3.689
X6.4646Y-3.7638
X6.5214Y-4.0443
X6.5354Y-3.7874
X6.541Y-4.0187
X6.5607Y-3.9931
X6.5804Y-3.9675
X6.6001Y-3.9419
X6.6063Y-3.8661
X6.6102Y-3.689
X6.6198Y-3.9163
X6.6339Y-3.8386
X6.6395Y-3.8907
X6.6614Y-3.814
X6.7615Y-4.0945
X6.7677Y-3.689
X6.8898Y-3.8396
X6.8937Y-3.8898
X6.9961Y-3.7884
X7.0079Y-3.815
X7.185Y-3.578
X7.1929Y-3.7485
X7.252Y-3.5787
X7.252Y-3.8346
X7.3228Y-3.578
X7.3228Y-3.778
X7.4606Y-3.6378
X7.5079Y-3.7283
T2
X5.937Y-3.5709
X5.937Y-3.7087
X6.2598Y-3.8346
X6.8976Y-3.689
X7.0315Y-3.6969
T3
X4.3Y-4.315
X4.5827Y-4.315
X4.8661Y-4.3189
X5.1457Y-4.315
X5.4291Y-4.3189
X5.7126Y-4.3189
X5.878Y-3.4843
X5.9921Y-4.315
X6.2598Y-3.4843
X6.2756Y-4.315
X6.563Y-4.315
X6.7331Y-3.3661
X6.8465Y-4.315
X7.0087Y-3.578
X7.0205Y-3.3661
X7.1299Y-4.315
X7.3039Y-3.3661
X7.4134Y-4.315
X7.5874Y-3.3661
T4
X5.2244Y-2.7096
X5.2244Y-2.8096
X5.2244Y-2.938
X5.2244Y-3.038
X5.5244Y-2.7096
X5.5244Y-2.8096
X5.5244Y-2.938
X5.5244Y-3.038
X5.7717Y-2.7071
X5.7717Y-2.8071
X5.7717Y-2.9354
X5.7717Y-3.0354
X6.0717Y-2.7071
X6.0717Y-2.8071
X6.0717Y-2.9354
X6.0717Y-3.0354
T5
X4.0984Y-3.5827
X4.0984Y-3.6827
X4.0984Y-3.7827
X4.0984Y-3.8827
X4.0984Y-3.9827
X4.4391Y-2.9409
X4.5391Y-2.9409
X4.6391Y-2.9409
X5.5276Y-3.9315
X5.6276Y-3.9315
X5.7276Y-3.9315
X5.8276Y-3.9315
X7.7569Y-3.5827
X7.7569Y-3.6827
X7.7569Y-3.7827
X7.7569Y-3.8827
X7.7569Y-3.9827
T6
X4.2496Y-3.1654
X4.2496Y-4.1654
X4.3496Y-3.1654
X4.3496Y-4.1654
X4.4496Y-3.1654
X4.4496Y-4.1654
X4.5496Y-3.1654
X4.5496Y-4.1654
X4.6496Y-3.1654
X4.6496Y-4.1654
X4.7496Y-3.1654
X4.7496Y-4.1654
X4.8496Y-3.1654
X4.8496Y-4.1654
X4.9496Y-3.1654
X4.9496Y-4.1654
X5.0496Y-3.1654
X5.0496Y-4.1654
X5.1496Y-3.1654
X5.1496Y-4.1654
X5.2496Y-3.1654
X5.2496Y-4.1654
X5.3496Y-3.1654
X5.3496Y-4.1654
X5.4496Y-3.1654
X5.4496Y-4.1654
X5.5496Y-3.1654
X5.5496Y-4.1654
X5.6496Y-3.1654
X5.6496Y-4.1654
X5.7496Y-3.1654
X5.7496Y-4.1654
X5.8496Y-3.1654
X5.8496Y-4.1654
X5.9496Y-3.1654
X5.9496Y-4.1654
X6.0496Y-3.1654
X6.0496Y-4.1654
T7
X4.2785Y-2.4079
X4.2785Y-5.2591
X4.4754Y-2.4079
X4.4754Y-5.2591
X4.6722Y-2.4079
X4.6722Y-5.2591
X4.8691Y-2.4079
X4.8691Y-5.2591
X5.0659Y-2.4079
X5.0659Y-5.2591
X5.2628Y-2.4079
X5.2628Y-5.2591
X5.4596Y-2.4079
X5.4596Y-5.2591
X5.6565Y-2.4079
X5.6565Y-5.2591
X6.247Y-2.4079
X6.247Y-5.2591
X6.4439Y-2.4079
X6.4439Y-5.2591
X6.6407Y-2.4079
X6.6407Y-5.2591
X6.8376Y-2.4079
X6.8376Y-5.2591
X7.0344Y-2.4079
X7.0344Y-5.2591
X7.2313Y-2.4079
X7.2313Y-5.2591
X7.4281Y-2.4079
X7.4281Y-5.2591
X7.625Y-2.4079
X7.625Y-5.2591
T8
X4.1358Y-2.8307
X4.1358Y-4.8346
X7.7677Y-2.8307
X7.7677Y-4.8346
M30
